<svg width="881" height="547" viewBox="0 0 881 547" fill="none" xmlns="http://www.w3.org/2000/svg">
<g filter="url(#filter0_d)">
<rect x="5" width="873" height="539" rx="5" fill="#EB3F6D"/>
</g>
<path d="M28.5 19C28.5 16.5147 30.5147 14.5 33 14.5H430.5V524.5H33C30.5147 524.5 28.5 522.485 28.5 520V19Z" fill="white" stroke="#E6E6E6"/>
<path d="M32.5 19C32.5 16.5147 34.5147 14.5 37 14.5H429.5V524.5H37C34.5147 524.5 32.5 522.485 32.5 520V19Z" fill="white" stroke="#E6E6E6"/>
<path d="M37.5 19C37.5 16.5147 39.5147 14.5 42 14.5H429.5V524.5H42C39.5147 524.5 37.5 522.485 37.5 520V19Z" fill="white" stroke="#E6E6E6"/>
<path d="M451.5 14.5H849C851.485 14.5 853.5 16.5147 853.5 19V520C853.5 522.485 851.485 524.5 849 524.5H451.5V14.5Z" fill="white" stroke="#E6E6E6"/>
<path d="M451.5 14.5H844C846.485 14.5 848.5 16.5147 848.5 19V520C848.5 522.485 846.485 524.5 844 524.5H451.5V14.5Z" fill="white" stroke="#E6E6E6"/>
<path d="M451.5 14.5H839C841.485 14.5 843.5 16.5147 843.5 19V520C843.5 522.485 841.485 524.5 839 524.5H451.5V14.5Z" fill="white" stroke="#E6E6E6"/>
<path d="M451.5 14.5H834C836.485 14.5 838.5 16.5147 838.5 19V520C838.5 522.485 836.485 524.5 834 524.5H451.5V14.5Z" fill="white" stroke="#E6E6E6"/>
<path d="M451.5 14.5H829C831.485 14.5 833.5 16.5147 833.5 19V520C833.5 522.485 831.485 524.5 829 524.5H451.5V14.5Z" fill="white" stroke="#E6E6E6"/>
<path d="M451.5 14.5H824C826.485 14.5 828.5 16.5147 828.5 19V520C828.5 522.485 826.485 524.5 824 524.5H451.5V14.5Z" fill="white" stroke="#E6E6E6"/>
<path d="M451.5 14.5H819C821.485 14.5 823.5 16.5147 823.5 19V520C823.5 522.485 821.485 524.5 819 524.5H451.5V14.5Z" fill="white" stroke="#E6E6E6"/>
<rect x="431" y="14" width="20" height="511" fill="#E6E6E6"/>
<defs>
<filter id="filter0_d" x="0" y="0" width="881" height="547" filterUnits="userSpaceOnUse" color-interpolation-filters="sRGB">
<feFlood flood-opacity="0" result="BackgroundImageFix"/>
<feColorMatrix in="SourceAlpha" type="matrix" values="0 0 0 0 0 0 0 0 0 0 0 0 0 0 0 0 0 0 127 0"/>
<feOffset dx="-1" dy="4"/>
<feGaussianBlur stdDeviation="2"/>
<feColorMatrix type="matrix" values="0 0 0 0 0 0 0 0 0 0 0 0 0 0 0 0 0 0 0.15 0"/>
<feBlend mode="normal" in2="BackgroundImageFix" result="effect1_dropShadow"/>
<feBlend mode="normal" in="SourceGraphic" in2="effect1_dropShadow" result="shape"/>
</filter>
</defs>
</svg>
