<svg width="454" height="473" viewBox="0 0 454 473" fill="none" xmlns="http://www.w3.org/2000/svg">
<path d="M454 0H41V417H454V0Z" fill="#F35B84"/>
<path d="M0 417H454V473H30C13.4315 473 0 459.569 0 443V417Z" fill="#ED1D54"/>
<path d="M27 444C27 434.059 35.0589 426 45 426H454V462H45C35.0589 462 27 453.941 27 444V444Z" fill="white"/>
<path d="M203.37 76.5856V81.5388H167.29V76.4009L203.37 76.5856Z" fill="white"/>
<path d="M145.202 367.046L97.7558 366.819C96.6485 368.499 95.5244 370.077 94.4003 371.672L94.3584 387.531L149.321 387.783C146.843 381.137 145.452 374.135 145.202 367.046V367.046ZM232.378 283.303C230.991 278.825 229.677 274.348 228.435 269.87C221.695 245.172 216.434 220.092 212.681 194.766V194.766C212.06 190.664 211.482 186.631 210.945 182.668C210.475 179.215 210.039 175.829 209.636 172.51C203.839 125.261 203.764 90.6391 203.764 90.6391L166.652 90.446C166.652 90.446 166.275 125.068 160.092 172.267C159.656 175.591 159.189 178.977 158.691 182.425C158.132 186.343 157.523 190.367 156.863 194.497C152.906 219.793 147.446 244.83 140.513 269.476C139.238 273.953 137.893 278.431 136.478 282.908C134.75 288.36 132.927 293.769 131.009 299.137L237.721 299.607C235.837 294.206 234.056 288.771 232.378 283.303ZM165.411 260.636C171.392 233.091 174.638 203.699 174.638 203.699L195.325 203.783C196.583 215.889 204.225 260.871 204.225 260.871L165.411 260.636ZM270.53 367.651L223.092 367.424C222.817 374.506 221.401 381.497 218.897 388.127L273.86 388.395L273.902 372.537C272.753 370.933 271.637 369.296 270.53 367.651Z" fill="white"/>
<path d="M223.092 367.424C223.133 366.492 223.159 365.56 223.159 364.62C223.219 356.364 221.736 348.17 218.788 340.458C218.427 339.527 218.05 338.62 217.647 337.73C214.867 331.318 210.748 325.576 205.568 320.889V320.889C199.425 316.289 191.966 313.79 184.294 313.761H184.109C176.586 313.735 169.247 316.085 163.137 320.478C157.742 325.227 153.465 331.113 150.613 337.713C150.11 338.83 149.64 339.98 149.204 341.155C146.485 348.539 145.099 356.348 145.11 364.217C145.11 365.157 145.11 366.098 145.16 367.03L97.7139 366.803C111.295 346.747 122.209 323.466 130.967 299.086L237.679 299.557C246.261 324.037 257.015 347.41 270.488 367.634L223.092 367.424Z" fill="white"/>
<path d="M283.549 367.71L283.491 389L214.703 388.664L214.762 368.339V367.382H215.315L223.1 367.424L270.53 367.651L283.549 367.71Z" fill="#9E9D9D"/>
<path d="M151.846 367.08L151.787 388.362L83 388.026L83.0587 366.744L97.7557 366.82L145.202 367.046L151.846 367.08Z" fill="#9E9D9D"/>
<path d="M252.351 283.395L237.721 299.59V299.573L131.008 299.103V299.086L117.452 282.791L136.478 282.875L232.377 283.303L252.351 283.395Z" fill="#9E9D9D"/>
<path d="M252.351 283.396L117.452 282.791L117.486 269.342L252.376 269.946L252.351 283.396Z" fill="#9E9D9D"/>
<path d="M212.681 194.741L156.862 194.472L150.151 182.358L219.669 182.677L212.681 194.741Z" fill="#9E9D9D"/>
<path d="M219.669 182.677L150.151 182.358L150.177 172.2L219.694 172.519L219.669 182.677Z" fill="#9E9D9D"/>
<path d="M203.772 90.6058L166.652 90.4127L162.676 85.3503L207.966 85.5686L203.772 90.6058Z" fill="#1037D0"/>
<path d="M203.772 90.6058L166.652 90.4127L162.676 85.3503L207.966 85.5686L203.772 90.6058Z" fill="#1037D0"/>
<path d="M203.772 90.6058L166.652 90.4127L162.676 85.3503L207.966 85.5686L203.772 90.6058Z" fill="#9E9D9D"/>
<path d="M207.992 76.6107L207.967 85.5685L189.839 85.4762L162.668 85.3418L162.693 76.384L167.29 76.4008L203.37 76.5855L207.992 76.6107Z" fill="#9E9D9D"/>
<path d="M203.369 68.6184V76.552L167.298 76.3673V68.6184C167.298 56.2605 174.269 46.077 183.236 44.7002V32.804C183.236 31.2509 184.176 30 185.334 30C185.63 30.0128 185.919 30.0956 186.177 30.2415C186.435 30.3874 186.655 30.5923 186.818 30.8395C187.228 31.4211 187.442 32.1178 187.431 32.8292V44.7338C191.575 45.3718 195.283 47.882 198.084 51.6263C201.61 56.582 203.462 62.5355 203.369 68.6184Z" fill="white"/>
<path d="M214.762 367.382H215.315C215.139 367.701 214.946 368.02 214.762 368.339V367.382Z" fill="white"/>
<path d="M196.701 162.053L191.559 100.885H179.275L173.847 162.053H196.701Z" fill="#F35B84"/>
<circle cx="307.791" cy="48.7912" r="18.7909" fill="#ED1D54"/>
<path d="M317.387 43.2607C317.762 42.8331 317.712 42.1814 317.276 41.816L314.102 39.1516C313.679 38.7967 313.051 38.8451 312.687 39.2603V39.2603C312.313 39.688 312.363 40.3397 312.798 40.705L315.972 43.3695C316.395 43.7243 317.024 43.676 317.387 43.2607V43.2607ZM302.765 40.8048C303.209 40.4419 303.264 39.7837 302.886 39.3524V39.3524C302.526 38.941 301.905 38.8893 301.482 39.2354L298.324 41.818C297.88 42.1809 297.826 42.8392 298.203 43.2705V43.2705C298.563 43.6818 299.185 43.7336 299.608 43.3875L302.765 40.8048ZM308.305 45.5931C308.305 45.1674 307.96 44.8222 307.534 44.8222V44.8222C307.108 44.8222 306.763 45.1674 306.763 45.5931V48.8357C306.763 50.1353 307.44 51.3412 308.549 52.0187L310.997 53.5147C311.331 53.7185 311.766 53.6236 311.984 53.2993V53.2993C312.219 52.9511 312.112 52.4775 311.752 52.2631L309.743 51.0697C308.851 50.5402 308.305 49.5801 308.305 48.5433V45.5931ZM307.791 40.7517C305.961 40.7517 304.173 41.2889 302.652 42.2952C301.13 43.3016 299.945 44.732 299.245 46.4055C298.545 48.079 298.361 49.9205 298.718 51.6971C299.075 53.4737 299.956 55.1056 301.25 56.3865C302.544 57.6674 304.192 58.5396 305.986 58.893C307.781 59.2464 309.641 59.065 311.331 58.3719C313.021 57.6787 314.466 56.5048 315.482 54.9986C316.499 53.4925 317.041 51.7218 317.041 49.9104C317.047 48.7062 316.811 47.513 316.348 46.3996C315.884 45.2862 315.203 44.2746 314.343 43.4231C313.483 42.5717 312.462 41.8972 311.337 41.4387C310.212 40.9802 309.007 40.7467 307.791 40.7517ZM307.791 57.0338C306.368 57.0338 304.977 56.616 303.794 55.8332C302.611 55.0505 301.688 53.938 301.144 52.6364C300.599 51.3347 300.457 49.9025 300.734 48.5207C301.012 47.1389 301.697 45.8696 302.703 44.8734C303.71 43.8771 304.992 43.1987 306.387 42.9238C307.783 42.649 309.23 42.7901 310.544 43.3292C311.859 43.8684 312.983 44.7814 313.773 45.9528C314.564 47.1243 314.986 48.5015 314.986 49.9104C314.992 50.8474 314.81 51.7764 314.45 52.6432C314.091 53.5101 313.561 54.2977 312.892 54.9603C312.222 55.6229 311.427 56.1474 310.551 56.5034C309.676 56.8593 308.737 57.0396 307.791 57.0338Z" fill="white"/>
<path d="M339.75 44.449C340.02 44.269 340.434 44.107 340.902 44.107C341.784 44.107 342.09 44.881 342.09 45.241C342.09 45.295 342.18 46.519 340.938 46.519H340.47C339.948 46.519 339.462 47.041 339.462 47.599C339.462 48.193 339.93 48.679 340.47 48.679H341.046C342.63 48.679 342.558 50.029 342.54 50.245C342.468 50.857 341.748 51.559 340.848 51.505C340.362 51.487 339.768 51.253 339.354 50.911C338.742 50.389 338.04 50.515 337.644 50.965C337.194 51.469 337.32 52.207 337.68 52.567C338.454 53.377 339.462 53.863 340.65 53.935C343.008 54.097 345.096 52.603 345.294 50.587C345.402 49.327 344.574 47.851 343.278 47.383C344.142 46.897 344.79 46.051 344.79 45.079C344.844 43.387 343.35 41.875 341.298 41.767C340.038 41.695 338.904 42.145 338.13 42.883C337.716 43.279 337.644 43.963 338.058 44.413C338.508 44.881 338.994 44.935 339.75 44.449ZM347.223 47.887C347.223 51.253 348.195 53.953 351.633 53.953C355.071 53.953 356.007 51.253 356.007 47.887C356.007 44.485 355.071 41.767 351.633 41.767C348.195 41.767 347.223 44.485 347.223 47.887ZM349.743 47.887C349.743 45.889 350.193 44.215 351.633 44.215C353.055 44.215 353.487 45.889 353.487 47.887C353.487 49.867 353.055 51.505 351.633 51.505C350.193 51.505 349.743 49.867 349.743 47.887ZM358.987 48.373C358.483 48.373 358.105 48.823 358.105 49.363C358.105 49.885 358.501 50.353 358.987 50.353H363.757C364.243 50.353 364.639 49.885 364.639 49.363C364.639 48.823 364.261 48.373 363.757 48.373H358.987ZM373.717 43.585C373.843 43.315 374.023 42.865 374.023 42.577C374.023 42.001 373.591 41.767 373.015 41.767H366.643C366.049 41.767 365.545 42.289 365.545 42.937C365.545 43.531 366.067 44.089 366.643 44.089H370.621L367.129 52.135C366.859 52.747 367.129 53.503 367.777 53.791C368.425 54.043 369.271 53.737 369.523 53.161L373.717 43.585ZM375.634 52.495C376.552 53.377 377.776 53.953 379.036 53.953C382.006 53.953 383.842 52.135 383.842 49.633C383.842 47.311 382.096 45.781 380.188 45.781C379.414 45.781 378.55 45.997 378.082 46.411L378.442 44.215H382.168C382.726 44.215 383.23 43.657 383.23 43.063C383.23 42.433 382.744 41.911 382.168 41.911H377.164C376.786 41.911 376.408 42.181 376.336 42.631L375.544 47.707C375.472 48.157 375.526 48.553 375.958 48.805C376.39 49.057 376.786 49.075 377.056 48.787C377.794 47.995 378.766 47.761 379.414 47.761C380.638 47.761 381.376 48.427 381.376 49.633C381.376 50.587 380.638 51.505 379.036 51.505C378.496 51.505 377.794 51.181 377.308 50.767C376.876 50.389 376.084 50.353 375.67 50.767C375.184 51.253 375.202 52.045 375.634 52.495ZM398.968 49.021C398.95 46.483 397.672 45.205 395.674 45.205C395.08 45.205 393.838 45.475 393.226 46.807C392.668 45.655 391.786 45.223 390.454 45.223C389.554 45.223 388.654 45.727 388.258 46.609V46.411C388.258 45.781 387.682 45.295 386.998 45.295C386.332 45.295 385.756 45.799 385.738 46.411V52.765C385.756 53.377 386.332 53.881 386.998 53.881C387.682 53.881 388.258 53.395 388.258 52.765V49.345C388.258 48.067 388.96 47.635 389.716 47.635C390.436 47.635 391.102 48.193 391.102 49.255V52.765C391.12 53.377 391.696 53.881 392.362 53.881C393.046 53.881 393.622 53.395 393.622 52.765V49.345C393.622 48.121 394.252 47.635 395.044 47.635C395.782 47.635 396.448 48.211 396.448 49.309V52.765C396.466 53.377 397.042 53.881 397.708 53.881C398.392 53.881 398.968 53.395 398.968 52.765V49.021ZM400.707 42.271C400.707 43.099 401.427 43.747 402.273 43.747C403.119 43.747 403.803 43.099 403.803 42.271C403.803 41.443 403.119 40.813 402.273 40.813C401.427 40.813 400.707 41.443 400.707 42.271ZM403.533 46.411C403.533 45.781 402.957 45.295 402.273 45.295C401.607 45.295 401.031 45.799 401.013 46.411V52.765C401.031 53.377 401.607 53.881 402.273 53.881C402.957 53.881 403.533 53.395 403.533 52.765V46.411ZM408.174 46.411C408.174 45.781 407.598 45.295 406.914 45.295C406.248 45.295 405.672 45.799 405.654 46.411V52.765C405.672 53.377 406.248 53.881 406.914 53.881C407.598 53.881 408.174 53.395 408.174 52.765V49.345C408.174 48.067 408.84 47.635 409.722 47.635C410.568 47.635 411.18 48.193 411.18 49.309V52.765C411.198 53.377 411.774 53.881 412.44 53.881C413.124 53.881 413.7 53.395 413.7 52.765V48.769C413.7 46.375 412.494 45.205 410.604 45.205C409.614 45.205 408.624 45.763 408.174 46.609V46.411Z" fill="white"/>
<path d="M337.993 96.4955C337.525 96.7115 337.345 97.3235 337.597 97.8275C337.831 98.3315 338.443 98.5295 338.893 98.3315L339.703 97.9895V105.856C339.703 106.468 340.315 107.026 340.963 107.026C341.647 107.026 342.223 106.486 342.223 105.856V95.4695C342.223 95.1815 341.989 94.9115 341.665 94.9115H341.629C341.467 94.9115 341.251 94.9475 341.017 95.0555L337.993 96.4955ZM346.978 102.022L349.21 98.4395V102.022H346.978ZM344.44 102.436C344.278 102.706 344.098 102.958 344.098 103.336C344.098 103.822 344.476 104.146 344.998 104.146H349.21V105.856C349.21 106.468 349.822 107.026 350.47 107.026C351.172 107.026 351.748 106.486 351.748 105.856V104.146H352.486C353.008 104.146 353.476 103.624 353.476 103.084C353.476 102.508 353.026 102.022 352.486 102.022H351.748V96.4595C351.748 95.5955 351.064 94.9115 350.128 94.9115C349.336 94.9115 348.94 95.2715 348.562 95.8655L344.44 102.436ZM359.332 104.434C359.872 106.036 361.456 107.098 363.652 107.098C365.848 107.098 368.08 105.928 368.116 103.462C368.152 102.274 367.72 100.582 364.714 99.7175L363.238 99.2855C362.032 98.9435 361.906 98.3495 361.906 98.0255C361.906 97.2875 362.59 96.7475 363.508 96.7475C364.066 96.7475 364.75 96.9455 365.272 97.6115C365.704 98.1515 366.28 98.3315 366.928 97.9175C367.378 97.6295 367.63 97.0535 367.324 96.4595C366.658 95.1635 365.326 94.3895 363.544 94.3895C361.168 94.3895 359.278 95.8835 359.278 98.0975C359.278 99.2135 359.746 100.78 362.482 101.626L363.976 102.04C365.236 102.4 365.488 102.886 365.47 103.444C365.452 104.254 364.714 104.758 363.652 104.758C362.536 104.758 361.924 104.146 361.654 103.588C361.402 103.066 360.736 102.688 360.034 102.958C359.422 103.192 359.134 103.804 359.332 104.434ZM369.673 98.5295C369.169 98.5295 368.773 98.9795 368.773 99.5195C368.773 100.042 369.169 100.492 369.673 100.51H370.357V105.91C370.375 106.522 370.951 107.026 371.617 107.026C372.301 107.026 372.877 106.54 372.877 105.91V100.51H373.831C374.335 100.492 374.731 100.042 374.731 99.5195C374.731 98.9795 374.335 98.5295 373.831 98.5295H372.877V96.3335C372.877 95.7035 372.301 95.2175 371.617 95.2175C370.951 95.2175 370.375 95.7215 370.357 96.3335V98.5295H369.673ZM382.034 99.7175C381.314 98.6015 380.054 98.3675 379.514 98.3675C377.372 98.3675 375.428 99.9335 375.428 102.724C375.428 105.514 377.372 107.098 379.514 107.098C380.468 107.098 381.494 106.63 382.034 105.748V105.91C382.052 106.522 382.628 107.026 383.294 107.026C383.978 107.026 384.554 106.54 384.554 105.91V99.5555C384.554 98.9255 383.978 98.4395 383.294 98.4395C382.628 98.4395 382.052 98.9435 382.034 99.5555V99.7175ZM378.02 102.742C378.02 101.626 378.74 100.618 380 100.618C381.134 100.618 382.052 101.626 382.052 102.742C382.052 103.858 381.134 104.866 380 104.866C378.74 104.866 378.02 103.858 378.02 102.742ZM389.225 99.7175V99.5555C389.207 98.9435 388.631 98.4395 387.965 98.4395C387.281 98.4395 386.705 98.9255 386.705 99.5555V109.924C386.705 110.554 387.281 111.04 387.965 111.04C388.631 111.04 389.207 110.536 389.225 109.924V105.748C389.765 106.63 390.791 107.098 391.745 107.098C393.887 107.098 395.831 105.514 395.831 102.724C395.831 99.9335 393.887 98.3675 391.745 98.3675C391.205 98.3675 389.945 98.6015 389.225 99.7175ZM393.239 102.742C393.239 103.858 392.519 104.866 391.259 104.866C390.125 104.866 389.207 103.858 389.207 102.742C389.207 101.626 390.125 100.618 391.259 100.618C392.519 100.618 393.239 101.626 393.239 102.742ZM400.124 99.7175V99.5555C400.106 98.9435 399.53 98.4395 398.864 98.4395C398.18 98.4395 397.604 98.9255 397.604 99.5555V109.924C397.604 110.554 398.18 111.04 398.864 111.04C399.53 111.04 400.106 110.536 400.124 109.924V105.748C400.664 106.63 401.69 107.098 402.644 107.098C404.786 107.098 406.73 105.514 406.73 102.724C406.73 99.9335 404.786 98.3675 402.644 98.3675C402.104 98.3675 400.844 98.6015 400.124 99.7175ZM404.138 102.742C404.138 103.858 403.418 104.866 402.158 104.866C401.024 104.866 400.106 103.858 400.106 102.742C400.106 101.626 401.024 100.618 402.158 100.618C403.418 100.618 404.138 101.626 404.138 102.742ZM410.59 101.986C410.806 100.924 411.526 100.456 412.462 100.456C413.398 100.456 414.1 100.96 414.226 101.986H410.59ZM415.666 104.668C415.306 104.254 414.658 104.146 414.082 104.542C413.56 104.902 413.128 104.938 412.624 104.938C411.742 104.938 410.68 104.524 410.554 103.552H415.972C416.368 103.552 416.746 103.228 416.746 102.778C416.746 100.132 414.838 98.3675 412.444 98.3675C410.032 98.3675 408.052 100.06 408.052 102.706C408.052 105.352 410.032 107.098 412.444 107.098C413.434 107.098 414.496 106.9 415.342 106.342C415.954 105.982 416.134 105.208 415.666 104.668ZM420.777 99.5555C420.777 98.9255 420.201 98.4395 419.517 98.4395C418.851 98.4395 418.275 98.9435 418.257 99.5555V105.91C418.275 106.522 418.851 107.026 419.517 107.026C420.201 107.026 420.777 106.54 420.777 105.91V102.49C420.777 101.212 421.443 100.78 422.325 100.78C423.171 100.78 423.783 101.338 423.783 102.454V105.91C423.801 106.522 424.377 107.026 425.043 107.026C425.727 107.026 426.303 106.54 426.303 105.91V101.914C426.303 99.5195 425.097 98.3495 423.207 98.3495C422.217 98.3495 421.227 98.9075 420.777 99.7535V99.5555Z" fill="white"/>
<circle cx="308.23" cy="101.523" r="18.7909" fill="#ED1D54"/>
<path d="M298.73 106.523H300.73V107.023H299.73V108.023H300.73V108.523H298.73V109.523H301.73V105.523H298.73V106.523ZM299.73 97.5229H300.73V93.5229H298.73V94.5229H299.73V97.5229ZM298.73 100.523H300.53L298.73 102.623V103.523H301.73V102.523H299.93L301.73 100.423V99.5229H298.73V100.523ZM303.73 94.5229V96.5229H317.73V94.5229H303.73ZM303.73 108.523H317.73V106.523H303.73V108.523ZM303.73 102.523H317.73V100.523H303.73V102.523Z" fill="white"/>
<path d="M0 20C0 8.95431 8.95431 0 20 0H45V417H0V20Z" fill="#ED1D54"/>
</svg>
