<svg width="462" height="526" viewBox="0 0 462 526" fill="none" xmlns="http://www.w3.org/2000/svg">
<g filter="url(#filter0_d)">
<path d="M459 0H46V471H459V0Z" fill="#F35B84"/>
<path d="M5 462H459V518H35C18.4315 518 5 504.569 5 488V462Z" fill="#ED1D54"/>
<path d="M32 489C32 479.059 40.0589 471 50 471H459V507H50C40.0589 507 32 498.941 32 489Z" fill="white"/>
<path d="M191.729 117.903V122.856H155.649V117.718L191.729 117.903Z" fill="white"/>
<path d="M133.562 408.363L86.1152 408.137C85.0079 409.816 83.8838 411.394 82.7597 412.989L82.7178 428.848L137.681 429.1C135.202 422.454 133.811 415.452 133.562 408.363ZM220.737 324.62C219.35 320.143 218.036 315.665 216.794 311.188C210.054 286.489 204.793 261.41 201.041 236.083C200.42 231.981 199.841 227.948 199.304 223.986C198.834 220.532 198.398 217.146 197.995 213.827C192.199 166.579 192.123 131.956 192.123 131.956L155.012 131.763C155.012 131.763 154.634 166.385 148.452 213.584C148.015 216.908 147.549 220.294 147.051 223.742C146.492 227.66 145.882 231.684 145.222 235.815C141.265 261.11 135.806 286.147 128.872 310.793C127.597 315.271 126.252 319.748 124.837 324.226C123.109 329.677 121.286 335.086 119.368 340.454L226.081 340.924C224.196 335.523 222.415 330.088 220.737 324.62ZM153.77 301.953C159.751 274.408 162.998 245.016 162.998 245.016L183.684 245.1C184.943 257.206 192.585 302.188 192.585 302.188L153.77 301.953ZM258.889 408.968L211.451 408.741C211.177 415.823 209.76 422.814 207.257 429.444L262.219 429.713L262.261 413.854C261.112 412.25 259.996 410.613 258.889 408.968Z" fill="white"/>
<path d="M211.451 408.741C211.493 407.809 211.518 406.878 211.518 405.937C211.578 397.681 210.096 389.487 207.147 381.776C206.787 380.844 206.409 379.937 206.007 379.047C203.226 372.635 199.108 366.893 193.927 362.206C187.784 357.606 180.325 355.107 172.653 355.079H172.469C164.946 355.052 157.606 357.402 151.497 361.795C146.102 366.544 141.824 372.43 138.972 379.03C138.469 380.147 137.999 381.297 137.563 382.472C134.845 389.856 133.458 397.665 133.469 405.534C133.469 406.475 133.469 407.415 133.52 408.347L86.0732 408.12C99.6546 388.064 110.568 364.784 119.326 340.404L226.039 340.874C234.621 365.354 245.375 388.727 258.847 408.951L211.451 408.741Z" fill="white"/>
<path d="M271.909 409.027L271.85 430.317L203.062 429.981L203.121 409.656V408.699H203.675L211.46 408.741L258.889 408.968L271.909 409.027Z" fill="#9E9D9D"/>
<path d="M140.206 408.397L140.147 429.679L71.3594 429.343L71.4181 408.061L86.1151 408.137L133.562 408.364L140.206 408.397Z" fill="#9E9D9D"/>
<path d="M240.71 324.713L226.08 340.907V340.89L119.368 340.42V340.403L105.812 324.108L124.837 324.192L220.737 324.62L240.71 324.713Z" fill="#9E9D9D"/>
<path d="M240.71 324.713L105.812 324.108L105.845 310.659L240.736 311.263L240.71 324.713Z" fill="#9E9D9D"/>
<path d="M201.04 236.058L145.222 235.79L138.511 223.675L208.028 223.994L201.04 236.058Z" fill="#9E9D9D"/>
<path d="M208.028 223.994L138.511 223.675L138.536 213.517L208.053 213.836L208.028 223.994Z" fill="#9E9D9D"/>
<path d="M192.131 131.923L155.011 131.73L151.035 126.667L196.326 126.886L192.131 131.923Z" fill="#1037D0"/>
<path d="M192.131 131.923L155.011 131.73L151.035 126.667L196.326 126.886L192.131 131.923Z" fill="#1037D0"/>
<path d="M192.131 131.923L155.011 131.73L151.035 126.667L196.326 126.886L192.131 131.923Z" fill="#9E9D9D"/>
<path d="M196.352 117.928L196.326 126.886L178.198 126.793L151.027 126.659L151.053 117.701L155.65 117.718L191.729 117.903L196.352 117.928Z" fill="#9E9D9D"/>
<path d="M191.729 109.936V117.869L155.657 117.684V109.936C155.657 97.5776 162.628 87.3941 171.596 86.0173V74.1212C171.596 72.568 172.535 71.3171 173.693 71.3171C173.989 71.33 174.278 71.4127 174.536 71.5586C174.794 71.7045 175.014 71.9095 175.178 72.1567C175.587 72.7382 175.802 73.4349 175.79 74.1464V86.0509C179.934 86.6889 183.642 89.1991 186.444 92.9434C189.97 97.8991 191.821 103.853 191.729 109.936Z" fill="white"/>
<path d="M203.121 408.699H203.675C203.499 409.018 203.306 409.337 203.121 409.656V408.699Z" fill="white"/>
<path d="M185.061 203.37L179.918 142.203H167.634L162.206 203.37H185.061Z" fill="#F35B84"/>
<circle cx="312.791" cy="60.6491" r="18.7909" fill="#ED1D54"/>
<path d="M322.387 55.1186C322.762 54.691 322.712 54.0393 322.276 53.674L319.102 51.0095C318.679 50.6547 318.051 50.703 317.687 51.1183C317.313 51.5459 317.363 52.1976 317.798 52.5629L320.972 55.2274C321.395 55.5822 322.024 55.5339 322.387 55.1186ZM307.765 52.6627C308.209 52.2998 308.264 51.6416 307.886 51.2103C307.526 50.7989 306.905 50.7472 306.482 51.0933L303.324 53.6759C302.88 54.0388 302.826 54.6971 303.203 55.1284C303.563 55.5397 304.185 55.5915 304.608 55.2454L307.765 52.6627ZM313.305 57.451C313.305 57.0253 312.96 56.6801 312.534 56.6801C312.108 56.6801 311.763 57.0253 311.763 57.451V60.6936C311.763 61.9932 312.44 63.1991 313.549 63.8767L315.997 65.3726C316.331 65.5764 316.766 65.4815 316.984 65.1572C317.219 64.809 317.112 64.3354 316.752 64.121L314.743 62.9277C313.851 62.3981 313.305 61.4381 313.305 60.4013V57.451ZM312.791 52.6096C310.961 52.6096 309.173 53.1468 307.652 54.1531C306.13 55.1595 304.945 56.5899 304.245 58.2634C303.545 59.9369 303.361 61.7784 303.718 63.555C304.075 65.3316 304.956 66.9636 306.25 68.2444C307.544 69.5253 309.192 70.3976 310.986 70.7509C312.781 71.1043 314.641 70.923 316.331 70.2298C318.021 69.5366 319.466 68.3627 320.482 66.8565C321.499 65.3504 322.041 63.5797 322.041 61.7683C322.047 60.5641 321.811 59.371 321.348 58.2575C320.884 57.1441 320.203 56.1325 319.343 55.281C318.483 54.4296 317.462 53.7551 316.337 53.2966C315.212 52.8381 314.007 52.6046 312.791 52.6096ZM312.791 68.8917C311.368 68.8917 309.977 68.4739 308.794 67.6912C307.611 66.9084 306.688 65.7959 306.144 64.4943C305.599 63.1926 305.457 61.7604 305.734 60.3786C306.012 58.9968 306.697 57.7275 307.703 56.7313C308.71 55.7351 309.992 55.0566 311.387 54.7818C312.783 54.5069 314.23 54.648 315.544 55.1871C316.859 55.7263 317.983 56.6393 318.773 57.8107C319.564 58.9822 319.986 60.3594 319.986 61.7683C319.992 62.7054 319.81 63.6343 319.45 64.5011C319.091 65.368 318.561 66.1556 317.892 66.8182C317.222 67.4809 316.427 68.0053 315.551 68.3613C314.676 68.7172 313.737 68.8975 312.791 68.8917Z" fill="white"/>
<path d="M344.75 56.3069C345.02 56.1269 345.434 55.9649 345.902 55.9649C346.784 55.9649 347.09 56.7389 347.09 57.0989C347.09 57.1529 347.18 58.3769 345.938 58.3769H345.47C344.948 58.3769 344.462 58.8989 344.462 59.4569C344.462 60.0509 344.93 60.5369 345.47 60.5369H346.046C347.63 60.5369 347.558 61.8869 347.54 62.1029C347.468 62.7149 346.748 63.4169 345.848 63.3629C345.362 63.3449 344.768 63.1109 344.354 62.7689C343.742 62.2469 343.04 62.3729 342.644 62.8229C342.194 63.3269 342.32 64.0649 342.68 64.4249C343.454 65.2349 344.462 65.7209 345.65 65.7929C348.008 65.9549 350.096 64.4609 350.294 62.4449C350.402 61.1849 349.574 59.7089 348.278 59.2409C349.142 58.7549 349.79 57.9089 349.79 56.9369C349.844 55.2449 348.35 53.7329 346.298 53.6249C345.038 53.5529 343.904 54.0029 343.13 54.7409C342.716 55.1369 342.644 55.8209 343.058 56.2709C343.508 56.7389 343.994 56.7929 344.75 56.3069ZM352.223 59.7449C352.223 63.1109 353.195 65.8109 356.633 65.8109C360.071 65.8109 361.007 63.1109 361.007 59.7449C361.007 56.3429 360.071 53.6249 356.633 53.6249C353.195 53.6249 352.223 56.3429 352.223 59.7449ZM354.743 59.7449C354.743 57.7469 355.193 56.0729 356.633 56.0729C358.055 56.0729 358.487 57.7469 358.487 59.7449C358.487 61.7249 358.055 63.3629 356.633 63.3629C355.193 63.3629 354.743 61.7249 354.743 59.7449ZM363.987 60.2309C363.483 60.2309 363.105 60.6809 363.105 61.2209C363.105 61.7429 363.501 62.2109 363.987 62.2109H368.757C369.243 62.2109 369.639 61.7429 369.639 61.2209C369.639 60.6809 369.261 60.2309 368.757 60.2309H363.987ZM378.717 55.4429C378.843 55.1729 379.023 54.7229 379.023 54.4349C379.023 53.8589 378.591 53.6249 378.015 53.6249H371.643C371.049 53.6249 370.545 54.1469 370.545 54.7949C370.545 55.3889 371.067 55.9469 371.643 55.9469H375.621L372.129 63.9929C371.859 64.6049 372.129 65.3609 372.777 65.6489C373.425 65.9009 374.271 65.5949 374.523 65.0189L378.717 55.4429ZM380.634 64.3529C381.552 65.2349 382.776 65.8109 384.036 65.8109C387.006 65.8109 388.842 63.9929 388.842 61.4909C388.842 59.1689 387.096 57.6389 385.188 57.6389C384.414 57.6389 383.55 57.8549 383.082 58.2689L383.442 56.0729H387.168C387.726 56.0729 388.23 55.5149 388.23 54.9209C388.23 54.2909 387.744 53.7689 387.168 53.7689H382.164C381.786 53.7689 381.408 54.0389 381.336 54.4889L380.544 59.5649C380.472 60.0149 380.526 60.4109 380.958 60.6629C381.39 60.9149 381.786 60.9329 382.056 60.6449C382.794 59.8529 383.766 59.6189 384.414 59.6189C385.638 59.6189 386.376 60.2849 386.376 61.4909C386.376 62.4449 385.638 63.3629 384.036 63.3629C383.496 63.3629 382.794 63.0389 382.308 62.6249C381.876 62.2469 381.084 62.2109 380.67 62.6249C380.184 63.1109 380.202 63.9029 380.634 64.3529ZM403.968 60.8789C403.95 58.3409 402.672 57.0629 400.674 57.0629C400.08 57.0629 398.838 57.3329 398.226 58.6649C397.668 57.5129 396.786 57.0809 395.454 57.0809C394.554 57.0809 393.654 57.5849 393.258 58.4669V58.2689C393.258 57.6389 392.682 57.1529 391.998 57.1529C391.332 57.1529 390.756 57.6569 390.738 58.2689V64.6229C390.756 65.2349 391.332 65.7389 391.998 65.7389C392.682 65.7389 393.258 65.2529 393.258 64.6229V61.2029C393.258 59.9249 393.96 59.4929 394.716 59.4929C395.436 59.4929 396.102 60.0509 396.102 61.1129V64.6229C396.12 65.2349 396.696 65.7389 397.362 65.7389C398.046 65.7389 398.622 65.2529 398.622 64.6229V61.2029C398.622 59.9789 399.252 59.4929 400.044 59.4929C400.782 59.4929 401.448 60.0689 401.448 61.1669V64.6229C401.466 65.2349 402.042 65.7389 402.708 65.7389C403.392 65.7389 403.968 65.2529 403.968 64.6229V60.8789ZM405.707 54.1289C405.707 54.9569 406.427 55.6049 407.273 55.6049C408.119 55.6049 408.803 54.9569 408.803 54.1289C408.803 53.3009 408.119 52.6709 407.273 52.6709C406.427 52.6709 405.707 53.3009 405.707 54.1289ZM408.533 58.2689C408.533 57.6389 407.957 57.1529 407.273 57.1529C406.607 57.1529 406.031 57.6569 406.013 58.2689V64.6229C406.031 65.2349 406.607 65.7389 407.273 65.7389C407.957 65.7389 408.533 65.2529 408.533 64.6229V58.2689ZM413.174 58.2689C413.174 57.6389 412.598 57.1529 411.914 57.1529C411.248 57.1529 410.672 57.6569 410.654 58.2689V64.6229C410.672 65.2349 411.248 65.7389 411.914 65.7389C412.598 65.7389 413.174 65.2529 413.174 64.6229V61.2029C413.174 59.9249 413.84 59.4929 414.722 59.4929C415.568 59.4929 416.18 60.0509 416.18 61.1669V64.6229C416.198 65.2349 416.774 65.7389 417.44 65.7389C418.124 65.7389 418.7 65.2529 418.7 64.6229V60.6269C418.7 58.2329 417.494 57.0629 415.604 57.0629C414.614 57.0629 413.624 57.6209 413.174 58.4669V58.2689Z" fill="white"/>
<path d="M342.993 108.353C342.525 108.569 342.345 109.181 342.597 109.685C342.831 110.189 343.443 110.387 343.893 110.189L344.703 109.847V117.713C344.703 118.325 345.315 118.883 345.963 118.883C346.647 118.883 347.223 118.343 347.223 117.713V107.327C347.223 107.039 346.989 106.769 346.665 106.769H346.629C346.467 106.769 346.251 106.805 346.017 106.913L342.993 108.353ZM351.978 113.879L354.21 110.297V113.879H351.978ZM349.44 114.293C349.278 114.563 349.098 114.815 349.098 115.193C349.098 115.679 349.476 116.003 349.998 116.003H354.21V117.713C354.21 118.325 354.822 118.883 355.47 118.883C356.172 118.883 356.748 118.343 356.748 117.713V116.003H357.486C358.008 116.003 358.476 115.481 358.476 114.941C358.476 114.365 358.026 113.879 357.486 113.879H356.748V108.317C356.748 107.453 356.064 106.769 355.128 106.769C354.336 106.769 353.94 107.129 353.562 107.723L349.44 114.293ZM364.332 116.291C364.872 117.893 366.456 118.955 368.652 118.955C370.848 118.955 373.08 117.785 373.116 115.319C373.152 114.131 372.72 112.439 369.714 111.575L368.238 111.143C367.032 110.801 366.906 110.207 366.906 109.883C366.906 109.145 367.59 108.605 368.508 108.605C369.066 108.605 369.75 108.803 370.272 109.469C370.704 110.009 371.28 110.189 371.928 109.775C372.378 109.487 372.63 108.911 372.324 108.317C371.658 107.021 370.326 106.247 368.544 106.247C366.168 106.247 364.278 107.741 364.278 109.955C364.278 111.071 364.746 112.637 367.482 113.483L368.976 113.897C370.236 114.257 370.488 114.743 370.47 115.301C370.452 116.111 369.714 116.615 368.652 116.615C367.536 116.615 366.924 116.003 366.654 115.445C366.402 114.923 365.736 114.545 365.034 114.815C364.422 115.049 364.134 115.661 364.332 116.291ZM374.673 110.387C374.169 110.387 373.773 110.837 373.773 111.377C373.773 111.899 374.169 112.349 374.673 112.367H375.357V117.767C375.375 118.379 375.951 118.883 376.617 118.883C377.301 118.883 377.877 118.397 377.877 117.767V112.367H378.831C379.335 112.349 379.731 111.899 379.731 111.377C379.731 110.837 379.335 110.387 378.831 110.387H377.877V108.191C377.877 107.561 377.301 107.075 376.617 107.075C375.951 107.075 375.375 107.579 375.357 108.191V110.387H374.673ZM387.034 111.575C386.314 110.459 385.054 110.225 384.514 110.225C382.372 110.225 380.428 111.791 380.428 114.581C380.428 117.371 382.372 118.955 384.514 118.955C385.468 118.955 386.494 118.487 387.034 117.605V117.767C387.052 118.379 387.628 118.883 388.294 118.883C388.978 118.883 389.554 118.397 389.554 117.767V111.413C389.554 110.783 388.978 110.297 388.294 110.297C387.628 110.297 387.052 110.801 387.034 111.413V111.575ZM383.02 114.599C383.02 113.483 383.74 112.475 385 112.475C386.134 112.475 387.052 113.483 387.052 114.599C387.052 115.715 386.134 116.723 385 116.723C383.74 116.723 383.02 115.715 383.02 114.599ZM394.225 111.575V111.413C394.207 110.801 393.631 110.297 392.965 110.297C392.281 110.297 391.705 110.783 391.705 111.413V121.781C391.705 122.411 392.281 122.897 392.965 122.897C393.631 122.897 394.207 122.393 394.225 121.781V117.605C394.765 118.487 395.791 118.955 396.745 118.955C398.887 118.955 400.831 117.371 400.831 114.581C400.831 111.791 398.887 110.225 396.745 110.225C396.205 110.225 394.945 110.459 394.225 111.575ZM398.239 114.599C398.239 115.715 397.519 116.723 396.259 116.723C395.125 116.723 394.207 115.715 394.207 114.599C394.207 113.483 395.125 112.475 396.259 112.475C397.519 112.475 398.239 113.483 398.239 114.599ZM405.124 111.575V111.413C405.106 110.801 404.53 110.297 403.864 110.297C403.18 110.297 402.604 110.783 402.604 111.413V121.781C402.604 122.411 403.18 122.897 403.864 122.897C404.53 122.897 405.106 122.393 405.124 121.781V117.605C405.664 118.487 406.69 118.955 407.644 118.955C409.786 118.955 411.73 117.371 411.73 114.581C411.73 111.791 409.786 110.225 407.644 110.225C407.104 110.225 405.844 110.459 405.124 111.575ZM409.138 114.599C409.138 115.715 408.418 116.723 407.158 116.723C406.024 116.723 405.106 115.715 405.106 114.599C405.106 113.483 406.024 112.475 407.158 112.475C408.418 112.475 409.138 113.483 409.138 114.599ZM415.59 113.843C415.806 112.781 416.526 112.313 417.462 112.313C418.398 112.313 419.1 112.817 419.226 113.843H415.59ZM420.666 116.525C420.306 116.111 419.658 116.003 419.082 116.399C418.56 116.759 418.128 116.795 417.624 116.795C416.742 116.795 415.68 116.381 415.554 115.409H420.972C421.368 115.409 421.746 115.085 421.746 114.635C421.746 111.989 419.838 110.225 417.444 110.225C415.032 110.225 413.052 111.917 413.052 114.563C413.052 117.209 415.032 118.955 417.444 118.955C418.434 118.955 419.496 118.757 420.342 118.199C420.954 117.839 421.134 117.065 420.666 116.525ZM425.777 111.413C425.777 110.783 425.201 110.297 424.517 110.297C423.851 110.297 423.275 110.801 423.257 111.413V117.767C423.275 118.379 423.851 118.883 424.517 118.883C425.201 118.883 425.777 118.397 425.777 117.767V114.347C425.777 113.069 426.443 112.637 427.325 112.637C428.171 112.637 428.783 113.195 428.783 114.311V117.767C428.801 118.379 429.377 118.883 430.043 118.883C430.727 118.883 431.303 118.397 431.303 117.767V113.771C431.303 111.377 430.097 110.207 428.207 110.207C427.217 110.207 426.227 110.765 425.777 111.611V111.413Z" fill="white"/>
<circle cx="313.23" cy="113.381" r="18.7909" fill="#ED1D54"/>
<path d="M303.73 118.381H305.73V118.881H304.73V119.881H305.73V120.381H303.73V121.381H306.73V117.381H303.73V118.381ZM304.73 109.381H305.73V105.381H303.73V106.381H304.73V109.381ZM303.73 112.381H305.53L303.73 114.481V115.381H306.73V114.381H304.93L306.73 112.281V111.381H303.73V112.381ZM308.73 106.381V108.381H322.73V106.381H308.73ZM308.73 120.381H322.73V118.381H308.73V120.381ZM308.73 114.381H322.73V112.381H308.73V114.381Z" fill="white"/>
<path d="M5 20C5 8.95431 13.9543 0 25 0H50V464H5V20Z" fill="#ED1D54"/>
<g filter="url(#filter1_d)">
<circle cx="371.126" cy="222.722" r="42.4094" fill="#ED1D54"/>
</g>
<path d="M347.59 249.248H394.307C394.793 249.248 395.188 249.642 395.188 250.128C395.188 250.614 394.793 251.009 394.307 251.009H347.59C347.104 251.009 346.71 250.614 346.71 250.128C346.71 249.642 347.104 249.248 347.59 249.248Z" fill="#F27500"/>
<g clip-path="url(#clip0)">
<path d="M349.963 245.683C346.276 242.571 343.82 237.027 343.82 230.706C343.82 220.972 349.645 213.081 356.829 213.081C364.013 213.081 369.837 220.972 369.837 230.706C369.837 236.924 367.461 242.388 363.874 245.526" fill="#FDE01B"/>
<path d="M357.088 222.038C364.109 222.038 369.8 216.352 369.8 209.338C369.8 202.325 364.109 196.639 357.088 196.639C350.067 196.639 344.375 202.325 344.375 209.338C344.375 216.352 350.067 222.038 357.088 222.038Z" fill="#FDE01B"/>
<path d="M366.039 218.339L367.903 216.719C367.923 216.703 367.937 216.68 367.943 216.654C367.949 216.628 367.946 216.602 367.935 216.578C367.924 216.554 367.906 216.534 367.883 216.522C367.859 216.509 367.833 216.505 367.807 216.509L367.541 216.548L368.835 215.358C368.854 215.34 368.867 215.316 368.872 215.29C368.876 215.264 368.872 215.237 368.859 215.214C368.847 215.19 368.827 215.172 368.803 215.161C368.779 215.15 368.752 215.147 368.726 215.153L368.326 215.249" fill="#FDEC77"/>
<path d="M347.814 218.051L346 216.367C345.981 216.349 345.969 216.326 345.965 216.3C345.96 216.275 345.964 216.249 345.976 216.226C345.987 216.203 346.006 216.184 346.029 216.173C346.052 216.161 346.078 216.157 346.103 216.162L346.368 216.21L345.114 214.976C345.095 214.957 345.083 214.933 345.079 214.906C345.076 214.88 345.081 214.853 345.094 214.83C345.108 214.807 345.128 214.789 345.153 214.779C345.178 214.769 345.205 214.767 345.231 214.774L345.626 214.882" fill="#FDEC77"/>
<path d="M357.403 209.643L358.61 211.305C358.635 211.331 358.655 211.362 358.668 211.395C358.682 211.429 358.688 211.464 358.687 211.5C358.686 211.536 358.678 211.572 358.663 211.605C358.649 211.637 358.627 211.667 358.601 211.691L357.323 213.842C357.27 213.892 357.2 213.919 357.127 213.917C357.054 213.915 356.985 213.885 356.935 213.832L355.727 211.616C355.676 211.564 355.647 211.494 355.647 211.422C355.647 211.349 355.676 211.279 355.727 211.228L357.007 209.645C357.032 209.617 357.063 209.596 357.097 209.581C357.131 209.566 357.167 209.558 357.205 209.558C357.242 209.557 357.278 209.565 357.313 209.58C357.347 209.594 357.377 209.616 357.403 209.643Z" fill="#FDEC77"/>
<path d="M356.148 211.681C356.103 211.63 356.078 211.564 356.078 211.496C356.078 211.428 356.103 211.362 356.148 211.311C356.148 211.311 357.101 209.995 357.224 209.871C357.347 209.748 357.286 209.594 357.286 209.594C357.193 209.489 356.982 209.586 356.885 209.688L355.714 211.227C355.668 211.278 355.652 211.381 355.652 211.412C355.652 211.443 355.67 211.552 355.714 211.597C355.758 211.643 356.726 213.573 356.821 213.718C356.916 213.863 357.129 213.964 357.162 213.908C357.196 213.853 357.162 213.678 357.162 213.678C357.133 213.642 357.094 213.584 357.072 213.543L356.148 211.681Z" fill="#DCC41E"/>
<g filter="url(#filter2_i)">
<path d="M361.928 210.43C363.972 210.43 365.629 208.772 365.629 206.728C365.629 204.684 363.972 203.027 361.928 203.027C359.884 203.027 358.227 204.684 358.227 206.728C358.227 208.772 359.884 210.43 361.928 210.43Z" fill="white"/>
</g>
<path d="M362.152 208.618C363.36 208.618 364.339 207.639 364.339 206.431C364.339 205.223 363.36 204.244 362.152 204.244C360.944 204.244 359.965 205.223 359.965 206.431C359.965 207.639 360.944 208.618 362.152 208.618Z" fill="black"/>
<path d="M363.688 205.531C363.688 205.996 363.312 206.372 362.847 206.372C362.382 206.372 362.006 205.996 362.006 205.531C362.006 205.067 362.382 204.69 362.847 204.69C363.312 204.69 363.688 205.067 363.688 205.531Z" fill="white"/>
<g filter="url(#filter3_i)">
<path d="M352.506 210.43C354.55 210.43 356.207 208.772 356.207 206.728C356.207 204.684 354.55 203.027 352.506 203.027C350.462 203.027 348.805 204.684 348.805 206.728C348.805 208.772 350.462 210.43 352.506 210.43Z" fill="white"/>
</g>
<path d="M352.898 208.618C354.106 208.618 355.085 207.639 355.085 206.431C355.085 205.223 354.106 204.244 352.898 204.244C351.69 204.244 350.711 205.223 350.711 206.431C350.711 207.639 351.69 208.618 352.898 208.618Z" fill="black"/>
<path d="M362.903 198.606L367.971 203.743C368.011 203.783 368.062 203.811 368.117 203.823C368.172 203.836 368.23 203.832 368.283 203.812C368.336 203.793 368.382 203.759 368.417 203.714C368.451 203.669 368.471 203.615 368.476 203.558V196.811C368.48 196.765 368.474 196.719 368.457 196.676C368.44 196.633 368.414 196.595 368.38 196.564C368.346 196.533 368.305 196.511 368.261 196.498C368.216 196.486 368.17 196.484 368.125 196.493L363.06 198.106C363.006 198.114 362.956 198.138 362.915 198.174C362.874 198.209 362.843 198.256 362.827 198.308C362.811 198.359 362.809 198.415 362.822 198.468C362.836 198.52 362.864 198.568 362.903 198.606Z" fill="#FDE01B"/>
<path d="M364.447 198.914L367.298 201.802C367.32 201.824 367.348 201.841 367.379 201.848C367.41 201.855 367.442 201.854 367.472 201.843C367.502 201.832 367.528 201.814 367.547 201.789C367.566 201.764 367.578 201.733 367.581 201.702L367.52 197.607C367.523 197.58 367.52 197.554 367.512 197.529C367.503 197.504 367.488 197.482 367.468 197.463C367.449 197.445 367.426 197.432 367.4 197.425C367.375 197.418 367.348 197.417 367.322 197.422L364.532 198.63C364.501 198.635 364.473 198.649 364.45 198.67C364.427 198.69 364.41 198.717 364.401 198.746C364.393 198.776 364.392 198.807 364.4 198.837C364.408 198.866 364.424 198.893 364.447 198.914Z" fill="black"/>
<path d="M351.075 198.615L346 203.751C345.96 203.791 345.91 203.819 345.854 203.831C345.799 203.844 345.742 203.84 345.688 203.82C345.635 203.801 345.589 203.766 345.555 203.721C345.521 203.676 345.501 203.622 345.497 203.566V196.818C345.492 196.772 345.498 196.726 345.515 196.683C345.531 196.64 345.558 196.601 345.592 196.57C345.626 196.539 345.667 196.517 345.712 196.505C345.756 196.493 345.803 196.491 345.848 196.5L350.913 198.113C350.967 198.121 351.019 198.143 351.061 198.179C351.103 198.214 351.134 198.261 351.151 198.313C351.168 198.366 351.17 198.422 351.157 198.475C351.143 198.529 351.115 198.577 351.075 198.615Z" fill="#FDE01B"/>
<path d="M349.532 198.929L346.68 201.811C346.658 201.834 346.63 201.85 346.6 201.857C346.569 201.865 346.537 201.863 346.507 201.852C346.477 201.842 346.451 201.823 346.431 201.798C346.412 201.773 346.4 201.743 346.397 201.711L346.457 197.616C346.453 197.59 346.456 197.563 346.465 197.538C346.474 197.513 346.489 197.491 346.508 197.473C346.527 197.455 346.551 197.442 346.576 197.434C346.602 197.427 346.629 197.426 346.654 197.431L349.447 198.639C349.479 198.643 349.509 198.656 349.533 198.677C349.558 198.698 349.576 198.725 349.585 198.756C349.594 198.787 349.594 198.82 349.584 198.851C349.575 198.882 349.557 198.909 349.532 198.929Z" fill="black"/>
<path d="M357.494 196.646L359.963 196.561C359.988 196.561 360.014 196.568 360.035 196.583C360.056 196.598 360.071 196.619 360.079 196.644C360.087 196.668 360.088 196.694 360.079 196.719C360.071 196.743 360.056 196.764 360.035 196.779L359.815 196.933L361.573 196.92C361.6 196.919 361.627 196.927 361.648 196.943C361.67 196.959 361.686 196.982 361.693 197.008C361.7 197.034 361.698 197.062 361.687 197.087C361.677 197.112 361.658 197.132 361.634 197.145L361.277 197.346" fill="#FDEC77"/>
<path d="M352.677 197.426L355.112 196.373C355.137 196.363 355.164 196.361 355.189 196.368C355.215 196.375 355.237 196.39 355.253 196.411C355.269 196.432 355.278 196.458 355.278 196.484C355.278 196.511 355.269 196.537 355.253 196.557L355.06 196.801" fill="#F27500"/>
<path d="M352.677 197.426L355.112 196.373C355.137 196.363 355.164 196.361 355.189 196.368C355.215 196.375 355.237 196.39 355.253 196.411C355.269 196.432 355.278 196.458 355.278 196.484C355.278 196.511 355.269 196.537 355.253 196.557L355.06 196.801" fill="#FDEC77"/>
<path d="M355.303 196.766L357.729 196.301C357.754 196.296 357.78 196.3 357.803 196.312C357.825 196.323 357.844 196.341 357.856 196.364C357.868 196.387 357.872 196.412 357.868 196.437C357.864 196.463 357.852 196.486 357.834 196.504L357.649 196.689" fill="#FDEC77"/>
<path d="M354.472 205.363C354.472 205.828 354.095 206.204 353.63 206.204C353.166 206.204 352.789 205.828 352.789 205.363C352.789 204.898 353.166 204.522 353.63 204.522C354.095 204.522 354.472 204.898 354.472 205.363Z" fill="white"/>
<ellipse cx="352.59" cy="210.682" rx="2.94429" ry="1.59833" fill="#FDE01B"/>
<ellipse cx="362.348" cy="210.682" rx="3.61728" ry="1.59833" fill="#FDE01B"/>
<path d="M351.338 229.703C352.139 230.453 354.062 231.368 355.344 229.025C355.221 229.118 357.224 232.354 359.104 229.025C359.227 229.025 361.076 232.354 362.771 229.025" stroke="#FDEC77" stroke-width="0.5" stroke-linecap="round" stroke-linejoin="round"/>
<path d="M353.464 227.053C354.82 227.053 355.405 226.067 355.529 225.574C355.405 225.666 357.409 228.902 359.288 225.574C359.412 226.067 359.997 227.053 361.353 227.053" stroke="#FDEC77" stroke-width="0.5" stroke-linecap="round" stroke-linejoin="round"/>
<path d="M363.464 203.084C364.137 202.997 365.434 202.481 365.235 201.12" stroke="black" stroke-width="0.5" stroke-linecap="round" stroke-linejoin="round"/>
<path d="M364.2 203.496C364.879 203.462 366.208 203.053 366.09 201.684" stroke="black" stroke-width="0.5" stroke-linecap="round" stroke-linejoin="round"/>
<path d="M364.911 204.107C365.592 204.088 366.928 203.706 366.831 202.336" stroke="black" stroke-width="0.5" stroke-linecap="round" stroke-linejoin="round"/>
<path d="M350.556 203.315C349.876 203.226 348.566 202.706 348.766 201.329" stroke="black" stroke-width="0.5" stroke-linecap="round" stroke-linejoin="round"/>
<path d="M349.813 203.731C349.127 203.697 347.783 203.284 347.903 201.9" stroke="black" stroke-width="0.5" stroke-linecap="round" stroke-linejoin="round"/>
<path d="M349.095 204.349C348.407 204.329 347.056 203.943 347.155 202.558" stroke="black" stroke-width="0.5" stroke-linecap="round" stroke-linejoin="round"/>
<path d="M358.619 211.62L357.402 213.734C357.301 213.796 357.064 213.855 356.924 213.589C356.785 213.323 356.124 212.032 355.811 211.42" stroke="#F35B84" stroke-width="0.3" stroke-linecap="round"/>
</g>
<path d="M364.304 249.449V248.036C364.304 247.525 363.89 247.111 363.379 247.111C362.868 247.111 362.454 247.525 362.454 248.036V249.449C362.454 249.96 362.868 250.374 363.379 250.374C363.89 250.374 364.304 249.96 364.304 249.449Z" fill="#FDE01B"/>
<path d="M362.64 249.449V248.036C362.64 247.525 362.226 247.111 361.715 247.111C361.204 247.111 360.79 247.525 360.79 248.036V249.449C360.79 249.96 361.204 250.374 361.715 250.374C362.226 250.374 362.64 249.96 362.64 249.449Z" fill="#FDE01B"/>
<path d="M360.975 249.516V248.103C360.975 247.592 360.561 247.178 360.05 247.178C359.539 247.178 359.125 247.592 359.125 248.103V249.516C359.125 250.026 359.539 250.44 360.05 250.44C360.561 250.44 360.975 250.026 360.975 249.516Z" fill="#FDE01B"/>
<path d="M355.447 249.303V247.89C355.447 247.379 355.033 246.965 354.523 246.965C354.012 246.965 353.598 247.379 353.598 247.89V249.303C353.598 249.814 354.012 250.228 354.523 250.228C355.033 250.228 355.447 249.814 355.447 249.303Z" fill="#FDE01B"/>
<path d="M353.783 249.303V247.89C353.783 247.379 353.369 246.965 352.859 246.965C352.348 246.965 351.934 247.379 351.934 247.89V249.303C351.934 249.814 352.348 250.228 352.859 250.228C353.369 250.228 353.783 249.814 353.783 249.303Z" fill="#FDE01B"/>
<path d="M352.121 249.369V247.956C352.121 247.446 351.707 247.032 351.196 247.032C350.686 247.032 350.272 247.446 350.272 247.956V249.369C350.272 249.88 350.686 250.294 351.196 250.294C351.707 250.294 352.121 249.88 352.121 249.369Z" fill="#FDE01B"/>
<path d="M362.893 244.723C362.893 244.379 362.347 244.1 361.675 244.1C361.002 244.1 360.457 244.379 360.457 244.723V247.794C360.457 248.138 361.002 248.417 361.675 248.417C362.347 248.417 362.893 248.138 362.893 247.794V244.723Z" fill="#FDE01B"/>
<path d="M353.925 244.723C353.925 244.379 353.404 244.1 352.762 244.1C352.12 244.1 351.6 244.379 351.6 244.723V247.794C351.6 248.138 352.12 248.417 352.762 248.417C353.404 248.417 353.925 248.138 353.925 247.794V244.723Z" fill="#FDE01B"/>
<g filter="url(#filter4_d)">
<path d="M371.811 230.493C372.399 235.105 371.618 239.469 369.862 242.868C366.963 239.998 364.833 235.679 364.194 230.675C363.606 226.061 364.387 221.699 366.143 218.298C369.04 221.164 371.172 225.483 371.811 230.493Z" fill="#FDEC77"/>
</g>
<g filter="url(#filter5_d)">
<path d="M350.032 231.143C349.345 235.742 347.408 239.73 344.794 242.523C342.784 238.975 341.907 234.239 342.651 229.249C343.339 224.649 345.276 220.663 347.889 217.868C349.898 221.413 350.777 226.148 350.032 231.143Z" fill="#FDEC77"/>
</g>
<g clip-path="url(#clip1)">
<path d="M377.067 245.628C373.039 242.228 370.356 236.172 370.356 229.267C370.356 218.634 376.719 210.013 384.567 210.013C392.414 210.013 398.777 218.634 398.777 229.267C398.777 236.059 396.181 242.028 392.263 245.456" fill="#3BDBA1"/>
<path d="M384.85 219.798C392.52 219.798 398.737 213.587 398.737 205.925C398.737 198.264 392.52 192.053 384.85 192.053C377.18 192.053 370.963 198.264 370.963 205.925C370.963 213.587 377.18 219.798 384.85 219.798Z" fill="#3BDBA1"/>
<path d="M394.628 215.758L396.664 213.989C396.686 213.97 396.701 213.945 396.708 213.917C396.714 213.889 396.711 213.86 396.699 213.834C396.687 213.807 396.667 213.786 396.642 213.772C396.616 213.759 396.587 213.754 396.559 213.758L396.268 213.801L397.682 212.501C397.703 212.482 397.718 212.456 397.722 212.427C397.727 212.398 397.722 212.369 397.709 212.344C397.695 212.318 397.674 212.298 397.647 212.286C397.621 212.274 397.591 212.271 397.563 212.277L397.127 212.382" fill="#36EA93"/>
<path d="M374.72 215.443L372.738 213.603C372.718 213.584 372.704 213.558 372.7 213.531C372.695 213.503 372.699 213.474 372.712 213.449C372.725 213.424 372.745 213.404 372.77 213.391C372.795 213.379 372.824 213.374 372.851 213.379L373.14 213.432L371.771 212.084C371.75 212.063 371.737 212.037 371.733 212.008C371.729 211.979 371.734 211.95 371.749 211.924C371.764 211.899 371.786 211.88 371.813 211.869C371.84 211.858 371.87 211.856 371.898 211.864L372.33 211.981" fill="#36EA93"/>
<path d="M385.195 206.258L386.514 208.074C386.541 208.102 386.563 208.136 386.577 208.172C386.592 208.209 386.599 208.248 386.598 208.287C386.597 208.327 386.588 208.365 386.572 208.401C386.556 208.437 386.533 208.469 386.504 208.496L385.108 210.845C385.05 210.899 384.973 210.929 384.894 210.927C384.814 210.925 384.739 210.892 384.684 210.835L383.365 208.413C383.309 208.357 383.277 208.281 383.277 208.201C383.277 208.122 383.309 208.046 383.365 207.989L384.763 206.26C384.79 206.23 384.823 206.207 384.86 206.19C384.898 206.174 384.938 206.165 384.978 206.165C385.019 206.165 385.059 206.173 385.096 206.189C385.134 206.205 385.167 206.229 385.195 206.258Z" fill="#FDE01B"/>
<path d="M383.824 208.484C383.775 208.429 383.748 208.357 383.748 208.283C383.748 208.208 383.775 208.137 383.824 208.081C383.824 208.081 384.865 206.643 385 206.508C385.135 206.373 385.067 206.205 385.067 206.205C384.966 206.09 384.735 206.196 384.63 206.307L383.351 207.989C383.301 208.045 383.283 208.157 383.283 208.191C383.283 208.225 383.303 208.343 383.351 208.393C383.398 208.443 384.456 210.552 384.56 210.71C384.663 210.868 384.897 210.978 384.933 210.918C384.969 210.857 384.933 210.666 384.933 210.666C384.901 210.627 384.858 210.563 384.834 210.518L383.824 208.484Z" fill="#DCC41E"/>
<g filter="url(#filter6_i)">
<path d="M390.137 207.118C392.37 207.118 394.18 205.307 394.18 203.074C394.18 200.841 392.37 199.031 390.137 199.031C387.904 199.031 386.094 200.841 386.094 203.074C386.094 205.307 387.904 207.118 390.137 207.118Z" fill="white"/>
</g>
<path d="M390.382 205.139C391.702 205.139 392.772 204.069 392.772 202.749C392.772 201.43 391.702 200.36 390.382 200.36C389.063 200.36 387.993 201.43 387.993 202.749C387.993 204.069 389.063 205.139 390.382 205.139Z" fill="black"/>
<path d="M391.925 201.571C391.925 202.078 391.513 202.489 391.006 202.489C390.498 202.489 390.087 202.078 390.087 201.571C390.087 201.063 390.498 200.652 391.006 200.652C391.513 200.652 391.925 201.063 391.925 201.571Z" fill="white"/>
<g filter="url(#filter7_i)">
<path d="M379.845 207.118C382.078 207.118 383.888 205.307 383.888 203.074C383.888 200.841 382.078 199.031 379.845 199.031C377.612 199.031 375.802 200.841 375.802 203.074C375.802 205.307 377.612 207.118 379.845 207.118Z" fill="white"/>
</g>
<path d="M380.274 205.139C381.594 205.139 382.663 204.069 382.663 202.749C382.663 201.43 381.594 200.36 380.274 200.36C378.954 200.36 377.885 201.43 377.885 202.749C377.885 204.069 378.954 205.139 380.274 205.139Z" fill="black"/>
<path d="M391.203 194.202L396.74 199.813C396.783 199.857 396.838 199.887 396.899 199.901C396.959 199.914 397.022 199.91 397.08 199.889C397.138 199.868 397.189 199.83 397.226 199.781C397.264 199.732 397.286 199.673 397.291 199.611V192.24C397.296 192.19 397.289 192.14 397.271 192.093C397.252 192.046 397.223 192.004 397.186 191.971C397.149 191.937 397.104 191.912 397.056 191.899C397.007 191.886 396.957 191.884 396.907 191.893L391.375 193.655C391.316 193.664 391.261 193.69 391.216 193.729C391.171 193.768 391.138 193.819 391.12 193.875C391.102 193.932 391.101 193.993 391.115 194.05C391.13 194.108 391.16 194.16 391.203 194.202Z" fill="#3BDBA1"/>
<path d="M392.889 194.539L396.004 197.693C396.028 197.718 396.058 197.735 396.092 197.743C396.126 197.751 396.161 197.749 396.193 197.738C396.226 197.726 396.255 197.706 396.276 197.678C396.297 197.651 396.31 197.618 396.313 197.584L396.246 193.11C396.25 193.081 396.247 193.052 396.237 193.025C396.227 192.998 396.211 192.973 396.19 192.954C396.169 192.934 396.143 192.92 396.115 192.912C396.088 192.904 396.058 192.903 396.03 192.908L392.982 194.228C392.949 194.234 392.918 194.249 392.893 194.271C392.868 194.294 392.849 194.323 392.84 194.355C392.83 194.387 392.83 194.421 392.838 194.454C392.847 194.486 392.864 194.516 392.889 194.539Z" fill="black"/>
<path d="M378.283 194.212L372.739 199.821C372.695 199.865 372.64 199.896 372.58 199.91C372.52 199.923 372.457 199.919 372.399 199.898C372.341 199.876 372.29 199.839 372.253 199.79C372.216 199.74 372.194 199.681 372.189 199.62V192.249C372.184 192.198 372.191 192.148 372.209 192.101C372.227 192.054 372.256 192.012 372.293 191.978C372.33 191.944 372.375 191.92 372.424 191.906C372.473 191.893 372.524 191.891 372.573 191.902L378.106 193.663C378.165 193.671 378.221 193.696 378.267 193.735C378.313 193.774 378.348 193.825 378.366 193.882C378.385 193.939 378.387 194 378.372 194.059C378.357 194.117 378.327 194.17 378.283 194.212Z" fill="#3BDBA1"/>
<path d="M376.597 194.555L373.482 197.703C373.458 197.728 373.427 197.745 373.394 197.753C373.36 197.761 373.325 197.759 373.292 197.748C373.26 197.736 373.231 197.716 373.21 197.688C373.189 197.661 373.176 197.628 373.173 197.594L373.237 193.12C373.234 193.092 373.237 193.062 373.247 193.035C373.256 193.008 373.272 192.983 373.294 192.964C373.315 192.944 373.34 192.93 373.368 192.922C373.396 192.914 373.425 192.913 373.454 192.918L376.504 194.238C376.539 194.242 376.572 194.257 376.598 194.279C376.625 194.302 376.645 194.332 376.655 194.366C376.665 194.4 376.664 194.435 376.654 194.469C376.644 194.503 376.624 194.532 376.597 194.555Z" fill="black"/>
<path d="M385.294 192.061L387.991 191.968C388.019 191.967 388.046 191.976 388.069 191.992C388.092 192.008 388.109 192.031 388.118 192.058C388.127 192.085 388.127 192.113 388.118 192.14C388.109 192.167 388.092 192.19 388.069 192.206L387.829 192.374L389.75 192.36C389.779 192.359 389.808 192.368 389.832 192.385C389.856 192.403 389.873 192.428 389.88 192.456C389.888 192.485 389.886 192.515 389.874 192.542C389.863 192.569 389.842 192.592 389.817 192.606L389.427 192.826" fill="#36EA93"/>
<path d="M380.032 192.912L382.692 191.762C382.719 191.751 382.749 191.749 382.777 191.757C382.805 191.765 382.829 191.781 382.847 191.804C382.864 191.827 382.874 191.855 382.874 191.884C382.873 191.913 382.864 191.941 382.846 191.964L382.636 192.23" fill="#F27500"/>
<path d="M380.032 192.912L382.692 191.762C382.719 191.751 382.749 191.749 382.777 191.757C382.805 191.764 382.829 191.781 382.847 191.804C382.864 191.827 382.874 191.855 382.874 191.884C382.873 191.913 382.864 191.941 382.846 191.964L382.636 192.23" fill="#36EA93"/>
<path d="M382.9 192.192L385.551 191.684C385.578 191.679 385.606 191.683 385.631 191.695C385.656 191.708 385.677 191.728 385.689 191.752C385.702 191.777 385.707 191.805 385.703 191.833C385.698 191.86 385.685 191.886 385.666 191.905L385.464 192.107" fill="#36EA93"/>
<path d="M381.856 201.638C381.856 202.146 381.445 202.557 380.937 202.557C380.43 202.557 380.019 202.146 380.019 201.638C380.019 201.131 380.43 200.719 380.937 200.719C381.445 200.719 381.856 201.131 381.856 201.638Z" fill="white"/>
<ellipse cx="390.453" cy="208.188" rx="3.25283" ry="1.4373" fill="#3BDBA1"/>
<ellipse cx="379.461" cy="208.188" rx="3.25283" ry="1.4373" fill="#3BDBA1"/>
<path d="M378.569 228.172C379.445 228.991 381.545 229.989 382.946 227.431C382.811 227.532 384.999 231.067 387.053 227.431C387.187 227.431 389.207 231.067 391.059 227.431" stroke="#43EDB0" stroke-width="0.5" stroke-linecap="round" stroke-linejoin="round"/>
<path d="M380.893 225.277C382.374 225.277 383.013 224.199 383.148 223.661C383.013 223.762 385.202 227.296 387.255 223.661C387.39 224.199 388.029 225.277 389.511 225.277" stroke="#43EDB0" stroke-width="0.5" stroke-linecap="round" stroke-linejoin="round"/>
</g>
<path d="M392.732 249.711V248.168C392.732 247.61 392.28 247.158 391.722 247.158C391.164 247.158 390.712 247.61 390.712 248.168V249.711C390.712 250.269 391.164 250.721 391.722 250.721C392.28 250.721 392.732 250.269 392.732 249.711Z" fill="#FDE01B"/>
<path d="M390.914 249.711V248.168C390.914 247.61 390.462 247.158 389.904 247.158C389.346 247.158 388.894 247.61 388.894 248.168V249.711C388.894 250.269 389.346 250.721 389.904 250.721C390.462 250.721 390.914 250.269 390.914 249.711Z" fill="#FDE01B"/>
<path d="M389.096 249.784V248.241C389.096 247.683 388.643 247.23 388.086 247.23C387.528 247.23 387.076 247.683 387.076 248.241V249.784C387.076 250.342 387.528 250.794 388.086 250.794C388.643 250.794 389.096 250.342 389.096 249.784Z" fill="#FDE01B"/>
<path d="M383.058 249.552V248.008C383.058 247.45 382.605 246.998 382.048 246.998C381.49 246.998 381.037 247.45 381.037 248.008V249.552C381.037 250.109 381.49 250.562 382.048 250.562C382.605 250.562 383.058 250.109 383.058 249.552Z" fill="#FDE01B"/>
<path d="M381.239 249.552V248.008C381.239 247.45 380.787 246.998 380.229 246.998C379.671 246.998 379.219 247.45 379.219 248.008V249.552C379.219 250.109 379.671 250.562 380.229 250.562C380.787 250.562 381.239 250.109 381.239 249.552Z" fill="#FDE01B"/>
<path d="M379.424 249.624V248.081C379.424 247.523 378.972 247.071 378.414 247.071C377.856 247.071 377.404 247.523 377.404 248.081V249.624C377.404 250.182 377.856 250.634 378.414 250.634C378.972 250.634 379.424 250.182 379.424 249.624Z" fill="#FDE01B"/>
<path d="M391.19 244.549C391.19 244.173 390.594 243.868 389.86 243.868C389.125 243.868 388.529 244.173 388.529 244.549V247.903C388.529 248.279 389.125 248.584 389.86 248.584C390.594 248.584 391.19 248.279 391.19 247.903V244.549Z" fill="#FDE01B"/>
<path d="M381.394 244.549C381.394 244.173 380.826 243.868 380.124 243.868C379.423 243.868 378.854 244.173 378.854 244.549V247.903C378.854 248.279 379.423 248.584 380.124 248.584C380.826 248.584 381.394 248.279 381.394 247.903V244.549Z" fill="#FDE01B"/>
<path d="M387.734 229.745L386.304 218.327L384.958 218.329L383.673 218.327L382.239 229.745L384.973 233.547L386.339 231.683L387.734 229.745Z" fill="#EB3F6D"/>
<g filter="url(#filter8_d)">
<path d="M386.329 218.317L386.686 215.55L383.231 215.544L383.645 218.317H386.329Z" fill="#EB3F6D"/>
</g>
<g filter="url(#filter9_d)">
<path d="M400.526 228.448C401.148 233.333 400.321 237.955 398.461 241.554C395.391 238.515 393.135 233.941 392.458 228.641C391.836 223.754 392.663 219.134 394.523 215.533C397.59 218.568 399.849 223.142 400.526 228.448Z" fill="#36EA93"/>
</g>
<g filter="url(#filter10_d)">
<path d="M377.461 229.137C376.733 234.007 374.682 238.231 371.914 241.189C369.785 237.431 368.856 232.416 369.645 227.131C370.373 222.259 372.424 218.037 375.192 215.077C377.319 218.831 378.25 223.846 377.461 229.137Z" fill="#36EA93"/>
</g>
<g clip-path="url(#clip2)">
<path d="M364.644 247.107C362.118 244.975 360.436 241.177 360.436 236.846C360.436 230.176 364.426 224.769 369.348 224.769C374.271 224.769 378.261 230.176 378.261 236.846C378.261 241.106 376.633 244.85 374.176 247" fill="#F27500"/>
<path d="M369.526 230.906C374.336 230.906 378.236 227.011 378.236 222.205C378.236 217.4 374.336 213.504 369.526 213.504C364.715 213.504 360.815 217.4 360.815 222.205C360.815 227.011 364.715 230.906 369.526 230.906Z" fill="#F27500"/>
<g filter="url(#filter11_d)">
<path d="M362.344 230.859C360.179 233.196 358.876 235.939 358.5 238.534C361.259 238.088 364.168 236.529 366.52 233.991C368.686 231.655 369.988 228.911 370.364 226.317C367.606 226.762 364.697 228.32 362.344 230.859Z" fill="#F69D49"/>
</g>
<path d="M375.659 228.373L376.936 227.263C376.95 227.251 376.96 227.235 376.964 227.218C376.968 227.2 376.966 227.182 376.958 227.165C376.951 227.149 376.938 227.136 376.922 227.127C376.906 227.119 376.888 227.116 376.87 227.118L376.688 227.145L377.575 226.33C377.588 226.318 377.597 226.301 377.6 226.283C377.603 226.265 377.6 226.247 377.592 226.231C377.583 226.215 377.569 226.202 377.553 226.195C377.536 226.187 377.518 226.185 377.5 226.189L377.226 226.255" fill="#F27500"/>
<path d="M363.172 228.175L361.929 227.021C361.917 227.009 361.908 226.993 361.905 226.975C361.902 226.958 361.905 226.94 361.913 226.925C361.921 226.909 361.934 226.896 361.949 226.888C361.965 226.88 361.983 226.878 362 226.881L362.182 226.913L361.323 226.068C361.309 226.055 361.301 226.038 361.299 226.02C361.296 226.002 361.3 225.984 361.309 225.968C361.318 225.952 361.332 225.94 361.349 225.933C361.366 225.926 361.385 225.925 361.402 225.93L361.673 226.003" fill="#F27500"/>
<path d="M369.743 222.414L370.57 223.553C370.587 223.571 370.601 223.592 370.61 223.615C370.619 223.638 370.623 223.662 370.623 223.687C370.622 223.711 370.617 223.736 370.606 223.758C370.596 223.781 370.582 223.801 370.564 223.818L369.688 225.291C369.652 225.325 369.604 225.344 369.554 225.343C369.504 225.341 369.457 225.321 369.422 225.285L368.595 223.766C368.56 223.73 368.54 223.683 368.54 223.633C368.54 223.583 368.56 223.535 368.595 223.5L369.472 222.415C369.489 222.397 369.51 222.382 369.533 222.371C369.556 222.361 369.581 222.356 369.607 222.356C369.632 222.356 369.658 222.361 369.681 222.371C369.704 222.381 369.725 222.396 369.743 222.414Z" fill="#FDE01B"/>
<path d="M368.882 223.811C368.851 223.776 368.834 223.731 368.834 223.684C368.834 223.637 368.851 223.592 368.882 223.557C368.882 223.557 369.535 222.655 369.62 222.571C369.704 222.486 369.662 222.381 369.662 222.381C369.599 222.309 369.454 222.375 369.388 222.445L368.585 223.5C368.554 223.535 368.543 223.605 368.543 223.627C368.543 223.648 368.555 223.722 368.585 223.753C368.615 223.784 369.278 225.107 369.344 225.206C369.409 225.306 369.555 225.375 369.578 225.337C369.6 225.299 369.578 225.179 369.578 225.179C369.558 225.154 369.53 225.114 369.516 225.086L368.882 223.811Z" fill="#DCC41E"/>
<g filter="url(#filter12_i)">
<path d="M372.843 222.953C374.243 222.953 375.379 221.818 375.379 220.417C375.379 219.017 374.243 217.881 372.843 217.881C371.442 217.881 370.307 219.017 370.307 220.417C370.307 221.818 371.442 222.953 372.843 222.953Z" fill="white"/>
</g>
<path d="M372.266 221.57C373.094 221.57 373.765 220.899 373.765 220.071C373.765 219.244 373.094 218.573 372.266 218.573C371.439 218.573 370.768 219.244 370.768 220.071C370.768 220.899 371.439 221.57 372.266 221.57Z" fill="black"/>
<path d="M373.405 219.517C373.405 219.835 373.147 220.093 372.828 220.093C372.51 220.093 372.252 219.835 372.252 219.517C372.252 219.199 372.51 218.941 372.828 218.941C373.147 218.941 373.405 219.199 373.405 219.517Z" fill="white"/>
<g filter="url(#filter13_i)">
<path d="M366.387 222.953C367.787 222.953 368.923 221.818 368.923 220.417C368.923 219.017 367.787 217.881 366.387 217.881C364.986 217.881 363.851 219.017 363.851 220.417C363.851 221.818 364.986 222.953 366.387 222.953Z" fill="white"/>
</g>
<path d="M365.925 221.57C366.753 221.57 367.424 220.899 367.424 220.071C367.424 219.244 366.753 218.573 365.925 218.573C365.098 218.573 364.427 219.244 364.427 220.071C364.427 220.899 365.098 221.57 365.925 221.57Z" fill="black"/>
<path d="M373.51 214.852L376.983 218.372C377.01 218.399 377.045 218.418 377.083 218.427C377.121 218.435 377.16 218.432 377.197 218.419C377.233 218.406 377.265 218.382 377.288 218.351C377.312 218.321 377.326 218.284 377.329 218.245V213.622C377.332 213.59 377.327 213.559 377.316 213.53C377.305 213.5 377.287 213.474 377.263 213.453C377.24 213.432 377.212 213.416 377.181 213.408C377.151 213.399 377.119 213.398 377.088 213.404L373.618 214.509C373.581 214.515 373.547 214.531 373.519 214.556C373.49 214.58 373.47 214.612 373.458 214.647C373.447 214.683 373.446 214.721 373.455 214.757C373.465 214.793 373.484 214.826 373.51 214.852Z" fill="#F27500"/>
<path d="M374.569 215.063L376.523 217.042C376.538 217.057 376.557 217.068 376.578 217.073C376.599 217.078 376.621 217.077 376.642 217.07C376.662 217.063 376.68 217.05 376.693 217.033C376.706 217.015 376.715 216.995 376.716 216.973L376.675 214.167C376.677 214.149 376.675 214.131 376.669 214.114C376.663 214.097 376.653 214.082 376.639 214.069C376.626 214.057 376.61 214.048 376.593 214.043C376.575 214.038 376.557 214.037 376.539 214.041L374.627 214.869C374.606 214.872 374.587 214.882 374.571 214.896C374.556 214.91 374.544 214.928 374.538 214.948C374.532 214.968 374.532 214.99 374.537 215.01C374.543 215.03 374.554 215.049 374.569 215.063Z" fill="black"/>
<path d="M365.407 214.858L361.93 218.377C361.902 218.405 361.868 218.424 361.83 218.432C361.792 218.441 361.753 218.438 361.716 218.425C361.68 218.411 361.648 218.388 361.625 218.357C361.602 218.326 361.588 218.289 361.585 218.25V213.627C361.582 213.596 361.586 213.564 361.597 213.534C361.609 213.505 361.627 213.479 361.65 213.457C361.674 213.436 361.702 213.421 361.732 213.412C361.763 213.404 361.795 213.403 361.826 213.409L365.296 214.514C365.333 214.52 365.368 214.535 365.397 214.559C365.426 214.584 365.448 214.616 365.459 214.652C365.471 214.687 365.472 214.726 365.463 214.762C365.454 214.799 365.435 214.832 365.407 214.858Z" fill="#F27500"/>
<path d="M364.35 215.073L362.396 217.048C362.381 217.063 362.362 217.074 362.341 217.079C362.32 217.084 362.297 217.083 362.277 217.076C362.257 217.069 362.239 217.056 362.225 217.039C362.212 217.022 362.204 217.001 362.202 216.979L362.243 214.173C362.24 214.156 362.242 214.137 362.248 214.12C362.255 214.103 362.265 214.088 362.278 214.075C362.291 214.063 362.307 214.054 362.325 214.049C362.342 214.044 362.36 214.043 362.378 214.047L364.291 214.875C364.313 214.877 364.334 214.886 364.351 214.901C364.368 214.915 364.38 214.934 364.386 214.955C364.392 214.976 364.392 214.998 364.386 215.02C364.379 215.041 364.367 215.059 364.35 215.073Z" fill="black"/>
<path d="M369.805 213.509L371.496 213.451C371.514 213.451 371.531 213.456 371.545 213.466C371.56 213.476 371.57 213.491 371.576 213.507C371.582 213.524 371.582 213.542 371.576 213.559C371.571 213.576 371.56 213.59 371.545 213.6L371.395 213.705L372.6 213.696C372.618 213.696 372.636 213.702 372.651 213.713C372.666 213.724 372.677 213.739 372.681 213.757C372.686 213.775 372.685 213.794 372.678 213.811C372.67 213.828 372.658 213.842 372.641 213.851L372.397 213.989" fill="#F27500"/>
<path d="M366.505 214.043L368.173 213.322C368.19 213.315 368.209 213.314 368.226 213.319C368.244 213.323 368.259 213.334 368.27 213.348C368.281 213.363 368.287 213.38 368.287 213.398C368.287 213.416 368.281 213.434 368.27 213.448L368.138 213.615" fill="#F27500"/>
<path d="M366.505 214.043L368.173 213.322C368.19 213.315 368.209 213.314 368.226 213.319C368.244 213.323 368.259 213.334 368.27 213.348C368.281 213.363 368.287 213.38 368.287 213.398C368.287 213.416 368.281 213.434 368.27 213.448L368.138 213.615" fill="#F27500"/>
<path d="M368.304 213.592L369.966 213.273C369.983 213.27 370.001 213.272 370.017 213.28C370.032 213.288 370.045 213.3 370.053 213.316C370.061 213.331 370.064 213.349 370.061 213.366C370.059 213.384 370.051 213.4 370.038 213.412L369.911 213.538" fill="#F27500"/>
<path d="M367.096 219.402C367.096 219.72 366.838 219.978 366.52 219.978C366.201 219.978 365.943 219.72 365.943 219.402C365.943 219.083 366.201 218.825 366.52 218.825C366.838 218.825 367.096 219.083 367.096 219.402Z" fill="white"/>
<ellipse cx="366.444" cy="223.126" rx="2.01732" ry="1.09511" fill="#F27500"/>
<ellipse cx="373.131" cy="223.126" rx="2.47842" ry="1.09511" fill="#F27500"/>
<path d="M365.587 236.159C366.136 236.673 367.453 237.299 368.332 235.694C368.247 235.758 369.62 237.975 370.908 235.694C370.992 235.694 372.259 237.975 373.421 235.694" stroke="#F69D49" stroke-width="0.5" stroke-linecap="round" stroke-linejoin="round"/>
<path d="M367.044 234.343C367.973 234.343 368.374 233.667 368.459 233.329C368.374 233.393 369.747 235.61 371.035 233.329C371.119 233.667 371.52 234.343 372.449 234.343" stroke="#F69D49" stroke-width="0.5" stroke-linecap="round" stroke-linejoin="round"/>
</g>
<path d="M374.34 249.707V248.739C374.34 248.389 374.056 248.105 373.706 248.105C373.356 248.105 373.073 248.389 373.073 248.739V249.707C373.073 250.056 373.356 250.34 373.706 250.34C374.056 250.34 374.34 250.056 374.34 249.707Z" fill="#FDE01B"/>
<path d="M373.199 249.707V248.739C373.199 248.389 372.916 248.105 372.566 248.105C372.216 248.105 371.932 248.389 371.932 248.739V249.707C371.932 250.056 372.216 250.34 372.566 250.34C372.916 250.34 373.199 250.056 373.199 249.707Z" fill="#FDE01B"/>
<path d="M372.06 249.752V248.784C372.06 248.434 371.776 248.15 371.426 248.15C371.076 248.15 370.792 248.434 370.792 248.784V249.752C370.792 250.102 371.076 250.386 371.426 250.386C371.776 250.386 372.06 250.102 372.06 249.752Z" fill="#FDE01B"/>
<path d="M368.271 249.606V248.638C368.271 248.288 367.988 248.005 367.638 248.005C367.288 248.005 367.004 248.288 367.004 248.638V249.606C367.004 249.956 367.288 250.24 367.638 250.24C367.988 250.24 368.271 249.956 368.271 249.606Z" fill="#FDE01B"/>
<path d="M367.132 249.606V248.638C367.132 248.288 366.848 248.005 366.498 248.005C366.148 248.005 365.865 248.288 365.865 248.638V249.606C365.865 249.956 366.148 250.24 366.498 250.24C366.848 250.24 367.132 249.956 367.132 249.606Z" fill="#FDE01B"/>
<path d="M365.993 249.652V248.684C365.993 248.334 365.71 248.05 365.36 248.05C365.01 248.05 364.726 248.334 364.726 248.684V249.652C364.726 250.002 365.01 250.285 365.36 250.285C365.71 250.285 365.993 250.002 365.993 249.652Z" fill="#FDE01B"/>
<path d="M373.373 246.469C373.373 246.233 372.999 246.041 372.539 246.041C372.078 246.041 371.704 246.233 371.704 246.469V248.572C371.704 248.808 372.078 249 372.539 249C372.999 249 373.373 248.808 373.373 248.572V246.469Z" fill="#FDE01B"/>
<path d="M367.229 246.469C367.229 246.233 366.872 246.041 366.432 246.041C365.992 246.041 365.636 246.233 365.636 246.469V248.572C365.636 248.808 365.992 249 366.432 249C366.872 249 367.229 248.808 367.229 248.572V246.469Z" fill="#FDE01B"/>
<g filter="url(#filter14_d)">
<path d="M379.61 236.718C380.012 239.879 379.477 242.869 378.274 245.197C376.288 243.231 374.828 240.272 374.391 236.843C373.988 233.681 374.523 230.693 375.726 228.363C377.711 230.327 379.172 233.286 379.61 236.718Z" fill="#F69D49"/>
</g>
</g>
<defs>
<filter id="filter0_d" x="0" y="0" width="462" height="526" filterUnits="userSpaceOnUse" color-interpolation-filters="sRGB">
<feFlood flood-opacity="0" result="BackgroundImageFix"/>
<feColorMatrix in="SourceAlpha" type="matrix" values="0 0 0 0 0 0 0 0 0 0 0 0 0 0 0 0 0 0 127 0"/>
<feOffset dx="-1" dy="4"/>
<feGaussianBlur stdDeviation="2"/>
<feColorMatrix type="matrix" values="0 0 0 0 0 0 0 0 0 0 0 0 0 0 0 0 0 0 0.15 0"/>
<feBlend mode="normal" in2="BackgroundImageFix" result="effect1_dropShadow"/>
<feBlend mode="normal" in="SourceGraphic" in2="effect1_dropShadow" result="shape"/>
</filter>
<filter id="filter1_d" x="324.717" y="179.313" width="92.8189" height="92.8189" filterUnits="userSpaceOnUse" color-interpolation-filters="sRGB">
<feFlood flood-opacity="0" result="BackgroundImageFix"/>
<feColorMatrix in="SourceAlpha" type="matrix" values="0 0 0 0 0 0 0 0 0 0 0 0 0 0 0 0 0 0 127 0"/>
<feOffset dy="3"/>
<feGaussianBlur stdDeviation="2"/>
<feColorMatrix type="matrix" values="0 0 0 0 0 0 0 0 0 0 0 0 0 0 0 0 0 0 0.15 0"/>
<feBlend mode="normal" in2="BackgroundImageFix" result="effect1_dropShadow"/>
<feBlend mode="normal" in="SourceGraphic" in2="effect1_dropShadow" result="shape"/>
</filter>
<filter id="filter2_i" x="358.227" y="203.027" width="7.4028" height="11.4028" filterUnits="userSpaceOnUse" color-interpolation-filters="sRGB">
<feFlood flood-opacity="0" result="BackgroundImageFix"/>
<feBlend mode="normal" in="SourceGraphic" in2="BackgroundImageFix" result="shape"/>
<feColorMatrix in="SourceAlpha" type="matrix" values="0 0 0 0 0 0 0 0 0 0 0 0 0 0 0 0 0 0 127 0" result="hardAlpha"/>
<feOffset dy="4"/>
<feGaussianBlur stdDeviation="2"/>
<feComposite in2="hardAlpha" operator="arithmetic" k2="-1" k3="1"/>
<feColorMatrix type="matrix" values="0 0 0 0 0 0 0 0 0 0 0 0 0 0 0 0 0 0 0.15 0"/>
<feBlend mode="normal" in2="shape" result="effect1_innerShadow"/>
</filter>
<filter id="filter3_i" x="348.805" y="203.027" width="7.4028" height="11.4028" filterUnits="userSpaceOnUse" color-interpolation-filters="sRGB">
<feFlood flood-opacity="0" result="BackgroundImageFix"/>
<feBlend mode="normal" in="SourceGraphic" in2="BackgroundImageFix" result="shape"/>
<feColorMatrix in="SourceAlpha" type="matrix" values="0 0 0 0 0 0 0 0 0 0 0 0 0 0 0 0 0 0 127 0" result="hardAlpha"/>
<feOffset dy="4"/>
<feGaussianBlur stdDeviation="2"/>
<feComposite in2="hardAlpha" operator="arithmetic" k2="-1" k3="1"/>
<feColorMatrix type="matrix" values="0 0 0 0 0 0 0 0 0 0 0 0 0 0 0 0 0 0 0.15 0"/>
<feBlend mode="normal" in2="shape" result="effect1_innerShadow"/>
</filter>
<filter id="filter4_d" x="359.315" y="217.719" width="19.3742" height="33.7281" filterUnits="userSpaceOnUse" color-interpolation-filters="sRGB">
<feFlood flood-opacity="0" result="BackgroundImageFix"/>
<feColorMatrix in="SourceAlpha" type="matrix" values="0 0 0 0 0 0 0 0 0 0 0 0 0 0 0 0 0 0 127 0"/>
<feOffset dx="1" dy="4"/>
<feGaussianBlur stdDeviation="2"/>
<feColorMatrix type="matrix" values="0 0 0 0 0 0 0 0 0 0 0 0 0 0 0 0 0 0 0.15 0"/>
<feBlend mode="normal" in2="BackgroundImageFix" result="effect1_dropShadow"/>
<feBlend mode="normal" in="SourceGraphic" in2="effect1_dropShadow" result="shape"/>
</filter>
<filter id="filter5_d" x="339.122" y="216.413" width="16.4402" height="31.5658" filterUnits="userSpaceOnUse" color-interpolation-filters="sRGB">
<feFlood flood-opacity="0" result="BackgroundImageFix"/>
<feColorMatrix in="SourceAlpha" type="matrix" values="0 0 0 0 0 0 0 0 0 0 0 0 0 0 0 0 0 0 127 0"/>
<feOffset dx="1" dy="2"/>
<feGaussianBlur stdDeviation="1.5"/>
<feColorMatrix type="matrix" values="0 0 0 0 0 0 0 0 0 0 0 0 0 0 0 0 0 0 0.15 0"/>
<feBlend mode="normal" in2="BackgroundImageFix" result="effect1_dropShadow"/>
<feBlend mode="normal" in="SourceGraphic" in2="effect1_dropShadow" result="shape"/>
</filter>
<filter id="filter6_i" x="386.094" y="199.031" width="8.08666" height="12.0867" filterUnits="userSpaceOnUse" color-interpolation-filters="sRGB">
<feFlood flood-opacity="0" result="BackgroundImageFix"/>
<feBlend mode="normal" in="SourceGraphic" in2="BackgroundImageFix" result="shape"/>
<feColorMatrix in="SourceAlpha" type="matrix" values="0 0 0 0 0 0 0 0 0 0 0 0 0 0 0 0 0 0 127 0" result="hardAlpha"/>
<feOffset dy="4"/>
<feGaussianBlur stdDeviation="2"/>
<feComposite in2="hardAlpha" operator="arithmetic" k2="-1" k3="1"/>
<feColorMatrix type="matrix" values="0 0 0 0 0 0 0 0 0 0 0 0 0 0 0 0 0 0 0.15 0"/>
<feBlend mode="normal" in2="shape" result="effect1_innerShadow"/>
</filter>
<filter id="filter7_i" x="375.802" y="199.031" width="8.08666" height="12.0867" filterUnits="userSpaceOnUse" color-interpolation-filters="sRGB">
<feFlood flood-opacity="0" result="BackgroundImageFix"/>
<feBlend mode="normal" in="SourceGraphic" in2="BackgroundImageFix" result="shape"/>
<feColorMatrix in="SourceAlpha" type="matrix" values="0 0 0 0 0 0 0 0 0 0 0 0 0 0 0 0 0 0 127 0" result="hardAlpha"/>
<feOffset dy="4"/>
<feGaussianBlur stdDeviation="2"/>
<feComposite in2="hardAlpha" operator="arithmetic" k2="-1" k3="1"/>
<feColorMatrix type="matrix" values="0 0 0 0 0 0 0 0 0 0 0 0 0 0 0 0 0 0 0.15 0"/>
<feBlend mode="normal" in2="shape" result="effect1_innerShadow"/>
</filter>
<filter id="filter8_d" x="379.231" y="215.544" width="11.4546" height="10.7729" filterUnits="userSpaceOnUse" color-interpolation-filters="sRGB">
<feFlood flood-opacity="0" result="BackgroundImageFix"/>
<feColorMatrix in="SourceAlpha" type="matrix" values="0 0 0 0 0 0 0 0 0 0 0 0 0 0 0 0 0 0 127 0"/>
<feOffset dy="4"/>
<feGaussianBlur stdDeviation="2"/>
<feColorMatrix type="matrix" values="0 0 0 0 0 0 0 0 0 0 0 0 0 0 0 0 0 0 0.25 0"/>
<feBlend mode="normal" in2="BackgroundImageFix" result="effect1_dropShadow"/>
<feBlend mode="normal" in="SourceGraphic" in2="effect1_dropShadow" result="shape"/>
</filter>
<filter id="filter9_d" x="388.469" y="213.919" width="18.0463" height="33.2484" filterUnits="userSpaceOnUse" color-interpolation-filters="sRGB">
<feFlood flood-opacity="0" result="BackgroundImageFix"/>
<feColorMatrix in="SourceAlpha" type="matrix" values="0 0 0 0 0 0 0 0 0 0 0 0 0 0 0 0 0 0 127 0"/>
<feOffset dx="1" dy="2"/>
<feGaussianBlur stdDeviation="1.5"/>
<feColorMatrix type="matrix" values="0 0 0 0 0 0 0 0 0 0 0 0 0 0 0 0 0 0 0.15 0"/>
<feBlend mode="normal" in2="BackgroundImageFix" result="effect1_dropShadow"/>
<feBlend mode="normal" in="SourceGraphic" in2="effect1_dropShadow" result="shape"/>
</filter>
<filter id="filter10_d" x="366.024" y="213.595" width="17.0571" height="33.0766" filterUnits="userSpaceOnUse" color-interpolation-filters="sRGB">
<feFlood flood-opacity="0" result="BackgroundImageFix"/>
<feColorMatrix in="SourceAlpha" type="matrix" values="0 0 0 0 0 0 0 0 0 0 0 0 0 0 0 0 0 0 127 0"/>
<feOffset dx="1" dy="2"/>
<feGaussianBlur stdDeviation="1.5"/>
<feColorMatrix type="matrix" values="0 0 0 0 0 0 0 0 0 0 0 0 0 0 0 0 0 0 0.15 0"/>
<feBlend mode="normal" in2="BackgroundImageFix" result="effect1_dropShadow"/>
<feBlend mode="normal" in="SourceGraphic" in2="effect1_dropShadow" result="shape"/>
</filter>
<filter id="filter11_d" x="355.5" y="225.317" width="17.864" height="18.2167" filterUnits="userSpaceOnUse" color-interpolation-filters="sRGB">
<feFlood flood-opacity="0" result="BackgroundImageFix"/>
<feColorMatrix in="SourceAlpha" type="matrix" values="0 0 0 0 0 0 0 0 0 0 0 0 0 0 0 0 0 0 127 0"/>
<feOffset dy="2"/>
<feGaussianBlur stdDeviation="1.5"/>
<feColorMatrix type="matrix" values="0 0 0 0 0 0 0 0 0 0 0 0 0 0 0 0 0 0 0.15 0"/>
<feBlend mode="normal" in2="BackgroundImageFix" result="effect1_dropShadow"/>
<feBlend mode="normal" in="SourceGraphic" in2="effect1_dropShadow" result="shape"/>
</filter>
<filter id="filter12_i" x="370.307" y="217.881" width="5.07212" height="9.07212" filterUnits="userSpaceOnUse" color-interpolation-filters="sRGB">
<feFlood flood-opacity="0" result="BackgroundImageFix"/>
<feBlend mode="normal" in="SourceGraphic" in2="BackgroundImageFix" result="shape"/>
<feColorMatrix in="SourceAlpha" type="matrix" values="0 0 0 0 0 0 0 0 0 0 0 0 0 0 0 0 0 0 127 0" result="hardAlpha"/>
<feOffset dy="4"/>
<feGaussianBlur stdDeviation="2"/>
<feComposite in2="hardAlpha" operator="arithmetic" k2="-1" k3="1"/>
<feColorMatrix type="matrix" values="0 0 0 0 0 0 0 0 0 0 0 0 0 0 0 0 0 0 0.15 0"/>
<feBlend mode="normal" in2="shape" result="effect1_innerShadow"/>
</filter>
<filter id="filter13_i" x="363.851" y="217.881" width="5.07212" height="9.07212" filterUnits="userSpaceOnUse" color-interpolation-filters="sRGB">
<feFlood flood-opacity="0" result="BackgroundImageFix"/>
<feBlend mode="normal" in="SourceGraphic" in2="BackgroundImageFix" result="shape"/>
<feColorMatrix in="SourceAlpha" type="matrix" values="0 0 0 0 0 0 0 0 0 0 0 0 0 0 0 0 0 0 127 0" result="hardAlpha"/>
<feOffset dy="4"/>
<feGaussianBlur stdDeviation="2"/>
<feComposite in2="hardAlpha" operator="arithmetic" k2="-1" k3="1"/>
<feColorMatrix type="matrix" values="0 0 0 0 0 0 0 0 0 0 0 0 0 0 0 0 0 0 0.15 0"/>
<feBlend mode="normal" in2="shape" result="effect1_innerShadow"/>
</filter>
<filter id="filter14_d" x="370.104" y="227.966" width="15.7931" height="25.6279" filterUnits="userSpaceOnUse" color-interpolation-filters="sRGB">
<feFlood flood-opacity="0" result="BackgroundImageFix"/>
<feColorMatrix in="SourceAlpha" type="matrix" values="0 0 0 0 0 0 0 0 0 0 0 0 0 0 0 0 0 0 127 0"/>
<feOffset dx="1" dy="4"/>
<feGaussianBlur stdDeviation="2"/>
<feColorMatrix type="matrix" values="0 0 0 0 0 0 0 0 0 0 0 0 0 0 0 0 0 0 0.15 0"/>
<feBlend mode="normal" in2="BackgroundImageFix" result="effect1_dropShadow"/>
<feBlend mode="normal" in="SourceGraphic" in2="effect1_dropShadow" result="shape"/>
</filter>
<clipPath id="clip0">
<rect width="26.078" height="57.2034" fill="white" transform="translate(343.757 196.297)"/>
</clipPath>
<clipPath id="clip1">
<rect width="28.4871" height="62.4878" fill="white" transform="translate(370.288 191.679)"/>
</clipPath>
<clipPath id="clip2">
<rect width="17.8677" height="39.1936" fill="white" transform="translate(360.393 213.27)"/>
</clipPath>
</defs>
</svg>
