<svg width="510" height="373" viewBox="0 0 510 373" fill="none" xmlns="http://www.w3.org/2000/svg">
<path d="M439.32 41.9656H386.127V51.7126H439.32V41.9656Z" fill="#3D3D3D"/>
<path d="M491.276 49.2761H18.7237C8.47565 49.2761 0.167969 57.4584 0.167969 67.5517V353.869C0.167969 363.962 8.47565 372.145 18.7237 372.145H491.276C501.524 372.145 509.832 363.962 509.832 353.869V67.5517C509.832 57.4584 501.524 49.2761 491.276 49.2761Z" fill="white"/>
<path d="M509.832 111.413H0.167969V310.007H509.832V111.413Z" fill="black"/>
<path d="M257.473 344.123C333.308 344.123 394.785 283.574 394.785 208.884C394.785 134.193 333.308 73.6443 257.473 73.6443C181.637 73.6443 120.16 134.193 120.16 208.884C120.16 283.574 181.637 344.123 257.473 344.123Z" fill="white"/>
<path d="M257.88 330.025C325.291 330.025 379.939 276.203 379.939 209.809C379.939 143.415 325.291 89.592 257.88 89.592C190.468 89.592 135.82 143.415 135.82 209.809C135.82 276.203 190.468 330.025 257.88 330.025Z" fill="#C8C8C8"/>
<path d="M258.44 324.618C322.511 324.618 374.45 273.462 374.45 210.359C374.45 147.255 322.511 96.0996 258.44 96.0996C194.369 96.0996 142.43 147.255 142.43 210.359C142.43 273.462 194.369 324.618 258.44 324.618Z" fill="#A7A7A7"/>
<path d="M258.912 300.261C310.836 300.261 352.928 258.805 352.928 207.665C352.928 156.526 310.836 115.069 258.912 115.069C206.989 115.069 164.896 156.526 164.896 207.665C164.896 258.805 206.989 300.261 258.912 300.261Z" fill="#4C4C4C"/>
<path d="M258.709 283.203C301.067 283.203 335.406 249.383 335.406 207.664C335.406 165.945 301.067 132.125 258.709 132.125C216.35 132.125 182.012 165.945 182.012 207.664C182.012 249.383 216.35 283.203 258.709 283.203Z" fill="#4C4C4C" stroke="black" stroke-miterlimit="10"/>
<path d="M258.713 261.272C288.774 261.272 313.143 237.271 313.143 207.664C313.143 178.056 288.774 154.055 258.713 154.055C228.652 154.055 204.283 178.056 204.283 207.664C204.283 237.271 228.652 261.272 258.713 261.272Z" fill="#3D3D3D"/>
<path d="M258.711 246.652C280.573 246.652 298.296 229.197 298.296 207.664C298.296 186.132 280.573 168.676 258.711 168.676C236.848 168.676 219.125 186.132 219.125 207.664C219.125 229.197 236.848 246.652 258.711 246.652Z" fill="black"/>
<path d="M258.713 224.721C268.278 224.721 276.032 217.084 276.032 207.664C276.032 198.243 268.278 190.607 258.713 190.607C249.148 190.607 241.395 198.243 241.395 207.664C241.395 217.084 249.148 224.721 258.713 224.721Z" fill="white"/>
<path d="M445.504 28.5627H381.178V41.9648H445.504V28.5627Z" fill="#3D3D3D"/>
<path d="M443.652 28.5627V41.9648" stroke="black" stroke-miterlimit="10"/>
<path d="M437.494 28.5627V41.9648" stroke="black" stroke-miterlimit="10"/>
<path d="M431.277 28.5627V41.9648" stroke="black" stroke-miterlimit="10"/>
<path d="M425.098 28.5627V41.9648" stroke="black" stroke-miterlimit="10"/>
<path d="M418.902 28.5627V41.9648" stroke="black" stroke-miterlimit="10"/>
<path d="M412.721 28.5627V41.9648" stroke="black" stroke-miterlimit="10"/>
<path d="M406.539 28.5627V41.9648" stroke="black" stroke-miterlimit="10"/>
<path d="M400.357 28.5627V41.9648" stroke="black" stroke-miterlimit="10"/>
<path d="M394.164 28.5627V41.9648" stroke="black" stroke-miterlimit="10"/>
<path d="M387.982 28.5627V41.9648" stroke="black" stroke-miterlimit="10"/>
<path d="M315.616 34.6068V11.7989C315.622 10.3164 315.332 8.84728 314.76 7.4758C314.189 6.10432 313.348 4.85751 312.286 3.80697C311.224 2.75642 309.961 1.92281 308.571 1.35401C307.181 0.785214 305.691 0.492424 304.186 0.492438H205.815C204.314 0.490835 202.827 0.780944 201.439 1.34613C200.052 1.91132 198.791 2.74048 197.729 3.78618C196.668 4.83188 195.826 6.07357 195.252 7.44014C194.678 8.80672 194.383 10.2713 194.385 11.7502V34.6068C194.385 34.6068 196.327 49.2273 176.176 49.2273H333.813C313.711 49.2273 315.616 34.6068 315.616 34.6068Z" fill="white"/>
<path d="M303.243 11.5066H207.99C206.623 11.5066 205.516 12.5976 205.516 13.9433V35.874C205.516 37.2198 206.623 38.3108 207.99 38.3108H303.243C304.609 38.3108 305.717 37.2198 305.717 35.874V13.9433C305.717 12.5976 304.609 11.5066 303.243 11.5066Z" fill="#A4A4A4"/>
<path d="M296.333 13.9443H215.417C214.051 13.9443 212.943 15.0353 212.943 16.3811V34.1693C212.943 35.5151 214.051 36.606 215.417 36.606H296.333C297.699 36.606 298.807 35.5151 298.807 34.1693V16.3811C298.807 15.0353 297.699 13.9443 296.333 13.9443Z" fill="#3D3D3D"/>
</svg>
