<svg width="103" height="153" viewBox="0 0 103 153" fill="none" xmlns="http://www.w3.org/2000/svg">
<g clip-path="url(#clip0)">
<path d="M52.6721 6.20801C55.1049 6.20801 57.4381 7.28959 59.1584 9.21482C60.8787 11.14 61.8451 13.7512 61.8451 16.4739V21.965H43.499V16.4739C43.499 13.7512 44.4655 11.14 46.1857 9.21482C47.906 7.28959 50.2392 6.20801 52.6721 6.20801Z" fill="#E6E6E6"/>
<path d="M62.044 25.8249L43.1646 25.7485C43.1646 25.7485 42.4862 103.908 6.7284 145.597H6.40417L6.38281 152.363L34.3371 152.473C32.8193 149.081 32.1031 145.312 32.2566 141.523C32.4102 137.734 33.4284 134.052 35.2143 130.829C37.0002 127.605 39.4942 124.948 42.4584 123.109C45.4226 121.27 48.7583 120.312 52.1473 120.326C55.5363 120.34 58.8657 121.325 61.818 123.187C64.7703 125.05 67.247 127.728 69.012 130.965C70.777 134.203 71.7715 137.893 71.9006 141.683C72.0296 145.473 71.289 149.237 69.7494 152.616L97.7037 152.73L97.725 145.974C62.2104 103.989 62.044 25.8249 62.044 25.8249Z" fill="#E6E6E6"/>
<path d="M102.617 143.95L67.6318 143.807L67.6021 152.879L102.587 153.022L102.617 143.95Z" fill="#CCCCCC"/>
<path d="M35.6221 143.669L0.636719 143.537L0.604517 152.609L35.5899 152.741L35.6221 143.669Z" fill="#CCCCCC"/>
<path d="M73.3226 97.9673L31.5148 97.8002L27.6963 90.6235L77.1881 90.8241L73.3226 97.9673Z" fill="#CCCCCC"/>
<path d="M77.4119 85.3586L27.498 85.1538L27.4793 90.8836L77.3931 91.0884L77.4119 85.3586Z" fill="#666666"/>
<path d="M46.0039 85.3084L58.8035 85.3627C58.8035 85.3627 56.282 72.5124 55.8681 69.0527H49.0417C48.3058 74.5357 47.2915 79.9637 46.0039 85.3084Z" fill="#43EDB0"/>
<path d="M64.6512 58.4323L40.0974 58.3368L37.8574 53.1514L66.9253 53.2707L64.6512 58.4323Z" fill="#CCCCCC"/>
<path d="M67.1791 48.9879L37.7402 48.8672L37.7267 53.0022L67.1656 53.1229L67.1791 48.9879Z" fill="#666666"/>
<path d="M62.0449 25.7786L43.3021 25.7022L41.5869 23.5869L63.7729 23.6729L62.0449 25.7786Z" fill="#CCCCCC"/>
<path d="M64.1924 19.8787L41.1533 19.7842L41.1414 23.413L64.1805 23.5075L64.1924 19.8787Z" fill="#666666"/>
<path d="M53.7251 1.19371C53.7251 0.534441 53.2475 0 52.6584 0C52.0693 0 51.5918 0.534441 51.5918 1.19371V6.44603C51.5918 7.10529 52.0693 7.63973 52.6584 7.63973C53.2475 7.63973 53.7251 7.10529 53.7251 6.44603V1.19371Z" fill="#E6E6E6"/>
</g>
<defs>
<clipPath id="clip0">
<rect width="102" height="153" fill="white" transform="translate(0.623047)"/>
</clipPath>
</defs>
</svg>
