<svg width="103" height="154" viewBox="0 0 103 154" fill="none" xmlns="http://www.w3.org/2000/svg">
<g clip-path="url(#clip0)">
<path d="M52.0695 6.40674C54.5024 6.40674 56.8356 7.48832 58.5558 9.41355C60.2761 11.3388 61.2426 13.9499 61.2426 16.6726V22.1637H42.8965V16.6726C42.8965 13.9499 43.8629 11.3388 45.5832 9.41355C47.3035 7.48832 49.6367 6.40674 52.0695 6.40674Z" fill="#E6E6E6"/>
<path d="M61.4415 26.0237L42.5621 25.9473C42.5621 25.9473 41.8837 104.107 6.12586 145.796H5.80163L5.78027 152.562L33.7346 152.671C32.2168 149.28 31.5005 145.51 31.6541 141.722C31.8076 137.933 32.8259 134.251 34.6118 131.027C36.3976 127.804 38.8916 125.146 41.8559 123.308C44.8201 121.469 48.1557 120.511 51.5448 120.525C54.9338 120.538 58.2632 121.523 61.2155 123.386C64.1677 125.248 66.6444 127.926 68.4095 131.164C70.1745 134.402 71.1689 138.092 71.298 141.882C71.4271 145.672 70.6865 149.436 69.1468 152.815L97.1011 152.929L97.1225 146.173C61.6079 104.188 61.4415 26.0237 61.4415 26.0237Z" fill="#E6E6E6"/>
<path d="M102.015 144.149L67.0293 144.005L66.9996 153.077L101.985 153.221L102.015 144.149Z" fill="#9E9D9D"/>
<path d="M35.0195 143.868L0.0341797 143.735L0.00197759 152.807L34.9873 152.94L35.0195 143.868Z" fill="#9E9D9D"/>
<path d="M72.72 98.166L30.9123 97.9989L27.0938 90.8223L76.5855 91.0228L72.72 98.166Z" fill="#9E9D9D"/>
<path d="M76.8093 85.5573L26.8955 85.3525L26.8767 91.0824L76.7906 91.2871L76.8093 85.5573Z" fill="#666666"/>
<path d="M45.4014 85.5071L58.201 85.5615C58.201 85.5615 55.6794 72.7112 55.2656 69.2515H48.4391C47.7033 74.7345 46.6889 80.1624 45.4014 85.5071Z" fill="#2885F2"/>
<path d="M64.0487 58.6311L39.4948 58.5356L37.2549 53.3501L66.3228 53.4695L64.0487 58.6311Z" fill="#9E9D9D"/>
<path d="M66.5766 49.1867L37.1377 49.0659L37.1242 53.2009L66.563 53.3217L66.5766 49.1867Z" fill="#666666"/>
<path d="M61.4424 25.9773L42.6995 25.9009L40.9844 23.7856L63.1703 23.8716L61.4424 25.9773Z" fill="#9E9D9D"/>
<path d="M63.5899 20.0774L40.5508 19.9829L40.5389 23.6118L63.578 23.7063L63.5899 20.0774Z" fill="#666666"/>
<path d="M53.1225 1.39244C53.1225 0.733172 52.645 0.19873 52.0559 0.19873C51.4668 0.19873 50.9893 0.733172 50.9893 1.39244V6.64476C50.9893 7.30402 51.4668 7.83846 52.0559 7.83846C52.645 7.83846 53.1225 7.30402 53.1225 6.64476V1.39244Z" fill="#E6E6E6"/>
</g>
<defs>
<clipPath id="clip0">
<rect width="102" height="153" fill="white" transform="translate(0.0205078 0.19873)"/>
</clipPath>
</defs>
</svg>
