<svg width="823" height="444" viewBox="0 0 823 444" fill="none" xmlns="http://www.w3.org/2000/svg">
<path d="M0 269H823V424C823 435.046 814.046 444 803 444H20C8.95432 444 0 435.046 0 424V269Z" fill="#1037D0"/>
<g filter="url(#filter0_d)">
<path d="M563.852 245.079C542.062 266.455 521.532 269.757 509.827 269.397C503.104 269.217 496.441 269.157 489.718 269.217C478.012 269.277 457.603 265.614 436.233 243.818C403.337 210.254 493.319 83.9204 493.319 83.9204L510.547 84.1005C510.547 84.1005 597.408 212.175 563.852 245.079Z" fill="#F2D405"/>
<path d="M493.32 83.9197L481.975 62.604C481.074 60.9828 482.275 58.9412 484.196 59.0013L520.813 59.3616C522.734 59.3616 523.874 61.4631 522.914 63.0843L510.608 84.0998L493.32 83.9197Z" fill="#FDE01B"/>
</g>
<path d="M642.495 111.455C642.495 111.455 655.646 114.291 660.074 120.51L685.706 265.107C685.706 265.107 686.583 272.098 674.484 274.852C662.385 277.606 480.532 268.217 480.532 268.217C480.532 268.217 470.219 264.428 472.913 244.352C475.607 224.276 490.402 128.226 490.402 128.226C490.402 128.226 490.638 118.685 502.401 117.927C514.165 117.17 642.495 111.455 642.495 111.455Z" fill="#AF4B00"/>
<path d="M472.634 244.586L490.177 128.469C490.616 125.564 492.049 122.902 494.231 120.935C496.412 118.968 499.208 117.817 502.143 117.679L639.308 111.2C642.365 111.058 645.369 112.025 647.77 113.921C650.171 115.817 651.806 118.516 652.376 121.521L677.249 252.77C677.605 254.656 677.529 256.598 677.027 258.45C676.525 260.303 675.609 262.018 674.349 263.466C673.089 264.914 671.518 266.057 669.752 266.811C667.987 267.565 666.073 267.909 664.156 267.818L484.581 259.168C482.807 259.082 481.07 258.625 479.483 257.826C477.896 257.027 476.495 255.904 475.369 254.53C474.243 253.156 473.418 251.561 472.947 249.848C472.476 248.135 472.369 246.343 472.634 244.586Z" fill="#D96600"/>
<path d="M484.203 238.273L499.816 134.963C500.204 132.38 501.477 130.012 503.416 128.262C505.356 126.512 507.842 125.488 510.452 125.366L632.463 119.621C635.184 119.492 637.86 120.351 639.999 122.038C642.137 123.726 643.594 126.129 644.1 128.805L666.205 245.553C666.522 247.229 666.456 248.956 666.01 250.603C665.565 252.25 664.752 253.774 663.633 255.062C662.514 256.35 661.118 257.368 659.549 258.039C657.98 258.71 656.28 259.018 654.575 258.938L494.851 251.22C493.273 251.145 491.729 250.74 490.317 250.032C488.905 249.324 487.658 248.328 486.654 247.108C485.651 245.888 484.915 244.472 484.493 242.95C484.07 241.429 483.972 239.835 484.203 238.273Z" fill="#FDEC77"/>
<path d="M603.887 228.23C617.295 223.524 631.438 215.025 643.093 203.153C654.747 191.28 664.058 175.978 660.637 165.155C657.216 154.331 641.045 147.899 624.545 147.258C608.044 146.617 591.315 151.758 576.339 152.872C561.363 153.986 548.389 151.099 535.055 153.768C521.833 156.415 508.252 164.699 502.435 174.38C496.724 183.949 498.55 195.063 497.721 206.359C496.891 217.573 493.305 229.017 498.254 235.775C503.096 242.564 516.482 244.768 529.026 243.791C541.568 242.733 553.398 238.558 565.588 236.069C577.803 233.684 590.474 232.844 603.887 228.23Z" fill="white"/>
<path d="M533.547 138.995L533.482 140.741L520.767 140.269L520.834 138.459L533.547 138.995Z" fill="#E6E6E6"/>
<path d="M509.253 240.522L492.532 239.821C492.12 240.398 491.704 240.939 491.287 241.486L491.064 247.07L510.434 247.877C509.645 245.504 509.247 243.02 509.253 240.519L509.253 240.522ZM541.072 212.172C540.641 210.575 540.236 208.98 539.858 207.388C537.805 198.606 536.278 189.709 535.286 180.744C535.119 179.291 534.968 177.864 534.833 176.461C534.713 175.24 534.603 174.042 534.503 172.867C533.077 156.152 533.503 143.958 533.503 143.958L520.425 143.406C520.425 143.406 519.84 155.592 517.045 172.133C516.854 173.297 516.646 174.484 516.419 175.691C516.171 177.065 515.904 178.474 515.617 179.919C513.895 188.775 511.646 197.521 508.883 206.11C508.382 207.67 507.849 209.229 507.286 210.787C506.604 212.683 505.891 214.564 505.146 216.43L542.749 217.992C542.15 216.058 541.591 214.118 541.072 212.172ZM517.766 203.313C520.233 193.692 521.761 183.383 521.761 183.383L529.051 183.682C529.335 187.964 531.443 203.904 531.443 203.904L517.766 203.313ZM553.416 242.366L536.7 241.666C536.511 244.157 535.92 246.6 534.951 248.902L554.318 249.716L554.541 244.13C554.157 243.557 553.777 242.967 553.416 242.366Z" fill="#E6E6E6"/>
<path d="M536.698 241.672C536.723 241.345 536.745 241.009 536.757 240.686C536.886 237.779 536.472 234.873 535.534 232.119C535.418 231.786 535.297 231.463 535.167 231.143C534.27 228.85 532.893 226.774 531.129 225.056C529.027 223.358 526.436 222.38 523.736 222.268L523.67 222.266C521.015 222.157 518.394 222.891 516.181 224.362C514.213 225.963 512.624 227.98 511.529 230.268C511.337 230.654 511.156 231.052 510.988 231.461C509.933 234.026 509.342 236.758 509.243 239.53C509.231 239.86 509.219 240.194 509.224 240.52L492.506 239.82C497.553 232.935 501.704 224.879 505.11 216.409L542.715 217.97C545.418 226.703 548.905 235.073 553.388 242.371L536.698 241.672Z" fill="#E6E6E6"/>
<path d="M557.961 243.672L557.663 251.168L533.423 250.151L533.709 242.994L533.721 242.655L533.918 242.662L536.66 242.78L553.374 243.48L557.961 243.672Z" fill="#CCCCCC"/>
<path d="M511.551 241.725L511.251 249.219L487.013 248.202L487.311 240.708L492.489 240.927L509.21 241.627L511.551 241.725Z" fill="#CCCCCC"/>
<path d="M548.108 212.47L542.735 217.976L505.137 216.416L500.572 210.485L507.277 210.764L541.071 212.169L548.108 212.47Z" fill="#CCCCCC"/>
<path d="M548.108 212.47L500.572 210.484L500.748 205.748L548.282 207.733L548.108 212.47Z" fill="#666666"/>
<path d="M535.286 180.726L515.618 179.901L513.41 175.548L537.907 176.568L535.286 180.726Z" fill="#CCCCCC"/>
<path d="M537.906 176.568L513.408 175.548L513.541 171.969L538.038 172.991L537.906 176.568Z" fill="#666666"/>
<path d="M533.513 143.938L520.433 143.384L519.098 141.55L535.057 142.22L533.513 143.938Z" fill="#CCCCCC"/>
<path d="M533.513 143.938L520.433 143.384L519.098 141.55L535.057 142.22L533.513 143.938Z" fill="#CCCCCC"/>
<path d="M533.513 143.938L520.433 143.384L519.098 141.55L535.057 142.22L533.513 143.938Z" fill="#CCCCCC"/>
<path d="M535.175 139.072L535.057 142.229L528.671 141.958L519.096 141.557L519.213 138.4L520.833 138.461L533.546 138.997L535.175 139.072Z" fill="#666666"/>
<path d="M533.548 138.983L533.644 136.391C533.751 134.408 533.174 132.442 531.997 130.777C531.049 129.508 529.772 128.638 528.318 128.378L526.838 128.311C523.661 128.643 521.08 131.882 520.931 135.919L520.837 138.452L533.548 138.983Z" fill="#C4C4C4"/>
<path d="M522.766 238.924L522.961 238.931C522.894 239.042 522.822 239.148 522.753 239.261L522.766 238.924Z" fill="#E6E6E6"/>
<path d="M502.783 122.412L502.783 122.412L639.943 115.933C639.944 115.933 639.945 115.933 639.945 115.933C641.678 115.853 643.381 116.401 644.742 117.476C646.103 118.551 647.03 120.081 647.353 121.785C647.353 121.785 647.353 121.785 647.353 121.785L672.225 253.029C672.427 254.099 672.384 255.2 672.099 256.251C671.815 257.301 671.295 258.273 670.581 259.095C669.866 259.916 668.975 260.565 667.973 260.992C666.972 261.42 665.886 261.615 664.798 261.563L485.228 252.913C484.222 252.865 483.237 252.606 482.337 252.153C481.437 251.7 480.642 251.063 480.004 250.284C479.365 249.505 478.898 248.6 478.631 247.629C478.364 246.659 478.304 245.643 478.454 244.647C478.454 244.647 478.454 244.647 478.454 244.647M502.783 122.412L473.015 243.826L478.454 244.647M502.783 122.412C501.118 122.491 499.532 123.144 498.295 124.259C497.058 125.375 496.245 126.884 495.996 128.53L502.783 122.412ZM478.454 244.647L495.995 128.532L478.454 244.647Z" stroke="#D96600" stroke-width="11"/>
<g clip-path="url(#clip0)">
<path d="M581.56 236.342C589.799 230.333 595.653 219.179 596.323 206.151C597.354 186.088 585.695 169.182 570.286 168.39C554.877 167.598 541.547 183.22 540.516 203.283C539.858 216.098 544.376 227.621 551.738 234.485" fill="#3BDBA1"/>
<path d="M568.781 186.822C553.721 186.048 542.115 173.703 542.858 159.247C543.601 144.792 556.412 133.701 571.472 134.475C586.532 135.249 598.138 147.595 597.395 162.05C596.652 176.505 583.841 187.596 568.781 186.822Z" fill="#3BDBA1"/>
<path d="M549.973 178.214L546.146 174.669C546.105 174.632 546.077 174.584 546.067 174.53C546.058 174.477 546.066 174.422 546.092 174.374C546.118 174.326 546.16 174.287 546.211 174.264C546.262 174.241 546.32 174.235 546.375 174.246L546.942 174.355L544.291 171.761C544.252 171.722 544.226 171.671 544.219 171.617C544.213 171.562 544.225 171.507 544.254 171.46C544.283 171.414 544.328 171.377 544.381 171.357C544.434 171.337 544.492 171.335 544.547 171.35L545.394 171.592" fill="#36EA93"/>
<path d="M589.095 179.629L593.164 176.357C593.206 176.322 593.235 176.276 593.247 176.224C593.259 176.172 593.254 176.118 593.231 176.069C593.209 176.021 593.171 175.98 593.122 175.954C593.074 175.928 593.019 175.917 592.964 175.923L592.392 175.993L595.212 173.588C595.254 173.551 595.283 173.502 595.294 173.448C595.304 173.394 595.296 173.339 595.27 173.29C595.243 173.241 595.201 173.201 595.149 173.178C595.097 173.154 595.039 173.148 594.983 173.16L594.123 173.337" fill="#36EA93"/>
<path d="M569.415 161.242L566.649 164.535C566.592 164.586 566.547 164.646 566.515 164.714C566.483 164.781 566.466 164.854 566.464 164.929C566.462 165.003 566.475 165.077 566.503 165.146C566.532 165.215 566.574 165.279 566.628 165.332L569.141 169.904C569.249 170.013 569.397 170.077 569.554 170.081C569.71 170.086 569.861 170.031 569.975 169.928L572.8 165.493C572.915 165.392 572.984 165.252 572.992 165.102C573 164.952 572.945 164.805 572.841 164.693L570.264 161.289C570.213 161.23 570.15 161.182 570.078 161.147C570.007 161.113 569.929 161.093 569.85 161.088C569.77 161.084 569.69 161.095 569.615 161.122C569.541 161.148 569.473 161.189 569.415 161.242Z" fill="#FDE01B"/>
<path d="M571.893 165.581C571.995 165.481 572.056 165.348 572.063 165.208C572.07 165.067 572.024 164.929 571.932 164.819C571.932 164.819 570.028 162 569.776 161.733C569.525 161.465 569.673 161.154 569.673 161.154C569.883 160.948 570.326 161.172 570.522 161.391L572.872 164.694C572.964 164.804 572.988 165.018 572.984 165.082C572.981 165.145 572.931 165.367 572.832 165.456C572.734 165.545 570.453 169.418 570.234 169.706C570.014 169.994 569.546 170.178 569.481 170.06C569.416 169.942 569.505 169.585 569.505 169.585C569.571 169.514 569.663 169.399 569.713 169.316L571.893 165.581Z" fill="#DCC41E"/>
<g filter="url(#filter1_i)">
<path d="M559.63 162.365C555.245 162.14 551.866 158.541 552.082 154.328C552.299 150.115 556.029 146.882 560.414 147.108C564.799 147.333 568.178 150.931 567.961 155.144C567.745 159.357 564.015 162.59 559.63 162.365Z" fill="white"/>
</g>
<path d="M559.341 158.606C556.75 158.473 554.753 156.347 554.881 153.857C555.009 151.367 557.214 149.457 559.805 149.59C562.396 149.723 564.392 151.85 564.264 154.339C564.136 156.829 561.932 158.739 559.341 158.606Z" fill="black"/>
<path d="M556.656 151.719C556.606 152.676 557.374 153.494 558.371 153.545C559.367 153.597 560.215 152.862 560.264 151.904C560.314 150.947 559.546 150.129 558.549 150.078C557.553 150.027 556.705 150.761 556.656 151.719Z" fill="white"/>
<g filter="url(#filter2_i)">
<path d="M579.839 163.403C575.454 163.178 572.075 159.58 572.291 155.367C572.508 151.154 576.238 147.921 580.623 148.146C585.008 148.372 588.387 151.97 588.17 156.183C587.954 160.396 584.224 163.629 579.839 163.403Z" fill="white"/>
</g>
<path d="M579.187 159.626C576.596 159.493 574.599 157.367 574.727 154.877C574.855 152.387 577.059 150.477 579.65 150.61C582.241 150.743 584.238 152.87 584.11 155.359C583.982 157.849 581.778 159.759 579.187 159.626Z" fill="black"/>
<path d="M558.789 137.888L547.373 147.917C547.284 147.995 547.172 148.047 547.052 148.066C546.933 148.085 546.809 148.071 546.698 148.025C546.586 147.979 546.49 147.904 546.421 147.807C546.352 147.71 546.314 147.597 546.31 147.481L547.025 133.573C547.02 133.479 547.039 133.384 547.079 133.298C547.12 133.211 547.18 133.135 547.257 133.075C547.333 133.016 547.423 132.974 547.52 132.953C547.616 132.933 547.716 132.934 547.812 132.957L558.505 136.839C558.619 136.863 558.725 136.917 558.809 136.995C558.894 137.073 558.954 137.172 558.983 137.281C559.013 137.39 559.01 137.504 558.976 137.611C558.942 137.719 558.877 137.814 558.789 137.888Z" fill="#3BDBA1"/>
<path d="M555.445 138.354L549.023 143.99C548.973 144.035 548.912 144.065 548.845 144.077C548.778 144.089 548.709 144.082 548.646 144.057C548.583 144.032 548.529 143.99 548.49 143.936C548.451 143.882 548.429 143.819 548.426 143.754L548.991 135.32C548.986 135.266 548.995 135.211 549.017 135.161C549.039 135.11 549.073 135.066 549.116 135.031C549.16 134.995 549.211 134.971 549.267 134.959C549.322 134.947 549.38 134.948 549.435 134.961L555.292 137.759C555.357 137.773 555.416 137.804 555.463 137.849C555.51 137.894 555.544 137.95 555.559 138.012C555.575 138.074 555.573 138.139 555.553 138.199C555.532 138.259 555.495 138.313 555.445 138.354Z" fill="black"/>
<path d="M584.157 139.211L594.501 150.355C594.582 150.442 594.687 150.505 594.804 150.537C594.921 150.568 595.045 150.567 595.161 150.533C595.277 150.498 595.38 150.433 595.458 150.343C595.535 150.254 595.585 150.145 595.599 150.029L596.314 136.122C596.329 136.028 596.321 135.932 596.29 135.841C596.259 135.751 596.206 135.669 596.136 135.601C596.066 135.534 595.98 135.483 595.886 135.453C595.792 135.423 595.692 135.414 595.594 135.428L584.559 138.194C584.442 138.204 584.329 138.245 584.235 138.313C584.141 138.382 584.068 138.474 584.026 138.58C583.984 138.687 583.975 138.802 583.998 138.914C584.021 139.025 584.076 139.128 584.157 139.211Z" fill="#3BDBA1"/>
<path d="M587.436 140.029L593.247 146.282C593.292 146.331 593.35 146.368 593.416 146.386C593.481 146.405 593.55 146.405 593.615 146.386C593.681 146.368 593.739 146.332 593.783 146.282C593.827 146.233 593.856 146.172 593.865 146.108L594.172 137.661C594.182 137.607 594.178 137.552 594.162 137.499C594.145 137.447 594.116 137.399 594.077 137.36C594.037 137.321 593.988 137.291 593.934 137.273C593.88 137.255 593.823 137.25 593.767 137.258L587.65 139.44C587.581 139.445 587.515 139.468 587.46 139.509C587.405 139.549 587.363 139.603 587.341 139.666C587.318 139.729 587.315 139.796 587.332 139.861C587.349 139.925 587.385 139.984 587.436 140.029Z" fill="black"/>
<path d="M570.598 134.446L565.312 133.998C565.257 133.994 565.202 134.008 565.156 134.036C565.109 134.064 565.073 134.106 565.053 134.155C565.033 134.205 565.031 134.259 565.045 134.31C565.06 134.361 565.091 134.407 565.135 134.44L565.59 134.78L561.82 134.559C561.762 134.555 561.704 134.569 561.656 134.6C561.608 134.631 561.572 134.676 561.554 134.729C561.536 134.782 561.538 134.839 561.558 134.891C561.578 134.944 561.616 134.988 561.665 135.017L562.409 135.471" fill="#36EA93"/>
<path d="M580.848 136.583L575.736 134.145C575.685 134.121 575.627 134.115 575.571 134.126C575.516 134.138 575.466 134.167 575.429 134.208C575.393 134.25 575.371 134.302 575.369 134.357C575.366 134.411 575.383 134.465 575.415 134.51L575.802 135.034" fill="#F27500"/>
<path d="M580.848 136.583L575.736 134.145C575.685 134.121 575.627 134.115 575.571 134.126C575.516 134.138 575.466 134.167 575.429 134.208C575.393 134.25 575.371 134.302 575.369 134.357C575.366 134.411 575.383 134.465 575.415 134.51L575.802 135.034" fill="#36EA93"/>
<path d="M575.284 134.935L570.13 133.708C570.076 133.696 570.021 133.701 569.97 133.722C569.92 133.743 569.878 133.778 569.851 133.824C569.823 133.869 569.811 133.922 569.817 133.974C569.823 134.026 569.846 134.076 569.882 134.115L570.259 134.516" fill="#36EA93"/>
<path d="M576.419 152.863C576.37 153.82 577.138 154.638 578.135 154.689C579.131 154.74 579.979 154.006 580.028 153.048C580.077 152.091 579.309 151.273 578.313 151.222C577.316 151.17 576.468 151.905 576.419 152.863Z" fill="white"/>
<ellipse rx="6.3957" ry="2.71537" transform="matrix(-0.998682 -0.0513236 -0.0513236 0.998682 558.905 164.352)" fill="#3BDBA1"/>
<ellipse rx="6.39571" ry="2.71537" transform="matrix(-0.998682 -0.0513236 -0.0513236 0.998682 580.489 165.461)" fill="#3BDBA1"/>
<path d="M580.301 203.255C578.503 204.713 574.281 206.385 571.78 201.416C572.034 201.621 567.395 208.069 563.715 201.002C563.45 200.988 559.132 207.644 555.849 200.598" stroke="#43EDB0" stroke-linecap="round" stroke-linejoin="round"/>
<path d="M576.021 197.558C573.112 197.409 571.961 195.312 571.749 194.282C572.003 194.486 567.364 200.934 563.684 193.868C563.367 194.87 562.007 196.838 559.099 196.689" stroke="#43EDB0" stroke-linecap="round" stroke-linejoin="round"/>
</g>
<path d="M550.403 242.465L550.552 239.553C550.607 238.501 551.538 237.693 552.634 237.749C553.729 237.806 554.573 238.704 554.519 239.757L554.37 242.669C554.316 243.721 553.384 244.529 552.288 244.473C551.193 244.416 550.349 243.518 550.403 242.465Z" fill="#FDE01B"/>
<path d="M553.973 242.648L554.123 239.736C554.177 238.684 555.109 237.876 556.204 237.932C557.3 237.989 558.144 238.887 558.09 239.94L557.94 242.852C557.886 243.904 556.954 244.712 555.859 244.656C554.763 244.6 553.919 243.701 553.973 242.648Z" fill="#FDE01B"/>
<path d="M557.536 242.969L557.685 240.057C557.739 239.005 558.671 238.197 559.767 238.254C560.862 238.31 561.706 239.209 561.652 240.261L561.502 243.173C561.448 244.226 560.517 245.033 559.421 244.977C558.326 244.921 557.482 244.022 557.536 242.969Z" fill="#FDE01B"/>
<path d="M569.416 243.14L569.566 240.228C569.62 239.176 570.552 238.368 571.647 238.425C572.743 238.481 573.587 239.38 573.533 240.432L573.383 243.344C573.329 244.397 572.397 245.204 571.302 245.148C570.207 245.092 569.362 244.193 569.416 243.14Z" fill="#FDE01B"/>
<path d="M572.987 243.324L573.136 240.411C573.191 239.359 574.122 238.551 575.218 238.608C576.313 238.664 577.157 239.563 577.103 240.615L576.954 243.527C576.9 244.58 575.968 245.387 574.872 245.331C573.777 245.275 572.933 244.376 572.987 243.324Z" fill="#FDE01B"/>
<path d="M576.545 243.644L576.695 240.732C576.749 239.68 577.681 238.872 578.776 238.928C579.872 238.985 580.716 239.883 580.662 240.936L580.512 243.848C580.458 244.9 579.526 245.708 578.431 245.652C577.335 245.595 576.491 244.697 576.545 243.644Z" fill="#FDE01B"/>
<path d="M553.932 232.881C553.969 232.172 555.168 231.656 556.61 231.73C558.053 231.804 559.193 232.44 559.157 233.15L558.831 239.478C558.795 240.188 557.596 240.704 556.153 240.629C554.71 240.555 553.57 239.92 553.607 239.21L553.932 232.881Z" fill="#FDE01B"/>
<path d="M573.168 233.869C573.204 233.159 574.35 232.641 575.727 232.712C577.104 232.783 578.191 233.416 578.155 234.126L577.829 240.454C577.793 241.164 576.647 241.682 575.27 241.611C573.893 241.54 572.806 240.907 572.842 240.198L573.168 233.869Z" fill="#FDE01B"/>
<g filter="url(#filter3_d)">
<path d="M562.155 205.299L566.07 183.9L568.712 184.041L571.235 184.166L572.944 205.853L567.207 212.751L564.705 209.096L562.155 205.299Z" fill="#EB3F6D"/>
</g>
<g filter="url(#filter4_d)">
<path d="M566.022 183.879L565.589 178.622L572.373 178.96L571.293 184.15L566.022 183.879Z" fill="#EB3F6D"/>
</g>
<g filter="url(#filter5_d)">
<path d="M537.16 201.562C535.464 210.716 536.64 219.519 539.944 226.498C546.266 221.074 551.14 212.671 552.982 202.74C554.679 193.582 553.502 184.782 550.199 177.801C543.882 183.218 539.004 191.62 537.16 201.562Z" fill="#36EA93"/>
</g>
<g filter="url(#filter6_d)">
<path d="M582.385 205.189C583.342 214.451 586.961 222.627 592.108 228.488C596.653 221.612 598.964 212.244 597.928 202.193C596.971 192.927 593.352 184.755 588.204 178.89C583.663 185.759 581.348 195.128 582.385 205.189Z" fill="#36EA93"/>
</g>
<g filter="url(#filter7_i)">
<g filter="url(#filter8_i)">
<path d="M608.8 235.678C602.034 229.963 597.527 219.784 597.527 208.178C597.527 190.303 608.216 175.814 621.399 175.814C634.582 175.814 645.27 190.303 645.27 208.178C645.27 219.595 640.91 229.627 634.327 235.39" fill="#FDE01B"/>
<path d="M621.874 192.26C634.758 192.26 645.202 181.82 645.202 168.942C645.202 156.064 634.758 145.624 621.874 145.624C608.99 145.624 598.545 156.064 598.545 168.942C598.545 181.82 608.99 192.26 621.874 192.26Z" fill="#FDE01B"/>
<path d="M638.301 185.47L641.721 182.496C641.758 182.465 641.784 182.422 641.795 182.375C641.805 182.328 641.8 182.279 641.78 182.235C641.76 182.191 641.726 182.155 641.684 182.132C641.641 182.11 641.592 182.101 641.545 182.109L641.056 182.18L643.431 179.996C643.467 179.963 643.491 179.919 643.499 179.871C643.507 179.823 643.499 179.774 643.476 179.731C643.454 179.688 643.417 179.653 643.373 179.633C643.328 179.613 643.279 179.608 643.231 179.619L642.498 179.796" fill="#FDEC77"/>
<path d="M604.856 184.941L601.527 181.848C601.493 181.815 601.471 181.772 601.463 181.726C601.455 181.679 601.462 181.631 601.483 181.589C601.504 181.547 601.539 181.513 601.581 181.492C601.623 181.47 601.671 181.463 601.717 181.471L602.203 181.559L599.902 179.294C599.867 179.259 599.845 179.215 599.838 179.166C599.831 179.118 599.841 179.068 599.866 179.026C599.89 178.984 599.928 178.951 599.973 178.932C600.018 178.914 600.069 178.911 600.116 178.924L600.842 179.121" fill="#FDE01B"/>
<path d="M622.456 169.502L624.671 172.554C624.718 172.602 624.754 172.658 624.778 172.719C624.802 172.781 624.814 172.846 624.812 172.912C624.811 172.978 624.796 173.043 624.769 173.104C624.742 173.164 624.703 173.218 624.654 173.263L622.31 177.211C622.213 177.303 622.083 177.353 621.95 177.35C621.816 177.346 621.689 177.291 621.597 177.194L619.381 173.124C619.287 173.029 619.234 172.901 619.234 172.768C619.234 172.635 619.287 172.507 619.381 172.412L621.729 169.505C621.776 169.455 621.831 169.415 621.894 169.387C621.956 169.36 622.024 169.345 622.092 169.345C622.16 169.345 622.227 169.359 622.29 169.386C622.353 169.412 622.409 169.452 622.456 169.502Z" fill="#FDEC77"/>
<path d="M620.151 173.244C620.068 173.15 620.023 173.029 620.023 172.904C620.023 172.78 620.068 172.659 620.151 172.565C620.151 172.565 621.9 170.148 622.126 169.921C622.353 169.695 622.239 169.412 622.239 169.412C622.07 169.219 621.682 169.397 621.505 169.584L619.355 172.411C619.272 172.504 619.242 172.694 619.242 172.751C619.242 172.807 619.275 173.007 619.355 173.09C619.435 173.174 621.212 176.719 621.386 176.985C621.561 177.251 621.953 177.436 622.013 177.334C622.074 177.233 622.013 176.911 622.013 176.911C621.96 176.845 621.887 176.738 621.848 176.663L620.151 173.244Z" fill="#F2D405"/>
<g filter="url(#filter9_i)">
<path d="M630.757 170.946C634.508 170.946 637.55 167.903 637.55 164.15C637.55 160.396 634.508 157.353 630.757 157.353C627.006 157.353 623.965 160.396 623.965 164.15C623.965 167.903 627.006 170.946 630.757 170.946Z" fill="white"/>
</g>
<path fill-rule="evenodd" clip-rule="evenodd" d="M632.381 159.774C631.998 159.653 631.591 159.587 631.168 159.587C628.951 159.587 627.154 161.386 627.154 163.604C627.154 165.822 628.951 167.62 631.168 167.62C633.385 167.62 635.182 165.822 635.182 163.604C635.182 162.897 634.999 162.233 634.679 161.656C634.442 162.204 633.896 162.588 633.261 162.588C632.408 162.588 631.717 161.897 631.717 161.044C631.717 160.518 631.98 160.053 632.381 159.774Z" fill="black"/>
<g filter="url(#filter10_i)">
<path d="M613.466 170.946C617.217 170.946 620.258 167.903 620.258 164.15C620.258 160.396 617.217 157.353 613.466 157.353C609.715 157.353 606.674 160.396 606.674 164.15C606.674 167.903 609.715 170.946 613.466 170.946Z" fill="white"/>
</g>
<path d="M632.545 149.236L641.846 158.668C641.919 158.742 642.012 158.793 642.113 158.815C642.214 158.838 642.32 158.831 642.417 158.795C642.515 158.76 642.6 158.697 642.663 158.614C642.726 158.531 642.764 158.432 642.772 158.329L642.772 145.939C642.78 145.855 642.768 145.77 642.737 145.692C642.707 145.613 642.658 145.542 642.596 145.486C642.533 145.429 642.458 145.388 642.377 145.365C642.296 145.343 642.21 145.339 642.127 145.356L632.833 148.317C632.734 148.333 632.642 148.376 632.567 148.441C632.491 148.507 632.435 148.592 632.406 148.687C632.376 148.783 632.373 148.884 632.397 148.981C632.422 149.078 632.473 149.166 632.545 149.236Z" fill="#FDE01B"/>
<path d="M635.379 149.803L640.611 155.104C640.651 155.146 640.703 155.175 640.759 155.189C640.816 155.202 640.875 155.199 640.93 155.18C640.985 155.16 641.033 155.126 641.068 155.08C641.104 155.034 641.125 154.979 641.13 154.921L641.018 147.401C641.025 147.353 641.02 147.304 641.003 147.258C640.987 147.213 640.96 147.171 640.924 147.138C640.889 147.105 640.846 147.081 640.799 147.068C640.752 147.054 640.703 147.052 640.655 147.062L635.535 149.28C635.479 149.29 635.427 149.315 635.385 149.353C635.343 149.391 635.312 149.439 635.296 149.493C635.28 149.547 635.279 149.605 635.294 149.66C635.308 149.714 635.338 149.764 635.379 149.803Z" fill="black"/>
<path d="M610.842 149.253L601.527 158.682C601.455 158.756 601.362 158.807 601.261 158.83C601.159 158.853 601.054 158.846 600.956 158.81C600.859 158.774 600.774 158.711 600.711 158.628C600.649 158.545 600.612 158.446 600.604 158.343L600.604 145.953C600.596 145.868 600.607 145.783 600.637 145.704C600.668 145.625 600.716 145.555 600.779 145.498C600.842 145.441 600.917 145.4 600.999 145.377C601.08 145.355 601.166 145.352 601.249 145.369L610.543 148.33C610.643 148.344 610.738 148.386 610.815 148.451C610.892 148.516 610.95 148.602 610.981 148.698C611.012 148.794 611.016 148.897 610.991 148.995C610.966 149.094 610.915 149.183 610.842 149.253Z" fill="#FDE01B"/>
<path d="M608.009 149.83L602.777 155.121C602.737 155.163 602.685 155.192 602.629 155.206C602.572 155.219 602.513 155.216 602.458 155.197C602.403 155.177 602.355 155.143 602.32 155.097C602.284 155.051 602.263 154.995 602.258 154.938L602.366 147.418C602.36 147.37 602.365 147.321 602.382 147.275C602.398 147.229 602.425 147.188 602.461 147.155C602.496 147.122 602.539 147.098 602.586 147.084C602.633 147.071 602.682 147.069 602.729 147.079L607.853 149.297C607.912 149.304 607.967 149.328 608.012 149.366C608.057 149.405 608.09 149.455 608.107 149.512C608.124 149.569 608.123 149.629 608.106 149.685C608.088 149.742 608.055 149.792 608.009 149.83Z" fill="black"/>
<path d="M622.621 145.637L627.151 145.481C627.198 145.48 627.245 145.495 627.283 145.522C627.322 145.549 627.35 145.588 627.365 145.633C627.38 145.677 627.38 145.726 627.365 145.771C627.351 145.815 627.322 145.854 627.283 145.882L626.88 146.163L630.107 146.139C630.156 146.138 630.205 146.153 630.244 146.183C630.284 146.212 630.313 146.254 630.326 146.302C630.339 146.35 630.335 146.401 630.316 146.446C630.296 146.492 630.262 146.529 630.219 146.553L629.564 146.923" fill="#FDE01B"/>
<path d="M613.781 147.069L618.25 145.135C618.295 145.117 618.345 145.114 618.392 145.127C618.439 145.139 618.48 145.167 618.509 145.206C618.539 145.245 618.555 145.292 618.554 145.34C618.554 145.389 618.538 145.436 618.508 145.475L618.155 145.922" fill="#F27500"/>
<path d="M613.781 147.069L618.25 145.135C618.295 145.117 618.345 145.114 618.392 145.127C618.439 145.139 618.48 145.167 618.509 145.206C618.539 145.245 618.555 145.292 618.554 145.34C618.554 145.389 618.538 145.436 618.508 145.474L618.155 145.922" fill="#FDE01B"/>
<path d="M618.6 145.858L623.052 145.003C623.098 144.995 623.145 145.002 623.187 145.023C623.229 145.044 623.263 145.077 623.285 145.119C623.306 145.161 623.314 145.208 623.307 145.254C623.3 145.3 623.278 145.343 623.245 145.376L622.906 145.715" fill="#FDE01B"/>
<path fill-rule="evenodd" clip-rule="evenodd" d="M615.446 159.789C615.05 159.658 614.627 159.587 614.187 159.587C611.971 159.587 610.174 161.386 610.174 163.604C610.174 165.822 611.971 167.62 614.187 167.62C616.404 167.62 618.201 165.822 618.201 163.604C618.201 162.923 618.032 162.282 617.734 161.721C617.483 162.235 616.956 162.588 616.346 162.588C615.493 162.588 614.802 161.897 614.802 161.044C614.802 160.527 615.056 160.069 615.446 159.789Z" fill="black"/>
<ellipse cx="613.62" cy="171.41" rx="5.40299" ry="2.93482" fill="#FDE01B"/>
<ellipse cx="631.529" cy="171.41" rx="6.63796" ry="2.93482" fill="#FDE01B"/>
<path d="M611.324 206.336C612.795 207.713 616.323 209.392 618.676 205.091C618.45 205.261 622.126 211.203 625.575 205.091C625.802 205.091 629.195 211.203 632.305 205.091" stroke="#FDEC77" stroke-linecap="round" stroke-linejoin="round"/>
<path d="M615.227 201.47C617.715 201.47 618.789 199.659 619.016 198.754C618.789 198.923 622.465 204.865 625.915 198.754C626.141 199.659 627.216 201.47 629.704 201.47" stroke="#FDEC77" stroke-linecap="round" stroke-linejoin="round"/>
<path d="M634.231 158.323C635.67 158.136 638.442 157.035 638.017 154.123" stroke="black" stroke-linecap="round" stroke-linejoin="round"/>
<path d="M635.802 159.204C637.254 159.132 640.095 158.257 639.843 155.33" stroke="black" stroke-linecap="round" stroke-linejoin="round"/>
<path d="M637.324 160.511C638.778 160.469 641.635 159.652 641.427 156.723" stroke="black" stroke-linecap="round" stroke-linejoin="round"/>
<path d="M610.625 158.341C609.142 158.148 606.286 157.013 606.724 154.014" stroke="black" stroke-linecap="round" stroke-linejoin="round"/>
<path d="M609.008 159.248C607.512 159.175 604.584 158.273 604.844 155.257" stroke="black" stroke-linecap="round" stroke-linejoin="round"/>
<path d="M607.439 160.595C605.94 160.551 602.997 159.71 603.212 156.693" stroke="black" stroke-linecap="round" stroke-linejoin="round"/>
<path d="M623.861 174.276L622.188 177.181C622.049 177.267 621.723 177.347 621.531 176.982C621.339 176.616 620.431 174.842 620 174" stroke="#F35B84" stroke-width="0.5" stroke-linecap="round"/>
</g>
<path d="M635.121 242.593L635.121 239.999C635.121 239.061 634.361 238.301 633.424 238.301C632.487 238.301 631.727 239.061 631.727 239.999L631.727 242.593C631.727 243.531 632.487 244.291 633.424 244.291C634.361 244.291 635.121 243.531 635.121 242.593Z" fill="#FDE01B"/>
<path d="M631.9 242.796L631.9 240.241C631.9 239.318 631.152 238.57 630.23 238.57C629.307 238.57 628.559 239.318 628.559 240.241L628.559 242.796C628.559 243.719 629.307 244.467 630.23 244.467C631.152 244.467 631.9 243.719 631.9 242.796Z" fill="#FDE01B"/>
<path d="M629.014 242.715L629.014 240.121C629.014 239.183 628.254 238.423 627.317 238.423C626.38 238.423 625.62 239.183 625.62 240.121L625.62 242.715C625.62 243.653 626.38 244.413 627.317 244.413C628.254 244.413 629.014 243.653 629.014 242.715Z" fill="#FDE01B"/>
<path d="M618.869 242.325L618.869 239.73C618.869 238.793 618.109 238.032 617.172 238.032C616.235 238.032 615.475 238.793 615.475 239.73L615.475 242.325C615.475 243.262 616.235 244.023 617.172 244.023C618.109 244.023 618.869 243.262 618.869 242.325Z" fill="#FDE01B"/>
<path d="M615.814 242.325L615.814 239.73C615.814 238.793 615.055 238.032 614.118 238.032C613.18 238.032 612.421 238.793 612.421 239.73L612.421 242.325C612.421 243.262 613.18 244.023 614.118 244.023C615.055 244.023 615.814 243.262 615.814 242.325Z" fill="#FDE01B"/>
<path d="M612.764 242.447L612.764 239.852C612.764 238.915 612.004 238.155 611.067 238.155C610.13 238.155 609.37 238.915 609.37 239.852L609.37 242.447C609.37 243.385 610.13 244.145 611.067 244.145C612.004 244.145 612.764 243.385 612.764 242.447Z" fill="#FDE01B"/>
<path d="M632.53 233.916C632.53 233.283 631.53 232.771 630.295 232.771C629.061 232.771 628.061 233.283 628.061 233.916L628.061 239.554C628.061 240.186 629.061 240.699 630.295 240.699C631.53 240.699 632.53 240.186 632.53 239.554L632.53 233.916Z" fill="#FDE01B"/>
<path d="M616.073 233.916C616.073 233.283 615.118 232.771 613.94 232.771C612.762 232.771 611.807 233.283 611.807 233.916L611.807 239.554C611.807 240.186 612.762 240.699 613.94 240.699C615.118 240.699 616.073 240.186 616.073 239.554L616.073 233.916Z" fill="#FDE01B"/>
<path d="M607.436 209.202C605.71 217.563 601.756 224.677 596.685 229.533C593.362 222.823 592.235 214.052 594.106 204.98C595.832 196.615 599.786 189.504 604.858 184.645C608.179 191.348 609.309 200.119 607.436 209.202Z" fill="#FDEC77"/>
<path d="M648.728 207.786C649.807 216.256 648.373 224.268 645.15 230.508C639.832 225.24 635.922 217.309 634.75 208.12C633.671 199.648 635.105 191.638 638.327 185.395C643.642 190.657 647.555 198.587 648.728 207.786Z" fill="#FDEC77"/>
</g>
<g clip-path="url(#clip1)" filter="url(#filter11_i)">
<path d="M602.417 243.523C606.068 240.86 608.663 235.917 608.96 230.143C609.417 221.251 604.25 213.759 597.421 213.408C590.591 213.057 584.684 219.98 584.227 228.872C583.935 234.551 585.937 239.658 589.2 242.7" fill="#F27500"/>
<path d="M596.754 221.577C590.079 221.234 584.935 215.762 585.265 209.356C585.594 202.949 591.271 198.034 597.946 198.377C604.62 198.72 609.764 204.191 609.435 210.598C609.106 217.004 603.428 221.92 596.754 221.577Z" fill="#F27500"/>
<path d="M606.72 222.026C609.565 225.295 611.184 229.045 611.528 232.531C607.73 231.74 603.801 229.454 600.711 225.903C597.867 222.634 596.248 218.883 595.904 215.398C599.7 216.187 603.629 218.473 606.72 222.026Z" fill="#F69D49"/>
<path d="M588.419 217.762L586.723 216.191C586.704 216.174 586.692 216.153 586.688 216.129C586.683 216.105 586.687 216.081 586.699 216.06C586.71 216.038 586.729 216.021 586.751 216.011C586.774 216.001 586.8 215.998 586.824 216.003L587.075 216.051L585.901 214.902C585.883 214.884 585.872 214.862 585.869 214.838C585.866 214.814 585.871 214.789 585.884 214.768C585.897 214.748 585.917 214.732 585.94 214.723C585.964 214.714 585.99 214.713 586.014 214.72L586.389 214.827" fill="#F27500"/>
<path d="M605.757 218.389L607.561 216.938C607.579 216.923 607.592 216.902 607.597 216.879C607.603 216.856 607.6 216.832 607.59 216.811C607.58 216.789 607.563 216.771 607.542 216.76C607.521 216.748 607.496 216.743 607.472 216.746L607.218 216.777L608.468 215.711C608.487 215.695 608.5 215.673 608.504 215.649C608.509 215.625 608.505 215.601 608.494 215.579C608.482 215.557 608.463 215.54 608.44 215.529C608.417 215.519 608.391 215.516 608.367 215.521L607.985 215.6" fill="#F27500"/>
<path d="M597.036 210.24L595.81 211.699C595.785 211.722 595.765 211.749 595.751 211.779C595.737 211.809 595.729 211.841 595.728 211.874C595.727 211.907 595.733 211.939 595.746 211.97C595.758 212.001 595.777 212.029 595.801 212.053L596.915 214.079C596.963 214.127 597.028 214.155 597.098 214.157C597.167 214.159 597.234 214.135 597.284 214.089L598.536 212.124C598.587 212.079 598.618 212.017 598.621 211.951C598.625 211.884 598.601 211.819 598.555 211.769L597.412 210.261C597.39 210.235 597.362 210.213 597.33 210.198C597.299 210.183 597.264 210.174 597.229 210.172C597.193 210.17 597.158 210.175 597.125 210.187C597.092 210.198 597.062 210.216 597.036 210.24Z" fill="#FDE01B"/>
<path d="M598.134 212.163C598.179 212.118 598.206 212.059 598.209 211.997C598.213 211.935 598.192 211.874 598.151 211.825C598.151 211.825 597.307 210.576 597.196 210.457C597.084 210.339 597.15 210.201 597.15 210.201C597.243 210.109 597.44 210.208 597.526 210.306L598.568 211.77C598.609 211.818 598.619 211.913 598.618 211.941C598.616 211.97 598.594 212.068 598.55 212.107C598.507 212.147 597.496 213.863 597.399 213.991C597.301 214.118 597.094 214.2 597.065 214.148C597.036 214.096 597.076 213.937 597.076 213.937C597.105 213.906 597.146 213.855 597.168 213.818L598.134 212.163Z" fill="#DCC41E"/>
<g filter="url(#filter12_i)">
<path d="M592.698 210.737C590.755 210.637 589.257 209.043 589.353 207.175C589.449 205.308 591.102 203.875 593.046 203.975C594.989 204.075 596.487 205.67 596.391 207.537C596.295 209.404 594.642 210.837 592.698 210.737Z" fill="white"/>
</g>
<path d="M593.592 208.934C592.444 208.875 591.559 207.933 591.616 206.829C591.672 205.726 592.649 204.879 593.798 204.938C594.946 204.997 595.831 205.94 595.774 207.043C595.718 208.147 594.741 208.993 593.592 208.934Z" fill="black"/>
<path d="M592.154 206.116C592.132 206.541 592.473 206.903 592.914 206.926C593.356 206.948 593.732 206.623 593.753 206.198C593.775 205.774 593.435 205.412 592.993 205.389C592.552 205.366 592.176 205.692 592.154 206.116Z" fill="white"/>
<g filter="url(#filter13_i)">
<path d="M601.653 211.198C599.71 211.098 598.212 209.503 598.308 207.636C598.404 205.769 600.057 204.336 602.001 204.436C603.944 204.536 605.442 206.13 605.346 207.997C605.25 209.865 603.597 211.297 601.653 211.198Z" fill="white"/>
</g>
<path d="M602.389 209.386C601.241 209.327 600.356 208.385 600.413 207.282C600.469 206.178 601.446 205.332 602.595 205.391C603.743 205.45 604.628 206.392 604.571 207.495C604.514 208.599 603.538 209.445 602.389 209.386Z" fill="black"/>
<path d="M592.325 199.89L587.266 204.334C587.226 204.369 587.177 204.392 587.124 204.4C587.071 204.409 587.016 204.403 586.967 204.382C586.917 204.362 586.874 204.328 586.844 204.286C586.814 204.243 586.796 204.193 586.795 204.141L587.112 197.977C587.11 197.935 587.118 197.893 587.136 197.855C587.154 197.817 587.181 197.783 587.214 197.757C587.248 197.73 587.288 197.712 587.331 197.702C587.374 197.693 587.418 197.694 587.46 197.704L592.2 199.425C592.25 199.435 592.297 199.459 592.334 199.494C592.372 199.528 592.398 199.572 592.412 199.621C592.425 199.669 592.423 199.719 592.408 199.767C592.393 199.814 592.364 199.857 592.325 199.89Z" fill="#F27500"/>
<path d="M590.843 200.096L587.997 202.594C587.975 202.614 587.948 202.627 587.918 202.632C587.888 202.638 587.858 202.634 587.83 202.623C587.802 202.612 587.778 202.594 587.761 202.57C587.744 202.546 587.734 202.518 587.733 202.489L587.983 198.751C587.981 198.727 587.985 198.703 587.995 198.681C588.004 198.658 588.019 198.639 588.039 198.623C588.058 198.608 588.081 198.597 588.105 198.591C588.13 198.586 588.155 198.586 588.18 198.592L590.776 199.832C590.804 199.839 590.83 199.852 590.851 199.872C590.872 199.892 590.887 199.917 590.894 199.944C590.901 199.972 590.9 200.001 590.891 200.027C590.882 200.054 590.865 200.078 590.843 200.096Z" fill="black"/>
<path d="M603.568 200.476L608.152 205.414C608.188 205.453 608.235 205.481 608.287 205.495C608.339 205.509 608.394 205.509 608.445 205.493C608.496 205.478 608.542 205.449 608.576 205.409C608.611 205.37 608.633 205.322 608.639 205.27L608.956 199.107C608.963 199.065 608.959 199.022 608.945 198.982C608.932 198.942 608.908 198.906 608.877 198.876C608.846 198.846 608.808 198.823 608.766 198.81C608.725 198.797 608.68 198.793 608.637 198.799L603.746 200.025C603.694 200.029 603.644 200.048 603.603 200.078C603.561 200.108 603.529 200.149 603.51 200.196C603.492 200.243 603.487 200.294 603.497 200.344C603.508 200.393 603.532 200.439 603.568 200.476Z" fill="#F27500"/>
<path d="M605.022 200.838L607.598 203.61C607.617 203.632 607.643 203.648 607.672 203.656C607.701 203.664 607.732 203.664 607.761 203.656C607.79 203.648 607.815 203.632 607.835 203.61C607.855 203.588 607.867 203.561 607.871 203.532L608.007 199.789C608.012 199.765 608.01 199.74 608.003 199.717C607.996 199.694 607.983 199.673 607.965 199.655C607.948 199.638 607.926 199.625 607.902 199.617C607.878 199.609 607.853 199.607 607.828 199.61L605.117 200.577C605.086 200.579 605.057 200.59 605.033 200.608C605.008 200.626 604.99 200.65 604.98 200.678C604.97 200.705 604.968 200.735 604.976 200.764C604.983 200.792 605 200.818 605.022 200.838Z" fill="black"/>
<path d="M597.559 198.363L595.216 198.165C595.191 198.163 595.167 198.169 595.146 198.182C595.126 198.194 595.11 198.213 595.101 198.235C595.092 198.257 595.091 198.281 595.097 198.303C595.104 198.326 595.118 198.346 595.137 198.361L595.339 198.512L593.668 198.414C593.642 198.412 593.617 198.418 593.595 198.432C593.574 198.445 593.558 198.466 593.55 198.489C593.542 198.512 593.543 198.538 593.552 198.561C593.561 198.584 593.577 198.604 593.599 198.617L593.929 198.818" fill="#F27500"/>
<path d="M602.101 199.311L599.835 198.23C599.812 198.22 599.786 198.217 599.762 198.222C599.737 198.227 599.715 198.24 599.699 198.258C599.683 198.277 599.673 198.3 599.672 198.324C599.671 198.348 599.678 198.372 599.693 198.392L599.864 198.624" fill="#F27500"/>
<path d="M602.102 199.311L599.837 198.23C599.814 198.22 599.788 198.217 599.764 198.222C599.739 198.227 599.717 198.24 599.701 198.258C599.684 198.277 599.675 198.3 599.674 198.324C599.673 198.348 599.68 198.372 599.695 198.392L599.866 198.624" fill="#F27500"/>
<path d="M599.636 198.58L597.352 198.037C597.328 198.032 597.303 198.034 597.281 198.043C597.259 198.052 597.24 198.068 597.228 198.088C597.216 198.108 597.211 198.132 597.213 198.155C597.216 198.178 597.226 198.2 597.242 198.217L597.409 198.395" fill="#F27500"/>
<path d="M600.914 206.412C600.892 206.836 601.232 207.199 601.674 207.222C602.116 207.244 602.491 206.919 602.513 206.494C602.535 206.07 602.195 205.707 601.753 205.685C601.311 205.662 600.936 205.988 600.914 206.412Z" fill="white"/>
<ellipse rx="2.80269" ry="1.46189" transform="matrix(-0.998682 -0.0513236 -0.0513236 0.998682 601.563 211.424)" fill="#F27500"/>
<ellipse rx="3.4433" ry="1.46189" transform="matrix(-0.998682 -0.0513236 -0.0513236 0.998682 592.285 210.947)" fill="#F27500"/>
<path d="M601.859 228.86C601.062 229.506 599.191 230.247 598.082 228.045C598.195 228.135 596.139 230.993 594.508 227.861C594.391 227.855 592.477 230.805 591.022 227.682" stroke="#F69D49" stroke-linecap="round" stroke-linejoin="round"/>
<path d="M599.962 226.335C598.673 226.269 598.162 225.339 598.068 224.883C598.181 224.974 596.125 227.831 594.494 224.699C594.354 225.144 593.751 226.016 592.462 225.95" stroke="#F69D49" stroke-linecap="round" stroke-linejoin="round"/>
</g>
<path d="M588.787 246.298L588.853 245.008C588.877 244.541 589.29 244.183 589.776 244.208C590.261 244.233 590.635 244.631 590.611 245.098L590.545 246.389C590.521 246.855 590.108 247.213 589.622 247.188C589.137 247.163 588.763 246.765 588.787 246.298Z" fill="#FDE01B"/>
<path d="M590.369 246.38L590.435 245.089C590.459 244.623 590.872 244.265 591.358 244.29C591.843 244.314 592.217 244.713 592.193 245.179L592.127 246.47C592.103 246.936 591.69 247.294 591.204 247.269C590.719 247.244 590.345 246.846 590.369 246.38Z" fill="#FDE01B"/>
<path d="M591.947 246.521L592.013 245.231C592.037 244.764 592.45 244.406 592.936 244.431C593.421 244.456 593.795 244.855 593.771 245.321L593.705 246.612C593.681 247.078 593.268 247.436 592.783 247.411C592.297 247.386 591.923 246.988 591.947 246.521Z" fill="#FDE01B"/>
<path d="M597.213 246.597L597.279 245.307C597.303 244.84 597.716 244.482 598.201 244.507C598.687 244.532 599.061 244.93 599.037 245.397L598.971 246.687C598.947 247.154 598.534 247.512 598.048 247.487C597.563 247.462 597.189 247.064 597.213 246.597Z" fill="#FDE01B"/>
<path d="M598.795 246.678L598.861 245.387C598.885 244.921 599.298 244.563 599.783 244.588C600.269 244.613 600.643 245.011 600.619 245.478L600.553 246.768C600.529 247.235 600.116 247.592 599.63 247.568C599.145 247.543 598.771 247.144 598.795 246.678Z" fill="#FDE01B"/>
<path d="M600.371 246.82L600.437 245.53C600.461 245.063 600.874 244.705 601.36 244.73C601.845 244.755 602.219 245.154 602.195 245.62L602.129 246.911C602.105 247.377 601.692 247.735 601.206 247.71C600.721 247.685 600.347 247.287 600.371 246.82Z" fill="#FDE01B"/>
<path d="M590.351 242.051C590.367 241.736 590.898 241.508 591.538 241.54C592.177 241.573 592.682 241.855 592.666 242.17L592.522 244.974C592.506 245.289 591.974 245.517 591.335 245.484C590.695 245.452 590.19 245.17 590.206 244.855L590.351 242.051Z" fill="#FDE01B"/>
<path d="M598.876 242.488C598.892 242.173 599.4 241.943 600.01 241.975C600.62 242.006 601.102 242.287 601.086 242.601L600.942 245.406C600.926 245.721 600.418 245.95 599.807 245.919C599.197 245.887 598.715 245.607 598.732 245.292L598.876 242.488Z" fill="#FDE01B"/>
<path d="M582.366 228.606C581.591 232.791 582.129 236.815 583.639 240.005C586.529 237.525 588.757 233.684 589.599 229.144C590.375 224.958 589.837 220.936 588.327 217.744C585.439 220.221 583.209 224.061 582.366 228.606Z" fill="#F69D49"/>
<g filter="url(#filter14_i)">
<g clip-path="url(#clip2)" filter="url(#filter15_i)">
<path d="M325.478 251.118C344.205 235.309 356.678 207.153 356.678 175.047C356.678 125.603 327.093 85.5225 290.605 85.5225C254.117 85.5225 224.532 125.603 224.532 175.047C224.532 206.628 236.601 234.38 254.822 250.32" fill="#F27500"/>
<path d="M289.291 131.017C253.63 131.017 224.721 102.138 224.721 66.5143C224.721 30.8906 253.63 2.0119 289.291 2.0119C324.952 2.0119 353.861 30.8906 353.861 66.5143C353.861 102.138 324.952 131.017 289.291 131.017Z" fill="#F27500"/>
<g filter="url(#filter16_d)">
<path d="M342.529 130.667C358.582 147.988 368.236 168.326 371.024 187.557C350.57 184.254 329.006 172.698 311.57 153.883C295.517 136.562 285.863 116.224 283.075 96.9935C303.523 100.29 325.086 111.846 342.529 130.667Z" fill="#F69D49"/>
</g>
<path d="M243.824 112.234L234.357 104.005C234.255 103.92 234.183 103.803 234.154 103.673C234.124 103.543 234.138 103.406 234.194 103.285C234.249 103.164 234.343 103.064 234.461 103.001C234.578 102.938 234.714 102.915 234.845 102.936L236.198 103.133L229.624 97.0908C229.525 96.9994 229.459 96.8778 229.436 96.745C229.414 96.6122 229.436 96.4757 229.499 96.3568C229.562 96.2379 229.663 96.1433 229.786 96.0877C229.909 96.032 230.046 96.0186 230.178 96.0494L232.206 96.5373" fill="#F27500"/>
<path d="M336.392 110.77L345.605 102.213C345.7 102.123 345.763 102.005 345.785 101.876C345.807 101.747 345.787 101.615 345.728 101.498C345.669 101.382 345.575 101.287 345.458 101.228C345.341 101.17 345.208 101.15 345.08 101.172L343.736 101.416L350.104 95.1486C350.201 95.0539 350.263 94.9297 350.282 94.7957C350.3 94.6616 350.273 94.5253 350.205 94.4082C350.137 94.2911 350.033 94.1998 349.907 94.1487C349.782 94.0976 349.643 94.0896 349.513 94.126L347.503 94.6701" fill="#F27500"/>
<path d="M287.684 68.0623L281.551 76.5062C281.423 76.6369 281.323 76.7919 281.256 76.9619C281.189 77.132 281.156 77.3138 281.161 77.4965C281.165 77.6793 281.206 77.8593 281.281 78.026C281.356 78.1927 281.464 78.3426 281.598 78.4671L288.088 89.388C288.356 89.6419 288.714 89.7795 289.084 89.7707C289.453 89.7619 289.804 89.6075 290.06 89.341L296.193 78.0824C296.454 77.8205 296.6 77.4664 296.6 77.0973C296.6 76.7282 296.454 76.374 296.193 76.1121L289.694 68.0716C289.566 67.9329 289.411 67.822 289.239 67.7459C289.066 67.6697 288.88 67.63 288.691 67.6291C288.502 67.6282 288.316 67.6662 288.142 67.7408C287.969 67.8153 287.813 67.9247 287.684 68.0623Z" fill="#FDE01B"/>
<path d="M294.062 78.4131C294.291 78.1541 294.418 77.8205 294.418 77.4749C294.418 77.1293 294.291 76.7956 294.062 76.5366C294.062 76.5366 289.221 69.8489 288.595 69.2227C287.969 68.5966 288.282 67.814 288.282 67.814C288.752 67.2792 289.826 67.7737 290.315 68.2897L296.265 76.11C296.496 76.368 296.578 76.8926 296.578 77.0492C296.578 77.2057 296.486 77.7571 296.265 77.9883C296.044 78.2195 291.127 88.0259 290.644 88.7616C290.16 89.4973 289.076 90.0089 288.908 89.7279C288.74 89.447 288.908 88.5581 288.908 88.5581C289.056 88.3744 289.258 88.0796 289.366 87.8703L294.062 78.4131Z" fill="#DCC41E"/>
<g filter="url(#filter17_i)">
<path d="M264.706 72.0583C254.323 72.0583 245.906 63.6412 245.906 53.2582C245.906 42.8752 254.323 34.4581 264.706 34.4581C275.089 34.4581 283.506 42.8752 283.506 53.2582C283.506 63.6412 275.089 72.0583 264.706 72.0583Z" fill="white"/>
</g>
<path d="M268.979 61.8037C262.843 61.8037 257.87 56.83 257.87 50.6946C257.87 44.5592 262.843 39.5854 268.979 39.5854C275.114 39.5854 280.088 44.5592 280.088 50.6946C280.088 56.83 275.114 61.8037 268.979 61.8037Z" fill="black"/>
<path d="M271.542 47.2764C271.542 49.6362 273.455 51.5492 275.815 51.5492C278.175 51.5492 280.088 49.6362 280.088 47.2764C280.088 44.9166 278.175 43.0037 275.815 43.0037C273.455 43.0037 271.542 44.9166 271.542 47.2764Z" fill="white"/>
<g filter="url(#filter18_i)">
<path d="M312.561 72.0583C302.178 72.0583 293.761 63.6412 293.761 53.2582C293.761 42.8752 302.178 34.4581 312.561 34.4581C322.944 34.4581 331.361 42.8752 331.361 53.2582C331.361 63.6412 322.944 72.0583 312.561 72.0583Z" fill="white"/>
</g>
<path d="M315.979 61.8037C309.843 61.8037 304.87 56.83 304.87 50.6946C304.87 44.5592 309.843 39.5854 315.979 39.5854C322.114 39.5854 327.088 44.5592 327.088 50.6946C327.088 56.83 322.114 61.8037 315.979 61.8037Z" fill="black"/>
<path d="M259.754 12.0037L234.01 38.0955C233.808 38.2992 233.551 38.4405 233.27 38.5029C232.99 38.5652 232.697 38.5458 232.427 38.4471C232.157 38.3483 231.922 38.1743 231.748 37.9457C231.574 37.7171 231.469 37.4434 231.446 37.1572V2.88418C231.424 2.65178 231.457 2.41747 231.542 2.1999C231.626 1.98233 231.761 1.78747 231.934 1.63081C232.107 1.47415 232.315 1.36003 232.54 1.29747C232.765 1.23492 233.001 1.22565 233.231 1.27045L258.955 9.46109C259.228 9.50582 259.484 9.62538 259.692 9.80648C259.901 9.98758 260.056 10.2231 260.139 10.4867C260.221 10.7504 260.229 11.0318 260.161 11.2996C260.093 11.5675 259.952 11.8112 259.754 12.0037Z" fill="#F27500"/>
<path d="M251.911 13.5708L237.429 28.2351C237.318 28.3513 237.175 28.4329 237.019 28.4702C236.862 28.5075 236.698 28.4989 236.546 28.4454C236.395 28.3919 236.262 28.2958 236.163 28.1686C236.065 28.0415 236.005 27.8886 235.992 27.7285L236.302 6.92821C236.284 6.79499 236.299 6.65949 236.344 6.53298C236.389 6.40647 236.464 6.2926 236.563 6.20084C236.661 6.10909 236.78 6.0421 236.909 6.00543C237.038 5.96876 237.175 5.96346 237.307 5.99L251.479 12.1259C251.633 12.1534 251.777 12.2231 251.893 12.3272C252.01 12.4313 252.096 12.5657 252.14 12.7155C252.185 12.8653 252.187 13.0246 252.147 13.1756C252.107 13.3266 252.025 13.4634 251.911 13.5708Z" fill="black"/>
<path d="M319.825 12.0507L345.606 38.1332C345.807 38.3379 346.063 38.4802 346.344 38.5431C346.624 38.606 346.916 38.5868 347.186 38.4878C347.456 38.3887 347.691 38.2141 347.864 37.9848C348.037 37.7555 348.14 37.4812 348.16 37.195V2.92189C348.184 2.68901 348.153 2.45377 348.069 2.23521C347.985 2.01665 347.851 1.82091 347.677 1.6638C347.503 1.50669 347.295 1.39262 347.069 1.33083C346.843 1.26905 346.605 1.26129 346.376 1.30816L320.651 9.49877C320.374 9.53791 320.113 9.6541 319.899 9.83408C319.685 10.0141 319.525 10.2506 319.439 10.5167C319.353 10.7827 319.344 11.0677 319.412 11.3389C319.48 11.6101 319.623 11.8568 319.825 12.0507Z" fill="#F27500"/>
<path d="M327.667 13.6457L342.149 28.2819C342.26 28.398 342.403 28.4797 342.559 28.517C342.716 28.5543 342.88 28.5456 343.031 28.4921C343.183 28.4386 343.316 28.3425 343.414 28.2154C343.513 28.0882 343.572 27.9354 343.586 27.7752L343.285 6.97499C343.303 6.84177 343.289 6.70627 343.243 6.57976C343.198 6.45325 343.123 6.33938 343.025 6.24762C342.926 6.15587 342.808 6.08885 342.678 6.05218C342.549 6.01551 342.412 6.01024 342.28 6.03678L328.099 12.1727C327.936 12.1923 327.783 12.259 327.658 12.3646C327.533 12.4702 327.442 12.6101 327.396 12.7669C327.35 12.9237 327.352 13.0906 327.4 13.2468C327.448 13.403 327.54 13.5417 327.667 13.6457Z" fill="black"/>
<path d="M287.225 2.04934L274.686 1.61774C274.556 1.61495 274.428 1.65408 274.321 1.72938C274.214 1.80467 274.135 1.91218 274.094 2.03608C274.053 2.15998 274.052 2.29374 274.093 2.41772C274.134 2.5417 274.213 2.64933 274.32 2.72483L275.438 3.50356L266.506 3.43788C266.369 3.43408 266.235 3.47644 266.125 3.55814C266.015 3.63983 265.935 3.75611 265.9 3.88826C265.864 4.02042 265.874 4.16075 265.927 4.28668C265.981 4.41261 266.076 4.51681 266.196 4.58251L268.009 5.60516" fill="#F27500"/>
<path d="M311.691 6.00869L299.322 0.660869C299.198 0.609913 299.06 0.601423 298.93 0.636733C298.8 0.672042 298.686 0.749178 298.605 0.85614C298.523 0.963102 298.479 1.0939 298.48 1.22824C298.481 1.36259 298.526 1.49296 298.608 1.59909L299.585 2.83754" fill="#F27500"/>
<path d="M311.691 6.00834L299.322 0.660518C299.198 0.609562 299.06 0.601072 298.93 0.636382C298.8 0.671691 298.686 0.748827 298.605 0.855789C298.523 0.962751 298.479 1.09355 298.48 1.22789C298.481 1.36224 298.526 1.49261 298.608 1.59874L299.585 2.83719" fill="#F27500"/>
<path d="M298.355 2.65926L286.033 0.294937C285.905 0.272997 285.774 0.292245 285.658 0.349853C285.542 0.407462 285.447 0.500451 285.388 0.615387C285.328 0.730323 285.307 0.861221 285.326 0.989151C285.346 1.11708 285.406 1.2354 285.498 1.32698L286.437 2.2652" fill="#F27500"/>
<path d="M318.542 46.4218C318.542 48.7816 320.455 50.6946 322.815 50.6946C325.175 50.6946 327.088 48.7816 327.088 46.4218C327.088 44.0621 325.175 42.1491 322.815 42.1491C320.455 42.1491 318.542 44.0621 318.542 46.4218Z" fill="white"/>
<ellipse rx="14.9546" ry="8.11823" transform="matrix(-1 0 0 1 312.133 73.3402)" fill="#F27500"/>
<ellipse rx="18.3728" ry="8.11823" transform="matrix(-1 0 0 1 262.571 73.3402)" fill="#F27500"/>
<path d="M318.492 169.953C314.422 173.762 304.655 178.405 298.143 166.509C298.77 166.979 288.595 183.414 279.047 166.509C278.421 166.509 269.029 183.414 260.42 166.509" stroke="#F69D49" stroke-width="4" stroke-linecap="round" stroke-linejoin="round"/>
<path d="M307.691 156.491C300.804 156.491 297.83 151.483 297.204 148.978C297.83 149.448 287.656 165.883 278.108 148.978C277.481 151.483 274.507 156.491 267.62 156.491" stroke="#F69D49" stroke-width="4" stroke-linecap="round" stroke-linejoin="round"/>
</g>
<path d="M252.662 270.383V263.207C252.662 260.613 254.765 258.51 257.359 258.51C259.953 258.51 262.055 260.613 262.055 263.207V270.383C262.055 272.977 259.953 275.08 257.359 275.08C254.765 275.08 252.662 272.977 252.662 270.383Z" fill="#FDE01B"/>
<path d="M261.113 270.383V263.207C261.113 260.613 263.216 258.51 265.81 258.51C268.404 258.51 270.506 260.613 270.506 263.207V270.383C270.506 272.977 268.404 275.08 265.81 275.08C263.216 275.08 261.113 272.977 261.113 270.383Z" fill="#FDE01B"/>
<path d="M269.572 270.721V263.545C269.572 260.951 271.675 258.848 274.269 258.848C276.863 258.848 278.965 260.951 278.965 263.545V270.721C278.965 273.315 276.863 275.418 274.269 275.418C271.675 275.418 269.572 273.315 269.572 270.721Z" fill="#FDE01B"/>
<path d="M297.643 269.641V262.464C297.643 259.871 299.745 257.768 302.339 257.768C304.933 257.768 307.036 259.871 307.036 262.464V269.641C307.036 272.235 304.933 274.337 302.339 274.337C299.745 274.337 297.643 272.235 297.643 269.641Z" fill="#FDE01B"/>
<path d="M306.098 269.641V262.464C306.098 259.871 308.2 257.768 310.794 257.768C313.388 257.768 315.491 259.871 315.491 262.464V269.641C315.491 272.235 313.388 274.337 310.794 274.337C308.2 274.337 306.098 272.235 306.098 269.641Z" fill="#FDE01B"/>
<path d="M314.543 269.979V262.802C314.543 260.209 316.646 258.106 319.24 258.106C321.833 258.106 323.936 260.209 323.936 262.802V269.979C323.936 272.573 321.833 274.675 319.24 274.675C316.646 274.675 314.543 272.573 314.543 269.979Z" fill="#FDE01B"/>
<path d="M259.83 246.381C259.83 244.631 262.599 243.213 266.015 243.213C269.432 243.213 272.201 244.631 272.201 246.381V261.976C272.201 263.726 269.432 265.144 266.015 265.144C262.599 265.144 259.83 263.726 259.83 261.976V246.381Z" fill="#FDE01B"/>
<path d="M305.378 246.381C305.378 244.631 308.022 243.213 311.283 243.213C314.544 243.213 317.188 244.631 317.188 246.381V261.976C317.188 263.726 314.544 265.144 311.283 265.144C308.022 265.144 305.378 263.726 305.378 261.976V246.381Z" fill="#FDE01B"/>
<g filter="url(#filter19_d)">
<path d="M214.54 174.102C211.555 197.529 215.523 219.694 224.443 236.955C239.165 222.381 249.987 200.444 253.23 175.025C256.216 151.588 252.247 129.433 243.328 112.163C228.619 126.72 217.788 148.655 214.54 174.102Z" fill="#F69D49"/>
</g>
</g>
<defs>
<filter id="filter0_d" x="428" y="59" width="146.561" height="214.422" filterUnits="userSpaceOnUse" color-interpolation-filters="sRGB">
<feFlood flood-opacity="0" result="BackgroundImageFix"/>
<feColorMatrix in="SourceAlpha" type="matrix" values="0 0 0 0 0 0 0 0 0 0 0 0 0 0 0 0 0 0 127 0"/>
<feOffset dx="1" dy="2"/>
<feGaussianBlur stdDeviation="1"/>
<feColorMatrix type="matrix" values="0 0 0 0 0 0 0 0 0 0 0 0 0 0 0 0 0 0 0.15 0"/>
<feBlend mode="normal" in2="BackgroundImageFix" result="effect1_dropShadow"/>
<feBlend mode="normal" in="SourceGraphic" in2="effect1_dropShadow" result="shape"/>
</filter>
<filter id="filter1_i" x="552.072" y="147.096" width="15.8987" height="19.2795" filterUnits="userSpaceOnUse" color-interpolation-filters="sRGB">
<feFlood flood-opacity="0" result="BackgroundImageFix"/>
<feBlend mode="normal" in="SourceGraphic" in2="BackgroundImageFix" result="shape"/>
<feColorMatrix in="SourceAlpha" type="matrix" values="0 0 0 0 0 0 0 0 0 0 0 0 0 0 0 0 0 0 127 0" result="hardAlpha"/>
<feOffset dy="4"/>
<feGaussianBlur stdDeviation="2"/>
<feComposite in2="hardAlpha" operator="arithmetic" k2="-1" k3="1"/>
<feColorMatrix type="matrix" values="0 0 0 0 0 0 0 0 0 0 0 0 0 0 0 0 0 0 0.15 0"/>
<feBlend mode="normal" in2="shape" result="effect1_innerShadow"/>
</filter>
<filter id="filter2_i" x="572.281" y="148.135" width="15.8987" height="19.2795" filterUnits="userSpaceOnUse" color-interpolation-filters="sRGB">
<feFlood flood-opacity="0" result="BackgroundImageFix"/>
<feBlend mode="normal" in="SourceGraphic" in2="BackgroundImageFix" result="shape"/>
<feColorMatrix in="SourceAlpha" type="matrix" values="0 0 0 0 0 0 0 0 0 0 0 0 0 0 0 0 0 0 127 0" result="hardAlpha"/>
<feOffset dy="4"/>
<feGaussianBlur stdDeviation="2"/>
<feComposite in2="hardAlpha" operator="arithmetic" k2="-1" k3="1"/>
<feColorMatrix type="matrix" values="0 0 0 0 0 0 0 0 0 0 0 0 0 0 0 0 0 0 0.15 0"/>
<feBlend mode="normal" in2="shape" result="effect1_innerShadow"/>
</filter>
<filter id="filter3_d" x="559.787" y="182.756" width="16.2646" height="33.2711" filterUnits="userSpaceOnUse" color-interpolation-filters="sRGB">
<feFlood flood-opacity="0" result="BackgroundImageFix"/>
<feColorMatrix in="SourceAlpha" type="matrix" values="0 0 0 0 0 0 0 0 0 0 0 0 0 0 0 0 0 0 127 0"/>
<feOffset dy="1"/>
<feGaussianBlur stdDeviation="1"/>
<feColorMatrix type="matrix" values="0 0 0 0 0 0 0 0 0 0 0 0 0 0 0 0 0 0 0.15 0"/>
<feBlend mode="normal" in2="BackgroundImageFix" result="effect1_dropShadow"/>
<feBlend mode="normal" in="SourceGraphic" in2="effect1_dropShadow" result="shape"/>
</filter>
<filter id="filter4_d" x="561.32" y="178.611" width="15.0524" height="13.5804" filterUnits="userSpaceOnUse" color-interpolation-filters="sRGB">
<feFlood flood-opacity="0" result="BackgroundImageFix"/>
<feColorMatrix in="SourceAlpha" type="matrix" values="0 0 0 0 0 0 0 0 0 0 0 0 0 0 0 0 0 0 127 0"/>
<feOffset dy="4"/>
<feGaussianBlur stdDeviation="2"/>
<feColorMatrix type="matrix" values="0 0 0 0 0 0 0 0 0 0 0 0 0 0 0 0 0 0 0.25 0"/>
<feBlend mode="normal" in2="BackgroundImageFix" result="effect1_dropShadow"/>
<feBlend mode="normal" in="SourceGraphic" in2="effect1_dropShadow" result="shape"/>
</filter>
<filter id="filter5_d" x="533.389" y="175.801" width="25.3655" height="56.6969" filterUnits="userSpaceOnUse" color-interpolation-filters="sRGB">
<feFlood flood-opacity="0" result="BackgroundImageFix"/>
<feColorMatrix in="SourceAlpha" type="matrix" values="0 0 0 0 0 0 0 0 0 0 0 0 0 0 0 0 0 0 127 0"/>
<feOffset dx="1" dy="2"/>
<feGaussianBlur stdDeviation="2"/>
<feColorMatrix type="matrix" values="0 0 0 0 0 0 0 0 0 0 0 0 0 0 0 0 0 0 0.15 0"/>
<feBlend mode="normal" in2="BackgroundImageFix" result="effect1_dropShadow"/>
<feBlend mode="normal" in="SourceGraphic" in2="effect1_dropShadow" result="shape"/>
</filter>
<filter id="filter6_d" x="579.141" y="178.89" width="24.0329" height="57.5975" filterUnits="userSpaceOnUse" color-interpolation-filters="sRGB">
<feFlood flood-opacity="0" result="BackgroundImageFix"/>
<feColorMatrix in="SourceAlpha" type="matrix" values="0 0 0 0 0 0 0 0 0 0 0 0 0 0 0 0 0 0 127 0"/>
<feOffset dx="1" dy="4"/>
<feGaussianBlur stdDeviation="2"/>
<feColorMatrix type="matrix" values="0 0 0 0 0 0 0 0 0 0 0 0 0 0 0 0 0 0 0.15 0"/>
<feBlend mode="normal" in2="BackgroundImageFix" result="effect1_dropShadow"/>
<feBlend mode="normal" in="SourceGraphic" in2="effect1_dropShadow" result="shape"/>
</filter>
<filter id="filter7_i" x="593.203" y="145" width="55.8794" height="100.467" filterUnits="userSpaceOnUse" color-interpolation-filters="sRGB">
<feFlood flood-opacity="0" result="BackgroundImageFix"/>
<feBlend mode="normal" in="SourceGraphic" in2="BackgroundImageFix" result="shape"/>
<feColorMatrix in="SourceAlpha" type="matrix" values="0 0 0 0 0 0 0 0 0 0 0 0 0 0 0 0 0 0 127 0" result="hardAlpha"/>
<feOffset dy="1"/>
<feGaussianBlur stdDeviation="2"/>
<feComposite in2="hardAlpha" operator="arithmetic" k2="-1" k3="1"/>
<feColorMatrix type="matrix" values="0 0 0 0 0 0 0 0 0 0 0 0 0 0 0 0 0 0 0.15 0"/>
<feBlend mode="normal" in2="shape" result="effect1_innerShadow"/>
</filter>
<filter id="filter8_i" x="597.527" y="135" width="57.7431" height="100.678" filterUnits="userSpaceOnUse" color-interpolation-filters="sRGB">
<feFlood flood-opacity="0" result="BackgroundImageFix"/>
<feBlend mode="normal" in="SourceGraphic" in2="BackgroundImageFix" result="shape"/>
<feColorMatrix in="SourceAlpha" type="matrix" values="0 0 0 0 0 0 0 0 0 0 0 0 0 0 0 0 0 0 127 0" result="hardAlpha"/>
<feOffset dx="10" dy="-10"/>
<feGaussianBlur stdDeviation="10"/>
<feComposite in2="hardAlpha" operator="arithmetic" k2="-1" k3="1"/>
<feColorMatrix type="matrix" values="0 0 0 0 0 0 0 0 0 0 0 0 0 0 0 0 0 0 0.12 0"/>
<feBlend mode="normal" in2="shape" result="effect1_innerShadow"/>
</filter>
<filter id="filter9_i" x="623.965" y="157.353" width="13.5847" height="17.5929" filterUnits="userSpaceOnUse" color-interpolation-filters="sRGB">
<feFlood flood-opacity="0" result="BackgroundImageFix"/>
<feBlend mode="normal" in="SourceGraphic" in2="BackgroundImageFix" result="shape"/>
<feColorMatrix in="SourceAlpha" type="matrix" values="0 0 0 0 0 0 0 0 0 0 0 0 0 0 0 0 0 0 127 0" result="hardAlpha"/>
<feOffset dy="4"/>
<feGaussianBlur stdDeviation="2"/>
<feComposite in2="hardAlpha" operator="arithmetic" k2="-1" k3="1"/>
<feColorMatrix type="matrix" values="0 0 0 0 0 0 0 0 0 0 0 0 0 0 0 0 0 0 0.15 0"/>
<feBlend mode="normal" in2="shape" result="effect1_innerShadow"/>
</filter>
<filter id="filter10_i" x="606.674" y="157.353" width="13.5847" height="17.5929" filterUnits="userSpaceOnUse" color-interpolation-filters="sRGB">
<feFlood flood-opacity="0" result="BackgroundImageFix"/>
<feBlend mode="normal" in="SourceGraphic" in2="BackgroundImageFix" result="shape"/>
<feColorMatrix in="SourceAlpha" type="matrix" values="0 0 0 0 0 0 0 0 0 0 0 0 0 0 0 0 0 0 127 0" result="hardAlpha"/>
<feOffset dy="4"/>
<feGaussianBlur stdDeviation="2"/>
<feComposite in2="hardAlpha" operator="arithmetic" k2="-1" k3="1"/>
<feColorMatrix type="matrix" values="0 0 0 0 0 0 0 0 0 0 0 0 0 0 0 0 0 0 0.15 0"/>
<feBlend mode="normal" in2="shape" result="effect1_innerShadow"/>
</filter>
<filter id="filter11_i" x="583.158" y="193.442" width="29.4763" height="57.5254" filterUnits="userSpaceOnUse" color-interpolation-filters="sRGB">
<feFlood flood-opacity="0" result="BackgroundImageFix"/>
<feBlend mode="normal" in="SourceGraphic" in2="BackgroundImageFix" result="shape"/>
<feColorMatrix in="SourceAlpha" type="matrix" values="0 0 0 0 0 0 0 0 0 0 0 0 0 0 0 0 0 0 127 0" result="hardAlpha"/>
<feOffset dx="2" dy="-4"/>
<feGaussianBlur stdDeviation="2.5"/>
<feComposite in2="hardAlpha" operator="arithmetic" k2="-1" k3="1"/>
<feColorMatrix type="matrix" values="0 0 0 0 0 0 0 0 0 0 0 0 0 0 0 0 0 0 0.12 0"/>
<feBlend mode="normal" in2="shape" result="effect1_innerShadow"/>
</filter>
<filter id="filter12_i" x="589.35" y="203.97" width="7.0462" height="10.7718" filterUnits="userSpaceOnUse" color-interpolation-filters="sRGB">
<feFlood flood-opacity="0" result="BackgroundImageFix"/>
<feBlend mode="normal" in="SourceGraphic" in2="BackgroundImageFix" result="shape"/>
<feColorMatrix in="SourceAlpha" type="matrix" values="0 0 0 0 0 0 0 0 0 0 0 0 0 0 0 0 0 0 127 0" result="hardAlpha"/>
<feOffset dy="4"/>
<feGaussianBlur stdDeviation="2"/>
<feComposite in2="hardAlpha" operator="arithmetic" k2="-1" k3="1"/>
<feColorMatrix type="matrix" values="0 0 0 0 0 0 0 0 0 0 0 0 0 0 0 0 0 0 0.15 0"/>
<feBlend mode="normal" in2="shape" result="effect1_innerShadow"/>
</filter>
<filter id="filter13_i" x="598.305" y="204.431" width="7.0462" height="10.7718" filterUnits="userSpaceOnUse" color-interpolation-filters="sRGB">
<feFlood flood-opacity="0" result="BackgroundImageFix"/>
<feBlend mode="normal" in="SourceGraphic" in2="BackgroundImageFix" result="shape"/>
<feColorMatrix in="SourceAlpha" type="matrix" values="0 0 0 0 0 0 0 0 0 0 0 0 0 0 0 0 0 0 127 0" result="hardAlpha"/>
<feOffset dy="4"/>
<feGaussianBlur stdDeviation="2"/>
<feComposite in2="hardAlpha" operator="arithmetic" k2="-1" k3="1"/>
<feColorMatrix type="matrix" values="0 0 0 0 0 0 0 0 0 0 0 0 0 0 0 0 0 0 0.15 0"/>
<feBlend mode="normal" in2="shape" result="effect1_innerShadow"/>
</filter>
<filter id="filter14_i" x="205" y="0.276123" width="151.998" height="294.547" filterUnits="userSpaceOnUse" color-interpolation-filters="sRGB">
<feFlood flood-opacity="0" result="BackgroundImageFix"/>
<feBlend mode="normal" in="SourceGraphic" in2="BackgroundImageFix" result="shape"/>
<feColorMatrix in="SourceAlpha" type="matrix" values="0 0 0 0 0 0 0 0 0 0 0 0 0 0 0 0 0 0 127 0" result="hardAlpha"/>
<feOffset dy="4"/>
<feGaussianBlur stdDeviation="2"/>
<feComposite in2="hardAlpha" operator="arithmetic" k2="-1" k3="1"/>
<feColorMatrix type="matrix" values="0 0 0 0 0 0 0 0 0 0 0 0 0 0 0 0 0 0 0.25 0"/>
<feBlend mode="normal" in2="shape" result="effect1_innerShadow"/>
</filter>
<filter id="filter15_i" x="224.543" y="-14.7239" width="147.455" height="305.547" filterUnits="userSpaceOnUse" color-interpolation-filters="sRGB">
<feFlood flood-opacity="0" result="BackgroundImageFix"/>
<feBlend mode="normal" in="SourceGraphic" in2="BackgroundImageFix" result="shape"/>
<feColorMatrix in="SourceAlpha" type="matrix" values="0 0 0 0 0 0 0 0 0 0 0 0 0 0 0 0 0 0 127 0" result="hardAlpha"/>
<feOffset dx="21" dy="-21"/>
<feGaussianBlur stdDeviation="7.5"/>
<feComposite in2="hardAlpha" operator="arithmetic" k2="-1" k3="1"/>
<feColorMatrix type="matrix" values="0 0 0 0 0 0 0 0 0 0 0 0 0 0 0 0 0 0 0.12 0"/>
<feBlend mode="normal" in2="shape" result="effect1_innerShadow"/>
</filter>
<filter id="filter16_d" x="279.074" y="96.9935" width="95.9491" height="98.5637" filterUnits="userSpaceOnUse" color-interpolation-filters="sRGB">
<feFlood flood-opacity="0" result="BackgroundImageFix"/>
<feColorMatrix in="SourceAlpha" type="matrix" values="0 0 0 0 0 0 0 0 0 0 0 0 0 0 0 0 0 0 127 0"/>
<feOffset dy="4"/>
<feGaussianBlur stdDeviation="2"/>
<feColorMatrix type="matrix" values="0 0 0 0 0 0 0 0 0 0 0 0 0 0 0 0 0 0 0.15 0"/>
<feBlend mode="normal" in2="BackgroundImageFix" result="effect1_dropShadow"/>
<feBlend mode="normal" in="SourceGraphic" in2="effect1_dropShadow" result="shape"/>
</filter>
<filter id="filter17_i" x="245.906" y="34.4581" width="37.6002" height="39.6002" filterUnits="userSpaceOnUse" color-interpolation-filters="sRGB">
<feFlood flood-opacity="0" result="BackgroundImageFix"/>
<feBlend mode="normal" in="SourceGraphic" in2="BackgroundImageFix" result="shape"/>
<feColorMatrix in="SourceAlpha" type="matrix" values="0 0 0 0 0 0 0 0 0 0 0 0 0 0 0 0 0 0 127 0" result="hardAlpha"/>
<feOffset dy="2"/>
<feGaussianBlur stdDeviation="2"/>
<feComposite in2="hardAlpha" operator="arithmetic" k2="-1" k3="1"/>
<feColorMatrix type="matrix" values="0 0 0 0 0 0 0 0 0 0 0 0 0 0 0 0 0 0 0.15 0"/>
<feBlend mode="normal" in2="shape" result="effect1_innerShadow"/>
</filter>
<filter id="filter18_i" x="293.762" y="34.4581" width="37.6002" height="39.6002" filterUnits="userSpaceOnUse" color-interpolation-filters="sRGB">
<feFlood flood-opacity="0" result="BackgroundImageFix"/>
<feBlend mode="normal" in="SourceGraphic" in2="BackgroundImageFix" result="shape"/>
<feColorMatrix in="SourceAlpha" type="matrix" values="0 0 0 0 0 0 0 0 0 0 0 0 0 0 0 0 0 0 127 0" result="hardAlpha"/>
<feOffset dy="2"/>
<feGaussianBlur stdDeviation="2"/>
<feComposite in2="hardAlpha" operator="arithmetic" k2="-1" k3="1"/>
<feColorMatrix type="matrix" values="0 0 0 0 0 0 0 0 0 0 0 0 0 0 0 0 0 0 0.15 0"/>
<feBlend mode="normal" in2="shape" result="effect1_innerShadow"/>
</filter>
<filter id="filter19_d" x="202" y="109.22" width="65.7715" height="138.678" filterUnits="userSpaceOnUse" color-interpolation-filters="sRGB">
<feFlood flood-opacity="0" result="BackgroundImageFix"/>
<feColorMatrix in="SourceAlpha" type="matrix" values="0 0 0 0 0 0 0 0 0 0 0 0 0 0 0 0 0 0 127 0"/>
<feOffset dx="1" dy="4"/>
<feGaussianBlur stdDeviation="2"/>
<feColorMatrix type="matrix" values="0 0 0 0 0 0 0 0 0 0 0 0 0 0 0 0 0 0 0.15 0"/>
<feBlend mode="normal" in2="BackgroundImageFix" result="effect1_dropShadow"/>
<feBlend mode="normal" in="SourceGraphic" in2="effect1_dropShadow" result="shape"/>
</filter>
<clipPath id="clip0">
<rect width="56.0112" height="118.053" fill="white" transform="matrix(-0.998682 -0.0513236 -0.0513236 0.998682 600.102 135.24)"/>
</clipPath>
<clipPath id="clip1">
<rect width="24.8238" height="52.3203" fill="white" transform="matrix(-0.998682 -0.0513236 -0.0513236 0.998682 610.635 198.716)"/>
</clipPath>
<clipPath id="clip2">
<rect width="132.455" height="290.547" fill="white" transform="matrix(-1 0 0 1 356.998 0.276123)"/>
</clipPath>
</defs>
</svg>
