<svg width="484" height="498" viewBox="0 0 484 498" fill="none" xmlns="http://www.w3.org/2000/svg">
<path d="M-479.143 458.272H443.63C447.496 458.272 450.63 461.406 450.63 465.272C450.63 469.138 447.496 472.272 443.63 472.272H-479.143C-483.009 472.272 -486.143 469.138 -486.143 465.272C-486.143 461.406 -483.009 458.272 -479.143 458.272Z" fill="#F27500"/>
<path d="M-372.582 479.272L61.8587 461.429L-35.1423 456.581L-409.732 447.272L-461.328 461.429L-372.582 479.272Z" fill="#F27500"/>
<g filter="url(#filter0_i)">
<g clip-path="url(#clip0)" filter="url(#filter1_i)">
<path d="M75.8375 429.922C46.5166 405.17 26.9889 361.088 26.9889 310.821C26.9889 233.409 73.3084 170.657 130.436 170.657C187.563 170.657 233.883 233.409 233.883 310.821C233.883 360.265 214.987 403.716 186.46 428.673" fill="#FDE01B"/>
<path d="M132.494 241.885C188.327 241.885 233.588 196.671 233.588 140.897C233.588 85.1223 188.327 39.9083 132.494 39.9083C76.6613 39.9083 31.3999 85.1223 31.3999 140.897C31.3999 196.671 76.6613 241.885 132.494 241.885Z" fill="#FDE01B"/>
<path d="M203.679 212.477L218.501 199.595C218.662 199.461 218.773 199.278 218.82 199.074C218.866 198.87 218.844 198.657 218.757 198.467C218.67 198.277 218.523 198.121 218.339 198.022C218.155 197.923 217.943 197.887 217.737 197.92L215.619 198.229L225.912 188.769C226.067 188.626 226.171 188.435 226.206 188.228C226.241 188.02 226.207 187.806 226.108 187.62C226.009 187.434 225.851 187.285 225.658 187.198C225.466 187.111 225.25 187.09 225.045 187.138L221.869 187.902" fill="#FDEC77"/>
<path d="M58.7508 210.186L44.3256 196.789C44.1777 196.648 44.0793 196.462 44.0447 196.261C44.0101 196.059 44.0411 195.852 44.1334 195.669C44.2256 195.487 44.374 195.339 44.5569 195.247C44.7397 195.155 44.9473 195.124 45.1491 195.159L47.2518 195.54L37.2821 185.728C37.1308 185.58 37.0331 185.385 37.0045 185.175C36.9759 184.966 37.018 184.752 37.1241 184.569C37.2302 184.385 37.3943 184.243 37.5906 184.163C37.7869 184.083 38.0043 184.07 38.2085 184.127L41.3552 184.979" fill="#FDE01B"/>
<path d="M135.008 143.32L144.61 156.541C144.81 156.745 144.968 156.988 145.073 157.254C145.178 157.52 145.228 157.805 145.221 158.091C145.214 158.377 145.15 158.659 145.033 158.92C144.915 159.181 144.746 159.416 144.537 159.611L134.376 176.709C133.956 177.107 133.395 177.322 132.817 177.308C132.238 177.294 131.688 177.053 131.288 176.635L121.686 159.008C121.278 158.598 121.049 158.044 121.049 157.466C121.049 156.888 121.278 156.334 121.686 155.924L131.861 143.335C132.061 143.118 132.304 142.944 132.574 142.825C132.844 142.706 133.136 142.644 133.431 142.642C133.727 142.641 134.019 142.7 134.291 142.817C134.562 142.934 134.806 143.105 135.008 143.32Z" fill="#FDEC77"/>
<path d="M125.024 159.526C124.666 159.121 124.468 158.598 124.468 158.057C124.468 157.516 124.666 156.994 125.024 156.588C125.024 156.588 132.603 146.117 133.584 145.137C134.564 144.157 134.074 142.932 134.074 142.932C133.339 142.094 131.656 142.868 130.891 143.676L121.575 155.92C121.214 156.324 121.085 157.146 121.085 157.391C121.085 157.636 121.229 158.499 121.575 158.861C121.922 159.223 129.62 174.577 130.377 175.728C131.133 176.88 132.83 177.681 133.094 177.241C133.357 176.801 133.094 175.41 133.094 175.41C132.862 175.122 132.546 174.661 132.377 174.333L125.024 159.526Z" fill="#F2D405"/>
<g filter="url(#filter2_i)">
<path d="M170.985 149.577C187.241 149.577 200.419 136.398 200.419 120.142C200.419 103.886 187.241 90.7078 170.985 90.7078C154.729 90.7078 141.55 103.886 141.55 120.142C141.55 136.398 154.729 149.577 170.985 149.577Z" fill="white"/>
</g>
<path fill-rule="evenodd" clip-rule="evenodd" d="M178.021 101.19C176.364 100.666 174.599 100.383 172.769 100.383C163.163 100.383 155.375 108.17 155.375 117.776C155.375 127.382 163.163 135.169 172.769 135.169C182.374 135.169 190.162 127.382 190.162 117.776C190.162 114.712 189.369 111.833 187.978 109.333C186.954 111.713 184.587 113.379 181.831 113.379C178.136 113.379 175.141 110.384 175.141 106.69C175.141 104.411 176.281 102.398 178.021 101.19Z" fill="black"/>
<g filter="url(#filter3_i)">
<path d="M96.0608 149.577C112.317 149.577 125.495 136.398 125.495 120.142C125.495 103.886 112.317 90.7078 96.0608 90.7078C79.8047 90.7078 66.6264 103.886 66.6264 120.142C66.6264 136.398 79.8047 149.577 96.0608 149.577Z" fill="white"/>
</g>
<path d="M178.74 55.5519L219.045 96.4026C219.362 96.7215 219.764 96.9429 220.203 97.0405C220.643 97.1381 221.101 97.1077 221.523 96.9531C221.946 96.7985 222.315 96.5261 222.587 96.1681C222.86 95.8102 223.023 95.3818 223.059 94.9337V41.274C223.094 40.9101 223.042 40.5433 222.91 40.2026C222.777 39.862 222.567 39.5569 222.296 39.3116C222.025 39.0664 221.7 38.8877 221.347 38.7897C220.995 38.6918 220.625 38.6773 220.265 38.7474L179.99 51.5711C179.562 51.6412 179.163 51.8284 178.836 52.1119C178.509 52.3954 178.267 52.7641 178.137 53.1769C178.008 53.5897 177.995 54.0303 178.102 54.4497C178.208 54.869 178.429 55.2506 178.74 55.5519Z" fill="#FDE01B"/>
<path d="M191.019 58.0055L213.693 80.9647C213.867 81.1466 214.09 81.2743 214.335 81.3327C214.58 81.3911 214.837 81.3777 215.074 81.2939C215.312 81.2102 215.52 81.0597 215.674 80.8606C215.828 80.6615 215.922 80.4223 215.943 80.1715L215.458 47.6055C215.485 47.3969 215.463 47.1848 215.391 46.9867C215.32 46.7886 215.203 46.6104 215.049 46.4667C214.895 46.323 214.709 46.2182 214.507 46.1607C214.304 46.1033 214.091 46.095 213.884 46.1366L191.695 55.7433C191.454 55.7864 191.229 55.8955 191.046 56.0584C190.864 56.2214 190.73 56.4319 190.66 56.6664C190.59 56.9009 190.586 57.1503 190.649 57.3867C190.713 57.6231 190.84 57.8374 191.019 58.0055Z" fill="black"/>
<path d="M84.6893 55.6256L44.3252 96.4617C44.0099 96.7822 43.6087 97.0051 43.1698 97.1036C42.7309 97.202 42.2729 97.1719 41.8507 97.0169C41.4285 96.8618 41.06 96.5884 40.7895 96.2294C40.5189 95.8703 40.3579 95.441 40.3256 94.9928V41.3331C40.2881 40.9685 40.3371 40.6001 40.4685 40.258C40.6 39.9158 40.8102 39.6093 41.0822 39.3633C41.3542 39.1173 41.6804 38.9387 42.0343 38.842C42.3882 38.7453 42.7599 38.7331 43.1194 38.8065L83.3953 51.6302C83.8293 51.6915 84.2373 51.8734 84.5727 52.1552C84.9082 52.4369 85.1577 52.8073 85.2926 53.2239C85.4275 53.6404 85.4425 54.0865 85.3358 54.5112C85.2291 54.9359 85.0051 55.322 84.6893 55.6256Z" fill="#FDE01B"/>
<path d="M72.4107 58.1228L49.7363 81.038C49.5622 81.2198 49.3392 81.3476 49.0942 81.406C48.8492 81.4644 48.5925 81.4509 48.3549 81.3672C48.1174 81.2834 47.9091 81.133 47.755 80.9339C47.601 80.7348 47.5078 80.4955 47.4865 80.2448L47.957 47.6788C47.9294 47.4702 47.9522 47.2581 48.0232 47.06C48.0942 46.8619 48.2116 46.6836 48.3654 46.54C48.5193 46.3963 48.7053 46.2914 48.9079 46.234C49.1105 46.1766 49.3239 46.1683 49.5304 46.2099L71.7344 55.8166C71.9886 55.8472 72.2283 55.9517 72.4237 56.1171C72.6191 56.2824 72.7616 56.5014 72.8336 56.7469C72.9056 56.9925 72.904 57.2537 72.8288 57.4982C72.7536 57.7428 72.6082 57.96 72.4107 58.1228Z" fill="black"/>
<path d="M135.729 39.9669L155.359 39.2912C155.564 39.2868 155.764 39.3481 155.931 39.4659C156.098 39.5838 156.223 39.7522 156.287 39.9461C156.351 40.1401 156.352 40.3496 156.288 40.5437C156.224 40.7378 156.1 40.9063 155.933 41.0245L154.183 42.2437L168.167 42.1409C168.381 42.1349 168.592 42.2013 168.764 42.3292C168.936 42.4571 169.06 42.6391 169.116 42.846C169.172 43.0529 169.157 43.2726 169.073 43.4698C168.989 43.667 168.84 43.8301 168.652 43.933L165.814 45.5341" fill="#FDE01B"/>
<path d="M97.4236 46.1659L116.79 37.793C116.984 37.7133 117.2 37.7 117.403 37.7552C117.607 37.8105 117.786 37.9313 117.913 38.0988C118.041 38.2662 118.109 38.471 118.108 38.6813C118.107 38.8917 118.036 39.0958 117.907 39.262L116.378 41.2009" fill="#F27500"/>
<path d="M97.4236 46.1653L116.79 37.7925C116.984 37.7127 117.2 37.6994 117.403 37.7547C117.607 37.81 117.786 37.9308 117.913 38.0982C118.041 38.2657 118.109 38.4705 118.108 38.6808C118.107 38.8911 118.036 39.0953 117.907 39.2614L116.378 41.2004" fill="#FDE01B"/>
<path d="M118.304 40.9219L137.596 37.2202C137.796 37.1858 138.002 37.2159 138.184 37.3061C138.365 37.3963 138.514 37.5419 138.607 37.7219C138.7 37.9018 138.734 38.1068 138.703 38.3071C138.672 38.5074 138.578 38.6926 138.434 38.836L136.964 40.3049" fill="#FDE01B"/>
<path fill-rule="evenodd" clip-rule="evenodd" d="M104.634 101.254C102.919 100.689 101.087 100.383 99.1824 100.383C89.5765 100.383 81.7894 108.17 81.7894 117.776C81.7894 127.382 89.5765 135.169 99.1824 135.169C108.788 135.169 116.576 127.382 116.576 117.776C116.576 114.829 115.843 112.054 114.55 109.622C113.463 111.847 111.178 113.379 108.535 113.379C104.841 113.379 101.845 110.384 101.845 106.69C101.845 104.451 102.945 102.469 104.634 101.254Z" fill="black"/>
<ellipse cx="96.7298" cy="151.584" rx="23.4138" ry="12.7103" fill="#FDE01B"/>
<ellipse cx="174.33" cy="151.584" rx="28.7655" ry="12.7103" fill="#FDE01B"/>
<path d="M86.7755 302.846C93.1473 308.809 108.44 316.079 118.634 297.454C117.654 298.189 133.584 323.922 148.533 297.454C149.513 297.454 164.217 323.922 177.696 297.454" stroke="#FDEC77" stroke-width="4" stroke-linecap="round" stroke-linejoin="round"/>
<path d="M103.685 281.77C114.468 281.77 119.125 273.927 120.105 270.006C119.125 270.742 135.054 296.474 150.003 270.006C150.984 273.927 155.64 281.77 166.423 281.77" stroke="#FDEC77" stroke-width="4" stroke-linecap="round" stroke-linejoin="round"/>
<path d="M185.795 94.6768C191.527 93.9328 202.569 89.5453 200.877 77.9471" stroke="black" stroke-width="3.5" stroke-linecap="round" stroke-linejoin="round"/>
<path d="M192.051 98.1861C197.835 97.9011 209.154 94.4159 208.149 82.7546" stroke="black" stroke-width="3.5" stroke-linecap="round" stroke-linejoin="round"/>
<path d="M198.115 103.393C203.909 103.225 215.29 99.9729 214.461 88.3043" stroke="black" stroke-width="3.5" stroke-linecap="round" stroke-linejoin="round"/>
<path d="M83.114 93.1613C77.3195 92.4093 66.158 87.9743 67.8683 76.2506" stroke="black" stroke-width="3.5" stroke-linecap="round" stroke-linejoin="round"/>
<path d="M76.7907 96.7086C70.9432 96.4205 59.5021 92.8976 60.518 81.1101" stroke="black" stroke-width="3.5" stroke-linecap="round" stroke-linejoin="round"/>
<path d="M70.6601 101.972C64.8035 101.802 53.2997 98.5147 54.1377 86.7198" stroke="black" stroke-width="3.5" stroke-linecap="round" stroke-linejoin="round"/>
<path d="M144.853 159.674L134.862 177.025C134.032 177.538 132.084 178.016 130.939 175.833C129.795 173.649 124.367 163.053 121.797 158.029" stroke="#F35B84" stroke-width="2" stroke-linecap="round"/>
</g>
<path d="M189.895 459.869V448.633C189.895 444.572 186.602 441.28 182.541 441.28C178.48 441.28 175.188 444.572 175.188 448.633V459.869C175.188 463.93 178.48 467.222 182.541 467.222C186.602 467.222 189.895 463.93 189.895 459.869Z" fill="#FDE01B"/>
<path d="M176.659 459.869V448.633C176.659 444.572 173.367 441.28 169.306 441.28C165.245 441.28 161.953 444.572 161.953 448.633V459.869C161.953 463.93 165.245 467.222 169.306 467.222C173.367 467.222 176.659 463.93 176.659 459.869Z" fill="#FDE01B"/>
<path d="M163.423 460.398V449.162C163.423 445.101 160.131 441.809 156.07 441.809C152.009 441.809 148.717 445.101 148.717 449.162V460.398C148.717 464.459 152.009 467.751 156.07 467.751C160.131 467.751 163.423 464.459 163.423 460.398Z" fill="#FDE01B"/>
<path d="M119.467 458.707V447.471C119.467 443.41 116.174 440.118 112.113 440.118C108.052 440.118 104.76 443.41 104.76 447.471V458.707C104.76 462.768 108.052 466.06 112.113 466.06C116.174 466.06 119.467 462.768 119.467 458.707Z" fill="#FDE01B"/>
<path d="M106.231 458.707V447.471C106.231 443.41 102.939 440.118 98.8776 440.118C94.8165 440.118 91.5243 443.41 91.5243 447.471V458.707C91.5243 462.768 94.8165 466.06 98.8776 466.06C102.939 466.06 106.231 462.768 106.231 458.707Z" fill="#FDE01B"/>
<path d="M93.0099 459.236V448C93.0099 443.939 89.7177 440.647 85.6567 440.647C81.5956 440.647 78.3035 443.939 78.3035 448V459.236C78.3035 463.297 81.5956 466.589 85.6567 466.589C89.7177 466.589 93.0099 463.297 93.0099 459.236Z" fill="#FDE01B"/>
<path d="M178.67 422.29C178.67 419.55 174.334 417.33 168.986 417.33C163.637 417.33 159.301 419.55 159.301 422.29V446.707C159.301 449.446 163.637 451.666 168.986 451.666C174.334 451.666 178.67 449.446 178.67 446.707V422.29Z" fill="#FDE01B"/>
<path d="M107.357 422.29C107.357 419.55 103.218 417.33 98.1122 417.33C93.0067 417.33 88.8678 419.55 88.8678 422.29V446.707C88.8678 449.446 93.0067 451.666 98.1122 451.666C103.218 451.666 107.357 449.446 107.357 446.707V422.29Z" fill="#FDE01B"/>
<g filter="url(#filter4_d)">
<path d="M69.9238 315.255C62.444 351.466 45.3099 382.276 23.332 403.308C8.93182 374.247 4.04813 336.262 12.1562 296.97C19.6385 260.744 36.7701 229.949 58.7505 208.903C73.1412 237.933 78.0394 275.92 69.9238 315.255Z" fill="#FDEC77"/>
</g>
<g filter="url(#filter5_d)">
<path d="M251.041 309.126C255.713 345.805 249.502 380.508 235.536 407.531C212.486 384.714 195.543 350.369 190.465 310.571C185.79 273.878 192.004 239.19 205.968 212.151C228.998 234.942 245.956 269.285 251.041 309.126Z" fill="#FDEC77"/>
</g>
</g>
<g filter="url(#filter6_i)">
<g clip-path="url(#clip1)" filter="url(#filter7_i)">
<path d="M306.532 429.481C274.502 402.443 253.171 354.288 253.171 299.378C253.171 214.815 303.769 146.265 366.174 146.265C428.579 146.265 479.177 214.815 479.177 299.378C479.177 353.39 458.536 400.854 427.374 428.117" fill="#3BDBA1"/>
<path d="M368.422 224.073C429.413 224.073 478.855 174.683 478.855 113.756C478.855 52.8291 429.413 3.43818 368.422 3.43818C307.432 3.43818 257.989 52.8291 257.989 113.756C257.989 174.683 307.432 224.073 368.422 224.073Z" fill="#3BDBA1"/>
<path d="M446.183 191.949L462.375 177.877C462.55 177.73 462.672 177.53 462.722 177.308C462.773 177.085 462.749 176.852 462.654 176.644C462.559 176.437 462.399 176.266 462.198 176.158C461.996 176.05 461.765 176.011 461.54 176.047L459.226 176.384L470.471 166.05C470.64 165.894 470.753 165.686 470.791 165.459C470.83 165.232 470.792 164.999 470.684 164.795C470.575 164.592 470.403 164.43 470.193 164.335C469.983 164.24 469.747 164.217 469.523 164.269L466.053 165.104" fill="#3BDBA1"/>
<path d="M287.867 189.446L272.109 174.811C271.947 174.657 271.84 174.455 271.802 174.234C271.764 174.014 271.798 173.788 271.899 173.588C272 173.389 272.162 173.227 272.362 173.127C272.561 173.026 272.788 172.992 273.008 173.03L275.305 173.447L264.415 162.729C264.249 162.567 264.143 162.354 264.111 162.125C264.08 161.896 264.126 161.663 264.242 161.462C264.358 161.262 264.537 161.106 264.752 161.018C264.966 160.931 265.204 160.917 265.427 160.98L268.864 161.91" fill="#3BDBA1"/>
<path d="M371.168 116.403L381.658 130.845C381.876 131.068 382.048 131.333 382.163 131.624C382.277 131.915 382.333 132.226 382.325 132.539C382.318 132.851 382.248 133.159 382.119 133.444C381.991 133.729 381.807 133.986 381.577 134.199L370.478 152.876C370.019 153.311 369.407 153.546 368.775 153.531C368.143 153.516 367.542 153.252 367.105 152.796L356.615 133.541C356.17 133.093 355.92 132.487 355.92 131.856C355.92 131.225 356.17 130.619 356.615 130.171L367.731 116.419C367.949 116.182 368.214 115.992 368.51 115.862C368.805 115.732 369.124 115.664 369.446 115.662C369.769 115.661 370.088 115.726 370.385 115.853C370.681 115.981 370.948 116.168 371.168 116.403Z" fill="#FDE01B"/>
<path d="M360.262 134.106C359.871 133.663 359.654 133.093 359.654 132.502C359.654 131.91 359.871 131.34 360.262 130.897C360.262 130.897 368.542 119.459 369.613 118.388C370.683 117.317 370.148 115.979 370.148 115.979C369.345 115.064 367.507 115.91 366.672 116.792L356.495 130.167C356.1 130.608 355.96 131.506 355.96 131.773C355.96 132.041 356.117 132.984 356.495 133.38C356.873 133.775 365.283 150.547 366.109 151.805C366.936 153.063 368.79 153.938 369.077 153.458C369.365 152.977 369.077 151.457 369.077 151.457C368.825 151.143 368.479 150.639 368.294 150.281L360.262 134.106Z" fill="#F2D405"/>
<g filter="url(#filter8_i)">
<path d="M410.153 123.307C427.911 123.307 442.307 108.912 442.307 91.1536C442.307 73.3957 427.911 59 410.153 59C392.395 59 378 73.3957 378 91.1536C378 108.912 392.395 123.307 410.153 123.307Z" fill="white"/>
</g>
<path fill-rule="evenodd" clip-rule="evenodd" d="M413.74 72.368C412.531 72.1266 411.28 72 410 72C399.507 72 391 80.5065 391 90.9999C391 101.493 399.507 110 410 110C420.493 110 429 101.493 429 90.9999C429 87.2818 427.932 83.8131 426.086 80.884C424.724 82.7715 422.505 84 420 84C415.858 84 412.5 80.6421 412.5 76.5C412.5 74.9731 412.956 73.5528 413.74 72.368Z" fill="black"/>
<g filter="url(#filter9_i)">
<path d="M328.154 123.307C345.912 123.307 360.307 108.912 360.307 91.1536C360.307 73.3957 345.912 59 328.154 59C310.396 59 296 73.3957 296 91.1536C296 108.912 310.396 123.307 328.154 123.307Z" fill="white"/>
</g>
<path d="M418.94 20.5269L462.969 65.1514C463.315 65.4998 463.754 65.7416 464.234 65.8482C464.714 65.9548 465.214 65.9217 465.676 65.7528C466.138 65.5839 466.541 65.2863 466.838 64.8953C467.136 64.5043 467.315 64.0363 467.354 63.5468V4.93002C467.391 4.53254 467.335 4.13182 467.191 3.75971C467.046 3.38759 466.816 3.05433 466.52 2.7864C466.224 2.51847 465.869 2.32329 465.484 2.2163C465.099 2.10931 464.694 2.09346 464.302 2.17007L420.305 16.1784C419.838 16.2549 419.402 16.4594 419.045 16.7691C418.687 17.0789 418.423 17.4816 418.282 17.9326C418.14 18.3835 418.127 18.8648 418.243 19.3229C418.359 19.781 418.6 20.1978 418.94 20.5269Z" fill="#3BDBA1"/>
<path d="M432.353 23.2072L457.122 48.2874C457.312 48.486 457.556 48.6256 457.824 48.6894C458.091 48.7532 458.372 48.7385 458.631 48.647C458.891 48.5555 459.118 48.3911 459.286 48.1736C459.455 47.9562 459.557 47.6948 459.58 47.4209L459.05 11.8465C459.08 11.6186 459.055 11.3869 458.978 11.1705C458.9 10.9541 458.772 10.7594 458.604 10.6024C458.436 10.4455 458.232 10.3309 458.011 10.2682C457.79 10.2055 457.557 10.1964 457.331 10.2418L433.092 20.7361C432.828 20.7831 432.583 20.9022 432.384 21.0803C432.184 21.2583 432.038 21.4882 431.961 21.7444C431.884 22.0006 431.881 22.273 431.95 22.5312C432.019 22.7895 432.159 23.0235 432.353 23.2072Z" fill="black"/>
<path d="M316.201 20.6075L272.108 65.2159C271.764 65.5661 271.326 65.8095 270.846 65.9171C270.367 66.0246 269.866 65.9917 269.405 65.8224C268.944 65.653 268.542 65.3543 268.246 64.9621C267.951 64.5699 267.775 64.1009 267.739 63.6113V4.99453C267.698 4.59624 267.752 4.1939 267.895 3.8201C268.039 3.4463 268.269 3.11153 268.566 2.84282C268.863 2.57412 269.219 2.37903 269.606 2.27336C269.992 2.16769 270.399 2.15443 270.791 2.23458L314.788 16.2429C315.262 16.3098 315.708 16.5085 316.074 16.8164C316.44 17.1242 316.713 17.5287 316.86 17.9838C317.008 18.4389 317.024 18.9261 316.908 19.39C316.791 19.8539 316.546 20.2758 316.201 20.6075Z" fill="#3BDBA1"/>
<path d="M302.788 23.3353L278.019 48.3674C277.829 48.5661 277.586 48.7057 277.318 48.7695C277.05 48.8332 276.77 48.8185 276.51 48.727C276.251 48.6355 276.023 48.4711 275.855 48.2537C275.687 48.0362 275.585 47.7748 275.562 47.5009L276.076 11.9265C276.046 11.6986 276.07 11.4669 276.148 11.2505C276.226 11.0342 276.354 10.8394 276.522 10.6825C276.69 10.5256 276.893 10.4109 277.114 10.3482C277.336 10.2855 277.569 10.2765 277.794 10.3219L302.05 20.8161C302.327 20.8495 302.589 20.9637 302.803 21.1443C303.016 21.325 303.172 21.5642 303.25 21.8324C303.329 22.1006 303.327 22.3859 303.245 22.653C303.163 22.9202 303.004 23.1574 302.788 23.3353Z" fill="black"/>
<path d="M371.955 3.50217L393.4 2.76401C393.623 2.75923 393.842 2.82616 394.024 2.95494C394.207 3.08372 394.343 3.2676 394.413 3.4795C394.483 3.6914 394.484 3.92017 394.414 4.13221C394.344 4.34424 394.208 4.52832 394.026 4.65745L392.115 5.98931L407.39 5.87698C407.625 5.87048 407.854 5.94293 408.042 6.08265C408.231 6.22237 408.366 6.42124 408.427 6.64726C408.488 6.87328 408.472 7.11329 408.38 7.32867C408.288 7.54404 408.126 7.72225 407.92 7.83462L404.82 9.58364" fill="#3BDBA1"/>
<path d="M330.112 10.2738L351.267 1.12749C351.48 1.04034 351.715 1.02582 351.937 1.08621C352.159 1.1466 352.355 1.27852 352.494 1.46146C352.633 1.64439 352.708 1.86809 352.707 2.09786C352.706 2.32763 352.629 2.5506 352.488 2.73211L350.817 4.85022" fill="#F27500"/>
<path d="M330.112 10.2732L351.267 1.12685C351.48 1.0397 351.715 1.02518 351.937 1.08557C352.159 1.14596 352.355 1.27788 352.494 1.46082C352.633 1.64375 352.708 1.86745 352.707 2.09722C352.706 2.32699 352.629 2.54996 352.488 2.73147L350.817 4.84958" fill="#3BDBA1"/>
<path d="M352.921 4.54538L373.996 0.501702C374.214 0.464178 374.439 0.497097 374.637 0.595624C374.836 0.694152 374.998 0.85319 375.1 1.04976C375.202 1.24634 375.239 1.47021 375.205 1.68901C375.171 1.9078 375.068 2.11017 374.911 2.26679L373.305 3.87141" fill="#3BDBA1"/>
<path fill-rule="evenodd" clip-rule="evenodd" d="M331.989 72.2338C331.015 72.0799 330.017 72 329 72C318.507 72 310 80.5065 310 90.9999C310 101.493 318.507 110 329 110C339.493 110 348 101.493 348 90.9999C348 86.89 346.695 83.085 344.477 79.9764C343.256 82.3682 340.813 84 338 84C333.964 84 330.692 80.6421 330.692 76.5C330.692 74.915 331.171 73.4449 331.989 72.2338Z" fill="black"/>
<path d="M438.644 127.43C438.644 128.844 437.997 130.23 436.75 131.533C435.5 132.839 433.668 134.037 431.365 135.054C426.762 137.089 420.367 138.36 413.276 138.36C406.186 138.36 399.791 137.089 395.188 135.054C392.885 134.037 391.053 132.839 389.803 131.533C388.556 130.23 387.909 128.844 387.909 127.43C387.909 126.015 388.556 124.63 389.803 123.327C391.053 122.021 392.885 120.822 395.188 119.805C399.791 117.771 406.186 116.5 413.276 116.5C420.367 116.5 426.762 117.771 431.365 119.805C433.668 120.822 435.5 122.021 436.75 123.327C437.997 124.63 438.644 126.015 438.644 127.43Z" fill="#3BDBA1" stroke="#3BDBA1"/>
<path d="M351.235 127.43C351.235 128.844 350.588 130.23 349.341 131.533C348.091 132.839 346.259 134.037 343.956 135.054C339.353 137.089 332.958 138.36 325.867 138.36C318.777 138.36 312.382 137.089 307.778 135.054C305.476 134.037 303.644 132.839 302.394 131.533C301.147 130.23 300.5 128.844 300.5 127.43C300.5 126.015 301.147 124.63 302.394 123.327C303.644 122.021 305.476 120.822 307.778 119.805C312.382 117.771 318.777 116.5 325.867 116.5C332.958 116.5 339.353 117.771 343.956 119.805C346.259 120.822 348.091 122.021 349.341 123.327C350.588 124.63 351.235 126.015 351.235 127.43Z" fill="#3BDBA1" stroke="#3BDBA1"/>
<path d="M318.48 290.666C325.441 297.18 342.146 305.122 353.282 284.776C352.212 285.579 369.613 313.688 385.943 284.776C387.014 284.776 403.076 313.688 417.8 284.776" stroke="#43EDB0" stroke-width="4" stroke-linecap="round" stroke-linejoin="round"/>
<g filter="url(#filter10_d)">
<path d="M476.07 252.05C477.016 276.582 450.683 289.108 448.632 290.699C430.873 273.511 434.1 294.025 431.154 264.437C428.444 237.157 434.636 211.642 446.531 191.734C464.276 208.902 473.12 222.43 476.07 252.05Z" fill="#43EDB0"/>
</g>
</g>
<g filter="url(#filter11_d)">
<path d="M245.884 263.862C246.773 290.586 242.226 276.409 245.884 334.967C270.262 316.554 297.748 286.181 296.793 257.184C295.904 230.449 306.233 208.456 284.03 190.302C259.67 208.694 244.929 234.833 245.884 263.862Z" fill="#43EDB0"/>
</g>
<path d="M431.104 461.95V449.677C431.104 445.241 427.508 441.644 423.072 441.644C418.635 441.644 415.039 445.241 415.039 449.677V461.95C415.039 466.387 418.635 469.983 423.072 469.983C427.508 469.983 431.104 466.387 431.104 461.95Z" fill="#FDE01B"/>
<path d="M416.646 461.95V449.677C416.646 445.241 413.049 441.644 408.613 441.644C404.177 441.644 400.581 445.241 400.581 449.677V461.95C400.581 466.387 404.177 469.983 408.613 469.983C413.049 469.983 416.646 466.387 416.646 461.95Z" fill="#FDE01B"/>
<path d="M402.187 462.529V450.255C402.187 445.819 398.591 442.223 394.155 442.223C389.719 442.223 386.122 445.819 386.122 450.255V462.529C386.122 466.965 389.719 470.561 394.155 470.561C398.591 470.561 402.187 466.965 402.187 462.529Z" fill="#FDE01B"/>
<path d="M354.17 460.681V448.407C354.17 443.971 350.573 440.375 346.137 440.375C341.701 440.375 338.105 443.971 338.105 448.407V460.681C338.105 465.117 341.701 468.714 346.137 468.714C350.573 468.714 354.17 465.117 354.17 460.681Z" fill="#FDE01B"/>
<path d="M339.711 460.681V448.407C339.711 443.971 336.115 440.375 331.679 440.375C327.243 440.375 323.646 443.971 323.646 448.407V460.681C323.646 465.117 327.243 468.714 331.679 468.714C336.115 468.714 339.711 465.117 339.711 460.681Z" fill="#FDE01B"/>
<path d="M325.269 461.259V448.985C325.269 444.549 321.672 440.953 317.236 440.953C312.8 440.953 309.204 444.549 309.204 448.985V461.259C309.204 465.695 312.8 469.292 317.236 469.292C321.672 469.292 325.269 465.695 325.269 461.259Z" fill="#FDE01B"/>
<path d="M418.843 420.9C418.843 417.907 414.106 415.482 408.264 415.482C402.421 415.482 397.684 417.907 397.684 420.9V447.572C397.684 450.564 402.421 452.99 408.264 452.99C414.106 452.99 418.843 450.564 418.843 447.572V420.9Z" fill="#FDE01B"/>
<path d="M340.942 420.9C340.942 417.907 336.42 415.482 330.843 415.482C325.266 415.482 320.745 417.907 320.745 420.9V447.572C320.745 450.564 325.266 452.99 330.843 452.99C336.42 452.99 340.942 450.564 340.942 447.572V420.9Z" fill="#FDE01B"/>
<g filter="url(#filter12_d)">
<path d="M391.359 303.175L379.988 212.374L369.286 212.393L359.07 212.374L347.666 303.174L369.406 333.41L380.271 318.583L391.359 303.175Z" fill="#EB3F6D"/>
</g>
<g filter="url(#filter13_d)">
<path d="M380.182 212.296L383.022 190.291L355.55 190.245L358.836 212.296H380.182Z" fill="#EB3F6D"/>
</g>
</g>
<g clip-path="url(#clip2)" filter="url(#filter14_i)">
<path d="M201.87 440.085C181.781 423.126 168.401 392.922 168.401 358.482C168.401 305.442 200.138 262.446 239.279 262.446C278.421 262.446 310.157 305.442 310.157 358.482C310.157 392.359 297.211 422.13 277.665 439.229" fill="#F27500"/>
<path d="M240.689 311.249C278.944 311.249 309.955 280.27 309.955 242.055C309.955 203.841 278.944 172.862 240.689 172.862C202.435 172.862 171.424 203.841 171.424 242.055C171.424 280.27 202.435 311.249 240.689 311.249Z" fill="#F27500"/>
<path d="M289.463 291.1L299.618 282.273C299.728 282.181 299.805 282.056 299.836 281.916C299.868 281.777 299.853 281.631 299.793 281.5C299.734 281.37 299.633 281.263 299.507 281.196C299.381 281.128 299.236 281.103 299.094 281.126L297.644 281.337L304.696 274.856C304.802 274.758 304.873 274.627 304.897 274.485C304.921 274.342 304.898 274.196 304.83 274.068C304.762 273.941 304.654 273.839 304.522 273.78C304.39 273.72 304.243 273.706 304.102 273.739L301.926 274.262" fill="#F27500"/>
<path d="M190.163 289.53L180.28 280.351C180.178 280.254 180.111 280.127 180.087 279.989C180.064 279.851 180.085 279.709 180.148 279.584C180.211 279.459 180.313 279.357 180.438 279.294C180.563 279.231 180.706 279.21 180.844 279.234L182.285 279.495L175.454 272.772C175.35 272.671 175.283 272.537 175.264 272.394C175.244 272.25 175.273 272.104 175.346 271.978C175.418 271.852 175.531 271.754 175.665 271.7C175.8 271.645 175.949 271.636 176.089 271.675L178.245 272.259" fill="#F27500"/>
<path d="M242.412 243.716L248.991 252.774C249.128 252.914 249.236 253.081 249.308 253.263C249.38 253.445 249.414 253.64 249.41 253.836C249.405 254.032 249.361 254.226 249.28 254.404C249.2 254.583 249.084 254.744 248.941 254.878L241.979 266.593C241.691 266.865 241.307 267.013 240.91 267.003C240.514 266.994 240.137 266.828 239.863 266.542L233.284 254.465C233.005 254.184 232.848 253.804 232.848 253.408C232.848 253.012 233.005 252.632 233.284 252.351L240.256 243.726C240.393 243.577 240.559 243.458 240.744 243.377C240.929 243.295 241.129 243.252 241.332 243.251C241.534 243.25 241.734 243.291 241.92 243.371C242.106 243.451 242.273 243.569 242.412 243.716Z" fill="#FDE01B"/>
<path d="M235.571 254.82C235.326 254.542 235.19 254.184 235.19 253.813C235.19 253.442 235.326 253.085 235.571 252.807C235.571 252.807 240.764 245.633 241.436 244.961C242.108 244.289 241.772 243.45 241.772 243.45C241.268 242.876 240.115 243.406 239.591 243.96L233.208 252.349C232.96 252.626 232.872 253.189 232.872 253.357C232.872 253.524 232.971 254.116 233.208 254.364C233.446 254.612 238.721 265.132 239.239 265.921C239.757 266.71 240.92 267.259 241.1 266.957C241.281 266.656 241.1 265.702 241.1 265.702C240.942 265.505 240.725 265.189 240.609 264.965L235.571 254.82Z" fill="#F2D405"/>
<g filter="url(#filter15_i)">
<path d="M267.439 247.648C278.577 247.648 287.606 238.694 287.606 227.648C287.606 216.602 278.577 207.648 267.439 207.648C256.301 207.648 247.271 216.602 247.271 227.648C247.271 238.694 256.301 247.648 267.439 247.648Z" fill="white"/>
</g>
<path fill-rule="evenodd" clip-rule="evenodd" d="M272.551 213.716C272.131 213.671 271.704 213.648 271.271 213.648C264.644 213.648 259.271 219.021 259.271 225.648C259.271 232.276 264.644 237.648 271.271 237.648C277.899 237.648 283.271 232.276 283.271 225.648C283.271 222.094 281.726 218.901 279.271 216.703C279.241 218.887 277.462 220.648 275.271 220.648C273.062 220.648 271.271 218.857 271.271 216.648C271.271 215.49 271.764 214.446 272.551 213.716Z" fill="black"/>
<g filter="url(#filter16_i)">
<path d="M215.439 247.983C226.577 247.983 235.606 238.954 235.606 227.816C235.606 216.677 226.577 207.648 215.439 207.648C204.301 207.648 195.271 216.677 195.271 227.816C195.271 238.954 204.301 247.983 215.439 247.983Z" fill="white"/>
</g>
<path d="M272.375 183.58L299.991 211.57C300.208 211.788 300.484 211.94 300.785 212.007C301.086 212.074 301.399 212.053 301.689 211.947C301.978 211.841 302.231 211.654 302.418 211.409C302.604 211.164 302.717 210.87 302.741 210.563V173.798C302.765 173.548 302.73 173.297 302.639 173.064C302.548 172.83 302.404 172.621 302.218 172.453C302.032 172.285 301.81 172.163 301.568 172.096C301.327 172.029 301.073 172.019 300.827 172.067L273.232 180.853C272.939 180.901 272.665 181.029 272.441 181.223C272.217 181.418 272.051 181.67 271.962 181.953C271.873 182.236 271.865 182.538 271.938 182.825C272.011 183.113 272.162 183.374 272.375 183.58Z" fill="#F27500"/>
<path d="M280.788 185.262L296.324 200.992C296.443 201.117 296.596 201.205 296.764 201.245C296.932 201.285 297.108 201.275 297.27 201.218C297.433 201.161 297.576 201.057 297.681 200.921C297.787 200.785 297.851 200.621 297.866 200.449L297.533 178.136C297.552 177.993 297.536 177.848 297.488 177.712C297.439 177.576 297.359 177.454 297.253 177.356C297.148 177.257 297.02 177.185 296.881 177.146C296.743 177.107 296.596 177.101 296.455 177.129L281.252 183.712C281.086 183.741 280.933 183.816 280.807 183.928C280.682 184.039 280.59 184.183 280.542 184.344C280.494 184.505 280.492 184.676 280.535 184.838C280.579 185 280.666 185.146 280.788 185.262Z" fill="black"/>
<path d="M207.936 183.631L180.28 211.61C180.063 211.83 179.789 211.983 179.488 212.05C179.187 212.118 178.873 212.097 178.584 211.991C178.295 211.884 178.042 211.697 177.857 211.451C177.672 211.205 177.561 210.911 177.539 210.604V173.838C177.513 173.588 177.547 173.336 177.637 173.102C177.727 172.867 177.871 172.657 178.058 172.489C178.244 172.32 178.467 172.198 178.71 172.131C178.952 172.065 179.207 172.057 179.453 172.107L207.049 180.893C207.346 180.935 207.626 181.06 207.856 181.253C208.085 181.446 208.256 181.7 208.349 181.985C208.441 182.271 208.452 182.576 208.378 182.867C208.305 183.158 208.152 183.423 207.936 183.631Z" fill="#F27500"/>
<path d="M199.523 185.342L183.987 201.043C183.868 201.167 183.715 201.255 183.547 201.295C183.379 201.335 183.203 201.325 183.04 201.268C182.878 201.211 182.735 201.108 182.629 200.971C182.524 200.835 182.46 200.671 182.445 200.499L182.768 178.186C182.749 178.043 182.764 177.898 182.813 177.762C182.862 177.626 182.942 177.504 183.048 177.406C183.153 177.307 183.28 177.235 183.419 177.196C183.558 177.157 183.704 177.151 183.846 177.18L199.059 183.762C199.233 183.783 199.398 183.854 199.531 183.968C199.665 184.081 199.763 184.231 199.812 184.399C199.862 184.567 199.86 184.746 199.809 184.914C199.757 185.082 199.658 185.23 199.523 185.342Z" fill="black"/>
<path d="M242.906 172.902L256.356 172.439C256.496 172.436 256.633 172.478 256.748 172.559C256.862 172.64 256.948 172.755 256.992 172.888C257.036 173.021 257.036 173.164 256.992 173.297C256.948 173.43 256.863 173.546 256.749 173.627L255.55 174.462L265.131 174.392C265.278 174.388 265.422 174.433 265.54 174.521C265.658 174.608 265.743 174.733 265.781 174.875C265.82 175.017 265.809 175.167 265.752 175.302C265.694 175.437 265.593 175.549 265.464 175.62L263.519 176.717" fill="#F27500"/>
<path d="M216.66 177.149L229.929 171.413C230.063 171.358 230.211 171.349 230.35 171.387C230.489 171.425 230.612 171.507 230.699 171.622C230.786 171.737 230.833 171.877 230.833 172.021C230.832 172.165 230.783 172.305 230.695 172.419L229.647 173.748" fill="#F27500"/>
<path d="M216.66 177.149L229.929 171.412C230.063 171.358 230.211 171.349 230.35 171.386C230.489 171.424 230.612 171.507 230.699 171.622C230.786 171.737 230.833 171.877 230.833 172.021C230.832 172.165 230.783 172.305 230.695 172.419L229.647 173.747" fill="#F27500"/>
<path d="M230.967 173.556L244.185 171.02C244.322 170.997 244.463 171.017 244.588 171.079C244.712 171.141 244.814 171.241 244.878 171.364C244.942 171.487 244.965 171.628 244.944 171.765C244.922 171.902 244.858 172.029 244.76 172.127L243.752 173.134" fill="#F27500"/>
<path fill-rule="evenodd" clip-rule="evenodd" d="M221.551 213.716C221.131 213.671 220.704 213.648 220.271 213.648C213.644 213.648 208.271 219.021 208.271 225.648C208.271 232.276 213.644 237.648 220.271 237.648C226.899 237.648 232.271 232.276 232.271 225.648C232.271 222.094 230.726 218.901 228.271 216.703C228.241 218.887 226.462 220.648 224.271 220.648C222.062 220.648 220.271 218.857 220.271 216.648C220.271 215.49 220.764 214.446 221.551 213.716Z" fill="black"/>
<ellipse cx="216.185" cy="249.378" rx="16.0422" ry="8.70863" fill="#F27500"/>
<ellipse cx="269.354" cy="249.378" rx="19.709" ry="8.70863" fill="#F27500"/>
<path d="M209.365 353.017C213.731 357.103 224.208 362.084 231.193 349.323C230.522 349.827 241.436 367.457 251.679 349.323C252.35 349.323 262.425 367.457 271.66 349.323" stroke="#F69131" stroke-width="4" stroke-linecap="round" stroke-linejoin="round"/>
<path d="M220.951 338.576C228.339 338.576 231.529 333.203 232.201 330.517C231.529 331.02 242.444 348.651 252.686 330.517C253.358 333.203 256.548 338.576 263.936 338.576" stroke="#F69131" stroke-width="4" stroke-linecap="round" stroke-linejoin="round"/>
</g>
<g filter="url(#filter17_i)">
<path d="M279.983 460.751V453.053C279.983 450.27 277.728 448.015 274.945 448.015C272.163 448.015 269.907 450.27 269.907 453.053V460.751C269.907 463.534 272.163 465.789 274.945 465.789C277.728 465.789 279.983 463.534 279.983 460.751Z" fill="#FDE01B"/>
<path d="M270.915 460.751V453.053C270.915 450.27 268.659 448.015 265.876 448.015C263.094 448.015 260.838 450.27 260.838 453.053V460.751C260.838 463.533 263.094 465.789 265.876 465.789C268.659 465.789 270.915 463.533 270.915 460.751Z" fill="#FDE01B"/>
<path d="M261.846 461.114V453.415C261.846 450.633 259.591 448.377 256.808 448.377C254.026 448.377 251.77 450.633 251.77 453.415V461.114C251.77 463.896 254.026 466.152 256.808 466.152C259.591 466.152 261.846 463.896 261.846 461.114Z" fill="#FDE01B"/>
<path d="M231.729 459.955V452.257C231.729 449.474 229.473 447.218 226.691 447.218C223.908 447.218 221.653 449.474 221.653 452.257V459.955C221.653 462.737 223.908 464.993 226.691 464.993C229.473 464.993 231.729 462.737 231.729 459.955Z" fill="#FDE01B"/>
<path d="M222.66 459.955V452.257C222.66 449.474 220.405 447.218 217.622 447.218C214.84 447.218 212.584 449.474 212.584 452.257V459.955C212.584 462.737 214.84 464.993 217.622 464.993C220.405 464.993 222.66 462.737 222.66 459.955Z" fill="#FDE01B"/>
<path d="M213.602 460.317V452.619C213.602 449.836 211.346 447.581 208.563 447.581C205.781 447.581 203.525 449.836 203.525 452.619V460.317C203.525 463.1 205.781 465.355 208.563 465.355C211.346 465.355 213.602 463.1 213.602 460.317Z" fill="#FDE01B"/>
<path d="M272.293 435.003C272.293 433.126 269.322 431.605 265.657 431.605C261.993 431.605 259.022 433.126 259.022 435.003V451.733C259.022 453.609 261.993 455.131 265.657 455.131C269.322 455.131 272.293 453.609 272.293 451.733V435.003Z" fill="#FDE01B"/>
<path d="M223.432 435.003C223.432 433.126 220.596 431.605 217.098 431.605C213.6 431.605 210.764 433.126 210.764 435.003V451.733C210.764 453.609 213.6 455.131 217.098 455.131C220.596 455.131 223.432 453.609 223.432 451.733V435.003Z" fill="#FDE01B"/>
</g>
<path d="M400.797 261.34C426.385 252.507 451.753 254.525 474.376 263.25C471.089 277.417 442.73 304.565 414.968 314.156C389.37 322.994 362.868 322.044 340.234 313.323C351.773 290.224 373.005 270.944 400.797 261.34Z" fill="#43EDB0"/>
<path d="M334.157 249.883C340.047 248.395 346.028 251.964 347.516 257.854L364.944 326.847C366.432 332.737 362.863 338.719 356.973 340.206L266.606 363.034C260.716 364.522 254.735 360.954 253.247 355.063L235.818 286.07C234.33 280.18 237.899 274.199 243.789 272.711L334.157 249.883Z" fill="#E6E6E6"/>
<rect x="306.673" y="297.138" width="19.2976" height="19.2976" rx="9.64882" transform="rotate(75.823 306.673 297.138)" fill="white"/>
<g filter="url(#filter18_d)">
<path d="M275.341 332.997C266.469 328.187 255.585 326.377 244.55 328.653L245.935 334.078L247.32 339.504L250.089 350.354C261.821 347.426 269.344 341.911 275.341 332.997Z" fill="#43EDB0"/>
</g>
<g filter="url(#filter19_d)">
<path d="M230.166 282.305C205.745 289.043 185.457 302.145 172.058 318.113C192.581 326.647 218.774 328.278 245.3 320.959C269.721 314.221 290.008 301.119 303.408 285.151C282.894 276.615 256.701 274.983 230.166 282.305Z" fill="#F69131"/>
</g>
<defs>
<filter id="filter0_i" x="-5.63904" y="37.1907" width="271.616" height="458.896" filterUnits="userSpaceOnUse" color-interpolation-filters="sRGB">
<feFlood flood-opacity="0" result="BackgroundImageFix"/>
<feBlend mode="normal" in="SourceGraphic" in2="BackgroundImageFix" result="shape"/>
<feColorMatrix in="SourceAlpha" type="matrix" values="0 0 0 0 0 0 0 0 0 0 0 0 0 0 0 0 0 0 127 0" result="hardAlpha"/>
<feOffset dy="4"/>
<feGaussianBlur stdDeviation="2"/>
<feComposite in2="hardAlpha" operator="arithmetic" k2="-1" k3="1"/>
<feColorMatrix type="matrix" values="0 0 0 0 0 0 0 0 0 0 0 0 0 0 0 0 0 0 0.25 0"/>
<feBlend mode="normal" in2="shape" result="effect1_innerShadow"/>
</filter>
<filter id="filter1_i" x="26.4885" y="22.1907" width="227.379" height="469.896" filterUnits="userSpaceOnUse" color-interpolation-filters="sRGB">
<feFlood flood-opacity="0" result="BackgroundImageFix"/>
<feBlend mode="normal" in="SourceGraphic" in2="BackgroundImageFix" result="shape"/>
<feColorMatrix in="SourceAlpha" type="matrix" values="0 0 0 0 0 0 0 0 0 0 0 0 0 0 0 0 0 0 127 0" result="hardAlpha"/>
<feOffset dx="20" dy="-15"/>
<feGaussianBlur stdDeviation="10"/>
<feComposite in2="hardAlpha" operator="arithmetic" k2="-1" k3="1"/>
<feColorMatrix type="matrix" values="0 0 0 0 0 0 0 0 0 0 0 0 0 0 0 0 0 0 0.12 0"/>
<feBlend mode="normal" in2="shape" result="effect1_innerShadow"/>
</filter>
<filter id="filter2_i" x="141.55" y="90.7078" width="58.8689" height="62.8689" filterUnits="userSpaceOnUse" color-interpolation-filters="sRGB">
<feFlood flood-opacity="0" result="BackgroundImageFix"/>
<feBlend mode="normal" in="SourceGraphic" in2="BackgroundImageFix" result="shape"/>
<feColorMatrix in="SourceAlpha" type="matrix" values="0 0 0 0 0 0 0 0 0 0 0 0 0 0 0 0 0 0 127 0" result="hardAlpha"/>
<feOffset dy="4"/>
<feGaussianBlur stdDeviation="2"/>
<feComposite in2="hardAlpha" operator="arithmetic" k2="-1" k3="1"/>
<feColorMatrix type="matrix" values="0 0 0 0 0 0 0 0 0 0 0 0 0 0 0 0 0 0 0.15 0"/>
<feBlend mode="normal" in2="shape" result="effect1_innerShadow"/>
</filter>
<filter id="filter3_i" x="66.6264" y="90.7078" width="58.8689" height="62.8689" filterUnits="userSpaceOnUse" color-interpolation-filters="sRGB">
<feFlood flood-opacity="0" result="BackgroundImageFix"/>
<feBlend mode="normal" in="SourceGraphic" in2="BackgroundImageFix" result="shape"/>
<feColorMatrix in="SourceAlpha" type="matrix" values="0 0 0 0 0 0 0 0 0 0 0 0 0 0 0 0 0 0 127 0" result="hardAlpha"/>
<feOffset dy="4"/>
<feGaussianBlur stdDeviation="2"/>
<feComposite in2="hardAlpha" operator="arithmetic" k2="-1" k3="1"/>
<feColorMatrix type="matrix" values="0 0 0 0 0 0 0 0 0 0 0 0 0 0 0 0 0 0 0.15 0"/>
<feBlend mode="normal" in2="shape" result="effect1_innerShadow"/>
</filter>
<filter id="filter4_d" x="-8.63904" y="203.595" width="101.36" height="213.02" filterUnits="userSpaceOnUse" color-interpolation-filters="sRGB">
<feFlood flood-opacity="0" result="BackgroundImageFix"/>
<feColorMatrix in="SourceAlpha" type="matrix" values="0 0 0 0 0 0 0 0 0 0 0 0 0 0 0 0 0 0 127 0"/>
<feOffset dx="1" dy="4"/>
<feGaussianBlur stdDeviation="2"/>
<feColorMatrix type="matrix" values="0 0 0 0 0 0 0 0 0 0 0 0 0 0 0 0 0 0 0.15 0"/>
<feBlend mode="normal" in2="BackgroundImageFix" result="effect1_dropShadow"/>
<feBlend mode="normal" in="SourceGraphic" in2="effect1_dropShadow" result="shape"/>
</filter>
<filter id="filter5_d" x="172.527" y="207.543" width="98.4501" height="212.596" filterUnits="userSpaceOnUse" color-interpolation-filters="sRGB">
<feFlood flood-opacity="0" result="BackgroundImageFix"/>
<feColorMatrix in="SourceAlpha" type="matrix" values="0 0 0 0 0 0 0 0 0 0 0 0 0 0 0 0 0 0 127 0"/>
<feOffset dx="1" dy="4"/>
<feGaussianBlur stdDeviation="2"/>
<feColorMatrix type="matrix" values="0 0 0 0 0 0 0 0 0 0 0 0 0 0 0 0 0 0 0.15 0"/>
<feBlend mode="normal" in2="BackgroundImageFix" result="effect1_dropShadow"/>
<feBlend mode="normal" in="SourceGraphic" in2="effect1_dropShadow" result="shape"/>
</filter>
<filter id="filter6_i" x="243.692" y="0.469482" width="235.468" height="500.919" filterUnits="userSpaceOnUse" color-interpolation-filters="sRGB">
<feFlood flood-opacity="0" result="BackgroundImageFix"/>
<feBlend mode="normal" in="SourceGraphic" in2="BackgroundImageFix" result="shape"/>
<feColorMatrix in="SourceAlpha" type="matrix" values="0 0 0 0 0 0 0 0 0 0 0 0 0 0 0 0 0 0 127 0" result="hardAlpha"/>
<feOffset dy="4"/>
<feGaussianBlur stdDeviation="2"/>
<feComposite in2="hardAlpha" operator="arithmetic" k2="-1" k3="1"/>
<feColorMatrix type="matrix" values="0 0 0 0 0 0 0 0 0 0 0 0 0 0 0 0 0 0 0.25 0"/>
<feBlend mode="normal" in2="shape" result="effect1_innerShadow"/>
</filter>
<filter id="filter7_i" x="252.624" y="-14.5305" width="241.536" height="511.919" filterUnits="userSpaceOnUse" color-interpolation-filters="sRGB">
<feFlood flood-opacity="0" result="BackgroundImageFix"/>
<feBlend mode="normal" in="SourceGraphic" in2="BackgroundImageFix" result="shape"/>
<feColorMatrix in="SourceAlpha" type="matrix" values="0 0 0 0 0 0 0 0 0 0 0 0 0 0 0 0 0 0 127 0" result="hardAlpha"/>
<feOffset dx="21" dy="-21"/>
<feGaussianBlur stdDeviation="7.5"/>
<feComposite in2="hardAlpha" operator="arithmetic" k2="-1" k3="1"/>
<feColorMatrix type="matrix" values="0 0 0 0 0 0 0 0 0 0 0 0 0 0 0 0 0 0 0.12 0"/>
<feBlend mode="normal" in2="shape" result="effect1_innerShadow"/>
</filter>
<filter id="filter8_i" x="378" y="59" width="64.3072" height="68.3072" filterUnits="userSpaceOnUse" color-interpolation-filters="sRGB">
<feFlood flood-opacity="0" result="BackgroundImageFix"/>
<feBlend mode="normal" in="SourceGraphic" in2="BackgroundImageFix" result="shape"/>
<feColorMatrix in="SourceAlpha" type="matrix" values="0 0 0 0 0 0 0 0 0 0 0 0 0 0 0 0 0 0 127 0" result="hardAlpha"/>
<feOffset dy="4"/>
<feGaussianBlur stdDeviation="2"/>
<feComposite in2="hardAlpha" operator="arithmetic" k2="-1" k3="1"/>
<feColorMatrix type="matrix" values="0 0 0 0 0 0 0 0 0 0 0 0 0 0 0 0 0 0 0.15 0"/>
<feBlend mode="normal" in2="shape" result="effect1_innerShadow"/>
</filter>
<filter id="filter9_i" x="296" y="59" width="64.3071" height="68.3072" filterUnits="userSpaceOnUse" color-interpolation-filters="sRGB">
<feFlood flood-opacity="0" result="BackgroundImageFix"/>
<feBlend mode="normal" in="SourceGraphic" in2="BackgroundImageFix" result="shape"/>
<feColorMatrix in="SourceAlpha" type="matrix" values="0 0 0 0 0 0 0 0 0 0 0 0 0 0 0 0 0 0 127 0" result="hardAlpha"/>
<feOffset dy="4"/>
<feGaussianBlur stdDeviation="2"/>
<feComposite in2="hardAlpha" operator="arithmetic" k2="-1" k3="1"/>
<feColorMatrix type="matrix" values="0 0 0 0 0 0 0 0 0 0 0 0 0 0 0 0 0 0 0.15 0"/>
<feBlend mode="normal" in2="shape" result="effect1_innerShadow"/>
</filter>
<filter id="filter10_d" x="427.524" y="191.734" width="53.5713" height="106.965" filterUnits="userSpaceOnUse" color-interpolation-filters="sRGB">
<feFlood flood-opacity="0" result="BackgroundImageFix"/>
<feColorMatrix in="SourceAlpha" type="matrix" values="0 0 0 0 0 0 0 0 0 0 0 0 0 0 0 0 0 0 127 0"/>
<feOffset dx="1" dy="4"/>
<feGaussianBlur stdDeviation="2"/>
<feColorMatrix type="matrix" values="0 0 0 0 0 0 0 0 0 0 0 0 0 0 0 0 0 0 0.15 0"/>
<feBlend mode="normal" in2="BackgroundImageFix" result="effect1_dropShadow"/>
<feBlend mode="normal" in="SourceGraphic" in2="effect1_dropShadow" result="shape"/>
</filter>
<filter id="filter11_d" x="239.692" y="189.562" width="63.3868" height="154.398" filterUnits="userSpaceOnUse" color-interpolation-filters="sRGB">
<feFlood flood-opacity="0" result="BackgroundImageFix"/>
<feColorMatrix in="SourceAlpha" type="matrix" values="0 0 0 0 0 0 0 0 0 0 0 0 0 0 0 0 0 0 127 0"/>
<feOffset dy="4"/>
<feGaussianBlur stdDeviation="2"/>
<feColorMatrix type="matrix" values="0 0 0 0 0 0 0 0 0 0 0 0 0 0 0 0 0 0 0.25 0"/>
<feBlend mode="normal" in2="BackgroundImageFix" result="effect1_dropShadow"/>
<feBlend mode="normal" in="SourceGraphic" in2="effect1_dropShadow" result="shape"/>
</filter>
<filter id="filter12_d" x="345.666" y="212.374" width="47.6929" height="127.036" filterUnits="userSpaceOnUse" color-interpolation-filters="sRGB">
<feFlood flood-opacity="0" result="BackgroundImageFix"/>
<feColorMatrix in="SourceAlpha" type="matrix" values="0 0 0 0 0 0 0 0 0 0 0 0 0 0 0 0 0 0 127 0"/>
<feOffset dy="4"/>
<feGaussianBlur stdDeviation="1"/>
<feColorMatrix type="matrix" values="0 0 0 0 0 0 0 0 0 0 0 0 0 0 0 0 0 0 0.25 0"/>
<feBlend mode="normal" in2="BackgroundImageFix" result="effect1_dropShadow"/>
<feBlend mode="normal" in="SourceGraphic" in2="effect1_dropShadow" result="shape"/>
</filter>
<filter id="filter13_d" x="351.55" y="190.245" width="35.4721" height="30.0511" filterUnits="userSpaceOnUse" color-interpolation-filters="sRGB">
<feFlood flood-opacity="0" result="BackgroundImageFix"/>
<feColorMatrix in="SourceAlpha" type="matrix" values="0 0 0 0 0 0 0 0 0 0 0 0 0 0 0 0 0 0 127 0"/>
<feOffset dy="4"/>
<feGaussianBlur stdDeviation="2"/>
<feColorMatrix type="matrix" values="0 0 0 0 0 0 0 0 0 0 0 0 0 0 0 0 0 0 0.25 0"/>
<feBlend mode="normal" in2="BackgroundImageFix" result="effect1_dropShadow"/>
<feBlend mode="normal" in="SourceGraphic" in2="effect1_dropShadow" result="shape"/>
</filter>
<filter id="filter14_i" x="168.058" y="156" width="157.088" height="326.678" filterUnits="userSpaceOnUse" color-interpolation-filters="sRGB">
<feFlood flood-opacity="0" result="BackgroundImageFix"/>
<feBlend mode="normal" in="SourceGraphic" in2="BackgroundImageFix" result="shape"/>
<feColorMatrix in="SourceAlpha" type="matrix" values="0 0 0 0 0 0 0 0 0 0 0 0 0 0 0 0 0 0 127 0" result="hardAlpha"/>
<feOffset dx="21" dy="-21"/>
<feGaussianBlur stdDeviation="7.5"/>
<feComposite in2="hardAlpha" operator="arithmetic" k2="-1" k3="1"/>
<feColorMatrix type="matrix" values="0 0 0 0 0 0 0 0 0 0 0 0 0 0 0 0 0 0 0.12 0"/>
<feBlend mode="normal" in2="shape" result="effect1_innerShadow"/>
</filter>
<filter id="filter15_i" x="247.271" y="207.648" width="40.3347" height="44" filterUnits="userSpaceOnUse" color-interpolation-filters="sRGB">
<feFlood flood-opacity="0" result="BackgroundImageFix"/>
<feBlend mode="normal" in="SourceGraphic" in2="BackgroundImageFix" result="shape"/>
<feColorMatrix in="SourceAlpha" type="matrix" values="0 0 0 0 0 0 0 0 0 0 0 0 0 0 0 0 0 0 127 0" result="hardAlpha"/>
<feOffset dy="4"/>
<feGaussianBlur stdDeviation="2"/>
<feComposite in2="hardAlpha" operator="arithmetic" k2="-1" k3="1"/>
<feColorMatrix type="matrix" values="0 0 0 0 0 0 0 0 0 0 0 0 0 0 0 0 0 0 0.15 0"/>
<feBlend mode="normal" in2="shape" result="effect1_innerShadow"/>
</filter>
<filter id="filter16_i" x="195.271" y="207.648" width="40.3348" height="44.3348" filterUnits="userSpaceOnUse" color-interpolation-filters="sRGB">
<feFlood flood-opacity="0" result="BackgroundImageFix"/>
<feBlend mode="normal" in="SourceGraphic" in2="BackgroundImageFix" result="shape"/>
<feColorMatrix in="SourceAlpha" type="matrix" values="0 0 0 0 0 0 0 0 0 0 0 0 0 0 0 0 0 0 127 0" result="hardAlpha"/>
<feOffset dy="4"/>
<feGaussianBlur stdDeviation="2"/>
<feComposite in2="hardAlpha" operator="arithmetic" k2="-1" k3="1"/>
<feColorMatrix type="matrix" values="0 0 0 0 0 0 0 0 0 0 0 0 0 0 0 0 0 0 0.15 0"/>
<feBlend mode="normal" in2="shape" result="effect1_innerShadow"/>
</filter>
<filter id="filter17_i" x="203.525" y="431.605" width="76.4579" height="38.547" filterUnits="userSpaceOnUse" color-interpolation-filters="sRGB">
<feFlood flood-opacity="0" result="BackgroundImageFix"/>
<feBlend mode="normal" in="SourceGraphic" in2="BackgroundImageFix" result="shape"/>
<feColorMatrix in="SourceAlpha" type="matrix" values="0 0 0 0 0 0 0 0 0 0 0 0 0 0 0 0 0 0 127 0" result="hardAlpha"/>
<feOffset dy="4"/>
<feGaussianBlur stdDeviation="2"/>
<feComposite in2="hardAlpha" operator="arithmetic" k2="-1" k3="1"/>
<feColorMatrix type="matrix" values="0 0 0 0 0 0 0 0 0 0 0 0 0 0 0 0 0 0 0.25 0"/>
<feBlend mode="normal" in2="shape" result="effect1_innerShadow"/>
</filter>
<filter id="filter18_d" x="240.55" y="321.757" width="41.3766" height="36.6436" filterUnits="userSpaceOnUse" color-interpolation-filters="sRGB">
<feFlood flood-opacity="0" result="BackgroundImageFix"/>
<feColorMatrix in="SourceAlpha" type="matrix" values="0 0 0 0 0 0 0 0 0 0 0 0 0 0 0 0 0 0 127 0"/>
<feOffset dy="4"/>
<feGaussianBlur stdDeviation="2"/>
<feColorMatrix type="matrix" values="0 0 0 0 0 0 0 0 0 0 0 0 0 0 0 0 0 0 0.25 0"/>
<feBlend mode="normal" in2="BackgroundImageFix" result="effect1_dropShadow"/>
<feBlend mode="normal" in="SourceGraphic" in2="effect1_dropShadow" result="shape"/>
</filter>
<filter id="filter19_d" x="163" y="264.264" width="149.466" height="82.7364" filterUnits="userSpaceOnUse" color-interpolation-filters="sRGB">
<feFlood flood-opacity="0" result="BackgroundImageFix"/>
<feColorMatrix in="SourceAlpha" type="matrix" values="0 0 0 0 0 0 0 0 0 0 0 0 0 0 0 0 0 0 127 0"/>
<feOffset dy="4"/>
<feGaussianBlur stdDeviation="2"/>
<feColorMatrix type="matrix" values="0 0 0 0 0 0 0 0 0 0 0 0 0 0 0 0 0 0 0.15 0"/>
<feBlend mode="normal" in2="BackgroundImageFix" result="effect1_dropShadow"/>
<feBlend mode="normal" in="SourceGraphic" in2="effect1_dropShadow" result="shape"/>
</filter>
<clipPath id="clip0">
<rect width="207.379" height="454.896" fill="white" transform="translate(26.4885 37.1907)"/>
</clipPath>
<clipPath id="clip1">
<rect width="226.536" height="496.919" fill="white" transform="translate(252.624 0.469482)"/>
</clipPath>
<clipPath id="clip2">
<rect width="142.088" height="311.678" fill="white" transform="translate(168.058 171)"/>
</clipPath>
</defs>
</svg>
