<svg width="200" height="195" viewBox="0 0 200 195" fill="none" xmlns="http://www.w3.org/2000/svg">
<path d="M121.588 0.895508C119.727 1.23384 117.701 1.40133 115.671 1.57051C114.148 1.73971 108.567 2.07853 107.89 4.10878C107.552 4.95478 106.199 13.0705 106.199 14.2549C106.199 14.7624 107.046 14.7602 107.046 15.0986C107.046 15.437 106.368 14.7602 106.03 15.0986C105.692 15.437 105.523 16.2821 105.693 16.7896C105.806 17.4711 106.636 17.95 107.046 18.4806C105.91 18.0671 105.428 18.2416 104.395 20.2279C104.327 20.358 104.321 20.4571 104.283 20.5689C104.136 20.6143 103.957 20.6188 103.833 20.6814C102.648 21.3582 101.803 22.3746 100.619 22.8822C97.5742 24.5741 86.2468 24.9107 84.5551 27.6177C82.6694 30.8509 83.3139 32.2449 84.6113 32.856L85.5677 33.0248C84.4618 33.2377 83.6847 33.3811 83.089 33.8685C81.8489 34.883 79.1408 36.0118 77.337 34.8845C75.5332 33.7572 74.0674 33.1937 72.2636 33.081C70.4598 32.9683 66.4045 31.0502 65.5026 32.1775C64.6007 33.3048 64.7113 32.1791 64.824 31.39C64.9367 30.6009 63.2461 29.923 62.9079 28.683C62.5697 27.443 64.6002 27.4452 64.0365 25.867C63.4728 24.2888 60.9896 25.0781 60.3132 25.7545C59.6367 26.4308 58.1713 25.6396 56.8184 25.0759C55.4655 24.5123 53.8875 23.8349 53.2111 23.8349C52.5347 23.8349 53.3252 24.85 54.2272 25.3009C55.1291 25.7518 55.1286 26.9943 54.4522 27.558C53.7758 28.1216 54.7897 27.896 54.7897 29.3615C54.7897 30.827 55.579 30.7118 56.4809 32.29C57.3828 33.8682 56.9323 34.2079 57.947 34.997C58.9616 35.7862 57.7222 35.1081 57.6095 37.4755C57.4968 39.8429 58.6234 38.3775 57.947 40.8576C57.2705 43.3376 56.9345 45.5919 58.6255 46.1556C60.3166 46.7192 60.4275 47.3968 57.8345 47.2841C55.2415 47.1714 52.4222 48.1878 53.0986 46.3841C53.775 44.5804 52.9886 44.3542 51.7485 45.0306C50.5084 45.707 50.2824 45.8181 50.2824 45.8181C50.2824 45.8181 49.1549 45.2542 48.5913 45.9306C48.0275 46.607 46.8992 46.8329 47.3501 45.7056C47.8011 44.5782 47.1259 43.9037 44.984 44.8056C42.8419 45.7074 40.3606 47.3966 40.3606 47.3966L38.3319 45.4806L38.4444 43.9021L36.6408 42.2111L37.2033 41.4236C37.2033 41.4236 35.0608 42.2099 35.7372 41.0826C36.4137 39.9553 36.8658 39.1665 36.8658 39.1665C36.8658 39.1665 36.1879 38.8279 35.8497 39.3915C35.5115 39.9551 35.0622 40.0701 35.0622 40.0701C35.0622 40.0701 35.7395 38.7158 34.6121 39.054C33.4847 39.3921 32.921 39.8451 32.921 39.8451C32.921 39.8451 33.2566 38.3784 32.4675 38.7165C31.6783 39.0547 30.7789 40.2933 29.5387 39.3915C28.2986 38.4897 28.1851 38.9415 28.1851 38.9415L26.8315 39.3915C26.8315 39.3915 26.7174 40.7448 27.5066 40.8576C28.2957 40.9702 26.4933 40.7465 26.8315 41.7611C27.1698 42.7756 25.9288 41.3085 23.7868 40.8576C21.6448 40.4067 22.9992 42.5486 22.9992 42.5486C22.9992 42.5486 22.21 42.6616 21.3081 40.6326C20.4062 38.6034 20.4052 40.4071 18.3759 40.6326C16.3467 40.858 15.895 42.0973 15.2186 40.9701C14.5422 39.8428 11.1612 41.7606 9.47015 41.9861C7.7791 42.2116 7.89081 44.691 8.22905 45.7056C8.56726 46.7201 10.1455 46.9477 11.7238 46.3841C13.3022 45.8205 15.8972 45.5931 15.8972 45.5931C15.8972 45.5931 12.6262 46.2702 13.1899 46.9466C13.6127 47.4539 14.8076 47.323 15.4999 47.2279C15.3643 47.2973 15.4039 47.4382 15.8972 47.7341C17.0245 48.4105 15.3311 48.8643 13.64 48.0751C11.9489 47.286 12.2887 46.4948 11.1613 47.3966C10.0339 48.2985 12.0623 47.7351 11.6113 48.9751C11.1604 50.2152 11.838 49.8763 12.7399 49.3126C13.6418 48.749 13.9789 49.9906 14.9936 50.2161C16.0082 50.4416 16.799 52.696 14.206 52.0196C11.613 51.3433 8.90478 51.3428 8.56658 52.2446C8.22835 53.1465 13.077 53.2602 13.3025 55.1767C13.5279 57.0931 14.6546 56.6406 13.64 57.6552C12.6253 58.6698 14.6566 59.1214 16.1222 59.0087C17.5878 58.896 16.4613 56.7534 17.4758 57.6552C18.4905 58.5571 19.504 58.6693 19.7295 57.8802C19.9549 57.0911 20.0671 58.5562 21.7581 59.7962C23.4492 61.0362 24.1253 60.6985 25.3654 61.2622C26.6055 61.8259 26.4921 62.953 27.3941 63.0657C28.2513 63.1728 28.3243 62.5818 29.1977 61.9407C28.8736 62.293 28.522 62.8993 28.8602 63.5192C29.5366 64.7593 31.2299 63.9678 31.2299 62.9532C31.2299 61.9387 33.1456 62.617 31.6799 63.7442C30.2143 64.8715 31.1143 63.9689 30.8888 65.8853C30.6634 67.8017 31.6799 68.479 31.6799 67.1263C31.6799 65.7735 32.3562 67.1245 33.4836 66.4477C34.611 65.7715 34.4983 65.5465 35.1747 66.2228C35.8511 66.8991 36.7519 65.884 37.4284 66.5602C38.1048 67.2366 37.4283 68.3652 35.7372 67.6888C34.0461 67.0124 35.061 67.4647 35.6247 68.7048C36.1884 69.9448 37.9914 68.0284 39.457 68.7048C40.9226 69.3812 41.4873 69.494 40.6981 70.3958C39.9089 71.2977 42.6147 71.1824 40.6981 71.6333C38.7815 72.0842 39.6823 71.6338 39.5695 73.0993C39.4568 74.5648 40.0203 74.3392 41.3732 74.9028C42.726 75.4665 42.8405 75.8044 43.9679 75.0153C45.0953 74.2262 46.5622 73.4366 48.4787 75.2403C50.3953 77.044 50.3933 77.7223 51.1824 77.7223C51.9716 77.7223 50.3923 78.6227 48.2502 76.7063C46.1082 74.7899 44.9814 74.7909 44.5304 76.2563C44.0795 77.7219 44.7584 77.9476 43.2928 77.8348C41.8272 77.7222 43.969 78.0615 45.0965 78.9634C46.2238 79.8652 47.237 80.3141 45.7715 81.6669C44.3059 83.0196 43.5174 83.8084 43.7429 85.2739C43.9683 86.7394 46.4496 88.2074 46.6751 90.9129C46.9006 93.6185 47.0126 93.3915 47.0126 93.3915C47.0126 93.3915 51.9739 95.5334 51.7485 96.7735C51.523 98.0135 53.1007 97.2247 53.7772 98.352C54.4536 99.4793 54.3409 100.155 55.4683 98.9145C56.5957 97.6745 56.8198 99.4787 56.1433 100.381C55.4669 101.282 55.2409 100.832 54.6772 101.847C54.1135 102.861 55.1301 101.957 55.4683 102.859C55.8065 103.761 56.4813 105.452 56.2558 106.129C56.0304 106.805 54.9051 105.679 55.2433 107.145C55.5815 108.61 54.3397 108.95 54.3397 109.852V110.864C54.3397 110.864 53.2123 109.623 52.6486 111.202C52.0849 112.78 52.0835 111.991 53.3236 112.78C54.5637 113.569 56.0318 116.05 57.2719 117.741C57.2907 117.766 57.3109 117.772 57.3282 117.797C57.4227 117.966 57.5248 118.134 57.6095 118.303C58.512 123.049 57.5987 125.824 60.2569 128.79L59.9756 130.365C59.8865 130.134 59.7581 129.923 59.5256 129.69C58.2856 128.45 58.2847 128.563 58.172 126.421C58.0593 124.279 57.7234 123.04 57.0469 120.56C56.3705 118.08 55.5784 119.546 55.0147 118.419C54.4511 117.292 55.4671 115.711 54.3397 116.275C53.2123 116.838 53.2118 116.953 52.8736 118.869C52.5353 120.786 51.1836 124.955 50.6199 128.224C50.0562 131.493 47.9146 135.554 48.7038 135.667C49.493 135.779 49.7183 132.849 50.5074 133.863C51.2966 134.878 52.3099 136.454 51.1824 136.567C50.0551 136.679 49.492 136.115 49.1538 136.904C48.8156 137.693 48.2537 138.595 48.2537 138.595C48.2537 138.595 43.8555 152.799 42.0517 157.534C40.2479 162.269 40.136 159.338 39.9106 160.691C39.9034 160.731 39.9178 160.766 39.9106 160.803C39.3962 160.873 38.8666 160.904 38.3319 160.916C37.6553 161.254 36.9772 161.425 35.9622 161.594C36.9772 162.61 38.8382 164.298 38.8382 164.298C39.1766 164.467 39.0065 163.623 39.1757 163.623C40.0216 163.792 41.0379 164.131 41.5454 164.808C43.0679 166.5 38.1614 168.525 40.3606 169.54C41.3756 169.878 42.3884 168.02 42.7268 168.359C42.896 168.697 42.3884 169.542 42.7268 169.881C45.0951 172.08 48.8145 171.23 51.0137 172.922C51.1829 173.091 52.8732 177.039 53.0423 177.039C55.2415 178.73 57.4385 175.683 59.8069 177.714C60.9911 178.729 60.1461 180.927 62.3453 180.927C63.3603 181.096 64.034 180.083 65.049 180.252C66.064 180.421 66.5725 181.601 67.5875 181.771C68.095 181.771 68.0926 180.758 68.6001 180.758C70.2917 180.589 71.8126 181.942 73.6735 182.112C73.6735 182.112 72.8846 178.223 74.9146 178.561C77.7904 179.068 79.4808 181.095 81.3416 182.787C81.5108 182.956 82.0159 182.787 82.3542 182.787C83.2 182.956 84.2163 182.954 84.7239 183.462C85.5697 184.138 85.0593 185.661 85.9052 186.169V186.337C86.2435 185.492 86.7521 184.815 86.9213 184.815C91.3196 184.477 91.6577 186.676 89.966 188.876C91.1502 189.383 92.5025 189.718 93.3483 190.394C93.6867 190.733 93.8556 192.596 94.8707 192.426C96.224 192.257 97.4055 191.41 98.928 191.41C100.62 191.41 103.495 194.794 105.186 194.286C105.863 194.117 105.185 192.765 105.693 192.426C108.23 190.735 111.273 192.256 113.979 192.933H114.654C113.639 192.087 112.627 191.241 112.288 190.226C111.104 186.842 113.304 187.692 112.457 184.646C112.288 184.139 111.103 184.31 111.103 183.803C111.273 181.942 113.472 180.928 113.811 179.236C113.811 178.728 112.963 178.052 113.301 177.714C115.331 174.837 118.715 175.515 120.406 174.669C122.267 173.654 124.969 170.217 126.83 169.202C128.522 168.187 130.212 170.385 131.566 171.062C132.073 171.4 137.992 172.076 138.162 172.753C138.331 173.43 135.962 177.037 141.375 174.838C141.756 174.669 141.728 174.468 141.488 174.219C140.766 173.474 138.245 172.249 140.021 170.218C140.462 169.63 139.872 173.18 141.488 174.219C141.731 174.376 142.033 174.478 142.388 174.5C143.572 174.67 144.924 174.162 145.77 173.316C146.277 172.639 144.417 170.725 145.432 170.556C146.617 170.387 148.477 171.4 148.477 172.753C148.308 174.107 145.264 173.653 145.095 175.007C144.926 176.022 146.956 175.685 147.971 175.685C148.648 175.685 149.324 174.499 149.662 175.007C150.339 175.852 149.491 177.543 150.337 178.389C151.183 179.235 152.535 179.066 153.719 179.405C154.396 179.405 154.903 179.235 155.41 179.405C157.779 180.589 156.595 181.432 156.595 181.771C156.765 182.109 157.269 182.112 157.777 182.112C158.284 182.281 158.961 182.28 159.299 181.943C159.637 181.605 157.269 180.589 159.468 180.758C162.851 180.927 161.665 183.294 163.188 182.787C164.541 182.279 165.557 180.759 167.08 180.421C168.116 180.272 169.556 180.885 170.462 180.477C170.518 180.753 170.385 180.78 170.799 180.589C171.532 180.251 171.305 180.025 171.474 179.292C171.643 178.559 172.489 178.164 171.587 178.22C170.685 178.276 170.122 178.052 171.362 177.657C172.395 177.329 172.373 176.818 172.434 176.079C172.609 175.727 172.658 175.333 172.772 175.066C172.79 175.025 172.858 175.039 172.884 175.007C173.223 174.909 173.758 175.157 174.463 175.404C175.59 175.798 175.815 174.896 176.379 173.825C176.943 172.754 176.211 172.81 177.451 172.359C177.638 172.291 177.795 172.276 177.958 172.247C177.976 172.243 177.997 172.25 178.014 172.247C178.335 172.275 178.649 172.259 178.918 172.191C179.013 172.191 179.072 172.148 179.143 172.138C179.18 172.118 179.22 172.107 179.255 172.082C179.356 172.042 179.413 172.01 179.424 171.857C179.431 171.842 179.418 171.814 179.424 171.8C179.527 171.561 179.525 171.308 179.48 171.009C179.471 170.952 179.489 170.897 179.48 170.841C179.6 170.531 179.904 170.223 180.665 169.828C181.912 169.181 182.191 168.957 182.525 169.206C182.534 169.211 182.516 169.256 182.525 169.262C182.526 169.436 182.561 169.636 182.637 169.712C182.807 169.712 182.757 169.565 182.694 169.375C182.715 169.397 182.728 169.406 182.75 169.431C182.96 169.664 183.26 169.625 183.65 169.431C183.641 169.361 183.601 169.264 183.594 169.206C183.541 169.197 183.475 169.227 183.425 169.206C182.947 169.007 183.034 168.543 183.931 167.965C184.155 167.82 184.37 167.716 184.497 167.684C184.847 167.594 184.855 167.9 184.835 168.306L185.172 168.362C185.523 168.088 185.726 167.934 186.188 167.571C186.188 167.567 186.185 167.561 186.185 167.557C186.152 167.561 186.109 167.566 186.076 167.571C186.061 167.517 186.058 167.461 186.048 167.406C186.035 167.406 186.023 167.388 186.009 167.385C185.972 167.378 185.935 167.362 185.897 167.328C185.879 167.312 185.864 167.291 185.847 167.272C185.809 167.229 185.773 167.18 185.735 167.118C185.671 167.013 185.625 166.866 185.57 166.727C185.519 166.599 185.466 166.499 185.429 166.358C185.385 166.197 185.383 166.062 185.366 165.908C185.351 165.778 185.313 165.64 185.323 165.532C185.327 165.49 185.344 165.463 185.352 165.427C185.366 165.366 185.374 165.298 185.401 165.254C185.445 165.182 185.506 165.132 185.591 165.121C186.378 165.008 186.66 164.558 186.716 163.996C186.734 163.811 186.74 163.684 186.783 163.581C186.792 163.559 186.792 163.523 186.807 163.503C186.85 163.449 186.925 163.403 187.039 163.366C187.045 163.365 187.061 163.365 187.067 163.363C187.165 163.334 187.275 163.308 187.444 163.285C187.912 162.561 188.342 161.868 188.646 161.215L189.978 160.339C189.978 160.339 189.402 160.426 189.001 160.23C188.786 160.125 188.609 159.962 188.628 159.608C188.639 159.407 188.684 159.249 188.713 159.056C188.636 158.96 188.549 158.867 188.439 158.778C187.593 158.271 186.409 158.947 185.394 159.116C184.609 159.116 183.739 159.265 182.908 159.246C182.459 158.877 181.774 158.366 180.932 157.914C180.275 157.579 179.429 157.456 178.847 157.316C177.273 156.073 175.94 154.509 176.038 153.143C176.038 152.805 176.882 152.803 176.882 152.464C176.845 152.353 176.714 152.241 176.569 152.123C176.385 151.982 176.174 151.828 175.978 151.659C175.587 151.339 175.273 150.954 175.532 150.436C176.193 149.774 177.011 149.272 177.522 148.46C177.449 148.365 177.399 148.27 177.357 148.175C177.312 148.074 177.293 147.973 177.286 147.873C177.285 147.86 177.272 147.847 177.272 147.834C177.27 147.726 177.292 147.62 177.339 147.514C177.34 147.513 177.338 147.509 177.339 147.507C177.389 147.398 177.465 147.29 177.571 147.184C177.828 146.927 177.959 146.855 178.137 146.878H178.141C178.32 146.902 178.548 147.022 179.005 147.142C179.1 147.166 179.169 147.171 179.234 147.173C179.23 146.923 179.198 146.685 179.181 146.439C179.061 146.315 178.926 146.193 178.766 146.108C178.09 145.75 178.169 144.717 178.408 143.802C178.435 143.697 178.443 143.61 178.439 143.531V143.528C178.423 143.508 178.394 143.487 178.376 143.468C178.267 143.347 178.156 143.225 177.989 143.092C177.843 143.072 177.676 143.081 177.504 143.109C177.325 143.139 177.142 143.188 176.977 143.246C176.301 143.485 175.663 143.045 174.867 142.329C174.59 142.079 174.469 141.856 174.407 141.619C174.398 141.582 174.374 141.547 174.368 141.51C174.336 141.313 174.368 141.06 174.389 140.81C174.737 140.094 174.523 139.825 174.393 139.302C174.271 138.814 173.49 138.929 172.976 139.038C172.623 138.522 172.416 137.983 172.487 137.418C172.487 136.572 174.007 136.571 174.853 136.402C175 136.402 175.134 136.492 175.261 136.609L175.265 136.612C175.362 136.703 175.455 136.805 175.549 136.908C175.651 137.019 175.752 137.121 175.859 137.189C176.178 136.85 176.53 136.504 176.776 136.363C177.202 136.12 178.002 135.324 179.171 135.03C180.679 133.641 182.08 131.992 181.618 131.16C181.11 130.145 179.422 129.978 178.914 128.794C178.406 128.117 179.08 126.932 178.742 126.255C176.373 122.195 171.976 124.228 179.758 119.66C179.423 119.157 179.257 118.612 179.069 118.089C179.067 118.083 179.064 118.08 179.062 118.075C179.056 118.06 179.05 118.047 179.044 118.032C178.846 117.527 178.625 117.041 178.218 116.633C178.136 116.469 177.933 116.624 177.729 116.788L177.712 116.802C177.613 116.881 177.514 116.959 177.43 116.999C177.333 117.049 177.25 117.061 177.205 116.971C177.036 116.463 177.881 115.622 177.543 115.114C177.374 114.607 176.362 115.115 176.024 114.777C175.009 113.085 177.375 113.205 177.205 112.189C177.165 111.987 177.071 111.816 176.959 111.659C176.718 111.33 176.389 111.062 176.196 110.73C176.095 110.564 176.024 110.381 176.024 110.164C175.879 109.729 176.849 108.923 176.699 108.597C176.67 108.556 176.623 108.521 176.544 108.502C174.345 107.486 169.611 107.486 168.089 109.855C168.022 109.922 167.973 109.989 167.941 110.059C167.909 110.128 167.894 110.2 167.885 110.273V110.277C167.872 110.426 167.89 110.586 167.906 110.762L167.779 110.734C167.88 111.058 168.019 111.384 168.212 111.536C168.276 111.586 168.346 111.618 168.423 111.623C168.574 111.634 168.676 111.654 168.743 111.687C168.939 111.783 168.809 111.985 168.542 112.341C168.453 112.46 168.335 112.528 168.201 112.576C168.101 112.613 167.989 112.636 167.878 112.661C167.839 112.67 167.804 112.68 167.765 112.689C167.468 112.758 167.17 112.859 166.992 113.216C166.813 113.574 166.386 113.773 165.933 113.852C165.481 113.932 165.002 113.891 164.724 113.771C164.446 113.652 163.969 113.81 163.581 113.93C163.389 113.989 163.216 114.041 163.103 114.042C162.99 114.042 162.933 113.992 162.973 113.852C163.012 113.714 163.088 113.584 163.17 113.466V113.462C163.253 113.343 163.344 113.235 163.416 113.135C163.561 112.936 163.631 112.776 163.413 112.657C163.195 112.539 163.187 112.39 163.318 112.242C163.385 112.167 163.487 112.092 163.62 112.021C163.751 111.95 163.909 111.884 164.088 111.824C164.267 111.764 164.489 111.727 164.72 111.704C165.414 111.637 166.197 111.704 166.197 111.704C166.088 111.635 165.988 111.544 165.905 111.441C165.739 111.233 165.64 110.969 165.663 110.692C165.674 110.553 165.717 110.413 165.796 110.273C165.829 110.217 165.955 110.078 166.032 109.982C166.028 109.943 166.012 109.901 166.007 109.862L166.014 109.855L166.791 109.078L165.255 107.77L165.23 107.749C165.225 107.738 165.222 107.725 165.216 107.714L165.223 107.707V107.704L165.638 107.327L165.241 106.853L166.753 105.26L165.997 104.423C165.997 104.423 166.751 103.669 167.069 103.629C167.148 103.62 167.291 103.518 167.466 103.372C167.644 103.225 167.857 103.029 168.078 102.827C168.521 102.424 169 101.997 169.298 101.878C169.895 101.64 170.888 101.085 171.365 100.648C171.843 100.21 171.763 100.089 171.763 100.089L171.446 99.6528C171.446 99.6528 172.321 99.0139 172.083 98.2184C171.844 97.4229 171.566 96.9879 171.566 96.9879L171.52 96.9352C171.702 96.6214 171.98 96.4155 172.311 96.2637C172.487 96.1829 172.699 96.1384 172.898 96.0809C173.368 95.9456 173.852 95.8179 174.326 95.6661C174.408 95.6401 174.497 95.6258 174.575 95.5957C174.579 95.5944 174.582 95.594 174.586 95.5922C174.946 95.4527 175.271 95.2644 175.518 94.977C176.041 94.5282 176.613 93.5895 177.212 92.6004C177.442 92.5601 177.694 92.539 177.891 92.4915C179.044 92.213 178.685 91.2204 179.6 90.7829C180.234 90.4797 180.005 89.7185 179.807 89.2676C180.588 88.9468 181.324 90.3687 181.481 88.1708C181.481 87.3249 178.893 89.0167 178.724 88.1708C178.386 87.3249 179.792 86.6538 180.299 85.977C180.299 85.977 180.637 86.1462 180.637 85.977C180.637 85.8771 180.574 85.7481 180.5 85.6114C180.731 85.4613 180.947 85.2731 181.031 84.9926C181.256 84.2333 181.874 84.8521 182.128 85.1051C182.328 85.3051 182.51 85.2263 182.869 84.9751C183.273 85.2217 183.583 85.5333 183.875 85.8258C183.873 85.8294 183.873 85.8346 183.871 85.8364C183.646 86.202 183.787 86.202 184.012 86.4833C184.237 86.7648 184.321 86.2301 184.631 86.5676C184.94 86.9047 185.84 86.3989 185.84 86.3989L186.937 86.7645L187.697 85.977L187.152 85.418C187.254 85.3345 187.39 85.1867 187.5 85.0911L188.09 85.6395C188.09 85.6395 188.878 85.3302 188.653 84.9364C188.623 84.8842 188.531 84.7717 188.467 84.6903L188.927 84.0012L189.775 84.1348L190.028 83.8852L190.059 83.8536C190.05 83.8464 190.03 83.8432 190.021 83.836C190.01 83.7545 190.004 83.6619 189.993 83.5899L189.869 83.0942C189.783 82.8217 189.704 82.6681 189.704 82.6055C189.704 82.4862 188.948 82.0876 188.889 81.4313C188.829 80.7751 188.831 80.8343 189.209 80.5559C189.586 80.2775 189.447 79.6609 189.209 79.1637C188.97 78.6665 190.182 78.0708 189.884 77.6134C189.585 77.1559 190.182 76.8965 190.182 76.4391C190.182 75.9817 190.758 75.3276 190.977 74.9696C191.185 74.629 190.571 74.2664 189.606 73.3278C189.606 73.317 189.595 73.3135 189.595 73.3032C189.426 72.4573 189.763 71.6144 190.102 70.7684L192.468 66.8802C192.533 66.4902 192.612 65.5461 192.696 64.6548L192.668 64.6161C192.803 63.1889 192.975 61.6562 193.287 60.9282C194.64 58.2212 198.022 56.194 199.883 52.9794C199.923 52.9089 199.918 52.8388 199.886 52.7685C199.208 51.6696 190.394 50.6111 189.764 50.1388C189.757 50.1316 189.757 50.1184 189.75 50.1107C189.748 50.1093 189.738 50.109 189.736 50.1072C189.236 49.6072 189.547 48.6214 189.071 48.1068C188.191 47.4569 182.83 49.6282 182.493 49.1228C182.491 49.1156 182.495 49.1066 182.493 49.0982C182.488 49.0928 182.468 49.0965 182.465 49.0911C182.297 48.5879 182.956 47.9206 182.637 47.5794C177.608 43.067 180.968 49.9641 178.942 47.7693C178.935 47.7621 178.928 47.7513 178.921 47.7447L178.914 47.7376C178.712 47.5356 178.525 47.2971 178.344 47.0415C177.206 45.4263 176.451 42.9257 175.511 41.7716C175.509 41.7698 175.509 41.7664 175.507 41.7646C175.362 41.5869 175.21 41.4508 175.054 41.3462C174.625 40.9169 173.85 41.1896 173.412 40.9841C172.96 40.5767 172.516 40.128 172.487 39.8943C172.425 39.3985 170.69 39.0265 170.349 39.5533C170.203 39.7799 170.133 39.9057 170.047 40.0103C169.775 40.0571 169.498 40.1528 169.217 40.2845C168.662 40.3475 167.961 40.4127 167.934 39.9576C167.903 39.4308 166.198 39.2431 166.229 38.8712C166.26 38.4994 165.95 38.5017 165.392 38.3158C165.078 38.211 164.848 38.5769 164.685 38.9521C164.355 38.8558 164.024 38.7763 163.694 38.7763C162.51 38.6071 161.327 39.7901 160.312 39.2826C159.466 38.9442 160.14 37.4246 159.633 36.7478C159.295 36.2403 158.449 36.58 157.942 36.2415C157.773 36.0723 158.62 35.7322 158.62 35.563C158.451 35.2247 158.28 34.8885 157.942 34.7193C157.604 34.5501 157.098 35.226 156.929 35.0568C156.723 34.9018 156.567 34.6938 156.427 34.4732C156.271 34.417 156.113 34.3668 155.973 34.2869C155.539 34.039 155.505 33.4203 155.01 33.1724C154.873 33.1038 154.699 32.9492 154.531 32.8208C153.5 32.6842 152.378 32.796 151.856 32.0123C151.179 31.3355 152.531 30.3235 152.531 29.4775C152.398 28.9476 151.766 28.7191 151.49 28.3244C151.743 27.7878 152.039 27.0906 151.881 26.8267C151.642 26.429 152.953 24.9951 152.953 24.9951L152.278 24.7982L150.168 26.5455L150.105 28.0607H150.084C150.084 28.0607 148.505 28.1824 148.01 28.6162C147.631 28.9471 146.517 28.9481 145.65 28.6162C143.602 28.5911 141.745 27.8804 142.047 27.2767C142.554 26.4308 143.4 25.9254 143.4 25.0795C143.4 24.5719 142.046 24.5715 142.215 23.8947C142.215 23.0829 143.071 22.3805 143.418 21.6131L142.957 21.7677L141.474 19.4052C141.413 19.3926 141.36 19.374 141.298 19.3631C140.742 19.5287 140.401 19.6327 139.86 19.7849C138.868 20.0638 138.93 19.4442 137.877 19.2892C136.823 19.1343 136.915 20.376 136.481 20.0662C136.181 19.8518 135.963 19.3781 136.038 18.6072C136.011 18.5671 135.973 18.5315 135.961 18.4842C135.849 18.0379 136.023 17.5209 136.112 17.0252C136.023 16.8014 135.918 16.5785 135.862 16.3783C135.645 15.6037 135.024 15.8193 134.312 15.8193C133.699 15.8193 133.681 15.6875 134.326 14.972C134.027 14.9666 133.719 14.9711 133.405 14.9826C132.62 15.6678 132.077 15.8033 131.615 15.2638C131.14 14.7098 130.537 14.2864 130.768 13.5236C130.58 12.779 130.617 11.6713 130.518 10.5986C130.232 10.4235 130.168 10.2369 130.005 9.8076C129.757 9.15692 129.88 8.75577 129.446 8.72479C129.012 8.69383 128.612 8.94149 128.24 8.87948C127.868 8.81738 127.278 9.18994 126.844 9.40682C126.41 9.62372 126.503 10.4283 125.853 10.5213C125.205 10.6138 124.252 9.84428 123.968 8.98143C123.536 8.5973 123.19 8.08342 122.913 7.48729C122.83 7.46893 122.751 7.43189 122.66 7.45565C122.071 7.61063 121.979 6.83548 121.855 5.93691C121.743 5.12525 121.635 4.81943 122.066 4.5623C121.812 3.14181 121.707 1.75492 121.584 0.899023L121.588 0.895508ZM2.03057 41.8736C1.12863 42.2118 0.45036 42.8894 1.2395 43.0021C2.02867 43.1148 3.15795 43.0009 2.03057 41.8736ZM26.044 63.5192C25.5102 63.5457 25.4234 64.2215 26.269 64.6442C27.3964 65.2079 28.0719 64.7587 26.719 63.7442C26.4654 63.5752 26.2218 63.5104 26.044 63.5192ZM28.9727 70.111C28.285 70.3391 28.341 71.7261 30.3263 72.7618C32.9193 74.1146 31.1166 71.2979 29.7638 70.2833C29.5947 70.1847 29.4531 70.1314 29.3102 70.111C29.1853 70.093 29.071 70.0784 28.9727 70.111ZM42.1642 80.4259C42.1642 80.4259 40.9239 81.6662 42.2767 82.0044C43.6296 82.3426 44.1943 83.1312 43.5178 82.2294C42.8414 81.3275 44.3063 80.8768 42.1642 80.4259ZM190.822 83.1118L190.063 83.8536L190.822 83.1153L191.631 83.1259L191.638 83.1223L190.822 83.1118ZM194.721 83.6743C194.75 83.747 194.794 83.7954 194.827 83.8641L194.83 83.8606C194.798 83.7928 194.753 83.7458 194.725 83.6743H194.721ZM192.478 84.2368C192.308 84.3099 192.116 84.3531 191.891 84.3423C191.588 84.3279 191.368 84.3023 191.22 84.2579C191.367 84.3031 191.586 84.3314 191.891 84.3458C192.116 84.3566 192.308 84.3095 192.478 84.2368ZM39.9106 86.2899L39.232 87.6434L41.3732 87.9809L39.9106 86.2899ZM50.3949 99.593C49.2675 99.593 48.4788 100.493 50.1699 100.718C51.861 100.943 52.7623 102.522 53.8897 102.522C55.0171 102.522 52.7624 99.593 50.3949 99.593ZM51.9735 104.666C51.1844 105.455 51.6341 107.482 52.5361 109.061C53.438 110.639 54.0024 108.947 53.8897 107.707C53.777 106.467 53.1009 106.019 51.9735 104.666Z" fill="#F2D405"/>
</svg>
