<svg width="138" height="138" viewBox="0 0 138 138" fill="none" xmlns="http://www.w3.org/2000/svg">
<path d="M34.0454 80.7775C34.0454 80.7775 49.4551 99.1679 64.6214 81.0994C64.7752 81.2929 71.0236 98.5355 85.7583 84.1858C85.914 84.3794 89.2679 93.473 99.2282 85.803C99.3815 86.048 118.738 94.5019 116.77 72.8913C116.615 72.6665 118.886 65.4491 112.295 65.9512C112.295 65.9512 104.747 53.0187 89.7163 65.6823C89.2485 65.5189 84.3138 57.6408 77.0234 64.8165C77.1831 64.6284 73.9548 43.5983 55.3397 54.0969C55.6553 53.9105 39.0269 39.6101 34.3085 55.784C33.9929 55.9727 15.4452 49.4402 22.3568 67.2657C22.3567 67.2746 16.0834 88.9882 34.0454 80.7775Z" fill="#54FFC1" stroke="#3BDBA1" stroke-miterlimit="10" stroke-linecap="round" stroke-linejoin="round"/>
<path d="M27.7987 64.9919C27.7987 64.9919 37.6413 60.9719 41.8137 69.3982" stroke="#3BDBA1" stroke-miterlimit="10" stroke-linecap="round"/>
<path d="M59.3876 69.5831C59.3876 69.5831 52.4446 69.3739 54.5743 61.9159" stroke="#3BDBA1" stroke-miterlimit="10" stroke-linecap="round"/>
<path d="M71.043 75.5649C71.043 75.5649 76.5881 65.1515 92.5548 73.8903C92.6024 73.9164 92.6567 73.9272 92.7104 73.9211C92.7641 73.915 92.8147 73.8925 92.8555 73.8565C93.3702 73.4108 95.6205 72.3148 98.6024 73.4062" stroke="#3BDBA1" stroke-miterlimit="10" stroke-linecap="round"/>
</svg>
