<svg width="404" height="242" viewBox="0 0 404 242" fill="none" xmlns="http://www.w3.org/2000/svg">
<path d="M-42 105H397C400.866 105 404 108.134 404 112C404 115.866 400.866 119 397 119H-42C-45.866 119 -49 115.866 -49 112C-49 108.134 -45.866 105 -42 105Z" fill="#F27500"/>
<path d="M5.91519 130L216 112.158L169.093 107.309L-12.0493 98L-37 112.158L5.91519 130Z" fill="#F27500"/>
<path d="M124.71 91.5495C124.71 22.4885 39.4796 2.03785 -3.13561 0.445129L-121.115 30.943V314.44H339.443C339.443 86.6476 124.71 177.876 124.71 91.5495Z" fill="white"/>
</svg>
