<svg width="155" height="194" viewBox="0 0 155 194" fill="none" xmlns="http://www.w3.org/2000/svg">
<path d="M3.60997 22.9392C4.4131 24.2313 7.8264 23.4776 9.43266 22.9392C10.8381 21.7277 13.0467 23.343 14.4522 23.343C15.8577 23.343 16.8616 20.1125 17.6647 19.3049C18.4679 18.4973 17.0624 16.2763 19.0702 15.0649C21.078 13.8535 21.8812 14.2573 22.4835 16.2763C23.0859 18.2954 26.2984 18.2954 27.5031 21.122C28.4668 23.3834 30.5148 23.1411 30.7156 20.7182C30.9164 18.2954 32.8439 17.8915 33.3258 16.2763C33.9281 14.2573 34.3297 13.4496 36.9398 15.0649C39.55 16.6801 38.9477 15.2668 40.7547 15.0649C42.5617 14.863 42.7625 17.4877 43.9672 17.4877C45.1719 17.4877 44.9711 16.4782 44.3688 13.4496C43.8869 11.0268 45.5065 10.4211 46.3766 10.4211C47.1797 10.7576 48.8663 10.8249 49.1876 8.40204C49.5891 5.37347 51.5969 3.55633 53.8055 5.97918C56.0142 8.40204 57.6204 6.38299 57.8212 6.5849C59.0259 1.73919 63.6439 1.53728 65.2501 2.54681C66.8564 3.55633 67.6595 2.74871 67.8603 2.95061C73.6428 -0.279858 74.553 -0.010652 74.2853 0.52776C73.4822 1.26808 72.0767 2.91023 72.8799 3.55633C73.8838 4.36395 74.6869 4.16204 75.6908 6.9887C76.6947 9.81537 93.5604 11.4306 94.1628 11.4306C94.7651 11.4306 95.5683 12.2382 93.5604 13.4496C91.5526 14.6611 89.9464 20.1125 91.7534 22.1315C93.5604 24.1506 93.3596 25.9677 93.1589 26.7753C92.9982 27.4214 89.4779 27.4484 87.7377 27.3811C87.7377 28.5925 86.1716 31.1365 79.9072 31.621C72.0767 32.2268 74.6869 40.5048 76.6947 41.5144C78.7025 42.5239 77.4978 44.7448 77.4978 44.1391C74.4861 47.5715 73.0806 57.2629 85.5291 64.1277C95.4879 69.6195 98.1115 80.0108 98.1784 84.52C99.1154 86.0007 101.793 89.8503 105.005 93.4038C109.021 97.8457 119.06 101.682 124.682 100.874C130.304 100.067 128.497 104.307 128.296 104.105C124.601 104.751 125.284 108.277 126.087 109.96C138.937 113.998 150.315 121.872 154.397 125.305V135.602C152.39 129.343 143.354 127.728 143.756 127.728C139.138 122.276 135.524 133.179 134.922 133.179C134.319 133.179 133.918 141.861 135.524 141.861C145.914 142.669 141.347 154.177 140.945 154.379C133.235 154.541 133.048 158.888 133.918 161.042C134.788 161.311 135.524 162.496 131.508 165.08C126.489 168.31 130.705 170.733 126.69 172.147C123.477 173.277 121.068 170.06 120.264 168.31L114.04 181.636C115.379 183.521 117.253 188.097 114.04 191.327C110.025 195.366 109.623 192.337 101.391 187.289C94.8053 183.251 87.6708 180.627 84.9268 179.819C81.5135 179.011 75.49 176.064 78.7025 170.733C82.7182 164.07 88.5409 169.926 97.9776 170.128C107.414 170.329 120.264 167.503 120.264 168.108C133.918 157.504 125.686 137.823 121.068 135.602C116.45 133.381 114.04 132.977 113.237 132.371C112.434 131.766 112.836 127.526 110.828 126.718C108.82 125.91 101.19 122.68 97.1745 117.43C93.962 113.231 85.663 110.7 81.9151 109.96C73.1476 103.432 54.6087 87.064 50.593 73.8191C45.5735 57.2629 27.1015 53.6286 25.0937 54.0325C23.0859 54.4363 20.2749 60.2915 18.2671 62.5124C16.6608 64.2892 11.8421 66.0794 9.63345 66.7524C9.96808 65.7429 10.6374 63.6835 10.6374 63.522C11.2799 60.7761 8.22797 59.282 6.62171 58.8782C1.60215 57.2629 0.999803 50.6001 0.397461 50.1963C9.0311 37.8801 1.80293 28.3906 0.999803 27.9868C0.196674 27.583 0.196674 26.3715 1.80293 24.9582C3.40919 23.5449 3.40919 22.9392 3.60997 22.9392Z" fill="#F2D405"/>
</svg>
