<svg width="154" height="193" viewBox="0 0 154 193" fill="none" xmlns="http://www.w3.org/2000/svg">
<path d="M3.21251 22.7404C4.01564 24.0326 7.42894 23.2788 9.0352 22.7404C10.4407 21.529 12.6493 23.1442 14.0548 23.1442C15.4602 23.1442 16.4641 19.9138 17.2673 19.1061C18.0704 18.2985 16.6649 16.0776 18.6728 14.8662C20.6806 13.6547 21.4837 14.0585 22.0861 16.0776C22.6884 18.0966 25.9009 18.0966 27.1056 20.9233C28.0694 23.1846 30.1173 22.9423 30.3181 20.5195C30.5189 18.0966 32.4464 17.6928 32.9283 16.0776C33.5306 14.0585 33.9322 13.2509 36.5424 14.8662C39.1525 16.4814 38.5502 15.0681 40.3572 14.8662C42.1643 14.6643 42.3651 17.289 43.5698 17.289C44.7744 17.289 44.5737 16.2795 43.9713 13.2509C43.4894 10.8281 45.1091 10.2224 45.9791 10.2224C46.7823 10.5589 48.4688 10.6262 48.7901 8.20331C49.1917 5.17474 51.1995 3.3576 53.4081 5.78045C55.6167 8.20331 57.2229 6.18426 57.4237 6.38617C58.6284 1.54046 63.2464 1.33855 64.8527 2.34808C66.4589 3.3576 67.2621 2.54998 67.4628 2.75188C73.2454 -0.478588 74.1556 -0.209382 73.8879 0.32903C73.0847 1.06935 71.6793 2.7115 72.4824 3.3576C73.4863 4.16522 74.2894 3.96331 75.2934 6.78997C76.2973 9.61664 93.163 11.2319 93.7653 11.2319C94.3677 11.2319 95.1708 12.0395 93.163 13.2509C91.1552 14.4623 89.5489 19.9138 91.3559 21.9328C93.163 23.9519 92.9622 25.769 92.7614 26.5766C92.6008 27.2227 89.0804 27.2496 87.3403 27.1823C87.3403 28.3938 85.7742 30.9377 79.5098 31.4223C71.6793 32.028 74.2894 40.3061 76.2973 41.3156C78.3051 42.3252 77.1004 44.5461 77.1004 43.9404C74.0887 47.3728 72.6832 57.0642 85.1317 63.9289C95.0905 69.4207 97.714 79.8121 97.781 84.3213C98.7179 85.8019 101.395 89.6516 104.608 93.2051C108.623 97.647 118.662 101.483 124.284 100.676C129.906 99.8679 128.099 104.108 127.898 103.906C124.204 104.552 124.887 108.079 125.69 109.761C138.54 113.799 149.917 121.674 154 125.106V135.403C151.992 129.144 142.957 127.529 143.359 127.529C138.741 122.077 135.126 132.98 134.524 132.98C133.922 132.98 133.52 141.662 135.126 141.662C145.517 142.47 140.949 153.978 140.548 154.18C132.838 154.342 132.65 158.689 133.52 160.843C134.39 161.112 135.126 162.297 131.111 164.881C126.091 168.112 130.308 170.535 126.292 171.948C123.08 173.079 120.67 169.861 119.867 168.112L113.643 181.437C114.981 183.322 116.855 187.898 113.643 191.129C109.627 195.167 109.226 192.138 100.993 187.091C94.4078 183.053 87.2734 180.428 84.5293 179.62C81.116 178.813 75.0926 175.865 78.3051 170.535C82.3207 163.872 88.1434 169.727 97.5802 169.929C107.017 170.131 119.867 167.304 119.867 167.91C133.52 157.306 125.288 137.624 120.67 135.403C116.052 133.182 113.643 132.778 112.84 132.173C112.037 131.567 112.438 127.327 110.43 126.519C108.422 125.712 100.793 122.481 96.7771 117.232C93.5645 113.032 85.2655 110.502 81.5176 109.761C72.7501 103.233 54.2112 86.8653 50.1956 73.6204C45.176 57.0642 26.704 53.4299 24.6962 53.8337C22.6884 54.2375 19.8774 60.0928 17.8696 62.3137C16.2634 64.0905 11.4446 65.8807 9.23598 66.5537C9.57062 65.5442 10.2399 63.4848 10.2399 63.3232C10.8824 60.5773 7.83051 59.0832 6.22425 58.6794C1.20469 57.0642 0.602342 50.4013 0 49.9975C8.63364 37.6814 1.40547 28.1918 0.602342 27.788C-0.200787 27.3842 -0.200787 26.1728 1.40547 24.7595C3.01173 23.3461 3.01173 22.7404 3.21251 22.7404Z" fill="white"/>
</svg>
