<svg width="115" height="266" viewBox="0 0 115 266" fill="none" xmlns="http://www.w3.org/2000/svg">
<g clip-path="url(#clip0)">
<path d="M48.9834 3.35139C48.9834 3.35139 126.686 0.248258 111.021 70.2548C107.292 86.8875 92.2483 99.1759 74.7185 99.1759C74.0969 99.1759 73.5996 99.1759 72.978 99.1759" stroke="#F35B84" stroke-width="3" stroke-miterlimit="10"/>
<path d="M45.6275 2.23425C46.3734 -0.74475 50.2275 -0.74475 50.9734 2.23425L58.1842 29.5418L68.0058 67.1516H48.2383H28.4707L38.2923 29.5418L45.6275 2.23425Z" fill="#ED1D54"/>
<path d="M80.5622 96.4451V66.9034C80.5622 60.0765 75.8379 52.7531 69 52.7531C49.3568 52.629 45.7514 51.636 25.9838 52.2566C19.2703 52.5049 14.9189 59.58 14.9189 66.2828V96.4451C14.9189 104.389 21.3838 110.844 29.3406 110.844H65.8919C74.0973 110.844 80.5622 104.389 80.5622 96.4451Z" fill="#F35B84"/>
<path d="M80.6865 266H14.9189C6.71351 266 0 259.297 0 251.105V121.891C0 113.698 1.49189 101.286 11.8108 101.286H82.8C91.0054 101.286 95.6054 108.361 95.6054 121.891V251.105C95.6054 259.297 88.8919 266 80.6865 266Z" fill="#ED1D54"/>
<path d="M52.962 9.80573H43.6377L45.6269 2.2341C45.6269 2.2341 45.9999 0.123975 48.362 -0.000149576C50.7242 -0.124275 50.9728 2.2341 50.9728 2.2341L52.962 9.80573Z" fill="#F35B84"/>
</g>
<defs>
<clipPath id="clip0">
<rect width="115" height="266" fill="white"/>
</clipPath>
</defs>
</svg>
