<svg width="124" height="265" viewBox="0 0 124 265" fill="none" xmlns="http://www.w3.org/2000/svg">
<g clip-path="url(#clip0)">
<path d="M52.8896 3.38742C52.8896 3.38742 136.012 0.299742 119.255 69.9577C115.265 86.5077 99.1722 98.7349 80.4198 98.7349C79.7548 98.7349 79.2228 98.7349 78.5578 98.7349" stroke="#F35B84" stroke-width="3" stroke-miterlimit="10"/>
<path d="M49.2987 2.27635C50.0967 -0.687819 54.2196 -0.687819 55.0176 2.27635L62.7313 29.4479L73.238 66.8705L52.0916 66.8705L30.9453 66.8705L41.452 29.4479L49.2987 2.27635Z" fill="#43EDB0"/>
<path d="M86.6711 96.0178L86.6711 66.6232C86.6711 59.8303 81.6172 52.5433 74.3024 52.5433C53.2891 52.4198 49.4322 51.4318 28.2859 52.0493C21.1041 52.2963 16.4492 59.3362 16.4492 66.0056L16.4492 96.0178C16.4492 103.922 23.365 110.345 31.8767 110.345L70.9775 110.345C79.7553 110.345 86.6711 103.922 86.6711 96.0178Z" fill="#F35B84"/>
<path d="M86.8036 264.729L16.4488 264.729C7.67103 264.729 0.489249 258.06 0.489249 249.908L0.489257 121.337C0.489257 113.186 2.08521 100.835 13.1239 100.835L89.0645 100.835C97.8422 100.835 102.763 107.875 102.763 121.337L102.763 249.908C102.763 258.06 95.5813 264.729 86.8036 264.729Z" fill="#43EDB0"/>
<path d="M57.1456 9.80986L47.1709 9.80986L49.2988 2.27593C49.2988 2.27593 49.6978 0.176313 52.2248 0.0528056C54.7517 -0.0707013 55.0177 2.27593 55.0177 2.27593L57.1456 9.80986Z" fill="#F35B84"/>
</g>
<defs>
<clipPath id="clip0">
<rect width="123.021" height="264.676" fill="white" transform="translate(0.489258 0.0532227)"/>
</clipPath>
</defs>
</svg>
