<svg width="199" height="298" viewBox="0 0 199 298" fill="none" xmlns="http://www.w3.org/2000/svg">
<path d="M-125.302 271.35H158.6C162.466 271.35 165.6 274.484 165.6 278.35C165.6 282.216 162.466 285.35 158.6 285.35H-125.302C-129.168 285.35 -132.302 282.216 -132.302 278.35C-132.302 274.484 -129.168 271.35 -125.302 271.35Z" fill="#F27500"/>
<path d="M-51.7782 296L86.3776 278.158L55.5304 273.309L-63.592 264L-80 278.158L-51.7782 296Z" fill="#F27500"/>
<g filter="url(#filter0_i)">
<g clip-path="url(#clip0)" filter="url(#filter1_i)">
<path d="M71.0555 256.783C51.8874 240.602 39.1216 211.784 39.1216 178.923C39.1216 128.317 69.4021 87.2932 106.748 87.2932C144.094 87.2932 174.375 128.317 174.375 178.923C174.375 211.247 162.022 239.652 143.373 255.967" fill="#FDE01B"/>
<path d="M108.094 133.857C144.593 133.857 174.182 104.3 174.182 67.8381C174.182 31.3766 144.593 1.8187 108.094 1.8187C71.594 1.8187 42.0052 31.3766 42.0052 67.8381C42.0052 104.3 71.594 133.857 108.094 133.857Z" fill="#FDE01B"/>
<path d="M154.63 114.633L164.32 106.211C164.424 106.123 164.497 106.004 164.528 105.87C164.558 105.737 164.543 105.598 164.487 105.474C164.43 105.349 164.334 105.247 164.213 105.183C164.093 105.118 163.955 105.095 163.82 105.116L162.435 105.318L169.164 99.1337C169.266 99.0402 169.333 98.9157 169.356 98.7798C169.379 98.6439 169.357 98.5042 169.292 98.3825C169.227 98.2608 169.124 98.1639 168.998 98.107C168.873 98.0501 168.732 98.0363 168.597 98.0678L166.521 98.5672" fill="#FDEC77"/>
<path d="M59.8854 113.134L50.4552 104.377C50.3585 104.284 50.2942 104.163 50.2715 104.031C50.2489 103.9 50.2692 103.764 50.3295 103.645C50.3898 103.525 50.4868 103.429 50.6064 103.368C50.7259 103.308 50.8616 103.288 50.9935 103.311L52.3681 103.56L45.8506 97.1458C45.7517 97.0488 45.6879 96.9217 45.6692 96.7845C45.6505 96.6473 45.678 96.5078 45.7473 96.3879C45.8167 96.2681 45.924 96.1746 46.0523 96.1223C46.1806 96.0701 46.3228 96.0619 46.4563 96.0991L48.5134 96.656" fill="#FDE01B"/>
<path d="M109.737 69.4225L116.014 78.065C116.145 78.1988 116.248 78.3574 116.317 78.5315C116.385 78.7055 116.418 78.8916 116.414 79.0786C116.409 79.2657 116.367 79.4499 116.291 79.6205C116.214 79.7911 116.103 79.9446 115.966 80.072L109.324 91.2497C109.049 91.5096 108.683 91.6505 108.305 91.6415C107.926 91.6325 107.567 91.4744 107.305 91.2017L101.028 79.6783C100.761 79.4102 100.612 79.0478 100.612 78.67C100.612 78.2922 100.761 77.9297 101.028 77.6617L107.68 69.4321C107.811 69.2901 107.969 69.1766 108.146 69.0986C108.323 69.0207 108.513 68.98 108.706 68.9791C108.9 68.9782 109.091 69.0171 109.268 69.0934C109.445 69.1697 109.605 69.2817 109.737 69.4225Z" fill="#FDEC77"/>
<path d="M103.211 80.0167C102.976 79.7517 102.847 79.4102 102.847 79.0564C102.847 78.7027 102.976 78.3612 103.211 78.0962C103.211 78.0962 108.165 71.2511 108.806 70.6102C109.447 69.9694 109.127 69.1684 109.127 69.1684C108.646 68.621 107.546 69.1271 107.046 69.6553L100.956 77.6595C100.719 77.9235 100.635 78.4605 100.635 78.6207C100.635 78.7809 100.729 79.3454 100.956 79.582C101.182 79.8186 106.215 89.8557 106.71 90.6086C107.204 91.3616 108.314 91.8853 108.486 91.5977C108.658 91.3101 108.486 90.4003 108.486 90.4003C108.335 90.2123 108.128 89.9106 108.017 89.6964L103.211 80.0167Z" fill="#F2D405"/>
<g filter="url(#filter2_i)">
<path d="M133.256 73.5125C143.884 73.5125 152.499 64.8974 152.499 54.2702C152.499 43.643 143.884 35.028 133.256 35.028C122.629 35.028 114.014 43.643 114.014 54.2702C114.014 64.8974 122.629 73.5125 133.256 73.5125Z" fill="white"/>
</g>
<path fill-rule="evenodd" clip-rule="evenodd" d="M137.856 41.8806C136.773 41.5378 135.619 41.3529 134.422 41.3529C128.143 41.3529 123.052 46.4436 123.052 52.7233C123.052 59.003 128.143 64.0938 134.422 64.0938C140.702 64.0938 145.793 59.003 145.793 52.7233C145.793 50.7202 145.275 48.8381 144.366 47.2036C143.696 48.7596 142.149 49.8491 140.347 49.8491C137.932 49.8491 135.974 47.8911 135.974 45.4758C135.974 43.986 136.719 42.6703 137.856 41.8806Z" fill="black"/>
<g filter="url(#filter3_i)">
<path d="M84.2762 73.5125C94.9034 73.5125 103.518 64.8974 103.518 54.2702C103.518 43.643 94.9034 35.028 84.2762 35.028C73.649 35.028 65.0339 43.643 65.0339 54.2702C65.0339 64.8974 73.649 73.5125 84.2762 73.5125Z" fill="white"/>
</g>
<path d="M138.326 12.0454L164.675 38.7509C164.882 38.9594 165.145 39.1041 165.432 39.1679C165.719 39.2316 166.019 39.2118 166.295 39.1107C166.571 39.0097 166.813 38.8316 166.991 38.5976C167.169 38.3636 167.276 38.0835 167.299 37.7906V2.71149C167.322 2.47362 167.288 2.23381 167.202 2.01112C167.115 1.78843 166.977 1.58899 166.8 1.42864C166.623 1.2683 166.411 1.1515 166.18 1.08747C165.95 1.02344 165.708 1.01396 165.473 1.05981L139.143 9.44308C138.864 9.48886 138.603 9.61124 138.389 9.79659C138.175 9.98195 138.017 10.223 137.932 10.4928C137.847 10.7627 137.839 11.0507 137.909 11.3249C137.978 11.599 138.123 11.8485 138.326 12.0454Z" fill="#FDE01B"/>
<path d="M146.353 13.6494L161.176 28.6586C161.29 28.7775 161.436 28.861 161.596 28.8992C161.756 28.9374 161.924 28.9286 162.079 28.8738C162.234 28.8191 162.371 28.7207 162.471 28.5906C162.572 28.4604 162.633 28.304 162.647 28.1401L162.33 6.85062C162.348 6.71426 162.333 6.57557 162.286 6.44609C162.24 6.3166 162.163 6.20006 162.063 6.10614C161.962 6.01223 161.841 5.94367 161.708 5.90613C161.576 5.8686 161.436 5.86318 161.301 5.89034L146.795 12.1706C146.638 12.1987 146.491 12.27 146.371 12.3766C146.252 12.4831 146.164 12.6207 146.118 12.774C146.073 12.9273 146.07 13.0903 146.112 13.2449C146.153 13.3995 146.237 13.5395 146.353 13.6494Z" fill="black"/>
<path d="M76.8423 12.0936L50.4549 38.7895C50.2488 38.999 49.9866 39.1447 49.6996 39.2091C49.4127 39.2735 49.1133 39.2538 48.8373 39.1524C48.5613 39.051 48.3204 38.8723 48.1435 38.6376C47.9667 38.4029 47.8614 38.1222 47.8403 37.8292V2.75011C47.8158 2.51176 47.8478 2.27098 47.9337 2.04728C48.0197 1.82358 48.1571 1.62323 48.3349 1.46243C48.5127 1.30163 48.726 1.18487 48.9573 1.12164C49.1887 1.0584 49.4317 1.05046 49.6667 1.09843L75.9963 9.48167C76.2801 9.52173 76.5468 9.64065 76.7661 9.82486C76.9854 10.0091 77.1485 10.2512 77.2367 10.5235C77.3249 10.7958 77.3346 11.0874 77.2649 11.3651C77.1952 11.6427 77.0487 11.8952 76.8423 12.0936Z" fill="#FDE01B"/>
<path d="M68.8154 13.7261L53.9923 28.7065C53.8785 28.8254 53.7328 28.9089 53.5726 28.9471C53.4124 28.9853 53.2446 28.9765 53.0893 28.9217C52.934 28.867 52.7979 28.7686 52.6972 28.6384C52.5964 28.5083 52.5355 28.3519 52.5216 28.188L52.8292 6.89853C52.8112 6.76217 52.826 6.62348 52.8725 6.49399C52.9189 6.36451 52.9956 6.24797 53.0962 6.15405C53.1968 6.06014 53.3183 5.99155 53.4508 5.95401C53.5833 5.91648 53.7228 5.91108 53.8578 5.93825L68.3732 12.2185C68.5394 12.2385 68.6961 12.3068 68.8238 12.4149C68.9516 12.523 69.0448 12.6662 69.0918 12.8267C69.1389 12.9872 69.1378 13.1579 69.0887 13.3178C69.0395 13.4777 68.9445 13.6197 68.8154 13.7261Z" fill="black"/>
<path d="M110.208 1.85702L123.041 1.41527C123.175 1.41241 123.306 1.45246 123.415 1.52953C123.525 1.6066 123.606 1.71664 123.648 1.84345C123.69 1.97026 123.69 2.10717 123.648 2.23406C123.607 2.36095 123.525 2.47111 123.416 2.54839L122.272 3.34544L131.414 3.27821C131.554 3.27432 131.692 3.31768 131.804 3.4013C131.917 3.48491 131.998 3.60393 132.035 3.73919C132.071 3.87445 132.061 4.01808 132.006 4.14698C131.951 4.27587 131.854 4.38251 131.731 4.44976L129.876 5.49646" fill="#FDE01B"/>
<path d="M85.1671 5.90948L97.8273 0.43589C97.9546 0.383735 98.0956 0.375045 98.2285 0.411185C98.3613 0.447325 98.4784 0.526276 98.5617 0.635753C98.645 0.745231 98.6897 0.879103 98.689 1.01661C98.6883 1.15411 98.6422 1.28755 98.5578 1.39617L97.5581 2.66375" fill="#F27500"/>
<path d="M85.1671 5.90912L97.8273 0.435531C97.9546 0.383376 98.0956 0.374687 98.2285 0.410827C98.3613 0.446967 98.4784 0.525917 98.5617 0.635395C98.645 0.744872 98.6897 0.878744 98.689 1.01625C98.6883 1.15375 98.6422 1.28719 98.5578 1.39581L97.5581 2.66339" fill="#FDE01B"/>
<path d="M98.8172 2.48132L111.429 0.0613873C111.56 0.0389315 111.694 0.0586318 111.813 0.117595C111.932 0.176559 112.029 0.271735 112.09 0.389374C112.151 0.507013 112.173 0.640989 112.153 0.771928C112.132 0.902866 112.071 1.02397 111.977 1.1177L111.016 2.07799" fill="#FDE01B"/>
<path fill-rule="evenodd" clip-rule="evenodd" d="M89.8808 41.9227C88.7598 41.553 87.5617 41.3529 86.3168 41.3529C80.0371 41.3529 74.9464 46.4436 74.9464 52.7233C74.9464 59.003 80.0371 64.0938 86.3168 64.0938C92.5965 64.0938 97.6873 59.003 97.6873 52.7233C97.6873 50.797 97.2082 48.9826 96.3628 47.3927C95.6524 48.8472 94.1587 49.8491 92.431 49.8491C90.0157 49.8491 88.0577 47.8911 88.0577 45.4758C88.0577 44.0122 88.7768 42.7165 89.8808 41.9227Z" fill="black"/>
<ellipse cx="84.7135" cy="74.8244" rx="15.3063" ry="8.30914" fill="#FDE01B"/>
<ellipse cx="135.443" cy="74.8244" rx="18.8049" ry="8.30914" fill="#FDE01B"/>
<path d="M78.206 173.709C82.3714 177.608 92.3685 182.361 99.0332 170.185C98.3924 170.665 108.806 187.487 118.579 170.185C119.22 170.185 128.832 187.487 137.644 170.185" stroke="#FDEC77" stroke-width="4" stroke-linecap="round" stroke-linejoin="round"/>
<path d="M89.2604 159.931C96.3097 159.931 99.3537 154.805 99.9945 152.241C99.3537 152.722 109.767 169.544 119.54 152.241C120.181 154.805 123.225 159.931 130.274 159.931" stroke="#FDEC77" stroke-width="4" stroke-linecap="round" stroke-linejoin="round"/>
<path d="M142.943 37.7142C146.744 37.2209 154.065 34.3119 152.943 26.6221" stroke="black" stroke-width="2.5" stroke-linecap="round" stroke-linejoin="round"/>
<path d="M147.091 40.0409C150.926 39.852 158.43 37.5412 157.764 29.8096" stroke="black" stroke-width="2.5" stroke-linecap="round" stroke-linejoin="round"/>
<path d="M151.112 43.4932C154.953 43.382 162.499 41.2256 161.949 33.4891" stroke="black" stroke-width="2.5" stroke-linecap="round" stroke-linejoin="round"/>
<path d="M76.6425 36.2421C72.7267 35.7339 65.1842 32.7369 66.34 24.8145" stroke="black" stroke-width="2.5" stroke-linecap="round" stroke-linejoin="round"/>
<path d="M72.3694 38.6392C68.4179 38.4445 60.6865 36.0639 61.373 28.0984" stroke="black" stroke-width="2.5" stroke-linecap="round" stroke-linejoin="round"/>
<path d="M68.2266 42.1958C64.2689 42.0813 56.4952 39.8597 57.0614 31.8892" stroke="black" stroke-width="2.5" stroke-linecap="round" stroke-linejoin="round"/>
<path d="M116.872 78.6095L110.054 90.4508C109.487 90.8004 108.158 91.1271 107.377 89.6368C106.596 88.1465 102.892 80.9159 101.138 77.4868" stroke="#F35B84" stroke-width="2" stroke-linecap="round"/>
</g>
<path d="M145.618 276.36V269.015C145.618 266.36 143.466 264.208 140.811 264.208C138.156 264.208 136.004 266.36 136.004 269.015V276.36C136.004 279.015 138.156 281.167 140.811 281.167C143.466 281.167 145.618 279.015 145.618 276.36Z" fill="#FDE01B"/>
<path d="M136.5 276.934V269.702C136.5 267.088 134.381 264.969 131.767 264.969C129.153 264.969 127.034 267.088 127.034 269.702V276.934C127.034 279.548 129.153 281.667 131.767 281.667C134.381 281.667 136.5 279.548 136.5 276.934Z" fill="#FDE01B"/>
<path d="M128.313 276.706V269.361C128.313 266.706 126.161 264.554 123.506 264.554C120.851 264.554 118.699 266.706 118.699 269.361V276.706C118.699 279.361 120.851 281.513 123.506 281.513C126.161 281.513 128.313 279.361 128.313 276.706Z" fill="#FDE01B"/>
<path d="M99.5773 275.601V268.256C99.5773 265.601 97.4251 263.449 94.7702 263.449C92.1154 263.449 89.9632 265.601 89.9632 268.256V275.601C89.9632 278.256 92.1154 280.408 94.7702 280.408C97.4251 280.408 99.5773 278.256 99.5773 275.601Z" fill="#FDE01B"/>
<path d="M90.9246 275.601V268.256C90.9246 265.601 88.7724 263.449 86.1175 263.449C83.4627 263.449 81.3105 265.601 81.3105 268.256V275.601C81.3105 278.256 83.4627 280.408 86.1175 280.408C88.7724 280.408 90.9246 278.256 90.9246 275.601Z" fill="#FDE01B"/>
<path d="M82.2816 275.947V268.601C82.2816 265.947 80.1294 263.794 77.4746 263.794C74.8197 263.794 72.6675 265.947 72.6675 268.601V275.947C72.6675 278.602 74.8197 280.754 77.4746 280.754C80.1294 280.754 82.2816 278.602 82.2816 275.947Z" fill="#FDE01B"/>
<path d="M138.281 251.794C138.281 250.003 135.446 248.551 131.949 248.551C128.453 248.551 125.618 250.003 125.618 251.794V267.756C125.618 269.547 128.453 270.998 131.949 270.998C135.446 270.998 138.281 269.547 138.281 267.756V251.794Z" fill="#FDE01B"/>
<path d="M91.6606 251.794C91.6606 250.003 88.9549 248.551 85.6172 248.551C82.2796 248.551 79.5739 250.003 79.5739 251.794V267.756C79.5739 269.547 82.2796 270.998 85.6172 270.998C88.9549 270.998 91.6606 269.547 91.6606 267.756V251.794Z" fill="#FDE01B"/>
<g filter="url(#filter4_d)">
<path d="M67.1896 181.822C62.2998 205.494 51.0987 225.636 36.731 239.385C27.3172 220.387 24.1245 195.555 29.425 169.868C34.3164 146.186 45.5159 126.054 59.8852 112.296C69.2929 131.274 72.495 156.107 67.1896 181.822Z" fill="#FDEC77"/>
</g>
<g filter="url(#filter5_d)">
<path d="M184.165 177.815C187.219 201.793 183.159 224.479 174.029 242.146C158.96 227.23 147.884 204.777 144.565 178.76C141.508 154.772 145.571 132.095 154.699 114.42C169.755 129.318 180.84 151.77 184.165 177.815Z" fill="#FDEC77"/>
</g>
</g>
<defs>
<filter id="filter0_i" x="17.7917" y="0.0421066" width="176.137" height="301.38" filterUnits="userSpaceOnUse" color-interpolation-filters="sRGB">
<feFlood flood-opacity="0" result="BackgroundImageFix"/>
<feBlend mode="normal" in="SourceGraphic" in2="BackgroundImageFix" result="shape"/>
<feColorMatrix in="SourceAlpha" type="matrix" values="0 0 0 0 0 0 0 0 0 0 0 0 0 0 0 0 0 0 127 0" result="hardAlpha"/>
<feOffset dy="4"/>
<feGaussianBlur stdDeviation="2"/>
<feComposite in2="hardAlpha" operator="arithmetic" k2="-1" k3="1"/>
<feColorMatrix type="matrix" values="0 0 0 0 0 0 0 0 0 0 0 0 0 0 0 0 0 0 0.25 0"/>
<feBlend mode="normal" in2="shape" result="effect1_innerShadow"/>
</filter>
<filter id="filter1_i" x="38.7945" y="-14.9579" width="155.57" height="312.38" filterUnits="userSpaceOnUse" color-interpolation-filters="sRGB">
<feFlood flood-opacity="0" result="BackgroundImageFix"/>
<feBlend mode="normal" in="SourceGraphic" in2="BackgroundImageFix" result="shape"/>
<feColorMatrix in="SourceAlpha" type="matrix" values="0 0 0 0 0 0 0 0 0 0 0 0 0 0 0 0 0 0 127 0" result="hardAlpha"/>
<feOffset dx="20" dy="-15"/>
<feGaussianBlur stdDeviation="10"/>
<feComposite in2="hardAlpha" operator="arithmetic" k2="-1" k3="1"/>
<feColorMatrix type="matrix" values="0 0 0 0 0 0 0 0 0 0 0 0 0 0 0 0 0 0 0.12 0"/>
<feBlend mode="normal" in2="shape" result="effect1_innerShadow"/>
</filter>
<filter id="filter2_i" x="114.014" y="35.028" width="38.4845" height="42.4845" filterUnits="userSpaceOnUse" color-interpolation-filters="sRGB">
<feFlood flood-opacity="0" result="BackgroundImageFix"/>
<feBlend mode="normal" in="SourceGraphic" in2="BackgroundImageFix" result="shape"/>
<feColorMatrix in="SourceAlpha" type="matrix" values="0 0 0 0 0 0 0 0 0 0 0 0 0 0 0 0 0 0 127 0" result="hardAlpha"/>
<feOffset dy="4"/>
<feGaussianBlur stdDeviation="2"/>
<feComposite in2="hardAlpha" operator="arithmetic" k2="-1" k3="1"/>
<feColorMatrix type="matrix" values="0 0 0 0 0 0 0 0 0 0 0 0 0 0 0 0 0 0 0.15 0"/>
<feBlend mode="normal" in2="shape" result="effect1_innerShadow"/>
</filter>
<filter id="filter3_i" x="65.0339" y="35.028" width="38.4845" height="42.4845" filterUnits="userSpaceOnUse" color-interpolation-filters="sRGB">
<feFlood flood-opacity="0" result="BackgroundImageFix"/>
<feBlend mode="normal" in="SourceGraphic" in2="BackgroundImageFix" result="shape"/>
<feColorMatrix in="SourceAlpha" type="matrix" values="0 0 0 0 0 0 0 0 0 0 0 0 0 0 0 0 0 0 127 0" result="hardAlpha"/>
<feOffset dy="4"/>
<feGaussianBlur stdDeviation="2"/>
<feComposite in2="hardAlpha" operator="arithmetic" k2="-1" k3="1"/>
<feColorMatrix type="matrix" values="0 0 0 0 0 0 0 0 0 0 0 0 0 0 0 0 0 0 0.15 0"/>
<feBlend mode="normal" in2="shape" result="effect1_innerShadow"/>
</filter>
<filter id="filter4_d" x="14.7917" y="108.826" width="69.0328" height="142.028" filterUnits="userSpaceOnUse" color-interpolation-filters="sRGB">
<feFlood flood-opacity="0" result="BackgroundImageFix"/>
<feColorMatrix in="SourceAlpha" type="matrix" values="0 0 0 0 0 0 0 0 0 0 0 0 0 0 0 0 0 0 127 0"/>
<feOffset dx="1" dy="4"/>
<feGaussianBlur stdDeviation="2"/>
<feColorMatrix type="matrix" values="0 0 0 0 0 0 0 0 0 0 0 0 0 0 0 0 0 0 0.15 0"/>
<feBlend mode="normal" in2="BackgroundImageFix" result="effect1_dropShadow"/>
<feBlend mode="normal" in="SourceGraphic" in2="effect1_dropShadow" result="shape"/>
</filter>
<filter id="filter5_d" x="131.799" y="111.407" width="67.1302" height="141.751" filterUnits="userSpaceOnUse" color-interpolation-filters="sRGB">
<feFlood flood-opacity="0" result="BackgroundImageFix"/>
<feColorMatrix in="SourceAlpha" type="matrix" values="0 0 0 0 0 0 0 0 0 0 0 0 0 0 0 0 0 0 127 0"/>
<feOffset dx="1" dy="4"/>
<feGaussianBlur stdDeviation="2"/>
<feColorMatrix type="matrix" values="0 0 0 0 0 0 0 0 0 0 0 0 0 0 0 0 0 0 0.15 0"/>
<feBlend mode="normal" in2="BackgroundImageFix" result="effect1_dropShadow"/>
<feBlend mode="normal" in="SourceGraphic" in2="effect1_dropShadow" result="shape"/>
</filter>
<clipPath id="clip0">
<rect width="135.57" height="297.38" fill="white" transform="translate(38.7945 0.0421066)"/>
</clipPath>
</defs>
</svg>
