<svg width="184" height="296" viewBox="0 0 184 296" fill="none" xmlns="http://www.w3.org/2000/svg">
<path d="M300.168 283.55H16.2664C12.4004 283.55 9.26636 280.416 9.26636 276.55C9.26636 272.684 12.4004 269.55 16.2664 269.55H300.168C304.034 269.55 307.168 272.684 307.168 276.55C307.168 280.416 304.034 283.55 300.168 283.55Z" fill="#F27500"/>
<path d="M271.054 262.55L132.899 280.393L163.746 285.241L282.868 294.55L299.276 280.393L271.054 262.55Z" fill="#F27500"/>
<g filter="url(#filter0_i)">
<g clip-path="url(#clip0)" filter="url(#filter1_i)">
<path d="M55.9032 254.928C36.9126 238.897 24.2649 210.346 24.2649 177.789C24.2649 127.651 54.2651 87.0072 91.2654 87.0072C128.266 87.0072 158.266 127.651 158.266 177.789C158.266 209.813 146.028 237.955 127.551 254.119" fill="#3BDBA1"/>
<path d="M92.5985 133.14C128.76 133.14 158.075 103.856 158.075 67.7322C158.075 31.6082 128.76 2.32401 92.5985 2.32401C56.4367 2.32401 27.1218 31.6082 27.1218 67.7322C27.1218 103.856 56.4367 133.14 92.5985 133.14Z" fill="#3BDBA1"/>
<path d="M138.704 114.094L148.304 105.75C148.407 105.663 148.48 105.544 148.51 105.412C148.54 105.281 148.525 105.142 148.469 105.019C148.413 104.896 148.318 104.795 148.199 104.731C148.079 104.667 147.942 104.644 147.808 104.665L146.437 104.865L153.104 98.7381C153.204 98.6454 153.271 98.5221 153.294 98.3875C153.317 98.2528 153.294 98.1144 153.23 97.9938C153.166 97.8732 153.064 97.7773 152.939 97.7209C152.815 97.6645 152.675 97.6508 152.542 97.6821L150.485 98.1768" fill="#3BDBA1"/>
<path d="M44.8365 112.609L35.4936 103.933C35.3978 103.841 35.3341 103.721 35.3116 103.59C35.2892 103.46 35.3094 103.326 35.3691 103.207C35.4288 103.089 35.525 102.993 35.6434 102.934C35.7618 102.874 35.8963 102.854 36.0269 102.877L37.3888 103.124L30.9317 96.7686C30.8337 96.6725 30.7704 96.5466 30.7519 96.4107C30.7333 96.2747 30.7606 96.1365 30.8293 96.0177C30.898 95.899 31.0043 95.8064 31.1315 95.7546C31.2586 95.7028 31.3994 95.6947 31.5317 95.7316L33.5697 96.2834" fill="#3BDBA1"/>
<path d="M94.2267 69.3019L100.446 77.8644C100.576 77.997 100.677 78.1541 100.745 78.3266C100.813 78.4991 100.846 78.6834 100.842 78.8687C100.837 79.054 100.796 79.2365 100.72 79.4056C100.643 79.5746 100.534 79.7267 100.398 79.8529L93.8172 90.9271C93.5451 91.1846 93.1821 91.3241 92.8074 91.3152C92.4327 91.3063 92.0767 91.1497 91.8172 90.8795L85.5981 79.4628C85.3341 79.1972 85.1859 78.8381 85.1859 78.4638C85.1859 78.0895 85.3341 77.7304 85.5981 77.4648L92.1887 69.3114C92.3182 69.1708 92.4753 69.0583 92.6503 68.9811C92.8253 68.9039 93.0143 68.8636 93.2056 68.8627C93.3969 68.8618 93.5863 68.9003 93.762 68.9759C93.9377 69.0515 94.0959 69.1625 94.2267 69.3019Z" fill="#FDE01B"/>
<path d="M87.7605 79.7981C87.5281 79.5355 87.3999 79.1971 87.3999 78.8467C87.3999 78.4962 87.5281 78.1579 87.7605 77.8953C87.7605 77.8953 92.6694 71.1136 93.3043 70.4787C93.9392 69.8438 93.6217 69.0501 93.6217 69.0501C93.1455 68.5078 92.0557 69.0093 91.5605 69.5325L85.5267 77.4626C85.2924 77.7243 85.2092 78.2563 85.2092 78.415C85.2092 78.5737 85.3024 79.1329 85.5267 79.3674C85.7509 79.6018 90.7373 89.5459 91.2272 90.2919C91.717 91.0379 92.8163 91.5567 92.9868 91.2718C93.1573 90.987 92.9868 90.0856 92.9868 90.0856C92.837 89.8992 92.6323 89.6004 92.5224 89.3881L87.7605 79.7981Z" fill="#F2D405"/>
<g filter="url(#filter2_i)">
<path d="M117.341 73.3953C127.87 73.3953 136.405 64.86 136.405 54.3312C136.405 43.8024 127.87 35.2671 117.341 35.2671C106.812 35.2671 98.2771 43.8024 98.2771 54.3312C98.2771 64.86 106.812 73.3953 117.341 73.3953Z" fill="white"/>
</g>
<path fill-rule="evenodd" clip-rule="evenodd" d="M119.468 43.193C118.751 43.0499 118.009 42.9749 117.25 42.9749C111.029 42.9749 105.985 48.0184 105.985 54.24C105.985 60.4616 111.029 65.5052 117.25 65.5052C123.472 65.5052 128.515 60.4616 128.515 54.24C128.515 52.0355 127.882 49.9789 126.788 48.2422C125.98 49.3613 124.665 50.0897 123.179 50.0897C120.723 50.0897 118.732 48.0988 118.732 45.6429C118.732 44.7376 119.003 43.8955 119.468 43.193Z" fill="black"/>
<g filter="url(#filter3_i)">
<path d="M68.7229 73.3953C79.2517 73.3953 87.787 64.86 87.787 54.3312C87.787 43.8024 79.2517 35.2671 68.7229 35.2671C58.1941 35.2671 49.6588 43.8024 49.6588 54.3312C49.6588 64.86 58.1941 73.3953 68.7229 73.3953Z" fill="white"/>
</g>
<path d="M122.551 12.4561L148.656 38.9143C148.861 39.1208 149.122 39.2642 149.406 39.3274C149.691 39.3906 149.987 39.371 150.261 39.2708C150.535 39.1707 150.774 38.9942 150.95 38.7624C151.126 38.5306 151.233 38.2531 151.256 37.9629V3.20853C151.278 2.97287 151.245 2.73527 151.159 2.51464C151.073 2.29402 150.937 2.09642 150.761 1.93756C150.586 1.7787 150.375 1.66298 150.147 1.59955C149.919 1.53611 149.679 1.52672 149.446 1.57214L123.36 9.8778C123.084 9.92316 122.825 10.0444 122.613 10.228C122.401 10.4117 122.245 10.6505 122.161 10.9178C122.077 11.1852 122.069 11.4706 122.138 11.7422C122.206 12.0138 122.35 12.2609 122.551 12.4561Z" fill="#3BDBA1"/>
<path d="M130.504 14.0452L145.189 28.9154C145.302 29.0332 145.447 29.116 145.605 29.1538C145.764 29.1916 145.93 29.1829 146.084 29.1287C146.238 29.0744 146.373 28.977 146.473 28.848C146.572 28.7191 146.633 28.5641 146.647 28.4017L146.332 7.30934C146.35 7.17424 146.336 7.03683 146.29 6.90855C146.244 6.78026 146.167 6.6648 146.068 6.57175C145.968 6.47871 145.848 6.41078 145.716 6.37359C145.585 6.33641 145.447 6.33103 145.313 6.35795L130.942 12.5801C130.786 12.6079 130.64 12.6786 130.522 12.7841C130.403 12.8897 130.317 13.026 130.271 13.1779C130.226 13.3298 130.223 13.4913 130.265 13.6444C130.306 13.7975 130.388 13.9363 130.504 14.0452Z" fill="black"/>
<path d="M61.6363 12.5038L35.4933 38.9525C35.2891 39.1601 35.0292 39.3045 34.745 39.3682C34.4607 39.432 34.164 39.4125 33.8906 39.3121C33.6171 39.2117 33.3785 39.0346 33.2033 38.802C33.0281 38.5695 32.9238 38.2914 32.9028 38.0011V3.24677C32.8786 3.01062 32.9103 2.77207 32.9954 2.55045C33.0805 2.32882 33.2167 2.13033 33.3929 1.97101C33.5691 1.8117 33.7803 1.69602 34.0095 1.63337C34.2387 1.57072 34.4795 1.56286 34.7123 1.61038L60.7982 9.91601C61.0793 9.9557 61.3435 10.0735 61.5608 10.256C61.7781 10.4385 61.9397 10.6784 62.0271 10.9482C62.1145 11.218 62.1241 11.5069 62.055 11.782C61.9859 12.057 61.8409 12.3072 61.6363 12.5038Z" fill="#3BDBA1"/>
<path d="M53.6837 14.1212L38.9979 28.9629C38.8851 29.0807 38.7407 29.1635 38.582 29.2013C38.4233 29.2391 38.2571 29.2304 38.1032 29.1761C37.9494 29.1219 37.8145 29.0244 37.7147 28.8955C37.6149 28.7665 37.5545 28.6115 37.5408 28.4492L37.8455 7.3568C37.8276 7.2217 37.8424 7.0843 37.8884 6.95602C37.9344 6.82773 38.0104 6.71226 38.11 6.61922C38.2097 6.52617 38.3301 6.45822 38.4614 6.42103C38.5926 6.38384 38.7308 6.3785 38.8645 6.40541L53.2456 12.6275C53.4103 12.6473 53.5655 12.715 53.6921 12.8221C53.8186 12.9292 53.911 13.0711 53.9576 13.2301C54.0042 13.3891 54.0032 13.5583 53.9545 13.7167C53.9058 13.8751 53.8116 14.0157 53.6837 14.1212Z" fill="black"/>
<path d="M94.6932 2.36195L107.408 1.92429C107.54 1.92146 107.67 1.96114 107.778 2.03749C107.886 2.11385 107.967 2.22287 108.009 2.34851C108.05 2.47415 108.05 2.60979 108.009 2.73551C107.968 2.86122 107.887 2.97036 107.779 3.04693L106.646 3.8366L115.703 3.76999C115.842 3.76614 115.978 3.8091 116.09 3.89194C116.201 3.97478 116.281 4.09269 116.318 4.2267C116.354 4.36071 116.344 4.50301 116.29 4.63071C116.235 4.75841 116.139 4.86407 116.017 4.93069L114.179 5.96771" fill="#3BDBA1"/>
<path d="M69.884 6.3769L82.427 0.953982C82.5532 0.90231 82.6929 0.893701 82.8245 0.929506C82.9561 0.965312 83.0722 1.04353 83.1547 1.152C83.2372 1.26046 83.2815 1.39309 83.2808 1.52932C83.2801 1.66556 83.2344 1.79776 83.1508 1.90537L82.1603 3.16122" fill="#F27500"/>
<path d="M69.884 6.37652L82.427 0.953601C82.5532 0.901929 82.6929 0.893319 82.8245 0.929125C82.9561 0.96493 83.0722 1.04315 83.1547 1.15161C83.2372 1.26008 83.2815 1.39271 83.2808 1.52894C83.2801 1.66517 83.2344 1.79738 83.1508 1.90499L82.1603 3.16084" fill="#3BDBA1"/>
<path d="M83.4077 2.98047L95.9031 0.582948C96.0326 0.5607 96.1658 0.580218 96.2835 0.638636C96.4011 0.697053 96.4972 0.791349 96.5576 0.907899C96.6181 1.02445 96.6399 1.15718 96.6198 1.28691C96.5997 1.41664 96.5388 1.53662 96.4459 1.62949L95.4935 2.58088" fill="#3BDBA1"/>
<path fill-rule="evenodd" clip-rule="evenodd" d="M70.9969 43.1135C70.4196 43.0222 69.8277 42.9749 69.2247 42.9749C63.0032 42.9749 57.9596 48.0184 57.9596 54.24C57.9596 60.4616 63.0032 65.5052 69.2247 65.5052C75.4463 65.5052 80.4899 60.4616 80.4899 54.24C80.4899 51.8033 79.7162 49.5472 78.4011 47.7041C77.677 49.1222 76.229 50.0897 74.5609 50.0897C72.168 50.0897 70.2281 48.0988 70.2281 45.6429C70.2281 44.7032 70.5122 43.8315 70.9969 43.1135Z" fill="black"/>
<path d="M134.03 75.8396C134.03 76.6116 133.678 77.3853 132.963 78.1317C132.247 78.8806 131.185 79.5778 129.836 80.1742C127.138 81.3663 123.375 82.1164 119.193 82.1164C115.011 82.1164 111.248 81.3663 108.55 80.1742C107.2 79.5778 106.139 78.8806 105.422 78.1317C104.708 77.3853 104.356 76.6116 104.356 75.8396C104.356 75.0676 104.708 74.2939 105.422 73.5475C106.139 72.7986 107.2 72.1014 108.55 71.505C111.248 70.3128 115.011 69.5628 119.193 69.5628C123.375 69.5628 127.138 70.3128 129.836 71.505C131.185 72.1014 132.247 72.7986 132.963 73.5475C133.678 74.2939 134.03 75.0676 134.03 75.8396Z" fill="#3BDBA1" stroke="#3BDBA1"/>
<path d="M82.2043 75.8396C82.2043 76.6116 81.8523 77.3853 81.1378 78.1317C80.421 78.8806 79.3598 79.5778 78.0101 80.1742C75.312 81.3663 71.5497 82.1164 67.3673 82.1164C63.185 82.1164 59.4226 81.3663 56.7246 80.1742C55.3749 79.5778 54.3137 78.8806 53.5968 78.1317C52.8824 77.3853 52.5304 76.6116 52.5304 75.8396C52.5304 75.0676 52.8824 74.2939 53.5968 73.5475C54.3137 72.7986 55.3749 72.1014 56.7246 71.505C59.4226 70.3128 63.185 69.5628 67.3673 69.5628C71.5497 69.5628 75.312 70.3128 78.0101 71.505C79.3598 72.1014 80.421 72.7986 81.1378 73.5475C81.8523 74.2939 82.2043 75.0676 82.2043 75.8396Z" fill="#3BDBA1" stroke="#3BDBA1"/>
<path d="M62.9875 172.623C67.1144 176.486 77.019 181.195 83.622 169.131C82.9871 169.608 93.3043 186.274 102.987 169.131C103.622 169.131 113.145 186.274 121.875 169.131" stroke="#43EDB0" stroke-width="4" stroke-linecap="round" stroke-linejoin="round"/>
</g>
<path d="M129.763 274.179V266.902C129.763 264.272 127.631 262.14 125.001 262.14C122.37 262.14 120.238 264.272 120.238 266.902V274.179C120.238 276.81 122.37 278.942 125.001 278.942C127.631 278.942 129.763 276.81 129.763 274.179Z" fill="#FDE01B"/>
<path d="M121.191 274.179V266.902C121.191 264.272 119.058 262.14 116.428 262.14C113.798 262.14 111.665 264.272 111.665 266.902V274.179C111.665 276.81 113.798 278.942 116.428 278.942C119.058 278.942 121.191 276.81 121.191 274.179Z" fill="#FDE01B"/>
<path d="M112.618 274.522V267.245C112.618 264.615 110.486 262.483 107.856 262.483C105.225 262.483 103.093 264.615 103.093 267.245V274.522C103.093 277.153 105.225 279.285 107.856 279.285C110.486 279.285 112.618 277.153 112.618 274.522Z" fill="#FDE01B"/>
<path d="M84.1481 273.427V266.15C84.1481 263.519 82.0158 261.387 79.3855 261.387C76.7553 261.387 74.623 263.519 74.623 266.15V273.427C74.623 276.057 76.7553 278.189 79.3855 278.189C82.0158 278.189 84.1481 276.057 84.1481 273.427Z" fill="#FDE01B"/>
<path d="M75.5757 273.427V266.15C75.5757 263.519 73.4434 261.387 70.8132 261.387C68.1829 261.387 66.0506 263.519 66.0506 266.15V273.427C66.0506 276.057 68.1829 278.189 70.8132 278.189C73.4434 278.189 75.5757 276.057 75.5757 273.427Z" fill="#FDE01B"/>
<path d="M67.0125 273.77V266.492C67.0125 263.862 64.8802 261.73 62.2499 261.73C59.6196 261.73 57.4874 263.862 57.4874 266.492V273.77C57.4874 276.4 59.6196 278.532 62.2499 278.532C64.8802 278.532 67.0125 276.4 67.0125 273.77Z" fill="#FDE01B"/>
<path d="M122.493 249.84C122.493 248.066 119.685 246.628 116.221 246.628C112.757 246.628 109.948 248.066 109.948 249.84V265.655C109.948 267.429 112.757 268.867 116.221 268.867C119.685 268.867 122.493 267.429 122.493 265.655V249.84Z" fill="#FDE01B"/>
<path d="M76.305 249.84C76.305 248.066 73.6244 246.628 70.3176 246.628C67.0109 246.628 64.3302 248.066 64.3302 249.84V265.655C64.3302 267.429 67.0109 268.867 70.3176 268.867C73.6244 268.867 76.305 267.429 76.305 265.655V249.84Z" fill="#FDE01B"/>
<g filter="url(#filter4_d)">
<path d="M106.198 180.04L99.4557 126.203L93.1107 126.215L87.0534 126.204L80.2917 180.039L93.1818 197.967L99.6239 189.176L106.198 180.04Z" fill="#EB3F6D"/>
</g>
<g filter="url(#filter5_d)">
<path d="M99.5711 126.157L101.255 113.11L84.9663 113.083L86.9145 126.157H99.5711Z" fill="#EB3F6D"/>
</g>
</g>
<g filter="url(#filter6_d)">
<path d="M52.5451 181.264C47.6553 204.936 36.4542 225.078 22.0865 238.827C12.6727 219.829 9.48005 194.997 14.7805 169.31C19.672 145.629 30.8715 125.497 45.2408 111.738C54.6485 130.716 57.8506 155.549 52.5451 181.264Z" fill="#43EDB0"/>
</g>
<g filter="url(#filter7_d)">
<path d="M169.52 177.257C172.575 201.236 168.514 223.922 159.384 241.588C144.316 226.672 133.24 204.219 129.92 178.202C126.864 154.214 130.926 131.538 140.055 113.862C155.111 128.761 166.196 151.212 169.52 177.257Z" fill="#43EDB0"/>
</g>
<defs>
<filter id="filter0_i" x="23.9408" y="0.563843" width="134.315" height="298.627" filterUnits="userSpaceOnUse" color-interpolation-filters="sRGB">
<feFlood flood-opacity="0" result="BackgroundImageFix"/>
<feBlend mode="normal" in="SourceGraphic" in2="BackgroundImageFix" result="shape"/>
<feColorMatrix in="SourceAlpha" type="matrix" values="0 0 0 0 0 0 0 0 0 0 0 0 0 0 0 0 0 0 127 0" result="hardAlpha"/>
<feOffset dy="4"/>
<feGaussianBlur stdDeviation="2"/>
<feComposite in2="hardAlpha" operator="arithmetic" k2="-1" k3="1"/>
<feColorMatrix type="matrix" values="0 0 0 0 0 0 0 0 0 0 0 0 0 0 0 0 0 0 0.25 0"/>
<feBlend mode="normal" in2="shape" result="effect1_innerShadow"/>
</filter>
<filter id="filter1_i" x="23.9408" y="-14.4362" width="149.315" height="309.627" filterUnits="userSpaceOnUse" color-interpolation-filters="sRGB">
<feFlood flood-opacity="0" result="BackgroundImageFix"/>
<feBlend mode="normal" in="SourceGraphic" in2="BackgroundImageFix" result="shape"/>
<feColorMatrix in="SourceAlpha" type="matrix" values="0 0 0 0 0 0 0 0 0 0 0 0 0 0 0 0 0 0 127 0" result="hardAlpha"/>
<feOffset dx="21" dy="-21"/>
<feGaussianBlur stdDeviation="7.5"/>
<feComposite in2="hardAlpha" operator="arithmetic" k2="-1" k3="1"/>
<feColorMatrix type="matrix" values="0 0 0 0 0 0 0 0 0 0 0 0 0 0 0 0 0 0 0.12 0"/>
<feBlend mode="normal" in2="shape" result="effect1_innerShadow"/>
</filter>
<filter id="filter2_i" x="98.2771" y="35.2671" width="38.1282" height="42.1282" filterUnits="userSpaceOnUse" color-interpolation-filters="sRGB">
<feFlood flood-opacity="0" result="BackgroundImageFix"/>
<feBlend mode="normal" in="SourceGraphic" in2="BackgroundImageFix" result="shape"/>
<feColorMatrix in="SourceAlpha" type="matrix" values="0 0 0 0 0 0 0 0 0 0 0 0 0 0 0 0 0 0 127 0" result="hardAlpha"/>
<feOffset dy="4"/>
<feGaussianBlur stdDeviation="2"/>
<feComposite in2="hardAlpha" operator="arithmetic" k2="-1" k3="1"/>
<feColorMatrix type="matrix" values="0 0 0 0 0 0 0 0 0 0 0 0 0 0 0 0 0 0 0.15 0"/>
<feBlend mode="normal" in2="shape" result="effect1_innerShadow"/>
</filter>
<filter id="filter3_i" x="49.6588" y="35.2671" width="38.1282" height="42.1282" filterUnits="userSpaceOnUse" color-interpolation-filters="sRGB">
<feFlood flood-opacity="0" result="BackgroundImageFix"/>
<feBlend mode="normal" in="SourceGraphic" in2="BackgroundImageFix" result="shape"/>
<feColorMatrix in="SourceAlpha" type="matrix" values="0 0 0 0 0 0 0 0 0 0 0 0 0 0 0 0 0 0 127 0" result="hardAlpha"/>
<feOffset dy="4"/>
<feGaussianBlur stdDeviation="2"/>
<feComposite in2="hardAlpha" operator="arithmetic" k2="-1" k3="1"/>
<feColorMatrix type="matrix" values="0 0 0 0 0 0 0 0 0 0 0 0 0 0 0 0 0 0 0.15 0"/>
<feBlend mode="normal" in2="shape" result="effect1_innerShadow"/>
</filter>
<filter id="filter4_d" x="78.2917" y="126.203" width="29.9059" height="77.7634" filterUnits="userSpaceOnUse" color-interpolation-filters="sRGB">
<feFlood flood-opacity="0" result="BackgroundImageFix"/>
<feColorMatrix in="SourceAlpha" type="matrix" values="0 0 0 0 0 0 0 0 0 0 0 0 0 0 0 0 0 0 127 0"/>
<feOffset dy="4"/>
<feGaussianBlur stdDeviation="1"/>
<feColorMatrix type="matrix" values="0 0 0 0 0 0 0 0 0 0 0 0 0 0 0 0 0 0 0.25 0"/>
<feBlend mode="normal" in2="BackgroundImageFix" result="effect1_dropShadow"/>
<feBlend mode="normal" in="SourceGraphic" in2="effect1_dropShadow" result="shape"/>
</filter>
<filter id="filter5_d" x="80.9663" y="113.083" width="24.2884" height="21.0743" filterUnits="userSpaceOnUse" color-interpolation-filters="sRGB">
<feFlood flood-opacity="0" result="BackgroundImageFix"/>
<feColorMatrix in="SourceAlpha" type="matrix" values="0 0 0 0 0 0 0 0 0 0 0 0 0 0 0 0 0 0 127 0"/>
<feOffset dy="4"/>
<feGaussianBlur stdDeviation="2"/>
<feColorMatrix type="matrix" values="0 0 0 0 0 0 0 0 0 0 0 0 0 0 0 0 0 0 0.25 0"/>
<feBlend mode="normal" in2="BackgroundImageFix" result="effect1_dropShadow"/>
<feBlend mode="normal" in="SourceGraphic" in2="effect1_dropShadow" result="shape"/>
</filter>
<filter id="filter6_d" x="0.147217" y="108.268" width="69.0328" height="142.028" filterUnits="userSpaceOnUse" color-interpolation-filters="sRGB">
<feFlood flood-opacity="0" result="BackgroundImageFix"/>
<feColorMatrix in="SourceAlpha" type="matrix" values="0 0 0 0 0 0 0 0 0 0 0 0 0 0 0 0 0 0 127 0"/>
<feOffset dx="1" dy="4"/>
<feGaussianBlur stdDeviation="2"/>
<feColorMatrix type="matrix" values="0 0 0 0 0 0 0 0 0 0 0 0 0 0 0 0 0 0 0.15 0"/>
<feBlend mode="normal" in2="BackgroundImageFix" result="effect1_dropShadow"/>
<feBlend mode="normal" in="SourceGraphic" in2="effect1_dropShadow" result="shape"/>
</filter>
<filter id="filter7_d" x="117.154" y="110.849" width="67.1302" height="141.751" filterUnits="userSpaceOnUse" color-interpolation-filters="sRGB">
<feFlood flood-opacity="0" result="BackgroundImageFix"/>
<feColorMatrix in="SourceAlpha" type="matrix" values="0 0 0 0 0 0 0 0 0 0 0 0 0 0 0 0 0 0 127 0"/>
<feOffset dx="1" dy="4"/>
<feGaussianBlur stdDeviation="2"/>
<feColorMatrix type="matrix" values="0 0 0 0 0 0 0 0 0 0 0 0 0 0 0 0 0 0 0.15 0"/>
<feBlend mode="normal" in2="BackgroundImageFix" result="effect1_dropShadow"/>
<feBlend mode="normal" in="SourceGraphic" in2="effect1_dropShadow" result="shape"/>
</filter>
<clipPath id="clip0">
<rect width="134.315" height="294.627" fill="white" transform="translate(23.9408 0.563843)"/>
</clipPath>
</defs>
</svg>
