<svg width="175" height="296" viewBox="0 0 175 296" fill="none" xmlns="http://www.w3.org/2000/svg">
<path d="M291.168 283.55H7.26636C3.40036 283.55 0.266357 280.416 0.266357 276.55C0.266357 272.684 3.40036 269.55 7.26635 269.55H291.168C295.034 269.55 298.168 272.684 298.168 276.55C298.168 280.416 295.034 283.55 291.168 283.55Z" fill="#F27500"/>
<path d="M262.054 262.55L123.899 280.393L154.746 285.241L273.868 294.55L290.276 280.393L262.054 262.55Z" fill="#F27500"/>
<g filter="url(#filter0_i)">
<g clip-path="url(#clip0)" filter="url(#filter1_i)">
<path d="M46.9032 254.928C27.9126 238.897 15.2649 210.346 15.2649 177.789C15.2649 127.651 45.2651 87.0072 82.2654 87.0072C119.266 87.0072 149.266 127.651 149.266 177.789C149.266 209.813 137.028 237.955 118.551 254.119" fill="#3BDBA1"/>
<path d="M83.5985 133.14C119.76 133.14 149.075 103.856 149.075 67.7322C149.075 31.6082 119.76 2.32401 83.5985 2.32401C47.4367 2.32401 18.1218 31.6082 18.1218 67.7322C18.1218 103.856 47.4367 133.14 83.5985 133.14Z" fill="#3BDBA1"/>
<path d="M129.704 114.094L139.304 105.75C139.407 105.663 139.48 105.544 139.51 105.412C139.54 105.281 139.525 105.142 139.469 105.019C139.413 104.896 139.318 104.795 139.199 104.731C139.079 104.667 138.942 104.644 138.808 104.665L137.437 104.865L144.104 98.7381C144.204 98.6454 144.271 98.5221 144.294 98.3875C144.317 98.2528 144.294 98.1144 144.23 97.9938C144.166 97.8732 144.064 97.7773 143.939 97.7209C143.815 97.6645 143.675 97.6508 143.542 97.6821L141.485 98.1768" fill="#3BDBA1"/>
<path d="M35.8365 112.609L26.4936 103.933C26.3978 103.841 26.3341 103.721 26.3116 103.59C26.2892 103.46 26.3094 103.326 26.3691 103.207C26.4288 103.089 26.525 102.993 26.6434 102.934C26.7618 102.874 26.8963 102.854 27.0269 102.877L28.3888 103.124L21.9317 96.7686C21.8337 96.6725 21.7704 96.5466 21.7519 96.4107C21.7333 96.2747 21.7606 96.1365 21.8293 96.0177C21.898 95.899 22.0043 95.8064 22.1315 95.7546C22.2586 95.7028 22.3994 95.6947 22.5317 95.7316L24.5697 96.2834" fill="#3BDBA1"/>
<path d="M85.2267 69.3019L91.4458 77.8644C91.5755 77.997 91.6774 78.1541 91.7454 78.3266C91.8134 78.4991 91.8461 78.6834 91.8416 78.8687C91.8372 79.054 91.7957 79.2365 91.7195 79.4056C91.6434 79.5746 91.5341 79.7267 91.3982 79.8529L84.8172 90.9271C84.5451 91.1846 84.1821 91.3241 83.8074 91.3152C83.4327 91.3063 83.0767 91.1497 82.8172 90.8795L76.5981 79.4628C76.3341 79.1972 76.1859 78.8381 76.1859 78.4638C76.1859 78.0895 76.3341 77.7304 76.5981 77.4648L83.1887 69.3114C83.3182 69.1708 83.4753 69.0583 83.6503 68.9811C83.8253 68.9039 84.0143 68.8636 84.2056 68.8627C84.3969 68.8618 84.5863 68.9003 84.762 68.9759C84.9377 69.0515 85.0959 69.1625 85.2267 69.3019Z" fill="#FDE01B"/>
<path d="M78.7605 79.7981C78.5281 79.5355 78.3999 79.1971 78.3999 78.8467C78.3999 78.4962 78.5281 78.1579 78.7605 77.8953C78.7605 77.8953 83.6694 71.1136 84.3043 70.4787C84.9392 69.8438 84.6217 69.0501 84.6217 69.0501C84.1455 68.5078 83.0557 69.0093 82.5605 69.5325L76.5267 77.4626C76.2924 77.7243 76.2092 78.2563 76.2092 78.415C76.2092 78.5737 76.3024 79.1329 76.5267 79.3674C76.7509 79.6018 81.7373 89.5459 82.2272 90.2919C82.717 91.0379 83.8163 91.5567 83.9868 91.2718C84.1573 90.987 83.9868 90.0856 83.9868 90.0856C83.837 89.8992 83.6323 89.6004 83.5224 89.3881L78.7605 79.7981Z" fill="#F2D405"/>
<g filter="url(#filter2_i)">
<path d="M108.341 73.3953C118.87 73.3953 127.405 64.86 127.405 54.3312C127.405 43.8024 118.87 35.2671 108.341 35.2671C97.8124 35.2671 89.2771 43.8024 89.2771 54.3312C89.2771 64.86 97.8124 73.3953 108.341 73.3953Z" fill="white"/>
</g>
<path fill-rule="evenodd" clip-rule="evenodd" d="M110.468 43.193C109.751 43.0499 109.009 42.9749 108.25 42.9749C102.029 42.9749 96.985 48.0184 96.985 54.24C96.985 60.4616 102.029 65.5052 108.25 65.5052C114.472 65.5052 119.515 60.4616 119.515 54.24C119.515 52.0355 118.882 49.9789 117.788 48.2422C116.98 49.3613 115.665 50.0897 114.179 50.0897C111.723 50.0897 109.732 48.0988 109.732 45.6429C109.732 44.7376 110.003 43.8955 110.468 43.193Z" fill="black"/>
<g filter="url(#filter3_i)">
<path d="M59.7229 73.3953C70.2517 73.3953 78.787 64.86 78.787 54.3312C78.787 43.8024 70.2517 35.2671 59.7229 35.2671C49.1941 35.2671 40.6588 43.8024 40.6588 54.3312C40.6588 64.86 49.1941 73.3953 59.7229 73.3953Z" fill="white"/>
</g>
<path d="M113.551 12.4561L139.656 38.9143C139.861 39.1208 140.122 39.2642 140.406 39.3274C140.691 39.3906 140.987 39.371 141.261 39.2708C141.535 39.1707 141.774 38.9942 141.95 38.7624C142.126 38.5306 142.233 38.2531 142.256 37.9629V3.20853C142.278 2.97287 142.245 2.73527 142.159 2.51464C142.073 2.29402 141.937 2.09642 141.761 1.93756C141.586 1.7787 141.375 1.66298 141.147 1.59955C140.919 1.53611 140.679 1.52672 140.446 1.57214L114.36 9.8778C114.084 9.92316 113.825 10.0444 113.613 10.228C113.401 10.4117 113.245 10.6505 113.161 10.9178C113.077 11.1852 113.069 11.4706 113.138 11.7422C113.206 12.0138 113.35 12.2609 113.551 12.4561Z" fill="#3BDBA1"/>
<path d="M121.504 14.0452L136.189 28.9154C136.302 29.0332 136.447 29.116 136.605 29.1538C136.764 29.1916 136.93 29.1829 137.084 29.1287C137.238 29.0744 137.373 28.977 137.473 28.848C137.572 28.7191 137.633 28.5641 137.647 28.4017L137.332 7.30934C137.35 7.17424 137.336 7.03683 137.29 6.90855C137.244 6.78026 137.167 6.6648 137.068 6.57175C136.968 6.47871 136.848 6.41078 136.716 6.37359C136.585 6.33641 136.447 6.33103 136.313 6.35795L121.942 12.5801C121.786 12.6079 121.64 12.6786 121.522 12.7841C121.403 12.8897 121.317 13.026 121.271 13.1779C121.226 13.3298 121.223 13.4913 121.265 13.6444C121.306 13.7975 121.388 13.9363 121.504 14.0452Z" fill="black"/>
<path d="M52.6363 12.5038L26.4933 38.9525C26.2891 39.1601 26.0292 39.3045 25.745 39.3682C25.4607 39.432 25.164 39.4125 24.8906 39.3121C24.6171 39.2117 24.3785 39.0346 24.2033 38.802C24.0281 38.5695 23.9238 38.2914 23.9028 38.0011V3.24677C23.8786 3.01062 23.9103 2.77207 23.9954 2.55045C24.0805 2.32882 24.2167 2.13033 24.3929 1.97101C24.5691 1.8117 24.7803 1.69602 25.0095 1.63337C25.2387 1.57072 25.4795 1.56286 25.7123 1.61038L51.7982 9.91601C52.0793 9.9557 52.3435 10.0735 52.5608 10.256C52.7781 10.4385 52.9397 10.6784 53.0271 10.9482C53.1145 11.218 53.1241 11.5069 53.055 11.782C52.9859 12.057 52.8409 12.3072 52.6363 12.5038Z" fill="#3BDBA1"/>
<path d="M44.6837 14.1212L29.9979 28.9629C29.8851 29.0807 29.7407 29.1635 29.582 29.2013C29.4233 29.2391 29.2571 29.2304 29.1032 29.1761C28.9494 29.1219 28.8145 29.0244 28.7147 28.8955C28.6149 28.7665 28.5545 28.6115 28.5408 28.4492L28.8455 7.3568C28.8276 7.2217 28.8424 7.0843 28.8884 6.95602C28.9344 6.82773 29.0104 6.71226 29.11 6.61922C29.2097 6.52617 29.3301 6.45822 29.4614 6.42103C29.5926 6.38384 29.7308 6.3785 29.8645 6.40541L44.2456 12.6275C44.4103 12.6473 44.5655 12.715 44.6921 12.8221C44.8186 12.9292 44.911 13.0711 44.9576 13.2301C45.0042 13.3891 45.0032 13.5583 44.9545 13.7167C44.9058 13.8751 44.8116 14.0157 44.6837 14.1212Z" fill="black"/>
<path d="M85.6932 2.36195L98.4077 1.92429C98.5401 1.92146 98.6699 1.96114 98.7781 2.03749C98.8863 2.11385 98.9671 2.22287 99.0087 2.34851C99.0502 2.47415 99.0504 2.60979 99.0091 2.73551C98.9677 2.86122 98.8871 2.97036 98.7791 3.04693L97.6458 3.8366L106.703 3.76999C106.842 3.76614 106.978 3.8091 107.09 3.89194C107.201 3.97478 107.281 4.09269 107.318 4.2267C107.354 4.36071 107.344 4.50301 107.29 4.63071C107.235 4.75841 107.139 4.86407 107.017 4.93069L105.179 5.96771" fill="#3BDBA1"/>
<path d="M60.884 6.3769L73.427 0.953982C73.5532 0.90231 73.6929 0.893701 73.8245 0.929506C73.9561 0.965312 74.0722 1.04353 74.1547 1.152C74.2372 1.26046 74.2815 1.39309 74.2808 1.52932C74.2801 1.66556 74.2344 1.79776 74.1508 1.90537L73.1603 3.16122" fill="#F27500"/>
<path d="M60.884 6.37652L73.427 0.953601C73.5532 0.901929 73.6929 0.893319 73.8245 0.929125C73.9561 0.96493 74.0722 1.04315 74.1547 1.15161C74.2372 1.26008 74.2815 1.39271 74.2808 1.52894C74.2801 1.66517 74.2344 1.79738 74.1508 1.90499L73.1603 3.16084" fill="#3BDBA1"/>
<path d="M74.4077 2.98047L86.9031 0.582948C87.0326 0.5607 87.1658 0.580218 87.2835 0.638636C87.4011 0.697053 87.4972 0.791349 87.5576 0.907899C87.6181 1.02445 87.6399 1.15718 87.6198 1.28691C87.5997 1.41664 87.5388 1.53662 87.4459 1.62949L86.4935 2.58088" fill="#3BDBA1"/>
<path fill-rule="evenodd" clip-rule="evenodd" d="M61.9969 43.1135C61.4196 43.0222 60.8277 42.9749 60.2247 42.9749C54.0032 42.9749 48.9596 48.0184 48.9596 54.24C48.9596 60.4616 54.0032 65.5052 60.2247 65.5052C66.4463 65.5052 71.4899 60.4616 71.4899 54.24C71.4899 51.8033 70.7162 49.5472 69.4011 47.7041C68.677 49.1222 67.229 50.0897 65.5609 50.0897C63.168 50.0897 61.2281 48.0988 61.2281 45.6429C61.2281 44.7032 61.5122 43.8315 61.9969 43.1135Z" fill="black"/>
<path d="M125.03 75.8396C125.03 76.6116 124.678 77.3853 123.963 78.1317C123.247 78.8806 122.185 79.5778 120.836 80.1742C118.138 81.3663 114.375 82.1164 110.193 82.1164C106.011 82.1164 102.248 81.3663 99.5501 80.1742C98.2004 79.5778 97.1393 78.8806 96.4224 78.1317C95.7079 77.3853 95.356 76.6116 95.356 75.8396C95.356 75.0676 95.7079 74.2939 96.4224 73.5475C97.1393 72.7986 98.2004 72.1014 99.5501 71.505C102.248 70.3128 106.011 69.5628 110.193 69.5628C114.375 69.5628 118.138 70.3128 120.836 71.505C122.185 72.1014 123.247 72.7986 123.963 73.5475C124.678 74.2939 125.03 75.0676 125.03 75.8396Z" fill="#3BDBA1" stroke="#3BDBA1"/>
<path d="M73.2043 75.8396C73.2043 76.6116 72.8523 77.3853 72.1378 78.1317C71.421 78.8806 70.3598 79.5778 69.0101 80.1742C66.312 81.3663 62.5497 82.1164 58.3673 82.1164C54.185 82.1164 50.4226 81.3663 47.7246 80.1742C46.3749 79.5778 45.3137 78.8806 44.5968 78.1317C43.8824 77.3853 43.5304 76.6116 43.5304 75.8396C43.5304 75.0676 43.8824 74.2939 44.5968 73.5475C45.3137 72.7986 46.3749 72.1014 47.7246 71.505C50.4226 70.3128 54.185 69.5628 58.3673 69.5628C62.5497 69.5628 66.312 70.3128 69.0101 71.505C70.3598 72.1014 71.421 72.7986 72.1378 73.5475C72.8523 74.2939 73.2043 75.0676 73.2043 75.8396Z" fill="#3BDBA1" stroke="#3BDBA1"/>
<path d="M53.9875 172.623C58.1144 176.486 68.019 181.195 74.622 169.131C73.9871 169.608 84.3043 186.274 93.9866 169.131C94.6215 169.131 104.145 186.274 112.875 169.131" stroke="#43EDB0" stroke-width="4" stroke-linecap="round" stroke-linejoin="round"/>
</g>
<path d="M120.763 274.179V266.902C120.763 264.272 118.631 262.14 116.001 262.14C113.37 262.14 111.238 264.272 111.238 266.902V274.179C111.238 276.81 113.37 278.942 116.001 278.942C118.631 278.942 120.763 276.81 120.763 274.179Z" fill="#FDE01B"/>
<path d="M112.191 274.179V266.902C112.191 264.272 110.058 262.14 107.428 262.14C104.798 262.14 102.665 264.272 102.665 266.902V274.179C102.665 276.81 104.798 278.942 107.428 278.942C110.058 278.942 112.191 276.81 112.191 274.179Z" fill="#FDE01B"/>
<path d="M103.618 274.522V267.245C103.618 264.615 101.486 262.483 98.8556 262.483C96.2254 262.483 94.0931 264.615 94.0931 267.245V274.522C94.0931 277.153 96.2254 279.285 98.8556 279.285C101.486 279.285 103.618 277.153 103.618 274.522Z" fill="#FDE01B"/>
<path d="M75.1481 273.427V266.15C75.1481 263.519 73.0158 261.387 70.3855 261.387C67.7553 261.387 65.623 263.519 65.623 266.15V273.427C65.623 276.057 67.7553 278.189 70.3855 278.189C73.0158 278.189 75.1481 276.057 75.1481 273.427Z" fill="#FDE01B"/>
<path d="M66.5757 273.427V266.15C66.5757 263.519 64.4434 261.387 61.8132 261.387C59.1829 261.387 57.0506 263.519 57.0506 266.15V273.427C57.0506 276.057 59.1829 278.189 61.8132 278.189C64.4434 278.189 66.5757 276.057 66.5757 273.427Z" fill="#FDE01B"/>
<path d="M58.0125 273.77V266.492C58.0125 263.862 55.8802 261.73 53.2499 261.73C50.6196 261.73 48.4874 263.862 48.4874 266.492V273.77C48.4874 276.4 50.6196 278.532 53.2499 278.532C55.8802 278.532 58.0125 276.4 58.0125 273.77Z" fill="#FDE01B"/>
<path d="M113.493 249.84C113.493 248.066 110.685 246.628 107.221 246.628C103.757 246.628 100.948 248.066 100.948 249.84V265.655C100.948 267.429 103.757 268.867 107.221 268.867C110.685 268.867 113.493 267.429 113.493 265.655V249.84Z" fill="#FDE01B"/>
<path d="M67.305 249.84C67.305 248.066 64.6244 246.628 61.3176 246.628C58.0109 246.628 55.3302 248.066 55.3302 249.84V265.655C55.3302 267.429 58.0109 268.867 61.3176 268.867C64.6244 268.867 67.305 267.429 67.305 265.655V249.84Z" fill="#FDE01B"/>
<g filter="url(#filter4_d)">
<path d="M97.1976 180.04L90.4557 126.203L84.1107 126.215L78.0534 126.204L71.2917 180.039L84.1818 197.967L90.6239 189.176L97.1976 180.04Z" fill="#EB3F6D"/>
</g>
<g filter="url(#filter5_d)">
<path d="M90.5711 126.157L92.2547 113.11L75.9663 113.083L77.9145 126.157H90.5711Z" fill="#EB3F6D"/>
</g>
</g>
<defs>
<filter id="filter0_i" x="14.9408" y="0.563843" width="134.315" height="298.627" filterUnits="userSpaceOnUse" color-interpolation-filters="sRGB">
<feFlood flood-opacity="0" result="BackgroundImageFix"/>
<feBlend mode="normal" in="SourceGraphic" in2="BackgroundImageFix" result="shape"/>
<feColorMatrix in="SourceAlpha" type="matrix" values="0 0 0 0 0 0 0 0 0 0 0 0 0 0 0 0 0 0 127 0" result="hardAlpha"/>
<feOffset dy="4"/>
<feGaussianBlur stdDeviation="2"/>
<feComposite in2="hardAlpha" operator="arithmetic" k2="-1" k3="1"/>
<feColorMatrix type="matrix" values="0 0 0 0 0 0 0 0 0 0 0 0 0 0 0 0 0 0 0.25 0"/>
<feBlend mode="normal" in2="shape" result="effect1_innerShadow"/>
</filter>
<filter id="filter1_i" x="14.9408" y="-14.4362" width="149.315" height="309.627" filterUnits="userSpaceOnUse" color-interpolation-filters="sRGB">
<feFlood flood-opacity="0" result="BackgroundImageFix"/>
<feBlend mode="normal" in="SourceGraphic" in2="BackgroundImageFix" result="shape"/>
<feColorMatrix in="SourceAlpha" type="matrix" values="0 0 0 0 0 0 0 0 0 0 0 0 0 0 0 0 0 0 127 0" result="hardAlpha"/>
<feOffset dx="21" dy="-21"/>
<feGaussianBlur stdDeviation="7.5"/>
<feComposite in2="hardAlpha" operator="arithmetic" k2="-1" k3="1"/>
<feColorMatrix type="matrix" values="0 0 0 0 0 0 0 0 0 0 0 0 0 0 0 0 0 0 0.12 0"/>
<feBlend mode="normal" in2="shape" result="effect1_innerShadow"/>
</filter>
<filter id="filter2_i" x="89.2771" y="35.2671" width="38.1282" height="42.1282" filterUnits="userSpaceOnUse" color-interpolation-filters="sRGB">
<feFlood flood-opacity="0" result="BackgroundImageFix"/>
<feBlend mode="normal" in="SourceGraphic" in2="BackgroundImageFix" result="shape"/>
<feColorMatrix in="SourceAlpha" type="matrix" values="0 0 0 0 0 0 0 0 0 0 0 0 0 0 0 0 0 0 127 0" result="hardAlpha"/>
<feOffset dy="4"/>
<feGaussianBlur stdDeviation="2"/>
<feComposite in2="hardAlpha" operator="arithmetic" k2="-1" k3="1"/>
<feColorMatrix type="matrix" values="0 0 0 0 0 0 0 0 0 0 0 0 0 0 0 0 0 0 0.15 0"/>
<feBlend mode="normal" in2="shape" result="effect1_innerShadow"/>
</filter>
<filter id="filter3_i" x="40.6588" y="35.2671" width="38.1282" height="42.1282" filterUnits="userSpaceOnUse" color-interpolation-filters="sRGB">
<feFlood flood-opacity="0" result="BackgroundImageFix"/>
<feBlend mode="normal" in="SourceGraphic" in2="BackgroundImageFix" result="shape"/>
<feColorMatrix in="SourceAlpha" type="matrix" values="0 0 0 0 0 0 0 0 0 0 0 0 0 0 0 0 0 0 127 0" result="hardAlpha"/>
<feOffset dy="4"/>
<feGaussianBlur stdDeviation="2"/>
<feComposite in2="hardAlpha" operator="arithmetic" k2="-1" k3="1"/>
<feColorMatrix type="matrix" values="0 0 0 0 0 0 0 0 0 0 0 0 0 0 0 0 0 0 0.15 0"/>
<feBlend mode="normal" in2="shape" result="effect1_innerShadow"/>
</filter>
<filter id="filter4_d" x="69.2917" y="126.203" width="29.9059" height="77.7634" filterUnits="userSpaceOnUse" color-interpolation-filters="sRGB">
<feFlood flood-opacity="0" result="BackgroundImageFix"/>
<feColorMatrix in="SourceAlpha" type="matrix" values="0 0 0 0 0 0 0 0 0 0 0 0 0 0 0 0 0 0 127 0"/>
<feOffset dy="4"/>
<feGaussianBlur stdDeviation="1"/>
<feColorMatrix type="matrix" values="0 0 0 0 0 0 0 0 0 0 0 0 0 0 0 0 0 0 0.25 0"/>
<feBlend mode="normal" in2="BackgroundImageFix" result="effect1_dropShadow"/>
<feBlend mode="normal" in="SourceGraphic" in2="effect1_dropShadow" result="shape"/>
</filter>
<filter id="filter5_d" x="71.9663" y="113.083" width="24.2884" height="21.0743" filterUnits="userSpaceOnUse" color-interpolation-filters="sRGB">
<feFlood flood-opacity="0" result="BackgroundImageFix"/>
<feColorMatrix in="SourceAlpha" type="matrix" values="0 0 0 0 0 0 0 0 0 0 0 0 0 0 0 0 0 0 127 0"/>
<feOffset dy="4"/>
<feGaussianBlur stdDeviation="2"/>
<feColorMatrix type="matrix" values="0 0 0 0 0 0 0 0 0 0 0 0 0 0 0 0 0 0 0.25 0"/>
<feBlend mode="normal" in2="BackgroundImageFix" result="effect1_dropShadow"/>
<feBlend mode="normal" in="SourceGraphic" in2="effect1_dropShadow" result="shape"/>
</filter>
<clipPath id="clip0">
<rect width="134.315" height="294.627" fill="white" transform="translate(14.9408 0.563843)"/>
</clipPath>
</defs>
</svg>
