<svg width="450" height="176" viewBox="0 0 450 176" fill="none" xmlns="http://www.w3.org/2000/svg">
<path d="M148 76V127H192V76H148Z" fill="#F27500"/>
<path d="M151 76V127H195V76H151Z" fill="#FDE01B"/>
<g clip-path="url(#clip0)">
<path d="M269.301 93.3503C269.301 93.3503 267.17 39.972 315.261 50.733C326.687 53.2952 335.129 63.6293 335.129 75.6714C335.129 76.0985 335.129 76.4401 335.129 76.8671" stroke="#F35B84" stroke-width="3" stroke-miterlimit="10"/>
<path d="M268.535 95.6562C266.488 95.1438 266.488 92.4962 268.535 91.9838L287.294 87.0302L313.13 80.2832L313.13 93.8627L313.13 107.442L287.294 100.695L268.535 95.6562Z" fill="#ED1D54"/>
<path d="M333.252 71.6574L312.959 71.6574C308.269 71.6574 303.238 74.9028 303.238 79.6001C303.153 93.0942 302.471 95.5709 302.897 109.15C303.067 113.762 307.928 116.751 312.532 116.751L333.252 116.751C338.71 116.751 343.144 112.31 343.144 106.844L343.144 81.7352C343.144 76.0985 338.71 71.6574 333.252 71.6574Z" fill="#F35B84"/>
<path d="M449.729 71.5719L449.729 116.751C449.729 122.388 445.125 127 439.497 127L350.733 127C345.105 127 336.578 125.975 336.578 118.886L336.578 70.12C336.578 64.4832 341.438 61.3232 350.733 61.3232L439.497 61.3232C445.125 61.3232 449.729 65.9351 449.729 71.5719Z" fill="#ED1D54"/>
<path d="M273.736 90.6173L273.736 97.0227L268.534 95.6562C268.534 95.6562 267.085 95.4 266.999 93.7773C266.914 92.1546 268.534 91.9838 268.534 91.9838L273.736 90.6173Z" fill="#F35B84"/>
</g>
<path d="M59 33.8919L1 0L2.20833 137.946L59 176V33.8919Z" fill="#FDE01B"/>
<path d="M16 147V8.332L1 0L2.24999 138.073L16 147Z" fill="#F27500"/>
<path d="M11 144V4.98321L6 2V140.42L11 144Z" fill="#FDE01B"/>
<path d="M20 150V10.9832L16 8V146.42L20 150Z" fill="#FDE01B"/>
<path d="M60 67.7619L0 38V111.214L60 138V67.7619Z" fill="#E6E6E6" fill-opacity="0.5"/>
<defs>
<clipPath id="clip0">
<rect width="79" height="182.73" fill="white" transform="translate(267 127) rotate(-90)"/>
</clipPath>
</defs>
</svg>
