<svg width="531" height="66" viewBox="0 0 531 66" fill="none" xmlns="http://www.w3.org/2000/svg">
<path d="M457.538 41.9121C457.538 41.9121 385.401 39.1734 386.004 34.7916C386.497 34.4082 385.785 32.7102 389.29 32.3816C392.796 32.0529 457.099 25.9183 457.099 25.9183L460.112 31.0122C460.112 31.0122 453.539 35.1202 460.112 37.6946C460.495 37.3112 457.538 41.9121 457.538 41.9121Z" fill="#4A64AE"/>
<path d="M514.831 33.1489C503.821 35.3946 464.056 33.3132 463.18 33.1489C458.688 36.9282 455.676 43.1724 455.676 43.1724C473.97 45.6919 488.54 53.3054 494.893 57.1943C496.318 58.0707 498.618 60.0425 500.042 60.9189C504.643 63.6575 517.953 71.0519 527.538 58.0707C535.919 46.7874 526.114 37.9689 521.678 34.6277C520.473 33.7514 516.31 32.875 514.831 33.1489ZM513.9 35.9423C521.787 37.1473 527.264 43.7749 526.224 50.7311C525.128 57.6873 517.898 62.343 510.011 61.138C502.123 59.933 496.646 53.3054 497.687 46.3492C498.782 39.393 506.012 34.7373 513.9 35.9423Z" fill="#EA2254"/>
<path d="M386.004 34.792L455.073 26.083C455.073 26.083 417.663 30.4101 397.506 31.5604C387.264 32.1629 386.333 33.9156 386.333 33.9156C386.333 33.9156 386.059 34.299 386.004 34.792Z" fill="#3850A2"/>
<path d="M451.513 34.2445C451.513 32.3085 449.943 30.739 448.007 30.739C446.071 30.739 444.502 32.3085 444.502 34.2445C444.502 36.1805 446.071 37.75 448.007 37.75C449.943 37.75 451.513 36.1805 451.513 34.2445Z" fill="#3850A2"/>
<path d="M500.042 6.09057C498.618 6.96694 496.318 8.93878 494.893 9.81515C488.54 13.7041 473.97 21.3175 455.676 23.8371C455.676 23.8371 458.743 30.136 463.18 33.8606C464.056 33.6963 503.821 31.6149 514.831 33.8606C516.31 34.1345 520.473 33.3129 521.678 32.3817C526.169 29.0406 535.919 20.2221 527.538 8.93878C517.953 -4.04248 504.643 3.35191 500.042 6.09057ZM525.402 12.6086C527.922 19.1814 523.868 26.7949 516.474 29.6431C509.025 32.4913 500.973 29.424 498.508 22.8512C495.989 16.2784 500.042 8.66491 507.436 5.81671C514.886 2.9685 522.937 6.0358 525.402 12.6086Z" fill="#EA2254"/>
<path d="M-4.14059e-07 38.0323C-1.96547e-07 43.0084 4.0768 47.0852 9.05289 47.0852L143.947 47.5049C148.983 47.5049 153 43.4281 153 38.452C153 33.4159 148.923 29.3991 143.947 29.3991L9.05289 28.9794C4.0768 28.9794 -6.34191e-07 32.9963 -4.14059e-07 38.0323Z" fill="#F27500"/>
<path d="M-4.14059e-07 36.3536C-1.93926e-07 41.3897 4.0768 45.4065 9.05289 45.4065L143.947 45.8262C148.983 45.8262 153 41.7494 153 36.7733C153 31.7372 148.923 27.7204 143.947 27.7204L9.05289 27.3007C4.0768 27.3007 -6.31571e-07 31.3775 -4.14059e-07 36.3536Z" fill="#FDE01B"/>
<g clip-path="url(#clip0)">
<path d="M206.625 34.9658C206.625 34.9658 205.12 -5.54716 239.071 2.62026C247.137 4.56488 253.097 12.4082 253.097 21.5479C253.097 21.872 253.097 22.1313 253.097 22.4554" stroke="#F35B84" stroke-width="3" stroke-miterlimit="10"/>
<path d="M206.084 36.7159C204.639 36.3269 204.639 34.3175 206.084 33.9286L219.327 30.169L237.566 25.0481L237.566 35.3546L237.566 45.6611L219.327 40.5403L206.084 36.7159Z" fill="#43EDB0"/>
<path d="M251.772 18.5012L237.445 18.5012C234.135 18.5012 230.583 20.9644 230.583 24.5295C230.523 34.7712 230.041 36.651 230.342 46.9575C230.463 50.4578 233.894 52.7266 237.144 52.7266L251.772 52.7266C255.625 52.7266 258.755 49.3559 258.755 45.2073L258.755 26.15C258.755 21.8719 255.625 18.5012 251.772 18.5012Z" fill="#F35B84"/>
<path d="M334.001 18.4362L334.001 52.7264C334.001 57.0046 330.751 60.5049 326.778 60.5049L264.114 60.5049C260.141 60.5049 254.121 59.727 254.121 54.3469L254.121 17.3342C254.121 13.0561 257.552 10.6577 264.114 10.6577L326.778 10.6577C330.751 10.6577 334.001 14.158 334.001 18.4362Z" fill="#43EDB0"/>
<path d="M209.756 32.8914L209.756 37.7529L206.084 36.7158C206.084 36.7158 205.061 36.5213 205 35.2897C204.94 34.0581 206.084 33.9285 206.084 33.9285L209.756 32.8914Z" fill="#F35B84"/>
</g>
<defs>
<clipPath id="clip0">
<rect width="59.9592" height="129" fill="white" transform="translate(205 60.5049) rotate(-90)"/>
</clipPath>
</defs>
</svg>
