<svg width="598" height="73" viewBox="0 0 598 73" fill="none" xmlns="http://www.w3.org/2000/svg">
<path d="M48.6858 8.01284L60.2227 7.46704L48.7758 28.5626L37.0818 29.8449L48.6858 8.01284Z" fill="#FDE01B"/>
<path d="M46.0369 28.8644L57.3496 7.58038L60.2217 7.46678L48.7748 28.5623L46.0369 28.8644Z" fill="#F27500"/>
<path d="M47.0109 28.7962L58.3236 7.51216L59.2972 7.44384L48.033 28.6365L47.0109 28.7962Z" fill="#FDE01B"/>
<path d="M45.0656 28.9327L56.3783 7.64864L57.3519 7.58031L46.0877 28.773L45.0656 28.9327Z" fill="#FDE01B"/>
<g filter="url(#filter0_d)">
<rect width="13.6553" height="0.620695" transform="matrix(1 0.000715525 0.000715525 -1 47.1836 8.05786)" fill="#F27500"/>
</g>
<g filter="url(#filter1_d)">
<rect width="13.6553" height="0.985636" transform="matrix(1 0.000715473 0.000715473 -1 47.2129 7.61523)" fill="#FDE01B"/>
</g>
<g filter="url(#filter2_d)">
<rect width="13.6553" height="0.620695" transform="matrix(1 0.000715501 0.000715501 -1 36.6582 30.0642)" fill="#F27500"/>
</g>
<g filter="url(#filter3_d)">
<rect width="13.6553" height="0.985636" transform="matrix(1 0.000715448 0.000715448 -1 36.6875 29.6216)" fill="#FDE01B"/>
</g>
<path d="M28.2875 23.0699L48.8184 22.0986L28.4477 59.64L7.63716 61.9221L28.2875 23.0699Z" fill="#FDE01B"/>
<path d="M23.5744 60.1778L43.7064 22.301L48.8175 22.0988L28.4469 59.6402L23.5744 60.1778Z" fill="#F27500"/>
<path d="M25.3072 60.056L45.4391 22.1793L47.1716 22.0577L27.1261 59.7719L25.3072 60.056Z" fill="#FDE01B"/>
<path d="M21.8423 60.2992L41.9742 22.4224L43.7067 22.3008L23.6612 60.015L21.8423 60.2992Z" fill="#FDE01B"/>
<g filter="url(#filter4_d)">
<rect width="24.3008" height="1.10458" transform="matrix(1 0.000715525 0.000715525 -1 25.6172 23.1501)" fill="#F27500"/>
</g>
<g filter="url(#filter5_d)">
<rect width="24.3008" height="1.75403" transform="matrix(1 0.000715473 0.000715473 -1 25.6699 22.3628)" fill="#FDE01B"/>
</g>
<g filter="url(#filter6_d)">
<rect width="24.3008" height="1.10458" transform="matrix(1 0.000715501 0.000715501 -1 6.88672 62.3123)" fill="#F27500"/>
</g>
<g filter="url(#filter7_d)">
<rect width="24.3008" height="1.75403" transform="matrix(1 0.000715448 0.000715448 -1 6.93945 61.5249)" fill="#FDE01B"/>
</g>
<path d="M171.293 29.0585L182.83 29.6042L171.383 8.50869L159.689 7.22635L171.293 29.0585Z" fill="#FDE01B"/>
<path d="M168.644 8.20688L179.957 29.4909L182.829 29.6045L171.382 8.50894L168.644 8.20688Z" fill="#F27500"/>
<path d="M169.618 8.27511L180.931 29.5591L181.905 29.6275L170.64 8.43478L169.618 8.27511Z" fill="#FDE01B"/>
<path d="M167.673 8.13863L178.986 29.4227L179.959 29.491L168.695 8.29831L167.673 8.13863Z" fill="#FDE01B"/>
<g filter="url(#filter8_d)">
<rect x="169.795" y="29.0139" width="13.6553" height="0.620695" transform="rotate(-0.0409967 169.795 29.0139)" fill="#F27500"/>
</g>
<g filter="url(#filter9_d)">
<rect x="169.824" y="29.4565" width="13.6553" height="0.985636" transform="rotate(-0.0409937 169.824 29.4565)" fill="#FDE01B"/>
</g>
<g filter="url(#filter10_d)">
<rect x="159.268" y="7.00757" width="13.6553" height="0.620695" transform="rotate(-0.0409967 159.268 7.00757)" fill="#F27500"/>
</g>
<g filter="url(#filter11_d)">
<rect x="159.297" y="7.4502" width="13.6553" height="0.985636" transform="rotate(-0.0409937 159.297 7.4502)" fill="#FDE01B"/>
</g>
<path d="M185.873 59.8686L206.404 60.8398L186.034 23.2985L165.223 21.0164L185.873 59.8686Z" fill="#FDE01B"/>
<path d="M181.16 22.7607L201.292 60.6375L206.403 60.8396L186.033 23.2982L181.16 22.7607Z" fill="#F27500"/>
<path d="M182.893 22.8824L203.025 60.7592L204.758 60.8808L184.712 23.1666L182.893 22.8824Z" fill="#FDE01B"/>
<path d="M179.428 22.6393L199.56 60.516L201.293 60.6376L181.247 22.9234L179.428 22.6393Z" fill="#FDE01B"/>
<g filter="url(#filter12_d)">
<rect x="183.205" y="59.7883" width="24.3008" height="1.10458" transform="rotate(-0.0409968 183.205 59.7883)" fill="#F27500"/>
</g>
<g filter="url(#filter13_d)">
<rect x="183.258" y="60.5757" width="24.3008" height="1.75403" transform="rotate(-0.0409938 183.258 60.5757)" fill="#FDE01B"/>
</g>
<g filter="url(#filter14_d)">
<rect x="164.475" y="20.6262" width="24.3008" height="1.10458" transform="rotate(-0.0409967 164.475 20.6262)" fill="#F27500"/>
</g>
<g filter="url(#filter15_d)">
<rect x="164.527" y="21.4136" width="24.3008" height="1.75403" transform="rotate(-0.0409937 164.527 21.4136)" fill="#FDE01B"/>
</g>
<rect x="26.707" y="15.7056" width="162.005" height="4.05013" fill="#FDE01B"/>
<rect x="26.707" y="19.5718" width="162.005" height="1.47277" fill="#F27500"/>
<rect x="50.2715" y="1.34619" width="114.508" height="4.05013" fill="#FDE01B"/>
<path d="M164.778 1.34619L161.096 5.21224L171.405 15.7058H188.71L164.778 1.34619Z" fill="#FDE01B"/>
<path d="M46.7736 15.7056H26.707L50.2714 1.34592L53.7693 5.21205L46.7736 15.7056Z" fill="#FDE01B"/>
<path d="M161.284 5.39648L171.409 15.7059H167.175L161.284 7.05334H53.587L50.4573 15.7059H46.7754L53.587 5.39648H161.284Z" fill="#F27500"/>
<path d="M170.855 15.5217L188.713 15.8899" stroke="#F27500"/>
<path d="M161.096 5.58057L171.773 5.58059" stroke="#F27500"/>
<path d="M43.2754 5.58057L53.953 5.58059" stroke="#F27500"/>
<path d="M26.707 15.5217H46.7736" stroke="#F27500"/>
<path d="M285.208 18.3824L294.365 17.9492L285.279 34.6935L275.997 35.7114L285.208 18.3824Z" fill="#FDE01B"/>
<path d="M283.108 34.9331L292.087 18.0393L294.367 17.9491L285.281 34.6934L283.108 34.9331Z" fill="#F27500"/>
<path d="M283.879 34.8787L292.858 17.9848L293.631 17.9306L284.69 34.752L283.879 34.8787Z" fill="#FDE01B"/>
<path d="M282.336 34.9874L291.315 18.0935L292.088 18.0393L283.147 34.8606L282.336 34.9874Z" fill="#FDE01B"/>
<g filter="url(#filter16_d)">
<rect width="10.8387" height="0.492668" transform="matrix(1 0.000715525 0.000715525 -1 284.016 18.418)" fill="#F27500"/>
</g>
<g filter="url(#filter17_d)">
<rect width="10.8387" height="0.782335" transform="matrix(1 0.000715473 0.000715473 -1 284.041 18.0669)" fill="#FDE01B"/>
</g>
<g filter="url(#filter18_d)">
<rect width="10.8387" height="0.492668" transform="matrix(1 0.000715527 0.000715527 -1 275.662 35.885)" fill="#F27500"/>
</g>
<g filter="url(#filter19_d)">
<rect width="10.8387" height="0.782335" transform="matrix(1 0.000715474 0.000715474 -1 275.688 35.5339)" fill="#FDE01B"/>
</g>
<path d="M269.016 30.3337L285.312 29.5627L269.144 59.3607L252.626 61.172L269.016 30.3337Z" fill="#FDE01B"/>
<path d="M265.277 59.7873L281.257 29.7232L285.314 29.5627L269.145 59.3607L265.277 59.7873Z" fill="#F27500"/>
<path d="M266.652 59.691L282.632 29.6268L284.007 29.5303L268.096 59.4655L266.652 59.691Z" fill="#FDE01B"/>
<path d="M263.902 59.8839L279.882 29.8197L281.257 29.7232L265.346 59.6583L263.902 59.8839Z" fill="#FDE01B"/>
<g filter="url(#filter20_d)">
<rect width="19.2884" height="0.876746" transform="matrix(1 0.000715525 0.000715525 -1 266.898 30.3975)" fill="#F27500"/>
</g>
<g filter="url(#filter21_d)">
<rect width="19.2884" height="1.39223" transform="matrix(1 0.000715473 0.000715473 -1 266.938 29.7722)" fill="#FDE01B"/>
</g>
<g filter="url(#filter22_d)">
<rect width="19.2884" height="0.876746" transform="matrix(1 0.000715527 0.000715527 -1 252.031 61.4817)" fill="#F27500"/>
</g>
<g filter="url(#filter23_d)">
<rect width="19.2884" height="1.39223" transform="matrix(1 0.000715474 0.000715474 -1 252.07 60.8564)" fill="#FDE01B"/>
</g>
<path d="M382.526 35.0868L391.684 35.52L382.598 18.7757L373.316 17.7579L382.526 35.0868Z" fill="#FDE01B"/>
<path d="M380.426 18.5361L389.406 35.43L391.685 35.5202L382.6 18.7758L380.426 18.5361Z" fill="#F27500"/>
<path d="M381.197 18.5905L390.176 35.4844L390.949 35.5386L382.008 18.7172L381.197 18.5905Z" fill="#FDE01B"/>
<path d="M379.654 18.4819L388.633 35.3757L389.406 35.43L380.465 18.6086L379.654 18.4819Z" fill="#FDE01B"/>
<g filter="url(#filter24_d)">
<rect x="381.336" y="35.0513" width="10.8387" height="0.492668" transform="rotate(-0.0409968 381.336 35.0513)" fill="#F27500"/>
</g>
<g filter="url(#filter25_d)">
<rect x="381.361" y="35.4023" width="10.8387" height="0.782335" transform="rotate(-0.0409938 381.361 35.4023)" fill="#FDE01B"/>
</g>
<g filter="url(#filter26_d)">
<rect x="372.98" y="17.5842" width="10.8387" height="0.492668" transform="rotate(-0.0409967 372.98 17.5842)" fill="#F27500"/>
</g>
<g filter="url(#filter27_d)">
<rect x="373.006" y="17.9353" width="10.8387" height="0.782335" transform="rotate(-0.0409937 373.006 17.9353)" fill="#FDE01B"/>
</g>
<path d="M394.098 59.5416L410.395 60.3125L394.226 30.5146L377.708 28.7032L394.098 59.5416Z" fill="#FDE01B"/>
<path d="M390.359 30.0879L406.339 60.1521L410.396 60.3125L394.227 30.5146L390.359 30.0879Z" fill="#F27500"/>
<path d="M391.734 30.1842L407.714 60.2484L409.089 60.3449L393.178 30.4098L391.734 30.1842Z" fill="#FDE01B"/>
<path d="M388.984 29.9914L404.964 60.0555L406.339 60.152L390.428 30.2169L388.984 29.9914Z" fill="#FDE01B"/>
<g filter="url(#filter28_d)">
<rect x="391.98" y="59.478" width="19.2884" height="0.876746" transform="rotate(-0.0409968 391.98 59.478)" fill="#F27500"/>
</g>
<g filter="url(#filter29_d)">
<rect x="392.02" y="60.1033" width="19.2884" height="1.39223" transform="rotate(-0.0409938 392.02 60.1033)" fill="#FDE01B"/>
</g>
<g filter="url(#filter30_d)">
<rect x="377.113" y="28.3936" width="19.2884" height="0.876746" transform="rotate(-0.0409967 377.113 28.3936)" fill="#F27500"/>
</g>
<g filter="url(#filter31_d)">
<rect x="377.152" y="29.0188" width="19.2884" height="1.39223" transform="rotate(-0.0409937 377.152 29.0188)" fill="#FDE01B"/>
</g>
<rect x="267.764" y="24.4883" width="128.589" height="3.21473" fill="#FDE01B"/>
<rect x="267.764" y="27.5571" width="128.589" height="1.16899" fill="#F27500"/>
<rect x="286.469" y="13.0906" width="90.8893" height="3.21473" fill="#FDE01B"/>
<path d="M377.356 13.0906L374.434 16.1592L382.617 24.4883H396.352L377.356 13.0906Z" fill="#FDE01B"/>
<path d="M283.691 24.4883H267.764L286.468 13.0905L289.244 16.1592L283.691 24.4883Z" fill="#FDE01B"/>
<path d="M374.581 16.3054L382.618 24.4884H379.257L374.581 17.6205H289.098L286.614 24.4884H283.691L289.098 16.3054H374.581Z" fill="#F27500"/>
<path d="M382.18 24.3423L396.354 24.6345" stroke="#F27500"/>
<path d="M374.434 16.4517L382.909 16.4517" stroke="#F27500"/>
<path d="M280.916 16.4517L289.391 16.4517" stroke="#F27500"/>
<path d="M267.764 24.3423H283.691" stroke="#F27500"/>
<g clip-path="url(#clip0)">
<path d="M461.011 38.1104C461.011 38.1104 459.403 -5.16209 495.666 3.56163C504.282 5.63871 510.647 14.0163 510.647 23.7785C510.647 24.1247 510.647 24.4016 510.647 24.7478" stroke="#F35B84" stroke-width="3" stroke-miterlimit="10"/>
<path d="M460.431 39.9799C458.888 39.5645 458.888 37.4181 460.431 37.0027L474.576 32.987L494.058 27.5174L494.058 38.5259L494.058 49.5344L474.576 44.0648L460.431 39.9799Z" fill="#43EDB0"/>
<path d="M509.233 20.5245L493.93 20.5245C490.394 20.5245 486.6 23.1554 486.6 26.9634C486.536 37.9027 486.022 39.9105 486.343 50.9191C486.472 54.6578 490.137 57.0811 493.609 57.0811L509.233 57.0811C513.348 57.0811 516.691 53.4808 516.691 49.0497L516.691 28.6943C516.691 24.1247 513.348 20.5245 509.233 20.5245Z" fill="#F35B84"/>
<path d="M597.061 20.4553L597.061 57.0811C597.061 61.6507 593.589 65.3894 589.346 65.3894L522.413 65.3894C518.17 65.3894 511.74 64.5586 511.74 58.812L511.74 19.2783C511.74 14.7087 515.405 12.147 522.413 12.147L589.346 12.147C593.589 12.147 597.061 15.8857 597.061 20.4553Z" fill="#43EDB0"/>
<path d="M464.353 35.8949L464.353 41.0876L460.431 39.9799C460.431 39.9799 459.338 39.7722 459.274 38.4567C459.21 37.1412 460.431 37.0027 460.431 37.0027L464.353 35.8949Z" fill="#F35B84"/>
</g>
<defs>
<filter id="filter0_d" x="41.1836" y="1.43726" width="25.6557" height="12.6305" filterUnits="userSpaceOnUse" color-interpolation-filters="sRGB">
<feFlood flood-opacity="0" result="BackgroundImageFix"/>
<feColorMatrix in="SourceAlpha" type="matrix" values="0 0 0 0 0 0 0 0 0 0 0 0 0 0 0 0 0 0 127 0"/>
<feOffset/>
<feGaussianBlur stdDeviation="3"/>
<feColorMatrix type="matrix" values="0 0 0 0 0 0 0 0 0 0 0 0 0 0 0 0 0 0 0.25 0"/>
<feBlend mode="normal" in2="BackgroundImageFix" result="effect1_dropShadow"/>
<feBlend mode="normal" in="SourceGraphic" in2="effect1_dropShadow" result="shape"/>
</filter>
<filter id="filter1_d" x="41.2129" y="0.629639" width="25.656" height="12.9954" filterUnits="userSpaceOnUse" color-interpolation-filters="sRGB">
<feFlood flood-opacity="0" result="BackgroundImageFix"/>
<feColorMatrix in="SourceAlpha" type="matrix" values="0 0 0 0 0 0 0 0 0 0 0 0 0 0 0 0 0 0 127 0"/>
<feOffset/>
<feGaussianBlur stdDeviation="3"/>
<feColorMatrix type="matrix" values="0 0 0 0 0 0 0 0 0 0 0 0 0 0 0 0 0 0 0.25 0"/>
<feBlend mode="normal" in2="BackgroundImageFix" result="effect1_dropShadow"/>
<feBlend mode="normal" in="SourceGraphic" in2="effect1_dropShadow" result="shape"/>
</filter>
<filter id="filter2_d" x="30.6582" y="23.4436" width="25.6557" height="12.6305" filterUnits="userSpaceOnUse" color-interpolation-filters="sRGB">
<feFlood flood-opacity="0" result="BackgroundImageFix"/>
<feColorMatrix in="SourceAlpha" type="matrix" values="0 0 0 0 0 0 0 0 0 0 0 0 0 0 0 0 0 0 127 0"/>
<feOffset/>
<feGaussianBlur stdDeviation="3"/>
<feColorMatrix type="matrix" values="0 0 0 0 0 0 0 0 0 0 0 0 0 0 0 0 0 0 0.25 0"/>
<feBlend mode="normal" in2="BackgroundImageFix" result="effect1_dropShadow"/>
<feBlend mode="normal" in="SourceGraphic" in2="effect1_dropShadow" result="shape"/>
</filter>
<filter id="filter3_d" x="30.6875" y="22.636" width="25.656" height="12.9954" filterUnits="userSpaceOnUse" color-interpolation-filters="sRGB">
<feFlood flood-opacity="0" result="BackgroundImageFix"/>
<feColorMatrix in="SourceAlpha" type="matrix" values="0 0 0 0 0 0 0 0 0 0 0 0 0 0 0 0 0 0 127 0"/>
<feOffset/>
<feGaussianBlur stdDeviation="3"/>
<feColorMatrix type="matrix" values="0 0 0 0 0 0 0 0 0 0 0 0 0 0 0 0 0 0 0.25 0"/>
<feBlend mode="normal" in2="BackgroundImageFix" result="effect1_dropShadow"/>
<feBlend mode="normal" in="SourceGraphic" in2="effect1_dropShadow" result="shape"/>
</filter>
<filter id="filter4_d" x="19.6172" y="16.0457" width="36.3016" height="13.122" filterUnits="userSpaceOnUse" color-interpolation-filters="sRGB">
<feFlood flood-opacity="0" result="BackgroundImageFix"/>
<feColorMatrix in="SourceAlpha" type="matrix" values="0 0 0 0 0 0 0 0 0 0 0 0 0 0 0 0 0 0 127 0"/>
<feOffset/>
<feGaussianBlur stdDeviation="3"/>
<feColorMatrix type="matrix" values="0 0 0 0 0 0 0 0 0 0 0 0 0 0 0 0 0 0 0.25 0"/>
<feBlend mode="normal" in2="BackgroundImageFix" result="effect1_dropShadow"/>
<feBlend mode="normal" in="SourceGraphic" in2="effect1_dropShadow" result="shape"/>
</filter>
<filter id="filter5_d" x="19.6699" y="14.6089" width="36.302" height="13.7714" filterUnits="userSpaceOnUse" color-interpolation-filters="sRGB">
<feFlood flood-opacity="0" result="BackgroundImageFix"/>
<feColorMatrix in="SourceAlpha" type="matrix" values="0 0 0 0 0 0 0 0 0 0 0 0 0 0 0 0 0 0 127 0"/>
<feOffset/>
<feGaussianBlur stdDeviation="3"/>
<feColorMatrix type="matrix" values="0 0 0 0 0 0 0 0 0 0 0 0 0 0 0 0 0 0 0.25 0"/>
<feBlend mode="normal" in2="BackgroundImageFix" result="effect1_dropShadow"/>
<feBlend mode="normal" in="SourceGraphic" in2="effect1_dropShadow" result="shape"/>
</filter>
<filter id="filter6_d" x="0.886719" y="55.2078" width="36.3016" height="13.122" filterUnits="userSpaceOnUse" color-interpolation-filters="sRGB">
<feFlood flood-opacity="0" result="BackgroundImageFix"/>
<feColorMatrix in="SourceAlpha" type="matrix" values="0 0 0 0 0 0 0 0 0 0 0 0 0 0 0 0 0 0 127 0"/>
<feOffset/>
<feGaussianBlur stdDeviation="3"/>
<feColorMatrix type="matrix" values="0 0 0 0 0 0 0 0 0 0 0 0 0 0 0 0 0 0 0.25 0"/>
<feBlend mode="normal" in2="BackgroundImageFix" result="effect1_dropShadow"/>
<feBlend mode="normal" in="SourceGraphic" in2="effect1_dropShadow" result="shape"/>
</filter>
<filter id="filter7_d" x="0.939453" y="53.771" width="36.302" height="13.7714" filterUnits="userSpaceOnUse" color-interpolation-filters="sRGB">
<feFlood flood-opacity="0" result="BackgroundImageFix"/>
<feColorMatrix in="SourceAlpha" type="matrix" values="0 0 0 0 0 0 0 0 0 0 0 0 0 0 0 0 0 0 127 0"/>
<feOffset/>
<feGaussianBlur stdDeviation="3"/>
<feColorMatrix type="matrix" values="0 0 0 0 0 0 0 0 0 0 0 0 0 0 0 0 0 0 0.25 0"/>
<feBlend mode="normal" in2="BackgroundImageFix" result="effect1_dropShadow"/>
<feBlend mode="normal" in="SourceGraphic" in2="effect1_dropShadow" result="shape"/>
</filter>
<filter id="filter8_d" x="163.795" y="23.0042" width="25.6557" height="12.6305" filterUnits="userSpaceOnUse" color-interpolation-filters="sRGB">
<feFlood flood-opacity="0" result="BackgroundImageFix"/>
<feColorMatrix in="SourceAlpha" type="matrix" values="0 0 0 0 0 0 0 0 0 0 0 0 0 0 0 0 0 0 127 0"/>
<feOffset/>
<feGaussianBlur stdDeviation="3"/>
<feColorMatrix type="matrix" values="0 0 0 0 0 0 0 0 0 0 0 0 0 0 0 0 0 0 0.25 0"/>
<feBlend mode="normal" in2="BackgroundImageFix" result="effect1_dropShadow"/>
<feBlend mode="normal" in="SourceGraphic" in2="effect1_dropShadow" result="shape"/>
</filter>
<filter id="filter9_d" x="163.824" y="23.4468" width="25.656" height="12.9954" filterUnits="userSpaceOnUse" color-interpolation-filters="sRGB">
<feFlood flood-opacity="0" result="BackgroundImageFix"/>
<feColorMatrix in="SourceAlpha" type="matrix" values="0 0 0 0 0 0 0 0 0 0 0 0 0 0 0 0 0 0 127 0"/>
<feOffset/>
<feGaussianBlur stdDeviation="3"/>
<feColorMatrix type="matrix" values="0 0 0 0 0 0 0 0 0 0 0 0 0 0 0 0 0 0 0.25 0"/>
<feBlend mode="normal" in2="BackgroundImageFix" result="effect1_dropShadow"/>
<feBlend mode="normal" in="SourceGraphic" in2="effect1_dropShadow" result="shape"/>
</filter>
<filter id="filter10_d" x="153.268" y="0.997803" width="25.6557" height="12.6305" filterUnits="userSpaceOnUse" color-interpolation-filters="sRGB">
<feFlood flood-opacity="0" result="BackgroundImageFix"/>
<feColorMatrix in="SourceAlpha" type="matrix" values="0 0 0 0 0 0 0 0 0 0 0 0 0 0 0 0 0 0 127 0"/>
<feOffset/>
<feGaussianBlur stdDeviation="3"/>
<feColorMatrix type="matrix" values="0 0 0 0 0 0 0 0 0 0 0 0 0 0 0 0 0 0 0.25 0"/>
<feBlend mode="normal" in2="BackgroundImageFix" result="effect1_dropShadow"/>
<feBlend mode="normal" in="SourceGraphic" in2="effect1_dropShadow" result="shape"/>
</filter>
<filter id="filter11_d" x="153.297" y="1.44043" width="25.656" height="12.9954" filterUnits="userSpaceOnUse" color-interpolation-filters="sRGB">
<feFlood flood-opacity="0" result="BackgroundImageFix"/>
<feColorMatrix in="SourceAlpha" type="matrix" values="0 0 0 0 0 0 0 0 0 0 0 0 0 0 0 0 0 0 127 0"/>
<feOffset/>
<feGaussianBlur stdDeviation="3"/>
<feColorMatrix type="matrix" values="0 0 0 0 0 0 0 0 0 0 0 0 0 0 0 0 0 0 0.25 0"/>
<feBlend mode="normal" in2="BackgroundImageFix" result="effect1_dropShadow"/>
<feBlend mode="normal" in="SourceGraphic" in2="effect1_dropShadow" result="shape"/>
</filter>
<filter id="filter12_d" x="177.205" y="53.771" width="36.3016" height="13.122" filterUnits="userSpaceOnUse" color-interpolation-filters="sRGB">
<feFlood flood-opacity="0" result="BackgroundImageFix"/>
<feColorMatrix in="SourceAlpha" type="matrix" values="0 0 0 0 0 0 0 0 0 0 0 0 0 0 0 0 0 0 127 0"/>
<feOffset/>
<feGaussianBlur stdDeviation="3"/>
<feColorMatrix type="matrix" values="0 0 0 0 0 0 0 0 0 0 0 0 0 0 0 0 0 0 0.25 0"/>
<feBlend mode="normal" in2="BackgroundImageFix" result="effect1_dropShadow"/>
<feBlend mode="normal" in="SourceGraphic" in2="effect1_dropShadow" result="shape"/>
</filter>
<filter id="filter13_d" x="177.258" y="54.5583" width="36.302" height="13.7714" filterUnits="userSpaceOnUse" color-interpolation-filters="sRGB">
<feFlood flood-opacity="0" result="BackgroundImageFix"/>
<feColorMatrix in="SourceAlpha" type="matrix" values="0 0 0 0 0 0 0 0 0 0 0 0 0 0 0 0 0 0 127 0"/>
<feOffset/>
<feGaussianBlur stdDeviation="3"/>
<feColorMatrix type="matrix" values="0 0 0 0 0 0 0 0 0 0 0 0 0 0 0 0 0 0 0.25 0"/>
<feBlend mode="normal" in2="BackgroundImageFix" result="effect1_dropShadow"/>
<feBlend mode="normal" in="SourceGraphic" in2="effect1_dropShadow" result="shape"/>
</filter>
<filter id="filter14_d" x="158.475" y="14.6089" width="36.3016" height="13.122" filterUnits="userSpaceOnUse" color-interpolation-filters="sRGB">
<feFlood flood-opacity="0" result="BackgroundImageFix"/>
<feColorMatrix in="SourceAlpha" type="matrix" values="0 0 0 0 0 0 0 0 0 0 0 0 0 0 0 0 0 0 127 0"/>
<feOffset/>
<feGaussianBlur stdDeviation="3"/>
<feColorMatrix type="matrix" values="0 0 0 0 0 0 0 0 0 0 0 0 0 0 0 0 0 0 0.25 0"/>
<feBlend mode="normal" in2="BackgroundImageFix" result="effect1_dropShadow"/>
<feBlend mode="normal" in="SourceGraphic" in2="effect1_dropShadow" result="shape"/>
</filter>
<filter id="filter15_d" x="158.527" y="15.3962" width="36.302" height="13.7714" filterUnits="userSpaceOnUse" color-interpolation-filters="sRGB">
<feFlood flood-opacity="0" result="BackgroundImageFix"/>
<feColorMatrix in="SourceAlpha" type="matrix" values="0 0 0 0 0 0 0 0 0 0 0 0 0 0 0 0 0 0 127 0"/>
<feOffset/>
<feGaussianBlur stdDeviation="3"/>
<feColorMatrix type="matrix" values="0 0 0 0 0 0 0 0 0 0 0 0 0 0 0 0 0 0 0.25 0"/>
<feBlend mode="normal" in2="BackgroundImageFix" result="effect1_dropShadow"/>
<feBlend mode="normal" in="SourceGraphic" in2="effect1_dropShadow" result="shape"/>
</filter>
<filter id="filter16_d" x="278.016" y="11.9253" width="22.839" height="12.5004" filterUnits="userSpaceOnUse" color-interpolation-filters="sRGB">
<feFlood flood-opacity="0" result="BackgroundImageFix"/>
<feColorMatrix in="SourceAlpha" type="matrix" values="0 0 0 0 0 0 0 0 0 0 0 0 0 0 0 0 0 0 127 0"/>
<feOffset/>
<feGaussianBlur stdDeviation="3"/>
<feColorMatrix type="matrix" values="0 0 0 0 0 0 0 0 0 0 0 0 0 0 0 0 0 0 0.25 0"/>
<feBlend mode="normal" in2="BackgroundImageFix" result="effect1_dropShadow"/>
<feBlend mode="normal" in="SourceGraphic" in2="effect1_dropShadow" result="shape"/>
</filter>
<filter id="filter17_d" x="278.041" y="11.2847" width="22.8393" height="12.7901" filterUnits="userSpaceOnUse" color-interpolation-filters="sRGB">
<feFlood flood-opacity="0" result="BackgroundImageFix"/>
<feColorMatrix in="SourceAlpha" type="matrix" values="0 0 0 0 0 0 0 0 0 0 0 0 0 0 0 0 0 0 127 0"/>
<feOffset/>
<feGaussianBlur stdDeviation="3"/>
<feColorMatrix type="matrix" values="0 0 0 0 0 0 0 0 0 0 0 0 0 0 0 0 0 0 0.25 0"/>
<feBlend mode="normal" in2="BackgroundImageFix" result="effect1_dropShadow"/>
<feBlend mode="normal" in="SourceGraphic" in2="effect1_dropShadow" result="shape"/>
</filter>
<filter id="filter18_d" x="269.662" y="29.3923" width="22.839" height="12.5004" filterUnits="userSpaceOnUse" color-interpolation-filters="sRGB">
<feFlood flood-opacity="0" result="BackgroundImageFix"/>
<feColorMatrix in="SourceAlpha" type="matrix" values="0 0 0 0 0 0 0 0 0 0 0 0 0 0 0 0 0 0 127 0"/>
<feOffset/>
<feGaussianBlur stdDeviation="3"/>
<feColorMatrix type="matrix" values="0 0 0 0 0 0 0 0 0 0 0 0 0 0 0 0 0 0 0.25 0"/>
<feBlend mode="normal" in2="BackgroundImageFix" result="effect1_dropShadow"/>
<feBlend mode="normal" in="SourceGraphic" in2="effect1_dropShadow" result="shape"/>
</filter>
<filter id="filter19_d" x="269.688" y="28.7517" width="22.8393" height="12.7901" filterUnits="userSpaceOnUse" color-interpolation-filters="sRGB">
<feFlood flood-opacity="0" result="BackgroundImageFix"/>
<feColorMatrix in="SourceAlpha" type="matrix" values="0 0 0 0 0 0 0 0 0 0 0 0 0 0 0 0 0 0 127 0"/>
<feOffset/>
<feGaussianBlur stdDeviation="3"/>
<feColorMatrix type="matrix" values="0 0 0 0 0 0 0 0 0 0 0 0 0 0 0 0 0 0 0.25 0"/>
<feBlend mode="normal" in2="BackgroundImageFix" result="effect1_dropShadow"/>
<feBlend mode="normal" in="SourceGraphic" in2="effect1_dropShadow" result="shape"/>
</filter>
<filter id="filter20_d" x="260.898" y="23.5208" width="31.289" height="12.8905" filterUnits="userSpaceOnUse" color-interpolation-filters="sRGB">
<feFlood flood-opacity="0" result="BackgroundImageFix"/>
<feColorMatrix in="SourceAlpha" type="matrix" values="0 0 0 0 0 0 0 0 0 0 0 0 0 0 0 0 0 0 127 0"/>
<feOffset/>
<feGaussianBlur stdDeviation="3"/>
<feColorMatrix type="matrix" values="0 0 0 0 0 0 0 0 0 0 0 0 0 0 0 0 0 0 0.25 0"/>
<feBlend mode="normal" in2="BackgroundImageFix" result="effect1_dropShadow"/>
<feBlend mode="normal" in="SourceGraphic" in2="effect1_dropShadow" result="shape"/>
</filter>
<filter id="filter21_d" x="260.938" y="22.3799" width="31.2894" height="13.406" filterUnits="userSpaceOnUse" color-interpolation-filters="sRGB">
<feFlood flood-opacity="0" result="BackgroundImageFix"/>
<feColorMatrix in="SourceAlpha" type="matrix" values="0 0 0 0 0 0 0 0 0 0 0 0 0 0 0 0 0 0 127 0"/>
<feOffset/>
<feGaussianBlur stdDeviation="3"/>
<feColorMatrix type="matrix" values="0 0 0 0 0 0 0 0 0 0 0 0 0 0 0 0 0 0 0.25 0"/>
<feBlend mode="normal" in2="BackgroundImageFix" result="effect1_dropShadow"/>
<feBlend mode="normal" in="SourceGraphic" in2="effect1_dropShadow" result="shape"/>
</filter>
<filter id="filter22_d" x="246.031" y="54.605" width="31.289" height="12.8905" filterUnits="userSpaceOnUse" color-interpolation-filters="sRGB">
<feFlood flood-opacity="0" result="BackgroundImageFix"/>
<feColorMatrix in="SourceAlpha" type="matrix" values="0 0 0 0 0 0 0 0 0 0 0 0 0 0 0 0 0 0 127 0"/>
<feOffset/>
<feGaussianBlur stdDeviation="3"/>
<feColorMatrix type="matrix" values="0 0 0 0 0 0 0 0 0 0 0 0 0 0 0 0 0 0 0.25 0"/>
<feBlend mode="normal" in2="BackgroundImageFix" result="effect1_dropShadow"/>
<feBlend mode="normal" in="SourceGraphic" in2="effect1_dropShadow" result="shape"/>
</filter>
<filter id="filter23_d" x="246.07" y="53.4641" width="31.2894" height="13.406" filterUnits="userSpaceOnUse" color-interpolation-filters="sRGB">
<feFlood flood-opacity="0" result="BackgroundImageFix"/>
<feColorMatrix in="SourceAlpha" type="matrix" values="0 0 0 0 0 0 0 0 0 0 0 0 0 0 0 0 0 0 127 0"/>
<feOffset/>
<feGaussianBlur stdDeviation="3"/>
<feColorMatrix type="matrix" values="0 0 0 0 0 0 0 0 0 0 0 0 0 0 0 0 0 0 0.25 0"/>
<feBlend mode="normal" in2="BackgroundImageFix" result="effect1_dropShadow"/>
<feBlend mode="normal" in="SourceGraphic" in2="effect1_dropShadow" result="shape"/>
</filter>
<filter id="filter24_d" x="375.336" y="29.0435" width="22.839" height="12.5004" filterUnits="userSpaceOnUse" color-interpolation-filters="sRGB">
<feFlood flood-opacity="0" result="BackgroundImageFix"/>
<feColorMatrix in="SourceAlpha" type="matrix" values="0 0 0 0 0 0 0 0 0 0 0 0 0 0 0 0 0 0 127 0"/>
<feOffset/>
<feGaussianBlur stdDeviation="3"/>
<feColorMatrix type="matrix" values="0 0 0 0 0 0 0 0 0 0 0 0 0 0 0 0 0 0 0.25 0"/>
<feBlend mode="normal" in2="BackgroundImageFix" result="effect1_dropShadow"/>
<feBlend mode="normal" in="SourceGraphic" in2="effect1_dropShadow" result="shape"/>
</filter>
<filter id="filter25_d" x="375.361" y="29.3945" width="22.8393" height="12.7901" filterUnits="userSpaceOnUse" color-interpolation-filters="sRGB">
<feFlood flood-opacity="0" result="BackgroundImageFix"/>
<feColorMatrix in="SourceAlpha" type="matrix" values="0 0 0 0 0 0 0 0 0 0 0 0 0 0 0 0 0 0 127 0"/>
<feOffset/>
<feGaussianBlur stdDeviation="3"/>
<feColorMatrix type="matrix" values="0 0 0 0 0 0 0 0 0 0 0 0 0 0 0 0 0 0 0.25 0"/>
<feBlend mode="normal" in2="BackgroundImageFix" result="effect1_dropShadow"/>
<feBlend mode="normal" in="SourceGraphic" in2="effect1_dropShadow" result="shape"/>
</filter>
<filter id="filter26_d" x="366.98" y="11.5764" width="22.839" height="12.5004" filterUnits="userSpaceOnUse" color-interpolation-filters="sRGB">
<feFlood flood-opacity="0" result="BackgroundImageFix"/>
<feColorMatrix in="SourceAlpha" type="matrix" values="0 0 0 0 0 0 0 0 0 0 0 0 0 0 0 0 0 0 127 0"/>
<feOffset/>
<feGaussianBlur stdDeviation="3"/>
<feColorMatrix type="matrix" values="0 0 0 0 0 0 0 0 0 0 0 0 0 0 0 0 0 0 0.25 0"/>
<feBlend mode="normal" in2="BackgroundImageFix" result="effect1_dropShadow"/>
<feBlend mode="normal" in="SourceGraphic" in2="effect1_dropShadow" result="shape"/>
</filter>
<filter id="filter27_d" x="367.006" y="11.9275" width="22.8393" height="12.7901" filterUnits="userSpaceOnUse" color-interpolation-filters="sRGB">
<feFlood flood-opacity="0" result="BackgroundImageFix"/>
<feColorMatrix in="SourceAlpha" type="matrix" values="0 0 0 0 0 0 0 0 0 0 0 0 0 0 0 0 0 0 127 0"/>
<feOffset/>
<feGaussianBlur stdDeviation="3"/>
<feColorMatrix type="matrix" values="0 0 0 0 0 0 0 0 0 0 0 0 0 0 0 0 0 0 0.25 0"/>
<feBlend mode="normal" in2="BackgroundImageFix" result="effect1_dropShadow"/>
<feBlend mode="normal" in="SourceGraphic" in2="effect1_dropShadow" result="shape"/>
</filter>
<filter id="filter28_d" x="385.98" y="53.4641" width="31.289" height="12.8905" filterUnits="userSpaceOnUse" color-interpolation-filters="sRGB">
<feFlood flood-opacity="0" result="BackgroundImageFix"/>
<feColorMatrix in="SourceAlpha" type="matrix" values="0 0 0 0 0 0 0 0 0 0 0 0 0 0 0 0 0 0 127 0"/>
<feOffset/>
<feGaussianBlur stdDeviation="3"/>
<feColorMatrix type="matrix" values="0 0 0 0 0 0 0 0 0 0 0 0 0 0 0 0 0 0 0.25 0"/>
<feBlend mode="normal" in2="BackgroundImageFix" result="effect1_dropShadow"/>
<feBlend mode="normal" in="SourceGraphic" in2="effect1_dropShadow" result="shape"/>
</filter>
<filter id="filter29_d" x="386.02" y="54.0894" width="31.2894" height="13.406" filterUnits="userSpaceOnUse" color-interpolation-filters="sRGB">
<feFlood flood-opacity="0" result="BackgroundImageFix"/>
<feColorMatrix in="SourceAlpha" type="matrix" values="0 0 0 0 0 0 0 0 0 0 0 0 0 0 0 0 0 0 127 0"/>
<feOffset/>
<feGaussianBlur stdDeviation="3"/>
<feColorMatrix type="matrix" values="0 0 0 0 0 0 0 0 0 0 0 0 0 0 0 0 0 0 0.25 0"/>
<feBlend mode="normal" in2="BackgroundImageFix" result="effect1_dropShadow"/>
<feBlend mode="normal" in="SourceGraphic" in2="effect1_dropShadow" result="shape"/>
</filter>
<filter id="filter30_d" x="371.113" y="22.3796" width="31.289" height="12.8905" filterUnits="userSpaceOnUse" color-interpolation-filters="sRGB">
<feFlood flood-opacity="0" result="BackgroundImageFix"/>
<feColorMatrix in="SourceAlpha" type="matrix" values="0 0 0 0 0 0 0 0 0 0 0 0 0 0 0 0 0 0 127 0"/>
<feOffset/>
<feGaussianBlur stdDeviation="3"/>
<feColorMatrix type="matrix" values="0 0 0 0 0 0 0 0 0 0 0 0 0 0 0 0 0 0 0.25 0"/>
<feBlend mode="normal" in2="BackgroundImageFix" result="effect1_dropShadow"/>
<feBlend mode="normal" in="SourceGraphic" in2="effect1_dropShadow" result="shape"/>
</filter>
<filter id="filter31_d" x="371.152" y="23.0049" width="31.2894" height="13.406" filterUnits="userSpaceOnUse" color-interpolation-filters="sRGB">
<feFlood flood-opacity="0" result="BackgroundImageFix"/>
<feColorMatrix in="SourceAlpha" type="matrix" values="0 0 0 0 0 0 0 0 0 0 0 0 0 0 0 0 0 0 127 0"/>
<feOffset/>
<feGaussianBlur stdDeviation="3"/>
<feColorMatrix type="matrix" values="0 0 0 0 0 0 0 0 0 0 0 0 0 0 0 0 0 0 0.25 0"/>
<feBlend mode="normal" in2="BackgroundImageFix" result="effect1_dropShadow"/>
<feBlend mode="normal" in="SourceGraphic" in2="effect1_dropShadow" result="shape"/>
</filter>
<clipPath id="clip0">
<rect width="64.0432" height="137.787" fill="white" transform="translate(459.273 65.3894) rotate(-90)"/>
</clipPath>
</defs>
</svg>
