<svg width="362" height="65" viewBox="0 0 362 65" fill="none" xmlns="http://www.w3.org/2000/svg">
<path d="M288.266 40.979C288.266 40.979 216.13 38.2403 216.732 33.8585C217.225 33.4751 216.513 31.7771 220.019 31.4485C223.524 31.1198 287.828 24.9852 287.828 24.9852L290.84 30.0791C290.84 30.0791 284.268 34.1871 290.84 36.7615C291.224 36.378 288.266 40.979 288.266 40.979Z" fill="#4A64AE"/>
<path d="M345.559 32.2153C334.55 34.461 294.785 32.3796 293.908 32.2153C289.417 35.9946 286.404 42.2388 286.404 42.2388C304.699 44.7583 319.268 52.3718 325.622 56.2607C327.046 57.1371 329.347 59.1089 330.771 59.9853C335.372 62.724 348.681 70.1183 358.267 57.1371C366.647 45.8538 356.843 37.0353 352.406 33.6941C351.201 32.8178 347.038 31.9414 345.559 32.2153ZM344.628 35.0087C352.516 36.2137 357.993 42.8413 356.952 49.7975C355.857 56.7537 348.627 61.4094 340.739 60.2044C332.852 58.9994 327.375 52.3718 328.415 45.4156C329.511 38.4594 336.741 33.8037 344.628 35.0087Z" fill="#EA2254"/>
<path d="M216.732 33.8584L285.801 25.1495C285.801 25.1495 248.391 29.4765 228.235 30.6268C217.992 31.2293 217.061 32.982 217.061 32.982C217.061 32.982 216.787 33.3654 216.732 33.8584Z" fill="#3850A2"/>
<path d="M282.241 33.3109C282.241 31.3749 280.672 29.8054 278.736 29.8054C276.8 29.8054 275.23 31.3749 275.23 33.3109C275.23 35.2469 276.8 36.8164 278.736 36.8164C280.672 36.8164 282.241 35.2469 282.241 33.3109Z" fill="#3850A2"/>
<path d="M330.771 5.15747C329.347 6.03384 327.046 8.00568 325.622 8.88205C319.268 12.7709 304.699 20.3844 286.404 22.904C286.404 22.904 289.472 29.2029 293.908 32.9275C294.785 32.7632 334.55 30.6818 345.559 32.9275C347.038 33.2014 351.201 32.3798 352.406 31.4486C356.897 28.1074 366.647 19.289 358.267 8.00567C348.681 -4.97559 335.372 2.4188 330.771 5.15747ZM356.131 11.6755C358.65 18.2483 354.597 25.8617 347.203 28.71C339.753 31.5582 331.702 28.4909 329.237 21.9181C326.717 15.3453 330.771 7.73181 338.165 4.8836C345.614 2.03539 353.666 5.10269 356.131 11.6755Z" fill="#EA2254"/>
<path d="M0.728515 37.0987C0.728515 42.0748 4.80532 46.1516 9.78141 46.1516L144.676 46.5713C149.712 46.5713 153.728 42.4945 153.728 37.5184C153.728 32.4823 149.652 28.4655 144.676 28.4655L9.78141 28.0458C4.80532 28.0458 0.728515 32.0627 0.728515 37.0987Z" fill="#F27500"/>
<path d="M0.728515 35.42C0.728515 40.4561 4.80532 44.4729 9.78141 44.4729L144.676 44.8926C149.712 44.8926 153.728 40.8158 153.728 35.8397C153.728 30.8036 149.652 26.7868 144.676 26.7868L9.78141 26.3671C4.80532 26.3671 0.728515 30.4439 0.728515 35.42Z" fill="#FDE01B"/>
</svg>
