<svg width="450" height="177" viewBox="0 0 450 177" fill="none" xmlns="http://www.w3.org/2000/svg">
<g clip-path="url(#clip0)">
<path d="M148 76.5801V127.58H192V76.5801H148Z" fill="#F27500"/>
<path d="M151 76.5801V127.58H195V76.5801H151Z" fill="#FDE01B"/>
<path d="M59 34.472L1 0.580078L2.20833 138.526L59 176.58V34.472Z" fill="#FDE01B"/>
<path d="M16 147.58V8.91208L1 0.580078L2.24999 138.653L16 147.58Z" fill="#F27500"/>
<path d="M11 144.58V5.56329L6 2.58008V141L11 144.58Z" fill="#FDE01B"/>
<path d="M20 150.58V11.5633L16 8.58008V147L20 150.58Z" fill="#FDE01B"/>
<path d="M60 68.342L0 38.5801V111.794L60 138.58V68.342Z" fill="#E6E6E6" fill-opacity="0.5"/>
<g clip-path="url(#clip1)">
<path d="M263.859 94.6541C263.859 94.6541 261.801 39.2341 308.244 50.4068C319.278 53.0669 327.43 63.7962 327.43 76.299C327.43 76.7423 327.43 77.097 327.43 77.5404" stroke="#F35B84" stroke-width="3" stroke-miterlimit="10"/>
<path d="M263.119 97.0482C261.143 96.5162 261.143 93.7673 263.119 93.2353L281.235 88.0923L306.186 81.0873L306.186 95.1861L306.186 109.285L281.235 102.28L263.119 97.0482Z" fill="#43EDB0"/>
<path d="M325.619 72.1314L306.021 72.1314C301.492 72.1314 296.634 75.501 296.634 80.3779C296.551 94.3881 295.892 96.9596 296.304 111.058C296.469 115.847 301.163 118.95 305.609 118.95L325.619 118.95C330.889 118.95 335.171 114.339 335.171 108.664L335.171 82.5947C335.171 76.7424 330.889 72.1314 325.619 72.1314Z" fill="#F35B84"/>
<path d="M438.103 72.0428L438.103 118.95C438.103 124.803 433.656 129.591 428.221 129.591L342.499 129.591C337.065 129.591 328.83 128.527 328.83 121.167L328.83 70.5353C328.83 64.683 333.524 61.4021 342.499 61.4021L428.221 61.4021C433.656 61.4021 438.103 66.1904 438.103 72.0428Z" fill="#43EDB0"/>
<path d="M268.141 91.8166L268.141 98.467L263.118 97.0483C263.118 97.0483 261.718 96.7823 261.636 95.0975C261.554 93.4127 263.118 93.2354 263.118 93.2354L268.141 91.8166Z" fill="#F35B84"/>
</g>
</g>
<defs>
<clipPath id="clip0">
<rect width="450" height="176" fill="white" transform="translate(0 0.580078)"/>
</clipPath>
<clipPath id="clip1">
<rect width="82.0215" height="176.466" fill="white" transform="translate(261.637 129.591) rotate(-90)"/>
</clipPath>
</defs>
</svg>
