<svg width="548" height="154" viewBox="0 0 548 154" fill="none" xmlns="http://www.w3.org/2000/svg">
<path d="M364.293 36.9149L320.611 10.9788L321.521 116.543L364.293 145.664V36.9149Z" fill="#FDE01B"/>
<path d="M331.531 123.369V17.349L320.611 10.9788L321.521 116.543L331.531 123.369Z" fill="#F27500"/>
<path d="M327.893 121.093V15.0737L324.252 12.7986V118.363L327.893 121.093Z" fill="#FDE01B"/>
<path d="M335.172 125.643V19.624L331.532 17.3489V122.913L335.172 125.643Z" fill="#FDE01B"/>
<g filter="url(#filter0_d)">
<rect x="370.027" y="40.1873" width="60.0625" height="2.73011" transform="rotate(-152.05 370.027 40.1873)" fill="#F27500"/>
</g>
<g filter="url(#filter1_d)">
<rect x="370.83" y="38.4094" width="60.0625" height="4.3353" transform="rotate(-152.05 370.83 38.4094)" fill="#FDE01B"/>
</g>
<g filter="url(#filter2_d)">
<rect x="365.479" y="147.386" width="60.0625" height="2.73011" transform="rotate(-152.05 365.479 147.386)" fill="#F27500"/>
</g>
<g filter="url(#filter3_d)">
<rect x="366.281" y="145.608" width="60.0625" height="4.3353" transform="rotate(-152.05 366.281 145.608)" fill="#FDE01B"/>
</g>
<path d="M13.9567 15.7876C9.94108 15.7876 6.65117 18.9982 6.65117 22.9171L6.3125 129.152C6.3125 133.118 9.60241 136.281 13.618 136.281C17.6821 136.281 20.9236 133.07 20.9236 129.152L21.2622 22.9171C21.2622 18.9982 18.0207 15.7876 13.9567 15.7876Z" fill="#F27500"/>
<path d="M14.8766 15.7876C10.8126 15.7876 7.57109 18.9982 7.57109 22.9171L7.23242 129.152C7.23242 133.118 10.5223 136.281 14.538 136.281C18.602 136.281 21.8435 133.07 21.8435 129.152L22.1822 22.9171C22.1822 18.9982 18.8923 15.7876 14.8766 15.7876Z" fill="#FDE01B"/>
<path d="M123.781 16.7319C119.765 16.7319 116.475 19.9426 116.475 23.8614L116.137 130.096C116.137 134.062 119.427 137.225 123.442 137.225C127.506 137.225 130.748 134.015 130.748 130.096L131.086 23.8614C131.086 19.9426 127.845 16.7319 123.781 16.7319Z" fill="#F27500"/>
<path d="M124.701 16.7319C120.637 16.7319 117.395 19.9426 117.395 23.8614L117.057 130.096C117.057 134.062 120.347 137.225 124.362 137.225C128.426 137.225 131.668 134.015 131.668 130.096L132.006 23.8614C132.006 19.9426 128.716 16.7319 124.701 16.7319Z" fill="#FDE01B"/>
<g filter="url(#filter4_d)">
<path d="M130.266 22.7755C130.266 18.8566 126.976 15.6459 122.96 15.6459L14.1027 15.3154C10.0387 15.3154 6.79715 18.5261 6.79714 22.4449C6.79714 26.411 10.0871 29.5745 14.1027 29.5745L122.96 29.905C126.976 29.905 130.266 26.7415 130.266 22.7755Z" fill="#F27500"/>
<path d="M131.232 23.6727C131.232 19.7066 127.943 16.5432 123.927 16.5432L15.0695 16.2126C11.0055 16.2126 7.76394 19.4233 7.76394 23.3422C7.76394 27.3082 11.0538 30.4717 15.0695 30.4717L123.927 30.8022C127.943 30.8022 131.232 27.5915 131.232 23.6727Z" fill="#FDE01B"/>
</g>
<g filter="url(#filter5_d)">
<path d="M129.297 129.482C129.297 125.563 126.007 122.352 121.991 122.352L13.1339 122.022C9.06992 122.022 5.8284 125.233 5.82839 129.151C5.82839 133.118 9.1183 136.281 13.1339 136.281L121.991 136.612C126.007 136.612 129.297 133.448 129.297 129.482Z" fill="#F27500"/>
<path d="M130.264 130.379C130.264 126.413 126.974 123.25 122.958 123.25L14.1007 122.919C10.0367 122.919 6.79519 126.13 6.79519 130.049C6.79519 134.015 10.0851 137.178 14.1007 137.178L122.958 137.509C126.974 137.509 130.264 134.298 130.264 130.379Z" fill="#FDE01B"/>
</g>
<path d="M190.23 116.578C190.23 120.756 186.78 124.179 182.455 124.179C178.18 124.179 174.679 120.756 174.679 116.578V45.3085H190.23L190.23 116.578Z" fill="#F27500"/>
<path d="M191.34 116.578C191.34 120.756 187.89 124.179 183.564 124.179C179.29 124.179 175.788 120.756 175.788 116.578V45.3085H191.34L191.34 116.578Z" fill="#FDE01B"/>
<path d="M252.438 113.138C252.438 117.375 249.234 120.846 245.217 120.846C241.248 120.846 237.996 117.375 237.996 113.138V40.8652H252.437L252.438 113.138Z" fill="#F27500"/>
<path d="M254.658 113.138C254.658 117.375 250.962 120.846 246.327 120.846C241.747 120.846 237.995 117.375 237.995 113.138V40.8652H254.658L254.658 113.138Z" fill="#FDE01B"/>
<g filter="url(#filter6_d)">
<path d="M246.95 41.9761C251.187 41.9761 254.658 45.4263 254.658 49.752C254.658 54.0262 251.187 57.5279 246.95 57.5279L174.677 57.5279L174.677 41.9761L246.95 41.9761Z" fill="#F27500"/>
</g>
<g filter="url(#filter7_d)">
<path d="M246.95 40.8652C251.187 40.8652 254.658 44.3155 254.658 48.6412C254.658 52.9154 251.187 56.4171 246.95 56.4171L174.677 56.4171L174.677 40.8652L246.95 40.8652Z" fill="#FDE01B"/>
</g>
<g filter="url(#filter8_d)">
<path d="M246.95 110.849C251.187 110.849 254.658 114.052 254.658 118.069C254.658 122.038 251.187 125.29 246.95 125.29L174.677 125.29L174.677 110.849L246.95 110.849Z" fill="#F27500"/>
</g>
<g filter="url(#filter9_d)">
<path d="M246.95 108.627C251.187 108.627 254.658 112.077 254.658 116.403C254.658 120.677 251.187 124.179 246.95 124.179L174.677 124.179L174.677 108.627L246.95 108.627Z" fill="#FDE01B"/>
</g>
<path d="M178.789 115.883V114.102C178.789 113.787 178.906 113.484 179.114 113.261C179.322 113.038 179.605 112.912 179.9 112.912C180.194 112.912 180.477 113.038 180.685 113.261C180.893 113.484 181.01 113.787 181.01 114.102V115.883C181.367 115.628 181.638 115.256 181.782 114.823C181.927 114.391 181.937 113.92 181.813 113.48C181.688 113.04 181.435 112.655 181.091 112.381C180.746 112.107 180.328 111.959 179.9 111.959C179.471 111.959 179.053 112.107 178.708 112.381C178.364 112.655 178.111 113.04 177.986 113.48C177.862 113.92 177.872 114.391 178.017 114.823C178.162 115.256 178.432 115.628 178.789 115.883ZM183.161 118.087L181.144 117.011C181.068 116.977 180.986 116.959 180.904 116.959H180.566V114.102C180.566 113.913 180.496 113.731 180.371 113.598C180.246 113.464 180.076 113.388 179.9 113.388C179.723 113.388 179.553 113.464 179.428 113.598C179.303 113.731 179.233 113.913 179.233 114.102V119.215L177.709 118.872C177.674 118.865 177.638 118.86 177.602 118.858C177.471 118.859 177.344 118.915 177.251 119.015L176.9 119.396L179.095 121.748C179.22 121.881 179.39 121.957 179.566 121.957H182.583C182.741 121.956 182.893 121.894 183.011 121.782C183.128 121.67 183.204 121.515 183.223 121.348L183.556 118.839C183.581 118.684 183.555 118.525 183.483 118.388C183.411 118.251 183.297 118.144 183.161 118.087V118.087Z" fill="white"/>
<path d="M190.23 116.578C190.23 120.756 186.78 124.179 182.455 124.179C178.18 124.179 174.679 120.756 174.679 116.578V45.3085H190.23L190.23 116.578Z" fill="#F27500"/>
<path d="M251.326 117.689C251.326 121.867 247.876 125.29 243.55 125.29C239.276 125.29 235.774 121.867 235.774 117.689V46.4194H251.326L251.326 117.689Z" fill="#F27500"/>
<path d="M192.451 116.578C192.451 120.756 189.001 124.179 184.675 124.179C180.401 124.179 176.899 120.756 176.899 116.578V45.3085H192.451L192.451 116.578Z" fill="#FDE01B"/>
<path d="M252.438 113.138C252.438 117.375 249.234 120.846 245.217 120.846C241.248 120.846 237.996 117.375 237.996 113.138V40.8652H252.437L252.438 113.138Z" fill="#F27500"/>
<path d="M254.658 113.138C254.658 117.375 250.962 120.846 246.327 120.846C241.747 120.846 237.995 117.375 237.995 113.138V40.8652H254.658L254.658 113.138Z" fill="#FDE01B"/>
<g filter="url(#filter10_d)">
<path d="M246.95 41.9761C251.187 41.9761 254.658 45.4263 254.658 49.752C254.658 54.0262 251.187 57.5279 246.95 57.5279L174.677 57.5279L174.677 41.9761L246.95 41.9761Z" fill="#F27500"/>
</g>
<g filter="url(#filter11_d)">
<path d="M246.95 40.8652C251.187 40.8652 254.658 44.3155 254.658 48.6412C254.658 52.9154 251.187 56.4171 246.95 56.4171L174.677 56.4171L174.677 40.8652L246.95 40.8652Z" fill="#FDE01B"/>
</g>
<g filter="url(#filter12_d)">
<path d="M246.95 110.849C251.187 110.849 254.658 114.052 254.658 118.069C254.658 122.038 251.187 125.29 246.95 125.29L174.677 125.29L174.677 110.849L246.95 110.849Z" fill="#F27500"/>
</g>
<g filter="url(#filter13_d)">
<path d="M246.95 108.627C251.187 108.627 254.658 112.077 254.658 116.403C254.658 120.677 251.187 124.179 246.95 124.179L174.677 124.179L174.677 108.627L246.95 108.627Z" fill="#FDE01B"/>
</g>
<g clip-path="url(#clip0)">
<path d="M411.034 81.3477C411.034 81.3477 409.427 38.0752 445.69 46.7989C454.305 48.876 460.671 57.2536 460.671 67.0158C460.671 67.362 460.671 67.6389 460.671 67.9851" stroke="#F35B84" stroke-width="3" stroke-miterlimit="10"/>
<path d="M410.454 83.2172C408.911 82.8018 408.911 80.6554 410.454 80.24L424.599 76.2243L444.081 70.7547L444.081 81.7632L444.081 92.7717L424.599 87.3021L410.454 83.2172Z" fill="#43EDB0"/>
<path d="M459.256 63.7618L443.954 63.7618C440.417 63.7618 436.624 66.3927 436.624 70.2007C436.559 81.14 436.045 83.1478 436.367 94.1564C436.495 97.8951 440.16 100.318 443.632 100.318L459.256 100.318C463.371 100.318 466.714 96.7181 466.714 92.287L466.714 71.9316C466.714 67.362 463.371 63.7618 459.256 63.7618Z" fill="#F35B84"/>
<path d="M547.085 63.6926L547.085 100.318C547.085 104.888 543.613 108.627 539.369 108.627L472.437 108.627C468.193 108.627 461.764 107.796 461.764 102.049L461.764 62.5156C461.764 57.946 465.429 55.3843 472.437 55.3843L539.369 55.3843C543.613 55.3843 547.085 59.123 547.085 63.6926Z" fill="#43EDB0"/>
<path d="M414.377 79.1322L414.377 84.325L410.455 83.2172C410.455 83.2172 409.362 83.0095 409.297 81.694C409.233 80.3785 410.455 80.24 410.455 80.24L414.377 79.1322Z" fill="#F35B84"/>
</g>
<defs>
<filter id="filter0_d" x="310.971" y="3.62402" width="66.3362" height="42.5632" filterUnits="userSpaceOnUse" color-interpolation-filters="sRGB">
<feFlood flood-opacity="0" result="BackgroundImageFix"/>
<feColorMatrix in="SourceAlpha" type="matrix" values="0 0 0 0 0 0 0 0 0 0 0 0 0 0 0 0 0 0 127 0"/>
<feOffset/>
<feGaussianBlur stdDeviation="3"/>
<feColorMatrix type="matrix" values="0 0 0 0 0 0 0 0 0 0 0 0 0 0 0 0 0 0 0.25 0"/>
<feBlend mode="normal" in2="BackgroundImageFix" result="effect1_dropShadow"/>
<feBlend mode="normal" in="SourceGraphic" in2="effect1_dropShadow" result="shape"/>
</filter>
<filter id="filter1_d" x="311.773" y="0.428223" width="67.0885" height="43.9811" filterUnits="userSpaceOnUse" color-interpolation-filters="sRGB">
<feFlood flood-opacity="0" result="BackgroundImageFix"/>
<feColorMatrix in="SourceAlpha" type="matrix" values="0 0 0 0 0 0 0 0 0 0 0 0 0 0 0 0 0 0 127 0"/>
<feOffset/>
<feGaussianBlur stdDeviation="3"/>
<feColorMatrix type="matrix" values="0 0 0 0 0 0 0 0 0 0 0 0 0 0 0 0 0 0 0.25 0"/>
<feBlend mode="normal" in2="BackgroundImageFix" result="effect1_dropShadow"/>
<feBlend mode="normal" in="SourceGraphic" in2="effect1_dropShadow" result="shape"/>
</filter>
<filter id="filter2_d" x="306.422" y="110.823" width="66.3362" height="42.5632" filterUnits="userSpaceOnUse" color-interpolation-filters="sRGB">
<feFlood flood-opacity="0" result="BackgroundImageFix"/>
<feColorMatrix in="SourceAlpha" type="matrix" values="0 0 0 0 0 0 0 0 0 0 0 0 0 0 0 0 0 0 127 0"/>
<feOffset/>
<feGaussianBlur stdDeviation="3"/>
<feColorMatrix type="matrix" values="0 0 0 0 0 0 0 0 0 0 0 0 0 0 0 0 0 0 0.25 0"/>
<feBlend mode="normal" in2="BackgroundImageFix" result="effect1_dropShadow"/>
<feBlend mode="normal" in="SourceGraphic" in2="effect1_dropShadow" result="shape"/>
</filter>
<filter id="filter3_d" x="307.225" y="107.627" width="67.0885" height="43.9811" filterUnits="userSpaceOnUse" color-interpolation-filters="sRGB">
<feFlood flood-opacity="0" result="BackgroundImageFix"/>
<feColorMatrix in="SourceAlpha" type="matrix" values="0 0 0 0 0 0 0 0 0 0 0 0 0 0 0 0 0 0 127 0"/>
<feOffset/>
<feGaussianBlur stdDeviation="3"/>
<feColorMatrix type="matrix" values="0 0 0 0 0 0 0 0 0 0 0 0 0 0 0 0 0 0 0.25 0"/>
<feBlend mode="normal" in2="BackgroundImageFix" result="effect1_dropShadow"/>
<feBlend mode="normal" in="SourceGraphic" in2="effect1_dropShadow" result="shape"/>
</filter>
<filter id="filter4_d" x="2.79688" y="15.3154" width="132.435" height="23.4868" filterUnits="userSpaceOnUse" color-interpolation-filters="sRGB">
<feFlood flood-opacity="0" result="BackgroundImageFix"/>
<feColorMatrix in="SourceAlpha" type="matrix" values="0 0 0 0 0 0 0 0 0 0 0 0 0 0 0 0 0 0 127 0"/>
<feOffset dy="4"/>
<feGaussianBlur stdDeviation="2"/>
<feColorMatrix type="matrix" values="0 0 0 0 0 0 0 0 0 0 0 0 0 0 0 0 0 0 0.25 0"/>
<feBlend mode="normal" in2="BackgroundImageFix" result="effect1_dropShadow"/>
<feBlend mode="normal" in="SourceGraphic" in2="effect1_dropShadow" result="shape"/>
</filter>
<filter id="filter5_d" x="0.828125" y="116.022" width="132.435" height="23.4868" filterUnits="userSpaceOnUse" color-interpolation-filters="sRGB">
<feFlood flood-opacity="0" result="BackgroundImageFix"/>
<feColorMatrix in="SourceAlpha" type="matrix" values="0 0 0 0 0 0 0 0 0 0 0 0 0 0 0 0 0 0 127 0"/>
<feOffset dx="-1" dy="-2"/>
<feGaussianBlur stdDeviation="2"/>
<feColorMatrix type="matrix" values="0 0 0 0 0 0 0 0 0 0 0 0 0 0 0 0 0 0 0.25 0"/>
<feBlend mode="normal" in2="BackgroundImageFix" result="effect1_dropShadow"/>
<feBlend mode="normal" in="SourceGraphic" in2="effect1_dropShadow" result="shape"/>
</filter>
<filter id="filter6_d" x="167.678" y="35.9761" width="93.981" height="29.5519" filterUnits="userSpaceOnUse" color-interpolation-filters="sRGB">
<feFlood flood-opacity="0" result="BackgroundImageFix"/>
<feColorMatrix in="SourceAlpha" type="matrix" values="0 0 0 0 0 0 0 0 0 0 0 0 0 0 0 0 0 0 127 0"/>
<feOffset dy="1"/>
<feGaussianBlur stdDeviation="3.5"/>
<feColorMatrix type="matrix" values="0 0 0 0 0 0 0 0 0 0 0 0 0 0 0 0 0 0 0.25 0"/>
<feBlend mode="normal" in2="BackgroundImageFix" result="effect1_dropShadow"/>
<feBlend mode="normal" in="SourceGraphic" in2="effect1_dropShadow" result="shape"/>
</filter>
<filter id="filter7_d" x="167.678" y="34.8652" width="93.981" height="29.5519" filterUnits="userSpaceOnUse" color-interpolation-filters="sRGB">
<feFlood flood-opacity="0" result="BackgroundImageFix"/>
<feColorMatrix in="SourceAlpha" type="matrix" values="0 0 0 0 0 0 0 0 0 0 0 0 0 0 0 0 0 0 127 0"/>
<feOffset dy="1"/>
<feGaussianBlur stdDeviation="3.5"/>
<feColorMatrix type="matrix" values="0 0 0 0 0 0 0 0 0 0 0 0 0 0 0 0 0 0 0.25 0"/>
<feBlend mode="normal" in2="BackgroundImageFix" result="effect1_dropShadow"/>
<feBlend mode="normal" in="SourceGraphic" in2="effect1_dropShadow" result="shape"/>
</filter>
<filter id="filter8_d" x="167.678" y="103.849" width="93.981" height="28.441" filterUnits="userSpaceOnUse" color-interpolation-filters="sRGB">
<feFlood flood-opacity="0" result="BackgroundImageFix"/>
<feColorMatrix in="SourceAlpha" type="matrix" values="0 0 0 0 0 0 0 0 0 0 0 0 0 0 0 0 0 0 127 0"/>
<feOffset/>
<feGaussianBlur stdDeviation="3.5"/>
<feColorMatrix type="matrix" values="0 0 0 0 0 0 0 0 0 0 0 0 0 0 0 0 0 0 0.25 0"/>
<feBlend mode="normal" in2="BackgroundImageFix" result="effect1_dropShadow"/>
<feBlend mode="normal" in="SourceGraphic" in2="effect1_dropShadow" result="shape"/>
</filter>
<filter id="filter9_d" x="167.678" y="101.627" width="93.981" height="29.5519" filterUnits="userSpaceOnUse" color-interpolation-filters="sRGB">
<feFlood flood-opacity="0" result="BackgroundImageFix"/>
<feColorMatrix in="SourceAlpha" type="matrix" values="0 0 0 0 0 0 0 0 0 0 0 0 0 0 0 0 0 0 127 0"/>
<feOffset/>
<feGaussianBlur stdDeviation="3.5"/>
<feColorMatrix type="matrix" values="0 0 0 0 0 0 0 0 0 0 0 0 0 0 0 0 0 0 0.25 0"/>
<feBlend mode="normal" in2="BackgroundImageFix" result="effect1_dropShadow"/>
<feBlend mode="normal" in="SourceGraphic" in2="effect1_dropShadow" result="shape"/>
</filter>
<filter id="filter10_d" x="167.678" y="35.9761" width="93.981" height="29.5519" filterUnits="userSpaceOnUse" color-interpolation-filters="sRGB">
<feFlood flood-opacity="0" result="BackgroundImageFix"/>
<feColorMatrix in="SourceAlpha" type="matrix" values="0 0 0 0 0 0 0 0 0 0 0 0 0 0 0 0 0 0 127 0"/>
<feOffset dy="1"/>
<feGaussianBlur stdDeviation="3.5"/>
<feColorMatrix type="matrix" values="0 0 0 0 0 0 0 0 0 0 0 0 0 0 0 0 0 0 0.25 0"/>
<feBlend mode="normal" in2="BackgroundImageFix" result="effect1_dropShadow"/>
<feBlend mode="normal" in="SourceGraphic" in2="effect1_dropShadow" result="shape"/>
</filter>
<filter id="filter11_d" x="167.678" y="34.8652" width="93.981" height="29.5519" filterUnits="userSpaceOnUse" color-interpolation-filters="sRGB">
<feFlood flood-opacity="0" result="BackgroundImageFix"/>
<feColorMatrix in="SourceAlpha" type="matrix" values="0 0 0 0 0 0 0 0 0 0 0 0 0 0 0 0 0 0 127 0"/>
<feOffset dy="1"/>
<feGaussianBlur stdDeviation="3.5"/>
<feColorMatrix type="matrix" values="0 0 0 0 0 0 0 0 0 0 0 0 0 0 0 0 0 0 0.25 0"/>
<feBlend mode="normal" in2="BackgroundImageFix" result="effect1_dropShadow"/>
<feBlend mode="normal" in="SourceGraphic" in2="effect1_dropShadow" result="shape"/>
</filter>
<filter id="filter12_d" x="167.678" y="103.849" width="93.981" height="28.441" filterUnits="userSpaceOnUse" color-interpolation-filters="sRGB">
<feFlood flood-opacity="0" result="BackgroundImageFix"/>
<feColorMatrix in="SourceAlpha" type="matrix" values="0 0 0 0 0 0 0 0 0 0 0 0 0 0 0 0 0 0 127 0"/>
<feOffset/>
<feGaussianBlur stdDeviation="3.5"/>
<feColorMatrix type="matrix" values="0 0 0 0 0 0 0 0 0 0 0 0 0 0 0 0 0 0 0.25 0"/>
<feBlend mode="normal" in2="BackgroundImageFix" result="effect1_dropShadow"/>
<feBlend mode="normal" in="SourceGraphic" in2="effect1_dropShadow" result="shape"/>
</filter>
<filter id="filter13_d" x="167.678" y="101.627" width="93.981" height="29.5519" filterUnits="userSpaceOnUse" color-interpolation-filters="sRGB">
<feFlood flood-opacity="0" result="BackgroundImageFix"/>
<feColorMatrix in="SourceAlpha" type="matrix" values="0 0 0 0 0 0 0 0 0 0 0 0 0 0 0 0 0 0 127 0"/>
<feOffset/>
<feGaussianBlur stdDeviation="3.5"/>
<feColorMatrix type="matrix" values="0 0 0 0 0 0 0 0 0 0 0 0 0 0 0 0 0 0 0.25 0"/>
<feBlend mode="normal" in2="BackgroundImageFix" result="effect1_dropShadow"/>
<feBlend mode="normal" in="SourceGraphic" in2="effect1_dropShadow" result="shape"/>
</filter>
<clipPath id="clip0">
<rect width="64.0432" height="137.787" fill="white" transform="translate(409.297 108.627) rotate(-90)"/>
</clipPath>
</defs>
</svg>
