<svg width="334" height="61" viewBox="0 0 334 61" fill="none" xmlns="http://www.w3.org/2000/svg">
<path d="M-4.14059e-07 38.0326C-1.96547e-07 43.0087 4.0768 47.0855 9.05289 47.0855L143.947 47.5051C148.983 47.5051 153 43.4283 153 38.4522C153 33.4162 148.923 29.3993 143.947 29.3993L9.05289 28.9797C4.0768 28.9797 -6.34191e-07 32.9965 -4.14059e-07 38.0326Z" fill="#F27500"/>
<path d="M-4.14059e-07 36.3539C-1.93926e-07 41.3899 4.0768 45.4067 9.05289 45.4067L143.947 45.8264C148.983 45.8264 153 41.7496 153 36.7735C153 31.7375 148.923 27.7206 143.947 27.7206L9.05289 27.301C4.0768 27.301 -6.31571e-07 31.3778 -4.14059e-07 36.3539Z" fill="#FDE01B"/>
<g clip-path="url(#clip0)">
<path d="M206.625 34.9658C206.625 34.9658 205.12 -5.54716 239.071 2.62026C247.137 4.56488 253.097 12.4082 253.097 21.5479C253.097 21.872 253.097 22.1313 253.097 22.4554" stroke="#F35B84" stroke-width="3" stroke-miterlimit="10"/>
<path d="M206.084 36.7159C204.639 36.3269 204.639 34.3175 206.084 33.9286L219.327 30.169L237.566 25.0481L237.566 35.3546L237.566 45.6611L219.327 40.5403L206.084 36.7159Z" fill="#43EDB0"/>
<path d="M251.772 18.5012L237.445 18.5012C234.135 18.5012 230.583 20.9644 230.583 24.5295C230.523 34.7712 230.041 36.651 230.342 46.9575C230.463 50.4578 233.894 52.7266 237.144 52.7266L251.772 52.7266C255.625 52.7266 258.755 49.3559 258.755 45.2073L258.755 26.15C258.755 21.8719 255.625 18.5012 251.772 18.5012Z" fill="#F35B84"/>
<path d="M334.001 18.4364L334.001 52.7266C334.001 57.0048 330.751 60.5051 326.778 60.5051L264.114 60.5051C260.141 60.5051 254.121 59.7273 254.121 54.3472L254.121 17.3345C254.121 13.0563 257.552 10.6579 264.114 10.6579L326.778 10.6579C330.751 10.6579 334.001 14.1583 334.001 18.4364Z" fill="#43EDB0"/>
<path d="M209.756 32.8914L209.756 37.7529L206.084 36.7158C206.084 36.7158 205.061 36.5213 205 35.2897C204.94 34.0581 206.084 33.9285 206.084 33.9285L209.756 32.8914Z" fill="#F35B84"/>
</g>
<defs>
<clipPath id="clip0">
<rect width="59.9592" height="129" fill="white" transform="translate(205 60.5051) rotate(-90)"/>
</clipPath>
</defs>
</svg>
