<svg width="302" height="187" viewBox="0 0 302 187" fill="none" xmlns="http://www.w3.org/2000/svg">
<path d="M5.94341 170.469C6.52124 172.201 8.71112 173.004 10.586 173.028C13.0358 173.06 15.6506 171.918 15.6824 169.444C15.692 168.694 15.3654 166.864 12.5525 165.903L10.7853 165.28C10.0883 165.046 9.7912 164.818 9.79601 164.443C9.80178 163.993 10.3299 163.749 11.0799 163.759C11.5298 163.765 11.9779 163.921 12.473 164.302C13.1909 164.861 13.9136 165.045 14.6943 164.605C15.2231 164.312 15.4324 163.59 15.0171 162.834C14.2351 161.424 12.517 160.877 10.8421 160.856C8.3923 160.824 6.29695 162.398 6.27483 164.122C6.26104 165.197 6.21488 166.847 9.69953 168.067L11.0183 168.559C11.8647 168.845 12.1625 169.023 12.156 169.523C12.1484 170.123 11.4218 170.239 10.6469 170.229C9.82194 170.218 9.07649 169.859 8.4602 169.176C8.091 168.721 7.37023 168.387 6.5908 168.727C6.01264 168.969 5.70273 169.741 5.94341 170.469ZM18.1623 161.2C17.4624 161.191 16.9044 161.809 16.8948 162.559C16.8855 163.283 17.4274 163.915 18.127 163.949L19.077 163.962L18.9808 171.461C18.9949 172.311 19.7858 173.021 20.7108 173.033C21.6607 173.045 22.4693 172.381 22.4805 171.506L22.5767 164.007L23.9016 164.023C24.6018 164.007 25.1598 163.39 25.1691 162.665C25.1787 161.915 24.6368 161.283 23.9368 161.274L22.6119 161.257L22.6511 158.207C22.6623 157.332 21.871 156.647 20.9211 156.635C19.9962 156.623 19.1873 157.312 19.1514 158.162L19.1122 161.212L18.1623 161.2ZM35.3079 163.07C34.3279 161.507 32.5822 161.16 31.8322 161.15C28.8575 161.112 26.1298 163.252 26.0801 167.127C26.0304 171.001 28.702 173.236 31.6767 173.274C33.0016 173.291 34.4348 172.659 35.2005 171.444L35.1976 171.669C35.2117 172.519 36.0027 173.229 36.9276 173.241C37.8775 173.253 38.6861 172.589 38.6973 171.714L38.8105 162.89C38.8217 162.015 38.0304 161.329 37.0805 161.317C36.1556 161.305 35.3467 161.995 35.3108 162.845L35.3079 163.07ZM29.6795 167.198C29.6994 165.648 30.7173 164.261 32.4671 164.283C34.042 164.304 35.2989 165.72 35.279 167.27C35.2592 168.82 33.9663 170.203 32.3914 170.183C30.6416 170.16 29.6596 168.748 29.6795 167.198ZM45.2956 163.198L45.2984 162.973C45.2843 162.123 44.4934 161.412 43.5685 161.401C42.6185 161.388 41.81 162.053 41.7987 162.928L41.6141 177.327C41.6028 178.202 42.3941 178.887 43.344 178.899C44.269 178.911 45.0779 178.221 45.1138 177.372L45.1882 171.572C45.9224 172.807 47.3389 173.475 48.6638 173.492C51.6386 173.53 54.3666 171.365 54.4163 167.49C54.466 163.615 51.7941 161.406 48.8193 161.368C48.0694 161.358 46.3154 161.661 45.2956 163.198ZM50.8162 167.469C50.7964 169.019 49.7785 170.406 48.0286 170.383C46.4538 170.363 45.1968 168.947 45.2167 167.397C45.2366 165.847 46.5294 164.464 48.1043 164.484C49.8542 164.506 50.8361 165.919 50.8162 167.469ZM65.8981 160.512C66.2763 160.267 66.8541 160.049 67.5041 160.057C68.729 160.073 69.1401 161.153 69.1337 161.653C69.1328 161.728 69.236 163.43 67.5111 163.408L66.8612 163.399C66.1362 163.39 65.452 164.106 65.442 164.881C65.4315 165.706 66.0727 166.39 66.8227 166.399L67.6226 166.409C69.8224 166.438 69.6984 168.311 69.6695 168.611C69.5587 169.459 68.5462 170.422 67.2973 170.331C66.6227 170.297 65.8019 169.961 65.2331 169.479C64.3924 168.743 63.4153 168.906 62.8573 169.524C62.2234 170.215 62.3852 171.243 62.8787 171.749C63.9392 172.888 65.3305 173.581 66.979 173.702C70.2509 173.969 73.1773 171.931 73.4881 169.135C73.6606 167.387 72.537 165.322 70.7454 164.649C71.954 163.99 72.869 162.826 72.8863 161.477C72.9914 159.128 70.9435 157.001 68.0957 156.815C66.3471 156.692 64.7642 157.297 63.6762 158.308C63.0942 158.851 62.982 159.799 63.5489 160.432C64.1656 161.09 64.8395 161.173 65.8981 160.512Z" fill="white"/>
<path d="M55.7714 153.816L54.0904 23.9906L13.9287 0.204752L13.4011 125.687L55.7714 153.816Z" fill="#F27500"/>
<path d="M55.5834 153.285L57.2412 24.0311L17.7532 2.42951L16.144 127.897L55.5834 153.285Z" fill="#FDE01B"/>
<g clip-path="url(#clip0)">
<path d="M201.439 82.162C201.439 82.162 192.959 79.7957 193.665 93.0257C194.37 106.256 200.964 148.527 212.28 149.234C223.596 149.941 287.937 131.994 287.937 131.994C287.937 131.994 302.995 110.574 301.339 78.382C299.698 46.1905 292.89 39.6293 273.8 34.2205C272.389 33.99 251.642 34.4664 239.62 61.6332C239.145 61.8637 242.549 98.5728 234.392 111.941C233.962 112.172 216.528 130.365 208.983 106.271C208.508 105.549 203.555 80.7484 201.439 82.162Z" fill="#335DFF"/>
<path d="M212.28 149.234L186.596 144.978C186.596 144.978 166.094 115.69 172.688 78.3818C172.212 78.3818 194.968 84.9584 194.968 84.9584C194.968 84.9584 192.683 89.5221 194.416 101.016C196.149 112.525 201.776 147.498 212.28 149.234Z" fill="#1037D0"/>
<path d="M281.546 89.8349C284.46 75.984 279.191 63.1434 269.777 61.1546C260.364 59.1657 250.37 68.7818 247.456 82.6327C244.542 96.4836 249.811 109.324 259.224 111.313C268.638 113.302 278.632 103.686 281.546 89.8349Z" fill="#1037D0"/>
<path d="M209.215 106.301C209.215 106.301 218.339 120.592 216.621 95.8373C214.888 71.0675 219.075 54.9334 229.64 41.688L227.508 51.9524C227.508 51.9524 213.6 74.8629 222.279 113.416C222.279 113.431 226.143 117.718 226.143 117.718C226.143 117.718 213.938 123.511 209.215 106.301Z" fill="#1037D0"/>
<path d="M271.254 42.1186C271.254 42.1186 249.204 38.1388 248.882 37.9698C234.944 36.341 225.943 52.5981 220.99 65.3518C216.528 76.8301 215.393 89.3533 217.969 101.385C222.017 120.3 231.647 121.944 231.647 121.944C231.647 121.944 248.391 126.923 248.223 127.092C256.304 129.858 260.812 129.182 260.812 129.182C282.295 127.368 289.118 99.1721 289.793 95.9145C289.87 95.5304 289.946 95.1308 290.054 94.7467C301.385 48.6798 271.254 42.1186 271.254 42.1186ZM285.975 89.1535C282.862 108.238 270.472 122.098 258.297 120.1C246.137 118.103 238.792 101.016 241.921 81.9316C245.033 62.8471 257.423 48.9871 269.598 50.9847C281.758 52.9823 289.088 70.0691 285.975 89.1535Z" fill="#E6E6E6"/>
<path d="M241.354 86.5411L216.805 83.5447V82.9762C216.805 82.9762 233.672 83.5447 235.849 83.2989C237.306 83.1298 240.864 81.6394 243.639 74.5864C243.639 74.5864 241.492 84.2669 241.354 86.5411Z" fill="#C2BCBC"/>
<path d="M219.289 71.0679C219.182 71.0525 219.074 71.1293 219.074 71.2369C218.982 72.4662 218.032 78.7662 208.617 77.6906C197.53 76.4152 179.329 71.6057 171.662 76.2308C165.82 79.765 164.992 82.792 164.93 84.0367C164.915 84.2364 165.176 84.3133 165.283 84.1442L166.142 82.8381C166.234 82.6845 166.479 82.7459 166.494 82.915C166.586 83.6679 166.74 84.9894 166.709 85.1277C166.678 85.2659 167.798 84.0981 168.319 83.5603C168.426 83.4528 168.626 83.4989 168.641 83.6679L168.932 85.4042C168.963 85.5579 169.147 85.6194 169.254 85.5118L170.543 84.2211C170.65 84.1135 170.849 84.175 170.865 84.3286L171.156 86.065C171.187 86.2186 171.355 86.2801 171.463 86.1879L173.103 84.8357C173.211 84.7435 173.364 84.7896 173.41 84.9279C173.609 85.5579 174.1 87.0945 174.1 87.202C174.1 87.3096 175.158 86.1879 175.664 85.6347C175.771 85.5118 175.971 85.5733 176.001 85.7269L176.277 87.3557C176.308 87.494 176.461 87.5555 176.584 87.4786L178.424 86.1879C178.547 86.1111 178.7 86.1725 178.731 86.3108L179.007 88.2008C179.022 88.3545 179.222 88.416 179.329 88.3084L180.709 86.9716C180.801 86.8794 180.97 86.9101 181.016 87.033L181.982 89.1535C182.028 89.2611 182.166 89.3072 182.258 89.2303C182.81 88.8769 184.374 87.8628 184.42 87.8781C184.466 87.8935 185.156 89.0613 185.6 89.8296C185.708 89.9986 185.968 89.9218 185.953 89.7374C185.938 87.8167 186.26 82.7459 189.863 80.7791C193.804 78.6279 213.462 84.6513 228.934 82.8842C229.67 82.8074 230.651 82.9611 231.495 82.9611C235.359 83.0072 239.254 83.9906 243.516 74.8325C243.578 74.7096 243.501 74.5713 243.363 74.5559L219.289 71.0679Z" fill="#E6E6E6"/>
<path d="M194.969 84.9739L187.67 82.8534C187.67 82.8534 188.483 79.7495 194.079 80.3334C199.676 80.9173 201.332 80.8251 201.808 82.1619" fill="#1037D0"/>
<path d="M239.852 61.664L222.57 52.9515C222.57 52.9515 229.992 33.4369 248.561 31.593C247.979 31.6852 256.857 28.2586 279.336 35.9262C279.336 35.9262 245.74 40.3362 239.852 61.664Z" fill="#335DFF"/>
</g>
<defs>
<clipPath id="clip0">
<rect width="136.763" height="118.409" fill="white" transform="translate(164.93 30.9014)"/>
</clipPath>
</defs>
</svg>
