<svg width="37" height="180" viewBox="0 0 37 180" fill="none" xmlns="http://www.w3.org/2000/svg">
<path d="M5.08203 32.9602L4.59998 147.845L11.0839 145.989L11.5537 34.0302L5.08203 32.9602Z" fill="#335DFF"/>
<path d="M11.5164 177.449C9.81867 179.859 5.13852 179.944 3.27415 177.653C1.72907 175.758 0.70758 172.454 1.83461 167.877C2.88821 163.528 3.57909 160.496 3.98588 158.547C4.34393 156.785 4.52488 154.992 4.52601 153.195L4.54844 147.851L11.0324 145.994L11.01 151.333C11.0048 152.088 11.0466 152.842 11.1351 153.591C11.5048 156.783 13.1086 165.647 13.3909 168.693C13.7722 172.809 13.5475 174.557 11.5164 177.449Z" fill="#EDEDEE"/>
<path d="M5.04079 32.9604C5.04079 32.9604 5.99897 24.2116 5.09478 20.0934C4.1906 15.9752 -1.23158 0.439025 8.80233 0.117937C19.3487 -0.190623 12.6582 18.8124 12.6582 18.8124C12.6582 18.8124 11.0788 25.0994 11.5073 34.0252L5.04079 32.9604Z" fill="#EDEDEE"/>
<path opacity="0.08" d="M6.89939 179.292C6.89939 179.292 3.32784 172.133 6.34606 160.99C7.59204 139.168 6.33495 60.0026 7.00803 30.3692C7.14504 24.8596 7.71136 19.4349 6.38787 14.0801C5.23236 9.40571 4.5687 4.134 8.02271 0.168978C8.08977 0.226332 2.26878 0.103375 2.83306 8.75746C3.65565 16.3575 4.32656 16.6306 5.09496 19.9428C5.3905 22.2996 5.6554 24.5577 5.04097 32.8099C5.07203 32.81 4.55892 147.695 4.55892 147.695C4.55892 147.695 4.64212 157.476 3.15229 162.154C2.1805 166.427 0.0620463 171.793 2.47176 176.29C2.48708 176.342 3.29005 178.945 6.89939 179.292Z" fill="#0D0C0C"/>
<path d="M27.2891 39.8196L26.8822 136.785L32.3548 135.218L32.7513 40.7227L27.2891 39.8196Z" fill="#335DFF"/>
<path d="M32.7199 161.77C31.287 163.805 27.3368 163.876 25.7633 161.943C24.4592 160.343 23.597 157.554 24.5483 153.692C25.4375 150.021 26.0206 147.462 26.364 145.817C26.6662 144.33 26.8189 142.817 26.8199 141.299L26.8388 136.789L32.3114 135.222L32.2925 139.728C32.2881 140.365 32.3234 141.001 32.3981 141.634C32.7101 144.328 34.0638 151.809 34.302 154.381C34.6239 157.855 34.4342 159.33 32.7199 161.77Z" fill="#EDEDEE"/>
<path d="M27.2545 39.8194C27.2545 39.8194 28.0632 32.4352 27.3 28.9593C26.5369 25.4834 21.9604 12.3706 30.4293 12.0996C39.3306 11.8392 33.6837 27.8782 33.6837 27.8782C33.6837 27.8782 32.3507 33.1845 32.7123 40.7181L27.2545 39.8194Z" fill="#EDEDEE"/>
<path opacity="0.08" d="M28.8235 163.327C28.8235 163.327 25.809 157.284 28.3564 147.879C29.4081 129.461 28.3471 62.6437 28.9152 37.6325C29.0308 32.9823 29.5088 28.4038 28.3917 23.8842C27.4164 19.9389 26.8563 15.4894 29.7716 12.1429C29.8282 12.1913 24.9151 12.0875 25.3914 19.3917C26.0857 25.8063 26.6519 26.0368 27.3005 28.8324C27.5499 30.8216 27.7735 32.7274 27.2549 39.6925C27.2811 39.6926 26.8481 136.658 26.8481 136.658C26.8481 136.658 26.9183 144.913 25.6608 148.862C24.8406 152.468 23.0526 156.997 25.0864 160.793C25.0994 160.837 25.7771 163.034 28.8235 163.327Z" fill="#0D0C0C"/>
</svg>
