<svg width="180" height="156" viewBox="0 0 180 156" fill="none" xmlns="http://www.w3.org/2000/svg">
<g clip-path="url(#clip0)">
<path d="M47.9632 67.3415C47.9632 67.3415 36.8234 64.2328 37.7501 81.6132C38.6767 98.9936 47.3387 154.526 62.2052 155.455C77.0717 156.383 161.597 132.806 161.597 132.806C161.597 132.806 181.379 104.666 179.203 62.3757C177.048 20.0854 168.104 11.4658 143.024 4.36026C141.171 4.05746 113.916 4.68324 98.1224 40.3726C97.498 40.6754 101.97 88.9005 91.2532 106.463C90.6892 106.765 67.7852 130.666 57.8742 99.0138C57.2497 98.065 50.7431 65.4843 47.9632 67.3415Z" fill="#335DFF"/>
<path d="M62.2059 155.455L28.4642 149.863C28.4642 149.863 1.53135 111.388 10.1934 62.3757C9.56891 62.3757 39.463 71.0155 39.463 71.0155C39.463 71.0155 36.4615 77.0108 38.7378 92.1101C41.0141 107.23 48.407 153.174 62.2059 155.455Z" fill="#1037D0"/>
<path d="M153.201 77.4213C157.029 59.2252 150.108 42.3564 137.741 39.7437C125.374 37.1309 112.245 49.7637 108.417 67.9597C104.589 86.1557 111.511 103.025 123.877 105.637C136.244 108.25 149.373 95.6173 153.201 77.4213Z" fill="#1037D0"/>
<path d="M58.1768 99.054C58.1768 99.054 70.1626 117.827 67.9064 85.3072C65.6301 52.7668 71.1295 31.5712 85.0089 14.1707L82.2089 27.6551C82.2089 27.6551 63.938 57.7529 75.3397 108.4C75.3397 108.42 80.416 114.052 80.416 114.052C80.416 114.052 64.3812 121.663 58.1768 99.054Z" fill="#1037D0"/>
<path d="M139.681 14.7359C139.681 14.7359 110.713 9.50768 110.29 9.28563C91.9789 7.14588 80.1542 28.503 73.6476 45.2576C67.7856 60.3368 66.295 76.7886 69.6792 92.5945C74.9973 117.444 87.6479 119.604 87.6479 119.604C87.6479 119.604 109.645 126.144 109.424 126.366C120.04 130 125.962 129.111 125.962 129.111C154.184 126.729 163.149 89.6876 164.035 85.4081C164.136 84.9035 164.236 84.3786 164.377 83.874C179.264 23.3555 139.681 14.7359 139.681 14.7359ZM159.019 76.5262C154.93 101.598 138.653 119.806 122.659 117.181C106.684 114.557 97.0351 92.11 101.145 67.0386C105.234 41.9672 121.51 23.7592 137.505 26.3834C153.479 29.0076 163.108 51.4548 159.019 76.5262Z" fill="#E6E6E6"/>
<path d="M100.399 73.0946L68.1484 69.1583V68.4114C68.1484 68.4114 90.3071 69.1583 93.1676 68.8353C95.0813 68.6132 99.7548 66.6552 103.401 57.3896C103.401 57.3896 100.581 70.107 100.399 73.0946Z" fill="#C2BCBC"/>
<path d="M71.4113 52.767C71.2703 52.7468 71.1293 52.8477 71.1293 52.989C71.0084 54.6039 69.7595 62.8803 57.3909 61.4673C42.8266 59.7918 18.9153 53.4735 8.84321 59.5496C1.16824 64.1924 0.0804523 68.1691 -0.000124719 69.8042C-0.020269 70.0666 0.322183 70.1676 0.463193 69.9455L1.59127 68.2297C1.71214 68.0278 2.03445 68.1086 2.05459 68.3306C2.17546 69.3197 2.3769 71.0558 2.33661 71.2374C2.29632 71.4191 3.76685 69.885 4.45176 69.1784C4.59277 69.0371 4.85464 69.0977 4.87479 69.3197L5.25753 71.6008C5.29782 71.8027 5.53955 71.8834 5.68056 71.7421L7.37268 70.0464C7.51369 69.9051 7.77556 69.9859 7.79571 70.1878L8.17845 72.4688C8.21873 72.6707 8.44032 72.7514 8.58133 72.6303L10.7368 70.8539C10.8778 70.7328 11.0792 70.7933 11.1397 70.975C11.4015 71.8027 12.0461 73.8213 12.0461 73.9626C12.0461 74.1039 13.4361 72.6303 14.1009 71.9036C14.2419 71.7421 14.5037 71.8228 14.544 72.0247L14.9066 74.1645C14.9469 74.3461 15.1484 74.4269 15.3095 74.3259L17.7268 72.6303C17.888 72.5294 18.0894 72.6101 18.1297 72.7918L18.4923 75.2747C18.5125 75.4766 18.7743 75.5573 18.9153 75.416L20.7283 73.6598C20.8492 73.5387 21.0708 73.5791 21.1312 73.7405L22.4003 76.5263C22.4607 76.6676 22.642 76.7281 22.7629 76.6272C23.4881 76.1629 25.5428 74.8306 25.6032 74.8508C25.6637 74.871 26.5702 76.4051 27.1543 77.4144C27.2954 77.6365 27.6378 77.5356 27.6177 77.2933C27.5975 74.77 28.0205 68.1086 32.7544 65.5247C37.9315 62.6986 63.7565 70.6117 84.082 68.2902C85.049 68.1893 86.3382 68.3912 87.4461 68.3912C92.5225 68.4517 97.6391 69.7437 103.239 57.7126C103.32 57.5511 103.219 57.3695 103.038 57.3493L71.4113 52.767Z" fill="#E6E6E6"/>
<path d="M39.4627 71.0356L29.874 68.2499C29.874 68.2499 30.9417 64.1723 38.2943 64.9393C45.647 65.7064 47.8226 65.5853 48.447 67.3415" fill="#1037D0"/>
<path d="M98.4252 40.413L75.7227 28.9673C75.7227 28.9673 85.4725 3.33075 109.867 0.90839C109.102 1.02951 120.765 -3.47204 150.297 6.60093C150.297 6.60093 106.161 12.3944 98.4252 40.413Z" fill="#335DFF"/>
<path opacity="0.3" d="M48.2915 67.4253C48.2915 67.4253 37.1261 64.3013 38.0549 81.7674C38.9837 99.2336 47.6656 155.04 62.5661 155.973C77.4667 156.906 162.186 133.212 162.186 133.212C162.186 133.212 182.013 104.934 179.832 62.435C177.652 19.9361 168.708 11.274 143.57 4.11313C141.773 3.82913 98.2629 -11.8924 82.2519 20.0781C81.626 21.3358 84.4976 26.2657 98.5658 40.3031C97.9399 40.6074 102.422 89.0703 91.6808 106.719C91.1155 107.023 68.1589 131.042 58.2252 99.2336C57.5993 98.3004 51.0778 65.559 48.2915 67.4253Z" fill="#1037D0"/>
</g>
<defs>
<clipPath id="clip0">
<rect width="179.667" height="155.556" fill="white"/>
</clipPath>
</defs>
</svg>
