<svg width="207" height="234" viewBox="0 0 207 234" fill="none" xmlns="http://www.w3.org/2000/svg">
<g filter="url(#filter0_i)">
<g filter="url(#filter1_i)">
<path d="M39.3903 218.89C23.3166 204.968 12.8058 180.403 13.1597 152.548C13.7047 109.651 39.814 75.203 71.4706 75.6052C103.127 76.0074 128.353 111.107 127.808 154.004C127.46 181.403 116.683 205.348 100.7 218.977" fill="#F27500"/>
<path d="M72.1102 115.09C103.049 115.484 128.449 90.7472 128.842 59.8403C129.234 28.9335 104.471 3.55985 73.5321 3.16678C42.5929 2.77372 17.1934 27.51 16.8008 58.4169C16.4081 89.3238 41.171 114.697 72.1102 115.09Z" fill="#F27500"/>
<path d="M111.764 99.2946L120.068 92.2603C120.158 92.187 120.221 92.0864 120.248 91.9739C120.275 91.8613 120.264 91.743 120.218 91.637C120.171 91.5311 120.091 91.4434 119.989 91.3874C119.888 91.3314 119.771 91.3102 119.656 91.327L118.481 91.483L124.251 86.3133C124.338 86.2351 124.397 86.1304 124.418 86.0154C124.439 85.9005 124.421 85.7818 124.367 85.6779C124.314 85.5741 124.227 85.4908 124.121 85.4412C124.015 85.3916 123.896 85.3784 123.782 85.4037L122.016 85.8046" fill="#F27500"/>
<path d="M31.4683 97.0044L23.569 89.4793C23.4881 89.3998 23.4349 89.2966 23.4171 89.1846C23.3993 89.0727 23.418 88.958 23.4704 88.8575C23.5228 88.757 23.6061 88.6759 23.7081 88.6262C23.81 88.5765 23.9253 88.5609 24.0368 88.5816L25.1994 88.808L19.7438 83.3003C19.661 83.2171 19.6083 83.1087 19.5939 82.9922C19.5795 82.8757 19.6043 82.7577 19.6644 82.6568C19.7245 82.556 19.8164 82.4779 19.9258 82.435C20.0351 82.392 20.1557 82.3866 20.2685 82.4196L22.0062 82.9139" fill="#F27500"/>
<path d="M74.1962 60.4887L79.424 67.8822C79.5336 67.9971 79.619 68.1326 79.6753 68.2809C79.7316 68.4292 79.7576 68.5873 79.7518 68.7457C79.746 68.9042 79.7084 69.06 79.6414 69.2038C79.5745 69.3475 79.4794 69.4765 79.3617 69.583L73.6107 78.9863C73.3752 79.2037 73.063 79.3191 72.7425 79.3074C72.422 79.2957 72.1192 79.1578 71.9001 78.9238L66.7033 69.0884C66.4802 68.8583 66.3574 68.5494 66.3615 68.2292C66.3655 67.909 66.4962 67.6033 66.725 67.379L72.4523 60.4747C72.5647 60.3558 72.7003 60.2613 72.8509 60.1971C73.0014 60.1329 73.1636 60.1005 73.3273 60.1018C73.491 60.1031 73.6526 60.1382 73.8021 60.2048C73.9517 60.2713 74.0858 60.368 74.1962 60.4887Z" fill="#FDE01B"/>
<path d="M77.5396 69.5126C77.7413 69.2905 77.8547 69.0024 77.8585 68.7026C77.8623 68.4027 77.7562 68.1118 77.5603 67.8847C77.5603 67.8847 73.4341 62.029 72.8978 61.4789C72.3615 60.9288 72.6417 60.2532 72.6417 60.2532C73.055 59.7944 73.982 60.2353 74.4 60.6884L79.4762 67.5388C79.6738 67.7652 79.7392 68.2212 79.7375 68.357C79.7357 68.4928 79.6499 68.9703 79.4555 69.1684C79.2611 69.3665 74.8868 77.8203 74.4595 78.4533C74.0323 79.0862 73.0862 79.5181 72.9434 79.2725C72.8006 79.0269 72.9563 78.2576 72.9563 78.2576C73.0864 78.0998 73.2649 77.8463 73.3612 77.6659L77.5396 69.5126Z" fill="#DCC41E"/>
<g filter="url(#filter2_i)">
<path d="M94.0888 64.2088C103.097 64.3232 110.492 57.1134 110.607 48.1052C110.721 39.0969 103.511 31.7015 94.5032 31.5871C85.495 31.4727 78.0996 38.6825 77.9852 47.6907C77.8707 56.6989 85.0806 64.0943 94.0888 64.2088Z" fill="white"/>
</g>
<path d="M98.3728 55.2575C93.0497 55.1899 88.7894 50.8199 88.857 45.4968C88.9246 40.1738 93.2946 35.9134 98.6177 35.9811C103.941 36.0487 108.201 40.4187 108.133 45.7417C108.066 51.0648 103.696 55.3251 98.3728 55.2575Z" fill="black"/>
<path d="M100.757 42.6822C100.731 44.7295 102.369 46.4102 104.417 46.4363C106.464 46.4623 108.145 44.8237 108.171 42.7763C108.197 40.729 106.558 39.0483 104.511 39.0222C102.463 38.9962 100.783 40.6348 100.757 42.6822Z" fill="white"/>
<g filter="url(#filter3_i)">
<path d="M52.5702 63.6814C61.5784 63.7959 68.9738 56.586 69.0883 47.5778C69.2027 38.5696 61.9929 31.1742 52.9847 31.0598C43.9764 30.9453 36.5811 38.1551 36.4666 47.1634C36.3522 56.1716 43.562 63.567 52.5702 63.6814Z" fill="white"/>
</g>
<path d="M56.363 55.7243C51.0399 55.6567 46.7796 51.2867 46.8472 45.9636C46.9148 40.6406 51.2848 36.3802 56.6079 36.4479C61.9309 36.5155 66.1913 40.8855 66.1236 46.2085C66.056 51.5316 61.686 55.7919 56.363 55.7243Z" fill="black"/>
<path d="M99.0481 12.1606L121.095 35.0814C121.269 35.2604 121.49 35.3859 121.733 35.443C121.976 35.5002 122.23 35.4866 122.465 35.4039C122.7 35.3212 122.907 35.1728 123.06 34.9764C123.213 34.78 123.307 34.5437 123.33 34.2957L123.708 4.56061C123.729 4.35922 123.704 4.15558 123.633 3.96588C123.562 3.77618 123.447 3.60564 123.299 3.46782C123.15 3.32999 122.971 3.2287 122.777 3.17194C122.582 3.11518 122.377 3.10454 122.178 3.14087L99.7688 9.96347C99.5314 9.99927 99.3088 10.1002 99.1255 10.255C98.9423 10.4098 98.8057 10.6124 98.7309 10.8403C98.6562 11.0681 98.6463 11.3122 98.7023 11.5453C98.7583 11.7784 98.878 11.9914 99.0481 12.1606Z" fill="#F27500"/>
<path d="M105.835 13.6071L118.239 26.4894C118.334 26.5914 118.456 26.6637 118.592 26.6978C118.727 26.7319 118.869 26.7263 119.002 26.6815C119.134 26.6368 119.25 26.5549 119.337 26.4456C119.424 26.3364 119.477 26.2045 119.491 26.0657L119.451 8.01608C119.468 7.90068 119.457 7.78296 119.419 7.67271C119.381 7.56245 119.317 7.46283 119.233 7.38214C119.149 7.30145 119.046 7.24203 118.934 7.20878C118.823 7.17554 118.704 7.16944 118.59 7.19101L106.226 12.3583C106.092 12.3804 105.967 12.4393 105.864 12.5283C105.762 12.6174 105.686 12.733 105.646 12.8625C105.605 12.992 105.602 13.1301 105.635 13.2616C105.668 13.393 105.738 13.5127 105.835 13.6071Z" fill="black"/>
<path d="M46.9308 11.5396L24.2759 33.8844C24.0989 34.0598 23.875 34.1805 23.6311 34.232C23.3872 34.2834 23.1336 34.2635 22.9007 34.1746C22.6679 34.0857 22.4656 33.9316 22.3182 33.7308C22.1708 33.5299 22.0846 33.2909 22.0699 33.0423L22.4476 3.30721C22.4295 3.10491 22.4592 2.90115 22.5344 2.71246C22.6097 2.52376 22.7283 2.35542 22.8808 2.22103C23.0333 2.08663 23.2153 1.98997 23.4121 1.93885C23.6088 1.88774 23.8149 1.88363 24.0136 1.92682L46.2418 9.31648C46.4819 9.35349 46.7067 9.45717 46.8906 9.61568C47.0745 9.77419 47.2102 9.98116 47.282 10.213C47.3538 10.4448 47.359 10.692 47.2969 10.9266C47.2348 11.1612 47.1079 11.3736 46.9308 11.5396Z" fill="#F27500"/>
<path d="M40.1083 12.8363L27.3822 25.3749C27.2844 25.4744 27.16 25.5437 27.0238 25.5743C26.8876 25.6049 26.7454 25.5957 26.6144 25.5476C26.4834 25.4995 26.369 25.4146 26.285 25.3032C26.2011 25.1918 26.1511 25.0586 26.1411 24.9195L26.631 6.87666C26.6172 6.76088 26.6313 6.64348 26.6721 6.53422C26.7129 6.42496 26.7791 6.327 26.8654 6.24847C26.9517 6.16995 27.0555 6.11312 27.1681 6.08273C27.2808 6.05234 27.3991 6.04927 27.5133 6.07374L39.7498 11.5535C39.8905 11.5723 40.0225 11.6319 40.1296 11.7249C40.2367 11.8179 40.3142 11.9403 40.3524 12.0768C40.3906 12.2134 40.3878 12.3581 40.3444 12.4931C40.301 12.6281 40.2189 12.7474 40.1083 12.8363Z" fill="black"/>
<path d="M75.3234 3.22125L86.2063 2.985C86.3196 2.98402 86.4303 3.01938 86.522 3.08588C86.6138 3.15239 86.6817 3.24654 86.7159 3.35449C86.7501 3.46243 86.7488 3.57848 86.712 3.6856C86.6753 3.79271 86.6052 3.88521 86.5119 3.94954L85.5337 4.61285L93.2835 4.65431C93.4024 4.65252 93.5185 4.69076 93.613 4.76284C93.7075 4.83493 93.7749 4.93669 93.8045 5.05174C93.8341 5.16679 93.8241 5.28843 93.7761 5.3971C93.7281 5.50576 93.6448 5.59512 93.5398 5.6508L91.9559 6.51806" fill="#F27500"/>
<path d="M54.0538 6.38728L64.8443 1.88388C64.9528 1.84105 65.0725 1.8352 65.1846 1.86726C65.2968 1.89933 65.3953 1.96751 65.4647 2.06121C65.5341 2.15491 65.5706 2.26887 65.5685 2.38541C65.5665 2.50196 65.5259 2.61458 65.4532 2.70574L64.5921 3.76945" fill="#F27500"/>
<path d="M54.0538 6.3863L64.8443 1.88291C64.9528 1.84007 65.0724 1.83422 65.1846 1.86629C65.2968 1.89835 65.3953 1.96654 65.4647 2.06023C65.5341 2.15393 65.5706 2.26789 65.5685 2.38444C65.5665 2.50099 65.5259 2.6136 65.4532 2.70477L64.5921 3.76847" fill="#F27500"/>
<path d="M65.6613 3.62826L76.3781 1.71281C76.4892 1.69518 76.6029 1.71333 76.703 1.76459C76.803 1.81585 76.8842 1.89757 76.9347 1.99794C76.9851 2.09832 77.0023 2.21212 76.9837 2.32289C76.9651 2.43367 76.9117 2.53566 76.8312 2.6141L76.006 3.41774" fill="#F27500"/>
<path d="M58.7567 42.4077C58.7306 44.4551 60.3692 46.1358 62.4166 46.1618C64.4639 46.1879 66.1447 44.5493 66.1707 42.5019C66.1967 40.4546 64.5581 38.7738 62.5108 38.7478C60.4634 38.7218 58.7827 40.3604 58.7567 42.4077Z" fill="white"/>
<ellipse cx="52.927" cy="64.798" rx="12.9756" ry="7.04388" transform="rotate(0.727869 52.927 64.798)" fill="#F27500"/>
<ellipse cx="95.9278" cy="65.3445" rx="15.9414" ry="7.04388" transform="rotate(0.727869 95.9278 65.3445)" fill="#F27500"/>
<path d="M46.3458 148.549C49.8347 151.899 58.2576 156.035 64.0382 145.786C63.4898 146.186 72.1358 160.558 80.6061 145.996C81.1493 146.003 89.1112 160.773 96.7667 146.202" stroke="#F69D49" stroke-width="2" stroke-linecap="round" stroke-linejoin="round"/>
<path d="M55.8645 136.989C61.8398 137.065 64.4753 132.752 65.0461 130.586C64.4977 130.987 73.1437 145.358 81.614 130.797C82.1296 132.977 84.6547 137.355 90.63 137.431" stroke="#F69D49" stroke-width="2" stroke-linecap="round" stroke-linejoin="round"/>
<g filter="url(#filter4_d)">
<path d="M8.31502 150.338C6.71245 170.766 11.0881 189.803 19.5412 204.391C31.6838 191.134 40.1395 171.664 41.8794 149.475C43.482 129.047 39.1063 110.01 30.6532 95.4216C18.5113 108.67 10.0556 128.141 8.31502 150.338Z" fill="#F69D49"/>
</g>
</g>
<path d="M102.354 236.407L102.433 230.181C102.461 227.931 100.66 226.083 98.4097 226.055C96.1593 226.026 94.3118 227.827 94.2832 230.078L94.2041 236.304C94.1755 238.554 95.9766 240.402 98.227 240.43C100.477 240.459 102.325 238.658 102.354 236.407Z" fill="#FDE01B"/>
<path d="M95.0185 236.314L95.0976 230.087C95.1262 227.837 93.3251 225.99 91.0747 225.961C88.8243 225.932 86.9768 227.733 86.9482 229.984L86.8691 236.21C86.8405 238.46 88.6417 240.308 90.8921 240.336C93.1425 240.365 94.99 238.564 95.0185 236.314Z" fill="#FDE01B"/>
<path d="M87.6807 236.514L87.7598 230.288C87.7883 228.037 85.9872 226.19 83.7368 226.161C81.4864 226.133 79.6389 227.934 79.6103 230.184L79.5312 236.41C79.5026 238.661 81.3038 240.508 83.5542 240.537C85.8046 240.565 87.6521 238.764 87.6807 236.514Z" fill="#FDE01B"/>
<path d="M63.334 235.268L63.4131 229.042C63.4417 226.791 61.6405 224.944 59.3901 224.915C57.1397 224.886 55.2922 226.688 55.2636 228.938L55.1845 235.164C55.156 237.415 56.9571 239.262 59.2075 239.291C61.4579 239.319 63.3054 237.518 63.334 235.268Z" fill="#FDE01B"/>
<path d="M56 235.174L56.0791 228.948C56.1077 226.697 54.3065 224.85 52.0561 224.821C49.8057 224.793 47.9582 226.594 47.9297 228.844L47.8506 235.07C47.822 237.321 49.6231 239.168 51.8735 239.197C54.1239 239.225 55.9714 237.424 56 235.174Z" fill="#FDE01B"/>
<path d="M48.6699 235.374L48.749 229.148C48.7776 226.898 46.9765 225.05 44.7261 225.021C42.4757 224.993 40.6282 226.794 40.5996 229.044L40.5205 235.271C40.4919 237.521 42.293 239.368 44.5434 239.397C46.7938 239.426 48.6413 237.625 48.6699 235.374Z" fill="#FDE01B"/>
<path d="M96.3976 215.504C96.4169 213.986 94.0298 212.725 91.0659 212.687C88.1019 212.65 85.6836 213.85 85.6643 215.368L85.4924 228.898C85.4731 230.416 87.8602 231.677 90.8241 231.715C93.7881 231.752 96.2064 230.552 96.2257 229.034L96.3976 215.504Z" fill="#FDE01B"/>
<path d="M56.8804 215.002C56.8997 213.484 54.6218 212.224 51.7926 212.188C48.9634 212.152 46.6543 213.354 46.635 214.871L46.4631 228.402C46.4438 229.92 48.7217 231.179 51.5509 231.215C54.3801 231.251 56.6892 230.05 56.7085 228.532L56.8804 215.002Z" fill="#FDE01B"/>
</g>
<g filter="url(#filter5_d)">
<path d="M139.758 67.2505C157.652 57.2667 176.78 53.2882 193.562 54.8841C186.594 71.4521 172.435 87.2629 153.021 98.0997C135.119 108.088 115.998 112.062 99.2092 110.47C106.168 93.9176 120.322 78.0998 139.758 67.2505Z" fill="#F69D49"/>
</g>
<defs>
<filter id="filter0_i" x="3.71484" y="1.56934" width="125.838" height="243.019" filterUnits="userSpaceOnUse" color-interpolation-filters="sRGB">
<feFlood flood-opacity="0" result="BackgroundImageFix"/>
<feBlend mode="normal" in="SourceGraphic" in2="BackgroundImageFix" result="shape"/>
<feColorMatrix in="SourceAlpha" type="matrix" values="0 0 0 0 0 0 0 0 0 0 0 0 0 0 0 0 0 0 127 0" result="hardAlpha"/>
<feOffset dy="4"/>
<feGaussianBlur stdDeviation="2"/>
<feComposite in2="hardAlpha" operator="arithmetic" k2="-1" k3="1"/>
<feColorMatrix type="matrix" values="0 0 0 0 0 0 0 0 0 0 0 0 0 0 0 0 0 0 0.25 0"/>
<feBlend mode="normal" in2="shape" result="effect1_innerShadow"/>
</filter>
<filter id="filter1_i" x="3.71484" y="-13.4307" width="140.838" height="233.433" filterUnits="userSpaceOnUse" color-interpolation-filters="sRGB">
<feFlood flood-opacity="0" result="BackgroundImageFix"/>
<feBlend mode="normal" in="SourceGraphic" in2="BackgroundImageFix" result="shape"/>
<feColorMatrix in="SourceAlpha" type="matrix" values="0 0 0 0 0 0 0 0 0 0 0 0 0 0 0 0 0 0 127 0" result="hardAlpha"/>
<feOffset dx="21" dy="-21"/>
<feGaussianBlur stdDeviation="7.5"/>
<feComposite in2="hardAlpha" operator="arithmetic" k2="-1" k3="1"/>
<feColorMatrix type="matrix" values="0 0 0 0 0 0 0 0 0 0 0 0 0 0 0 0 0 0 0.12 0"/>
<feBlend mode="normal" in2="shape" result="effect1_innerShadow"/>
</filter>
<filter id="filter2_i" x="77.7783" y="31.3799" width="33.0361" height="37.0361" filterUnits="userSpaceOnUse" color-interpolation-filters="sRGB">
<feFlood flood-opacity="0" result="BackgroundImageFix"/>
<feBlend mode="normal" in="SourceGraphic" in2="BackgroundImageFix" result="shape"/>
<feColorMatrix in="SourceAlpha" type="matrix" values="0 0 0 0 0 0 0 0 0 0 0 0 0 0 0 0 0 0 127 0" result="hardAlpha"/>
<feOffset dy="4"/>
<feGaussianBlur stdDeviation="2"/>
<feComposite in2="hardAlpha" operator="arithmetic" k2="-1" k3="1"/>
<feColorMatrix type="matrix" values="0 0 0 0 0 0 0 0 0 0 0 0 0 0 0 0 0 0 0.15 0"/>
<feBlend mode="normal" in2="shape" result="effect1_innerShadow"/>
</filter>
<filter id="filter3_i" x="36.2598" y="30.8525" width="33.0361" height="37.0361" filterUnits="userSpaceOnUse" color-interpolation-filters="sRGB">
<feFlood flood-opacity="0" result="BackgroundImageFix"/>
<feBlend mode="normal" in="SourceGraphic" in2="BackgroundImageFix" result="shape"/>
<feColorMatrix in="SourceAlpha" type="matrix" values="0 0 0 0 0 0 0 0 0 0 0 0 0 0 0 0 0 0 127 0" result="hardAlpha"/>
<feOffset dy="4"/>
<feGaussianBlur stdDeviation="2"/>
<feComposite in2="hardAlpha" operator="arithmetic" k2="-1" k3="1"/>
<feColorMatrix type="matrix" values="0 0 0 0 0 0 0 0 0 0 0 0 0 0 0 0 0 0 0.15 0"/>
<feBlend mode="normal" in2="shape" result="effect1_innerShadow"/>
</filter>
<filter id="filter4_d" x="-0.285156" y="93.9014" width="50.7651" height="120.009" filterUnits="userSpaceOnUse" color-interpolation-filters="sRGB">
<feFlood flood-opacity="0" result="BackgroundImageFix"/>
<feColorMatrix in="SourceAlpha" type="matrix" values="0 0 0 0 0 0 0 0 0 0 0 0 0 0 0 0 0 0 127 0"/>
<feOffset dy="4"/>
<feGaussianBlur stdDeviation="2"/>
<feColorMatrix type="matrix" values="0 0 0 0 0 0 0 0 0 0 0 0 0 0 0 0 0 0 0.15 0"/>
<feBlend mode="normal" in2="BackgroundImageFix" result="effect1_dropShadow"/>
<feBlend mode="normal" in="SourceGraphic" in2="effect1_dropShadow" result="shape"/>
</filter>
<filter id="filter5_d" x="87.8359" y="40.2295" width="119.1" height="92.8956" filterUnits="userSpaceOnUse" color-interpolation-filters="sRGB">
<feFlood flood-opacity="0" result="BackgroundImageFix"/>
<feColorMatrix in="SourceAlpha" type="matrix" values="0 0 0 0 0 0 0 0 0 0 0 0 0 0 0 0 0 0 127 0"/>
<feOffset dx="1" dy="4"/>
<feGaussianBlur stdDeviation="2"/>
<feColorMatrix type="matrix" values="0 0 0 0 0 0 0 0 0 0 0 0 0 0 0 0 0 0 0.15 0"/>
<feBlend mode="normal" in2="BackgroundImageFix" result="effect1_dropShadow"/>
<feBlend mode="normal" in="SourceGraphic" in2="effect1_dropShadow" result="shape"/>
</filter>
</defs>
</svg>
