<svg width="117" height="265" viewBox="0 0 117 265" fill="none" xmlns="http://www.w3.org/2000/svg">
<g clip-path="url(#clip0)">
<path d="M43.0996 130.6C43.0996 130.6 48.0996 -1.09998 56.0996 1.65538e-05C56.7996 0.900017 59.8996 -0.399983 60.4996 6.00002C61.0996 12.4 72.2996 129.8 72.2996 129.8L62.9996 135.3C62.9996 135.3 55.4996 123.3 50.7996 135.3C51.4996 136 43.0996 130.6 43.0996 130.6Z" fill="#E6E6E6"/>
<path d="M59.1 235.2C55 215.1 58.8 142.5 59.1 140.9C52.2 132.7 40.8 127.2 40.8 127.2C36.2 160.6 22.3 187.2 15.2 198.8C13.6 201.4 10 205.6 8.40004 208.2C3.40004 216.6 -10.1 240.9 13.6 258.4C34.2 273.7 50.3 255.8 56.4 247.7C58 245.5 59.6 237.9 59.1 235.2ZM54 233.5C51.8 247.9 39.7 257.9 27 256C14.3 254 5.80004 240.8 8.00004 226.4C10.2 212 22.3 202 35 203.9C47.7 205.9 56.2 219.1 54 233.5Z" fill="#ED1D54"/>
<path d="M56.0996 0L71.9996 126.1C71.9996 126.1 64.0996 57.8 61.9996 21C60.8996 2.3 57.6996 0.6 57.6996 0.6C57.6996 0.6 56.9996 0.1 56.0996 0Z" fill="#D2CECE"/>
<path d="M57.1002 119.6C60.6348 119.6 63.5002 116.735 63.5002 113.2C63.5002 109.665 60.6348 106.8 57.1002 106.8C53.5656 106.8 50.7002 109.665 50.7002 113.2C50.7002 116.735 53.5656 119.6 57.1002 119.6Z" fill="#D2CECE"/>
<path d="M108.5 208.2C106.9 205.6 103.3 201.4 101.7 198.8C94.5997 187.2 80.6997 160.6 76.0997 127.2C76.0997 127.2 64.5997 132.8 57.7997 140.9C58.0997 142.5 61.8997 215.1 57.7997 235.2C57.2997 237.9 58.7997 245.5 60.4997 247.7C66.5997 255.9 82.6998 273.7 103.3 258.4C127 240.9 113.5 216.6 108.5 208.2ZM96.5997 254.5C84.5997 259.1 70.6997 251.7 65.4998 238.2C60.2998 224.6 65.8998 209.9 77.8998 205.4C89.8997 200.8 103.8 208.2 109 221.7C114.2 235.3 108.6 250 96.5997 254.5Z" fill="#ED1D54"/>
</g>
<defs>
<clipPath id="clip0">
<rect width="116.9" height="264.4" fill="white"/>
</clipPath>
</defs>
</svg>
