<svg width="104" height="134" viewBox="0 0 104 134" fill="none" xmlns="http://www.w3.org/2000/svg">
<g filter="url(#filter0_d)">
<path d="M87.5225 41.8654L81.585 41.8654L81.585 29.9606C81.585 22.0673 78.4572 14.4972 72.8897 8.91579C67.3222 3.33435 59.7711 0.19873 51.8975 0.19873C44.0238 0.19873 36.4727 3.33435 30.9052 8.91579C25.3377 14.4972 22.21 22.0673 22.21 29.9606L22.21 41.8654L16.2725 41.8654C13.1259 41.8748 10.1109 43.1321 7.88595 45.3626C5.66099 47.5932 4.40686 50.6157 4.39746 53.7701L4.39746 113.294C4.40686 116.448 5.66099 119.471 7.88595 121.701C10.1109 123.932 13.1259 125.189 16.2725 125.199L87.5225 125.199C90.669 125.189 93.684 123.932 95.909 121.701C98.1339 119.471 99.3881 116.448 99.3975 113.294L99.3975 53.7701C99.3881 50.6157 98.1339 47.5932 95.909 45.3626C93.684 43.1321 90.669 41.8748 87.5225 41.8654ZM51.8975 95.4368C49.5488 95.4368 47.2529 94.7386 45.3001 93.4305C43.3472 92.1224 41.8252 90.2631 40.9264 88.0878C40.0276 85.9125 39.7924 83.5188 40.2506 81.2095C40.7088 78.9002 41.8398 76.779 43.5006 75.1141C45.1613 73.4492 47.2772 72.3154 49.5808 71.856C51.8843 71.3967 54.2719 71.6324 56.4418 72.5335C58.6117 73.4345 60.4663 74.9604 61.7712 76.9181C63.076 78.8758 63.7725 81.1775 63.7725 83.532C63.7631 86.6865 62.5089 89.709 60.284 91.9396C58.059 94.1701 55.044 95.4274 51.8975 95.4368ZM70.3037 41.8654L33.4912 41.8654L33.4912 29.9606C33.4912 25.0668 35.4304 20.3733 38.8823 16.9128C42.3341 13.4523 47.0158 11.5083 51.8975 11.5083C56.7791 11.5083 61.4608 13.4523 64.9126 16.9128C68.3645 20.3733 70.3037 25.0668 70.3037 29.9606L70.3037 41.8654Z" fill="#E6E6E6"/>
</g>
<defs>
<filter id="filter0_d" x="0.397461" y="0.19873" width="103" height="133" filterUnits="userSpaceOnUse" color-interpolation-filters="sRGB">
<feFlood flood-opacity="0" result="BackgroundImageFix"/>
<feColorMatrix in="SourceAlpha" type="matrix" values="0 0 0 0 0 0 0 0 0 0 0 0 0 0 0 0 0 0 127 0"/>
<feOffset dy="4"/>
<feGaussianBlur stdDeviation="2"/>
<feColorMatrix type="matrix" values="0 0 0 0 0 0 0 0 0 0 0 0 0 0 0 0 0 0 0.25 0"/>
<feBlend mode="normal" in2="BackgroundImageFix" result="effect1_dropShadow"/>
<feBlend mode="normal" in="SourceGraphic" in2="effect1_dropShadow" result="shape"/>
</filter>
</defs>
</svg>
