<svg width="186" height="149" viewBox="0 0 186 149" fill="none" xmlns="http://www.w3.org/2000/svg">
<path d="M6.07819 23.9129C2.257 22.1797 0.433249 17.1247 -0.000976562 14.8138C0.693785 10.4809 4.34128 9.10876 6.07819 8.96433C13.46 8.31439 11.0718 4.19812 12.3745 4.19812C23.6643 -2.9512 25.1841 0.731784 28.8751 2.89824C32.566 5.0647 45.3756 2.03166 49.2837 2.89824C53.1917 3.76483 56.8826 3.54818 57.534 4.19812C66.5659 7.66445 73.1661 6.9423 75.3372 6.14794C77.0741 5.498 81.9809 4.58809 87.7127 6.14794C94.8774 8.09775 94.2261 5.93129 95.3116 6.14794C104.865 9.18098 107.904 5.93129 109.424 7.66446C110.64 9.05099 114.997 12.4307 117.023 13.9472C117.964 13.8028 122.19 14.4238 131.57 18.0635C143.294 22.613 142.208 20.2299 146.985 18.0635C151.761 15.897 154.801 22.1797 160.011 24.5628C164.18 26.4693 167.827 26.8015 169.13 26.7293C169.492 27.0904 171.345 27.5959 175.861 26.7293C180.376 25.8627 182.808 26.3682 183.46 26.7293C184.4 27.4514 185.891 29.1991 184.328 30.4123C182.765 31.6255 183.098 32.5065 183.46 32.7954C186.239 37.3016 180.13 42.0029 176.729 43.7903C174.992 43.7903 171.735 44.4943 170.216 47.3107C169 49.5638 161.748 51.2825 158.274 51.8602C154.801 53.1601 147.679 56.4531 146.985 59.2262C146.116 62.6925 138.517 72.8749 137.649 74.1747C136.954 75.2146 135.622 78.2188 135.043 79.5909C134.03 80.5297 131.917 83.0139 131.57 85.4403C131.135 88.4734 133.741 93.6729 137.649 96.4893C140.775 98.7424 137.866 100.091 136.997 101.174C136.418 101.896 135.304 102.815 132.872 103.855C129.833 105.155 130.918 108.838 129.398 109.271C128.183 109.618 125.997 115.482 125.056 118.37C126.214 119.454 127.097 121.49 121.365 120.97C115.633 120.45 111.45 125.375 110.075 127.903C109.569 130.719 107.73 136.265 104.43 135.919C100.305 135.486 94.2261 136.135 90.1009 137.652C85.9758 139.169 81.6335 137.652 77.7255 137.002C74.5991 136.482 72.0805 137.219 71.2121 137.652C70.6331 138.663 68.737 140.728 65.7843 140.902C62.0933 141.118 59.7051 141.552 57.9682 144.801C56.2313 148.051 54.0602 148.268 54.9286 148.484C45.5928 151.084 41.9018 136.785 41.9018 137.002C37.3425 126.17 27.5724 127.903 26.921 127.903C22.5788 117.504 29.7435 112.304 32.1317 111.871C34.3499 111.469 31.6985 109.01 32.0055 108.836C30.0421 108.771 26.981 107.174 29.7435 100.389C32.0015 94.8428 30.6843 91.2898 29.7435 90.2065C28.8027 88.2567 27.7895 83.5772 31.2633 80.4575C34.7371 77.3378 35.7503 60.5261 35.8227 52.5102C36.6188 52.3657 39.1662 51.037 42.9874 46.8774C47.7639 41.6779 39.5136 38.6448 39.0794 36.9117C38.732 35.5251 33.7239 35.6118 31.2633 35.8284C30.2501 37.0561 27.9632 39.2514 26.921 38.2115C25.6184 36.9117 21.9274 36.9117 17.3681 38.2115C12.8087 39.5114 17.8795 34.6272 15.6312 33.4453C12.5916 31.8474 12.1574 33.4453 10.4204 33.7972C7.64625 34.3593 7.16375 31.4141 7.38087 29.4643C7.59798 27.5145 9.89938 25.6461 6.07819 23.9129Z" fill="white"/>
</svg>
