<svg width="186" height="149" viewBox="0 0 186 149" fill="none" xmlns="http://www.w3.org/2000/svg">
<path d="M6.47565 24.1116C2.65446 22.3785 0.83071 17.3234 0.396484 15.0125C1.09125 10.6796 4.73874 9.30749 6.47565 9.16306C13.8575 8.51312 11.4692 4.39685 12.7719 4.39685C24.0618 -2.75247 25.5816 0.930514 29.2725 3.09697C32.9634 5.26343 45.7731 2.23039 49.6811 3.09697C53.5892 3.96356 57.2801 3.74691 57.9314 4.39685C66.9633 7.86318 73.5636 7.14103 75.7347 6.34667C77.4716 5.69673 82.3784 4.78682 88.1101 6.34667C95.2749 8.29648 94.6235 6.13002 95.7091 6.34667C105.262 9.37971 108.302 6.13002 109.821 7.86319C111.037 9.24972 115.394 12.6294 117.42 14.1459C118.361 14.0015 122.588 14.6225 131.967 18.2622C143.691 22.8118 142.605 20.4286 147.382 18.2622C152.158 16.0957 155.198 22.3785 160.409 24.7616C164.577 26.668 168.225 27.0002 169.528 26.928C169.889 27.2891 171.742 27.7946 176.258 26.928C180.774 26.0614 183.206 26.5669 183.857 26.928C184.798 27.6502 186.289 29.3978 184.725 30.611C183.162 31.8242 183.495 32.7052 183.857 32.9941C186.636 37.5003 180.528 42.2016 177.126 43.989C175.39 43.989 172.133 44.693 170.613 47.5094C169.397 49.7625 162.146 51.4812 158.672 52.0589C155.198 53.3588 148.077 56.6518 147.382 59.4249C146.514 62.8912 138.915 73.0736 138.046 74.3735C137.351 75.4134 136.02 78.4175 135.441 79.7896C134.428 80.7284 132.314 83.2126 131.967 85.6391C131.533 88.6721 134.138 93.8716 138.046 96.688C141.173 98.9411 138.263 100.29 137.395 101.373C136.816 102.095 135.701 103.014 133.27 104.054C130.23 105.354 131.316 109.037 129.796 109.47C128.58 109.817 126.394 115.681 125.454 118.569C126.612 119.652 127.494 121.689 121.763 121.169C116.031 120.649 111.848 125.574 110.473 128.102C109.966 130.918 108.128 136.464 104.828 136.118C100.703 135.684 94.6235 136.334 90.4984 137.851C86.3732 139.367 82.031 137.851 78.1229 137.201C74.9965 136.681 72.478 137.417 71.6096 137.851C71.0306 138.862 69.1345 140.927 66.1817 141.1C62.4908 141.317 60.1026 141.75 58.3657 145C56.6288 148.25 54.4576 148.466 55.3261 148.683C45.9902 151.283 42.2993 136.984 42.2993 137.201C37.7399 126.368 27.9698 128.102 27.3185 128.102C22.9762 117.703 30.141 112.503 32.5292 112.07C34.7474 111.667 32.096 109.209 32.4029 109.035C30.4395 108.97 27.3785 107.373 30.141 100.588C32.3989 95.0415 31.0818 91.4885 30.141 90.4053C29.2001 88.4554 28.1869 83.7759 31.6608 80.6562C35.1346 77.5365 36.1478 60.7248 36.2201 52.7089C37.0162 52.5645 39.5637 51.2357 43.3849 47.0761C48.1613 41.8766 39.9111 38.8436 39.4768 37.1104C39.1294 35.7239 34.1214 35.8105 31.6608 36.0272C30.6476 37.2548 28.3606 39.4502 27.3185 38.4103C26.0158 37.1104 22.3249 37.1104 17.7655 38.4103C13.2062 39.7101 18.2769 34.826 16.0286 33.6441C12.989 32.0462 12.5548 33.6441 10.8179 33.996C8.04371 34.5581 7.56121 31.6129 7.77833 29.6631C7.99544 27.7132 10.2968 25.8448 6.47565 24.1116Z" fill="#F2D405"/>
</svg>
