<svg width="244" height="199" viewBox="0 0 244 199" fill="none" xmlns="http://www.w3.org/2000/svg">
<path d="M231.232 0.732001L20.7322 12.8503C14.3832 13.2158 9.42188 18.471 9.42188 24.8305V87.5512C9.42188 93.96 14.4578 99.2377 20.8596 99.538L231.36 109.412C238.2 109.733 243.922 104.274 243.922 97.4254V12.7122C243.922 5.81363 238.119 0.335514 231.232 0.732001Z" fill="white"/>
<path d="M21.4757 191.928L28.9565 97.3557C28.9948 96.8711 29.3761 96.4842 29.8602 96.4389L60.7986 93.5423C61.541 93.4727 62.0956 94.2109 61.8221 94.9046L23.4029 192.373C22.9815 193.442 21.3851 193.073 21.4757 191.928Z" fill="white"/>
</svg>
