<svg width="34" height="256" viewBox="0 0 34 256" fill="none" xmlns="http://www.w3.org/2000/svg">
<path d="M15.8 -0.000244141C7.5 -0.000244141 0.7 6.79976 0.7 15.0998L0 240.1C0 248.5 6.8 255.2 15.1 255.2C23.5 255.2 30.2 248.4 30.2 240.1L30.9 15.0998C30.9 6.79976 24.2 -0.000244141 15.8 -0.000244141Z" fill="#9E9D9D"/>
<path d="M18.8 -0.000488281C10.4 -0.000488281 3.7 6.79951 3.7 15.0995L3 240.1C3 248.5 9.8 255.2 18.1 255.2C26.5 255.2 33.2 248.4 33.2 240.1L33.9 15.0995C33.9 6.79951 27.1 -0.000488281 18.8 -0.000488281Z" fill="#E6E6E6"/>
</svg>
