<svg width="142" height="172" viewBox="0 0 142 172" fill="none" xmlns="http://www.w3.org/2000/svg">
<path d="M65.2439 19.1636V170.944C65.2439 170.944 65.1736 171.929 66.3701 171.894C67.0035 171.894 67.3202 171.718 67.461 171.542L68.8687 170.064L72.0359 167.073L71.4376 19.1988H65.2439V19.1636Z" fill="#43EDB0"/>
<path d="M65.2448 19.1638C65.2448 19.1638 64.0483 17.3338 64.6466 16.9819C65.2448 16.63 65.9486 16.5244 65.2448 15.5742C64.541 14.6241 63.9779 14.237 65.2448 14.0258C65.3152 14.061 65.3856 13.9202 64.7521 13.4276C64.1187 12.9349 63.8724 12.5126 64.4354 12.1959C65.0337 11.8791 64.7169 11.4217 64.365 11.2105C64.0131 10.9994 62.6407 10.4363 63.4149 10.0492C63.4501 10.0492 63.802 9.87324 63.7316 9.55652C63.6612 9.2046 62.7814 9.16941 62.7814 9.16941C62.7814 9.16941 62.1832 8.95826 62.4295 8.57116C62.6758 8.18405 62.8166 7.90252 62.5351 7.86733C62.2536 7.83214 61.1626 8.32482 61.0922 7.33946C61.057 7.26908 60.7051 7.1635 60.3532 7.40984C60.0365 7.65618 59.579 7.51542 59.579 7.1635C59.579 6.95235 59.6142 6.49487 59.4734 6.24853C59.403 6.10776 59.2271 6.07257 58.9808 6.21334C58.2769 6.56525 58.3121 6.49487 57.7842 6.49487C57.2564 6.49487 57.01 6.49487 56.9045 6.67082C56.7989 6.84678 56.5174 6.91716 56.2006 6.7764C55.8839 6.63563 55.5672 7.12831 55.4968 7.44503C55.4264 7.76176 55.3912 8.07848 54.6522 7.79695C53.9132 7.48023 53.7724 8.11367 53.7724 8.11367L4.15258 48.0911C4.15258 48.0911 3.2728 45.4869 0 43.1995C0 43.2347 49.4791 3.64436 49.4791 3.64436C49.4791 3.64436 49.5847 3.39803 50.1125 3.43322C50.6756 3.46841 50.6756 3.39803 50.746 2.72939C50.8164 2.06075 51.309 1.8848 51.9073 1.8496C52.5055 1.8496 53.5613 2.02556 53.878 1.0402C54.1243 0.336375 55.356 0.336375 55.9543 0.406757C56.2006 0.441949 56.447 0.406757 56.6581 0.336375C56.8693 0.265992 57.186 0.160418 57.5027 0.090035C58.1714 -0.0859219 62.6407 0.265992 63.4501 1.63846C63.4149 1.63846 63.4501 2.06075 64.365 1.95518C64.4002 2.02556 67.9194 4.41857 68.412 6.17814C68.412 6.00219 68.2009 6.7764 68.9399 6.84678C68.8695 6.88197 70.066 7.65618 70.066 9.41575C70.1012 9.52133 69.9253 10.19 70.5235 10.2955C70.5235 10.3307 71.0514 10.9994 70.8754 12.2311C70.6995 13.4628 70.6995 13.5331 71.1218 13.8851C71.5441 14.237 71.3681 15.6798 71.1218 15.9965C70.8754 16.3133 70.6643 16.5948 71.2274 16.9467C71.7904 17.2986 71.7552 17.6153 71.5089 18.3544C71.2625 19.0934 71.4385 19.2341 71.4385 19.2341H65.2448V19.1638Z" fill="#43EDB0"/>
<path d="M70.9796 16.1722L65.525 16.0667C65.525 16.0667 65.4546 15.8555 65.1731 15.4684C64.8915 15.0813 64.9619 15.1869 64.9619 15.1869L71.4019 15.0813C71.4019 15.0813 71.4019 15.7147 70.9796 16.1722Z" fill="#3BDBA1"/>
<path d="M64.751 13.4976C64.751 13.4976 65.4196 12.0548 70.9799 11.738C70.9799 11.7732 70.9095 12.653 70.8391 13.1105C70.7687 13.568 71.0502 13.7088 71.0502 13.7088L65.2788 14.0607C65.2437 14.0607 65.3844 14.0255 64.751 13.4976Z" fill="#3BDBA1"/>
<path d="M70.5932 10.2254L64.7514 11.8442C64.7514 11.8442 64.7163 11.4923 64.0476 11.1052C63.4142 10.7181 63.3086 10.6126 63.3086 10.6126L65.8424 9.41604C65.948 9.34566 66.2647 9.27528 66.4406 9.2049C66.5462 9.1697 66.6166 9.13451 66.7222 9.13451L69.9246 8.3603C69.9246 8.3603 70.0653 8.28992 70.0653 9.24009C70.1005 10.1199 70.5932 10.2254 70.5932 10.2254Z" fill="#3BDBA1"/>
<path d="M63.7307 9.59159L65.9477 8.25431C66.0181 8.21912 66.1237 8.14874 66.194 8.11355L69.0094 6.81147C69.0094 6.81147 68.5167 6.77628 68.4463 6.07245C68.2351 5.50939 67.7777 4.91113 67.7777 4.91113C67.7777 4.91113 63.1676 7.76164 62.5693 9.06372C62.5693 9.06372 62.5693 9.16929 62.9564 9.23967C63.2732 9.27486 63.5547 9.23967 63.7307 9.59159Z" fill="#3BDBA1"/>
<path d="M65.209 2.51855C65.209 2.51855 61.5491 6.60075 61.3027 7.90284C61.3027 7.90284 61.4787 8.00841 61.7954 8.00841C62.5344 7.93803 62.4641 7.90284 62.4641 7.90284C62.4641 7.90284 65.948 3.92621 66.9334 4.03178C66.9334 3.99659 65.948 2.94085 65.209 2.51855Z" fill="#3BDBA1"/>
<path d="M65.2443 19.1636C65.2443 19.1636 64.6461 18.0727 64.5757 17.8263C64.5053 17.58 71.7196 17.6856 71.7196 17.6856C71.7196 17.6856 71.2621 18.7061 71.5084 19.1636H65.2443Z" fill="#3BDBA1"/>
<path d="M63.5898 1.8145L61.056 7.33954C61.056 7.33954 60.8097 7.05801 60.0707 7.5155C59.9299 7.55069 61.6543 0.547607 61.6543 0.547607C61.6543 0.547607 63.3435 0.969904 63.5898 1.8145Z" fill="#3BDBA1"/>
<path d="M59.4728 6.28362V0.125125C59.4728 0.125125 57.9244 -0.156406 57.3613 0.125125C57.3965 0.125125 58.3467 6.49477 58.5226 6.49477C58.3819 6.49477 59.3672 5.89651 59.4728 6.28362Z" fill="#3BDBA1"/>
<path d="M57.3609 6.52982L56.2347 0.441711C56.2347 0.441711 54.1936 0.0897976 53.9121 1.07516C53.9121 1.07516 56.7626 6.49463 56.833 6.81135C56.9034 6.70578 56.9386 6.52982 57.3609 6.52982Z" fill="#3BDBA1"/>
<path d="M56.1992 6.81179L52.6801 1.885C52.6801 1.885 50.7446 1.74423 50.7798 2.76478L55.4602 7.76196C55.4602 7.72677 55.5658 6.81179 56.1992 6.81179Z" fill="#3BDBA1"/>
<path d="M54.6513 7.79685L50.358 3.43312C50.358 3.43312 50.0061 3.39793 49.7949 3.43312L53.7715 8.11357C53.7715 8.11357 54.0179 7.55051 54.6513 7.79685Z" fill="#3BDBA1"/>
<path d="M84.9544 24.5955L84.9544 155.471C84.9544 155.471 85.0151 156.32 83.9834 156.29C83.4372 156.29 83.1641 156.138 83.0427 155.987L81.8289 154.712L79.0979 152.133L79.6138 24.6258L84.9544 24.6258L84.9544 24.5955Z" fill="#43EDB0"/>
<path d="M84.9545 24.5951C84.9545 24.5951 85.9862 23.0172 85.4703 22.7138C84.9544 22.4103 84.3476 22.3193 84.9545 21.5C85.5613 20.6807 86.0468 20.3469 84.9545 20.1648C84.8938 20.1952 84.8331 20.0738 85.3793 19.649C85.9255 19.2242 86.1379 18.86 85.6524 18.5869C85.1365 18.3138 85.4096 17.9193 85.7131 17.7373C86.0165 17.5552 87.1999 17.0697 86.5324 16.7359C86.502 16.7359 86.1986 16.5842 86.2593 16.3111C86.3199 16.0077 87.0786 15.9773 87.0786 15.9773C87.0786 15.9773 87.5944 15.7952 87.382 15.4615C87.1696 15.1277 87.0482 14.8849 87.291 14.8546C87.5337 14.8242 88.4744 15.249 88.5351 14.3994C88.5654 14.3387 88.8689 14.2477 89.1723 14.4601C89.4454 14.6725 89.8399 14.5511 89.8399 14.2477C89.8399 14.0656 89.8095 13.6711 89.9309 13.4587C89.9916 13.3373 90.1433 13.307 90.3557 13.4284C90.9626 13.7318 90.9323 13.6711 91.3875 13.6711C91.8426 13.6711 92.055 13.6711 92.1461 13.8229C92.2371 13.9746 92.4798 14.0353 92.753 13.9139C93.026 13.7925 93.2991 14.2173 93.3598 14.4904C93.4205 14.7635 93.4509 15.0366 94.0881 14.7939C94.7253 14.5208 94.8467 15.067 94.8467 15.067L137.632 49.5382C137.632 49.5382 138.391 47.2927 141.213 45.3203C141.213 45.3507 98.5487 11.2132 98.5487 11.2132C98.5487 11.2132 98.4577 11.0008 98.0025 11.0312C97.517 11.0615 97.517 11.0008 97.4563 10.4243C97.3956 9.84775 96.9708 9.69603 96.455 9.66568C95.9391 9.66568 95.0288 9.8174 94.7557 8.96776C94.5433 8.36087 93.4812 8.36087 92.9654 8.42156C92.7529 8.45191 92.5405 8.42156 92.3585 8.36087C92.1764 8.30019 91.9033 8.20915 91.6302 8.14846C91.0537 7.99674 87.1999 8.30018 86.502 9.48361C86.5324 9.48361 86.502 9.84775 85.7131 9.75671C85.6827 9.8174 82.6483 11.8808 82.2235 13.398C82.2235 13.2463 82.4055 13.9139 81.7683 13.9746C81.829 14.0049 80.7973 14.6725 80.7973 16.1897C80.7669 16.2808 80.9187 16.8573 80.4028 16.9483C80.4028 16.9787 79.9476 17.5552 80.0994 18.6173C80.2511 19.6793 80.2511 19.74 79.8869 20.0435C79.5228 20.3469 79.6745 21.591 79.8869 21.8641C80.0993 22.1372 80.2814 22.38 79.7959 22.6834C79.3104 22.9869 79.3407 23.26 79.5532 23.8972C79.7656 24.5344 79.6138 24.6558 79.6138 24.6558L84.9545 24.6558L84.9545 24.5951Z" fill="#43EDB0"/>
<path d="M80.0085 22.0161L84.7119 21.9251C84.7119 21.9251 84.7725 21.743 85.0153 21.4092C85.258 21.0754 85.1974 21.1665 85.1974 21.1665L79.6443 21.0754C79.6443 21.0754 79.6443 21.6216 80.0085 22.0161Z" fill="#3BDBA1"/>
<path d="M85.3789 19.7098C85.3789 19.7098 84.8024 18.4657 80.008 18.1926C80.008 18.223 80.0686 18.9816 80.1293 19.3761C80.19 19.7705 79.9473 19.8919 79.9473 19.8919L84.9237 20.1954C84.9541 20.1954 84.8327 20.165 85.3789 19.7098Z" fill="#3BDBA1"/>
<path d="M80.3427 16.8883L85.3799 18.2842C85.3799 18.2842 85.4102 17.9807 85.9868 17.6469C86.533 17.3131 86.624 17.2221 86.624 17.2221L84.4392 16.1904C84.3482 16.1297 84.0751 16.069 83.9234 16.0083C83.8323 15.978 83.7716 15.9476 83.6806 15.9476L80.9193 15.2801C80.9193 15.2801 80.7979 15.2194 80.7979 16.0387C80.7676 16.7973 80.3427 16.8883 80.3427 16.8883Z" fill="#3BDBA1"/>
<path d="M86.2584 16.3415L84.3467 15.1884C84.286 15.158 84.195 15.0973 84.1343 15.067L81.7067 13.9443C81.7067 13.9443 82.1316 13.9139 82.1923 13.307C82.3743 12.8215 82.7688 12.3057 82.7688 12.3057C82.7688 12.3057 86.7439 14.7636 87.2598 15.8863C87.2598 15.8863 87.2598 15.9773 86.926 16.038C86.6529 16.0684 86.4101 16.038 86.2584 16.3415Z" fill="#3BDBA1"/>
<path d="M84.9843 10.2429C84.9843 10.2429 88.1401 13.7629 88.3525 14.8856C88.3525 14.8856 88.2008 14.9766 87.9277 14.9766C87.2905 14.916 87.3512 14.8856 87.3512 14.8856C87.3512 14.8856 84.3471 11.4567 83.4974 11.5477C83.4974 11.5174 84.3471 10.6071 84.9843 10.2429Z" fill="#3BDBA1"/>
<path d="M84.9543 24.5956C84.9543 24.5956 85.4701 23.6549 85.5308 23.4425C85.5915 23.2301 79.3709 23.3211 79.3709 23.3211C79.3709 23.3211 79.7654 24.2011 79.553 24.5956L84.9543 24.5956Z" fill="#3BDBA1"/>
<path d="M86.3804 9.63585L88.5652 14.3999C88.5652 14.3999 88.7776 14.1572 89.4148 14.5516C89.5362 14.582 88.0493 8.54346 88.0493 8.54346C88.0493 8.54346 86.5928 8.90759 86.3804 9.63585Z" fill="#3BDBA1"/>
<path d="M89.9313 13.4894L89.9313 8.17918C89.9313 8.17918 91.2664 7.93643 91.752 8.17918C91.7216 8.17918 90.9023 13.6715 90.7506 13.6715C90.872 13.6715 90.0223 13.1557 89.9313 13.4894Z" fill="#3BDBA1"/>
<path d="M91.7518 13.7014L92.7229 8.45185C92.7229 8.45185 94.4828 8.14841 94.7256 8.99805C94.7256 8.99805 92.2677 13.6711 92.207 13.9442C92.1463 13.8531 92.116 13.7014 91.7518 13.7014Z" fill="#3BDBA1"/>
<path d="M92.7523 13.9446L95.7868 9.69635C95.7868 9.69635 97.4557 9.57497 97.4254 10.455L93.3896 14.7639C93.3896 14.7335 93.2985 13.9446 92.7523 13.9446Z" fill="#3BDBA1"/>
<path d="M94.0879 14.7943L97.7899 11.0316C97.7899 11.0316 98.0933 11.0012 98.2754 11.0316L94.8465 15.0674C94.8465 15.0674 94.6341 14.5818 94.0879 14.7943Z" fill="#3BDBA1"/>
</svg>
