<svg width="45" height="149" viewBox="0 0 45 149" fill="none" xmlns="http://www.w3.org/2000/svg">
<g clip-path="url(#clip0)">
<path d="M0.744141 144.026C4.78211 134.567 8.01475 64.6791 8.82009 60.473C9.62542 56.2668 13.129 56.2705 13.129 56.2705C21.7281 57.3726 32.2087 56.2925 32.1447 56.2705C37.2628 57.1338 37.3305 59.6464 37.3305 59.6464C37.3305 59.6464 40.7739 121.827 42.1136 131.794C43.4534 141.76 44.6237 143.391 44.6237 143.391L0.744141 144.026Z" fill="#335DFF"/>
<path d="M0.804299 144.022C0.537107 144.287 0.804299 148.618 0.804299 148.618C0.804299 148.618 10.8748 147.31 17.0691 148.618C23.2634 149.926 28.9534 147.476 35.6483 147.476C42.3431 147.476 44.6801 147.637 44.6801 147.637V143.391L0.804299 144.022Z" fill="#1037D0"/>
<path d="M36.7206 42.6526L36.4346 37.6567C36.4346 37.6567 36.1975 34.549 33.3525 34.773C31.1434 34.9494 31.9262 35.3792 23.6771 35.3314H22.9057C14.6566 35.3792 15.4394 34.9641 13.2303 34.773C10.3853 34.549 10.152 37.6567 10.152 37.6567L9.86222 42.6526C9.86222 42.6526 9.16602 54.2425 9.16602 56.6119C9.16602 58.3862 12.0637 58.3862 12.0637 58.3862C12.0637 58.3862 14.9163 58.6764 22.1154 58.8821H22.9057H23.6771H24.4674C31.6665 58.6764 34.5191 58.3862 34.5191 58.3862C34.5191 58.3862 37.4168 58.3862 37.4168 56.6119C37.4168 54.2425 36.7206 42.6526 36.7206 42.6526Z" fill="#9E9D9D"/>
<path d="M30.7852 35.3223L30.8124 28.5025C30.8124 28.5025 31.2489 25.7804 27.9109 25.8282C24.5729 25.876 20.0946 25.8282 20.0946 25.8282C20.0946 25.8282 16.0604 25.0935 15.955 27.8707C15.8497 30.6478 15.955 35.1184 15.955 35.1184C15.955 35.1184 16.4547 35.91 30.7852 35.3223Z" fill="#9E9D9D"/>
<path d="M20.8704 13.8074V9.43964C20.8704 9.43964 23.3617 7.65065 25.5218 9.43964V13.8184L27.5653 20.4784L27.9115 26.147H18.9512V20.8678C18.9512 20.8678 20.8704 13.8074 20.8704 13.7596" fill="#9E9D9D"/>
<path d="M15.9492 35.1182C16.5508 35.2703 17.1635 35.3772 17.7819 35.4378C18.3991 35.5076 19.0163 35.5663 19.6334 35.5957C20.8716 35.6545 22.1134 35.6949 23.3553 35.6582C23.9725 35.6582 24.5934 35.6324 25.2144 35.6214L27.096 35.5369L30.8179 35.3092C30.2044 35.401 29.5873 35.4782 28.9701 35.5627L27.111 35.7463C25.8692 35.8492 24.6248 35.9116 23.3779 35.9337C22.1285 35.9337 20.8791 35.9116 19.6372 35.8051C18.3835 35.7257 17.1448 35.4949 15.9492 35.1182Z" fill="#E6E6E6"/>
<path d="M18.9512 25.7432C19.3131 25.8353 19.6817 25.9004 20.0538 25.9379C20.4301 25.9783 20.8065 26.015 21.1828 26.0297C21.9354 26.0628 22.6881 26.0811 23.4407 26.0628C24.1934 26.0444 24.946 26.0187 25.6987 25.9893L27.9566 25.8717C27.5803 25.9452 27.204 26.0003 26.8277 26.0628L25.6987 26.2024C24.946 26.2795 24.1934 26.3273 23.4407 26.3383C22.6867 26.3527 21.9325 26.3195 21.1828 26.2391C20.4181 26.1811 19.6662 26.0141 18.9512 25.7432Z" fill="#E6E6E6"/>
<rect x="12.3359" y="37" width="0.545455" height="20" rx="0.272727" fill="#E6E6E6"/>
<rect x="15.3184" y="37" width="0.545455" height="20" rx="0.272727" fill="#E6E6E6"/>
<rect x="18.3008" y="37" width="0.545455" height="20" rx="0.272727" fill="#E6E6E6"/>
<rect x="21.2832" y="37" width="0.545455" height="20" rx="0.272727" fill="#E6E6E6"/>
<rect x="24.2656" y="37" width="0.545455" height="20" rx="0.272727" fill="#E6E6E6"/>
<rect x="27.248" y="37" width="0.545455" height="20" rx="0.272727" fill="#E6E6E6"/>
<rect x="30.2305" y="37" width="0.545455" height="20" rx="0.272727" fill="#E6E6E6"/>
<rect x="33.2129" y="37" width="0.545455" height="20" rx="0.272727" fill="#E6E6E6"/>
</g>
<defs>
<clipPath id="clip0">
<rect width="44" height="149" fill="white" transform="translate(0.6875)"/>
</clipPath>
</defs>
</svg>
