<svg width="120" height="244" viewBox="0 0 120 244" fill="none" xmlns="http://www.w3.org/2000/svg">
<g clip-path="url(#clip0)" filter="url(#filter0_i)">
<path d="M28.5554 227.059C11.5888 212.749 0.289062 187.263 0.289062 158.201C0.289062 113.445 27.0919 77.1641 60.1487 77.1641C93.2054 77.1641 120.008 113.445 120.008 158.201C120.008 186.787 109.074 211.908 92.5673 226.337" fill="#F27500"/>
<path d="M61.34 118.345C93.6477 118.345 119.838 92.2041 119.838 59.9579C119.838 27.7117 93.6477 1.57104 61.34 1.57104C29.0323 1.57104 2.8418 27.7117 2.8418 59.9579C2.8418 92.2041 29.0323 118.345 61.34 118.345Z" fill="#F27500"/>
<path d="M85.0098 151.488C81.4371 154.829 72.8626 158.902 67.1462 148.468C67.6959 148.88 58.7641 163.295 50.382 148.468C49.8324 148.468 41.5877 163.295 34.03 148.468" stroke="#F69D49" stroke-width="2" stroke-linecap="round" stroke-linejoin="round"/>
<path d="M75.5293 139.681C69.4832 139.681 66.8723 135.288 66.3227 133.091C66.8723 133.503 57.9406 147.919 49.5585 133.091C49.0088 135.288 46.398 139.681 40.3519 139.681" stroke="#F69D49" stroke-width="2" stroke-linecap="round" stroke-linejoin="round"/>
<g filter="url(#filter1_d)">
<path d="M119.753 161.139C119.098 182.507 112.401 201.76 101.97 215.925C90.8655 200.808 84.2967 179.662 85.0029 156.477C85.6581 135.101 92.3545 115.857 102.786 101.682C113.882 116.782 120.459 137.929 119.753 161.139Z" fill="#F69D49"/>
</g>
<g filter="url(#filter2_d)">
<path d="M34.8018 161.139C34.1466 182.507 27.4502 201.76 17.0183 215.925C5.91432 200.808 -0.654496 179.662 0.0517364 156.477C0.706916 135.101 7.40333 115.857 17.8352 101.682C28.9307 116.782 35.508 137.929 34.8018 161.139Z" fill="#F69D49"/>
</g>
<path d="M102.531 101.343L111.108 93.8946C111.201 93.817 111.266 93.7112 111.292 93.5935C111.319 93.4757 111.306 93.3524 111.256 93.2425C111.206 93.1326 111.121 93.0422 111.014 92.9851C110.908 92.928 110.785 92.9074 110.666 92.9265L109.44 93.1048L115.397 87.6356C115.486 87.5528 115.546 87.4427 115.566 87.3225C115.587 87.2024 115.567 87.0788 115.509 86.9712C115.452 86.8635 115.361 86.7779 115.25 86.7275C115.138 86.6772 115.013 86.665 114.895 86.6929L113.057 87.1345" fill="#F27500"/>
<path d="M18.6686 100.018L10.3215 92.2726C10.2359 92.1908 10.179 92.0838 10.1589 91.9673C10.1389 91.8507 10.1569 91.7309 10.2102 91.6253C10.2636 91.5197 10.3495 91.434 10.4553 91.3809C10.5611 91.3277 10.6812 91.3099 10.798 91.3299L12.0147 91.5507L6.24577 85.8776C6.1582 85.7919 6.1017 85.6795 6.08514 85.5582C6.06858 85.4368 6.09292 85.3134 6.15431 85.2074C6.21571 85.1014 6.31067 85.0188 6.42427 84.9725C6.53787 84.9263 6.66366 84.919 6.78183 84.952L8.60268 85.4445" fill="#F27500"/>
<path d="M62.7941 61.3591L68.3503 69.0025C68.4662 69.1208 68.5572 69.2611 68.618 69.415C68.6787 69.569 68.7079 69.7335 68.704 69.8989C68.7 70.0643 68.6629 70.2273 68.5948 70.3782C68.5268 70.5291 68.4292 70.6648 68.3078 70.7775L62.4282 80.6629C62.1851 80.8928 61.8608 81.0173 61.526 81.0094C61.1912 81.0014 60.8732 80.8616 60.6413 80.6204L55.0851 70.4293C54.8492 70.1922 54.7168 69.8717 54.7168 69.5375C54.7168 69.2034 54.8492 68.8829 55.0851 68.6458L60.9732 61.3676C61.0889 61.2421 61.2293 61.1417 61.3856 61.0727C61.5419 61.0038 61.7109 60.9679 61.8818 60.9671C62.0527 60.9663 62.2219 61.0007 62.3789 61.0681C62.5359 61.1356 62.6772 61.2347 62.7941 61.3591Z" fill="#FDE01B"/>
<path d="M61.0762 78.2793C62.0184 80.162 62.2491 80.8409 62.4454 80.6447C61.7388 81.3508 60.9491 80.9333 60.6546 80.6391C58.9862 77.6973 55.5148 71.5752 55.0437 70.6338C54.5726 69.6924 54.6967 69.1596 54.7948 69.0615C56.2036 66.7084 60.2958 61.9222 61.2724 61.1186C61.7859 60.6961 62.2211 60.9729 62.4491 61.1179L62.4502 61.1186L62.8251 61.3944L56.5615 69.6499C57.7392 71.8072 60.134 76.3965 61.0762 78.2793Z" fill="#DCC31E"/>
<g filter="url(#filter3_i)">
<path d="M83.6123 64.9764C93.019 64.9764 100.645 57.3574 100.645 47.9588C100.645 38.5602 93.019 30.9412 83.6123 30.9412C74.2057 30.9412 66.5801 38.5602 66.5801 47.9588C66.5801 57.3574 74.2057 64.9764 83.6123 64.9764Z" fill="white"/>
</g>
<path d="M79.7422 55.694C85.3007 55.694 89.8068 51.1919 89.8068 45.6382C89.8068 40.0844 85.3007 35.5823 79.7422 35.5823C74.1838 35.5823 69.6777 40.0844 69.6777 45.6382C69.6777 51.1919 74.1838 55.694 79.7422 55.694Z" fill="black"/>
<path d="M77.4197 42.5442C77.4197 44.6802 75.6866 46.4118 73.5487 46.4118C71.4108 46.4118 69.6777 44.6802 69.6777 42.5442C69.6777 40.4081 71.4108 38.6765 73.5487 38.6765C75.6866 38.6765 77.4197 40.4081 77.4197 42.5442Z" fill="white"/>
<g filter="url(#filter4_i)">
<path d="M40.2588 64.9764C49.6655 64.9764 57.2911 57.3574 57.2911 47.9588C57.2911 38.5602 49.6655 30.9412 40.2588 30.9412C30.8522 30.9412 23.2266 38.5602 23.2266 47.9588C23.2266 57.3574 30.8522 64.9764 40.2588 64.9764Z" fill="white"/>
</g>
<path d="M37.1622 55.694C42.7207 55.694 47.2267 51.1919 47.2267 45.6382C47.2267 40.0844 42.7207 35.5823 37.1622 35.5823C31.6037 35.5823 27.0977 40.0844 27.0977 45.6382C27.0977 51.1919 31.6037 55.694 37.1622 55.694Z" fill="black"/>
<path d="M88.1001 10.6156L111.423 34.2336C111.606 34.418 111.839 34.546 112.093 34.6024C112.347 34.6588 112.612 34.6413 112.857 34.5519C113.101 34.4625 113.315 34.305 113.473 34.098C113.63 33.8911 113.725 33.6434 113.746 33.3843V2.36074C113.766 2.15037 113.736 1.93828 113.659 1.74134C113.583 1.54439 113.461 1.36801 113.304 1.2262C113.147 1.0844 112.959 0.981096 112.755 0.924469C112.551 0.867842 112.337 0.859458 112.129 0.900003L88.8234 8.31409C88.5761 8.35457 88.3449 8.4628 88.1557 8.62673C87.9664 8.79066 87.8265 9.00383 87.7515 9.24248C87.6765 9.48113 87.6693 9.73588 87.7309 9.97833C87.7925 10.2208 87.9203 10.4414 88.1001 10.6156Z" fill="#F27500"/>
<path d="M95.2046 12.0341L108.325 25.3081C108.426 25.4132 108.555 25.4871 108.697 25.5208C108.838 25.5546 108.987 25.5468 109.124 25.4984C109.262 25.45 109.382 25.363 109.472 25.2479C109.561 25.1328 109.615 24.9944 109.627 24.8495L109.346 6.02129C109.362 5.9007 109.349 5.77804 109.308 5.66353C109.267 5.54902 109.199 5.44594 109.11 5.36289C109.021 5.27983 108.913 5.2192 108.796 5.186C108.679 5.1528 108.555 5.14801 108.436 5.17203L95.5959 10.7262C95.4564 10.7511 95.3265 10.8142 95.2207 10.9084C95.1149 11.0026 95.0375 11.1243 94.9969 11.2599C94.9563 11.3955 94.9542 11.5396 94.9909 11.6763C95.0276 11.813 95.1015 11.9369 95.2046 12.0341Z" fill="black"/>
<path d="M33.6782 10.6584L10.3214 34.2679C10.139 34.4532 9.90687 34.5821 9.65289 34.639C9.39892 34.6959 9.13388 34.6785 8.88957 34.5889C8.64526 34.4992 8.43205 34.3412 8.27551 34.1336C8.11897 33.926 8.02579 33.6778 8.00706 33.4187V2.39506C7.98541 2.18426 8.01372 1.97131 8.08979 1.77348C8.16586 1.57564 8.28752 1.39846 8.44492 1.25624C8.60231 1.11403 8.79105 1.01078 8.99583 0.954849C9.20061 0.898923 9.4157 0.891902 9.62371 0.934322L32.9294 8.34838C33.1805 8.38381 33.4166 8.48898 33.6107 8.6519C33.8048 8.81481 33.9492 9.02892 34.0273 9.26977C34.1054 9.51062 34.114 9.76851 34.0523 10.014C33.9905 10.2596 33.8609 10.4828 33.6782 10.6584Z" fill="#F27500"/>
<path d="M26.5728 12.102L13.4522 25.3506C13.3515 25.4557 13.2225 25.5296 13.0807 25.5633C12.9389 25.5971 12.7904 25.5893 12.6529 25.5409C12.5154 25.4924 12.3949 25.4055 12.3058 25.2903C12.2166 25.1752 12.1627 25.0369 12.1504 24.8919L12.4226 6.06378C12.4067 5.94319 12.4199 5.82053 12.461 5.70602C12.5021 5.59151 12.5699 5.48843 12.659 5.40538C12.748 5.32232 12.8556 5.26166 12.9729 5.22846C13.0901 5.19527 13.2136 5.1905 13.3331 5.21452L26.1814 10.7687C26.3286 10.7864 26.4672 10.8468 26.5803 10.9424C26.6934 11.038 26.7759 11.1646 26.8175 11.3066C26.8592 11.4485 26.8582 11.5995 26.8147 11.7409C26.7712 11.8823 26.6871 12.0079 26.5728 12.102Z" fill="black"/>
<path d="M63.2129 1.60516L74.5722 1.21448C74.6905 1.21195 74.8065 1.24738 74.9032 1.31553C74.9998 1.38369 75.072 1.48101 75.1092 1.59316C75.1463 1.70531 75.1464 1.82639 75.1095 1.93862C75.0726 2.05084 75.0006 2.14826 74.9041 2.21661L73.8915 2.92151L81.9834 2.86206C82.1075 2.85861 82.2292 2.89696 82.3288 2.97091C82.4284 3.04486 82.5002 3.15012 82.5326 3.26974C82.565 3.38936 82.5562 3.51639 82.5075 3.63038C82.4588 3.74437 82.3731 3.83869 82.2642 3.89816L80.622 4.82385" fill="#F27500"/>
<path d="M41.0469 5.18893L52.253 0.348138C52.3658 0.302013 52.4906 0.294328 52.6082 0.326289C52.7257 0.358251 52.8294 0.428074 52.9032 0.524895C52.9769 0.621716 53.0165 0.740111 53.0159 0.861719C53.0152 0.983326 52.9744 1.10134 52.8997 1.1974L52.0148 2.31844" fill="#F27500"/>
<path d="M41.0469 5.18868L52.253 0.347894C52.3658 0.301768 52.4906 0.294083 52.6082 0.326045C52.7257 0.358007 52.8294 0.42783 52.9032 0.524651C52.9769 0.621472 53.0165 0.739867 53.0159 0.861474C53.0152 0.983082 52.9744 1.10109 52.8997 1.19716L52.0148 2.31819" fill="#F27500"/>
<path d="M53.1289 2.15718L64.2925 0.0170164C64.4082 -0.0028433 64.5272 0.0145794 64.6323 0.0667261C64.7375 0.118873 64.8233 0.203046 64.8773 0.307085C64.9313 0.411124 64.9508 0.529611 64.9328 0.645411C64.9149 0.761212 64.8605 0.868316 64.7775 0.951212L63.9266 1.80048" fill="#F27500"/>
<path d="M34.8396 41.7705C34.8396 43.9065 33.1065 45.6381 30.9686 45.6381C28.8307 45.6381 27.0977 43.9065 27.0977 41.7705C27.0977 39.6344 28.8307 37.9028 30.9686 37.9028C33.1065 37.9028 34.8396 39.6344 34.8396 41.7705Z" fill="white"/>
<ellipse cx="40.646" cy="66.1366" rx="13.5484" ry="7.34853" fill="#F27500"/>
<ellipse cx="85.5475" cy="66.1366" rx="16.6452" ry="7.34853" fill="#F27500"/>
</g>
<path d="M94.5254 244.498V238.002C94.5254 235.654 92.6204 233.75 90.2704 233.75C87.9205 233.75 86.0155 235.654 86.0155 238.002V244.498C86.0155 246.846 87.9205 248.749 90.2704 248.749C92.6204 248.749 94.5254 246.846 94.5254 244.498Z" fill="#FDE01B"/>
<path d="M86.8672 244.498V238.002C86.8672 235.654 84.9622 233.75 82.6122 233.75C80.2623 233.75 78.3573 235.654 78.3573 238.002V244.498C78.3573 246.846 80.2623 248.749 82.6122 248.749C84.9622 248.749 86.8672 246.846 86.8672 244.498Z" fill="#FDE01B"/>
<path d="M79.209 244.803V238.307C79.209 235.96 77.304 234.056 74.954 234.056C72.6041 234.056 70.6991 235.96 70.6991 238.307V244.803C70.6991 247.151 72.6041 249.055 74.954 249.055C77.304 249.055 79.209 247.151 79.209 244.803Z" fill="#FDE01B"/>
<path d="M53.7715 243.826V237.33C53.7715 234.982 51.8665 233.078 49.5165 233.078C47.1666 233.078 45.2616 234.982 45.2616 237.33V243.826C45.2616 246.174 47.1666 248.077 49.5165 248.077C51.8665 248.077 53.7715 246.174 53.7715 243.826Z" fill="#FDE01B"/>
<path d="M46.1133 243.826V237.33C46.1133 234.982 44.2083 233.078 41.8583 233.078C39.5084 233.078 37.6034 234.982 37.6034 237.33V243.826C37.6034 246.174 39.5084 248.077 41.8583 248.077C44.2083 248.077 46.1133 246.174 46.1133 243.826Z" fill="#FDE01B"/>
<path d="M38.4629 244.132V237.636C38.4629 235.288 36.5579 233.385 34.2079 233.385C31.858 233.385 29.953 235.288 29.953 237.636V244.132C29.953 246.48 31.858 248.383 34.2079 248.383C36.5579 248.383 38.4629 246.48 38.4629 244.132Z" fill="#FDE01B"/>
<path d="M88.0303 222.771C88.0303 221.187 85.5213 219.904 82.4263 219.904C79.3313 219.904 76.8223 221.187 76.8223 222.771V236.888C76.8223 238.472 79.3313 239.755 82.4263 239.755C85.5213 239.755 88.0303 238.472 88.0303 236.888V222.771Z" fill="#FDE01B"/>
<path d="M46.765 222.771C46.765 221.187 44.37 219.904 41.4157 219.904C38.4614 219.904 36.0664 221.187 36.0664 222.771V236.888C36.0664 238.472 38.4614 239.755 41.4157 239.755C44.37 239.755 46.765 238.472 46.765 236.888V222.771Z" fill="#FDE01B"/>
<defs>
<filter id="filter0_i" x="0" y="-15" width="135" height="278" filterUnits="userSpaceOnUse" color-interpolation-filters="sRGB">
<feFlood flood-opacity="0" result="BackgroundImageFix"/>
<feBlend mode="normal" in="SourceGraphic" in2="BackgroundImageFix" result="shape"/>
<feColorMatrix in="SourceAlpha" type="matrix" values="0 0 0 0 0 0 0 0 0 0 0 0 0 0 0 0 0 0 127 0" result="hardAlpha"/>
<feOffset dx="21" dy="-21"/>
<feGaussianBlur stdDeviation="7.5"/>
<feComposite in2="hardAlpha" operator="arithmetic" k2="-1" k3="1"/>
<feColorMatrix type="matrix" values="0 0 0 0 0 0 0 0 0 0 0 0 0 0 0 0 0 0 0.12 0"/>
<feBlend mode="normal" in2="shape" result="effect1_innerShadow"/>
</filter>
<filter id="filter1_d" x="80.9512" y="101.682" width="42.8534" height="122.243" filterUnits="userSpaceOnUse" color-interpolation-filters="sRGB">
<feFlood flood-opacity="0" result="BackgroundImageFix"/>
<feColorMatrix in="SourceAlpha" type="matrix" values="0 0 0 0 0 0 0 0 0 0 0 0 0 0 0 0 0 0 127 0"/>
<feOffset dy="4"/>
<feGaussianBlur stdDeviation="2"/>
<feColorMatrix type="matrix" values="0 0 0 0 0 0 0 0 0 0 0 0 0 0 0 0 0 0 0.25 0"/>
<feBlend mode="normal" in2="BackgroundImageFix" result="effect1_dropShadow"/>
<feBlend mode="normal" in="SourceGraphic" in2="effect1_dropShadow" result="shape"/>
</filter>
<filter id="filter2_d" x="-4" y="101.682" width="42.8534" height="122.243" filterUnits="userSpaceOnUse" color-interpolation-filters="sRGB">
<feFlood flood-opacity="0" result="BackgroundImageFix"/>
<feColorMatrix in="SourceAlpha" type="matrix" values="0 0 0 0 0 0 0 0 0 0 0 0 0 0 0 0 0 0 127 0"/>
<feOffset dy="4"/>
<feGaussianBlur stdDeviation="2"/>
<feColorMatrix type="matrix" values="0 0 0 0 0 0 0 0 0 0 0 0 0 0 0 0 0 0 0.25 0"/>
<feBlend mode="normal" in2="BackgroundImageFix" result="effect1_dropShadow"/>
<feBlend mode="normal" in="SourceGraphic" in2="effect1_dropShadow" result="shape"/>
</filter>
<filter id="filter3_i" x="66.5801" y="30.9412" width="34.0645" height="38.0353" filterUnits="userSpaceOnUse" color-interpolation-filters="sRGB">
<feFlood flood-opacity="0" result="BackgroundImageFix"/>
<feBlend mode="normal" in="SourceGraphic" in2="BackgroundImageFix" result="shape"/>
<feColorMatrix in="SourceAlpha" type="matrix" values="0 0 0 0 0 0 0 0 0 0 0 0 0 0 0 0 0 0 127 0" result="hardAlpha"/>
<feOffset dy="4"/>
<feGaussianBlur stdDeviation="2"/>
<feComposite in2="hardAlpha" operator="arithmetic" k2="-1" k3="1"/>
<feColorMatrix type="matrix" values="0 0 0 0 0 0 0 0 0 0 0 0 0 0 0 0 0 0 0.25 0"/>
<feBlend mode="normal" in2="shape" result="effect1_innerShadow"/>
</filter>
<filter id="filter4_i" x="23.2266" y="30.9412" width="34.0645" height="38.0353" filterUnits="userSpaceOnUse" color-interpolation-filters="sRGB">
<feFlood flood-opacity="0" result="BackgroundImageFix"/>
<feBlend mode="normal" in="SourceGraphic" in2="BackgroundImageFix" result="shape"/>
<feColorMatrix in="SourceAlpha" type="matrix" values="0 0 0 0 0 0 0 0 0 0 0 0 0 0 0 0 0 0 127 0" result="hardAlpha"/>
<feOffset dy="4"/>
<feGaussianBlur stdDeviation="2"/>
<feComposite in2="hardAlpha" operator="arithmetic" k2="-1" k3="1"/>
<feColorMatrix type="matrix" values="0 0 0 0 0 0 0 0 0 0 0 0 0 0 0 0 0 0 0.25 0"/>
<feBlend mode="normal" in2="shape" result="effect1_innerShadow"/>
</filter>
<clipPath id="clip0">
<rect width="120" height="263" fill="white"/>
</clipPath>
</defs>
</svg>
