<svg width="469" height="448" viewBox="0 0 469 448" fill="none" xmlns="http://www.w3.org/2000/svg">
<path d="M567 405H128C124.134 405 121 408.134 121 412C121 415.866 124.134 419 128 419H567C570.866 419 574 415.866 574 412C574 408.134 570.866 405 567 405Z" fill="#F27500"/>
<path d="M519.085 430L309 412.158L355.907 407.309L537.049 398L562 412.158L519.085 430Z" fill="#F27500"/>
<g clip-path="url(#clip0)" filter="url(#filter0_i)">
<path d="M169.492 386.411C140.68 362.089 121.491 318.772 121.491 269.378C121.491 193.309 167.007 131.646 223.143 131.646C279.278 131.646 324.794 193.309 324.794 269.378C324.794 317.964 306.226 360.66 278.195 385.184" fill="#F27500"/>
<path d="M225.165 201.638C280.029 201.638 324.505 157.209 324.505 102.403C324.505 47.5964 280.029 3.16714 225.165 3.16714C170.302 3.16714 125.826 47.5964 125.826 102.403C125.826 157.209 170.302 201.638 225.165 201.638Z" fill="#F27500"/>
<path d="M265.361 257.969C259.294 263.647 244.733 270.57 235.026 252.836C235.959 253.536 220.792 278.037 206.557 252.836C205.624 252.836 191.623 278.037 178.789 252.836" stroke="#F69131" stroke-width="4" stroke-linecap="round" stroke-linejoin="round"/>
<path d="M249.26 237.901C238.993 237.901 234.559 230.434 233.626 226.701C234.559 227.401 219.391 251.902 205.157 226.701C204.224 230.434 199.79 237.901 189.523 237.901" stroke="#F69131" stroke-width="4" stroke-linecap="round" stroke-linejoin="round"/>
<g filter="url(#filter1_d)">
<path d="M324.36 274.372C323.248 310.689 311.876 343.411 294.161 367.488C275.305 341.795 264.15 305.853 265.349 266.448C266.462 230.117 277.833 197.409 295.548 173.318C314.39 198.982 325.56 234.923 324.36 274.372Z" fill="#F69131"/>
</g>
<path d="M295.115 172.741L309.68 160.082C309.837 159.95 309.947 159.77 309.992 159.57C310.038 159.37 310.016 159.16 309.931 158.974C309.846 158.787 309.701 158.633 309.52 158.536C309.339 158.439 309.131 158.404 308.928 158.436L306.848 158.74L316.962 149.444C317.115 149.303 317.216 149.116 317.251 148.912C317.285 148.708 317.251 148.498 317.154 148.315C317.057 148.132 316.901 147.986 316.713 147.901C316.524 147.815 316.312 147.794 316.11 147.842L312.989 148.592" fill="#F27500"/>
<path d="M152.702 170.489L138.527 157.325C138.382 157.186 138.285 157.004 138.251 156.806C138.217 156.608 138.248 156.404 138.338 156.225C138.429 156.045 138.575 155.9 138.754 155.809C138.934 155.719 139.138 155.689 139.336 155.723L141.402 156.098L131.606 146.456C131.457 146.31 131.361 146.119 131.333 145.913C131.305 145.707 131.346 145.497 131.451 145.317C131.555 145.137 131.716 144.996 131.909 144.918C132.102 144.839 132.315 144.827 132.516 144.883L135.608 145.72" fill="#F27500"/>
<path d="M227.636 104.784L237.072 117.775C237.268 117.976 237.423 118.215 237.526 118.476C237.629 118.738 237.679 119.018 237.672 119.299C237.665 119.58 237.602 119.857 237.487 120.113C237.371 120.37 237.206 120.601 236.999 120.792L227.015 137.594C226.602 137.984 226.051 138.196 225.483 138.182C224.914 138.169 224.374 137.931 223.981 137.521L214.545 120.2C214.145 119.797 213.92 119.253 213.92 118.685C213.92 118.117 214.145 117.572 214.545 117.169L224.544 104.799C224.741 104.586 224.979 104.415 225.244 104.298C225.51 104.181 225.797 104.119 226.087 104.118C226.377 104.117 226.665 104.175 226.931 104.29C227.198 104.405 227.438 104.573 227.636 104.784Z" fill="#FDE01B"/>
<g filter="url(#filter2_i)">
<path d="M262.988 110.932C278.962 110.932 291.912 97.9826 291.912 82.0086C291.912 66.0346 278.962 53.0851 262.988 53.0851C247.014 53.0851 234.065 66.0346 234.065 82.0086C234.065 97.9826 247.014 110.932 262.988 110.932Z" fill="white"/>
</g>
<path d="M256.415 95.1556C265.854 95.1556 273.506 87.5037 273.506 78.0645C273.506 68.6253 265.854 60.9733 256.415 60.9733C246.975 60.9733 239.323 68.6253 239.323 78.0645C239.323 87.5037 246.975 95.1556 256.415 95.1556Z" fill="black"/>
<path d="M252.471 72.8056C252.471 76.4361 249.527 79.3792 245.897 79.3792C242.267 79.3792 239.323 76.4361 239.323 72.8056C239.323 69.1752 242.267 66.2321 245.897 66.2321C249.527 66.2321 252.471 69.1752 252.471 72.8056Z" fill="white"/>
<g filter="url(#filter3_i)">
<path d="M189.365 110.932C205.339 110.932 218.288 97.9826 218.288 82.0086C218.288 66.0346 205.339 53.0851 189.365 53.0851C173.391 53.0851 160.441 66.0346 160.441 82.0086C160.441 97.9826 173.391 110.932 189.365 110.932Z" fill="white"/>
</g>
<path d="M184.106 95.1556C193.545 95.1556 201.197 87.5037 201.197 78.0645C201.197 68.6253 193.545 60.9733 184.106 60.9733C174.667 60.9733 167.015 68.6253 167.015 78.0645C167.015 87.5037 174.667 95.1556 184.106 95.1556Z" fill="black"/>
<path d="M270.609 18.5395L310.214 58.6812C310.526 58.9946 310.921 59.2121 311.353 59.308C311.785 59.4038 312.235 59.374 312.65 59.2221C313.065 59.0702 313.428 58.8025 313.695 58.4508C313.963 58.099 314.124 57.6781 314.159 57.2378V4.50942C314.193 4.15187 314.143 3.7914 314.012 3.45667C313.882 3.12194 313.675 2.82215 313.409 2.58113C313.142 2.34012 312.823 2.16455 312.477 2.0683C312.131 1.97206 311.767 1.95781 311.414 2.02672L271.837 14.6278C271.417 14.6967 271.024 14.8806 270.703 15.1592C270.382 15.4378 270.144 15.8001 270.017 16.2058C269.889 16.6114 269.877 17.0443 269.982 17.4564C270.086 17.8685 270.303 18.2435 270.609 18.5395Z" fill="#F27500"/>
<path d="M282.674 20.9502L304.955 43.5109C305.126 43.6896 305.345 43.8151 305.586 43.8725C305.827 43.9299 306.079 43.9167 306.312 43.8344C306.546 43.7521 306.75 43.6042 306.902 43.4086C307.053 43.213 307.145 42.9778 307.166 42.7315L306.689 10.7307C306.716 10.5257 306.694 10.3173 306.624 10.1226C306.554 9.92801 306.439 9.75283 306.287 9.61166C306.136 9.4705 305.954 9.36744 305.754 9.31102C305.555 9.2546 305.346 9.24645 305.143 9.28728L283.339 18.7273C283.102 18.7696 282.881 18.8768 282.701 19.0369C282.522 19.1971 282.39 19.4039 282.321 19.6343C282.252 19.8648 282.249 20.1098 282.311 20.3421C282.373 20.5744 282.499 20.785 282.674 20.9502Z" fill="black"/>
<path d="M178.191 18.6118L138.527 58.7391C138.217 59.054 137.823 59.273 137.392 59.3698C136.96 59.4665 136.51 59.4369 136.095 59.2846C135.681 59.1322 135.319 58.8635 135.053 58.5107C134.787 58.158 134.629 57.7361 134.597 57.2956V4.56731C134.56 4.20903 134.608 3.84711 134.737 3.51086C134.867 3.17461 135.073 2.87347 135.34 2.63176C135.608 2.39005 135.928 2.21456 136.276 2.1195C136.624 2.02445 136.989 2.01252 137.342 2.08461L176.919 14.6857C177.345 14.7459 177.746 14.9247 178.076 15.2016C178.406 15.4785 178.651 15.8424 178.783 16.2517C178.916 16.6611 178.931 17.0994 178.826 17.5167C178.721 17.934 178.501 18.3135 178.191 18.6118Z" fill="#F27500"/>
<path d="M166.125 21.0657L143.844 43.5831C143.673 43.7618 143.454 43.8874 143.214 43.9448C142.973 44.0021 142.721 43.9889 142.487 43.9066C142.254 43.8243 142.049 43.6764 141.898 43.4808C141.746 43.2852 141.655 43.05 141.634 42.8037L142.096 10.8029C142.069 10.598 142.091 10.3895 142.161 10.1949C142.231 10.0002 142.346 9.82507 142.497 9.6839C142.649 9.54273 142.831 9.43964 143.03 9.38322C143.23 9.3268 143.439 9.31869 143.642 9.35952L165.461 18.7995C165.711 18.8296 165.946 18.9323 166.138 19.0948C166.33 19.2573 166.47 19.4725 166.541 19.7137C166.612 19.9549 166.61 20.2116 166.536 20.4519C166.462 20.6922 166.319 20.9057 166.125 21.0657Z" fill="black"/>
<path d="M228.344 3.22485L247.634 2.56084C247.835 2.55654 248.032 2.61674 248.196 2.73259C248.36 2.84843 248.483 3.01383 248.546 3.20445C248.609 3.39507 248.609 3.60085 248.547 3.79159C248.484 3.98233 248.362 4.14791 248.198 4.26407L246.478 5.46214L260.22 5.36109C260.43 5.35524 260.637 5.42041 260.806 5.5461C260.975 5.67178 261.097 5.85068 261.152 6.05399C261.207 6.2573 261.192 6.4732 261.11 6.66694C261.027 6.86069 260.881 7.02099 260.696 7.12207L257.908 8.69539" fill="#F27500"/>
<path d="M190.704 9.31611L209.734 1.08861C209.925 1.01021 210.137 0.997151 210.337 1.05147C210.536 1.1058 210.712 1.22447 210.838 1.38903C210.963 1.55359 211.03 1.75481 211.029 1.9615C211.028 2.16819 210.959 2.36876 210.832 2.53203L209.329 4.43737" fill="#F27500"/>
<path d="M190.704 9.31569L209.734 1.0882C209.925 1.0098 210.137 0.996739 210.337 1.05106C210.536 1.10539 210.712 1.22406 210.838 1.38862C210.963 1.55317 211.03 1.7544 211.029 1.96109C211.028 2.16777 210.959 2.36835 210.832 2.53162L209.329 4.43695" fill="#F27500"/>
<path d="M211.222 4.16316L230.179 0.525699C230.376 0.491945 230.578 0.521557 230.756 0.610187C230.935 0.698816 231.081 0.841879 231.172 1.01871C231.264 1.19553 231.297 1.39691 231.267 1.59373C231.236 1.79055 231.144 1.97258 231.003 2.11348L229.558 3.5569" fill="#F27500"/>
<path d="M180.162 71.4909C180.162 75.1214 177.219 78.0645 173.588 78.0645C169.958 78.0645 167.015 75.1214 167.015 71.4909C167.015 67.8605 169.958 64.9174 173.588 64.9174C177.219 64.9174 180.162 67.8605 180.162 71.4909Z" fill="white"/>
<ellipse cx="190.022" cy="112.904" rx="23.0074" ry="12.4897" fill="#F27500"/>
<ellipse cx="266.275" cy="112.904" rx="28.2662" ry="12.4897" fill="#F27500"/>
</g>
<path d="M281.521 416.05V405.009C281.521 401.019 278.286 397.784 274.295 397.784C270.304 397.784 267.069 401.019 267.069 405.009V416.05C267.069 420.04 270.304 423.275 274.295 423.275C278.286 423.275 281.521 420.04 281.521 416.05Z" fill="#FDE01B"/>
<path d="M268.514 416.05V405.009C268.514 401.019 265.279 397.784 261.289 397.784C257.298 397.784 254.063 401.019 254.063 405.009V416.05C254.063 420.04 257.298 423.275 261.289 423.275C265.279 423.275 268.514 420.04 268.514 416.05Z" fill="#FDE01B"/>
<path d="M255.508 416.57V405.529C255.508 401.539 252.273 398.304 248.283 398.304C244.292 398.304 241.057 401.539 241.057 405.529V416.57C241.057 420.56 244.292 423.795 248.283 423.795C252.273 423.795 255.508 420.56 255.508 416.57Z" fill="#FDE01B"/>
<path d="M212.314 414.908V403.867C212.314 399.877 209.079 396.642 205.088 396.642C201.098 396.642 197.863 399.877 197.863 403.867V414.908C197.863 418.899 201.098 422.134 205.088 422.134C209.079 422.134 212.314 418.899 212.314 414.908Z" fill="#FDE01B"/>
<path d="M199.308 414.908V403.867C199.308 399.877 196.073 396.642 192.082 396.642C188.092 396.642 184.857 399.877 184.857 403.867V414.908C184.857 418.899 188.092 422.134 192.082 422.134C196.073 422.134 199.308 418.899 199.308 414.908Z" fill="#FDE01B"/>
<path d="M186.316 415.428V404.387C186.316 400.397 183.081 397.162 179.091 397.162C175.1 397.162 171.865 400.397 171.865 404.387V415.428C171.865 419.419 175.1 422.654 179.091 422.654C183.081 422.654 186.316 419.419 186.316 415.428Z" fill="#FDE01B"/>
<path d="M270.491 379.123C270.491 376.431 266.23 374.249 260.974 374.249C255.719 374.249 251.458 376.431 251.458 379.123V403.116C251.458 405.808 255.719 407.99 260.974 407.99C266.23 407.99 270.491 405.808 270.491 403.116V379.123Z" fill="#FDE01B"/>
<path d="M200.415 379.123C200.415 376.431 196.348 374.249 191.331 374.249C186.314 374.249 182.247 376.431 182.247 379.123V403.116C182.247 405.808 186.314 407.99 191.331 407.99C196.348 407.99 200.415 405.808 200.415 403.116V379.123Z" fill="#FDE01B"/>
<g filter="url(#filter4_d)">
<path d="M74.41 162.672C99.0252 189.395 129.045 206.672 158.2 213.283C155.618 181.511 140.514 147.036 113.775 118.01C89.1597 91.287 59.1404 74.0104 29.9848 67.3994C32.5573 99.1603 47.6617 133.635 74.41 162.672Z" fill="#F69131"/>
</g>
<path d="M224.663 133.597C226.263 136.797 226.655 137.951 226.989 137.617C225.789 138.817 224.448 138.108 223.948 137.608C221.114 132.608 215.219 122.202 214.419 120.602C213.619 119.002 213.83 118.097 213.997 117.93C216.389 113.931 223.338 105.796 224.997 104.43C225.869 103.712 226.608 104.183 226.995 104.429L226.997 104.43L227.633 104.899L216.997 118.93C218.997 122.597 223.063 130.397 224.663 133.597Z" fill="#F2D405"/>
<defs>
<filter id="filter0_i" x="121" y="-14.5032" width="218.779" height="462" filterUnits="userSpaceOnUse" color-interpolation-filters="sRGB">
<feFlood flood-opacity="0" result="BackgroundImageFix"/>
<feBlend mode="normal" in="SourceGraphic" in2="BackgroundImageFix" result="shape"/>
<feColorMatrix in="SourceAlpha" type="matrix" values="0 0 0 0 0 0 0 0 0 0 0 0 0 0 0 0 0 0 127 0" result="hardAlpha"/>
<feOffset dx="21" dy="-21"/>
<feGaussianBlur stdDeviation="7.5"/>
<feComposite in2="hardAlpha" operator="arithmetic" k2="-1" k3="1"/>
<feColorMatrix type="matrix" values="0 0 0 0 0 0 0 0 0 0 0 0 0 0 0 0 0 0 0.12 0"/>
<feBlend mode="normal" in2="shape" result="effect1_innerShadow"/>
</filter>
<filter id="filter1_d" x="261.261" y="173.318" width="67.1868" height="202.17" filterUnits="userSpaceOnUse" color-interpolation-filters="sRGB">
<feFlood flood-opacity="0" result="BackgroundImageFix"/>
<feColorMatrix in="SourceAlpha" type="matrix" values="0 0 0 0 0 0 0 0 0 0 0 0 0 0 0 0 0 0 127 0"/>
<feOffset dy="4"/>
<feGaussianBlur stdDeviation="2"/>
<feColorMatrix type="matrix" values="0 0 0 0 0 0 0 0 0 0 0 0 0 0 0 0 0 0 0.25 0"/>
<feBlend mode="normal" in2="BackgroundImageFix" result="effect1_dropShadow"/>
<feBlend mode="normal" in="SourceGraphic" in2="effect1_dropShadow" result="shape"/>
</filter>
<filter id="filter2_i" x="234.065" y="53.0851" width="57.847" height="61.8471" filterUnits="userSpaceOnUse" color-interpolation-filters="sRGB">
<feFlood flood-opacity="0" result="BackgroundImageFix"/>
<feBlend mode="normal" in="SourceGraphic" in2="BackgroundImageFix" result="shape"/>
<feColorMatrix in="SourceAlpha" type="matrix" values="0 0 0 0 0 0 0 0 0 0 0 0 0 0 0 0 0 0 127 0" result="hardAlpha"/>
<feOffset dy="4"/>
<feGaussianBlur stdDeviation="2"/>
<feComposite in2="hardAlpha" operator="arithmetic" k2="-1" k3="1"/>
<feColorMatrix type="matrix" values="0 0 0 0 0 0 0 0 0 0 0 0 0 0 0 0 0 0 0.25 0"/>
<feBlend mode="normal" in2="shape" result="effect1_innerShadow"/>
</filter>
<filter id="filter3_i" x="160.441" y="53.0851" width="57.8471" height="61.8471" filterUnits="userSpaceOnUse" color-interpolation-filters="sRGB">
<feFlood flood-opacity="0" result="BackgroundImageFix"/>
<feBlend mode="normal" in="SourceGraphic" in2="BackgroundImageFix" result="shape"/>
<feColorMatrix in="SourceAlpha" type="matrix" values="0 0 0 0 0 0 0 0 0 0 0 0 0 0 0 0 0 0 127 0" result="hardAlpha"/>
<feOffset dy="4"/>
<feGaussianBlur stdDeviation="2"/>
<feComposite in2="hardAlpha" operator="arithmetic" k2="-1" k3="1"/>
<feColorMatrix type="matrix" values="0 0 0 0 0 0 0 0 0 0 0 0 0 0 0 0 0 0 0.25 0"/>
<feBlend mode="normal" in2="shape" result="effect1_innerShadow"/>
</filter>
<filter id="filter4_d" x="-0.00012207" y="40.4968" width="182.185" height="191.689" filterUnits="userSpaceOnUse" color-interpolation-filters="sRGB">
<feFlood flood-opacity="0" result="BackgroundImageFix"/>
<feColorMatrix in="SourceAlpha" type="matrix" values="0 0 0 0 0 0 0 0 0 0 0 0 0 0 0 0 0 0 127 0"/>
<feOffset dx="-3" dy="-4"/>
<feGaussianBlur stdDeviation="2"/>
<feColorMatrix type="matrix" values="0 0 0 0 0 0 0 0 0 0 0 0 0 0 0 0 0 0 0.15 0"/>
<feBlend mode="normal" in2="BackgroundImageFix" result="effect1_dropShadow"/>
<feBlend mode="normal" in="SourceGraphic" in2="effect1_dropShadow" result="shape"/>
</filter>
<clipPath id="clip0">
<rect width="203.779" height="447" fill="white" transform="translate(121 0.496826)"/>
</clipPath>
</defs>
</svg>
