<svg width="220" height="351" viewBox="0 0 220 351" fill="none" xmlns="http://www.w3.org/2000/svg">
<g clip-path="url(#clip0)" filter="url(#filter0_i)">
<path d="M112.553 309.183C92.617 292.533 79.3398 262.88 79.3398 229.066C79.3398 176.993 110.833 134.78 149.675 134.78C188.517 134.78 220.01 176.993 220.01 229.066C220.01 262.326 207.163 291.555 187.767 308.343" fill="#F27500"/>
<path d="M151.074 182.694C189.036 182.694 219.81 152.279 219.81 114.761C219.81 77.2425 189.036 46.8279 151.074 46.8279C113.113 46.8279 82.3389 77.2425 82.3389 114.761C82.3389 152.279 113.113 182.694 151.074 182.694Z" fill="#F27500"/>
<path d="M178.887 221.256C174.689 225.144 164.614 229.882 157.897 217.742C158.543 218.221 148.048 234.994 138.199 217.742C137.553 217.742 127.866 234.994 118.986 217.742" stroke="#F69D49" stroke-width="2" stroke-linecap="round" stroke-linejoin="round"/>
<path d="M167.746 207.519C160.642 207.519 157.574 202.407 156.928 199.851C157.574 200.33 147.079 217.103 137.23 199.851C136.585 202.407 133.517 207.519 126.413 207.519" stroke="#F69D49" stroke-width="2" stroke-linecap="round" stroke-linejoin="round"/>
<g filter="url(#filter1_d)">
<path d="M219.71 232.485C218.941 257.346 211.072 279.747 198.815 296.229C185.768 278.64 178.049 254.036 178.879 227.06C179.649 202.19 187.517 179.799 199.775 163.307C212.812 180.876 220.54 205.48 219.71 232.485Z" fill="#F69D49"/>
</g>
<path d="M199.475 162.912L209.552 154.246C209.661 154.156 209.737 154.033 209.769 153.896C209.8 153.759 209.785 153.615 209.726 153.487C209.667 153.36 209.567 153.254 209.442 153.188C209.317 153.122 209.173 153.098 209.033 153.12L207.593 153.327L214.591 146.964C214.697 146.867 214.767 146.739 214.791 146.6C214.815 146.46 214.791 146.316 214.724 146.191C214.657 146.065 214.549 145.966 214.419 145.907C214.288 145.849 214.141 145.834 214.002 145.867L211.842 146.381" fill="#F27500"/>
<path d="M100.935 161.37L91.1272 152.359C91.0267 152.264 90.9597 152.139 90.9362 152.004C90.9127 151.868 90.9338 151.729 90.9965 151.606C91.0592 151.483 91.1601 151.383 91.2845 151.321C91.4088 151.259 91.5499 151.239 91.6871 151.262L93.1168 151.519L86.3382 144.918C86.2354 144.819 86.169 144.688 86.1495 144.547C86.13 144.405 86.1586 144.262 86.2308 144.138C86.3029 144.015 86.4145 143.919 86.548 143.865C86.6815 143.811 86.8293 143.803 86.9681 143.841L89.1076 144.414" fill="#F27500"/>
<path d="M152.785 116.392L159.313 125.285C159.45 125.422 159.556 125.585 159.628 125.765C159.699 125.944 159.734 126.135 159.729 126.328C159.724 126.52 159.681 126.71 159.601 126.885C159.521 127.061 159.406 127.219 159.263 127.35L152.355 138.851C152.069 139.119 151.688 139.264 151.295 139.255C150.901 139.245 150.528 139.083 150.255 138.802L143.727 126.945C143.449 126.669 143.294 126.296 143.294 125.907C143.294 125.518 143.449 125.145 143.727 124.87L150.645 116.401C150.781 116.255 150.946 116.138 151.13 116.058C151.313 115.978 151.512 115.936 151.713 115.935C151.914 115.934 152.112 115.974 152.297 116.053C152.481 116.131 152.647 116.247 152.785 116.392Z" fill="#FDE01B"/>
<g filter="url(#filter2_i)">
<path d="M177.245 120.6C188.298 120.6 197.258 111.735 197.258 100.8C197.258 89.8648 188.298 81 177.245 81C166.193 81 157.232 89.8648 157.232 100.8C157.232 111.735 166.193 120.6 177.245 120.6Z" fill="white"/>
</g>
<path d="M172.697 109.8C179.228 109.8 184.523 104.562 184.523 98.0999C184.523 91.6382 179.228 86.3999 172.697 86.3999C166.166 86.3999 160.871 91.6382 160.871 98.0999C160.871 104.562 166.166 109.8 172.697 109.8Z" fill="black"/>
<path d="M169.968 94.5C169.968 96.9853 167.931 99 165.419 99C162.907 99 160.871 96.9853 160.871 94.5C160.871 92.0147 162.907 90 165.419 90C167.931 90 169.968 92.0147 169.968 94.5Z" fill="white"/>
<g filter="url(#filter3_i)">
<path d="M126.303 120.6C137.356 120.6 146.316 111.735 146.316 100.8C146.316 89.8648 137.356 81 126.303 81C115.25 81 106.29 89.8648 106.29 100.8C106.29 111.735 115.25 120.6 126.303 120.6Z" fill="white"/>
</g>
<path d="M122.665 109.8C129.196 109.8 134.49 104.562 134.49 98.0999C134.49 91.6382 129.196 86.3999 122.665 86.3999C116.133 86.3999 110.839 91.6382 110.839 98.0999C110.839 104.562 116.133 109.8 122.665 109.8Z" fill="black"/>
<path d="M182.518 57.3513L209.922 84.8308C210.138 85.0453 210.411 85.1942 210.71 85.2599C211.008 85.3255 211.32 85.3051 211.607 85.2011C211.894 85.0971 212.145 84.9138 212.33 84.673C212.516 84.4323 212.627 84.1441 212.651 83.8427V47.7468C212.675 47.502 212.64 47.2552 212.55 47.0261C212.46 46.7969 212.317 46.5917 212.132 46.4267C211.948 46.2617 211.727 46.1415 211.487 46.0757C211.248 46.0098 210.996 46 210.752 46.0472L183.368 54.6735C183.077 54.7206 182.805 54.8465 182.583 55.0372C182.361 55.228 182.196 55.476 182.108 55.7536C182.02 56.0313 182.012 56.3277 182.084 56.6098C182.156 56.8919 182.306 57.1486 182.518 57.3513V57.3513Z" fill="#F27500"/>
<path d="M190.867 59.0015L206.283 74.4457C206.402 74.5681 206.553 74.654 206.72 74.6933C206.886 74.7326 207.061 74.7235 207.223 74.6672C207.384 74.6109 207.526 74.5097 207.63 74.3757C207.735 74.2418 207.799 74.0809 207.813 73.9122L207.483 52.0056C207.502 51.8653 207.486 51.7226 207.438 51.5894C207.39 51.4561 207.31 51.3362 207.205 51.2396C207.101 51.1429 206.974 51.0724 206.837 51.0338C206.699 50.9951 206.554 50.9896 206.413 51.0175L191.326 57.4798C191.162 57.5088 191.01 57.5821 190.886 57.6918C190.761 57.8014 190.67 57.943 190.623 58.1007C190.575 58.2585 190.572 58.4262 190.616 58.5852C190.659 58.7443 190.746 58.8884 190.867 59.0015Z" fill="black"/>
<path d="M118.571 57.4009L91.1271 84.8706C90.9127 85.0862 90.64 85.2361 90.3416 85.3023C90.0431 85.3686 89.7317 85.3483 89.4447 85.244C89.1576 85.1397 88.9071 84.9558 88.7231 84.7143C88.5392 84.4728 88.4297 84.1839 88.4077 83.8825V47.7865C88.3823 47.5413 88.4155 47.2935 88.5049 47.0633C88.5943 46.8332 88.7372 46.627 88.9222 46.4615C89.1071 46.2961 89.3289 46.1759 89.5695 46.1109C89.8101 46.0458 90.0629 46.0376 90.3073 46.087L117.691 54.7132C117.987 54.7544 118.264 54.8768 118.492 55.0664C118.72 55.2559 118.89 55.505 118.981 55.7853C119.073 56.0655 119.083 56.3655 119.011 56.6512C118.938 56.9369 118.786 57.1967 118.571 57.4009V57.4009Z" fill="#F27500"/>
<path d="M110.224 59.0807L94.807 74.4953C94.6886 74.6176 94.537 74.7036 94.3704 74.7429C94.2038 74.7822 94.0293 74.7731 93.8678 74.7167C93.7063 74.6604 93.5647 74.5592 93.4599 74.4253C93.3552 74.2913 93.2918 74.1304 93.2773 73.9617L93.5972 52.0552C93.5785 51.9149 93.594 51.7722 93.6423 51.6389C93.6906 51.5057 93.7703 51.3858 93.8749 51.2891C93.9796 51.1925 94.106 51.1219 94.2438 51.0833C94.3815 51.0447 94.5266 51.0391 94.667 51.0671L109.764 57.5293C109.937 57.5499 110.1 57.6202 110.232 57.7315C110.365 57.8427 110.462 57.99 110.511 58.1552C110.56 58.3203 110.559 58.496 110.508 58.6605C110.457 58.8251 110.358 58.9711 110.224 59.0807V59.0807Z" fill="black"/>
<path d="M153.274 46.8675L166.622 46.413C166.761 46.41 166.897 46.4513 167.011 46.5306C167.124 46.6099 167.209 46.7231 167.253 46.8536C167.296 46.9841 167.296 47.1249 167.253 47.2555C167.21 47.3861 167.125 47.4994 167.012 47.579L165.822 48.3991L175.33 48.3299C175.476 48.3259 175.619 48.3706 175.736 48.4566C175.853 48.5426 175.937 48.6651 175.975 48.8043C176.013 48.9435 176.003 49.0913 175.946 49.2239C175.888 49.3565 175.788 49.4662 175.66 49.5354L173.73 50.6125" fill="#F27500"/>
<path d="M127.229 51.0374L140.397 45.4052C140.529 45.3515 140.676 45.3426 140.814 45.3798C140.952 45.4169 141.074 45.4982 141.161 45.6108C141.247 45.7235 141.294 45.8612 141.293 46.0027C141.292 46.1442 141.244 46.2815 141.157 46.3933L140.117 47.6976" fill="#F27500"/>
<path d="M127.229 51.0372L140.397 45.4049C140.529 45.3513 140.676 45.3423 140.814 45.3795C140.952 45.4167 141.074 45.4979 141.161 45.6106C141.247 45.7232 141.294 45.861 141.293 46.0025C141.292 46.144 141.244 46.2813 141.157 46.393L140.117 47.6974" fill="#F27500"/>
<path d="M141.427 47.5099L154.544 45.0198C154.68 44.9967 154.82 45.017 154.943 45.0776C155.067 45.1383 155.168 45.2362 155.231 45.3573C155.295 45.4783 155.317 45.6162 155.296 45.7509C155.275 45.8857 155.211 46.0103 155.114 46.1067L154.114 47.0948" fill="#F27500"/>
<path d="M119.936 93.6001C119.936 96.0854 117.899 98.1001 115.387 98.1001C112.875 98.1001 110.839 96.0854 110.839 93.6001C110.839 91.1148 112.875 89.1001 115.387 89.1001C117.899 89.1001 119.936 91.1148 119.936 93.6001Z" fill="white"/>
<ellipse cx="126.758" cy="121.95" rx="15.9194" ry="8.55" fill="#F27500"/>
<ellipse cx="179.519" cy="121.95" rx="19.5581" ry="8.55" fill="#F27500"/>
</g>
<path d="M190.068 329.473V321.915C190.068 319.183 187.83 316.968 185.069 316.968C182.308 316.968 180.069 319.183 180.069 321.915V329.473C180.069 332.204 182.308 334.419 185.069 334.419C187.83 334.419 190.068 332.204 190.068 329.473Z" fill="#FDE01B"/>
<path d="M181.069 329.473V321.915C181.069 319.183 178.831 316.968 176.07 316.968C173.309 316.968 171.07 319.183 171.07 321.915V329.473C171.07 332.204 173.309 334.419 176.07 334.419C178.831 334.419 181.069 332.204 181.069 329.473Z" fill="#FDE01B"/>
<path d="M172.07 329.828V322.27C172.07 319.539 169.832 317.324 167.071 317.324C164.31 317.324 162.071 319.539 162.071 322.27V329.828C162.071 332.56 164.31 334.775 167.071 334.775C169.832 334.775 172.07 332.56 172.07 329.828Z" fill="#FDE01B"/>
<path d="M142.183 328.691V321.133C142.183 318.401 139.944 316.186 137.183 316.186C134.422 316.186 132.184 318.401 132.184 321.133V328.691C132.184 331.423 134.422 333.637 137.183 333.637C139.944 333.637 142.183 331.423 142.183 328.691Z" fill="#FDE01B"/>
<path d="M133.184 328.691V321.133C133.184 318.401 130.945 316.186 128.184 316.186C125.423 316.186 123.184 318.401 123.184 321.133V328.691C123.184 331.423 125.423 333.637 128.184 333.637C130.945 333.637 133.184 331.423 133.184 328.691Z" fill="#FDE01B"/>
<path d="M124.194 329.047V321.489C124.194 318.757 121.956 316.542 119.195 316.542C116.434 316.542 114.195 318.757 114.195 321.489V329.047C114.195 331.779 116.434 333.993 119.195 333.993C121.956 333.993 124.194 331.779 124.194 329.047Z" fill="#FDE01B"/>
<path d="M182.437 304.194C182.437 302.351 179.489 300.857 175.852 300.857C172.216 300.857 169.268 302.351 169.268 304.194V320.619C169.268 322.461 172.216 323.955 175.852 323.955C179.489 323.955 182.437 322.461 182.437 320.619V304.194Z" fill="#FDE01B"/>
<path d="M133.95 304.194C133.95 302.351 131.136 300.857 127.664 300.857C124.193 300.857 121.379 302.351 121.379 304.194V320.619C121.379 322.461 124.193 323.955 127.664 323.955C131.136 323.955 133.95 322.461 133.95 320.619V304.194Z" fill="#FDE01B"/>
<g filter="url(#filter4_d)">
<path d="M46.7632 156.019C63.7951 174.313 84.5662 186.14 104.74 190.665C102.953 168.916 92.5019 145.316 74.0008 125.445C56.9689 107.152 36.1978 95.3246 16.0244 90.7989C17.8043 112.541 28.2555 136.141 46.7632 156.019Z" fill="#F69D49"/>
</g>
<path d="M150.728 136.115C151.835 138.306 152.106 139.096 152.336 138.868C151.506 139.689 150.578 139.203 150.232 138.861C148.272 135.438 144.193 128.315 143.639 127.22C143.086 126.125 143.232 125.505 143.347 125.391C145.002 122.653 149.811 117.084 150.958 116.149C151.562 115.657 152.073 115.979 152.341 116.148L152.342 116.149L152.783 116.47L145.423 126.075C146.807 128.585 149.62 133.925 150.728 136.115Z" fill="#DCC31E"/>
<path d="M79.4669 83.6772C79.4669 83.6772 95.2274 81.4581 95.3723 81.2915C133.924 54.5089 173.547 54.2356 188.525 56.3016C185.346 52.1898 188.285 46.2912 190.042 41.4003C194.848 28.0213 192.948 25.1504 193.226 24.9867C192.451 19.1361 191.448 16.0298 190.563 14.3858C190.279 13.8553 189.852 13.415 189.33 13.1152C188.808 12.8153 188.213 12.6677 187.612 12.6893C185.644 12.7641 179.664 12.7592 161.839 12.2388C132.954 11.3889 122.979 17.4421 122.967 17.2752C122.178 15.4904 116.151 8.35987 116.151 8.35987C116.151 8.35987 112.94 5.56317 108.97 6.34149C105 7.1198 107.676 9.44481 107.676 9.44481C107.676 9.44481 110.526 14.2794 112.926 17.4678C115.327 20.6562 114.441 22.3949 114.62 22.5503C84.5172 45.2622 67.7492 76.6056 67.2322 78.822C66.7151 81.0384 66.5897 84.0663 70.2721 83.9789C73.9546 83.8914 79.4669 83.6772 79.4669 83.6772Z" fill="#ED1D54"/>
<path d="M190.031 13.7253C189.259 14.3941 178.835 17.6032 174.788 19.8312C170.74 22.0593 78.4227 63.6699 67.5599 81.5149" stroke="#F35B84" stroke-width="1.5" stroke-miterlimit="10"/>
<path d="M99.5966 188.553C99.5966 188.553 94.3997 186.708 97.8643 181.491C97.8643 181.491 99.6608 178.755 96.0679 177.419C92.4749 176.083 90.9992 162.722 99.9174 160.813H100.046C100.046 160.813 146.112 170.738 201.354 159.859C201.354 159.859 206.551 161.704 203.086 166.921C203.086 166.921 201.29 169.657 204.883 170.993C208.476 172.329 209.951 185.69 201.033 187.599C145.792 198.479 99.6608 188.617 99.5966 188.553Z" fill="black"/>
<path d="M115.573 183.464C114.61 183.337 91.9618 200.706 96.453 231.055C97.0946 231.691 126.416 237.926 126.416 237.926C126.416 237.926 127.763 202.869 145.728 186.136C165.81 167.494 115.573 183.464 115.573 183.464Z" fill="black"/>
<path d="M126.416 237.989C126.416 237.989 126.159 242.761 123.785 241.997C121.347 241.234 122.502 239.452 116.792 239.516C111.146 239.643 108.708 237.417 108.708 237.417C108.708 237.417 107.296 235.571 100.495 235.444C97.223 235.381 96.3247 233.981 96.3889 231.054C96.5172 227.173 126.416 237.989 126.416 237.989Z" fill="black"/>
<path d="M108.258 190.016C108.258 190.016 115.187 192.689 140.338 192.434C140.209 192.625 137.579 196.633 136.552 198.669C136.424 198.924 112.364 198.288 105.499 193.643C105.242 193.897 108.258 190.016 108.258 190.016Z" fill="white"/>
<path d="M135.013 201.66C135.013 201.66 112.686 201.406 103.703 196.189C103.575 196.443 101.714 199.179 101.073 200.897C101.008 201.024 109.67 205.796 133.153 206.051C133.153 206.114 134.372 203.06 135.013 201.66Z" fill="white"/>
<path d="M132.125 208.85C132.125 208.85 108.9 208.722 99.9172 203.441C99.7889 203.696 98.4415 206.941 98.1849 208.022C98.1207 208.15 107.296 212.858 130.778 213.112C130.714 213.112 131.42 210.822 132.125 208.85Z" fill="white"/>
<path d="M129.943 215.976C129.943 215.976 106.332 216.04 97.3495 210.823C97.2211 211.077 96.5795 214.068 96.3871 215.34C96.3229 215.467 105.369 220.048 128.852 220.303C128.916 220.303 129.429 218.14 129.943 215.976Z" fill="white"/>
<path d="M128.277 223.42C128.277 223.42 105.051 223.929 96.0688 218.712C95.9405 218.966 95.8763 221.893 95.8763 223.229C95.8122 223.356 104.089 227.492 127.571 227.746C127.507 227.746 127.828 225.71 128.277 223.42Z" fill="white"/>
<path d="M127.056 230.928C127.056 230.928 104.921 231.501 95.9387 226.22C95.8104 226.474 96.2595 229.592 96.452 231.055C96.3878 231.182 103.189 234.936 126.607 235.254C126.607 235.254 126.735 233.346 127.056 230.928Z" fill="white"/>
<path d="M207.45 180.092C207.45 180.092 207.578 183.527 204.948 185.5C204.819 185.054 138.286 195.107 96.7742 185.5C96.9667 185.436 96.0684 184.227 97.8007 181.619C120.321 188.935 206.231 184.354 207.45 180.092Z" fill="white"/>
<path d="M207.575 176.337C207.575 176.337 207.382 172.583 205.073 171.12C205.008 171.12 164.074 184.227 93.4346 173.029C93.4346 172.774 94.2045 176.973 96.0651 177.419C96.0651 177.419 97.5408 177.864 97.7974 178.564C97.8616 178.564 152.077 186.644 207.575 176.337Z" fill="white"/>
<path d="M204.175 162.85C204.175 162.85 204.56 164.058 203.597 166.031C203.597 165.967 202.635 167.367 202.571 168.321C202.507 168.258 134.754 178.756 93.7559 166.731C93.8842 166.858 94.2691 163.931 96.8997 162.15C96.8997 162.213 135.075 176.592 204.175 162.85Z" fill="white"/>
<g filter="url(#filter5_d)">
<path d="M47.1656 157.255C64.1975 175.549 84.9686 187.376 105.142 191.901C103.355 170.152 92.9042 146.552 74.4032 126.681C57.3713 108.388 36.6002 96.5607 16.4267 92.035C18.2067 113.777 28.6578 137.377 47.1656 157.255Z" fill="#F69D49"/>
</g>
<defs>
<filter id="filter0_i" x="79" y="30" width="156" height="321" filterUnits="userSpaceOnUse" color-interpolation-filters="sRGB">
<feFlood flood-opacity="0" result="BackgroundImageFix"/>
<feBlend mode="normal" in="SourceGraphic" in2="BackgroundImageFix" result="shape"/>
<feColorMatrix in="SourceAlpha" type="matrix" values="0 0 0 0 0 0 0 0 0 0 0 0 0 0 0 0 0 0 127 0" result="hardAlpha"/>
<feOffset dx="21" dy="-21"/>
<feGaussianBlur stdDeviation="7.5"/>
<feComposite in2="hardAlpha" operator="arithmetic" k2="-1" k3="1"/>
<feColorMatrix type="matrix" values="0 0 0 0 0 0 0 0 0 0 0 0 0 0 0 0 0 0 0.12 0"/>
<feBlend mode="normal" in2="shape" result="effect1_innerShadow"/>
</filter>
<filter id="filter1_d" x="174.818" y="163.307" width="48.9528" height="140.921" filterUnits="userSpaceOnUse" color-interpolation-filters="sRGB">
<feFlood flood-opacity="0" result="BackgroundImageFix"/>
<feColorMatrix in="SourceAlpha" type="matrix" values="0 0 0 0 0 0 0 0 0 0 0 0 0 0 0 0 0 0 127 0"/>
<feOffset dy="4"/>
<feGaussianBlur stdDeviation="2"/>
<feColorMatrix type="matrix" values="0 0 0 0 0 0 0 0 0 0 0 0 0 0 0 0 0 0 0.25 0"/>
<feBlend mode="normal" in2="BackgroundImageFix" result="effect1_dropShadow"/>
<feBlend mode="normal" in="SourceGraphic" in2="effect1_dropShadow" result="shape"/>
</filter>
<filter id="filter2_i" x="157.232" y="81" width="40.0258" height="43.6" filterUnits="userSpaceOnUse" color-interpolation-filters="sRGB">
<feFlood flood-opacity="0" result="BackgroundImageFix"/>
<feBlend mode="normal" in="SourceGraphic" in2="BackgroundImageFix" result="shape"/>
<feColorMatrix in="SourceAlpha" type="matrix" values="0 0 0 0 0 0 0 0 0 0 0 0 0 0 0 0 0 0 127 0" result="hardAlpha"/>
<feOffset dy="4"/>
<feGaussianBlur stdDeviation="2"/>
<feComposite in2="hardAlpha" operator="arithmetic" k2="-1" k3="1"/>
<feColorMatrix type="matrix" values="0 0 0 0 0 0 0 0 0 0 0 0 0 0 0 0 0 0 0.25 0"/>
<feBlend mode="normal" in2="shape" result="effect1_innerShadow"/>
</filter>
<filter id="filter3_i" x="106.29" y="81" width="40.0258" height="43.6" filterUnits="userSpaceOnUse" color-interpolation-filters="sRGB">
<feFlood flood-opacity="0" result="BackgroundImageFix"/>
<feBlend mode="normal" in="SourceGraphic" in2="BackgroundImageFix" result="shape"/>
<feColorMatrix in="SourceAlpha" type="matrix" values="0 0 0 0 0 0 0 0 0 0 0 0 0 0 0 0 0 0 127 0" result="hardAlpha"/>
<feOffset dy="4"/>
<feGaussianBlur stdDeviation="2"/>
<feComposite in2="hardAlpha" operator="arithmetic" k2="-1" k3="1"/>
<feColorMatrix type="matrix" values="0 0 0 0 0 0 0 0 0 0 0 0 0 0 0 0 0 0 0.25 0"/>
<feBlend mode="normal" in2="shape" result="effect1_innerShadow"/>
</filter>
<filter id="filter4_d" x="9.02441" y="82.7988" width="96.7153" height="107.866" filterUnits="userSpaceOnUse" color-interpolation-filters="sRGB">
<feFlood flood-opacity="0" result="BackgroundImageFix"/>
<feColorMatrix in="SourceAlpha" type="matrix" values="0 0 0 0 0 0 0 0 0 0 0 0 0 0 0 0 0 0 127 0"/>
<feOffset dx="-3" dy="-4"/>
<feGaussianBlur stdDeviation="2"/>
<feColorMatrix type="matrix" values="0 0 0 0 0 0 0 0 0 0 0 0 0 0 0 0 0 0 0.15 0"/>
<feBlend mode="normal" in2="BackgroundImageFix" result="effect1_dropShadow"/>
<feBlend mode="normal" in="SourceGraphic" in2="effect1_dropShadow" result="shape"/>
</filter>
<filter id="filter5_d" x="9.42676" y="84.0349" width="96.7153" height="107.866" filterUnits="userSpaceOnUse" color-interpolation-filters="sRGB">
<feFlood flood-opacity="0" result="BackgroundImageFix"/>
<feColorMatrix in="SourceAlpha" type="matrix" values="0 0 0 0 0 0 0 0 0 0 0 0 0 0 0 0 0 0 127 0"/>
<feOffset dx="-3" dy="-4"/>
<feGaussianBlur stdDeviation="2"/>
<feColorMatrix type="matrix" values="0 0 0 0 0 0 0 0 0 0 0 0 0 0 0 0 0 0 0.15 0"/>
<feBlend mode="normal" in2="BackgroundImageFix" result="effect1_dropShadow"/>
<feBlend mode="normal" in="SourceGraphic" in2="effect1_dropShadow" result="shape"/>
</filter>
<clipPath id="clip0">
<rect width="141" height="306" fill="white" transform="translate(79 45)"/>
</clipPath>
</defs>
</svg>
