<svg width="211" height="306" viewBox="0 0 211 306" fill="none" xmlns="http://www.w3.org/2000/svg">
<g clip-path="url(#clip0)" filter="url(#filter0_i)">
<path d="M103.553 264.183C83.617 247.533 70.3398 217.88 70.3398 184.066C70.3398 131.993 101.833 89.7803 140.675 89.7803C179.517 89.7803 211.01 131.993 211.01 184.066C211.01 217.326 198.163 246.555 178.767 263.343" fill="#F27500"/>
<path d="M142.074 137.694C180.036 137.694 210.81 107.279 210.81 69.7609C210.81 32.2425 180.036 1.82788 142.074 1.82788C104.113 1.82788 73.3389 32.2425 73.3389 69.7609C73.3389 107.279 104.113 137.694 142.074 137.694Z" fill="#F27500"/>
<path d="M169.887 176.256C165.689 180.144 155.614 184.882 148.897 172.742C149.543 173.221 139.048 189.994 129.199 172.742C128.553 172.742 118.866 189.994 109.986 172.742" stroke="#F69D49" stroke-width="2" stroke-linecap="round" stroke-linejoin="round"/>
<path d="M158.746 162.519C151.642 162.519 148.574 157.407 147.928 154.851C148.574 155.33 138.079 172.103 128.23 154.851C127.585 157.407 124.517 162.519 117.413 162.519" stroke="#F69D49" stroke-width="2" stroke-linecap="round" stroke-linejoin="round"/>
<g filter="url(#filter1_d)">
<path d="M210.71 187.485C209.941 212.346 202.072 234.747 189.815 251.229C176.768 233.64 169.049 209.036 169.879 182.06C170.649 157.19 178.517 134.799 190.775 118.307C203.812 135.876 211.54 160.48 210.71 187.485Z" fill="#F69D49"/>
</g>
<path d="M190.475 117.912L200.552 109.246C200.661 109.156 200.737 109.033 200.769 108.896C200.8 108.759 200.785 108.615 200.726 108.487C200.667 108.36 200.567 108.254 200.442 108.188C200.317 108.122 200.173 108.098 200.033 108.12L198.593 108.327L205.591 101.964C205.697 101.867 205.767 101.739 205.791 101.6C205.815 101.46 205.791 101.316 205.724 101.191C205.657 101.065 205.549 100.966 205.419 100.907C205.288 100.849 205.141 100.834 205.002 100.867L202.842 101.381" fill="#F27500"/>
<path d="M91.9351 116.37L82.1272 107.359C82.0267 107.264 81.9597 107.139 81.9362 107.004C81.9127 106.868 81.9338 106.729 81.9965 106.606C82.0592 106.483 82.1601 106.383 82.2845 106.321C82.4088 106.259 82.5499 106.239 82.6871 106.262L84.1168 106.519L77.3382 99.9183C77.2354 99.8185 77.169 99.6878 77.1495 99.5466C77.13 99.4054 77.1586 99.2619 77.2308 99.1385C77.3029 99.0151 77.4145 98.919 77.548 98.8652C77.6815 98.8114 77.8293 98.803 77.9681 98.8413L80.1076 99.4144" fill="#F27500"/>
<path d="M143.785 71.3915L150.313 80.2846C150.45 80.4222 150.556 80.5854 150.628 80.7645C150.699 80.9437 150.734 81.1351 150.729 81.3276C150.724 81.52 150.681 81.7096 150.601 81.8851C150.521 82.0607 150.406 82.2186 150.263 82.3497L143.355 93.8514C143.069 94.1189 142.688 94.2638 142.295 94.2545C141.901 94.2453 141.528 94.0826 141.255 93.802L134.727 81.9446C134.449 81.6688 134.294 81.2958 134.294 80.9071C134.294 80.5183 134.449 80.1453 134.727 79.8695L141.645 71.4014C141.781 71.2553 141.946 71.1385 142.13 71.0583C142.313 70.9781 142.512 70.9362 142.713 70.9353C142.914 70.9344 143.112 70.9744 143.297 71.0529C143.481 71.1314 143.647 71.2467 143.785 71.3915Z" fill="#FDE01B"/>
<g filter="url(#filter2_i)">
<path d="M168.245 75.6C179.298 75.6 188.258 66.7352 188.258 55.8C188.258 44.8648 179.298 36 168.245 36C157.193 36 148.232 44.8648 148.232 55.8C148.232 66.7352 157.193 75.6 168.245 75.6Z" fill="white"/>
</g>
<path d="M163.697 64.7999C170.228 64.7999 175.523 59.5616 175.523 53.0999C175.523 46.6382 170.228 41.3999 163.697 41.3999C157.166 41.3999 151.871 46.6382 151.871 53.0999C151.871 59.5616 157.166 64.7999 163.697 64.7999Z" fill="black"/>
<path d="M160.968 49.5C160.968 51.9853 158.931 54 156.419 54C153.907 54 151.871 51.9853 151.871 49.5C151.871 47.0147 153.907 45 156.419 45C158.931 45 160.968 47.0147 160.968 49.5Z" fill="white"/>
<g filter="url(#filter3_i)">
<path d="M117.303 75.6C128.356 75.6 137.316 66.7352 137.316 55.8C137.316 44.8648 128.356 36 117.303 36C106.25 36 97.29 44.8648 97.29 55.8C97.29 66.7352 106.25 75.6 117.303 75.6Z" fill="white"/>
</g>
<path d="M113.665 64.7999C120.196 64.7999 125.49 59.5616 125.49 53.0999C125.49 46.6382 120.196 41.3999 113.665 41.3999C107.133 41.3999 101.839 46.6382 101.839 53.0999C101.839 59.5616 107.133 64.7999 113.665 64.7999Z" fill="black"/>
<path d="M173.518 12.3513L200.922 39.8308C201.138 40.0453 201.411 40.1942 201.71 40.2599C202.008 40.3255 202.32 40.3051 202.607 40.2011C202.894 40.0971 203.145 39.9138 203.33 39.673C203.516 39.4323 203.627 39.1441 203.651 38.8427V2.74676C203.675 2.502 203.64 2.25523 203.55 2.02609C203.46 1.79694 203.317 1.59172 203.132 1.42673C202.948 1.26174 202.727 1.14155 202.487 1.07566C202.248 1.00978 201.996 1.00002 201.752 1.0472L174.368 9.67347C174.077 9.72058 173.805 9.8465 173.583 10.0372C173.361 10.228 173.196 10.476 173.108 10.7536C173.02 11.0313 173.012 11.3277 173.084 11.6098C173.156 11.8919 173.306 12.1486 173.518 12.3513V12.3513Z" fill="#F27500"/>
<path d="M181.867 14.0015L197.283 29.4457C197.402 29.5681 197.553 29.654 197.72 29.6933C197.886 29.7326 198.061 29.7235 198.223 29.6672C198.384 29.6109 198.526 29.5097 198.63 29.3757C198.735 29.2418 198.799 29.0809 198.813 28.9122L198.483 7.00563C198.502 6.86531 198.486 6.7226 198.438 6.58937C198.39 6.45613 198.31 6.33621 198.205 6.23957C198.101 6.14293 197.974 6.07239 197.837 6.03376C197.699 5.99514 197.554 5.98956 197.413 6.01751L182.326 12.4798C182.162 12.5088 182.01 12.5821 181.886 12.6918C181.761 12.8014 181.67 12.943 181.623 13.1007C181.575 13.2585 181.572 13.4262 181.616 13.5852C181.659 13.7443 181.746 13.8884 181.867 14.0015Z" fill="black"/>
<path d="M109.571 12.4009L82.1271 39.8706C81.9127 40.0862 81.64 40.2361 81.3416 40.3023C81.0431 40.3686 80.7317 40.3483 80.4447 40.244C80.1576 40.1397 79.9071 39.9558 79.7231 39.7143C79.5392 39.4728 79.4297 39.1839 79.4077 38.8825V2.78655C79.3823 2.54128 79.4155 2.29352 79.5049 2.06334C79.5943 1.83316 79.7372 1.62701 79.9222 1.46154C80.1071 1.29607 80.3289 1.17594 80.5695 1.11087C80.8101 1.0458 81.0629 1.03763 81.3073 1.08699L108.691 9.71323C108.987 9.75445 109.264 9.87682 109.492 10.0664C109.72 10.2559 109.89 10.505 109.981 10.7853C110.073 11.0655 110.083 11.3655 110.011 11.6512C109.938 11.9369 109.786 12.1967 109.571 12.4009V12.4009Z" fill="#F27500"/>
<path d="M101.224 14.0807L85.807 29.4953C85.6886 29.6176 85.537 29.7036 85.3704 29.7429C85.2038 29.7822 85.0293 29.7731 84.8678 29.7167C84.7063 29.6604 84.5647 29.5592 84.4599 29.4253C84.3552 29.2913 84.2918 29.1304 84.2773 28.9617L84.5972 7.0552C84.5785 6.91488 84.594 6.77218 84.6423 6.63894C84.6906 6.5057 84.7703 6.38578 84.8749 6.28914C84.9796 6.1925 85.106 6.12193 85.2438 6.0833C85.3815 6.04468 85.5266 6.03913 85.667 6.06708L100.764 12.5293C100.937 12.5499 101.1 12.6202 101.232 12.7315C101.365 12.8427 101.462 12.99 101.511 13.1552C101.56 13.3203 101.559 13.496 101.508 13.6605C101.457 13.8251 101.358 13.9711 101.224 14.0807V14.0807Z" fill="black"/>
<path d="M144.274 1.86754L157.622 1.41299C157.761 1.41005 157.897 1.45126 158.011 1.53056C158.124 1.60987 158.209 1.72309 158.253 1.85358C158.296 1.98407 158.296 2.12495 158.253 2.25552C158.21 2.38609 158.125 2.49944 158.012 2.57896L156.822 3.39911L166.33 3.32994C166.476 3.32593 166.619 3.37055 166.736 3.45659C166.853 3.54263 166.937 3.6651 166.975 3.80427C167.013 3.94345 167.003 4.09125 166.946 4.22388C166.888 4.35651 166.788 4.46624 166.66 4.53544L164.73 5.61248" fill="#F27500"/>
<path d="M118.229 6.03742L131.397 0.405176C131.529 0.351509 131.676 0.342567 131.814 0.379755C131.952 0.416943 132.074 0.498181 132.161 0.610832C132.247 0.723483 132.294 0.861235 132.293 1.00273C132.292 1.14422 132.244 1.28152 132.157 1.39329L131.117 2.69761" fill="#F27500"/>
<path d="M118.229 6.03718L131.397 0.404931C131.529 0.351265 131.676 0.342323 131.814 0.379511C131.952 0.416698 132.074 0.497937 132.161 0.610588C132.247 0.723239 132.294 0.860991 132.293 1.00248C132.292 1.14397 132.244 1.28128 132.157 1.39305L131.117 2.69737" fill="#F27500"/>
<path d="M132.427 2.50986L145.544 0.0197865C145.68 -0.00332025 145.82 0.0169511 145.943 0.0776236C146.067 0.138296 146.168 0.236231 146.231 0.35728C146.295 0.47833 146.317 0.616189 146.296 0.750923C146.275 0.885657 146.211 1.01027 146.114 1.10672L145.114 2.09484" fill="#F27500"/>
<path d="M110.936 48.6001C110.936 51.0854 108.899 53.1001 106.387 53.1001C103.875 53.1001 101.839 51.0854 101.839 48.6001C101.839 46.1148 103.875 44.1001 106.387 44.1001C108.899 44.1001 110.936 46.1148 110.936 48.6001Z" fill="white"/>
<ellipse cx="117.758" cy="76.9499" rx="15.9194" ry="8.55" fill="#F27500"/>
<ellipse cx="170.519" cy="76.9499" rx="19.5581" ry="8.55" fill="#F27500"/>
</g>
<path d="M181.068 284.473V276.915C181.068 274.183 178.83 271.968 176.069 271.968C173.308 271.968 171.069 274.183 171.069 276.915V284.473C171.069 287.204 173.308 289.419 176.069 289.419C178.83 289.419 181.068 287.204 181.068 284.473Z" fill="#FDE01B"/>
<path d="M172.069 284.473V276.915C172.069 274.183 169.831 271.968 167.07 271.968C164.309 271.968 162.07 274.183 162.07 276.915V284.473C162.07 287.204 164.309 289.419 167.07 289.419C169.831 289.419 172.069 287.204 172.069 284.473Z" fill="#FDE01B"/>
<path d="M163.07 284.828V277.27C163.07 274.539 160.832 272.324 158.071 272.324C155.31 272.324 153.071 274.539 153.071 277.27V284.828C153.071 287.56 155.31 289.775 158.071 289.775C160.832 289.775 163.07 287.56 163.07 284.828Z" fill="#FDE01B"/>
<path d="M133.183 283.691V276.133C133.183 273.401 130.944 271.186 128.183 271.186C125.422 271.186 123.184 273.401 123.184 276.133V283.691C123.184 286.423 125.422 288.637 128.183 288.637C130.944 288.637 133.183 286.423 133.183 283.691Z" fill="#FDE01B"/>
<path d="M124.184 283.691V276.133C124.184 273.401 121.945 271.186 119.184 271.186C116.423 271.186 114.184 273.401 114.184 276.133V283.691C114.184 286.423 116.423 288.637 119.184 288.637C121.945 288.637 124.184 286.423 124.184 283.691Z" fill="#FDE01B"/>
<path d="M115.194 284.047V276.489C115.194 273.757 112.956 271.542 110.195 271.542C107.434 271.542 105.195 273.757 105.195 276.489V284.047C105.195 286.779 107.434 288.993 110.195 288.993C112.956 288.993 115.194 286.779 115.194 284.047Z" fill="#FDE01B"/>
<path d="M173.437 259.194C173.437 257.351 170.489 255.857 166.852 255.857C163.216 255.857 160.268 257.351 160.268 259.194V275.619C160.268 277.461 163.216 278.955 166.852 278.955C170.489 278.955 173.437 277.461 173.437 275.619V259.194Z" fill="#FDE01B"/>
<path d="M124.95 259.194C124.95 257.351 122.136 255.857 118.664 255.857C115.193 255.857 112.379 257.351 112.379 259.194V275.619C112.379 277.461 115.193 278.955 118.664 278.955C122.136 278.955 124.95 277.461 124.95 275.619V259.194Z" fill="#FDE01B"/>
<g filter="url(#filter4_d)">
<path d="M37.7632 111.019C54.7951 129.313 75.5662 141.14 95.7397 145.665C93.953 123.916 83.5019 100.316 65.0008 80.4453C47.9689 62.1515 27.1978 50.3246 7.02438 45.7989C8.80435 67.5413 19.2555 91.1414 37.7632 111.019Z" fill="#F69D49"/>
</g>
<path d="M141.728 91.1154C142.835 93.306 143.106 94.0958 143.336 93.8676C142.506 94.6891 141.578 94.2034 141.232 93.861C139.272 90.4382 135.193 83.3152 134.639 82.2199C134.086 81.1246 134.232 80.5046 134.347 80.3905C136.002 77.6527 140.811 72.0839 141.958 71.149C142.562 70.6574 143.073 70.9794 143.341 71.1482L143.342 71.149L143.783 71.4698L136.423 81.0751C137.807 83.5852 140.62 88.9248 141.728 91.1154Z" fill="#DCC31E"/>
<defs>
<filter id="filter0_i" x="70" y="-15" width="156" height="321" filterUnits="userSpaceOnUse" color-interpolation-filters="sRGB">
<feFlood flood-opacity="0" result="BackgroundImageFix"/>
<feBlend mode="normal" in="SourceGraphic" in2="BackgroundImageFix" result="shape"/>
<feColorMatrix in="SourceAlpha" type="matrix" values="0 0 0 0 0 0 0 0 0 0 0 0 0 0 0 0 0 0 127 0" result="hardAlpha"/>
<feOffset dx="21" dy="-21"/>
<feGaussianBlur stdDeviation="7.5"/>
<feComposite in2="hardAlpha" operator="arithmetic" k2="-1" k3="1"/>
<feColorMatrix type="matrix" values="0 0 0 0 0 0 0 0 0 0 0 0 0 0 0 0 0 0 0.12 0"/>
<feBlend mode="normal" in2="shape" result="effect1_innerShadow"/>
</filter>
<filter id="filter1_d" x="165.818" y="118.307" width="48.9528" height="140.921" filterUnits="userSpaceOnUse" color-interpolation-filters="sRGB">
<feFlood flood-opacity="0" result="BackgroundImageFix"/>
<feColorMatrix in="SourceAlpha" type="matrix" values="0 0 0 0 0 0 0 0 0 0 0 0 0 0 0 0 0 0 127 0"/>
<feOffset dy="4"/>
<feGaussianBlur stdDeviation="2"/>
<feColorMatrix type="matrix" values="0 0 0 0 0 0 0 0 0 0 0 0 0 0 0 0 0 0 0.25 0"/>
<feBlend mode="normal" in2="BackgroundImageFix" result="effect1_dropShadow"/>
<feBlend mode="normal" in="SourceGraphic" in2="effect1_dropShadow" result="shape"/>
</filter>
<filter id="filter2_i" x="148.232" y="36" width="40.0258" height="43.6" filterUnits="userSpaceOnUse" color-interpolation-filters="sRGB">
<feFlood flood-opacity="0" result="BackgroundImageFix"/>
<feBlend mode="normal" in="SourceGraphic" in2="BackgroundImageFix" result="shape"/>
<feColorMatrix in="SourceAlpha" type="matrix" values="0 0 0 0 0 0 0 0 0 0 0 0 0 0 0 0 0 0 127 0" result="hardAlpha"/>
<feOffset dy="4"/>
<feGaussianBlur stdDeviation="2"/>
<feComposite in2="hardAlpha" operator="arithmetic" k2="-1" k3="1"/>
<feColorMatrix type="matrix" values="0 0 0 0 0 0 0 0 0 0 0 0 0 0 0 0 0 0 0.25 0"/>
<feBlend mode="normal" in2="shape" result="effect1_innerShadow"/>
</filter>
<filter id="filter3_i" x="97.29" y="36" width="40.0258" height="43.6" filterUnits="userSpaceOnUse" color-interpolation-filters="sRGB">
<feFlood flood-opacity="0" result="BackgroundImageFix"/>
<feBlend mode="normal" in="SourceGraphic" in2="BackgroundImageFix" result="shape"/>
<feColorMatrix in="SourceAlpha" type="matrix" values="0 0 0 0 0 0 0 0 0 0 0 0 0 0 0 0 0 0 127 0" result="hardAlpha"/>
<feOffset dy="4"/>
<feGaussianBlur stdDeviation="2"/>
<feComposite in2="hardAlpha" operator="arithmetic" k2="-1" k3="1"/>
<feColorMatrix type="matrix" values="0 0 0 0 0 0 0 0 0 0 0 0 0 0 0 0 0 0 0.25 0"/>
<feBlend mode="normal" in2="shape" result="effect1_innerShadow"/>
</filter>
<filter id="filter4_d" x="0.0244141" y="37.7988" width="96.7153" height="107.866" filterUnits="userSpaceOnUse" color-interpolation-filters="sRGB">
<feFlood flood-opacity="0" result="BackgroundImageFix"/>
<feColorMatrix in="SourceAlpha" type="matrix" values="0 0 0 0 0 0 0 0 0 0 0 0 0 0 0 0 0 0 127 0"/>
<feOffset dx="-3" dy="-4"/>
<feGaussianBlur stdDeviation="2"/>
<feColorMatrix type="matrix" values="0 0 0 0 0 0 0 0 0 0 0 0 0 0 0 0 0 0 0.15 0"/>
<feBlend mode="normal" in2="BackgroundImageFix" result="effect1_dropShadow"/>
<feBlend mode="normal" in="SourceGraphic" in2="effect1_dropShadow" result="shape"/>
</filter>
<clipPath id="clip0">
<rect width="141" height="306" fill="white" transform="translate(70)"/>
</clipPath>
</defs>
</svg>
