<svg width="111" height="224" viewBox="0 0 111 224" fill="none" xmlns="http://www.w3.org/2000/svg">
<g filter="url(#filter0_i)">
<g clip-path="url(#clip0)" filter="url(#filter1_i)">
<path d="M28.2724 193.389C13.8508 181.201 4.24609 159.494 4.24609 134.741C4.24609 96.622 27.0285 65.7214 55.1267 65.7214C83.225 65.7214 106.007 96.622 106.007 134.741C106.007 159.089 96.7136 180.485 82.6826 192.774" fill="#F27500"/>
<path d="M56.1395 100.796C83.601 100.796 105.863 78.5313 105.863 51.0669C105.863 23.6025 83.601 1.33813 56.1395 1.33813C28.678 1.33813 6.41602 23.6025 6.41602 51.0669C6.41602 78.5313 28.678 100.796 56.1395 100.796Z" fill="#F27500"/>
<path d="M61.0928 126.485C61.0868 126.474 61.0808 126.463 61.0748 126.452C61.0837 126.458 61.0897 126.469 61.0928 126.485Z" fill="#F69131"/>
<path d="M76.2588 129.024C73.222 131.87 65.9337 135.339 61.0748 126.452C61.542 126.802 53.95 139.081 46.8252 126.452C46.358 126.452 39.35 139.081 32.926 126.452" stroke="#F69D49" stroke-width="2" stroke-linecap="round" stroke-linejoin="round"/>
<path d="M60.3736 113.355C60.3897 113.367 60.3962 113.393 60.3936 113.432C60.3866 113.406 60.3799 113.38 60.3736 113.355Z" fill="#F69131"/>
<path d="M68.1992 118.968C63.06 118.968 60.8408 115.226 60.3736 113.355C60.8408 113.706 53.2488 125.984 46.124 113.355C45.6568 115.226 43.4376 118.968 38.2984 118.968" stroke="#F69D49" stroke-width="2" stroke-linecap="round" stroke-linejoin="round"/>
<path d="M91.1523 86.3148L98.4427 79.9712C98.5215 79.9051 98.5765 79.8151 98.5992 79.7147C98.6219 79.6144 98.6111 79.5094 98.5684 79.4158C98.5257 79.3222 98.4535 79.2452 98.3629 79.1966C98.2723 79.148 98.1682 79.1304 98.0666 79.1467L97.0251 79.2985L102.088 74.6403C102.164 74.5698 102.215 74.4761 102.232 74.3737C102.25 74.2714 102.233 74.1661 102.184 74.0744C102.135 73.9828 102.057 73.9098 101.963 73.8669C101.868 73.8241 101.762 73.8137 101.661 73.8374L100.099 74.2136" fill="#F27500"/>
<path d="M19.8682 85.1863L12.7732 78.5895C12.7004 78.5199 12.652 78.4287 12.635 78.3295C12.618 78.2302 12.6332 78.1281 12.6786 78.0382C12.724 77.9483 12.797 77.8753 12.8869 77.83C12.9769 77.7848 13.0789 77.7696 13.1782 77.7867L14.2124 77.9747L9.30881 73.1429C9.23438 73.0698 9.18634 72.9741 9.17227 72.8708C9.1582 72.7674 9.17888 72.6623 9.23107 72.572C9.28325 72.4817 9.36397 72.4114 9.46053 72.372C9.55709 72.3326 9.66401 72.3264 9.76446 72.3545L11.3122 72.774" fill="#F27500"/>
<path d="M57.3764 52.2605L62.0993 58.7704C62.1978 58.8712 62.2751 58.9906 62.3267 59.1218C62.3783 59.2529 62.4032 59.393 62.3998 59.5339C62.3965 59.6748 62.3649 59.8136 62.3071 59.9421C62.2492 60.0706 62.1663 60.1862 62.0631 60.2822L57.0654 68.7017C56.8588 68.8975 56.5831 69.0036 56.2986 68.9968C56.014 68.99 55.7437 68.8709 55.5466 68.6655L50.8238 59.9856C50.6233 59.7837 50.5107 59.5107 50.5107 59.2261C50.5107 58.9415 50.6233 58.6685 50.8238 58.4666L55.8287 52.2677C55.927 52.1608 56.0463 52.0752 56.1792 52.0165C56.3121 51.9578 56.4557 51.9272 56.601 51.9265C56.7463 51.9258 56.8901 51.9552 57.0235 52.0126C57.157 52.0701 57.2771 52.1544 57.3764 52.2605Z" fill="#FDE01B"/>
<path d="M55.9044 66.6703C56.708 68.274 56.9048 68.8523 57.0722 68.6852C56.4695 69.2866 55.796 68.931 55.5448 68.6804C54.1218 66.1746 51.161 60.9599 50.7592 60.158C50.3574 59.3562 50.4633 58.9023 50.547 58.8188C51.7485 56.8144 55.2388 52.7376 56.0718 52.0531C56.5097 51.6932 56.8809 51.929 57.0753 52.0525L57.0763 52.0531L57.3961 52.288L52.0538 59.3199C53.0583 61.1575 55.1007 65.0666 55.9044 66.6703Z" fill="#F2D405"/>
<path d="M75.0712 55.341C83.0668 55.341 89.5486 48.8518 89.5486 40.8469C89.5486 32.842 83.0668 26.3528 75.0712 26.3528C67.0755 26.3528 60.5938 32.842 60.5938 40.8469C60.5938 48.8518 67.0755 55.341 75.0712 55.341Z" fill="white"/>
<path d="M38.2186 55.341C46.2143 55.341 52.696 48.8518 52.696 40.8469C52.696 32.842 46.2143 26.3528 38.2186 26.3528C30.223 26.3528 23.7412 32.842 23.7412 40.8469C23.7412 48.8518 30.223 55.341 38.2186 55.341Z" fill="white"/>
<path d="M73.957 49.9288C78.9669 49.9288 83.0282 45.8628 83.0282 40.8471C83.0282 35.8314 78.9669 31.7654 73.957 31.7654C68.9471 31.7654 64.8857 35.8314 64.8857 40.8471C64.8857 45.8628 68.9471 49.9288 73.957 49.9288Z" fill="black"/>
<path d="M39.4421 49.9384C44.4573 49.9384 48.5229 45.8681 48.5229 40.8471C48.5229 35.8262 44.4573 31.7559 39.4421 31.7559C34.4269 31.7559 30.3613 35.8262 30.3613 40.8471C30.3613 45.8681 34.4269 49.9384 39.4421 49.9384Z" fill="black"/>
<path d="M78.8862 9.04149L98.7105 29.1572C98.8665 29.3143 99.0642 29.4233 99.2803 29.4713C99.4963 29.5194 99.7216 29.5044 99.9295 29.4283C100.137 29.3522 100.319 29.218 100.453 29.0418C100.587 28.8655 100.667 28.6545 100.685 28.4339V2.01074C100.702 1.83157 100.677 1.65093 100.611 1.48319C100.546 1.31545 100.443 1.16522 100.309 1.04445C100.176 0.92367 100.016 0.835688 99.8429 0.787459C99.6696 0.739229 99.4874 0.732088 99.3108 0.766621L79.501 7.08128C79.2908 7.11576 79.0943 7.20794 78.9334 7.34756C78.7725 7.48718 78.6536 7.66874 78.5898 7.872C78.5261 8.07526 78.52 8.29223 78.5723 8.49873C78.6247 8.70522 78.7333 8.89313 78.8862 9.04149Z" fill="#F27500"/>
<path d="M84.9245 10.2496L96.077 21.5552C96.1626 21.6448 96.2723 21.7077 96.3928 21.7365C96.5133 21.7652 96.6396 21.7586 96.7564 21.7173C96.8732 21.6761 96.9757 21.602 97.0514 21.504C97.1272 21.4059 97.1731 21.2881 97.1836 21.1647L96.9449 5.12848C96.9584 5.02577 96.9473 4.9213 96.9123 4.82377C96.8774 4.72623 96.8197 4.63845 96.744 4.56771C96.6683 4.49696 96.5768 4.44532 96.4772 4.41705C96.3775 4.38878 96.2725 4.38469 96.171 4.40515L85.2571 9.13572C85.1385 9.15691 85.0281 9.21063 84.9382 9.29088C84.8483 9.37113 84.7824 9.47477 84.7479 9.59025C84.7134 9.70573 84.7117 9.82851 84.7429 9.94494C84.774 10.0614 84.8369 10.1669 84.9245 10.2496Z" fill="black"/>
<path d="M32.6263 9.07759L12.773 29.1861C12.618 29.3439 12.4206 29.4537 12.2048 29.5022C11.9889 29.5506 11.7636 29.5358 11.5559 29.4595C11.3483 29.3831 11.167 29.2485 11.034 29.0717C10.9009 28.8949 10.8217 28.6835 10.8058 28.4628V2.03963C10.7874 1.86009 10.8115 1.67872 10.8761 1.51022C10.9408 1.34172 11.0442 1.19081 11.178 1.06969C11.3118 0.948561 11.4722 0.860618 11.6463 0.812985C11.8203 0.765352 12.0031 0.759373 12.18 0.795502L31.9898 7.11014C32.2033 7.14031 32.4039 7.22989 32.5689 7.36865C32.7339 7.5074 32.8566 7.68976 32.923 7.8949C32.9894 8.10003 32.9967 8.31968 32.9442 8.5288C32.8918 8.73792 32.7816 8.92808 32.6263 9.07759Z" fill="#F27500"/>
<path d="M26.5872 10.3075L15.4347 21.5914C15.349 21.6809 15.2394 21.7438 15.1189 21.7726C14.9984 21.8014 14.8721 21.7947 14.7553 21.7535C14.6384 21.7122 14.536 21.6381 14.4602 21.5401C14.3844 21.4421 14.3386 21.3242 14.3281 21.2008L14.5595 5.16462C14.546 5.06191 14.5572 4.95744 14.5921 4.85991C14.627 4.76237 14.6847 4.67459 14.7604 4.60385C14.8361 4.53311 14.9276 4.48144 15.0272 4.45317C15.1269 4.42489 15.2319 4.42083 15.3334 4.44129L26.2545 9.17184C26.3796 9.18691 26.4974 9.23837 26.5935 9.3198C26.6896 9.40123 26.7598 9.50907 26.7952 9.62996C26.8306 9.75086 26.8298 9.87948 26.7928 9.9999C26.7558 10.1203 26.6843 10.2273 26.5872 10.3075Z" fill="black"/>
<path d="M57.7295 1.36703L67.3849 1.03429C67.4855 1.03213 67.5841 1.0623 67.6663 1.12035C67.7484 1.17841 67.8098 1.26129 67.8413 1.35681C67.8729 1.45233 67.873 1.55546 67.8416 1.65104C67.8103 1.74662 67.749 1.8296 67.667 1.88781L66.8063 2.48818L73.6844 2.43754C73.7899 2.43461 73.8933 2.46727 73.978 2.53026C74.0627 2.59324 74.1237 2.68289 74.1513 2.78477C74.1788 2.88665 74.1713 2.99485 74.13 3.09193C74.0886 3.18902 74.0157 3.26935 73.9231 3.32L72.5272 4.10843" fill="#F27500"/>
<path d="M38.8896 4.41932L48.4149 0.296366C48.5107 0.257081 48.6168 0.250535 48.7167 0.277758C48.8167 0.30498 48.9048 0.364449 48.9675 0.446912C49.0301 0.529376 49.0638 0.630214 49.0633 0.733788C49.0627 0.837363 49.028 0.937874 48.9645 1.01969L48.2124 1.97449" fill="#F27500"/>
<path d="M38.8896 4.41932L48.4149 0.296366C48.5107 0.257081 48.6168 0.250535 48.7167 0.277758C48.8167 0.30498 48.9048 0.364449 48.9675 0.446912C49.0301 0.529376 49.0638 0.630214 49.0633 0.733788C49.0627 0.837363 49.028 0.937874 48.9645 1.01969L48.2124 1.97449" fill="#F27500"/>
<path d="M49.1602 1.83741L58.6492 0.0146119C58.7475 -0.00230285 58.8487 0.0125363 58.9381 0.0569502C59.0274 0.101364 59.1004 0.173055 59.1463 0.261666C59.1922 0.350277 59.2087 0.451194 59.1935 0.549823C59.1782 0.648452 59.132 0.739673 59.0614 0.810276L58.3382 1.5336" fill="#F27500"/>
<path d="M69.7634 36.3451C69.7634 37.8771 68.5228 39.1191 66.9925 39.1191C65.4622 39.1191 64.2217 37.8771 64.2217 36.3451C64.2217 34.813 65.4622 33.571 66.9925 33.571C68.5228 33.571 69.7634 34.813 69.7634 36.3451Z" fill="white"/>
<path d="M35.0241 36.0716C35.0241 37.6037 33.7836 38.8457 32.2533 38.8457C30.723 38.8457 29.4824 37.6037 29.4824 36.0716C29.4824 34.5396 30.723 33.2976 32.2533 33.2976C33.7836 33.2976 35.0241 34.5396 35.0241 36.0716Z" fill="white"/>
</g>
<g filter="url(#filter2_i)">
<path d="M84.3477 208.241V202.709C84.3477 200.709 82.7284 199.088 80.731 199.088C78.7335 199.088 77.1143 200.709 77.1143 202.709V208.241C77.1143 210.241 78.7335 211.862 80.731 211.862C82.7284 211.862 84.3477 210.241 84.3477 208.241Z" fill="#FDE01B"/>
<path d="M77.8379 208.241V202.709C77.8379 200.709 76.2186 199.088 74.2212 199.088C72.2237 199.088 70.6045 200.709 70.6045 202.709V208.241C70.6045 210.241 72.2237 211.862 74.2212 211.862C76.2186 211.862 77.8379 210.241 77.8379 208.241Z" fill="#FDE01B"/>
<path d="M71.3281 208.502V202.97C71.3281 200.97 69.7089 199.349 67.7114 199.349C65.714 199.349 64.0947 200.97 64.0947 202.97V208.502C64.0947 210.502 65.714 212.123 67.7114 212.123C69.7089 212.123 71.3281 210.502 71.3281 208.502Z" fill="#FDE01B"/>
<path d="M49.707 207.669V202.136C49.707 200.137 48.0878 198.516 46.0903 198.516C44.0929 198.516 42.4736 200.137 42.4736 202.136V207.669C42.4736 209.669 44.0929 211.29 46.0903 211.29C48.0878 211.29 49.707 209.669 49.707 207.669Z" fill="#FDE01B"/>
<path d="M43.1973 207.669V202.136C43.1973 200.137 41.578 198.516 39.5806 198.516C37.5831 198.516 35.9639 200.137 35.9639 202.136V207.669C35.9639 209.669 37.5831 211.29 39.5806 211.29C41.578 211.29 43.1973 209.669 43.1973 207.669Z" fill="#FDE01B"/>
<path d="M36.6943 207.93V202.397C36.6943 200.397 35.0751 198.776 33.0776 198.776C31.0802 198.776 29.4609 200.397 29.4609 202.397V207.93C29.4609 209.929 31.0802 211.551 33.0776 211.551C35.0751 211.551 36.6943 209.929 36.6943 207.93Z" fill="#FDE01B"/>
<path d="M78.8266 189.737C78.8266 188.388 76.694 187.294 74.0632 187.294C71.4325 187.294 69.2998 188.388 69.2998 189.737V201.76C69.2998 203.109 71.4325 204.202 74.0632 204.202C76.694 204.202 78.8266 203.109 78.8266 201.76V189.737Z" fill="#FDE01B"/>
<path d="M43.75 189.737C43.75 188.388 41.7143 187.294 39.2031 187.294C36.692 187.294 34.6562 188.388 34.6562 189.737V201.76C34.6562 203.109 36.692 204.202 39.2031 204.202C41.7143 204.202 43.75 203.109 43.75 201.76V189.737Z" fill="#FDE01B"/>
</g>
<g filter="url(#filter3_d)">
<path d="M105.631 115.264C105.283 125.747 107.065 120.186 105.631 143.156C96.0797 135.933 85.3105 124.019 85.6847 112.644C86.0331 102.158 81.9861 93.5305 90.6854 86.4094C100.23 93.6238 106.005 103.877 105.631 115.264Z" fill="#F69131"/>
</g>
<g filter="url(#filter4_d)">
<path d="M78.5914 138.21C71.1198 132.185 66.8282 123.418 65.8706 113.958C75.7798 111.897 86.0586 113.914 94.1675 120.449C101.642 126.476 105.931 135.24 106.891 144.702C96.9917 146.764 86.7095 144.751 78.5914 138.21Z" fill="#F69131"/>
</g>
<g filter="url(#filter5_d)">
<path d="M5.33344 114.141C4.42705 133.552 4.55962 118.295 4.55962 141.806C14.1113 134.584 25.6543 122.896 25.2801 111.521C24.9317 101.034 28.9787 92.4072 20.2795 85.2861C10.7351 92.5005 5.52025 110.14 5.33344 114.141Z" fill="#F69131"/>
</g>
<g filter="url(#filter6_d)">
<path d="M32.3735 137.087C39.845 131.062 44.1366 122.295 45.0942 112.835C35.1851 110.774 24.9062 112.791 16.7973 119.326C9.32276 125.353 5.0342 134.117 4.07356 143.579C13.9731 145.641 24.2554 143.628 32.3735 137.087Z" fill="#F69131"/>
</g>
</g>
<defs>
<filter id="filter0_i" x="4" y="0" width="102.892" height="226" filterUnits="userSpaceOnUse" color-interpolation-filters="sRGB">
<feFlood flood-opacity="0" result="BackgroundImageFix"/>
<feBlend mode="normal" in="SourceGraphic" in2="BackgroundImageFix" result="shape"/>
<feColorMatrix in="SourceAlpha" type="matrix" values="0 0 0 0 0 0 0 0 0 0 0 0 0 0 0 0 0 0 127 0" result="hardAlpha"/>
<feOffset dy="2"/>
<feGaussianBlur stdDeviation="1.5"/>
<feComposite in2="hardAlpha" operator="arithmetic" k2="-1" k3="1"/>
<feColorMatrix type="matrix" values="0 0 0 0 0 0 0 0 0 0 0 0 0 0 0 0 0 0 0.15 0"/>
<feBlend mode="normal" in2="shape" result="effect1_innerShadow"/>
</filter>
<filter id="filter1_i" x="4" y="-15" width="117" height="239" filterUnits="userSpaceOnUse" color-interpolation-filters="sRGB">
<feFlood flood-opacity="0" result="BackgroundImageFix"/>
<feBlend mode="normal" in="SourceGraphic" in2="BackgroundImageFix" result="shape"/>
<feColorMatrix in="SourceAlpha" type="matrix" values="0 0 0 0 0 0 0 0 0 0 0 0 0 0 0 0 0 0 127 0" result="hardAlpha"/>
<feOffset dx="21" dy="-21"/>
<feGaussianBlur stdDeviation="7.5"/>
<feComposite in2="hardAlpha" operator="arithmetic" k2="-1" k3="1"/>
<feColorMatrix type="matrix" values="0 0 0 0 0 0 0 0 0 0 0 0 0 0 0 0 0 0 0.12 0"/>
<feBlend mode="normal" in2="shape" result="effect1_innerShadow"/>
</filter>
<filter id="filter2_i" x="29.4609" y="187.294" width="54.8867" height="27.8286" filterUnits="userSpaceOnUse" color-interpolation-filters="sRGB">
<feFlood flood-opacity="0" result="BackgroundImageFix"/>
<feBlend mode="normal" in="SourceGraphic" in2="BackgroundImageFix" result="shape"/>
<feColorMatrix in="SourceAlpha" type="matrix" values="0 0 0 0 0 0 0 0 0 0 0 0 0 0 0 0 0 0 127 0" result="hardAlpha"/>
<feOffset dy="3"/>
<feGaussianBlur stdDeviation="1.5"/>
<feComposite in2="hardAlpha" operator="arithmetic" k2="-1" k3="1"/>
<feColorMatrix type="matrix" values="0 0 0 0 0 0 0 0 0 0 0 0 0 0 0 0 0 0 0.15 0"/>
<feBlend mode="normal" in2="shape" result="effect1_innerShadow"/>
</filter>
<filter id="filter3_d" x="81.043" y="85.4094" width="29.1548" height="64.7464" filterUnits="userSpaceOnUse" color-interpolation-filters="sRGB">
<feFlood flood-opacity="0" result="BackgroundImageFix"/>
<feColorMatrix in="SourceAlpha" type="matrix" values="0 0 0 0 0 0 0 0 0 0 0 0 0 0 0 0 0 0 127 0"/>
<feOffset dy="3"/>
<feGaussianBlur stdDeviation="2"/>
<feColorMatrix type="matrix" values="0 0 0 0 0 0 0 0 0 0 0 0 0 0 0 0 0 0 0.15 0"/>
<feBlend mode="normal" in2="BackgroundImageFix" result="effect1_dropShadow"/>
<feBlend mode="normal" in="SourceGraphic" in2="effect1_dropShadow" result="shape"/>
</filter>
<filter id="filter4_d" x="61.8711" y="113.184" width="49.0206" height="40.2938" filterUnits="userSpaceOnUse" color-interpolation-filters="sRGB">
<feFlood flood-opacity="0" result="BackgroundImageFix"/>
<feColorMatrix in="SourceAlpha" type="matrix" values="0 0 0 0 0 0 0 0 0 0 0 0 0 0 0 0 0 0 127 0"/>
<feOffset dy="4"/>
<feGaussianBlur stdDeviation="2"/>
<feColorMatrix type="matrix" values="0 0 0 0 0 0 0 0 0 0 0 0 0 0 0 0 0 0 0.25 0"/>
<feBlend mode="normal" in2="BackgroundImageFix" result="effect1_dropShadow"/>
<feBlend mode="normal" in="SourceGraphic" in2="effect1_dropShadow" result="shape"/>
</filter>
<filter id="filter5_d" x="0.552734" y="85.2861" width="29.3692" height="64.5203" filterUnits="userSpaceOnUse" color-interpolation-filters="sRGB">
<feFlood flood-opacity="0" result="BackgroundImageFix"/>
<feColorMatrix in="SourceAlpha" type="matrix" values="0 0 0 0 0 0 0 0 0 0 0 0 0 0 0 0 0 0 127 0"/>
<feOffset dy="4"/>
<feGaussianBlur stdDeviation="2"/>
<feColorMatrix type="matrix" values="0 0 0 0 0 0 0 0 0 0 0 0 0 0 0 0 0 0 0.15 0"/>
<feBlend mode="normal" in2="BackgroundImageFix" result="effect1_dropShadow"/>
<feBlend mode="normal" in="SourceGraphic" in2="effect1_dropShadow" result="shape"/>
</filter>
<filter id="filter6_d" x="0.0732422" y="112.061" width="49.0206" height="40.2938" filterUnits="userSpaceOnUse" color-interpolation-filters="sRGB">
<feFlood flood-opacity="0" result="BackgroundImageFix"/>
<feColorMatrix in="SourceAlpha" type="matrix" values="0 0 0 0 0 0 0 0 0 0 0 0 0 0 0 0 0 0 127 0"/>
<feOffset dy="4"/>
<feGaussianBlur stdDeviation="2"/>
<feColorMatrix type="matrix" values="0 0 0 0 0 0 0 0 0 0 0 0 0 0 0 0 0 0 0.25 0"/>
<feBlend mode="normal" in2="BackgroundImageFix" result="effect1_dropShadow"/>
<feBlend mode="normal" in="SourceGraphic" in2="effect1_dropShadow" result="shape"/>
</filter>
<clipPath id="clip0">
<rect width="102" height="224" fill="white" transform="translate(4)"/>
</clipPath>
</defs>
</svg>
