<svg width="404" height="535" viewBox="0 0 404 535" fill="none" xmlns="http://www.w3.org/2000/svg">
<path d="M-42 398H397C400.866 398 404 401.134 404 405C404 408.866 400.866 412 397 412H-42C-45.866 412 -49 408.866 -49 405C-49 401.134 -45.866 398 -42 398Z" fill="#F27500"/>
<path d="M5.91519 423L216 405.158L169.093 400.309L-12.0493 391L-37 405.158L5.91519 423Z" fill="#F27500"/>
<path d="M124.71 384.55C124.71 315.489 39.4796 295.038 -3.13561 293.445L-121.115 323.943V607.44H339.443C339.443 379.648 124.71 470.876 124.71 384.55Z" fill="white"/>
<g clip-path="url(#clip0)" filter="url(#filter0_i)">
<path d="M336.598 369.511C364.168 346.223 382.53 304.747 382.53 257.452C382.53 184.617 338.976 125.575 285.258 125.575C231.541 125.575 187.987 184.617 187.987 257.452C187.987 303.973 205.754 344.854 232.578 368.336" fill="#F27500"/>
<path d="M283.322 192.592C230.822 192.592 188.263 150.051 188.263 97.5743C188.263 45.0976 230.822 2.55681 283.322 2.55681C335.822 2.55681 378.382 45.0976 378.382 97.5743C378.382 150.051 335.822 192.592 283.322 192.592Z" fill="#F27500"/>
<path d="M244.858 246.528C250.664 251.965 264.598 258.594 273.887 241.613C272.993 242.283 287.508 265.743 301.128 241.613C302.022 241.613 315.419 265.743 327.7 241.613" stroke="#F69131" stroke-width="2" stroke-linecap="round" stroke-linejoin="round"/>
<path d="M260.266 227.313C270.091 227.313 274.333 220.164 275.226 216.589C274.333 217.259 288.847 240.719 302.468 216.589C303.361 220.164 307.604 227.313 317.429 227.313" stroke="#F69131" stroke-width="2" stroke-linecap="round" stroke-linejoin="round"/>
<g filter="url(#filter1_d)">
<path d="M188.401 262.234C189.466 297.007 200.348 328.339 217.299 351.392C235.343 326.791 246.018 292.377 244.87 254.647C243.805 219.86 232.924 188.542 215.972 165.475C197.942 190.049 187.254 224.462 188.401 262.234Z" fill="#F69131"/>
</g>
<g filter="url(#filter2_d)">
<path d="M361.699 192.078C385.332 217.593 399.545 247.552 403.649 275.881C373.536 271.015 341.791 253.992 316.121 226.276C292.488 200.761 278.275 170.802 274.171 142.473C304.274 147.329 336.02 164.352 361.699 192.078Z" fill="#F69131"/>
</g>
<path d="M216.387 164.923L202.449 152.802C202.299 152.676 202.193 152.503 202.15 152.312C202.107 152.12 202.127 151.919 202.209 151.741C202.291 151.562 202.429 151.415 202.602 151.322C202.775 151.229 202.974 151.195 203.168 151.226L205.159 151.517L195.481 142.616C195.335 142.481 195.238 142.302 195.205 142.107C195.171 141.911 195.204 141.71 195.297 141.535C195.39 141.36 195.539 141.22 195.72 141.138C195.9 141.056 196.103 141.036 196.296 141.082L199.283 141.801" fill="#F27500"/>
<path d="M352.664 162.767L366.228 150.162C366.367 150.029 366.459 149.855 366.492 149.665C366.525 149.476 366.495 149.281 366.409 149.109C366.322 148.937 366.182 148.797 366.01 148.711C365.838 148.624 365.643 148.595 365.454 148.628L363.476 148.987L372.851 139.755C372.993 139.616 373.085 139.433 373.112 139.235C373.139 139.038 373.099 138.837 372.999 138.664C372.9 138.492 372.745 138.357 372.561 138.282C372.376 138.207 372.172 138.195 371.98 138.249L369.021 139.05" fill="#F27500"/>
<path d="M284.533 99.8548L293.562 112.293C293.75 112.486 293.898 112.714 293.997 112.965C294.095 113.215 294.143 113.483 294.136 113.752C294.13 114.021 294.07 114.287 293.959 114.532C293.848 114.778 293.69 114.999 293.493 115.182L283.938 131.269C283.543 131.643 283.016 131.846 282.472 131.833C281.928 131.82 281.411 131.593 281.035 131.2L272.006 114.615C271.622 114.23 271.407 113.708 271.407 113.164C271.407 112.62 271.622 112.099 272.006 111.713L281.574 99.8686C281.762 99.6643 281.99 99.5009 282.244 99.3887C282.498 99.2766 282.773 99.218 283.05 99.2167C283.328 99.2154 283.603 99.2714 283.858 99.3812C284.113 99.491 284.343 99.6522 284.533 99.8548Z" fill="#FDE01B"/>
<path d="M281.74 127.39C283.271 130.454 283.646 131.559 283.965 131.24C282.817 132.389 281.533 131.709 281.055 131.23C278.344 126.443 272.703 116.48 271.937 114.948C271.172 113.416 271.373 112.549 271.533 112.389C273.822 108.56 280.472 100.771 282.059 99.4632C282.893 98.7756 283.6 99.226 283.971 99.462L283.973 99.4632L284.582 99.9119L274.404 113.347C276.317 116.858 280.209 124.326 281.74 127.39Z" fill="#F2D405"/>
<g filter="url(#filter3_i)">
<path d="M247.129 105.741C231.843 105.741 219.452 93.3421 219.452 78.0471C219.452 62.752 231.843 50.3529 247.129 50.3529C262.415 50.3529 274.807 62.752 274.807 78.0471C274.807 93.3421 262.415 105.741 247.129 105.741Z" fill="white"/>
</g>
<path d="M253.42 90.6353C244.387 90.6353 237.065 83.3086 237.065 74.2706C237.065 65.2326 244.387 57.9059 253.42 57.9059C262.452 57.9059 269.774 65.2326 269.774 74.2706C269.774 83.3086 262.452 90.6353 253.42 90.6353Z" fill="black"/>
<path d="M257.194 69.2353C257.194 72.7114 260.01 75.5294 263.484 75.5294C266.958 75.5294 269.774 72.7114 269.774 69.2353C269.774 65.7591 266.958 62.9412 263.484 62.9412C260.01 62.9412 257.194 65.7591 257.194 69.2353Z" fill="white"/>
<g filter="url(#filter4_i)">
<path d="M317.58 105.741C302.295 105.741 289.903 93.3421 289.903 78.0471C289.903 62.752 302.295 50.3529 317.58 50.3529C332.866 50.3529 345.258 62.752 345.258 78.0471C345.258 93.3421 332.866 105.741 317.58 105.741Z" fill="white"/>
</g>
<path d="M322.613 90.6353C313.58 90.6353 306.258 83.3086 306.258 74.2706C306.258 65.2326 313.58 57.9059 322.613 57.9059C331.645 57.9059 338.968 65.2326 338.968 74.2706C338.968 83.3086 331.645 90.6353 322.613 90.6353Z" fill="black"/>
<path d="M239.837 17.2758L201.937 55.7112C201.639 56.0112 201.261 56.2195 200.848 56.3113C200.435 56.4031 200.004 56.3746 199.607 56.2291C199.209 56.0836 198.862 55.8273 198.606 55.4906C198.35 55.1538 198.196 54.7507 198.162 54.3291V3.84202C198.13 3.49967 198.178 3.15452 198.303 2.83402C198.428 2.51352 198.625 2.22647 198.88 1.9957C199.135 1.76493 199.441 1.59682 199.772 1.50467C200.104 1.41252 200.452 1.39887 200.79 1.46485L238.661 13.5304C239.063 13.5962 239.439 13.7724 239.746 14.0391C240.054 14.3059 240.281 14.6528 240.403 15.0412C240.525 15.4296 240.537 15.8441 240.437 16.2387C240.337 16.6333 240.129 16.9923 239.837 17.2758Z" fill="#F27500"/>
<path d="M228.291 19.584L206.97 41.1857C206.806 41.3568 206.597 41.477 206.366 41.532C206.136 41.5869 205.895 41.5743 205.671 41.4955C205.448 41.4167 205.252 41.2751 205.107 41.0878C204.962 40.9004 204.875 40.6753 204.855 40.4394L205.311 9.79888C205.285 9.60262 205.306 9.40302 205.373 9.21666C205.44 9.0303 205.55 8.86257 205.695 8.7274C205.84 8.59224 206.015 8.49356 206.205 8.43954C206.396 8.38552 206.596 8.37772 206.79 8.41681L227.655 17.4556C227.882 17.4961 228.093 17.5987 228.265 17.752C228.437 17.9054 228.563 18.1034 228.629 18.324C228.695 18.5447 228.698 18.7793 228.638 19.0018C228.579 19.2242 228.459 19.4258 228.291 19.584Z" fill="black"/>
<path d="M328.273 17.345L366.228 55.7666C366.524 56.0682 366.901 56.2779 367.314 56.3705C367.727 56.4632 368.157 56.4348 368.554 56.2889C368.951 56.1431 369.298 55.8858 369.552 55.548C369.807 55.2102 369.958 54.8063 369.989 54.3846V3.89747C370.024 3.55442 369.978 3.20788 369.854 2.88593C369.73 2.56398 369.533 2.27563 369.277 2.04419C369.021 1.81276 368.715 1.64472 368.382 1.55371C368.049 1.4627 367.699 1.45127 367.361 1.52031L329.49 13.5858C329.082 13.6434 328.698 13.8146 328.383 14.0797C328.067 14.3448 327.833 14.6933 327.706 15.0852C327.579 15.4772 327.565 15.8969 327.665 16.2964C327.765 16.696 327.976 17.0593 328.273 17.345Z" fill="#F27500"/>
<path d="M339.818 19.6946L361.139 41.2549C361.303 41.426 361.513 41.5462 361.743 41.6012C361.974 41.6561 362.215 41.6434 362.438 41.5646C362.662 41.4858 362.858 41.3442 363.002 41.1569C363.147 40.9696 363.235 40.7445 363.255 40.5086L362.812 9.86805C362.838 9.67179 362.817 9.47219 362.75 9.28583C362.683 9.09947 362.573 8.93174 362.428 8.79657C362.284 8.66141 362.109 8.56269 361.918 8.50867C361.728 8.45465 361.527 8.44688 361.333 8.48598L340.454 17.5247C340.215 17.5535 339.99 17.6518 339.806 17.8074C339.623 17.963 339.488 18.1691 339.421 18.4C339.353 18.631 339.355 18.8768 339.425 19.1069C339.496 19.337 339.633 19.5413 339.818 19.6946Z" fill="black"/>
<path d="M280.28 2.61208L261.821 1.9763C261.629 1.97218 261.441 2.02983 261.284 2.14075C261.126 2.25166 261.009 2.41004 260.949 2.59255C260.889 2.77506 260.888 2.97211 260.948 3.15473C261.008 3.33736 261.125 3.49591 261.282 3.60713L262.928 4.75427L249.778 4.65752C249.577 4.65192 249.379 4.71432 249.217 4.83466C249.055 4.955 248.938 5.1263 248.886 5.32097C248.833 5.51564 248.847 5.72236 248.926 5.90787C249.006 6.09338 249.145 6.24686 249.322 6.34365L251.991 7.8501" fill="#F27500"/>
<path d="M316.3 8.44442L298.09 0.566631C297.907 0.491568 297.704 0.479061 297.513 0.531075C297.322 0.583089 297.153 0.696717 297.033 0.854281C296.914 1.01185 296.849 1.20452 296.85 1.40242C296.851 1.60032 296.918 1.79237 297.039 1.9487L298.477 3.77305" fill="#F27500"/>
<path d="M316.299 8.44402L298.089 0.566234C297.906 0.491171 297.703 0.478664 297.512 0.530678C297.321 0.582692 297.152 0.696321 297.032 0.853884C296.913 1.01145 296.848 1.20412 296.849 1.40202C296.85 1.59992 296.917 1.79197 297.038 1.94831L298.476 3.77265" fill="#F27500"/>
<path d="M296.665 3.5105L278.524 0.0276554C278.336 -0.00466385 278.143 0.0236895 277.972 0.108552C277.801 0.193414 277.662 0.330395 277.574 0.499706C277.486 0.669016 277.455 0.861839 277.484 1.05029C277.513 1.23874 277.601 1.41304 277.736 1.54794L279.119 2.93001" fill="#F27500"/>
<path d="M326.387 67.9765C326.387 71.4526 329.203 74.2706 332.677 74.2706C336.151 74.2706 338.968 71.4526 338.968 67.9765C338.968 64.5003 336.151 61.6823 332.677 61.6823C329.203 61.6823 326.387 64.5003 326.387 67.9765Z" fill="white"/>
<ellipse rx="22.0161" ry="11.9588" transform="matrix(-1 0 0 1 316.952 107.629)" fill="#F27500"/>
<ellipse rx="27.0484" ry="11.9588" transform="matrix(-1 0 0 1 243.984 107.629)" fill="#F27500"/>
</g>
<path d="M229.396 397.89V387.318C229.396 383.497 232.491 380.4 236.31 380.4C240.128 380.4 243.224 383.497 243.224 387.318V397.89C243.224 401.711 240.128 404.808 236.31 404.808C232.491 404.808 229.396 401.711 229.396 397.89Z" fill="#FDE01B"/>
<path d="M241.841 397.89V387.318C241.841 383.497 244.936 380.4 248.755 380.4C252.574 380.4 255.669 383.497 255.669 387.318V397.89C255.669 401.711 252.574 404.808 248.755 404.808C244.936 404.808 241.841 401.711 241.841 397.89Z" fill="#FDE01B"/>
<path d="M254.287 398.388V387.816C254.287 383.995 257.383 380.898 261.201 380.898C265.02 380.898 268.116 383.995 268.116 387.816V398.388C268.116 402.209 265.02 405.306 261.201 405.306C257.383 405.306 254.287 402.209 254.287 398.388Z" fill="#FDE01B"/>
<path d="M295.62 396.796V386.225C295.62 382.404 298.716 379.307 302.534 379.307C306.353 379.307 309.449 382.404 309.449 386.225V396.796C309.449 400.617 306.353 403.715 302.534 403.715C298.716 403.715 295.62 400.617 295.62 396.796Z" fill="#FDE01B"/>
<path d="M308.065 396.796V386.225C308.065 382.404 311.161 379.307 314.98 379.307C318.798 379.307 321.894 382.404 321.894 386.225V396.796C321.894 400.617 318.798 403.715 314.98 403.715C311.161 403.715 308.065 400.617 308.065 396.796Z" fill="#FDE01B"/>
<path d="M320.498 397.294V386.723C320.498 382.902 323.594 379.804 327.412 379.804C331.231 379.804 334.327 382.902 334.327 386.723V397.294C334.327 401.115 331.231 404.213 327.412 404.213C323.594 404.213 320.498 401.115 320.498 397.294Z" fill="#FDE01B"/>
<path d="M239.95 362.532C239.95 359.955 244.027 357.866 249.057 357.866C254.086 357.866 258.163 359.955 258.163 362.532V385.506C258.163 388.083 254.086 390.172 249.057 390.172C244.027 390.172 239.95 388.083 239.95 385.506V362.532Z" fill="#FDE01B"/>
<path d="M307.006 362.532C307.006 359.955 310.898 357.866 315.699 357.866C320.5 357.866 324.392 359.955 324.392 362.532V385.506C324.392 388.083 320.5 390.172 315.699 390.172C310.898 390.172 307.006 388.083 307.006 385.506V362.532Z" fill="#FDE01B"/>
<defs>
<filter id="filter0_i" x="188" y="-15" width="210" height="443" filterUnits="userSpaceOnUse" color-interpolation-filters="sRGB">
<feFlood flood-opacity="0" result="BackgroundImageFix"/>
<feBlend mode="normal" in="SourceGraphic" in2="BackgroundImageFix" result="shape"/>
<feColorMatrix in="SourceAlpha" type="matrix" values="0 0 0 0 0 0 0 0 0 0 0 0 0 0 0 0 0 0 127 0" result="hardAlpha"/>
<feOffset dx="21" dy="-21"/>
<feGaussianBlur stdDeviation="7.5"/>
<feComposite in2="hardAlpha" operator="arithmetic" k2="-1" k3="1"/>
<feColorMatrix type="matrix" values="0 0 0 0 0 0 0 0 0 0 0 0 0 0 0 0 0 0 0.12 0"/>
<feBlend mode="normal" in2="shape" result="effect1_innerShadow"/>
</filter>
<filter id="filter1_d" x="184.317" y="165.475" width="64.6368" height="193.916" filterUnits="userSpaceOnUse" color-interpolation-filters="sRGB">
<feFlood flood-opacity="0" result="BackgroundImageFix"/>
<feColorMatrix in="SourceAlpha" type="matrix" values="0 0 0 0 0 0 0 0 0 0 0 0 0 0 0 0 0 0 127 0"/>
<feOffset dy="4"/>
<feGaussianBlur stdDeviation="2"/>
<feColorMatrix type="matrix" values="0 0 0 0 0 0 0 0 0 0 0 0 0 0 0 0 0 0 0.25 0"/>
<feBlend mode="normal" in2="BackgroundImageFix" result="effect1_dropShadow"/>
<feBlend mode="normal" in="SourceGraphic" in2="effect1_dropShadow" result="shape"/>
</filter>
<filter id="filter2_d" x="270.171" y="142.473" width="137.478" height="141.408" filterUnits="userSpaceOnUse" color-interpolation-filters="sRGB">
<feFlood flood-opacity="0" result="BackgroundImageFix"/>
<feColorMatrix in="SourceAlpha" type="matrix" values="0 0 0 0 0 0 0 0 0 0 0 0 0 0 0 0 0 0 127 0"/>
<feOffset dy="4"/>
<feGaussianBlur stdDeviation="2"/>
<feColorMatrix type="matrix" values="0 0 0 0 0 0 0 0 0 0 0 0 0 0 0 0 0 0 0.25 0"/>
<feBlend mode="normal" in2="BackgroundImageFix" result="effect1_dropShadow"/>
<feBlend mode="normal" in="SourceGraphic" in2="effect1_dropShadow" result="shape"/>
</filter>
<filter id="filter3_i" x="219.452" y="50.3529" width="55.3548" height="59.3882" filterUnits="userSpaceOnUse" color-interpolation-filters="sRGB">
<feFlood flood-opacity="0" result="BackgroundImageFix"/>
<feBlend mode="normal" in="SourceGraphic" in2="BackgroundImageFix" result="shape"/>
<feColorMatrix in="SourceAlpha" type="matrix" values="0 0 0 0 0 0 0 0 0 0 0 0 0 0 0 0 0 0 127 0" result="hardAlpha"/>
<feOffset dy="4"/>
<feGaussianBlur stdDeviation="2"/>
<feComposite in2="hardAlpha" operator="arithmetic" k2="-1" k3="1"/>
<feColorMatrix type="matrix" values="0 0 0 0 0 0 0 0 0 0 0 0 0 0 0 0 0 0 0.25 0"/>
<feBlend mode="normal" in2="shape" result="effect1_innerShadow"/>
</filter>
<filter id="filter4_i" x="289.903" y="50.3529" width="55.3548" height="59.3882" filterUnits="userSpaceOnUse" color-interpolation-filters="sRGB">
<feFlood flood-opacity="0" result="BackgroundImageFix"/>
<feBlend mode="normal" in="SourceGraphic" in2="BackgroundImageFix" result="shape"/>
<feColorMatrix in="SourceAlpha" type="matrix" values="0 0 0 0 0 0 0 0 0 0 0 0 0 0 0 0 0 0 127 0" result="hardAlpha"/>
<feOffset dy="4"/>
<feGaussianBlur stdDeviation="2"/>
<feComposite in2="hardAlpha" operator="arithmetic" k2="-1" k3="1"/>
<feColorMatrix type="matrix" values="0 0 0 0 0 0 0 0 0 0 0 0 0 0 0 0 0 0 0.25 0"/>
<feBlend mode="normal" in2="shape" result="effect1_innerShadow"/>
</filter>
<clipPath id="clip0">
<rect width="195" height="428" fill="white" transform="matrix(-1 0 0 1 383 0)"/>
</clipPath>
</defs>
</svg>
