<svg width="160" height="352" viewBox="0 0 160 352" fill="none" xmlns="http://www.w3.org/2000/svg">
<g clip-path="url(#clip0)" filter="url(#filter0_i)">
<path d="M38.0741 303.897C15.452 284.744 0.385742 250.633 0.385742 211.736C0.385742 151.835 36.1228 103.277 80.1985 103.277C124.274 103.277 160.011 151.835 160.011 211.736C160.011 249.996 145.433 283.619 123.423 302.93" fill="#F27500"/>
<path d="M81.7867 158.393C124.864 158.393 159.784 123.406 159.784 80.248C159.784 37.0896 124.864 2.10278 81.7867 2.10278C38.7098 2.10278 3.78906 37.0896 3.78906 80.248C3.78906 123.406 38.7098 158.393 81.7867 158.393Z" fill="#F27500"/>
<path d="M113.347 202.752C108.583 207.224 97.1504 212.675 89.5286 198.71C90.2615 199.261 78.3525 218.555 67.1763 198.71C66.4435 198.71 55.4505 218.555 45.3737 198.71" stroke="#F69D49" stroke-width="2" stroke-linecap="round" stroke-linejoin="round"/>
<path d="M100.705 186.949C92.6431 186.949 89.162 181.069 88.4291 178.129C89.162 178.68 77.253 197.975 66.0768 178.129C65.3439 181.069 61.8628 186.949 53.8013 186.949" stroke="#F69D49" stroke-width="2" stroke-linecap="round" stroke-linejoin="round"/>
<g filter="url(#filter1_d)">
<path d="M159.671 215.669C158.797 244.267 149.869 270.036 135.96 288.995C121.154 268.762 112.396 240.46 113.338 209.429C114.211 180.819 123.14 155.063 137.049 136.092C151.843 156.302 160.613 184.604 159.671 215.669Z" fill="#F69D49"/>
</g>
<g filter="url(#filter2_d)">
<path d="M17.4782 157.97C-1.91295 178.955 -13.5751 203.594 -16.9427 226.893C7.76525 222.891 33.8129 208.891 54.875 186.096C74.2661 165.112 85.9283 140.472 89.2959 117.174C64.5957 121.168 38.548 135.168 17.4782 157.97Z" fill="#F69D49"/>
</g>
<path d="M136.708 135.637L148.144 125.669C148.268 125.565 148.354 125.423 148.39 125.266C148.425 125.108 148.408 124.943 148.342 124.796C148.275 124.649 148.161 124.528 148.019 124.452C147.877 124.375 147.714 124.348 147.554 124.373L145.921 124.612L153.862 117.292C153.982 117.181 154.062 117.034 154.089 116.873C154.116 116.712 154.089 116.547 154.013 116.402C153.936 116.258 153.815 116.144 153.666 116.076C153.518 116.009 153.352 115.993 153.193 116.03L150.742 116.621" fill="#F27500"/>
<path d="M24.8912 133.864L13.7616 123.498C13.6476 123.388 13.5716 123.245 13.5449 123.089C13.5182 122.933 13.5422 122.773 13.6133 122.631C13.6845 122.49 13.799 122.375 13.9401 122.304C14.0812 122.233 14.2413 122.209 14.397 122.236L16.0193 122.532L8.32737 114.939C8.21061 114.824 8.13527 114.674 8.11319 114.511C8.09112 114.349 8.12357 114.184 8.20543 114.042C8.28728 113.9 8.41389 113.789 8.56536 113.727C8.71683 113.666 8.88455 113.656 9.04211 113.7L11.4699 114.359" fill="#F27500"/>
<path d="M83.7267 82.1236L91.1351 92.3535C91.2896 92.5119 91.4109 92.6996 91.4919 92.9056C91.5729 93.1117 91.6119 93.3319 91.6066 93.5533C91.6013 93.7747 91.5518 93.9928 91.4611 94.1947C91.3704 94.3967 91.2403 94.5784 91.0784 94.7291L83.2389 107.96C82.9148 108.268 82.4823 108.434 82.0359 108.424C81.5896 108.413 81.1656 108.226 80.8564 107.903L73.448 94.2631C73.1335 93.9458 72.957 93.5168 72.957 93.0696C72.957 92.6224 73.1335 92.1934 73.448 91.8761L81.2989 82.135C81.4532 81.9669 81.6403 81.8325 81.8488 81.7403C82.0572 81.648 82.2825 81.5999 82.5103 81.5988C82.7382 81.5978 82.9639 81.6438 83.1732 81.7341C83.3825 81.8244 83.5709 81.957 83.7267 82.1236Z" fill="#FDE01B"/>
<path d="M81.4354 104.769C82.6916 107.289 82.9993 108.198 83.261 107.935C82.3188 108.88 81.2659 108.322 80.8733 107.928C78.6487 103.99 74.0202 95.7967 73.3921 94.5367C72.7639 93.2767 72.9294 92.5635 73.0603 92.4323C74.9386 89.2829 80.3949 82.877 81.6971 81.8015C82.3817 81.236 82.9619 81.6065 83.266 81.8006L83.2674 81.8015L83.7673 82.1706L75.4158 93.2198C76.9861 96.1072 80.1791 102.249 81.4354 104.769Z" fill="#DCC31E"/>
<g filter="url(#filter3_i)">
<path d="M111.484 86.9647C124.026 86.9647 134.194 76.7674 134.194 64.1883C134.194 51.6092 124.026 41.4118 111.484 41.4118C98.9419 41.4118 88.7744 51.6092 88.7744 64.1883C88.7744 76.7674 98.9419 86.9647 111.484 86.9647Z" fill="white"/>
</g>
<path d="M106.323 74.5411C113.734 74.5411 119.742 68.5154 119.742 61.0823C119.742 53.6492 113.734 47.6235 106.323 47.6235C98.9114 47.6235 92.9033 53.6492 92.9033 61.0823C92.9033 68.5154 98.9114 74.5411 106.323 74.5411Z" fill="black"/>
<path d="M103.226 56.9412C103.226 59.8 100.915 62.1176 98.0646 62.1176C95.2141 62.1176 92.9033 59.8 92.9033 56.9412C92.9033 54.0823 95.2141 51.7647 98.0646 51.7647C100.915 51.7647 103.226 54.0823 103.226 56.9412Z" fill="white"/>
<g filter="url(#filter4_i)">
<path d="M53.6775 86.9647C66.2197 86.9647 76.3871 76.7674 76.3871 64.1883C76.3871 51.6092 66.2197 41.4118 53.6775 41.4118C41.1352 41.4118 30.9678 51.6092 30.9678 64.1883C30.9678 76.7674 41.1352 86.9647 53.6775 86.9647Z" fill="white"/>
</g>
<path d="M49.5483 74.5411C56.9596 74.5411 62.9676 68.5154 62.9676 61.0823C62.9676 53.6492 56.9596 47.6235 49.5483 47.6235C42.137 47.6235 36.1289 53.6492 36.1289 61.0823C36.1289 68.5154 42.137 74.5411 49.5483 74.5411Z" fill="black"/>
<path d="M117.467 14.2081L148.564 45.8185C148.809 46.0653 149.119 46.2366 149.458 46.3121C149.797 46.3876 150.15 46.3641 150.476 46.2445C150.802 46.1249 151.087 45.914 151.297 45.6371C151.507 45.3601 151.633 45.0286 151.661 44.6819V3.15977C151.688 2.87821 151.648 2.59435 151.546 2.33076C151.444 2.06717 151.281 1.8311 151.072 1.6413C150.863 1.45151 150.612 1.31326 150.34 1.23747C150.068 1.16168 149.783 1.15045 149.506 1.20472L118.431 11.1278C118.102 11.1819 117.793 11.3268 117.541 11.5462C117.289 11.7656 117.102 12.0509 117.002 12.3703C116.902 12.6897 116.893 13.0307 116.975 13.3552C117.057 13.6797 117.227 13.9749 117.467 14.2081Z" fill="#F27500"/>
<path d="M126.94 16.1064L144.434 33.8724C144.569 34.0131 144.741 34.112 144.93 34.1572C145.119 34.2023 145.317 34.1919 145.5 34.1271C145.683 34.0623 145.844 33.9459 145.963 33.7918C146.082 33.6378 146.154 33.4526 146.17 33.2586L145.796 8.0589C145.817 7.89749 145.8 7.73333 145.745 7.58006C145.69 7.4268 145.599 7.28885 145.481 7.17768C145.362 7.06652 145.218 6.98537 145.062 6.94094C144.906 6.89651 144.741 6.89009 144.582 6.92224L127.462 14.356C127.276 14.3893 127.103 14.4737 126.962 14.5998C126.821 14.7259 126.717 14.8888 126.663 15.0702C126.609 15.2517 126.606 15.4447 126.655 15.6276C126.704 15.8106 126.803 15.9763 126.94 16.1064Z" fill="black"/>
<path d="M44.9041 14.2651L13.7618 45.8642C13.5185 46.1122 13.209 46.2846 12.8704 46.3608C12.5317 46.437 12.1783 46.4137 11.8526 46.2937C11.5269 46.1738 11.2426 45.9622 11.0338 45.6844C10.8251 45.4066 10.7009 45.0743 10.6759 44.7275V3.20542C10.647 2.92328 10.6848 2.63828 10.7862 2.3735C10.8877 2.10871 11.0499 1.87157 11.2597 1.68123C11.4696 1.49089 11.7212 1.35269 11.9943 1.27784C12.2673 1.20299 12.5541 1.19359 12.8314 1.25037L43.9057 11.1734C44.2405 11.2208 44.5553 11.3615 44.8141 11.5796C45.073 11.7976 45.2654 12.0842 45.3695 12.4066C45.4736 12.7289 45.4851 13.0741 45.4029 13.4027C45.3206 13.7313 45.1477 14.0301 44.9041 14.2651Z" fill="#F27500"/>
<path d="M35.4306 16.1974L17.9364 33.9292C17.8021 34.07 17.6301 34.1688 17.4411 34.214C17.252 34.2592 17.054 34.2488 16.8707 34.1839C16.6874 34.1191 16.5267 34.0027 16.4079 33.8487C16.289 33.6946 16.2171 33.5095 16.2007 33.3154L16.5637 8.11576C16.5424 7.95436 16.56 7.7902 16.6148 7.63693C16.6696 7.48367 16.7601 7.34571 16.8788 7.23455C16.9975 7.12339 17.141 7.0422 17.2973 6.99777C17.4536 6.95334 17.6183 6.94696 17.7776 6.97911L34.9087 14.4128C35.1049 14.4365 35.2898 14.5174 35.4405 14.6453C35.5913 14.7733 35.7013 14.9428 35.7569 15.1327C35.8124 15.3227 35.8111 15.5248 35.7531 15.7141C35.6951 15.9033 35.583 16.0714 35.4306 16.1974Z" fill="black"/>
<path d="M84.2827 2.14827L99.4285 1.62538C99.5862 1.622 99.7409 1.66941 99.8698 1.76063C99.9986 1.85186 100.095 1.98211 100.144 2.13221C100.194 2.28231 100.194 2.44437 100.145 2.59457C100.096 2.74477 99.9996 2.87516 99.871 2.96663L98.5209 3.91007L109.31 3.8305C109.475 3.8259 109.638 3.87722 109.771 3.97619C109.903 4.07516 109.999 4.21604 110.042 4.37614C110.086 4.53624 110.074 4.70626 110.009 4.85883C109.944 5.01139 109.83 5.13762 109.684 5.21722L107.495 6.45617" fill="#F27500"/>
<path d="M54.729 6.94494L69.6706 0.46601C69.8209 0.404276 69.9873 0.39399 70.1441 0.436768C70.3008 0.479546 70.4391 0.572997 70.5374 0.702583C70.6357 0.832168 70.6885 0.990628 70.6876 1.15339C70.6868 1.31615 70.6324 1.47409 70.5327 1.60267L69.3529 3.10306" fill="#F27500"/>
<path d="M54.729 6.94463L69.6706 0.465705C69.8209 0.403971 69.9873 0.393685 70.1441 0.436463C70.3008 0.479241 70.4391 0.572692 70.5374 0.702278C70.6357 0.831863 70.6885 0.990323 70.6876 1.15308C70.6868 1.31584 70.6324 1.47379 70.5327 1.60236L69.3529 3.10276" fill="#F27500"/>
<path d="M70.8389 2.88714L85.7236 0.0227392C85.8779 -0.00384111 86.0366 0.0194775 86.1768 0.0892708C86.3169 0.159064 86.4314 0.271722 86.5034 0.410968C86.5754 0.550213 86.6013 0.708797 86.5774 0.863785C86.5535 1.01877 86.4809 1.16212 86.3703 1.27307L85.2358 2.40973" fill="#F27500"/>
<path d="M46.4515 55.9059C46.4515 58.7648 44.1407 61.0823 41.2902 61.0823C38.4397 61.0823 36.1289 58.7648 36.1289 55.9059C36.1289 53.047 38.4397 50.7294 41.2902 50.7294C44.1407 50.7294 46.4515 53.047 46.4515 55.9059Z" fill="white"/>
<ellipse cx="54.1934" cy="88.5176" rx="18.0645" ry="9.83529" fill="#F27500"/>
<ellipse cx="114.065" cy="88.5176" rx="22.1935" ry="9.83529" fill="#F27500"/>
</g>
<path d="M126.035 327.236V318.542C126.035 315.4 123.495 312.852 120.361 312.852C117.228 312.852 114.688 315.4 114.688 318.542V327.236C114.688 330.379 117.228 332.926 120.361 332.926C123.495 332.926 126.035 330.379 126.035 327.236Z" fill="#FDE01B"/>
<path d="M115.823 327.236V318.542C115.823 315.4 113.283 312.852 110.149 312.852C107.016 312.852 104.476 315.4 104.476 318.542V327.236C104.476 330.379 107.016 332.926 110.149 332.926C113.283 332.926 115.823 330.379 115.823 327.236Z" fill="#FDE01B"/>
<path d="M105.611 327.646V318.952C105.611 315.809 103.071 313.262 99.9376 313.262C96.8043 313.262 94.2643 315.809 94.2643 318.952V327.646C94.2643 330.788 96.8043 333.336 99.9376 333.336C103.071 333.336 105.611 330.788 105.611 327.646Z" fill="#FDE01B"/>
<path d="M71.6963 326.337V317.643C71.6963 314.5 69.1563 311.953 66.023 311.953C62.8898 311.953 60.3498 314.5 60.3498 317.643V326.337C60.3498 329.48 62.8898 332.027 66.023 332.027C69.1563 332.027 71.6963 329.48 71.6963 326.337Z" fill="#FDE01B"/>
<path d="M61.4844 326.337V317.643C61.4844 314.5 58.9444 311.953 55.8111 311.953C52.6779 311.953 50.1379 314.5 50.1379 317.643V326.337C50.1379 329.48 52.6779 332.027 55.8111 332.027C58.9444 332.027 61.4844 329.48 61.4844 326.337Z" fill="#FDE01B"/>
<path d="M51.2842 326.747V318.052C51.2842 314.91 48.7442 312.362 45.6109 312.362C42.4777 312.362 39.9377 314.91 39.9377 318.052V326.747C39.9377 329.889 42.4777 332.437 45.6109 332.437C48.7442 332.437 51.2842 329.889 51.2842 326.747Z" fill="#FDE01B"/>
<path d="M117.375 298.157C117.375 296.038 114.029 294.32 109.903 294.32C105.776 294.32 102.431 296.038 102.431 298.157V317.051C102.431 319.171 105.776 320.889 109.903 320.889C114.029 320.889 117.375 319.171 117.375 317.051V298.157Z" fill="#FDE01B"/>
<path d="M62.3536 298.157C62.3536 296.038 59.1604 294.32 55.2213 294.32C51.2821 294.32 48.0889 296.038 48.0889 298.157V317.051C48.0889 319.171 51.2821 320.889 55.2213 320.889C59.1604 320.889 62.3536 319.171 62.3536 317.051V298.157Z" fill="#FDE01B"/>
<defs>
<filter id="filter0_i" x="0" y="-15" width="175" height="367" filterUnits="userSpaceOnUse" color-interpolation-filters="sRGB">
<feFlood flood-opacity="0" result="BackgroundImageFix"/>
<feBlend mode="normal" in="SourceGraphic" in2="BackgroundImageFix" result="shape"/>
<feColorMatrix in="SourceAlpha" type="matrix" values="0 0 0 0 0 0 0 0 0 0 0 0 0 0 0 0 0 0 127 0" result="hardAlpha"/>
<feOffset dx="21" dy="-21"/>
<feGaussianBlur stdDeviation="7.5"/>
<feComposite in2="hardAlpha" operator="arithmetic" k2="-1" k3="1"/>
<feColorMatrix type="matrix" values="0 0 0 0 0 0 0 0 0 0 0 0 0 0 0 0 0 0 0.12 0"/>
<feBlend mode="normal" in2="shape" result="effect1_innerShadow"/>
</filter>
<filter id="filter1_d" x="109.269" y="136.092" width="54.4713" height="160.903" filterUnits="userSpaceOnUse" color-interpolation-filters="sRGB">
<feFlood flood-opacity="0" result="BackgroundImageFix"/>
<feColorMatrix in="SourceAlpha" type="matrix" values="0 0 0 0 0 0 0 0 0 0 0 0 0 0 0 0 0 0 127 0"/>
<feOffset dy="4"/>
<feGaussianBlur stdDeviation="2"/>
<feColorMatrix type="matrix" values="0 0 0 0 0 0 0 0 0 0 0 0 0 0 0 0 0 0 0.25 0"/>
<feBlend mode="normal" in2="BackgroundImageFix" result="effect1_dropShadow"/>
<feBlend mode="normal" in="SourceGraphic" in2="effect1_dropShadow" result="shape"/>
</filter>
<filter id="filter2_d" x="-20.9429" y="117.174" width="114.239" height="117.719" filterUnits="userSpaceOnUse" color-interpolation-filters="sRGB">
<feFlood flood-opacity="0" result="BackgroundImageFix"/>
<feColorMatrix in="SourceAlpha" type="matrix" values="0 0 0 0 0 0 0 0 0 0 0 0 0 0 0 0 0 0 127 0"/>
<feOffset dy="4"/>
<feGaussianBlur stdDeviation="2"/>
<feColorMatrix type="matrix" values="0 0 0 0 0 0 0 0 0 0 0 0 0 0 0 0 0 0 0.25 0"/>
<feBlend mode="normal" in2="BackgroundImageFix" result="effect1_dropShadow"/>
<feBlend mode="normal" in="SourceGraphic" in2="effect1_dropShadow" result="shape"/>
</filter>
<filter id="filter3_i" x="88.7744" y="41.4118" width="45.4193" height="49.5529" filterUnits="userSpaceOnUse" color-interpolation-filters="sRGB">
<feFlood flood-opacity="0" result="BackgroundImageFix"/>
<feBlend mode="normal" in="SourceGraphic" in2="BackgroundImageFix" result="shape"/>
<feColorMatrix in="SourceAlpha" type="matrix" values="0 0 0 0 0 0 0 0 0 0 0 0 0 0 0 0 0 0 127 0" result="hardAlpha"/>
<feOffset dy="4"/>
<feGaussianBlur stdDeviation="2"/>
<feComposite in2="hardAlpha" operator="arithmetic" k2="-1" k3="1"/>
<feColorMatrix type="matrix" values="0 0 0 0 0 0 0 0 0 0 0 0 0 0 0 0 0 0 0.25 0"/>
<feBlend mode="normal" in2="shape" result="effect1_innerShadow"/>
</filter>
<filter id="filter4_i" x="30.9678" y="41.4118" width="45.4194" height="49.5529" filterUnits="userSpaceOnUse" color-interpolation-filters="sRGB">
<feFlood flood-opacity="0" result="BackgroundImageFix"/>
<feBlend mode="normal" in="SourceGraphic" in2="BackgroundImageFix" result="shape"/>
<feColorMatrix in="SourceAlpha" type="matrix" values="0 0 0 0 0 0 0 0 0 0 0 0 0 0 0 0 0 0 127 0" result="hardAlpha"/>
<feOffset dy="4"/>
<feGaussianBlur stdDeviation="2"/>
<feComposite in2="hardAlpha" operator="arithmetic" k2="-1" k3="1"/>
<feColorMatrix type="matrix" values="0 0 0 0 0 0 0 0 0 0 0 0 0 0 0 0 0 0 0.25 0"/>
<feBlend mode="normal" in2="shape" result="effect1_innerShadow"/>
</filter>
<clipPath id="clip0">
<rect width="160" height="352" fill="white"/>
</clipPath>
</defs>
</svg>
