<svg width="150" height="225" viewBox="0 0 150 225" fill="none" xmlns="http://www.w3.org/2000/svg">
<g clip-path="url(#clip0)" filter="url(#filter0_i)">
<path d="M71.51 194.252C56.947 182.01 47.248 160.206 47.248 135.343C47.248 97.0534 70.2538 66.0149 98.6275 66.0149C127.001 66.0149 150.007 97.0534 150.007 135.343C150.007 159.799 140.622 181.29 126.454 193.635" fill="#F27500"/>
<path d="M99.6504 101.246C127.381 101.246 149.861 78.8818 149.861 51.2948C149.861 23.7077 127.381 1.34399 99.6504 1.34399C71.9197 1.34399 49.4395 23.7077 49.4395 51.2948C49.4395 78.8818 71.9197 101.246 99.6504 101.246Z" fill="#F27500"/>
<path d="M119.967 129.6C116.9 132.458 109.54 135.943 104.634 127.016C105.106 127.369 97.4393 139.702 90.2446 127.016C89.7729 127.016 82.6962 139.702 76.2092 127.016" stroke="#F69D49" stroke-width="2" stroke-linecap="round" stroke-linejoin="round"/>
<path d="M111.829 119.499C106.64 119.499 104.399 115.74 103.927 113.861C104.399 114.213 96.7321 126.546 89.5375 113.861C89.0657 115.74 86.8247 119.499 81.6351 119.499" stroke="#F69D49" stroke-width="2" stroke-linecap="round" stroke-linejoin="round"/>
<g filter="url(#filter1_d)">
<path d="M149.789 137.857C149.226 156.137 143.478 172.608 134.524 184.727C124.993 171.794 119.355 153.703 119.961 133.868C120.524 115.58 126.272 99.1167 135.226 86.9905C144.749 99.9087 150.395 118 149.789 137.857Z" fill="#F69D49"/>
</g>
<path d="M135.006 86.6999L142.368 80.328C142.447 80.2616 142.503 80.1711 142.526 80.0704C142.549 79.9696 142.538 79.8641 142.495 79.7701C142.452 79.6761 142.379 79.5988 142.287 79.5499C142.196 79.5011 142.09 79.4835 141.988 79.4998L140.936 79.6523L146.049 74.9733C146.126 74.9025 146.177 74.8083 146.194 74.7055C146.212 74.6027 146.195 74.497 146.146 74.4049C146.096 74.3128 146.018 74.2395 145.922 74.1965C145.827 74.1534 145.72 74.143 145.618 74.1668L144.04 74.5446" fill="#F27500"/>
<path d="M63.0239 85.5667L55.8593 78.9405C55.7858 78.8705 55.737 78.7789 55.7198 78.6792C55.7026 78.5795 55.718 78.477 55.7638 78.3867C55.8096 78.2964 55.8833 78.223 55.9742 78.1776C56.065 78.1321 56.1681 78.1168 56.2683 78.134L57.3127 78.3229L52.361 73.4695C52.2858 73.3961 52.2373 73.3 52.2231 73.1962C52.2089 73.0924 52.2298 72.9868 52.2825 72.8961C52.3352 72.8054 52.4167 72.7347 52.5142 72.6951C52.6117 72.6556 52.7197 72.6494 52.8211 72.6775L54.384 73.0989" fill="#F27500"/>
<path d="M100.899 52.4939L105.668 59.0329C105.767 59.1341 105.846 59.2541 105.898 59.3858C105.95 59.5175 105.975 59.6583 105.971 59.7998C105.968 59.9413 105.936 60.0807 105.878 60.2098C105.819 60.3389 105.736 60.455 105.631 60.5514L100.585 69.0085C100.376 69.2052 100.098 69.3118 99.8104 69.305C99.523 69.2981 99.2501 69.1785 99.0511 68.9722L94.2819 60.2535C94.0794 60.0507 93.9658 59.7765 93.9658 59.4906C93.9658 59.2048 94.0794 58.9305 94.2819 58.7277L99.3359 52.5012C99.4352 52.3937 99.5557 52.3078 99.6899 52.2489C99.8241 52.1899 99.9691 52.1591 100.116 52.1585C100.262 52.1578 100.408 52.1872 100.542 52.2449C100.677 52.3026 100.798 52.3874 100.899 52.4939Z" fill="#FDE01B"/>
<g filter="url(#filter2_i)">
<path d="M118.768 55.5883C126.842 55.5883 133.387 49.0701 133.387 41.0295C133.387 32.9889 126.842 26.4707 118.768 26.4707C110.694 26.4707 104.148 32.9889 104.148 41.0295C104.148 49.0701 110.694 55.5883 118.768 55.5883Z" fill="white"/>
</g>
<path d="M115.445 47.647C120.216 47.647 124.084 43.7954 124.084 39.0441C124.084 34.2928 120.216 30.4412 115.445 30.4412C110.674 30.4412 106.807 34.2928 106.807 39.0441C106.807 43.7954 110.674 47.647 115.445 47.647Z" fill="black"/>
<path d="M113.452 36.397C113.452 38.2244 111.964 39.7058 110.129 39.7058C108.294 39.7058 106.807 38.2244 106.807 36.397C106.807 34.5695 108.294 33.0881 110.129 33.0881C111.964 33.0881 113.452 34.5695 113.452 36.397Z" fill="white"/>
<g filter="url(#filter3_i)">
<path d="M81.5549 55.5883C89.629 55.5883 96.1743 49.0701 96.1743 41.0295C96.1743 32.9889 89.629 26.4707 81.5549 26.4707C73.4809 26.4707 66.9355 32.9889 66.9355 41.0295C66.9355 49.0701 73.4809 55.5883 81.5549 55.5883Z" fill="white"/>
</g>
<path d="M78.8965 47.647C83.6676 47.647 87.5352 43.7954 87.5352 39.0441C87.5352 34.2928 83.6676 30.4412 78.8965 30.4412C74.1255 30.4412 70.2578 34.2928 70.2578 39.0441C70.2578 43.7954 74.1255 47.647 78.8965 47.647Z" fill="black"/>
<path d="M122.619 9.08194L142.638 29.2875C142.795 29.4452 142.995 29.5547 143.213 29.603C143.431 29.6512 143.659 29.6362 143.869 29.5598C144.079 29.4833 144.262 29.3485 144.397 29.1715C144.532 28.9945 144.614 28.7826 144.632 28.5609V2.01981C144.649 1.83984 144.623 1.6584 144.557 1.48991C144.492 1.32142 144.387 1.17052 144.252 1.0492C144.118 0.927885 143.956 0.839511 143.781 0.791066C143.606 0.74262 143.422 0.735448 143.244 0.770135L123.24 7.11298C123.028 7.14762 122.829 7.24021 122.667 7.38045C122.504 7.52069 122.384 7.70306 122.32 7.90723C122.255 8.1114 122.249 8.32934 122.302 8.53676C122.355 8.74418 122.465 8.93292 122.619 9.08194V9.08194Z" fill="#F27500"/>
<path d="M128.717 10.2953L139.979 21.6514C140.066 21.7413 140.177 21.8045 140.298 21.8334C140.42 21.8623 140.547 21.8556 140.665 21.8142C140.783 21.7728 140.887 21.6984 140.963 21.5999C141.04 21.5014 141.086 21.3831 141.097 21.2591L140.856 5.1513C140.869 5.04812 140.858 4.94319 140.823 4.84522C140.788 4.74725 140.729 4.65908 140.653 4.58802C140.576 4.51696 140.484 4.46509 140.383 4.43669C140.283 4.40829 140.177 4.40419 140.074 4.42474L129.053 9.17642C128.934 9.19771 128.822 9.25167 128.731 9.33228C128.641 9.41289 128.574 9.51699 128.539 9.63298C128.504 9.74898 128.503 9.87231 128.534 9.98925C128.566 10.1062 128.629 10.2122 128.717 10.2953Z" fill="black"/>
<path d="M75.9067 9.11833L55.8588 29.3166C55.7022 29.4751 55.5029 29.5854 55.2849 29.6341C55.067 29.6828 54.8395 29.6679 54.6298 29.5912C54.4201 29.5145 54.2371 29.3793 54.1027 29.2017C53.9683 29.0241 53.8883 28.8117 53.8723 28.5901V2.04895C53.8537 1.8686 53.878 1.68643 53.9433 1.51718C54.0086 1.34793 54.113 1.19634 54.2481 1.07468C54.3832 0.95301 54.5452 0.864675 54.721 0.816829C54.8967 0.768984 55.0813 0.762977 55.2599 0.799268L75.2639 7.14209C75.4795 7.1724 75.6821 7.26238 75.8487 7.40176C76.0154 7.54113 76.1393 7.7243 76.2063 7.93035C76.2733 8.13641 76.2807 8.35703 76.2277 8.56709C76.1748 8.77714 76.0635 8.96816 75.9067 9.11833V9.11833Z" fill="#F27500"/>
<path d="M69.8089 10.3535L58.5471 21.6878C58.4606 21.7777 58.3499 21.8409 58.2282 21.8698C58.1065 21.8987 57.979 21.892 57.861 21.8506C57.743 21.8092 57.6396 21.7347 57.5631 21.6363C57.4865 21.5378 57.4403 21.4194 57.4297 21.2954L57.6634 5.18768C57.6497 5.08451 57.661 4.97958 57.6963 4.88161C57.7315 4.78364 57.7898 4.69546 57.8662 4.6244C57.9427 4.55335 58.035 4.50145 58.1356 4.47305C58.2363 4.44465 58.3423 4.44057 58.4448 4.46112L69.473 9.21279C69.5993 9.22793 69.7183 9.27962 69.8154 9.36141C69.9124 9.44321 69.9832 9.55153 70.019 9.67296C70.0547 9.79439 70.0539 9.92359 70.0166 10.0446C69.9792 10.1655 69.907 10.2729 69.8089 10.3535V10.3535Z" fill="black"/>
<path d="M101.257 1.37316L111.007 1.03893C111.108 1.03676 111.208 1.06707 111.291 1.12538C111.374 1.18369 111.436 1.26695 111.468 1.36289C111.5 1.45884 111.5 1.56242 111.468 1.65843C111.436 1.75444 111.375 1.83779 111.292 1.89626L110.423 2.49931L117.368 2.44845C117.475 2.4455 117.579 2.47831 117.665 2.54157C117.75 2.60484 117.812 2.69489 117.84 2.79722C117.867 2.89956 117.86 3.00824 117.818 3.10576C117.776 3.20328 117.703 3.28397 117.609 3.33485L116.2 4.12679" fill="#F27500"/>
<path d="M82.2314 4.4391L91.8501 0.297744C91.9468 0.258283 92.054 0.251708 92.1549 0.279052C92.2558 0.306396 92.3448 0.36613 92.4081 0.448962C92.4714 0.531793 92.5054 0.633082 92.5048 0.737119C92.5043 0.841156 92.4692 0.942116 92.4051 1.0243L91.6456 1.98336" fill="#F27500"/>
<path d="M82.2314 4.4391L91.8501 0.297744C91.9468 0.258283 92.054 0.251708 92.1549 0.279052C92.2558 0.306396 92.3448 0.36613 92.4081 0.448962C92.4714 0.531793 92.5054 0.633082 92.5048 0.737119C92.5043 0.841156 92.4692 0.942116 92.4051 1.0243L91.6456 1.98336" fill="#F27500"/>
<path d="M92.6025 1.84533L102.185 0.0143981C102.284 -0.00259215 102.386 0.0123132 102.476 0.0569254C102.567 0.101538 102.64 0.173549 102.687 0.262555C102.733 0.351562 102.75 0.452929 102.734 0.551998C102.719 0.651068 102.672 0.742696 102.601 0.813615L101.871 1.54017" fill="#F27500"/>
<path d="M76.903 35.7353C76.903 37.5627 75.4154 39.0442 73.5804 39.0442C71.7454 39.0442 70.2578 37.5627 70.2578 35.7353C70.2578 33.9079 71.7454 32.4265 73.5804 32.4265C75.4154 32.4265 76.903 33.9079 76.903 35.7353Z" fill="white"/>
<ellipse cx="81.8868" cy="56.5809" rx="11.629" ry="6.28676" fill="#F27500"/>
<ellipse cx="120.429" cy="56.5809" rx="14.2871" ry="6.28676" fill="#F27500"/>
</g>
<path d="M128.135 209.171V203.614C128.135 201.605 126.5 199.977 124.483 199.977C122.466 199.977 120.83 201.605 120.83 203.614V209.171C120.83 211.18 122.466 212.808 124.483 212.808C126.5 212.808 128.135 211.18 128.135 209.171Z" fill="#FDE01B"/>
<path d="M121.562 209.171V203.614C121.562 201.605 119.926 199.977 117.909 199.977C115.892 199.977 114.257 201.605 114.257 203.614V209.171C114.257 211.18 115.892 212.808 117.909 212.808C119.926 212.808 121.562 211.18 121.562 209.171Z" fill="#FDE01B"/>
<path d="M114.987 209.433V203.875C114.987 201.867 113.352 200.238 111.335 200.238C109.318 200.238 107.683 201.867 107.683 203.875V209.433C107.683 211.441 109.318 213.07 111.335 213.07C113.352 213.07 114.987 211.441 114.987 209.433Z" fill="#FDE01B"/>
<path d="M93.1543 208.596V203.039C93.1543 201.03 91.5192 199.402 89.5021 199.402C87.4851 199.402 85.85 201.03 85.85 203.039V208.596C85.85 210.605 87.4851 212.233 89.5021 212.233C91.5192 212.233 93.1543 210.605 93.1543 208.596Z" fill="#FDE01B"/>
<path d="M86.5811 208.596V203.039C86.5811 201.03 84.9459 199.402 82.9289 199.402C80.9119 199.402 79.2767 201.03 79.2767 203.039V208.596C79.2767 210.605 80.9119 212.233 82.9289 212.233C84.9459 212.233 86.5811 210.605 86.5811 208.596Z" fill="#FDE01B"/>
<path d="M80.0146 208.858V203.301C80.0146 201.292 78.3795 199.664 76.3625 199.664C74.3455 199.664 72.7103 201.292 72.7103 203.301V208.858C72.7103 210.867 74.3455 212.495 76.3625 212.495C78.3795 212.495 80.0146 210.867 80.0146 208.858Z" fill="#FDE01B"/>
<path d="M122.561 190.584C122.561 189.229 120.407 188.13 117.751 188.13C115.094 188.13 112.94 189.229 112.94 190.584V202.661C112.94 204.015 115.094 205.114 117.751 205.114C120.407 205.114 122.561 204.015 122.561 202.661V190.584Z" fill="#FDE01B"/>
<path d="M87.14 190.584C87.14 189.229 85.0843 188.13 82.5485 188.13C80.0127 188.13 77.957 189.229 77.957 190.584V202.661C77.957 204.015 80.0127 205.114 82.5485 205.114C85.0843 205.114 87.14 204.015 87.14 202.661V190.584Z" fill="#FDE01B"/>
<path d="M23.4516 81.6316C35.8933 95.0829 51.0665 103.779 65.8032 107.107C64.498 91.1145 56.8635 73.7614 43.3486 59.1509C30.9068 45.6996 15.7336 37.0033 0.996973 33.6757C2.29723 49.6627 9.93174 67.0157 23.4516 81.6316Z" fill="#F69D49"/>
<path d="M99.397 66.9966C100.206 68.6073 100.404 69.1881 100.572 69.0203C99.9657 69.6243 99.2879 69.2672 99.0351 69.0155C97.603 66.4987 94.6234 61.2612 94.2191 60.4558C93.8147 59.6504 93.9212 59.1946 94.0055 59.1107C95.2146 57.0976 98.7272 53.0029 99.5654 52.3154C100.006 51.9539 100.38 52.1907 100.575 52.3148L100.576 52.3154L100.898 52.5513L95.5218 59.614C96.5327 61.4597 98.5882 65.3858 99.397 66.9966Z" fill="#DCC31E"/>
<defs>
<filter id="filter0_i" x="47" y="-15" width="118" height="240" filterUnits="userSpaceOnUse" color-interpolation-filters="sRGB">
<feFlood flood-opacity="0" result="BackgroundImageFix"/>
<feBlend mode="normal" in="SourceGraphic" in2="BackgroundImageFix" result="shape"/>
<feColorMatrix in="SourceAlpha" type="matrix" values="0 0 0 0 0 0 0 0 0 0 0 0 0 0 0 0 0 0 127 0" result="hardAlpha"/>
<feOffset dx="21" dy="-21"/>
<feGaussianBlur stdDeviation="7.5"/>
<feComposite in2="hardAlpha" operator="arithmetic" k2="-1" k3="1"/>
<feColorMatrix type="matrix" values="0 0 0 0 0 0 0 0 0 0 0 0 0 0 0 0 0 0 0.12 0"/>
<feBlend mode="normal" in2="shape" result="effect1_innerShadow"/>
</filter>
<filter id="filter1_d" x="115.917" y="86.9905" width="37.9159" height="105.736" filterUnits="userSpaceOnUse" color-interpolation-filters="sRGB">
<feFlood flood-opacity="0" result="BackgroundImageFix"/>
<feColorMatrix in="SourceAlpha" type="matrix" values="0 0 0 0 0 0 0 0 0 0 0 0 0 0 0 0 0 0 127 0"/>
<feOffset dy="4"/>
<feGaussianBlur stdDeviation="2"/>
<feColorMatrix type="matrix" values="0 0 0 0 0 0 0 0 0 0 0 0 0 0 0 0 0 0 0.25 0"/>
<feBlend mode="normal" in2="BackgroundImageFix" result="effect1_dropShadow"/>
<feBlend mode="normal" in="SourceGraphic" in2="effect1_dropShadow" result="shape"/>
</filter>
<filter id="filter2_i" x="104.148" y="26.4707" width="29.2387" height="33.1176" filterUnits="userSpaceOnUse" color-interpolation-filters="sRGB">
<feFlood flood-opacity="0" result="BackgroundImageFix"/>
<feBlend mode="normal" in="SourceGraphic" in2="BackgroundImageFix" result="shape"/>
<feColorMatrix in="SourceAlpha" type="matrix" values="0 0 0 0 0 0 0 0 0 0 0 0 0 0 0 0 0 0 127 0" result="hardAlpha"/>
<feOffset dy="4"/>
<feGaussianBlur stdDeviation="2"/>
<feComposite in2="hardAlpha" operator="arithmetic" k2="-1" k3="1"/>
<feColorMatrix type="matrix" values="0 0 0 0 0 0 0 0 0 0 0 0 0 0 0 0 0 0 0.25 0"/>
<feBlend mode="normal" in2="shape" result="effect1_innerShadow"/>
</filter>
<filter id="filter3_i" x="66.9355" y="26.4707" width="29.2387" height="33.1176" filterUnits="userSpaceOnUse" color-interpolation-filters="sRGB">
<feFlood flood-opacity="0" result="BackgroundImageFix"/>
<feBlend mode="normal" in="SourceGraphic" in2="BackgroundImageFix" result="shape"/>
<feColorMatrix in="SourceAlpha" type="matrix" values="0 0 0 0 0 0 0 0 0 0 0 0 0 0 0 0 0 0 127 0" result="hardAlpha"/>
<feOffset dy="4"/>
<feGaussianBlur stdDeviation="2"/>
<feComposite in2="hardAlpha" operator="arithmetic" k2="-1" k3="1"/>
<feColorMatrix type="matrix" values="0 0 0 0 0 0 0 0 0 0 0 0 0 0 0 0 0 0 0.25 0"/>
<feBlend mode="normal" in2="shape" result="effect1_innerShadow"/>
</filter>
<clipPath id="clip0">
<rect width="103" height="225" fill="white" transform="translate(47)"/>
</clipPath>
</defs>
</svg>
