<svg width="117" height="238" viewBox="0 0 117 238" fill="none" xmlns="http://www.w3.org/2000/svg">
<g clip-path="url(#clip0)" filter="url(#filter0_i)">
<path d="M89.1591 221.879C105.702 207.895 116.719 182.99 116.719 154.592C116.719 110.856 90.586 75.4036 58.3557 75.4036C26.1253 75.4036 -0.00748444 110.856 -0.00748444 154.592C-0.00748444 182.526 10.6531 207.074 26.7475 221.174" fill="#F27500"/>
<path d="M57.1928 115.645C25.6928 115.645 0.157028 90.1006 0.157028 58.59C0.157028 27.0795 25.6928 1.53516 57.1928 1.53516C88.6927 1.53516 114.229 27.0795 114.229 58.59C114.229 90.1006 88.6927 115.645 57.1928 115.645Z" fill="#F27500"/>
<path d="M34.1152 148.032C37.5986 151.297 45.9588 155.277 51.5322 145.081C50.9963 145.483 59.7047 159.57 67.8773 145.081C68.4132 145.081 76.4518 159.57 83.8205 145.081" stroke="#F69D49" stroke-width="2" stroke-linecap="round" stroke-linejoin="round"/>
<path d="M43.3594 136.494C49.2543 136.494 51.7999 132.201 52.3358 130.054C51.7999 130.457 60.5084 144.544 68.6809 130.054C69.2169 132.201 71.7624 136.494 77.6574 136.494" stroke="#F69D49" stroke-width="2" stroke-linecap="round" stroke-linejoin="round"/>
<g filter="url(#filter1_d)">
<path d="M0.240154 157.463C0.878956 178.343 7.40796 197.157 17.579 210.999C28.4054 196.227 34.81 175.563 34.1214 152.907C33.4826 132.019 26.9536 113.213 16.7826 99.3625C5.96447 114.118 -0.448421 134.782 0.240154 157.463Z" fill="#F69D49"/>
</g>
<g filter="url(#filter2_d)">
<path d="M104.22 115.336C118.399 130.657 126.927 148.647 129.39 165.657C111.322 162.736 92.2748 152.514 76.8732 135.872C62.6935 120.551 54.1655 102.561 51.7029 85.5504C69.765 88.4662 88.8123 98.6878 104.22 115.336Z" fill="#F69D49"/>
</g>
<path d="M17.0312 99.0306L8.66876 91.7524C8.57835 91.6766 8.5153 91.5733 8.48926 91.4582C8.46321 91.3431 8.47564 91.2226 8.5246 91.1152C8.57356 91.0078 8.65634 90.9195 8.76031 90.8637C8.86427 90.8079 8.98367 90.7878 9.10017 90.8064L10.2948 90.9807L4.48754 85.6362C4.40011 85.5553 4.34187 85.4478 4.32196 85.3303C4.30205 85.2129 4.32156 85.0921 4.37746 84.9869C4.43335 84.8818 4.52248 84.798 4.63094 84.7488C4.73939 84.6997 4.86106 84.6877 4.97698 84.715L6.76897 85.1465" fill="#F27500"/>
<path d="M98.7984 97.736L106.937 90.1674C107.02 90.0875 107.076 89.9829 107.095 89.869C107.115 89.7551 107.097 89.638 107.045 89.5348C106.993 89.4317 106.91 89.3479 106.806 89.296C106.703 89.244 106.586 89.2266 106.472 89.2462L105.286 89.462L110.911 83.9183C110.996 83.8345 111.051 83.7247 111.067 83.6061C111.083 83.4876 111.06 83.367 111 83.2634C110.94 83.1598 110.847 83.079 110.737 83.0339C110.626 82.9887 110.503 82.9816 110.388 83.0137L108.613 83.4951" fill="#F27500"/>
<path d="M55.7751 59.9596L50.3577 67.4286C50.2447 67.5442 50.156 67.6812 50.0968 67.8317C50.0376 67.9821 50.0091 68.1429 50.0129 68.3045C50.0168 68.4662 50.053 68.6254 50.1193 68.7729C50.1856 68.9203 50.2808 69.053 50.3992 69.163L56.1318 78.8229C56.3688 79.0476 56.685 79.1693 57.0114 79.1615C57.3378 79.1538 57.6479 79.0171 57.874 78.7814L63.2913 68.8228C63.5213 68.5911 63.6504 68.2779 63.6504 67.9514C63.6504 67.6249 63.5213 67.3116 63.2913 67.08L57.5504 59.9679C57.4376 59.8452 57.3007 59.7471 57.1483 59.6797C56.9959 59.6124 56.8312 59.5772 56.6645 59.5764C56.4979 59.5757 56.3329 59.6093 56.1799 59.6752C56.0268 59.7411 55.889 59.8379 55.7751 59.9596Z" fill="#FDE01B"/>
<path d="M57.4503 76.4935C56.5317 78.3333 56.3067 78.9966 56.1153 78.805C56.8043 79.4949 57.5743 79.087 57.8613 78.7995C59.4881 75.9248 62.8727 69.9424 63.332 69.0225C63.7913 68.1026 63.6703 67.5818 63.5746 67.486C62.2011 65.1866 58.2112 60.5096 57.259 59.7243C56.7584 59.3115 56.3341 59.5819 56.1117 59.7236L56.1107 59.7243L55.7451 59.9938L61.8522 68.061C60.7039 70.1691 58.369 74.6537 57.4503 76.4935Z" fill="#DCC31E"/>
<g filter="url(#filter3_i)">
<path d="M35.4775 63.4942C26.306 63.4942 18.8711 56.0489 18.8711 46.8648C18.8711 37.6806 26.306 30.2354 35.4775 30.2354C44.649 30.2354 52.084 37.6806 52.084 46.8648C52.084 56.0489 44.649 63.4942 35.4775 63.4942Z" fill="white"/>
</g>
<path d="M39.2515 54.4234C33.832 54.4234 29.4386 50.024 29.4386 44.597C29.4386 39.17 33.832 34.7705 39.2515 34.7705C44.6711 34.7705 49.0645 39.17 49.0645 44.597C49.0645 50.024 44.6711 54.4234 39.2515 54.4234Z" fill="black"/>
<path d="M41.5161 41.5736C41.5161 43.6609 43.2058 45.353 45.2903 45.353C47.3747 45.353 49.0645 43.6609 49.0645 41.5736C49.0645 39.4863 47.3747 37.7942 45.2903 37.7942C43.2058 37.7942 41.5161 39.4863 41.5161 41.5736Z" fill="white"/>
<g filter="url(#filter4_i)">
<path d="M77.749 63.4942C68.5775 63.4942 61.1426 56.0489 61.1426 46.8648C61.1426 37.6806 68.5775 30.2354 77.749 30.2354C86.9205 30.2354 94.3555 37.6806 94.3555 46.8648C94.3555 56.0489 86.9205 63.4942 77.749 63.4942Z" fill="white"/>
</g>
<path d="M80.7672 54.4234C75.3477 54.4234 70.9543 50.024 70.9543 44.597C70.9543 39.17 75.3477 34.7705 80.7672 34.7705C86.1867 34.7705 90.5801 39.17 90.5801 44.597C90.5801 50.024 86.1867 54.4234 80.7672 54.4234Z" fill="black"/>
<path d="M31.1016 10.3736L8.36191 33.4528C8.18298 33.633 7.95614 33.758 7.70831 33.8132C7.46048 33.8683 7.20206 33.8512 6.96367 33.7638C6.72527 33.6764 6.51693 33.5225 6.36333 33.3203C6.20973 33.1181 6.11734 32.8761 6.09709 32.6229V2.30706C6.07777 2.10149 6.10663 1.89424 6.1814 1.70179C6.25617 1.50934 6.37477 1.33698 6.5278 1.19841C6.68081 1.05984 6.86405 0.958895 7.06291 0.90356C7.26177 0.848225 7.47075 0.840031 7.67332 0.879652L30.3964 8.12459C30.6375 8.16416 30.8629 8.26992 31.0474 8.4301C31.2319 8.59029 31.3684 8.7986 31.4415 9.0318C31.5146 9.26501 31.5216 9.51395 31.4615 9.75086C31.4015 9.98778 31.2769 10.2034 31.1016 10.3736Z" fill="#F27500"/>
<path d="M24.1745 11.7595L11.3819 24.7307C11.2837 24.8334 11.1579 24.9056 11.0196 24.9386C10.8814 24.9716 10.7366 24.964 10.6026 24.9167C10.4685 24.8693 10.351 24.7843 10.2641 24.6719C10.1772 24.5594 10.1246 24.4242 10.1126 24.2825L10.3863 5.8839C10.3708 5.76606 10.3836 5.6462 10.4237 5.5343C10.4637 5.4224 10.53 5.32168 10.6168 5.24051C10.7036 5.15935 10.8085 5.1001 10.9228 5.06766C11.0371 5.03522 11.1575 5.03054 11.274 5.05401L23.7929 10.4815C23.929 10.5058 24.0556 10.5674 24.1587 10.6595C24.2619 10.7516 24.3374 10.8705 24.377 11.003C24.4165 11.1355 24.4185 11.2764 24.3828 11.4099C24.347 11.5435 24.2749 11.6645 24.1745 11.7595Z" fill="black"/>
<path d="M84.1649 10.4152L106.938 33.4861C107.116 33.6672 107.342 33.7931 107.59 33.8487C107.837 33.9043 108.096 33.8873 108.334 33.7997C108.572 33.7121 108.78 33.5577 108.933 33.3548C109.085 33.152 109.176 32.9094 109.194 32.6562V2.34036C109.215 2.13437 109.188 1.92628 109.114 1.73296C109.039 1.53964 108.921 1.36649 108.767 1.22752C108.614 1.08855 108.43 0.987655 108.23 0.933005C108.031 0.878355 107.821 0.871494 107.618 0.912947L84.895 8.15786C84.6502 8.19248 84.42 8.29526 84.2307 8.45446C84.0415 8.61366 83.9007 8.82288 83.8246 9.05823C83.7485 9.29359 83.74 9.5456 83.8002 9.78553C83.8604 10.0255 83.9868 10.2436 84.1649 10.4152Z" fill="#F27500"/>
<path d="M91.0905 11.8259L103.883 24.7722C103.981 24.8749 104.107 24.9471 104.245 24.9801C104.384 25.0131 104.528 25.0055 104.662 24.9582C104.796 24.9108 104.914 24.8258 105.001 24.7133C105.088 24.6009 105.14 24.4657 105.152 24.324L104.887 5.92541C104.902 5.80757 104.89 5.68771 104.85 5.57581C104.809 5.46391 104.743 5.36319 104.656 5.28203C104.57 5.20086 104.465 5.14159 104.35 5.10915C104.236 5.07671 104.116 5.07205 103.999 5.09553L91.4721 10.523C91.3286 10.5403 91.1934 10.5993 91.0832 10.6927C90.9729 10.7862 90.8925 10.9099 90.8519 11.0486C90.8113 11.1873 90.8122 11.3349 90.8546 11.473C90.897 11.6112 90.979 11.7339 91.0905 11.8259Z" fill="black"/>
<path d="M55.3691 1.56841L44.2938 1.18665C44.1784 1.18418 44.0653 1.21879 43.9711 1.28539C43.8769 1.352 43.8065 1.44709 43.7703 1.55669C43.7341 1.66628 43.7339 1.7846 43.7699 1.89426C43.8059 2.00392 43.8761 2.09913 43.9702 2.16591L44.9575 2.85473L37.0679 2.79663C36.9469 2.79327 36.8283 2.83074 36.7311 2.903C36.634 2.97526 36.564 3.07812 36.5324 3.19501C36.5008 3.31191 36.5094 3.43604 36.5569 3.54743C36.6043 3.65882 36.6879 3.75098 36.7941 3.8091L38.3953 4.71367" fill="#F27500"/>
<path d="M76.9805 5.07047L66.0544 0.340117C65.9445 0.295044 65.8228 0.287534 65.7082 0.318767C65.5936 0.349999 65.4925 0.418229 65.4206 0.512841C65.3487 0.607453 65.3101 0.723147 65.3107 0.841981C65.3113 0.960814 65.3511 1.07613 65.424 1.17001L66.2868 2.26547" fill="#F27500"/>
<path d="M76.9805 5.07047L66.0544 0.340117C65.9445 0.295044 65.8228 0.287534 65.7082 0.318767C65.5936 0.349999 65.4925 0.418229 65.4206 0.512841C65.3487 0.607453 65.3101 0.723147 65.3107 0.841981C65.3113 0.960814 65.3511 1.07613 65.424 1.17001L66.2868 2.26546" fill="#F27500"/>
<path d="M65.1992 2.10793L54.3147 0.0165901C54.2019 -0.0028165 54.0859 0.0142088 53.9834 0.0651658C53.8809 0.116123 53.7972 0.198376 53.7445 0.300041C53.6919 0.401706 53.6729 0.51749 53.6904 0.630649C53.7079 0.743808 53.761 0.848469 53.8419 0.929473L54.6715 1.75936" fill="#F27500"/>
<path d="M83.0317 40.8175C83.0317 42.9048 84.7215 44.5969 86.8059 44.5969C88.8903 44.5969 90.5801 42.9048 90.5801 40.8175C90.5801 38.7302 88.8903 37.0381 86.8059 37.0381C84.7215 37.0381 83.0317 38.7302 83.0317 40.8175Z" fill="white"/>
<ellipse rx="13.2097" ry="7.18088" transform="matrix(-1 0 0 1 77.3704 64.6279)" fill="#F27500"/>
<ellipse rx="16.229" ry="7.18088" transform="matrix(-1 0 0 1 33.5913 64.6279)" fill="#F27500"/>
</g>
<path d="M24.8359 238.92V232.572C24.8359 230.278 26.6933 228.418 28.9845 228.418C31.2757 228.418 33.1331 230.278 33.1331 232.572V238.92C33.1331 241.214 31.2757 243.074 28.9845 243.074C26.6933 243.074 24.8359 241.214 24.8359 238.92Z" fill="#FDE01B"/>
<path d="M32.3027 238.92V232.572C32.3027 230.278 34.1601 228.418 36.4513 228.418C38.7425 228.418 40.5999 230.278 40.5999 232.572V238.92C40.5999 241.214 38.7425 243.074 36.4513 243.074C34.1601 243.074 32.3027 241.214 32.3027 238.92Z" fill="#FDE01B"/>
<path d="M39.7715 239.219V232.871C39.7715 230.576 41.6289 228.717 43.9201 228.717C46.2112 228.717 48.0686 230.576 48.0686 232.871V239.219C48.0686 241.513 46.2112 243.373 43.9201 243.373C41.6289 243.373 39.7715 241.513 39.7715 239.219Z" fill="#FDE01B"/>
<path d="M64.5723 238.263V231.915C64.5723 229.621 66.4296 227.761 68.7208 227.761C71.012 227.761 72.8694 229.621 72.8694 231.915V238.263C72.8694 240.557 71.012 242.417 68.7208 242.417C66.4296 242.417 64.5723 240.557 64.5723 238.263Z" fill="#FDE01B"/>
<path d="M72.0391 238.263V231.915C72.0391 229.621 73.8964 227.761 76.1876 227.761C78.4788 227.761 80.3362 229.621 80.3362 231.915V238.263C80.3362 240.557 78.4788 242.417 76.1876 242.417C73.8964 242.417 72.0391 240.557 72.0391 238.263Z" fill="#FDE01B"/>
<path d="M79.498 238.562V232.214C79.498 229.92 81.3554 228.06 83.6466 228.06C85.9378 228.06 87.7952 229.92 87.7952 232.214V238.562C87.7952 240.856 85.9378 242.716 83.6466 242.716C81.3554 242.716 79.498 240.856 79.498 238.562Z" fill="#FDE01B"/>
<path d="M31.1698 217.689C31.1698 216.141 33.6161 214.887 36.6337 214.887C39.6514 214.887 42.0977 216.141 42.0977 217.689V231.484C42.0977 233.031 39.6514 234.286 36.6337 234.286C33.6161 234.286 31.1698 233.031 31.1698 231.484V217.689Z" fill="#FDE01B"/>
<path d="M71.4029 217.689C71.4029 216.141 73.738 214.887 76.6184 214.887C79.4989 214.887 81.834 216.141 81.834 217.689V231.484C81.834 233.031 79.4989 234.286 76.6184 234.286C73.738 234.286 71.4029 233.031 71.4029 231.484V217.689Z" fill="#FDE01B"/>
<defs>
<filter id="filter0_i" x="0" y="-15" width="132" height="272" filterUnits="userSpaceOnUse" color-interpolation-filters="sRGB">
<feFlood flood-opacity="0" result="BackgroundImageFix"/>
<feBlend mode="normal" in="SourceGraphic" in2="BackgroundImageFix" result="shape"/>
<feColorMatrix in="SourceAlpha" type="matrix" values="0 0 0 0 0 0 0 0 0 0 0 0 0 0 0 0 0 0 127 0" result="hardAlpha"/>
<feOffset dx="21" dy="-21"/>
<feGaussianBlur stdDeviation="7.5"/>
<feComposite in2="hardAlpha" operator="arithmetic" k2="-1" k3="1"/>
<feColorMatrix type="matrix" values="0 0 0 0 0 0 0 0 0 0 0 0 0 0 0 0 0 0 0.12 0"/>
<feBlend mode="normal" in2="shape" result="effect1_innerShadow"/>
</filter>
<filter id="filter1_d" x="-3.81055" y="99.3625" width="41.9821" height="119.637" filterUnits="userSpaceOnUse" color-interpolation-filters="sRGB">
<feFlood flood-opacity="0" result="BackgroundImageFix"/>
<feColorMatrix in="SourceAlpha" type="matrix" values="0 0 0 0 0 0 0 0 0 0 0 0 0 0 0 0 0 0 127 0"/>
<feOffset dy="4"/>
<feGaussianBlur stdDeviation="2"/>
<feColorMatrix type="matrix" values="0 0 0 0 0 0 0 0 0 0 0 0 0 0 0 0 0 0 0.25 0"/>
<feBlend mode="normal" in2="BackgroundImageFix" result="effect1_dropShadow"/>
<feBlend mode="normal" in="SourceGraphic" in2="effect1_dropShadow" result="shape"/>
</filter>
<filter id="filter2_d" x="47.7031" y="85.5503" width="85.687" height="88.1071" filterUnits="userSpaceOnUse" color-interpolation-filters="sRGB">
<feFlood flood-opacity="0" result="BackgroundImageFix"/>
<feColorMatrix in="SourceAlpha" type="matrix" values="0 0 0 0 0 0 0 0 0 0 0 0 0 0 0 0 0 0 127 0"/>
<feOffset dy="4"/>
<feGaussianBlur stdDeviation="2"/>
<feColorMatrix type="matrix" values="0 0 0 0 0 0 0 0 0 0 0 0 0 0 0 0 0 0 0.25 0"/>
<feBlend mode="normal" in2="BackgroundImageFix" result="effect1_dropShadow"/>
<feBlend mode="normal" in="SourceGraphic" in2="effect1_dropShadow" result="shape"/>
</filter>
<filter id="filter3_i" x="18.8711" y="30.2354" width="33.2129" height="37.2588" filterUnits="userSpaceOnUse" color-interpolation-filters="sRGB">
<feFlood flood-opacity="0" result="BackgroundImageFix"/>
<feBlend mode="normal" in="SourceGraphic" in2="BackgroundImageFix" result="shape"/>
<feColorMatrix in="SourceAlpha" type="matrix" values="0 0 0 0 0 0 0 0 0 0 0 0 0 0 0 0 0 0 127 0" result="hardAlpha"/>
<feOffset dy="4"/>
<feGaussianBlur stdDeviation="2"/>
<feComposite in2="hardAlpha" operator="arithmetic" k2="-1" k3="1"/>
<feColorMatrix type="matrix" values="0 0 0 0 0 0 0 0 0 0 0 0 0 0 0 0 0 0 0.25 0"/>
<feBlend mode="normal" in2="shape" result="effect1_innerShadow"/>
</filter>
<filter id="filter4_i" x="61.1426" y="30.2354" width="33.2129" height="37.2588" filterUnits="userSpaceOnUse" color-interpolation-filters="sRGB">
<feFlood flood-opacity="0" result="BackgroundImageFix"/>
<feBlend mode="normal" in="SourceGraphic" in2="BackgroundImageFix" result="shape"/>
<feColorMatrix in="SourceAlpha" type="matrix" values="0 0 0 0 0 0 0 0 0 0 0 0 0 0 0 0 0 0 127 0" result="hardAlpha"/>
<feOffset dy="4"/>
<feGaussianBlur stdDeviation="2"/>
<feComposite in2="hardAlpha" operator="arithmetic" k2="-1" k3="1"/>
<feColorMatrix type="matrix" values="0 0 0 0 0 0 0 0 0 0 0 0 0 0 0 0 0 0 0.25 0"/>
<feBlend mode="normal" in2="shape" result="effect1_innerShadow"/>
</filter>
<clipPath id="clip0">
<rect width="117" height="257" fill="white" transform="matrix(-1 0 0 1 117 0)"/>
</clipPath>
</defs>
</svg>
