<svg width="245" height="516" viewBox="0 0 245 516" fill="none" xmlns="http://www.w3.org/2000/svg">
<g filter="url(#filter0_i)">
<g clip-path="url(#clip0)" filter="url(#filter1_i)">
<path d="M60.2841 445.301C27.1992 417.279 5.16479 367.372 5.16479 310.464C5.16479 222.824 57.4302 151.78 121.891 151.78C186.352 151.78 238.617 222.824 238.617 310.464C238.617 366.441 217.296 415.633 185.107 443.887" fill="#F27500"/>
<path d="M124.214 232.419C187.214 232.419 238.285 181.231 238.285 118.087C238.285 54.9438 187.214 3.75575 124.214 3.75575C61.2139 3.75575 10.1423 54.9438 10.1423 118.087C10.1423 181.231 61.2139 232.419 124.214 232.419Z" fill="#F27500"/>
<path d="M135.578 291.481C135.564 291.456 135.55 291.43 135.536 291.405C135.557 291.421 135.57 291.446 135.578 291.481Z" fill="#F69131"/>
<path d="M170.37 297.32C163.403 303.862 146.683 311.837 135.536 291.405C136.608 292.212 119.191 320.44 102.846 291.405C101.774 291.405 85.697 320.44 70.9596 291.405" stroke="#F69D49" stroke-width="2" stroke-linecap="round" stroke-linejoin="round"/>
<path d="M133.928 261.294C133.965 261.322 133.98 261.382 133.974 261.471C133.958 261.412 133.943 261.353 133.928 261.294Z" fill="#F69131"/>
<path d="M151.881 274.199C140.091 274.199 135 265.596 133.928 261.294C135 262.101 117.583 290.33 101.238 261.294C100.166 265.596 95.0753 274.199 83.2853 274.199" stroke="#F69D49" stroke-width="2" stroke-linecap="round" stroke-linejoin="round"/>
<path d="M204.537 199.126L221.262 184.541C221.443 184.389 221.569 184.182 221.621 183.951C221.673 183.721 221.648 183.479 221.55 183.264C221.452 183.049 221.287 182.872 221.079 182.76C220.871 182.648 220.632 182.608 220.399 182.645L218.01 182.995L229.624 172.285C229.799 172.123 229.916 171.907 229.955 171.672C229.995 171.437 229.956 171.195 229.844 170.984C229.733 170.773 229.554 170.605 229.337 170.507C229.121 170.408 228.877 170.384 228.645 170.439L225.061 171.304" fill="#F27500"/>
<path d="M41.004 196.532L24.727 181.365C24.5602 181.205 24.4491 180.995 24.4101 180.767C24.371 180.539 24.4061 180.304 24.5101 180.097C24.6142 179.891 24.7817 179.723 24.988 179.619C25.1943 179.515 25.4285 179.48 25.6562 179.519L28.0289 179.951L16.7794 168.843C16.6086 168.675 16.4985 168.454 16.4662 168.217C16.4339 167.979 16.4813 167.738 16.6011 167.53C16.7208 167.322 16.9059 167.161 17.1275 167.07C17.349 166.98 17.5943 166.965 17.8247 167.03L21.3754 167.994" fill="#F27500"/>
<path d="M127.051 120.832L137.886 135.799C138.112 136.03 138.289 136.305 138.408 136.606C138.526 136.908 138.583 137.23 138.575 137.554C138.568 137.878 138.495 138.197 138.362 138.492C138.23 138.788 138.04 139.054 137.803 139.274L126.337 158.632C125.863 159.082 125.231 159.326 124.578 159.31C123.925 159.295 123.305 159.021 122.853 158.549L112.018 138.593C111.558 138.128 111.3 137.501 111.3 136.846C111.3 136.192 111.558 135.564 112.018 135.1L123.5 120.848C123.726 120.602 124 120.406 124.304 120.271C124.609 120.136 124.939 120.065 125.272 120.064C125.605 120.062 125.935 120.13 126.241 120.262C126.547 120.394 126.823 120.588 127.051 120.832Z" fill="#FDE01B"/>
<path d="M123.674 153.961C125.517 157.648 125.969 158.977 126.353 158.593C124.97 159.976 123.425 159.158 122.849 158.582C119.584 152.821 112.792 140.832 111.87 138.988C110.948 137.145 111.191 136.101 111.383 135.909C114.14 131.301 122.147 121.928 124.058 120.354C125.063 119.527 125.914 120.069 126.36 120.353L126.362 120.354L127.096 120.894L114.84 137.062C117.144 141.286 121.83 150.274 123.674 153.961Z" fill="#F2D405"/>
<path d="M167.646 127.914C185.989 127.914 200.859 112.995 200.859 94.591C200.859 76.1869 185.989 61.2674 167.646 61.2674C149.303 61.2674 134.433 76.1869 134.433 94.591C134.433 112.995 149.303 127.914 167.646 127.914Z" fill="white"/>
<path d="M83.1038 127.914C101.447 127.914 116.317 112.995 116.317 94.591C116.317 76.1869 101.447 61.2674 83.1038 61.2674C64.7608 61.2674 49.8909 76.1869 49.8909 94.591C49.8909 112.995 64.7608 127.914 83.1038 127.914Z" fill="white"/>
<path d="M165.091 115.47C176.584 115.47 185.901 106.122 185.901 94.5906C185.901 83.059 176.584 73.7108 165.091 73.7108C153.597 73.7108 144.28 83.059 144.28 94.5906C144.28 106.122 153.597 115.47 165.091 115.47Z" fill="black"/>
<path d="M85.9089 115.493C97.4143 115.493 106.741 106.135 106.741 94.591C106.741 83.0472 97.4143 73.6892 85.9089 73.6892C74.4034 73.6892 65.0764 83.0472 65.0764 94.591C65.0764 106.135 74.4034 115.493 85.9089 115.493Z" fill="black"/>
<path d="M176.396 21.4666L221.876 67.7149C222.233 68.0759 222.687 68.3265 223.183 68.437C223.678 68.5475 224.195 68.5131 224.672 68.3381C225.149 68.163 225.566 67.8546 225.873 67.4494C226.18 67.0442 226.365 66.5592 226.405 66.0519V5.30221C226.444 4.89027 226.386 4.47496 226.237 4.08931C226.087 3.70366 225.85 3.35826 225.544 3.08059C225.238 2.80291 224.871 2.60063 224.474 2.48974C224.076 2.37886 223.658 2.36244 223.253 2.44183L177.807 16.9599C177.324 17.0392 176.874 17.2511 176.505 17.5721C176.136 17.8931 175.863 18.3105 175.716 18.7779C175.57 19.2452 175.556 19.744 175.676 20.2188C175.796 20.6935 176.046 21.1255 176.396 21.4666Z" fill="#F27500"/>
<path d="M190.251 24.244L215.836 50.2368C216.033 50.4426 216.284 50.5873 216.561 50.6534C216.837 50.7195 217.127 50.7043 217.395 50.6095C217.663 50.5147 217.898 50.3443 218.072 50.1189C218.245 49.8935 218.351 49.6227 218.375 49.3388L217.827 12.4699C217.858 12.2338 217.833 11.9936 217.753 11.7693C217.672 11.5451 217.54 11.3433 217.366 11.1806C217.193 11.018 216.983 10.8993 216.754 10.8343C216.526 10.7693 216.285 10.7599 216.052 10.8069L191.014 21.683C190.742 21.7317 190.489 21.8552 190.282 22.0397C190.076 22.2242 189.925 22.4625 189.846 22.728C189.767 22.9935 189.763 23.2758 189.834 23.5435C189.906 23.8111 190.05 24.0537 190.251 24.244Z" fill="black"/>
<path d="M70.2727 21.5499L24.727 67.7815C24.3712 68.1444 23.9186 68.3967 23.4233 68.5082C22.9281 68.6197 22.4113 68.5856 21.9349 68.41C21.4585 68.2345 21.0427 67.925 20.7374 67.5185C20.4322 67.112 20.2505 66.626 20.214 66.1185V5.3689C20.1717 4.95611 20.227 4.53913 20.3753 4.15174C20.5236 3.76434 20.7609 3.41738 21.0678 3.1389C21.3747 2.86042 21.7427 2.65823 22.1421 2.54872C22.5414 2.4392 22.9608 2.42546 23.3664 2.50852L68.8125 17.0265C69.3022 17.0959 69.7626 17.3019 70.1411 17.6209C70.5196 17.9399 70.8012 18.3592 70.9534 18.8308C71.1056 19.3024 71.1225 19.8074 71.0021 20.2882C70.8817 20.769 70.629 21.2062 70.2727 21.5499Z" fill="#F27500"/>
<path d="M56.4182 24.3771L30.833 50.32C30.6365 50.5259 30.385 50.6706 30.1085 50.7367C29.832 50.8028 29.5424 50.7875 29.2743 50.6927C29.0063 50.5979 28.7713 50.4275 28.5974 50.2021C28.4236 49.9767 28.3184 49.7058 28.2944 49.422L28.8253 12.5532C28.7942 12.317 28.8199 12.0768 28.9 11.8526C28.9802 11.6283 29.1125 11.4265 29.2862 11.2639C29.4598 11.1012 29.6696 10.9825 29.8983 10.9174C30.1269 10.8524 30.3677 10.8431 30.6007 10.8901L55.655 21.7662C55.9419 21.8008 56.2123 21.9191 56.4327 22.1064C56.6532 22.2936 56.8141 22.5415 56.8953 22.8195C56.9766 23.0974 56.9747 23.3931 56.8899 23.67C56.8051 23.9469 56.641 24.1927 56.4182 24.3771Z" fill="black"/>
<path d="M127.864 3.82221L150.015 3.05719C150.245 3.05224 150.472 3.12161 150.66 3.25507C150.849 3.38854 150.989 3.5791 151.062 3.79872C151.134 4.01833 151.134 4.25542 151.062 4.47517C150.99 4.69493 150.85 4.8857 150.662 5.01953L148.687 6.39985L164.466 6.28343C164.708 6.27669 164.946 6.35178 165.14 6.49658C165.334 6.64139 165.474 6.8475 165.537 7.08174C165.601 7.31598 165.584 7.56473 165.489 7.78794C165.394 8.01116 165.226 8.19584 165.014 8.3123L161.812 10.125" fill="#F27500"/>
<path d="M84.6414 10.8401L106.493 1.36102C106.713 1.2707 106.957 1.25565 107.186 1.31824C107.415 1.38083 107.617 1.51755 107.761 1.70715C107.905 1.89674 107.982 2.12858 107.981 2.3667C107.98 2.60483 107.9 2.83592 107.754 3.02403L106.029 5.21921" fill="#F27500"/>
<path d="M84.6414 10.8396L106.493 1.36054C106.713 1.27021 106.957 1.25517 107.186 1.31775C107.415 1.38034 107.617 1.51706 107.761 1.70666C107.905 1.89625 107.982 2.12809 107.981 2.36622C107.98 2.60435 107.9 2.83543 107.754 3.02354L106.029 5.21872" fill="#F27500"/>
<path d="M108.202 4.9033L129.971 0.712486C130.197 0.673597 130.429 0.707714 130.634 0.809826C130.839 0.911939 131.006 1.07676 131.112 1.28049C131.217 1.48422 131.255 1.71624 131.22 1.94299C131.185 2.16975 131.079 2.37948 130.917 2.5418L129.258 4.20481" fill="#F27500"/>
<path d="M155.468 84.2401C155.468 87.7625 152.622 90.6179 149.112 90.6179C145.601 90.6179 142.755 87.7625 142.755 84.2401C142.755 80.7177 145.601 77.8623 149.112 77.8623C152.622 77.8623 155.468 80.7177 155.468 84.2401Z" fill="white"/>
<path d="M75.7716 83.6114C75.7716 87.1338 72.9257 89.9892 69.415 89.9892C65.9043 89.9892 63.0583 87.1338 63.0583 83.6114C63.0583 80.089 65.9043 77.2336 69.415 77.2336C72.9257 77.2336 75.7716 80.089 75.7716 83.6114Z" fill="white"/>
</g>
<g filter="url(#filter2_i)">
<path d="M188.927 479.448V466.728C188.927 462.131 185.212 458.403 180.629 458.403C176.047 458.403 172.332 462.131 172.332 466.728V479.448C172.332 484.046 176.047 487.773 180.629 487.773C185.212 487.773 188.927 484.046 188.927 479.448Z" fill="#FDE01B"/>
<path d="M173.992 479.448V466.728C173.992 462.131 170.277 458.403 165.695 458.403C161.112 458.403 157.397 462.131 157.397 466.728V479.448C157.397 484.046 161.112 487.773 165.695 487.773C170.277 487.773 173.992 484.046 173.992 479.448Z" fill="#FDE01B"/>
<path d="M159.057 480.048V467.327C159.057 462.73 155.342 459.003 150.76 459.003C146.177 459.003 142.462 462.73 142.462 467.327V480.048C142.462 484.645 146.177 488.372 150.76 488.372C155.342 488.372 159.057 484.645 159.057 480.048Z" fill="#FDE01B"/>
<path d="M109.457 478.133V465.413C109.457 460.815 105.742 457.088 101.159 457.088C96.577 457.088 92.8623 460.815 92.8623 465.413V478.133C92.8623 482.73 96.577 486.458 101.159 486.458C105.742 486.458 109.457 482.73 109.457 478.133Z" fill="#FDE01B"/>
<path d="M94.5217 478.133V465.413C94.5217 460.815 90.807 457.088 86.2246 457.088C81.6422 457.088 77.9274 460.815 77.9274 465.413V478.133C77.9274 482.73 81.6422 486.458 86.2246 486.458C90.807 486.458 94.5217 482.73 94.5217 478.133Z" fill="#FDE01B"/>
<path d="M79.6035 478.732V466.012C79.6035 461.414 75.8888 457.687 71.3064 457.687C66.724 457.687 63.0092 461.414 63.0092 466.012V478.732C63.0092 483.329 66.724 487.057 71.3064 487.057C75.8888 487.057 79.6035 483.329 79.6035 478.732Z" fill="#FDE01B"/>
<path d="M176.261 436.904C176.261 433.803 171.369 431.289 165.333 431.289C159.298 431.289 154.406 433.803 154.406 436.904V464.547C154.406 467.648 159.298 470.162 165.333 470.162C171.369 470.162 176.261 467.648 176.261 464.547V436.904Z" fill="#FDE01B"/>
<path d="M95.7926 436.904C95.7926 433.803 91.1225 431.289 85.3615 431.289C79.6006 431.289 74.9304 433.803 74.9304 436.904V464.547C74.9304 467.648 79.6006 470.162 85.3615 470.162C91.1225 470.162 95.7926 467.648 95.7926 464.547V436.904Z" fill="#FDE01B"/>
</g>
<path d="M160.166 211.377H149.608V213.327H160.166V211.377Z" fill="#3D3D3D"/>
<path d="M170.479 212.839H76.6838C74.6497 212.839 73.0007 214.476 73.0007 216.496V273.785C73.0007 275.804 74.6497 277.441 76.6838 277.441H170.479C172.513 277.441 174.162 275.804 174.162 273.785V216.496C174.162 214.476 172.513 212.839 170.479 212.839Z" fill="white"/>
<path d="M174.162 225.272H73.0007V265.009H174.162V225.272Z" fill="black"/>
<path d="M124.073 271.835C139.125 271.835 151.327 259.72 151.327 244.775C151.327 229.83 139.125 217.715 124.073 217.715C109.02 217.715 96.8181 229.83 96.8181 244.775C96.8181 259.72 109.02 271.835 124.073 271.835Z" fill="white"/>
<path d="M124.153 269.014C137.534 269.014 148.381 258.245 148.381 244.96C148.381 231.675 137.534 220.906 124.153 220.906C110.773 220.906 99.9263 231.675 99.9263 244.96C99.9263 258.245 110.773 269.014 124.153 269.014Z" fill="#C8C8C8"/>
<path d="M124.264 267.932C136.981 267.932 147.291 257.696 147.291 245.07C147.291 232.444 136.981 222.208 124.264 222.208C111.547 222.208 101.238 232.444 101.238 245.07C101.238 257.696 111.547 267.932 124.264 267.932Z" fill="#A7A7A7"/>
<path d="M124.357 263.059C134.663 263.059 143.018 254.764 143.018 244.531C143.018 234.299 134.663 226.004 124.357 226.004C114.051 226.004 105.696 234.299 105.696 244.531C105.696 254.764 114.051 263.059 124.357 263.059Z" fill="#4C4C4C"/>
<path d="M124.318 259.645C132.726 259.645 139.541 252.878 139.541 244.531C139.541 236.183 132.726 229.416 124.318 229.416C115.91 229.416 109.095 236.183 109.095 244.531C109.095 252.878 115.91 259.645 124.318 259.645Z" fill="#4C4C4C" stroke="black" stroke-miterlimit="10"/>
<path d="M124.318 255.257C130.284 255.257 135.121 250.455 135.121 244.531C135.121 238.607 130.284 233.805 124.318 233.805C118.351 233.805 113.514 238.607 113.514 244.531C113.514 250.455 118.351 255.257 124.318 255.257Z" fill="#3D3D3D"/>
<path d="M124.318 252.332C128.657 252.332 132.175 248.839 132.175 244.531C132.175 240.223 128.657 236.73 124.318 236.73C119.978 236.73 116.461 240.223 116.461 244.531C116.461 248.839 119.978 252.332 124.318 252.332Z" fill="black"/>
<path d="M124.318 247.944C126.217 247.944 127.756 246.416 127.756 244.531C127.756 242.646 126.217 241.118 124.318 241.118C122.42 241.118 120.881 242.646 120.881 244.531C120.881 246.416 122.42 247.944 124.318 247.944Z" fill="white"/>
<path d="M135.613 209.904V205.341C135.614 205.044 135.556 204.75 135.443 204.476C135.329 204.201 135.162 203.952 134.951 203.742C134.741 203.531 134.49 203.365 134.214 203.251C133.938 203.137 133.643 203.078 133.344 203.078H113.819C113.521 203.078 113.225 203.136 112.95 203.249C112.675 203.362 112.424 203.528 112.214 203.737C112.003 203.947 111.836 204.195 111.722 204.468C111.608 204.742 111.55 205.035 111.55 205.331V209.904C111.55 209.904 111.935 212.83 107.936 212.83H139.224C135.234 212.83 135.613 209.904 135.613 209.904Z" fill="white"/>
<path d="M133.158 205.282H114.251C113.98 205.282 113.76 205.5 113.76 205.77V210.158C113.76 210.427 113.98 210.645 114.251 210.645H133.158C133.429 210.645 133.649 210.427 133.649 210.158V205.77C133.649 205.5 133.429 205.282 133.158 205.282Z" fill="#A4A4A4"/>
<path d="M131.785 205.77H115.724C115.453 205.77 115.233 205.988 115.233 206.257V209.817C115.233 210.086 115.453 210.304 115.724 210.304H131.785C132.056 210.304 132.276 210.086 132.276 209.817V206.257C132.276 205.988 132.056 205.77 131.785 205.77Z" fill="#3D3D3D"/>
<path d="M161.394 208.695H148.626V211.377H161.394V208.695Z" fill="#3D3D3D"/>
<path d="M159.803 208.695V211.377" stroke="black" stroke-miterlimit="10"/>
<path d="M158.571 208.695V211.377" stroke="black" stroke-miterlimit="10"/>
<path d="M157.343 208.695V211.377" stroke="black" stroke-miterlimit="10"/>
<path d="M156.115 208.695V211.377" stroke="black" stroke-miterlimit="10"/>
<path d="M154.887 208.695V211.377" stroke="black" stroke-miterlimit="10"/>
<path d="M153.66 208.695V211.377" stroke="black" stroke-miterlimit="10"/>
<path d="M152.432 208.695V211.377" stroke="black" stroke-miterlimit="10"/>
<path d="M151.204 208.695V211.377" stroke="black" stroke-miterlimit="10"/>
<path d="M149.977 208.695V211.377" stroke="black" stroke-miterlimit="10"/>
<path d="M161.026 208.695V211.377" stroke="black" stroke-miterlimit="10"/>
<g filter="url(#filter3_d)">
<path d="M237.757 265.683C236.957 289.784 241.044 276.999 237.757 329.809C215.844 313.204 191.138 285.811 191.997 259.661C192.796 235.55 183.512 215.715 203.469 199.343C225.365 215.93 238.615 239.504 237.757 265.683Z" fill="#F69131"/>
</g>
<g filter="url(#filter4_d)">
<path d="M175.723 318.438C158.582 304.587 148.737 284.431 146.54 262.682C169.273 257.942 192.853 262.58 211.456 277.604C228.604 291.461 238.442 311.612 240.646 333.366C217.935 338.105 194.347 333.478 175.723 318.438Z" fill="#F69131"/>
</g>
<g filter="url(#filter5_d)">
<path d="M7.65958 263.101C5.58021 307.728 5.88435 272.652 5.88435 326.707C27.7971 310.101 54.278 283.229 53.4196 257.078C52.6203 232.968 61.9047 213.133 41.9475 196.761C20.0517 213.348 8.08815 253.903 7.65958 263.101Z" fill="#F69131"/>
</g>
<g filter="url(#filter6_d)">
<path d="M69.6934 315.856C86.8339 302.004 96.6794 281.848 98.8762 260.099C76.1435 255.36 52.5626 259.997 33.9599 275.021C16.8123 288.878 6.97385 309.029 4.77004 330.783C27.4808 335.522 51.0695 330.896 69.6934 315.856Z" fill="#F69131"/>
</g>
</g>
<defs>
<filter id="filter0_i" x="4.60059" y="0.679199" width="236.045" height="519" filterUnits="userSpaceOnUse" color-interpolation-filters="sRGB">
<feFlood flood-opacity="0" result="BackgroundImageFix"/>
<feBlend mode="normal" in="SourceGraphic" in2="BackgroundImageFix" result="shape"/>
<feColorMatrix in="SourceAlpha" type="matrix" values="0 0 0 0 0 0 0 0 0 0 0 0 0 0 0 0 0 0 127 0" result="hardAlpha"/>
<feOffset dy="4"/>
<feGaussianBlur stdDeviation="2"/>
<feComposite in2="hardAlpha" operator="arithmetic" k2="-1" k3="1"/>
<feColorMatrix type="matrix" values="0 0 0 0 0 0 0 0 0 0 0 0 0 0 0 0 0 0 0.25 0"/>
<feBlend mode="normal" in2="shape" result="effect1_innerShadow"/>
</filter>
<filter id="filter1_i" x="4.60059" y="-14.3208" width="249" height="530" filterUnits="userSpaceOnUse" color-interpolation-filters="sRGB">
<feFlood flood-opacity="0" result="BackgroundImageFix"/>
<feBlend mode="normal" in="SourceGraphic" in2="BackgroundImageFix" result="shape"/>
<feColorMatrix in="SourceAlpha" type="matrix" values="0 0 0 0 0 0 0 0 0 0 0 0 0 0 0 0 0 0 127 0" result="hardAlpha"/>
<feOffset dx="21" dy="-21"/>
<feGaussianBlur stdDeviation="7.5"/>
<feComposite in2="hardAlpha" operator="arithmetic" k2="-1" k3="1"/>
<feColorMatrix type="matrix" values="0 0 0 0 0 0 0 0 0 0 0 0 0 0 0 0 0 0 0.12 0"/>
<feBlend mode="normal" in2="shape" result="effect1_innerShadow"/>
</filter>
<filter id="filter2_i" x="63.0093" y="431.289" width="125.917" height="61.0833" filterUnits="userSpaceOnUse" color-interpolation-filters="sRGB">
<feFlood flood-opacity="0" result="BackgroundImageFix"/>
<feBlend mode="normal" in="SourceGraphic" in2="BackgroundImageFix" result="shape"/>
<feColorMatrix in="SourceAlpha" type="matrix" values="0 0 0 0 0 0 0 0 0 0 0 0 0 0 0 0 0 0 127 0" result="hardAlpha"/>
<feOffset dy="4"/>
<feGaussianBlur stdDeviation="2"/>
<feComposite in2="hardAlpha" operator="arithmetic" k2="-1" k3="1"/>
<feColorMatrix type="matrix" values="0 0 0 0 0 0 0 0 0 0 0 0 0 0 0 0 0 0 0.25 0"/>
<feBlend mode="normal" in2="shape" result="effect1_innerShadow"/>
</filter>
<filter id="filter3_d" x="186.524" y="199.343" width="56.5316" height="138.466" filterUnits="userSpaceOnUse" color-interpolation-filters="sRGB">
<feFlood flood-opacity="0" result="BackgroundImageFix"/>
<feColorMatrix in="SourceAlpha" type="matrix" values="0 0 0 0 0 0 0 0 0 0 0 0 0 0 0 0 0 0 127 0"/>
<feOffset dy="4"/>
<feGaussianBlur stdDeviation="2"/>
<feColorMatrix type="matrix" values="0 0 0 0 0 0 0 0 0 0 0 0 0 0 0 0 0 0 0.25 0"/>
<feBlend mode="normal" in2="BackgroundImageFix" result="effect1_dropShadow"/>
<feBlend mode="normal" in="SourceGraphic" in2="effect1_dropShadow" result="shape"/>
</filter>
<filter id="filter4_d" x="142.54" y="260.901" width="102.106" height="82.2469" filterUnits="userSpaceOnUse" color-interpolation-filters="sRGB">
<feFlood flood-opacity="0" result="BackgroundImageFix"/>
<feColorMatrix in="SourceAlpha" type="matrix" values="0 0 0 0 0 0 0 0 0 0 0 0 0 0 0 0 0 0 127 0"/>
<feOffset dy="4"/>
<feGaussianBlur stdDeviation="2"/>
<feColorMatrix type="matrix" values="0 0 0 0 0 0 0 0 0 0 0 0 0 0 0 0 0 0 0.25 0"/>
<feBlend mode="normal" in2="BackgroundImageFix" result="effect1_dropShadow"/>
<feBlend mode="normal" in="SourceGraphic" in2="effect1_dropShadow" result="shape"/>
</filter>
<filter id="filter5_d" x="1.86865" y="196.761" width="57.0234" height="137.946" filterUnits="userSpaceOnUse" color-interpolation-filters="sRGB">
<feFlood flood-opacity="0" result="BackgroundImageFix"/>
<feColorMatrix in="SourceAlpha" type="matrix" values="0 0 0 0 0 0 0 0 0 0 0 0 0 0 0 0 0 0 127 0"/>
<feOffset dy="4"/>
<feGaussianBlur stdDeviation="2"/>
<feColorMatrix type="matrix" values="0 0 0 0 0 0 0 0 0 0 0 0 0 0 0 0 0 0 0.25 0"/>
<feBlend mode="normal" in2="BackgroundImageFix" result="effect1_dropShadow"/>
<feBlend mode="normal" in="SourceGraphic" in2="effect1_dropShadow" result="shape"/>
</filter>
<filter id="filter6_d" x="0.77002" y="258.318" width="102.106" height="82.2469" filterUnits="userSpaceOnUse" color-interpolation-filters="sRGB">
<feFlood flood-opacity="0" result="BackgroundImageFix"/>
<feColorMatrix in="SourceAlpha" type="matrix" values="0 0 0 0 0 0 0 0 0 0 0 0 0 0 0 0 0 0 127 0"/>
<feOffset dy="4"/>
<feGaussianBlur stdDeviation="2"/>
<feColorMatrix type="matrix" values="0 0 0 0 0 0 0 0 0 0 0 0 0 0 0 0 0 0 0.25 0"/>
<feBlend mode="normal" in2="BackgroundImageFix" result="effect1_dropShadow"/>
<feBlend mode="normal" in="SourceGraphic" in2="effect1_dropShadow" result="shape"/>
</filter>
<clipPath id="clip0">
<rect width="234" height="515" fill="white" transform="translate(4.60059 0.679199)"/>
</clipPath>
</defs>
</svg>
