<svg width="154" height="342" viewBox="0 0 154 342" fill="none" xmlns="http://www.w3.org/2000/svg">
<g clip-path="url(#clip0)" filter="url(#filter0_i)">
<path d="M117.354 295.263C139.128 276.655 153.629 243.513 153.629 205.721C153.629 147.521 119.232 100.343 76.8091 100.343C34.3862 100.343 -0.0107727 147.521 -0.0107727 205.721C-0.0107727 242.894 14.0211 275.562 35.2052 294.325" fill="#F27500"/>
<path d="M75.2799 153.893C33.8184 153.893 0.207169 119.9 0.207169 77.9681C0.207169 36.0358 33.8184 2.04297 75.2799 2.04297C116.741 2.04297 150.353 36.0358 150.353 77.9681C150.353 119.9 116.741 153.893 75.2799 153.893Z" fill="#F27500"/>
<path d="M44.9033 196.993C49.4883 201.337 60.4922 206.633 67.8282 193.065C67.1228 193.601 78.5852 212.347 89.3423 193.065C90.0477 193.065 100.628 212.347 110.327 193.065" stroke="#F69D49" stroke-width="2" stroke-linecap="round" stroke-linejoin="round"/>
<path d="M57.0713 181.638C64.8305 181.638 68.181 175.925 68.8864 173.069C68.181 173.604 79.6435 192.351 90.4005 173.069C91.1059 175.925 94.4565 181.638 102.216 181.638" stroke="#F69D49" stroke-width="2" stroke-linecap="round" stroke-linejoin="round"/>
<g filter="url(#filter1_d)">
<path d="M0.31625 209.542C1.15706 237.328 9.7508 262.364 23.1383 280.785C37.3885 261.127 45.8185 233.628 44.9121 203.479C44.0713 175.682 35.4776 150.657 22.0901 132.226C7.85082 151.861 -0.590084 179.36 0.31625 209.542Z" fill="#F69D49"/>
</g>
<g filter="url(#filter2_d)">
<path d="M137.177 153.483C155.841 173.871 167.066 197.81 170.307 220.447C146.526 216.559 121.455 202.957 101.182 180.81C82.5185 160.422 71.2937 136.482 68.0524 113.845C91.8263 117.726 116.897 131.328 137.177 153.483Z" fill="#F69D49"/>
</g>
<path d="M22.418 131.784L11.4109 122.099C11.2919 121.998 11.2089 121.86 11.1747 121.707C11.1404 121.554 11.1567 121.394 11.2212 121.251C11.2856 121.108 11.3946 120.99 11.5314 120.916C11.6683 120.842 11.8254 120.815 11.9788 120.84L13.5512 121.072L5.90745 113.96C5.79237 113.852 5.71572 113.709 5.68951 113.553C5.66331 113.396 5.68899 113.236 5.76256 113.096C5.83612 112.956 5.95345 112.844 6.0962 112.779C6.23895 112.713 6.39909 112.698 6.55167 112.734L8.91036 113.308" fill="#F27500"/>
<path d="M130.042 130.061L140.754 119.989C140.864 119.883 140.937 119.744 140.963 119.592C140.988 119.441 140.965 119.285 140.897 119.148C140.828 119.01 140.718 118.899 140.582 118.83C140.447 118.761 140.292 118.737 140.143 118.764L138.581 119.051L145.985 111.674C146.097 111.562 146.17 111.416 146.191 111.258C146.212 111.1 146.181 110.94 146.102 110.802C146.023 110.664 145.901 110.557 145.756 110.497C145.61 110.436 145.448 110.427 145.297 110.47L142.96 111.11" fill="#F27500"/>
<path d="M73.4125 79.7906L66.2819 89.7299C66.1332 89.8838 66.0164 90.0662 65.9385 90.2664C65.8606 90.4666 65.8231 90.6805 65.8281 90.8956C65.8332 91.1107 65.8809 91.3226 65.9682 91.5188C66.0555 91.715 66.1807 91.8916 66.3365 92.038L73.882 104.893C74.194 105.192 74.6102 105.354 75.0399 105.343C75.4695 105.333 75.8776 105.151 76.1752 104.838L83.3057 91.5852C83.6085 91.277 83.7783 90.8602 83.7783 90.4257C83.7783 89.9912 83.6085 89.5743 83.3057 89.2661L75.7493 79.8017C75.6008 79.6384 75.4206 79.5078 75.22 79.4182C75.0194 79.3286 74.8026 79.2818 74.5833 79.2808C74.3639 79.2797 74.1468 79.3245 73.9453 79.4122C73.7438 79.4999 73.5625 79.6288 73.4125 79.7906Z" fill="#FDE01B"/>
<path d="M75.6181 101.793C74.409 104.241 74.1129 105.124 73.8609 104.869C74.7678 105.787 75.7812 105.244 76.1591 104.862C78.3003 101.036 82.7552 93.0751 83.3598 91.851C83.9644 90.6268 83.8051 89.9339 83.6792 89.8064C81.8713 86.7464 76.6196 80.5225 75.3663 79.4776C74.7073 78.9281 74.1488 79.2881 73.8562 79.4767L73.8548 79.4776L73.3736 79.8362L81.412 90.5715C79.9005 93.3768 76.8273 99.3446 75.6181 101.793Z" fill="#DCC31E"/>
<g filter="url(#filter3_i)">
<path d="M46.6966 84.4942C34.6247 84.4942 24.8386 74.5865 24.8386 62.3648C24.8386 50.143 34.6247 40.2354 46.6966 40.2354C58.7685 40.2354 68.5547 50.143 68.5547 62.3648C68.5547 74.5865 58.7685 84.4942 46.6966 84.4942Z" fill="white"/>
</g>
<path d="M51.6649 72.4234C44.5315 72.4234 38.7488 66.5689 38.7488 59.347C38.7488 52.125 44.5315 46.2705 51.6649 46.2705C58.7983 46.2705 64.5811 52.125 64.5811 59.347C64.5811 66.5689 58.7983 72.4234 51.6649 72.4234Z" fill="black"/>
<path d="M54.6456 55.3234C54.6456 58.101 56.8697 60.3528 59.6133 60.3528C62.3569 60.3528 64.5811 58.101 64.5811 55.3234C64.5811 52.5457 62.3569 50.2939 59.6133 50.2939C56.8697 50.2939 54.6456 52.5457 54.6456 55.3234Z" fill="white"/>
<g filter="url(#filter4_i)">
<path d="M102.335 84.4942C90.2634 84.4942 80.4772 74.5865 80.4772 62.3648C80.4772 50.143 90.2634 40.2354 102.335 40.2354C114.407 40.2354 124.193 50.143 124.193 62.3648C124.193 74.5865 114.407 84.4942 102.335 84.4942Z" fill="white"/>
</g>
<path d="M106.309 72.4234C99.1761 72.4234 93.3933 66.5689 93.3933 59.347C93.3933 52.125 99.1761 46.2705 106.309 46.2705C113.443 46.2705 119.226 52.125 119.226 59.347C119.226 66.5689 113.443 72.4234 106.309 72.4234Z" fill="black"/>
<path d="M40.9378 13.8045L11.007 44.5169C10.7715 44.7567 10.4729 44.9231 10.1467 44.9964C9.82051 45.0698 9.48036 45.047 9.16658 44.9308C8.8528 44.8145 8.57857 44.6097 8.3764 44.3406C8.17422 44.0715 8.05262 43.7494 8.02596 43.4125V3.07004C8.00053 2.79648 8.03851 2.52068 8.13693 2.26458C8.23534 2.00848 8.39146 1.77911 8.59287 1.59471C8.79428 1.41031 9.03547 1.27598 9.29721 1.20234C9.55895 1.12871 9.83402 1.1178 10.1007 1.17053L40.0096 10.8117C40.327 10.8643 40.6236 11.005 40.8665 11.2182C41.1094 11.4314 41.289 11.7086 41.3853 12.0189C41.4815 12.3292 41.4906 12.6605 41.4116 12.9758C41.3326 13.2911 41.1686 13.578 40.9378 13.8045Z" fill="#F27500"/>
<path d="M31.8203 15.6489L14.9822 32.9101C14.8529 33.0468 14.6873 33.1429 14.5054 33.1868C14.3234 33.2307 14.1328 33.2206 13.9564 33.1576C13.78 33.0947 13.6253 32.9815 13.5109 32.8319C13.3965 32.6822 13.3272 32.5023 13.3114 32.3138L13.6718 7.82999C13.6513 7.67317 13.6682 7.51367 13.7209 7.36476C13.7737 7.21585 13.8609 7.08182 13.9751 6.97381C14.0894 6.8658 14.2275 6.78696 14.3779 6.74379C14.5284 6.70062 14.6869 6.69439 14.8402 6.72562L31.318 13.9482C31.4971 13.9805 31.6638 14.0626 31.7996 14.1851C31.9353 14.3076 32.0347 14.4658 32.0868 14.6422C32.1389 14.8185 32.1415 15.0059 32.0945 15.1837C32.0474 15.3614 31.9525 15.5225 31.8203 15.6489Z" fill="black"/>
<path d="M110.78 13.8597L140.754 44.5611C140.988 44.8021 141.286 44.9696 141.612 45.0437C141.938 45.1177 142.278 45.0951 142.592 44.9785C142.905 44.8619 143.179 44.6563 143.38 44.3864C143.581 44.1165 143.7 43.7937 143.724 43.4567V3.11426C143.752 2.84014 143.716 2.56324 143.618 2.30597C143.521 2.04871 143.364 1.8183 143.162 1.63337C142.96 1.44844 142.718 1.31417 142.455 1.24144C142.193 1.16872 141.917 1.15959 141.65 1.21475L111.741 10.8558C111.418 10.9019 111.115 11.0387 110.866 11.2505C110.617 11.4624 110.432 11.7408 110.332 12.054C110.232 12.3672 110.22 12.7026 110.3 13.0218C110.379 13.3411 110.545 13.6315 110.78 13.8597Z" fill="#F27500"/>
<path d="M119.897 15.7372L136.736 32.9653C136.865 33.102 137.03 33.1981 137.212 33.242C137.394 33.2859 137.585 33.2758 137.761 33.2128C137.938 33.1498 138.092 33.0367 138.207 32.887C138.321 32.7373 138.39 32.5575 138.406 32.3689L138.057 7.88518C138.077 7.72836 138.06 7.56886 138.008 7.41995C137.955 7.27104 137.868 7.137 137.754 7.029C137.639 6.92099 137.501 6.84211 137.351 6.79894C137.2 6.75578 137.042 6.74957 136.888 6.78081L120.4 14.0033C120.211 14.0264 120.033 14.1049 119.888 14.2292C119.743 14.3536 119.637 14.5182 119.583 14.7028C119.53 14.8874 119.531 15.0838 119.587 15.2676C119.643 15.4515 119.751 15.6148 119.897 15.7372Z" fill="black"/>
<path d="M72.8779 2.0873L58.3001 1.57927C58.1483 1.57598 57.9994 1.62204 57.8754 1.71067C57.7513 1.7993 57.6587 1.92585 57.6111 2.07169C57.5634 2.21753 57.5632 2.37498 57.6106 2.52092C57.658 2.66685 57.7504 2.79354 57.8743 2.88241L59.1737 3.79905L48.7892 3.72174C48.6299 3.71726 48.4737 3.76713 48.3459 3.86329C48.218 3.95945 48.1259 4.09633 48.0843 4.25188C48.0427 4.40743 48.054 4.57262 48.1165 4.72085C48.179 4.86908 48.289 4.99173 48.4288 5.06907L50.5363 6.27282" fill="#F27500"/>
<path d="M101.323 6.74743L86.942 0.45257C86.7973 0.39259 86.6371 0.382597 86.4862 0.424159C86.3354 0.465722 86.2023 0.556518 86.1077 0.682422C86.0131 0.808326 85.9623 0.962284 85.9631 1.12042C85.9639 1.27856 86.0163 1.43202 86.1121 1.55694L87.2478 3.01471" fill="#F27500"/>
<path d="M101.323 6.74743L86.942 0.45257C86.7973 0.39259 86.6371 0.382597 86.4862 0.424159C86.3354 0.465722 86.2023 0.556518 86.1077 0.682422C86.0131 0.808326 85.9623 0.962284 85.9631 1.12042C85.9639 1.27856 86.0163 1.43202 86.1121 1.55694L87.2478 3.01471" fill="#F27500"/>
<path d="M85.8174 2.80512L71.4908 0.0221C71.3423 -0.00372523 71.1896 0.018931 71.0546 0.0867415C70.9197 0.154552 70.8096 0.264009 70.7403 0.399299C70.6709 0.534589 70.646 0.688667 70.669 0.839252C70.692 0.989838 70.7619 1.12911 70.8684 1.23691L71.9603 2.34127" fill="#F27500"/>
<path d="M109.29 54.3175C109.29 57.0952 111.514 59.3469 114.258 59.3469C117.001 59.3469 119.226 57.0952 119.226 54.3175C119.226 51.5398 117.001 49.2881 114.258 49.2881C111.514 49.2881 109.29 51.5398 109.29 54.3175Z" fill="white"/>
<ellipse rx="17.3871" ry="9.55588" transform="matrix(-1 0 0 1 101.838 86.0031)" fill="#F27500"/>
<ellipse rx="21.3613" ry="9.55588" transform="matrix(-1 0 0 1 44.2129 86.0031)" fill="#F27500"/>
</g>
<path d="M32.6914 317.94V309.493C32.6914 306.439 35.1362 303.964 38.1519 303.964C41.1677 303.964 43.6124 306.439 43.6124 309.493V317.94C43.6124 320.993 41.1677 323.468 38.1519 323.468C35.1362 323.468 32.6914 320.993 32.6914 317.94Z" fill="#FDE01B"/>
<path d="M42.5205 317.94V309.493C42.5205 306.439 44.9653 303.964 47.981 303.964C50.9968 303.964 53.4415 306.439 53.4415 309.493V317.94C53.4415 320.993 50.9968 323.468 47.981 323.468C44.9653 323.468 42.5205 320.993 42.5205 317.94Z" fill="#FDE01B"/>
<path d="M52.3496 318.338V309.891C52.3496 306.837 54.7944 304.362 57.8101 304.362C60.8259 304.362 63.2706 306.837 63.2706 309.891V318.338C63.2706 321.391 60.8259 323.866 57.8101 323.866C54.7944 323.866 52.3496 321.391 52.3496 318.338Z" fill="#FDE01B"/>
<path d="M84.9932 317.066V308.619C84.9932 305.566 87.4379 303.091 90.4537 303.091C93.4694 303.091 95.9142 305.566 95.9142 308.619V317.066C95.9142 320.12 93.4694 322.595 90.4537 322.595C87.4379 322.595 84.9932 320.12 84.9932 317.066Z" fill="#FDE01B"/>
<path d="M94.8213 317.066V308.619C94.8213 305.566 97.266 303.091 100.282 303.091C103.298 303.091 105.742 305.566 105.742 308.619V317.066C105.742 320.12 103.298 322.595 100.282 322.595C97.266 322.595 94.8213 320.12 94.8213 317.066Z" fill="#FDE01B"/>
<path d="M104.64 317.464V309.017C104.64 305.964 107.084 303.489 110.1 303.489C113.116 303.489 115.561 305.964 115.561 309.017V317.464C115.561 320.517 113.116 322.993 110.1 322.993C107.084 322.993 104.64 320.517 104.64 317.464Z" fill="#FDE01B"/>
<path d="M41.0275 289.687C41.0275 287.628 44.2474 285.958 48.2193 285.958C52.1912 285.958 55.4111 287.628 55.4111 289.687V308.044C55.4111 310.104 52.1912 311.773 48.2193 311.773C44.2474 311.773 41.0275 310.104 41.0275 308.044V289.687Z" fill="#FDE01B"/>
<path d="M93.985 289.687C93.985 287.628 97.0585 285.958 100.85 285.958C104.641 285.958 107.715 287.628 107.715 289.687V308.044C107.715 310.104 104.641 311.773 100.85 311.773C97.0585 311.773 93.985 310.104 93.985 308.044V289.687Z" fill="#FDE01B"/>
<defs>
<filter id="filter0_i" x="0" y="-15" width="169" height="357" filterUnits="userSpaceOnUse" color-interpolation-filters="sRGB">
<feFlood flood-opacity="0" result="BackgroundImageFix"/>
<feBlend mode="normal" in="SourceGraphic" in2="BackgroundImageFix" result="shape"/>
<feColorMatrix in="SourceAlpha" type="matrix" values="0 0 0 0 0 0 0 0 0 0 0 0 0 0 0 0 0 0 127 0" result="hardAlpha"/>
<feOffset dx="21" dy="-21"/>
<feGaussianBlur stdDeviation="7.5"/>
<feComposite in2="hardAlpha" operator="arithmetic" k2="-1" k3="1"/>
<feColorMatrix type="matrix" values="0 0 0 0 0 0 0 0 0 0 0 0 0 0 0 0 0 0 0.12 0"/>
<feBlend mode="normal" in2="shape" result="effect1_innerShadow"/>
</filter>
<filter id="filter1_d" x="-3.75" y="132.226" width="52.7286" height="156.559" filterUnits="userSpaceOnUse" color-interpolation-filters="sRGB">
<feFlood flood-opacity="0" result="BackgroundImageFix"/>
<feColorMatrix in="SourceAlpha" type="matrix" values="0 0 0 0 0 0 0 0 0 0 0 0 0 0 0 0 0 0 127 0"/>
<feOffset dy="4"/>
<feGaussianBlur stdDeviation="2"/>
<feColorMatrix type="matrix" values="0 0 0 0 0 0 0 0 0 0 0 0 0 0 0 0 0 0 0.25 0"/>
<feBlend mode="normal" in2="BackgroundImageFix" result="effect1_dropShadow"/>
<feBlend mode="normal" in="SourceGraphic" in2="effect1_dropShadow" result="shape"/>
</filter>
<filter id="filter2_d" x="64.0527" y="113.845" width="110.255" height="114.602" filterUnits="userSpaceOnUse" color-interpolation-filters="sRGB">
<feFlood flood-opacity="0" result="BackgroundImageFix"/>
<feColorMatrix in="SourceAlpha" type="matrix" values="0 0 0 0 0 0 0 0 0 0 0 0 0 0 0 0 0 0 127 0"/>
<feOffset dy="4"/>
<feGaussianBlur stdDeviation="2"/>
<feColorMatrix type="matrix" values="0 0 0 0 0 0 0 0 0 0 0 0 0 0 0 0 0 0 0.25 0"/>
<feBlend mode="normal" in2="BackgroundImageFix" result="effect1_dropShadow"/>
<feBlend mode="normal" in="SourceGraphic" in2="effect1_dropShadow" result="shape"/>
</filter>
<filter id="filter3_i" x="24.8389" y="40.2354" width="43.7161" height="48.2588" filterUnits="userSpaceOnUse" color-interpolation-filters="sRGB">
<feFlood flood-opacity="0" result="BackgroundImageFix"/>
<feBlend mode="normal" in="SourceGraphic" in2="BackgroundImageFix" result="shape"/>
<feColorMatrix in="SourceAlpha" type="matrix" values="0 0 0 0 0 0 0 0 0 0 0 0 0 0 0 0 0 0 127 0" result="hardAlpha"/>
<feOffset dy="4"/>
<feGaussianBlur stdDeviation="2"/>
<feComposite in2="hardAlpha" operator="arithmetic" k2="-1" k3="1"/>
<feColorMatrix type="matrix" values="0 0 0 0 0 0 0 0 0 0 0 0 0 0 0 0 0 0 0.25 0"/>
<feBlend mode="normal" in2="shape" result="effect1_innerShadow"/>
</filter>
<filter id="filter4_i" x="80.4775" y="40.2354" width="43.7161" height="48.2588" filterUnits="userSpaceOnUse" color-interpolation-filters="sRGB">
<feFlood flood-opacity="0" result="BackgroundImageFix"/>
<feBlend mode="normal" in="SourceGraphic" in2="BackgroundImageFix" result="shape"/>
<feColorMatrix in="SourceAlpha" type="matrix" values="0 0 0 0 0 0 0 0 0 0 0 0 0 0 0 0 0 0 127 0" result="hardAlpha"/>
<feOffset dy="4"/>
<feGaussianBlur stdDeviation="2"/>
<feComposite in2="hardAlpha" operator="arithmetic" k2="-1" k3="1"/>
<feColorMatrix type="matrix" values="0 0 0 0 0 0 0 0 0 0 0 0 0 0 0 0 0 0 0.25 0"/>
<feBlend mode="normal" in2="shape" result="effect1_innerShadow"/>
</filter>
<clipPath id="clip0">
<rect width="154" height="342" fill="white" transform="matrix(-1 0 0 1 154 0)"/>
</clipPath>
</defs>
</svg>
