<svg width="189" height="212" viewBox="0 0 189 212" fill="none" xmlns="http://www.w3.org/2000/svg">
<circle cx="94.8052" cy="117.619" r="89.8462" fill="white" stroke="black" stroke-width="8"/>
<mask id="mask0" mask-type="alpha" maskUnits="userSpaceOnUse" x="1" y="23" width="188" height="189">
<circle cx="94.8931" cy="117.619" r="89.8462" fill="white" stroke="black" stroke-width="8"/>
</mask>
<g mask="url(#mask0)">
<path d="M57.1057 287.506C36.8134 270.429 23.2988 240.014 23.2988 205.332C23.2988 151.92 55.3553 108.624 94.8917 108.624C134.428 108.624 166.485 151.92 166.485 205.332C166.485 239.446 153.408 269.425 133.665 286.645" fill="#ED1D54"/>
</g>
<circle cx="94.8052" cy="117.861" r="89.8462" stroke="black" stroke-width="8"/>
<path d="M94.248 177.589C142.58 177.589 181.762 138.568 181.762 90.4336C181.762 42.2991 142.58 3.27838 94.248 3.27838C45.9156 3.27838 6.73438 42.2991 6.73438 90.4336C6.73438 138.568 45.9156 177.589 94.248 177.589Z" fill="#ED1D54"/>
<path d="M155.871 152.209L168.702 141.091C168.841 140.975 168.938 140.817 168.978 140.641C169.018 140.465 168.999 140.281 168.923 140.117C168.848 139.953 168.721 139.818 168.562 139.733C168.402 139.648 168.219 139.617 168.04 139.646L166.207 139.912L175.118 131.748C175.252 131.624 175.341 131.46 175.372 131.28C175.402 131.101 175.372 130.917 175.287 130.756C175.201 130.595 175.064 130.467 174.898 130.392C174.731 130.317 174.545 130.299 174.367 130.341L171.617 131" fill="#ED1D54"/>
<path d="M30.4126 150.232L17.9252 138.671C17.7972 138.549 17.712 138.389 17.6821 138.215C17.6521 138.041 17.679 137.862 17.7588 137.705C17.8386 137.547 17.9672 137.419 18.1255 137.34C18.2837 137.26 18.4634 137.234 18.6381 137.264L20.4583 137.593L11.828 129.125C11.697 128.997 11.6124 128.829 11.5876 128.648C11.5629 128.467 11.5993 128.283 11.6911 128.125C11.783 127.966 11.925 127.843 12.095 127.774C12.2649 127.705 12.4531 127.694 12.6299 127.743L15.3539 128.478" fill="#ED1D54"/>
<path d="M96.4254 92.5263L104.738 103.936C104.911 104.112 105.047 104.322 105.138 104.552C105.229 104.781 105.273 105.027 105.267 105.274C105.261 105.521 105.205 105.764 105.103 105.989C105.002 106.214 104.856 106.417 104.674 106.585L95.8781 121.341C95.5144 121.685 95.0292 121.871 94.5284 121.859C94.0275 121.847 93.5518 121.638 93.205 121.278L84.8927 106.065C84.5398 105.712 84.3418 105.233 84.3418 104.734C84.3418 104.236 84.5398 103.757 84.8927 103.403L93.7014 92.539C93.8745 92.3516 94.0845 92.2017 94.3184 92.0988C94.5523 91.9959 94.805 91.9423 95.0607 91.9411C95.3163 91.9399 95.5695 91.9912 95.8043 92.0919C96.0392 92.1926 96.2506 92.3405 96.4254 92.5263Z" fill="#FDE01B"/>
<path d="M29.6362 35.823C30.0591 36.6689 30.1627 36.9739 30.2508 36.8858C29.9336 37.203 29.5791 37.0154 29.447 36.8832C28.698 35.5615 27.1397 32.8111 26.9283 32.3881C26.7168 31.9652 26.7725 31.7258 26.8166 31.6817C27.4489 30.6245 29.2859 28.4742 29.7243 28.1132C29.9548 27.9234 30.1501 28.0477 30.2525 28.1129L30.2529 28.1132L30.4213 28.2371L27.6096 31.9461C28.1383 32.9153 29.2132 34.9771 29.6362 35.823Z" fill="#F2D405"/>
<path d="M127.568 97.9263C141.641 97.9263 153.049 86.5532 153.049 72.5237C153.049 58.4943 141.641 47.1212 127.568 47.1212C113.496 47.1212 102.088 58.4943 102.088 72.5237C102.088 86.5532 113.496 97.9263 127.568 97.9263Z" fill="white"/>
<path d="M62.7089 97.9263C76.7813 97.9263 88.1892 86.5532 88.1892 72.5237C88.1892 58.4943 76.7813 47.1212 62.7089 47.1212C48.6365 47.1212 37.2285 58.4943 37.2285 72.5237C37.2285 86.5532 48.6365 97.9263 62.7089 97.9263Z" fill="white"/>
<path d="M125.608 88.4389C134.426 88.4389 141.573 81.3127 141.573 72.5222C141.573 63.7316 134.426 56.6055 125.608 56.6055C116.791 56.6055 109.643 63.7316 109.643 72.5222C109.643 81.3127 116.791 88.4389 125.608 88.4389Z" fill="black"/>
<path d="M64.8612 88.4572C73.6879 88.4572 80.8435 81.3235 80.8435 72.5237C80.8435 63.7239 73.6879 56.5902 64.8612 56.5902C56.0344 56.5902 48.8789 63.7239 48.8789 72.5237C48.8789 81.3235 56.0344 88.4572 64.8612 88.4572Z" fill="black"/>
<path d="M134.282 16.7793L169.173 52.0344C169.448 52.3096 169.796 52.5007 170.176 52.5849C170.556 52.6691 170.953 52.6429 171.319 52.5095C171.684 52.376 172.004 52.1409 172.24 51.832C172.475 51.5231 172.617 51.1534 172.648 50.7667V4.45717C172.678 4.14315 172.634 3.82656 172.519 3.53257C172.404 3.23859 172.222 2.9753 171.987 2.76362C171.753 2.55195 171.471 2.39775 171.166 2.31322C170.861 2.22869 170.541 2.21618 170.23 2.2767L135.364 13.3438C134.994 13.4043 134.649 13.5658 134.365 13.8105C134.082 14.0552 133.873 14.3734 133.761 14.7297C133.649 15.0859 133.638 15.4662 133.73 15.8281C133.822 16.19 134.013 16.5193 134.282 16.7793Z" fill="#ED1D54"/>
<path d="M144.909 18.897L164.538 38.7113C164.689 38.8682 164.882 38.9785 165.094 39.0289C165.306 39.0793 165.528 39.0677 165.734 38.9954C165.939 38.9231 166.12 38.7933 166.253 38.6215C166.386 38.4496 166.467 38.2432 166.486 38.0268L166.065 9.92158C166.089 9.74157 166.07 9.55848 166.008 9.38754C165.947 9.2166 165.845 9.06275 165.712 8.93877C165.579 8.81479 165.418 8.72428 165.242 8.67472C165.067 8.62517 164.882 8.61801 164.703 8.65387L145.495 16.9447C145.286 16.9819 145.092 17.076 144.934 17.2167C144.775 17.3573 144.659 17.5389 144.599 17.7413C144.538 17.9437 144.535 18.1589 144.59 18.363C144.645 18.567 144.755 18.7519 144.909 18.897Z" fill="black"/>
<path d="M52.8659 16.8427L17.9241 52.0851C17.6511 52.3617 17.3039 52.554 16.9239 52.639C16.544 52.724 16.1475 52.698 15.782 52.5642C15.4165 52.4304 15.0975 52.1944 14.8633 51.8846C14.6291 51.5747 14.4898 51.2042 14.4617 50.8174V4.50787C14.4293 4.1932 14.4717 3.87534 14.5855 3.58002C14.6993 3.28471 14.8813 3.02022 15.1168 2.80794C15.3522 2.59565 15.6346 2.44152 15.9409 2.35804C16.2473 2.27456 16.5691 2.26408 16.8802 2.3274L51.7457 13.3945C52.1214 13.4474 52.4745 13.6044 52.7649 13.8476C53.0554 14.0908 53.2713 14.4104 53.3881 14.7699C53.5049 15.1294 53.5178 15.5144 53.4255 15.8809C53.3332 16.2474 53.1393 16.5807 52.8659 16.8427Z" fill="#ED1D54"/>
<path d="M42.2362 18.9984L22.6077 38.7747C22.457 38.9317 22.264 39.042 22.0519 39.0924C21.8398 39.1428 21.6175 39.1311 21.4119 39.0588C21.2063 38.9866 21.026 38.8567 20.8926 38.6849C20.7593 38.5131 20.6786 38.3066 20.6602 38.0902L21.0674 9.98503C21.0436 9.80501 21.0633 9.62192 21.1248 9.45099C21.1863 9.28005 21.2878 9.12619 21.421 9.00221C21.5542 8.87823 21.7152 8.78768 21.8906 8.73813C22.066 8.68858 22.2507 8.68146 22.4295 8.71732L41.6507 17.0081C41.8708 17.0346 42.0782 17.1247 42.2474 17.2674C42.4165 17.4102 42.5399 17.5992 42.6023 17.811C42.6646 18.0229 42.6631 18.2483 42.5981 18.4594C42.533 18.6705 42.4072 18.8579 42.2362 18.9984Z" fill="black"/>
<path d="M97.0488 3.32865L114.042 2.74547C114.219 2.7417 114.393 2.79457 114.538 2.89632C114.682 2.99806 114.79 3.14333 114.846 3.31074C114.901 3.47815 114.901 3.65889 114.846 3.8264C114.791 3.99392 114.683 4.13935 114.539 4.24136L113.024 5.29359L125.13 5.20484C125.315 5.1997 125.497 5.25694 125.646 5.36732C125.795 5.47771 125.903 5.63483 125.951 5.81339C126 5.99195 125.987 6.18157 125.914 6.35173C125.841 6.52188 125.713 6.66267 125.55 6.75145L123.093 8.13325" fill="#ED1D54"/>
<path d="M63.8887 8.67867L80.6532 1.45274C80.8218 1.38389 81.0086 1.37241 81.1844 1.42012C81.3603 1.46783 81.5154 1.57206 81.6257 1.71659C81.736 1.86111 81.7953 2.03784 81.7943 2.21937C81.7934 2.4009 81.7323 2.57705 81.6205 2.72045L80.2967 4.39384" fill="#ED1D54"/>
<path d="M81.9648 4.15247L98.6656 0.957809C98.8387 0.928164 99.0167 0.954171 99.174 1.03201C99.3313 1.10985 99.4597 1.2355 99.5405 1.3908C99.6213 1.5461 99.6504 1.72297 99.6236 1.89583C99.5967 2.06868 99.5153 2.22856 99.3912 2.3523L98.1183 3.62001" fill="#ED1D54"/>
<path d="M118.226 64.1517C118.226 66.8368 116.043 69.0135 113.349 69.0135C110.656 69.0135 108.473 66.8368 108.473 64.1517C108.473 61.4666 110.656 59.2899 113.349 59.2899C116.043 59.2899 118.226 61.4666 118.226 64.1517Z" fill="white"/>
<path d="M57.0835 64.1517C57.0835 66.8368 54.9001 69.0135 52.2068 69.0135C49.5135 69.0135 47.3301 66.8368 47.3301 64.1517C47.3301 61.4666 49.5135 59.2899 52.2068 59.2899C54.9001 59.2899 57.0835 61.4666 57.0835 64.1517Z" fill="white"/>
<path d="M77.1001 47.8425L44.1232 51.8764L56.832 38.0852L77.1001 47.8425Z" fill="#ED1D54"/>
<path d="M148.185 53.9968L116.095 45.3981L133.041 37.3642L148.185 53.9968Z" fill="#ED1D54"/>
</svg>
