<svg width="202" height="220" viewBox="0 0 202 220" fill="none" xmlns="http://www.w3.org/2000/svg">
<circle cx="100.722" cy="120.438" r="95.2378" stroke="black" stroke-width="8"/>
<path d="M177.73 110.607C156.876 85.5332 157.683 56.7566 157.659 49.7985C157.653 47.3809 157.468 45.0184 157.108 42.6521C155.467 31.4133 150.683 4.89353 142.095 3.9979C131.213 2.87514 119.843 45.5505 119.843 45.5505C119.843 45.5505 109.422 44.9096 98.2671 45.4907C87.0684 45.3634 82.1343 46.0218 82.1343 46.0218C82.1343 46.0218 63.562 4.22368 52.7383 5.81445C44.2219 7.04302 40.5115 33.7895 39.3208 45.0842C39.0911 47.4966 38.9806 49.8526 39.0455 52.2715C39.3057 59.2347 42.6287 76.8474 23.0123 107.345C13.493 124.343 19.7322 134.395 62.5569 187.397C78.1368 202.832 91.2486 207.129 101.462 206.468L101.521 206.47C111.775 206.694 124.674 201.847 139.588 185.782C178.71 139.018 188.07 123.038 177.73 110.607Z" fill="#F27500"/>
<path d="M45.0707 138.142C43.6902 134.715 42.8934 131.736 42.5177 129.15C40.8762 117.851 54.001 107.221 64.2864 112.178C66.9159 113.445 69.4481 115.785 71.5917 119.773C76.0356 124.934 80.0429 152.933 84.1205 157.226C88.1981 161.52 89.7853 162.322 89.7853 162.322C89.7853 162.322 97.1544 167.455 106.498 162.688C115.842 157.921 116.109 155.966 117.539 152.293C118.655 149.427 120.437 120.538 134.013 113.395C142.88 108.73 151.843 117.815 152.05 127.833C152.202 135.189 151.116 144.396 147.702 152.953C138.33 171.567 122.69 190.551 96.8201 191.032C70.9498 191.514 52.4344 156.418 45.0707 138.142Z" fill="white"/>
<path d="M117.825 104.928C124.391 105.071 129.855 98.7804 130.028 90.8761C130.201 82.9719 125.018 76.4476 118.452 76.3038C111.886 76.16 106.422 82.4511 106.249 90.3553C106.076 98.2596 111.259 104.784 117.825 104.928Z" fill="white"/>
<path d="M75.6746 103.752C82.241 103.896 87.7044 97.6051 87.8775 89.7008C88.0506 81.7966 82.8679 75.2723 76.3015 75.1285C69.7352 74.9847 64.2718 81.2758 64.0987 89.18C63.9255 97.0843 69.1083 103.609 75.6746 103.752Z" fill="white"/>
<path d="M121.381 100.063C125.397 100.151 128.754 95.6055 128.879 89.9103C129.003 84.2151 125.849 79.5269 121.833 79.439C117.816 79.351 114.459 83.8966 114.335 89.5918C114.21 95.2869 117.365 99.9751 121.381 100.063Z" fill="black"/>
<path d="M87.628 170.874C97.0105 180.275 98.7507 177.853 106.129 171.28C102.855 169.89 101.508 169.565 97.3182 166.227C95.717 168.767 87.3706 170.869 87.628 170.874Z" fill="#EB3F6D" stroke="black" stroke-width="3"/>
<path d="M78.9096 99.4044C83.0378 99.4948 86.4868 94.8905 86.6132 89.1204C86.7395 83.3502 83.4954 78.5993 79.3673 78.5089C75.2391 78.4185 71.7901 83.0228 71.6638 88.7929C71.5374 94.5631 74.7815 99.314 78.9096 99.4044Z" fill="black"/>
<path d="M127.583 92.2237C129.201 91.8569 129.963 89.1416 129.287 86.1591C128.61 83.1766 126.751 81.0562 125.133 81.423C123.516 81.7899 122.754 84.5051 123.43 87.4876C124.107 90.4701 125.966 92.5906 127.583 92.2237Z" fill="white"/>
<path d="M85.2279 91.2699C86.8451 90.903 87.6077 88.1878 86.9311 85.2053C86.2545 82.2228 84.395 80.1023 82.7778 80.4692C81.1606 80.8361 80.3981 83.5513 81.0746 86.5338C81.7512 89.5163 83.6107 91.6367 85.2279 91.2699Z" fill="white"/>
<path d="M174.547 106.786C176.481 110.041 182.627 116.729 191.796 117.574C191.852 117.575 191.902 117.579 191.944 117.587C191.895 117.583 191.845 117.579 191.796 117.574C190.315 117.561 184.074 120.107 180.475 117.081C181.869 119.765 188.376 122.457 198.046 122.677C197.633 123.145 184.671 126.336 176.29 120.463C174.297 120.088 173.654 111.152 173.582 106.731L174.547 106.786Z" fill="#F27500"/>
<path d="M26.9182 102.076C24.8542 105.251 18.4435 111.685 9.24839 112.16C9.19184 112.158 9.14208 112.16 9.0995 112.167C9.14922 112.165 9.19884 112.162 9.24839 112.16C10.7288 112.206 16.8619 115.002 20.58 112.123C19.0789 114.749 12.4681 117.176 2.79713 117.006C3.19172 117.49 16.0141 121.202 24.6255 115.671C26.6317 115.377 27.6343 106.475 27.8848 102.06L26.9182 102.076Z" fill="#F27500"/>
<path d="M55.7291 14.4498C62.004 14.9259 72.2664 36.4678 76.6133 47.1792C63.1188 45.4815 52.0871 52.169 46.8851 54.3209C43.7669 41.4489 49.4542 13.9737 55.7291 14.4498Z" fill="#D96600"/>
<path d="M141.413 15.6397C135.602 15.9414 128.329 35.7838 124.078 46.053C136.588 44.7512 149.238 48.8611 154 51.0787C153.119 38.8829 147.223 15.338 141.413 15.6397Z" fill="#D96600"/>
<path d="M143.074 192.381C142.488 183.047 150.854 170.763 155.11 165.788C148.14 171.428 134.121 182.746 133.802 182.897C129.523 188.925 124.655 203.827 126.036 203.858C129.463 191.689 143.389 177.973 143.376 178.565C140.484 184.426 142.481 192.369 143.074 192.381Z" fill="#F27500"/>
<path d="M59.6626 194.214C60.656 184.915 52.8362 172.276 48.8021 167.119C55.5182 173.059 69.0283 184.98 69.3407 185.145C73.3517 191.355 77.5627 206.455 76.181 206.425C73.2909 194.118 59.9781 179.805 59.9652 180.398C62.5985 186.38 60.2549 194.228 59.6626 194.214Z" fill="#F27500"/>
<path d="M59.8431 121.074C61.8849 121.043 65.0133 125.072 70.407 151.592C75.8008 178.111 90.914 172.334 97.7963 166.131" stroke="black" stroke-width="4" stroke-linecap="round"/>
<path d="M134.775 119.695C132.733 119.724 129.725 123.844 125.116 150.511C120.507 177.178 105.23 171.849 98.1674 165.851" stroke="black" stroke-width="4" stroke-linecap="round"/>
<path d="M102.932 154.148L92.5461 153.921C89.9585 153.864 88.5184 156.891 90.1947 158.863L95.5453 165.158C96.7526 166.578 98.9493 166.565 100.14 165.13L105.174 159.063C106.777 157.132 105.441 154.203 102.932 154.148Z" fill="black"/>
<path d="M86.6722 170.887C88.542 170.736 93.1913 169.609 96.8302 166.305C102.761 171.542 106.496 171.528 106.795 171.535" stroke="black"/>
</svg>
