<svg width="283" height="197" viewBox="0 0 283 197" fill="none" xmlns="http://www.w3.org/2000/svg">
<path d="M95.2676 178.54L115.659 146.065H166.636L185.139 180.806C147.378 200.743 109.491 187.603 95.2676 178.54Z" fill="#E6E6E6"/>
<circle cx="140.204" cy="102.459" r="89.8462" stroke="black" stroke-width="8"/>
<circle cx="140.204" cy="102.7" r="89.8462" stroke="black" stroke-width="8"/>
<path d="M172.967 82.7659C187.039 82.7659 198.447 71.3928 198.447 57.3634C198.447 43.334 187.039 31.9608 172.967 31.9608C158.894 31.9608 147.486 43.334 147.486 57.3634C147.486 71.3928 158.894 82.7659 172.967 82.7659Z" fill="white"/>
<path d="M108.107 82.7659C122.18 82.7659 133.588 71.3928 133.588 57.3634C133.588 43.334 122.18 31.9608 108.107 31.9608C94.0349 31.9608 82.627 43.334 82.627 57.3634C82.627 71.3928 94.0349 82.7659 108.107 82.7659Z" fill="white"/>
<path d="M163.624 49.4719C163.624 52.157 161.441 54.3337 158.748 54.3337C156.054 54.3337 153.871 52.157 153.871 49.4719C153.871 46.7868 156.054 44.6101 158.748 44.6101C161.441 44.6101 163.624 46.7868 163.624 49.4719Z" fill="white"/>
<path d="M102.482 48.9914C102.482 51.6765 100.299 53.8532 97.6052 53.8532C94.9119 53.8532 92.7285 51.6765 92.7285 48.9914C92.7285 46.3063 94.9119 44.1295 97.6052 44.1295C100.299 44.1295 102.482 46.3063 102.482 48.9914Z" fill="white"/>
<path d="M86.7859 3.17092C80.5114 12.4745 83.0897 30.3063 85.1632 38.0593L119.375 16.1526C111.127 7.94891 93.0604 -6.13265 86.7859 3.17092Z" fill="#E6E6E6"/>
<path d="M195.732 5.08692C202.006 14.3905 199.428 32.2223 197.354 39.9753L163.142 18.0686C171.391 9.86491 189.457 -4.21665 195.732 5.08692Z" fill="#E6E6E6"/>
<path d="M253.581 115.258C235.716 125.732 177.096 158.442 141.527 158.442C105.958 158.442 47.3372 125.732 29.4681 115.258C28.7996 114.866 28.223 114.335 27.7768 113.701C27.3306 113.068 27.0254 112.346 26.8815 111.584C26.7376 110.823 26.7585 110.039 26.9426 109.287C27.1268 108.534 27.4701 107.829 27.9494 107.22L76.8272 45.0338C106.829 13.6232 126.792 10.1543 135.883 10.8016C139.641 11.0723 143.413 11.0723 147.17 10.8016C156.261 10.1585 176.22 13.6317 206.222 45.0676L255.1 107.254C255.573 107.862 255.911 108.565 256.092 109.314C256.273 110.063 256.292 110.842 256.148 111.599C256.005 112.356 255.702 113.074 255.259 113.705C254.816 114.336 254.244 114.865 253.581 115.258Z" fill="#E6E6E6"/>
<path d="M28.6264 106.357C26.238 109.593 23.2773 112.365 19.8906 114.535C19.8906 114.535 29.8997 112.457 29.519 109.073C29.1382 105.689 28.6264 106.357 28.6264 106.357Z" fill="#E6E6E6"/>
<path d="M32.3314 106.802C29.9431 110.038 26.9823 112.809 23.5957 114.979C23.5957 114.979 33.6048 112.902 33.2283 109.517C32.8518 106.133 32.3314 106.802 32.3314 106.802Z" fill="#E6E6E6"/>
<path d="M253.901 105.778C253.901 105.778 258.897 112.969 266.736 117.788C266.736 117.788 252.032 114.738 252.581 109.771C253.131 104.805 253.901 105.778 253.901 105.778Z" fill="#E6E6E6"/>
<path d="M247.972 105.414C247.972 105.414 252.917 112.635 260.718 117.517C260.718 117.517 246.035 114.361 246.623 109.395C247.211 104.428 247.972 105.414 247.972 105.414Z" fill="#E6E6E6"/>
<path d="M225.871 71.7782C225.871 71.7782 233.101 78.4199 242.864 81.783C242.864 81.783 226.019 82.0453 225.405 76.4739C224.792 70.9025 225.871 71.7782 225.871 71.7782Z" fill="#E6E6E6"/>
<path d="M206.885 49.0314C206.885 49.0314 214.114 55.6731 223.878 59.0363C223.878 59.0363 207.029 59.2986 206.419 53.7272C205.81 48.1558 206.885 49.0314 206.885 49.0314Z" fill="#E6E6E6"/>
<path d="M57.2689 71.3594C57.2689 71.3594 47.2302 81.1274 33.4434 86.3265C33.4434 86.3265 57.4804 86.0092 58.1276 78.035C58.7749 70.0607 57.2689 71.3594 57.2689 71.3594Z" fill="#E6E6E6"/>
<path d="M75.9134 49.0315C75.9134 49.0315 68.6836 55.6731 58.9199 59.0278C58.9199 59.0278 75.7653 59.2901 76.3787 53.7187C76.9921 48.1473 75.9134 49.0315 75.9134 49.0315Z" fill="#E6E6E6"/>
<path d="M212.05 41.8568H69.1014C66.5828 41.8568 64.541 43.8985 64.541 46.4172V49.4503C64.541 51.9689 66.5828 54.0107 69.1014 54.0107H212.05C214.569 54.0107 216.61 51.9689 216.61 49.4503V46.4172C216.61 43.8985 214.569 41.8568 212.05 41.8568Z" fill="#3D3D3D"/>
<path d="M141.527 20.0407C146.298 20.0407 150.166 16.1731 150.166 11.4023C150.166 6.63138 146.298 2.76382 141.527 2.76382C136.756 2.76382 132.889 6.63138 132.889 11.4023C132.889 16.1731 136.756 20.0407 141.527 20.0407Z" fill="#3D3D3D"/>
<path d="M207.816 41.8568H75.2363C75.2363 41.8568 94.7257 5.98738 141.526 5.98738C188.327 5.98738 207.816 41.8568 207.816 41.8568Z" fill="#3D3D3D"/>
<path d="M141.524 111.404C141.101 111.404 140.716 111.404 140.335 111.349L140.069 111.324L139.887 111.298L139.578 111.252L139.282 111.197H139.214C139.126 111.182 139.038 111.162 138.952 111.138C138.808 111.107 138.667 111.073 138.529 111.036C137.839 110.844 137.176 110.568 136.553 110.215L136.333 110.089C135.965 109.878 135.614 109.637 135.284 109.369C135.086 109.209 134.897 109.038 134.717 108.858C134.624 108.769 134.535 108.68 134.451 108.587C134.366 108.494 134.277 108.405 134.197 108.308C134.053 108.143 133.913 107.969 133.774 107.796C130.559 103.536 130.766 96.8433 130.872 95.1934C130.872 94.9523 130.901 94.8169 130.901 94.8169H152.688C152.688 94.8169 153.809 111.404 141.524 111.404Z" fill="#231F20"/>
<path d="M143.638 107.478V107.762C143.596 113.41 142.886 119.033 141.523 124.514C140.152 129.768 137.901 135.145 134.204 138.897C132.661 140.511 130.802 141.79 128.743 142.653C126.684 143.516 124.469 143.946 122.236 143.915C121.675 143.915 121.137 143.692 120.741 143.295C120.344 142.898 120.121 142.36 120.121 141.799C120.121 141.238 120.344 140.7 120.741 140.304C121.137 139.907 121.675 139.684 122.236 139.684C123.907 139.717 125.567 139.4 127.108 138.754C128.65 138.108 130.039 137.146 131.188 135.932C137.787 129.244 139.09 115.626 139.348 109.987C139.395 108.929 139.407 108.151 139.407 107.762V107.419C139.403 107.357 139.403 107.295 139.407 107.233C139.413 107.163 139.423 107.094 139.437 107.026C139.437 106.962 139.467 106.899 139.484 106.84C139.504 106.769 139.53 106.7 139.56 106.632C139.579 106.583 139.601 106.535 139.627 106.489C139.886 105.991 140.327 105.613 140.858 105.435H140.896L141.091 105.389C141.159 105.374 141.229 105.364 141.298 105.359C141.369 105.355 141.439 105.355 141.51 105.359H141.544C141.604 105.355 141.665 105.355 141.726 105.359C141.795 105.365 141.864 105.375 141.933 105.389L142.128 105.435C142.195 105.456 142.262 105.482 142.326 105.511C142.374 105.529 142.421 105.55 142.466 105.575C142.542 105.609 142.615 105.651 142.682 105.702L142.809 105.79C142.874 105.842 142.936 105.897 142.995 105.955C143.037 105.998 143.079 106.044 143.117 106.091C143.168 106.144 143.214 106.202 143.253 106.264C143.291 106.314 143.323 106.368 143.35 106.425C143.43 106.558 143.492 106.7 143.536 106.848C143.536 106.907 143.57 106.971 143.583 107.034C143.597 107.103 143.607 107.172 143.612 107.242C143.625 107.32 143.633 107.399 143.638 107.478Z" fill="#231F20"/>
<path d="M160.818 143.915C158.585 143.946 156.371 143.516 154.312 142.654C152.253 141.791 150.394 140.514 148.85 138.902C139.213 129.121 139.403 108.299 139.416 107.419C139.424 106.863 139.65 106.333 140.046 105.943C140.442 105.552 140.975 105.334 141.531 105.334H141.561C141.839 105.337 142.113 105.396 142.368 105.506C142.623 105.616 142.854 105.775 143.048 105.974C143.242 106.173 143.394 106.409 143.497 106.667C143.6 106.925 143.65 107.201 143.646 107.478C143.646 107.677 143.469 127.425 151.866 135.936C153.015 137.149 154.405 138.11 155.946 138.755C157.488 139.4 159.147 139.717 160.818 139.684C161.379 139.684 161.917 139.907 162.313 140.304C162.71 140.7 162.933 141.238 162.933 141.799C162.933 142.36 162.71 142.898 162.313 143.295C161.917 143.692 161.379 143.915 160.818 143.915Z" fill="#231F20"/>
<path d="M158.697 114.632C158.697 114.632 210.388 89.5079 271.42 108.853" stroke="#231F20" stroke-width="5" stroke-miterlimit="10" stroke-linecap="round"/>
<path d="M159.229 120.525C159.229 120.525 246.294 100.063 279.642 134.752" stroke="#231F20" stroke-width="5" stroke-miterlimit="10" stroke-linecap="round"/>
<path d="M159.229 126.574C159.229 126.574 218.056 122.458 239.737 151.25" stroke="#231F20" stroke-width="5" stroke-miterlimit="10" stroke-linecap="round"/>
<path d="M123.82 114.632C123.82 114.632 72.129 89.5079 11.1016 108.853" stroke="#231F20" stroke-width="5" stroke-miterlimit="10" stroke-linecap="round"/>
<path d="M123.287 120.525C123.287 120.525 36.2211 100.063 2.87305 134.752" stroke="#231F20" stroke-width="5" stroke-miterlimit="10" stroke-linecap="round"/>
<path d="M123.283 126.574C123.283 126.574 64.4558 122.458 42.7793 151.25" stroke="#231F20" stroke-width="5" stroke-miterlimit="10" stroke-linecap="round"/>
<path d="M137.397 127.518L137.283 127.882C136.366 130.76 134.867 133.42 132.879 135.695C131.016 137.884 128.584 139.516 125.853 140.412C124.096 140.948 122.234 141.039 120.434 140.678C120.624 140.374 120.888 140.123 121.202 139.949C121.516 139.776 121.869 139.684 122.227 139.684C123.898 139.717 125.558 139.4 127.099 138.754C128.641 138.108 130.03 137.146 131.179 135.932C132.998 133.999 134.445 131.748 135.447 129.29C135.683 129.32 135.92 129.258 136.111 129.117C136.677 128.71 137.121 128.157 137.397 127.518Z" fill="#404041"/>
<path d="M140.358 114.446C140.299 114.742 140.248 115.034 140.215 115.334C140.084 116.527 139.885 117.72 139.677 118.892C139.339 120.79 138.904 122.669 138.374 124.523C138.13 125.546 137.803 126.547 137.397 127.518C137.126 128.155 136.687 128.708 136.128 129.117C135.937 129.258 135.699 129.32 135.464 129.29C137.215 125.25 138.188 120.665 138.73 116.747C138.785 116.396 138.827 116.049 138.869 115.711C138.899 115.491 138.924 115.288 138.946 115.055C139.106 113.617 139.216 112.309 139.284 111.201H139.216C139.128 111.186 139.04 111.166 138.954 111.142C138.81 111.111 138.669 111.077 138.531 111.04C137.84 110.847 137.175 110.57 136.551 110.215L136.331 110.089C135.963 109.878 135.612 109.637 135.282 109.369C135.084 109.209 134.895 109.038 134.715 108.858C134.622 108.769 134.533 108.68 134.449 108.587C134.364 108.494 134.275 108.405 134.195 108.308C134.051 108.143 133.911 107.969 133.772 107.796C130.557 103.536 130.764 96.8432 130.87 95.1934C130.891 95.0665 130.912 94.9396 130.942 94.8169H133.086C132.909 95.5705 132.809 96.3401 132.786 97.114C132.697 98.9075 132.82 100.705 133.154 102.47C133.437 104.077 134.084 105.597 135.045 106.916C135.456 107.434 135.936 107.894 136.471 108.282C136.865 108.561 137.291 108.791 137.74 108.968C138.163 109.137 138.548 109.323 138.937 109.526C139.292 109.701 139.602 109.955 139.843 110.268C140.085 110.581 140.253 110.945 140.333 111.332V111.366C140.552 112.38 140.561 113.428 140.358 114.446Z" fill="#404041"/>
<path d="M229.252 74.3419L168.923 92.1095C151.037 97.3764 132.012 97.3764 114.127 92.1095L53.7676 74.3757L63.269 62.2937L134.762 57.2892C139.251 56.9761 143.756 56.9761 148.245 57.2892L219.738 62.2811L229.252 74.3419Z" fill="#3D3D3D"/>
<path d="M121.422 88.3571C128.87 88.3571 134.908 82.9497 134.908 76.2794C134.908 69.609 128.87 64.2017 121.422 64.2017C113.974 64.2017 107.936 69.609 107.936 76.2794C107.936 82.9497 113.974 88.3571 121.422 88.3571Z" fill="white"/>
<path d="M160.969 88.3571C168.417 88.3571 174.455 82.9497 174.455 76.2794C174.455 69.609 168.417 64.2017 160.969 64.2017C153.521 64.2017 147.482 69.609 147.482 76.2794C147.482 82.9497 153.521 88.3571 160.969 88.3571Z" fill="white"/>
<path d="M155.495 74.401C156.446 74.401 157.217 73.6302 157.217 72.6793C157.217 71.7284 156.446 70.9575 155.495 70.9575C154.544 70.9575 153.773 71.7284 153.773 72.6793C153.773 73.6302 154.544 74.401 155.495 74.401Z" fill="white"/>
<path d="M166.648 78.8038C169.87 78.8038 172.482 76.4647 172.482 73.5793C172.482 70.6938 169.87 68.3547 166.648 68.3547C163.426 68.3547 160.814 70.6938 160.814 73.5793C160.814 76.4647 163.426 78.8038 166.648 78.8038Z" fill="#231F20"/>
<path d="M163.298 71.8025C164.249 71.8025 165.02 71.0316 165.02 70.0807C165.02 69.1298 164.249 68.3589 163.298 68.3589C162.347 68.3589 161.576 69.1298 161.576 70.0807C161.576 71.0316 162.347 71.8025 163.298 71.8025Z" fill="white"/>
<path d="M127.256 78.5246C130.477 78.5246 133.089 76.1855 133.089 73.3001C133.089 70.4146 130.477 68.0755 127.256 68.0755C124.034 68.0755 121.422 70.4146 121.422 73.3001C121.422 76.1855 124.034 78.5246 127.256 78.5246Z" fill="#231F20"/>
<path d="M123.905 71.5191C124.856 71.5191 125.627 70.7482 125.627 69.7973C125.627 68.8464 124.856 68.0755 123.905 68.0755C122.954 68.0755 122.184 68.8464 122.184 69.7973C122.184 70.7482 122.954 71.5191 123.905 71.5191Z" fill="white"/>
</svg>
