<svg width="725" height="436" viewBox="0 0 725 436" fill="none" xmlns="http://www.w3.org/2000/svg">
<path d="M424.307 151.465C415.617 115.934 430.576 90.1678 447.146 79.9785C454.724 92.862 464.645 105.356 462.85 131.451C459.507 180.026 416.779 231.025 375.186 205.715C364.403 199.153 428.422 204.72 424.307 151.465Z" fill="#E6E6E6"/>
<mask id="mask0" mask-type="alpha" maskUnits="userSpaceOnUse" x="367" y="77" width="125" height="154">
<path d="M424.307 151.465C415.617 115.934 430.576 90.1677 447.146 79.9784C454.724 92.8619 464.645 105.356 462.85 131.451C459.507 180.026 416.779 231.025 375.186 205.714C364.403 199.153 428.422 204.72 424.307 151.465Z" fill="#9E9D9D"/>
</mask>
<g mask="url(#mask0)">
<path fill-rule="evenodd" clip-rule="evenodd" d="M405.541 84.8561C401.132 87.0734 397.654 89.7931 395.309 92.8563L418.185 99.0354C419.302 97.5767 420.958 96.2814 423.058 95.2254C425.158 94.1695 427.659 93.374 430.414 92.8854C433.17 92.3969 436.125 92.2252 439.107 92.3803C442.089 92.5354 445.037 93.0142 447.781 93.7887C450.524 94.5632 453.006 95.6179 455.083 96.8911C457.16 98.1643 458.789 99.6304 459.876 101.204C460.962 102.777 461.484 104.426 461.411 106.054C461.381 106.729 461.791 107.422 462.194 108.104C462.763 109.067 463.319 110.008 462.604 110.845L481.958 117.321C484.522 114.32 485.922 111.014 486.075 107.595C486.228 104.176 485.132 100.713 482.85 97.4093C480.569 94.1056 477.148 91.027 472.787 88.3536C468.426 85.6801 463.213 83.4655 457.453 81.8392C451.693 80.2129 445.502 79.2075 439.24 78.8818C432.979 78.5562 426.774 78.9168 420.988 79.9426C415.202 80.9684 409.95 82.6388 405.541 84.8561ZM346.21 178.35C338.254 180.497 331.652 183.779 326.789 188.003L362.135 205.785C364.451 203.774 367.595 202.211 371.384 201.188C375.173 200.165 379.531 199.703 384.202 199.829C388.874 199.954 393.765 200.664 398.591 201.919C403.416 203.173 408.079 204.945 412.306 207.132C416.533 209.32 420.24 211.878 423.21 214.657C426.18 217.436 428.353 220.381 429.603 223.319C430.852 226.258 431.153 229.13 430.487 231.769C429.822 234.408 428.203 236.76 425.726 238.688L460.316 257.092C465.518 253.043 468.916 248.104 470.314 242.563C471.712 237.022 471.08 230.99 468.457 224.821C465.833 218.651 461.27 212.467 455.033 206.631C448.797 200.795 441.014 195.424 432.137 190.831C423.261 186.238 413.47 182.517 403.338 179.883C393.205 177.25 382.934 175.758 373.125 175.495C363.317 175.231 354.166 176.202 346.21 178.35ZM395.408 126.632C397.689 123.521 401.111 120.73 405.474 118.422C409.836 116.114 415.052 114.336 420.816 113.191C426.579 112.046 432.776 111.558 439.042 111.754C445.309 111.95 451.52 112.828 457.312 114.335C463.105 115.842 468.362 117.949 472.777 120.532C477.192 123.115 480.676 126.122 483.025 129.378C485.374 132.634 486.542 136.073 486.459 139.495C486.376 142.916 485.045 146.251 482.544 149.304L461.744 147.671C463.027 146.104 463.71 144.393 463.752 142.638C463.795 140.882 463.196 139.118 461.991 137.448C460.785 135.777 458.998 134.234 456.733 132.909C454.468 131.584 451.771 130.503 448.799 129.73C445.827 128.956 442.641 128.506 439.425 128.406C436.21 128.305 433.031 128.555 430.074 129.143C427.117 129.73 424.441 130.643 422.203 131.827C419.965 133.011 418.209 134.442 417.039 136.038L395.408 126.632ZM402.191 156.014C397.626 157.891 393.952 160.34 391.382 163.217L413.725 171.11C414.949 169.74 416.699 168.574 418.872 167.68C421.046 166.786 423.6 166.182 426.385 165.903C429.169 165.625 432.129 165.677 435.091 166.057C438.052 166.438 440.956 167.138 443.633 168.118C446.309 169.098 448.705 170.338 450.679 171.765C452.654 173.191 454.167 174.777 455.132 176.428C456.096 178.079 456.492 179.763 456.296 181.381C456.1 182.999 455.316 184.518 453.99 185.851L475.931 194.171C478.715 191.372 480.361 188.181 480.772 184.783C481.184 181.386 480.353 177.85 478.328 174.383C476.303 170.916 473.125 167.587 468.979 164.592C464.833 161.596 459.803 158.993 454.182 156.935C448.562 154.878 442.464 153.406 436.246 152.608C430.027 151.809 423.812 151.699 417.965 152.284C412.118 152.869 406.755 154.137 402.191 156.014Z" fill="#9E9D9D"/>
</g>
<path d="M316.3 164.797C320.313 158.87 332.234 137.052 343.192 116.592C350.513 102.922 369.391 100.845 378.701 113.246C450.258 208.566 401.359 235.5 358.323 235.5C311.715 235.5 308.659 176.079 316.3 164.797Z" fill="#E6E6E6"/>
<path d="M327.025 164.121C329.031 161.159 333.586 153.074 338.846 143.453C348.989 124.899 374.89 121.884 386.249 139.719C425.305 201.041 390.509 218.946 359.611 218.946C323.47 218.946 321.101 172.87 327.025 164.121Z" fill="#3D3D3D"/>
<ellipse cx="393.788" cy="229.9" rx="15.9513" ry="7.78026" transform="rotate(1.33239 393.788 229.9)" fill="#3D3D3D"/>
<ellipse cx="334.135" cy="230.642" rx="15.9513" ry="7.78026" transform="rotate(1.33239 334.135 230.642)" fill="#3D3D3D"/>
<path d="M347.12 109.419C349.969 107.84 353.538 109.424 354.278 112.596C354.71 114.446 354.035 116.38 352.545 117.559L295.452 162.745C290.745 166.471 283.908 165.675 280.182 160.968C276.018 155.706 277.567 147.966 283.436 144.713L347.12 109.419Z" fill="#E6E6E6"/>
<g style="mix-blend-mode:soft-light">
<circle cx="290.372" cy="153.013" r="7.47029" transform="rotate(19.7965 290.372 153.013)" fill="#E6E6E6"/>
</g>
<mask id="mask1" mask-type="alpha" maskUnits="userSpaceOnUse" x="273" y="105" width="74" height="65">
<path d="M337.656 116.812C340.429 115.365 343.833 116.818 344.708 119.821C345.272 121.758 344.607 123.844 343.025 125.096L295.335 162.84C290.693 166.514 283.952 165.729 280.278 161.087C276.103 155.812 277.762 148.04 283.727 144.93L337.656 116.812Z" fill="#36EA93"/>
</mask>
<g mask="url(#mask1)">
<path fill-rule="evenodd" clip-rule="evenodd" d="M286.954 150.753C287.125 151.278 286.838 151.842 286.313 152.014L278.515 154.554C277.99 154.725 277.425 154.438 277.254 153.912C277.083 153.387 277.37 152.823 277.895 152.652L285.694 150.112C286.219 149.941 286.783 150.228 286.954 150.753ZM287.123 155.586C287.415 156.055 287.271 156.672 286.802 156.964L280.419 160.932C279.95 161.223 279.334 161.08 279.042 160.61C278.75 160.141 278.894 159.525 279.363 159.233L285.746 155.265C286.215 154.974 286.832 155.117 287.123 155.586ZM291.07 158.7C291.333 158.214 291.151 157.607 290.665 157.345C290.179 157.083 289.573 157.264 289.31 157.75L285.341 165.107C285.079 165.594 285.26 166.2 285.746 166.462C286.232 166.725 286.839 166.543 287.101 166.057L291.07 158.7Z" fill="black"/>
</g>
<path d="M377.997 106.841C375.661 104.539 371.767 105.138 370.23 108.035C369.349 109.696 369.496 111.716 370.609 113.231L414.971 173.655C418.531 178.505 425.349 179.55 430.199 175.989C435.606 172.02 436.175 164.155 431.397 159.447L377.997 106.841Z" fill="#E6E6E6"/>
<g style="mix-blend-mode:soft-light">
<circle r="7.47029" transform="matrix(-0.996996 0.0774494 0.0774494 0.996996 422.467 165.634)" fill="#E6E6E6"/>
</g>
<mask id="mask2" mask-type="alpha" maskUnits="userSpaceOnUse" x="371" y="104" width="68" height="80">
<path d="M384.072 115.992C382.777 114.789 381.006 114.238 379.257 114.492C374.817 115.139 372.735 120.342 375.503 123.873L414.92 174.147C418.542 178.767 425.178 179.677 429.91 176.202C435.41 172.164 435.874 164.117 430.876 159.473L384.072 115.992Z" fill="#E6E6E6"/>
</mask>
<g mask="url(#mask2)">
<path fill-rule="evenodd" clip-rule="evenodd" d="M426.6 164.993C426.317 165.467 426.473 166.081 426.947 166.364L433.526 170.284C434 170.566 434.614 170.411 434.897 169.936C435.18 169.462 435.024 168.848 434.55 168.565L427.971 164.645C427.496 164.363 426.883 164.518 426.6 164.993ZM425.374 168.298C424.922 168.615 424.829 169.227 425.165 169.665L429.88 175.801C430.217 176.239 430.856 176.337 431.308 176.02C431.761 175.702 431.854 175.09 431.518 174.652L426.802 168.517C426.466 168.079 425.826 167.981 425.374 168.298ZM422.514 170.178C422.328 169.658 421.756 169.387 421.236 169.573C420.716 169.759 420.445 170.331 420.63 170.851L423.41 178.632C423.596 179.152 424.168 179.423 424.688 179.237C425.208 179.051 425.479 178.479 425.293 177.959L422.514 170.178Z" fill="black"/>
</g>
<path d="M328.425 26.5055C324.786 31.9014 326.281 42.2435 327.484 46.7401L347.326 34.0347C342.542 29.2767 332.064 21.1097 328.425 26.5055Z" fill="#E6E6E6"/>
<path d="M391.61 27.6168C395.249 33.0127 393.754 43.3548 392.551 47.8514L372.709 35.146C377.493 30.388 387.971 22.221 391.61 27.6168Z" fill="#E6E6E6"/>
<path d="M425.163 91.5139C414.801 97.5888 380.803 116.56 360.174 116.56C339.544 116.56 305.546 97.5888 295.182 91.5139C294.794 91.2864 294.46 90.9786 294.201 90.611C293.942 90.2435 293.765 89.8249 293.682 89.3832C293.598 88.9416 293.61 88.4872 293.717 88.0506C293.824 87.614 294.023 87.2054 294.301 86.8521L322.649 50.7852C340.05 32.5677 351.628 30.5558 356.901 30.9312C359.08 31.0882 361.267 31.0882 363.447 30.9312C368.719 30.5582 380.295 32.5726 397.695 50.8048L426.044 86.8718C426.318 87.2245 426.514 87.6317 426.619 88.0662C426.724 88.5008 426.735 88.9526 426.652 89.3918C426.569 89.831 426.393 90.2474 426.136 90.6133C425.879 90.9791 425.547 91.2862 425.163 91.5139Z" fill="#E6E6E6"/>
<path d="M294.697 86.3516C293.312 88.2285 291.595 89.8359 289.631 91.0943C289.631 91.0943 295.436 89.8896 295.215 87.9268C294.994 85.964 294.697 86.3516 294.697 86.3516Z" fill="#E6E6E6"/>
<path d="M296.846 86.6093C295.461 88.4862 293.743 90.0936 291.779 91.352C291.779 91.352 297.584 90.1473 297.366 88.1844C297.148 86.2216 296.846 86.6093 296.846 86.6093Z" fill="#E6E6E6"/>
<path d="M425.352 86.0155C425.352 86.0155 428.25 90.1865 432.796 92.9811C432.796 92.9811 424.268 91.2121 424.587 88.3317C424.906 85.4512 425.352 86.0155 425.352 86.0155Z" fill="#E6E6E6"/>
<path d="M421.916 85.8044C421.916 85.8044 424.784 89.9926 429.308 92.824C429.308 92.824 420.792 90.9937 421.133 88.1132C421.474 85.2328 421.916 85.8044 421.916 85.8044Z" fill="#E6E6E6"/>
<path d="M409.096 66.2964C409.096 66.2964 413.289 70.1485 418.952 72.0991C418.952 72.0991 409.182 72.2512 408.826 69.0199C408.47 65.7886 409.096 66.2964 409.096 66.2964Z" fill="#E6E6E6"/>
<path d="M398.087 53.1037C398.087 53.1037 402.28 56.9558 407.943 58.9063C407.943 58.9063 398.171 59.0585 397.817 55.8272C397.464 52.5958 398.087 53.1037 398.087 53.1037Z" fill="#E6E6E6"/>
<path d="M311.31 66.0536C311.31 66.0536 305.488 71.7188 297.492 74.7342C297.492 74.7342 311.433 74.5501 311.809 69.9252C312.184 65.3003 311.31 66.0536 311.31 66.0536Z" fill="#E6E6E6"/>
<path d="M322.125 53.1038C322.125 53.1038 317.932 56.9558 312.27 58.9015C312.27 58.9015 322.04 59.0536 322.395 55.8223C322.751 52.591 322.125 53.1038 322.125 53.1038Z" fill="#E6E6E6"/>
<path d="M401.076 48.9426H318.168C316.708 48.9426 315.523 50.1268 315.523 51.5875V53.3467C315.523 54.8075 316.708 55.9916 318.168 55.9916H401.076C402.536 55.9916 403.721 54.8075 403.721 53.3467V51.5875C403.721 50.1268 402.536 48.9426 401.076 48.9426Z" fill="#3D3D3D"/>
<path d="M392.27 234.266C96.5665 217.231 3.50241 425.623 0 435.276H725C712.325 376.033 628.833 247.894 392.27 234.266Z" fill="#1037D0"/>
<path d="M360.176 36.2897C362.943 36.2897 365.186 34.0466 365.186 31.2796C365.186 28.5125 362.943 26.2694 360.176 26.2694C357.409 26.2694 355.166 28.5125 355.166 31.2796C355.166 34.0466 357.409 36.2897 360.176 36.2897Z" fill="#3D3D3D"/>
<path d="M398.62 48.9426H321.727C321.727 48.9426 333.03 28.139 360.173 28.139C387.317 28.139 398.62 48.9426 398.62 48.9426Z" fill="#3D3D3D"/>
<path d="M360.174 89.2787C359.929 89.2787 359.706 89.2787 359.485 89.2468L359.33 89.2321L359.225 89.2174L359.046 89.1904L358.874 89.1585H358.835C358.783 89.1496 358.733 89.1382 358.683 89.1241C358.599 89.1061 358.517 89.0865 358.437 89.0652C358.037 88.9535 357.653 88.7937 357.291 88.5893L357.164 88.5156C356.95 88.3933 356.747 88.2538 356.555 88.0985C356.441 88.0054 356.331 87.9063 356.227 87.8017C356.173 87.7501 356.121 87.6986 356.072 87.6446C356.023 87.5907 355.971 87.5391 355.925 87.4827C355.841 87.387 355.76 87.2864 355.679 87.1858C353.815 84.7151 353.935 80.8336 353.996 79.8768C353.996 79.7369 354.013 79.6584 354.013 79.6584H366.649C366.649 79.6584 367.299 89.2787 360.174 89.2787Z" fill="black"/>
<path d="M361.399 87.0018V87.1662C361.375 90.4419 360.963 93.7033 360.172 96.8822C359.377 99.9295 358.072 103.048 355.928 105.224C355.033 106.16 353.954 106.902 352.76 107.402C351.566 107.903 350.281 108.152 348.987 108.134C348.661 108.134 348.349 108.005 348.119 107.775C347.889 107.545 347.76 107.233 347.76 106.907C347.76 106.582 347.889 106.27 348.119 106.04C348.349 105.81 348.661 105.681 348.987 105.681C349.956 105.699 350.918 105.516 351.812 105.141C352.706 104.766 353.512 104.209 354.178 103.504C358.006 99.6253 358.761 91.7273 358.911 88.4568C358.938 87.8434 358.945 87.3919 358.945 87.1662V86.9675C358.943 86.9315 358.943 86.8955 358.945 86.8595C358.949 86.8191 358.954 86.779 358.963 86.7393C358.963 86.7025 358.98 86.6657 358.99 86.6313C359.002 86.5904 359.016 86.5502 359.034 86.5111C359.045 86.4824 359.058 86.4545 359.073 86.4277C359.223 86.1392 359.479 85.9202 359.787 85.8168H359.809L359.922 85.7898C359.962 85.7815 360.002 85.7757 360.042 85.7726C360.083 85.7701 360.124 85.7701 360.165 85.7726H360.184C360.22 85.7702 360.255 85.7702 360.29 85.7726C360.33 85.7759 360.37 85.7817 360.41 85.7898L360.523 85.8168C360.562 85.8289 360.601 85.8437 360.638 85.8609C360.666 85.8712 360.693 85.8835 360.719 85.8977C360.764 85.9175 360.806 85.9422 360.844 85.9713L360.918 86.0229C360.956 86.0528 360.992 86.0847 361.026 86.1186C361.051 86.1431 361.075 86.1701 361.097 86.1971C361.127 86.2278 361.153 86.2615 361.176 86.2977C361.198 86.3267 361.217 86.3579 361.232 86.3909C361.278 86.4678 361.315 86.5503 361.34 86.6362C361.34 86.6706 361.36 86.7074 361.367 86.7442C361.375 86.7839 361.381 86.824 361.384 86.8644C361.392 86.9099 361.396 86.9558 361.399 87.0018Z" fill="black"/>
<path d="M371.361 108.134C370.066 108.152 368.782 107.903 367.588 107.403C366.394 106.903 365.315 106.162 364.42 105.227C358.831 99.5541 358.941 87.4778 358.948 86.9675C358.953 86.6451 359.084 86.3375 359.314 86.1111C359.543 85.8847 359.853 85.7578 360.175 85.7579H360.192C360.353 85.7601 360.513 85.7941 360.661 85.8578C360.809 85.9215 360.943 86.0138 361.055 86.1293C361.167 86.2448 361.256 86.3813 361.315 86.531C361.375 86.6807 361.404 86.8407 361.402 87.0018C361.402 87.1171 361.299 98.5702 366.169 103.507C366.836 104.21 367.642 104.767 368.536 105.142C369.43 105.516 370.392 105.699 371.361 105.681C371.686 105.681 371.998 105.81 372.228 106.04C372.458 106.27 372.588 106.582 372.588 106.907C372.588 107.233 372.458 107.545 372.228 107.775C371.998 108.005 371.686 108.134 371.361 108.134Z" fill="black"/>
<path d="M370.137 91.1507C370.137 91.1507 400.116 76.5792 435.514 87.7992" stroke="black" stroke-width="4" stroke-miterlimit="10" stroke-linecap="round"/>
<path d="M370.441 94.5685C370.441 94.5685 420.938 82.7008 440.279 102.82" stroke="black" stroke-width="4" stroke-miterlimit="10" stroke-linecap="round"/>
<path d="M370.441 98.0771C370.441 98.0771 404.56 95.6898 417.135 112.389" stroke="black" stroke-width="4" stroke-miterlimit="10" stroke-linecap="round"/>
<path d="M349.904 91.1507C349.904 91.1507 319.924 76.5792 284.529 87.7992" stroke="black" stroke-width="4" stroke-miterlimit="10" stroke-linecap="round"/>
<path d="M349.595 94.5685C349.595 94.5685 299.099 82.7008 279.758 102.82" stroke="black" stroke-width="4" stroke-miterlimit="10" stroke-linecap="round"/>
<path d="M349.595 98.0771C349.595 98.0771 315.476 95.6898 302.904 112.389" stroke="black" stroke-width="4" stroke-miterlimit="10" stroke-linecap="round"/>
<path d="M357.782 98.6242L357.716 98.8352C357.184 100.505 356.315 102.047 355.162 103.367C354.081 104.637 352.671 105.583 351.086 106.103C350.068 106.413 348.988 106.466 347.943 106.257C348.054 106.081 348.207 105.935 348.389 105.834C348.571 105.733 348.776 105.681 348.984 105.681C349.953 105.699 350.915 105.516 351.809 105.141C352.703 104.766 353.509 104.209 354.175 103.504C355.23 102.383 356.07 101.078 356.651 99.6522C356.788 99.6693 356.925 99.6333 357.036 99.5516C357.364 99.3157 357.622 98.9951 357.782 98.6242Z" fill="#404041"/>
<path d="M359.5 91.0428C359.465 91.2145 359.436 91.3838 359.416 91.558C359.34 92.2499 359.225 92.9418 359.105 93.6215C358.908 94.7221 358.656 95.8121 358.349 96.8871C358.207 97.4805 358.018 98.0614 357.782 98.6242C357.625 98.994 357.37 99.3144 357.046 99.5516C356.935 99.6333 356.797 99.6693 356.661 99.6522C357.677 97.3091 358.241 94.6495 358.555 92.3775C358.587 92.1739 358.611 91.9727 358.636 91.7764C358.653 91.6488 358.668 91.531 358.68 91.3961C358.773 90.5619 358.837 89.8037 358.876 89.1609H358.837C358.786 89.1521 358.735 89.1406 358.685 89.1266C358.602 89.1086 358.52 89.089 358.44 89.0677C358.039 88.9554 357.653 88.7947 357.291 88.5893L357.164 88.5156C356.95 88.3933 356.747 88.2538 356.555 88.0985C356.441 88.0054 356.331 87.9063 356.227 87.8017C356.173 87.7501 356.121 87.6986 356.072 87.6446C356.023 87.5907 355.971 87.5391 355.925 87.4827C355.841 87.387 355.76 87.2864 355.679 87.1858C353.815 84.7151 353.935 80.8336 353.996 79.8768C354.009 79.8031 354.021 79.7295 354.038 79.6584H355.282C355.179 80.0955 355.121 80.5418 355.108 80.9907C355.056 82.0308 355.128 83.0735 355.321 84.0968C355.485 85.0288 355.86 85.9109 356.418 86.6755C356.656 86.9761 356.934 87.2427 357.245 87.468C357.473 87.6296 357.72 87.7631 357.981 87.8655C358.226 87.9636 358.449 88.0716 358.675 88.1893C358.881 88.2911 359.061 88.4383 359.201 88.6198C359.341 88.8013 359.438 89.0124 359.485 89.237V89.2566C359.612 89.8447 359.617 90.4527 359.5 91.0428Z" fill="#404041"/>
<path d="M411.055 67.7833L376.065 78.0881C365.692 81.1428 354.658 81.1428 344.284 78.0881L309.277 67.8029L314.788 60.7956L356.253 57.8931C358.856 57.7115 361.469 57.7115 364.072 57.8931L405.537 60.7883L411.055 67.7833Z" fill="#3D3D3D"/>
<g filter="url(#filter0_d)">
<path d="M324.904 247.394C312.477 259.584 300.77 261.467 294.094 261.262C290.26 261.159 286.46 261.125 282.626 261.159C275.951 261.193 264.312 259.105 252.125 246.675C233.365 227.533 284.68 155.488 284.68 155.488L294.505 155.59C294.505 155.59 344.04 228.629 324.904 247.394Z" fill="#F2D405"/>
<path d="M284.681 155.487L278.211 143.331C277.697 142.407 278.382 141.243 279.477 141.277L300.36 141.482C301.455 141.482 302.105 142.681 301.558 143.605L294.54 155.59L284.681 155.487Z" fill="#FDE01B"/>
</g>
<path d="M348.511 75.9119C352.831 75.9119 356.333 72.7757 356.333 68.907C356.333 65.0384 352.831 61.9022 348.511 61.9022C344.191 61.9022 340.689 65.0384 340.689 68.907C340.689 72.7757 344.191 75.9119 348.511 75.9119Z" fill="white"/>
<path d="M371.447 75.9119C375.767 75.9119 379.269 72.7757 379.269 68.907C379.269 65.0384 375.767 61.9022 371.447 61.9022C367.127 61.9022 363.625 65.0384 363.625 68.907C363.625 72.7757 367.127 75.9119 371.447 75.9119Z" fill="white"/>
<path d="M368.272 67.8176C368.824 67.8176 369.271 67.3706 369.271 66.8191C369.271 66.2676 368.824 65.8205 368.272 65.8205C367.721 65.8205 367.273 66.2676 367.273 66.8191C367.273 67.3706 367.721 67.8176 368.272 67.8176Z" fill="white"/>
<path d="M371.356 72.0991C373.225 72.0991 374.74 70.7424 374.74 69.0689C374.74 67.3954 373.225 66.0388 371.356 66.0388C369.487 66.0388 367.973 67.3954 367.973 69.0689C367.973 70.7424 369.487 72.0991 371.356 72.0991Z" fill="#231F20"/>
<path d="M369.417 68.0385C369.968 68.0385 370.415 67.5914 370.415 67.0399C370.415 66.4884 369.968 66.0413 369.417 66.0413C368.865 66.0413 368.418 66.4884 368.418 67.0399C368.418 67.5914 368.865 68.0385 369.417 68.0385Z" fill="white"/>
<path d="M348.51 71.9371C350.379 71.9371 351.894 70.5805 351.894 68.907C351.894 67.2335 350.379 65.8769 348.51 65.8769C346.642 65.8769 345.127 67.2335 345.127 68.907C345.127 70.5805 346.642 71.9371 348.51 71.9371Z" fill="#231F20"/>
<path d="M346.567 67.8741C347.118 67.8741 347.566 67.427 347.566 66.8755C347.566 66.324 347.118 65.8769 346.567 65.8769C346.015 65.8769 345.568 66.324 345.568 66.8755C345.568 67.427 346.015 67.8741 346.567 67.8741Z" fill="white"/>
<path d="M256.5 77.2761H178" stroke="#9E9D9D" stroke-width="5" stroke-linecap="round" stroke-linejoin="round"/>
<path d="M217.5 121.276H139" stroke="#9E9D9D" stroke-width="5" stroke-linecap="round" stroke-linejoin="round"/>
<path d="M256.5 167.276H178" stroke="#9E9D9D" stroke-width="5" stroke-linecap="round" stroke-linejoin="round"/>
<defs>
<filter id="filter0_d" x="247" y="141.276" width="85.2999" height="124" filterUnits="userSpaceOnUse" color-interpolation-filters="sRGB">
<feFlood flood-opacity="0" result="BackgroundImageFix"/>
<feColorMatrix in="SourceAlpha" type="matrix" values="0 0 0 0 0 0 0 0 0 0 0 0 0 0 0 0 0 0 127 0"/>
<feOffset dx="1" dy="2"/>
<feGaussianBlur stdDeviation="1"/>
<feColorMatrix type="matrix" values="0 0 0 0 0 0 0 0 0 0 0 0 0 0 0 0 0 0 0.15 0"/>
<feBlend mode="normal" in2="BackgroundImageFix" result="effect1_dropShadow"/>
<feBlend mode="normal" in="SourceGraphic" in2="effect1_dropShadow" result="shape"/>
</filter>
</defs>
</svg>
