<svg width="480" height="573" viewBox="0 0 480 573" fill="none" xmlns="http://www.w3.org/2000/svg">
<path d="M-215.351 35.1869C-185.826 -18.3723 -68.7737 -4.00765 15.102 34.4146C99.5953 72.9881 156.093 177.582 226.439 216.862C296.785 256.142 386.161 272.072 436.578 320.18C486.827 368.841 493.555 407.87 452.578 459.816C410.983 511.611 317.288 533.958 249.027 597.101C179.981 660.649 136.987 765.143 93.1417 760.961C49.2964 756.778 4.76803 643.363 -41.1598 576.092C-86.4702 508.972 -133.798 487.845 -148.565 455.621C-163.164 422.842 -145.203 378.966 -165.589 295.304C-185.975 211.641 -244.426 89.452 -215.351 35.1869Z" fill="#FDEC77"/>
</svg>
