<svg width="1024" height="768" viewBox="0 0 1024 768" fill="none" xmlns="http://www.w3.org/2000/svg">
<path d="M608.933 996.966C518.374 977.724 499.566 814.409 528.304 686.585C557.056 557.87 694.54 441.553 729.231 331.638C763.922 221.724 757.008 95.1199 811.818 8.68362C867.519 -77.7387 923.77 -101.791 1015.86 -66.4896C1107.93 -30.2977 1173.78 87.4358 1292.08 155.219C1411.26 223.907 1582.9 241.754 1591.75 302.469C1600.59 363.183 1445.74 466.751 1360.62 554.491C1275.52 641.341 1260.13 713.255 1216.86 745.533C1172.71 777.798 1100.67 770.428 982.14 830.027C863.615 889.626 700.398 1015.33 608.933 996.966Z" fill="#FDEC77"/>
<path d="M235.687 227.234C274.218 205.814 259.945 128.845 228.992 74.6797C197.909 20.1104 119.065 -13.6132 87.9063 -58.7942C56.7478 -103.975 42.1939 -162.57 5.16015 -194.252C-32.2771 -225.802 -61.2446 -228.886 -98.2263 -199.942C-135.077 -170.594 -148.589 -107.797 -192.961 -60.4031C-237.605 -12.4746 -313.241 19.6477 -308.777 48.5204C-304.313 77.393 -219.347 102.885 -168.335 130.923C-117.454 158.557 -100.396 189.14 -76.1885 197.783C-51.5774 206.295 -19.8164 192.868 42.4676 203.425C104.752 213.982 196.621 248.382 235.687 227.234Z" fill="#FDEC77"/>
</svg>
