<svg width="569" height="689" viewBox="0 0 569 689" fill="none" xmlns="http://www.w3.org/2000/svg">
<path d="M-201.916 67.2387C-172.391 7.6163 -55.3392 23.6071 28.5366 66.379C113.03 109.319 169.527 225.753 239.873 269.481C310.22 313.208 399.595 330.941 450.013 384.495C500.262 438.665 506.989 482.112 466.012 539.939C424.417 597.597 330.722 622.474 262.462 692.766C193.415 763.507 150.421 879.832 106.576 875.175C62.7308 870.519 18.2025 744.265 -27.7254 669.378C-73.0357 594.66 -120.363 571.141 -135.131 535.269C-149.73 498.779 -131.769 449.937 -152.154 356.803C-172.54 263.669 -230.992 127.647 -201.916 67.2387Z" fill="#2885F2"/>
</svg>
