<svg width="193" height="497" viewBox="0 0 193 497" fill="none" xmlns="http://www.w3.org/2000/svg">
<path d="M301.577 488.9C273.817 512.263 213.421 476.046 176.305 434.107C138.887 391.934 131.128 318.949 101.545 279.765C71.9616 240.581 26.9331 210.107 10.1017 170.682C-6.51684 130.983 -1.61988 107.189 32.0038 87.4869C65.9297 68.0185 121.688 77.7731 172.575 58.2455C223.977 38.677 270.206 -10.4076 293.092 2.47772C315.977 15.3631 315.306 90.4934 325.502 139.734C335.397 188.74 356.461 212.09 357.419 233.943C358.164 256.072 338.802 276.704 331.542 329.138C324.283 381.573 329.248 465.027 301.577 488.9Z" fill="#FDEC77"/>
</svg>
