<svg width="871" height="438" viewBox="0 0 871 438" fill="none" xmlns="http://www.w3.org/2000/svg">
<path d="M783.473 -140.326C877.883 -120.938 1020.34 -120.095 1081.03 -62.775C1141.72 -4.61179 1119.81 110.872 1051.53 176.621C984.094 243.214 870.296 261.759 786.845 289.576C704.236 317.393 651.974 355.326 576.109 388.201C499.401 421.075 399.09 449.736 282.764 432.034C166.437 415.175 33.252 352.797 6.27774 259.23C-21.5394 164.82 56.8545 38.3784 118.389 -74.5762C179.924 -188.374 225.443 -288.684 302.994 -313.13C380.545 -336.732 490.128 -284.47 567.679 -239.793C644.387 -195.117 689.906 -158.871 783.473 -140.326Z" fill="white"/>
</svg>
