<svg width="280" height="371" viewBox="0 0 280 371" fill="none" xmlns="http://www.w3.org/2000/svg">
<path d="M235.687 227.234C274.218 205.814 259.945 128.845 228.992 74.6797C197.909 20.1104 119.065 -13.6132 87.9063 -58.7942C56.7478 -103.975 42.1939 -162.57 5.16015 -194.252C-32.2771 -225.802 -61.2446 -228.886 -98.2263 -199.942C-135.077 -170.594 -148.589 -107.797 -192.961 -60.4031C-237.605 -12.4746 -313.241 19.6477 -308.777 48.5204C-304.313 77.393 -219.347 102.885 -168.335 130.923C-117.454 158.557 -100.396 189.14 -76.1885 197.783C-51.5774 206.295 -19.8164 192.868 42.4676 203.425C104.752 213.982 196.621 248.382 235.687 227.234Z" fill="#FDEC77"/>
</svg>
