<svg width="1024" height="768" viewBox="0 0 1024 768" fill="none" xmlns="http://www.w3.org/2000/svg">
<path d="M689.232 28.7762C703.22 73.7034 726.607 179.224 869.855 210.39C1009.47 240.767 1066.53 345.609 1071.74 398.43L1071.92 411.204L1071.92 475L1108 475L1108 -13L1065.9 -13L681 -9.19904L689.232 28.7762Z" fill="#2885F2"/>
<path d="M-394.468 73C-369.129 -9.14991 -216.524 -12.941 -100.701 24.283C15.944 61.5941 112.067 198.432 210.83 239.671C309.593 280.909 427.257 285.06 502.631 342.949C577.917 401.661 595.477 455.687 555.159 537.913C514.018 620.052 399.65 671.144 327.109 774.907C253.657 879.406 222.855 1036.66 165.968 1039.78C109.081 1042.91 26.1954 891.068 -47.8605 805.04C-121.094 719.099 -186.32 698.88 -212.569 656.176C-238.73 612.65 -225.914 546.639 -271.161 432.059C-316.409 317.478 -419.072 156.06 -394.468 73Z" fill="#2885F2"/>
</svg>
