<svg width="1025" height="769" viewBox="0 0 1025 769" fill="none" xmlns="http://www.w3.org/2000/svg">
<path d="M689.671 29.5001C703.66 74.4273 727.047 179.948 870.294 211.114C1009.91 241.491 1066.97 346.333 1072.18 399.153L1072.36 411.928L1072.36 475.724L1108.44 475.724L1108.44 -12.2761L1066.34 -12.2761L681.439 -8.47516L689.671 29.5001Z" fill="#2885F2"/>
<path d="M-394.029 73.7239C-368.69 -8.42603 -216.084 -12.2171 -100.262 25.0069C16.3835 62.318 112.506 199.156 211.269 240.395C310.032 281.633 427.696 285.783 503.07 343.673C578.357 402.385 595.916 456.411 555.598 538.637C514.458 620.776 400.09 671.868 327.548 775.631C254.097 880.13 223.295 1037.39 166.408 1040.51C109.52 1043.63 26.6348 891.792 -47.4211 805.764C-120.655 719.823 -185.881 699.604 -212.13 656.9C-238.291 613.374 -225.474 547.363 -270.722 432.783C-315.969 318.202 -418.632 156.784 -394.029 73.7239Z" fill="#2885F2"/>
<g clip-path="url(#clip0)">
<path d="M156.747 475.006C181.935 487.234 214.499 491.886 233.041 509.697C251.583 527.574 256.035 558.477 244.738 582.07C233.573 605.663 206.79 622.011 183.064 630.784C159.472 639.623 139.003 641.018 121.192 641.949C103.182 643.012 88.0956 643.743 65.101 647.731C42.1065 651.718 11.137 658.696 -2.55343 648.262C-16.3767 637.629 -12.9874 609.251 -15.8451 582.402C-18.7028 555.62 -27.7411 530.232 -21.6269 509.896C-15.5128 489.56 5.88676 474.075 28.0173 460.252C50.1479 446.562 73.0095 434.533 93.4787 438.52C113.748 442.441 131.559 462.644 156.747 475.006Z" fill="#54FFC1"/>
<path d="M417.769 621.584C396.435 622.448 371.979 616.134 349.25 600.982C326.521 585.829 305.188 561.904 304.191 537.182C303.195 512.393 322.401 486.674 345.263 472.518C368.124 458.363 394.375 455.771 415.974 446.334C437.573 436.897 454.254 420.88 474.457 415.962C494.461 411.044 517.987 417.358 531.346 432.577C544.504 447.663 547.894 471.721 555.138 494.184C562.315 516.447 573.48 536.983 570.224 554.661C567.1 572.272 549.489 587.225 531.346 595.067C513.136 602.71 494.328 603.441 475.853 607.827C457.378 612.413 439.102 620.587 417.769 621.584Z" fill="#54FFC1"/>
<path d="M767.923 422.248C788.886 418.196 814.013 420.773 838.756 432.348C863.499 443.922 888.177 464.38 892.868 488.673C897.569 513.033 882.434 541.34 861.952 558.763C841.47 576.185 815.904 582.682 795.964 595.249C776.023 607.817 761.931 626.153 742.693 634.043C723.652 641.904 699.446 639.188 683.957 626.143C668.686 613.199 661.729 589.921 651.201 568.798C640.767 547.861 626.651 529.231 627.221 511.265C627.669 493.384 642.841 475.96 659.604 465.488C676.462 455.202 694.948 451.66 712.557 444.555C730.202 437.242 746.981 426.431 767.923 422.248Z" fill="#54FFC1"/>
<path d="M1162.86 409.013C1188.04 421.241 1220.61 425.893 1239.15 443.704C1257.69 461.515 1262.15 492.418 1250.85 516.01C1239.68 539.603 1212.9 555.952 1189.17 564.724C1165.58 573.563 1145.11 574.959 1127.3 575.889C1109.29 576.953 1094.21 577.684 1071.21 581.671C1048.22 585.659 1017.25 592.637 1003.56 582.203C989.734 571.569 993.123 543.192 990.265 516.343C987.408 489.494 978.369 464.173 984.483 443.837C990.598 423.501 1012 408.016 1034.13 394.193C1056.26 380.502 1079.12 368.473 1099.59 372.461C1119.86 376.448 1137.67 396.585 1162.86 409.013Z" fill="#54FFC1"/>
</g>
<g clip-path="url(#clip1)">
<path d="M-498.961 527.024C-498.961 527.024 -59.3606 489.224 1536.44 536.524V875.524H-511.561V528.624L-498.961 527.024Z" fill="#3BDBA1"/>
</g>
<g clip-path="url(#clip2)">
<path d="M329.66 711.397C338.194 699.575 524.282 560.744 761.16 624.189C998.276 687.694 1059.79 671.239 1202.44 671.239V768.664H283.256L330.667 710.209" fill="#54FFC1"/>
<path d="M671.315 768.07H107.892C107.892 768.07 87.0315 692.684 172.964 659.061C173.024 659.061 173.083 659.001 173.142 659.001C173.379 658.942 173.675 658.823 173.912 658.704C180.906 654.902 191.395 620.863 264.29 592.882C264.29 592.882 356.445 564.902 412.865 601.734C469.225 638.565 556.698 679.259 552.965 679.615C552.965 679.615 671.315 701.773 671.315 768.07Z" fill="#54FFC1"/>
<path d="M-198.561 675.991C-198.561 675.991 -64.3277 625.437 31.1466 625.437C126.621 625.437 200.76 658.169 239.874 700.348C239.874 700.348 414.881 668.506 525.052 768.724H-198.561V675.991Z" fill="#43EDB0"/>
</g>
<defs>
<clipPath id="clip0">
<rect width="1280.72" height="281.982" fill="white" transform="translate(-23.7539 371.73)"/>
</clipPath>
<clipPath id="clip1">
<rect width="2048" height="362.8" fill="white" transform="translate(-511.561 512.724)"/>
</clipPath>
<clipPath id="clip2">
<rect width="1401" height="186" fill="white" transform="translate(-198.561 582.724)"/>
</clipPath>
</defs>
</svg>
