<svg width="569" height="768" viewBox="0 0 569 768" fill="none" xmlns="http://www.w3.org/2000/svg">
<path d="M-274.694 809.105C-242.378 874.363 -114.262 856.861 -22.4578 810.046C70.0222 763.047 131.86 635.607 208.856 587.746C285.851 539.885 383.675 520.476 438.858 461.861C493.857 402.569 501.22 355.016 456.37 291.723C410.843 228.615 308.291 201.386 233.579 124.45C158.006 47.0222 110.948 -80.2976 62.9585 -75.2013C14.9687 -70.1049 -33.7686 68.0836 -84.0378 150.049C-133.631 231.83 -185.432 257.572 -201.595 296.834C-217.574 336.773 -197.916 390.233 -220.228 492.17C-242.541 594.107 -306.518 742.986 -274.694 809.105Z" fill="#54FFC1"/>
</svg>
