<svg width="512" height="768" viewBox="0 0 512 768" fill="none" xmlns="http://www.w3.org/2000/svg">
<path d="M96.9334 996.966C6.37372 977.724 -12.4335 814.409 16.304 686.585C45.0556 557.87 182.54 441.553 217.231 331.638C251.922 221.724 245.008 95.1199 299.818 8.68362C355.519 -77.7387 411.77 -101.791 503.859 -66.4896C595.933 -30.2977 661.78 87.4358 780.081 155.219C899.259 223.907 1070.9 241.754 1079.75 302.469C1088.59 363.183 933.739 466.751 848.621 554.491C763.517 641.341 748.131 713.255 704.864 745.533C660.706 777.798 588.666 770.428 470.14 830.027C351.615 889.626 188.398 1015.33 96.9334 996.966Z" fill="#FDEC77"/>
</svg>
