<svg width="1024" height="768" viewBox="0 0 1024 768" fill="none" xmlns="http://www.w3.org/2000/svg">
<path d="M1014.32 -0.000823975H311.772C310.752 -23.4036 307.01 -43.2205 298.771 -57.2349C281.028 -87.4183 242.582 -90.7572 196.321 -94.7748C163.951 -97.586 127.755 -100.73 92.1471 -113.634C50.4373 -128.609 9.63843 -157.044 -28.13 -183.367C-67.955 -211.123 -104.411 -236.531 -135.012 -241.334C-194.262 -249.905 -210.983 -214.971 -200.818 -125.249C-194.395 -70.9984 -170.798 -9.29968 -146.464 54.3264L-146.463 54.3307C-130.645 95.6908 -114.515 137.865 -102.589 179.338C-85.0456 240.346 -55.4177 285.049 -26.1346 329.232C-23.1428 333.746 -20.1547 338.254 -17.1833 342.774V600.932C3.81567 600.454 25.1307 600.564 47.1117 600.676C170.788 601.31 315.546 602.052 543.716 499.017C731.522 426.149 841.753 427.591 950.487 429.014C964.893 429.202 979.272 429.39 993.802 429.405L1022.64 430.468C1049.55 453.458 1076.48 471.436 1105.27 457.898C1136.47 443.234 1136.92 406.528 1137.4 368.149C1137.73 341.372 1138.07 313.781 1148.87 292.295C1157.81 274.502 1175.23 262.11 1192.31 249.961C1213.93 234.578 1235.01 219.585 1237.64 194.508C1240.84 163.923 1219.8 139.857 1198.52 115.514C1188.6 104.178 1178.64 92.782 1171.05 80.6397C1162.27 66.6001 1155.83 49.2469 1149.41 31.9705C1135.97 -4.2317 1122.66 -40.0971 1088.23 -44.4315C1057.46 -48.3059 1035.57 -25.9248 1014.32 -0.000823975Z" fill="#ED1D54"/>
<path d="M928.866 599.577C909.218 604.884 895.419 621.864 881.394 639.122C874.733 647.319 868.021 655.578 860.607 662.68C850.295 672.557 836.526 679.77 822.847 686.936C795.187 701.426 767.895 715.724 770.292 751.47C772.494 784.31 797.812 800.828 824.283 818.098C842.752 830.147 861.782 842.562 873.915 861.143C883.963 876.531 888.104 896.719 892.165 916.511C897.306 941.572 902.317 965.999 919.022 979.244C939.397 995.399 961.441 988.17 983.738 980.857C994.122 977.452 1004.56 974.029 1014.91 972.94C1026.88 971.682 1040.55 973.857 1054.15 976.023C1082.67 980.561 1110.92 985.056 1122.7 957.829C1134.63 930.278 1120.34 897.565 1105.71 864.071C1097.75 845.848 1089.69 827.394 1085.7 809.414C1082.89 796.744 1081.37 784.149 1079.87 771.645C1077.67 753.317 1075.49 735.185 1069.27 717.295C1067.84 713.169 1066.42 708.99 1065 704.792L1065 704.791C1054.03 672.417 1042.67 638.905 1019.75 619.69C992.254 596.637 958.319 591.621 928.866 599.577Z" fill="#ED1D54"/>
</svg>
