<svg width="1024" height="768" viewBox="0 0 1024 768" fill="none" xmlns="http://www.w3.org/2000/svg">
<path d="M86.0253 984.596C163.209 999.826 232.481 878.516 252.746 769.045C273.298 658.874 204.756 522.051 214.384 424.583C224.013 327.116 271.724 230.512 257.788 144.664C243.151 58.5292 207.241 20.9392 123.497 17.7445C39.4656 15.2503 -51.3251 85.2281 -166.404 98.6511C-282.471 112.488 -422.539 69.0696 -449.738 113.55C-476.937 158.03 -390.565 290.695 -353.386 387.691C-315.92 483.986 -327.932 545.313 -304.915 584.991C-281.197 624.956 -222.451 643.273 -149.766 729.447C-77.081 815.621 8.42797 968.378 86.0253 984.596Z" fill="#ED1D54"/>
<path fill-rule="evenodd" clip-rule="evenodd" d="M767.797 286.154C793.797 318.404 836.978 325.963 873.344 345.803C922.563 372.654 967.508 446.643 1018.25 422.788C1071.2 397.894 1035.57 309.468 1061.84 257.186C1082.1 216.863 1145.91 204.28 1150.61 159.399C1155.31 114.571 1107.92 83.7471 1084.02 45.5303C1056.85 2.07114 1052.06 -73.138 1001.21 -79.5409C947.422 -86.3129 920.751 -12.872 877.266 19.4981C850.642 39.3172 819.494 49.3815 796.223 73.0486C768.429 101.316 735.805 129.405 730.563 168.7C724.997 210.432 741.373 253.378 767.797 286.154Z" fill="#ED1D54"/>
</svg>
