<svg width="256" height="429" viewBox="0 0 256 429" fill="none" xmlns="http://www.w3.org/2000/svg">
<g filter="url(#filter0_i)">
<g clip-path="url(#clip0)" filter="url(#filter1_i)">
<path d="M76.838 369.653C49.2673 346.365 30.9053 304.889 30.9053 257.595C30.9053 184.76 74.4598 125.718 128.177 125.718C181.894 125.718 225.449 184.76 225.449 257.595C225.449 304.115 207.681 344.997 180.857 368.479" fill="#3BDBA1"/>
<path d="M130.112 192.734C182.612 192.734 225.172 150.194 225.172 97.7169C225.172 45.2402 182.612 2.69946 130.112 2.69946C77.6124 2.69946 35.0527 45.2402 35.0527 97.7169C35.0527 150.194 77.6124 192.734 130.112 192.734Z" fill="#3BDBA1"/>
<path d="M197.048 165.065L210.986 152.945C211.136 152.818 211.242 152.646 211.285 152.455C211.328 152.263 211.308 152.062 211.226 151.883C211.144 151.705 211.006 151.557 210.833 151.465C210.66 151.372 210.461 151.338 210.267 151.369L208.276 151.659L217.954 142.759C218.1 142.624 218.197 142.445 218.23 142.249C218.264 142.054 218.231 141.853 218.138 141.678C218.045 141.502 217.896 141.363 217.715 141.281C217.535 141.199 217.332 141.179 217.139 141.225L214.152 141.943" fill="#3BDBA1"/>
<path d="M60.7709 162.909L47.2067 150.305C47.0677 150.172 46.9751 149.997 46.9426 149.808C46.91 149.618 46.9393 149.423 47.026 149.251C47.1127 149.079 47.2523 148.94 47.4242 148.853C47.5961 148.767 47.7913 148.738 47.981 148.771L49.9583 149.13L40.5837 139.898C40.4414 139.758 40.3496 139.575 40.3227 139.378C40.2958 139.18 40.3353 138.979 40.4351 138.807C40.5349 138.634 40.6892 138.5 40.8738 138.425C41.0584 138.349 41.2628 138.338 41.4548 138.391L44.4137 139.193" fill="#3BDBA1"/>
<path d="M132.476 99.9973L141.505 112.436C141.693 112.628 141.841 112.857 141.94 113.107C142.039 113.358 142.086 113.626 142.08 113.895C142.073 114.164 142.013 114.429 141.902 114.675C141.792 114.92 141.633 115.141 141.436 115.324L131.882 131.412C131.487 131.786 130.96 131.989 130.416 131.976C129.871 131.963 129.355 131.735 128.978 131.343L119.949 114.758C119.566 114.372 119.351 113.85 119.351 113.307C119.351 112.763 119.566 112.241 119.949 111.855L129.517 100.011C129.705 99.8068 129.933 99.6434 130.187 99.5312C130.441 99.419 130.716 99.3605 130.994 99.3592C131.271 99.3579 131.546 99.4139 131.801 99.5237C132.057 99.6335 132.286 99.7947 132.476 99.9973Z" fill="#FDE01B"/>
<path d="M123.089 115.245C122.751 114.863 122.565 114.372 122.565 113.863C122.565 113.354 122.751 112.862 123.089 112.481C123.089 112.481 130.215 102.629 131.137 101.707C132.059 100.784 131.598 99.6316 131.598 99.6316C130.907 98.8438 129.325 99.5722 128.606 100.332L119.846 111.852C119.506 112.232 119.385 113.005 119.385 113.236C119.385 113.466 119.52 114.279 119.846 114.619C120.171 114.96 127.41 129.405 128.122 130.489C128.833 131.573 130.429 132.327 130.676 131.913C130.924 131.499 130.676 130.189 130.676 130.189C130.459 129.919 130.162 129.485 130.002 129.176L123.089 115.245Z" fill="#F2D405"/>
<g filter="url(#filter2_i)">
<path d="M166.034 105.944C181.32 105.944 193.712 93.5446 193.712 78.2495C193.712 62.9545 181.32 50.5554 166.034 50.5554C150.749 50.5554 138.357 62.9545 138.357 78.2495C138.357 93.5446 150.749 105.944 166.034 105.944Z" fill="white"/>
</g>
<path fill-rule="evenodd" clip-rule="evenodd" d="M169.121 62.0693C168.081 61.8614 167.004 61.7524 165.902 61.7524C156.87 61.7524 149.547 69.0791 149.547 78.1171C149.547 87.1551 156.87 94.4818 165.902 94.4818C174.935 94.4818 182.257 87.1551 182.257 78.1171C182.257 74.9147 181.338 71.9272 179.749 69.4043C178.576 71.03 176.667 72.0881 174.51 72.0881C170.945 72.0881 168.054 69.1959 168.054 65.6283C168.054 64.3132 168.447 63.0898 169.121 62.0693Z" fill="black"/>
<g filter="url(#filter3_i)">
<path d="M95.4494 105.944C110.735 105.944 123.127 93.5446 123.127 78.2495C123.127 62.9545 110.735 50.5554 95.4494 50.5554C80.1636 50.5554 67.772 62.9545 67.772 78.2495C67.772 93.5446 80.1636 105.944 95.4494 105.944Z" fill="white"/>
</g>
<path d="M173.597 17.4173L211.497 55.8527C211.795 56.1528 212.173 56.3611 212.586 56.4529C212.999 56.5447 213.43 56.5161 213.827 56.3707C214.225 56.2252 214.572 55.9689 214.828 55.6321C215.084 55.2953 215.238 54.8923 215.272 54.4707V3.98356C215.304 3.64121 215.256 3.29606 215.131 2.97556C215.006 2.65506 214.809 2.36801 214.554 2.13724C214.299 1.90647 213.993 1.73836 213.662 1.64621C213.33 1.55406 212.982 1.54041 212.645 1.60639L174.773 13.6719C174.371 13.7378 173.995 13.9139 173.688 14.1807C173.38 14.4475 173.153 14.7944 173.031 15.1827C172.909 15.5711 172.898 15.9857 172.998 16.3802C173.098 16.7748 173.305 17.1338 173.597 17.4173V17.4173Z" fill="#3BDBA1"/>
<path d="M185.143 19.7267L206.464 41.3284C206.628 41.4995 206.838 41.6198 207.068 41.6747C207.299 41.7296 207.54 41.717 207.763 41.6382C207.987 41.5594 208.183 41.4178 208.327 41.2305C208.472 41.0432 208.56 40.818 208.58 40.5821L208.124 9.9416C208.15 9.74534 208.128 9.54574 208.061 9.35938C207.995 9.17302 207.884 9.00528 207.74 8.87012C207.595 8.73495 207.42 8.63628 207.23 8.58226C207.039 8.52824 206.838 8.52043 206.644 8.55952L185.779 17.5983C185.553 17.6388 185.342 17.7414 185.17 17.8947C184.998 18.0481 184.872 18.2461 184.806 18.4668C184.74 18.6874 184.737 18.922 184.796 19.1445C184.856 19.3669 184.976 19.5685 185.143 19.7267Z" fill="black"/>
<path d="M85.1611 17.4866L47.2064 55.9083C46.91 56.2098 46.5327 56.4195 46.12 56.5122C45.7073 56.6048 45.2766 56.5765 44.8796 56.4306C44.4826 56.2847 44.1362 56.0274 43.8818 55.6896C43.6274 55.3519 43.476 54.9479 43.4456 54.5262V4.03909C43.4104 3.69604 43.4564 3.3495 43.58 3.02755C43.7036 2.70559 43.9013 2.41725 44.1571 2.18581C44.4128 1.95438 44.7195 1.78634 45.0523 1.69533C45.3851 1.60432 45.7346 1.59289 46.0726 1.66192L83.9444 13.7274C84.3524 13.785 84.7361 13.9562 85.0515 14.2213C85.3669 14.4865 85.6015 14.8349 85.7284 15.2268C85.8553 15.6188 85.8693 16.0385 85.769 16.438C85.6687 16.8376 85.4581 17.201 85.1611 17.4866V17.4866Z" fill="#3BDBA1"/>
<path d="M73.6156 19.8371L52.2947 41.3974C52.1309 41.5685 51.9213 41.6888 51.6909 41.7437C51.4605 41.7986 51.2191 41.7859 50.9958 41.7071C50.7724 41.6283 50.5766 41.4868 50.4317 41.2994C50.2868 41.1121 50.1992 40.887 50.1792 40.6511L50.6216 10.0106C50.5957 9.81433 50.6171 9.61472 50.6839 9.42836C50.7507 9.24201 50.861 9.07427 51.0057 8.9391C51.1503 8.80394 51.3252 8.70522 51.5157 8.6512C51.7062 8.59718 51.9069 8.58942 52.1011 8.62851L72.9797 17.6672C73.2187 17.696 73.4441 17.7944 73.6278 17.9499C73.8115 18.1055 73.9456 18.3116 74.0133 18.5426C74.081 18.7736 74.0794 19.0193 74.0087 19.2494C73.9381 19.4795 73.8014 19.6839 73.6156 19.8371V19.8371Z" fill="black"/>
<path d="M133.154 2.75464L151.613 2.11886C151.805 2.11474 151.993 2.17239 152.151 2.28331C152.308 2.39423 152.425 2.5526 152.485 2.73511C152.546 2.91763 152.546 3.11467 152.486 3.2973C152.426 3.47993 152.309 3.63847 152.152 3.74969L150.507 4.89684L163.656 4.80008C163.858 4.79448 164.055 4.85688 164.217 4.97723C164.379 5.09757 164.496 5.26886 164.548 5.46353C164.601 5.6582 164.587 5.86492 164.508 6.05043C164.428 6.23594 164.289 6.38942 164.112 6.48621L161.444 7.99266" fill="#3BDBA1"/>
<path d="M97.1353 8.58676L115.345 0.70898C115.528 0.633917 115.731 0.62141 115.922 0.673424C116.113 0.725438 116.282 0.839067 116.402 0.99663C116.522 1.15419 116.586 1.34687 116.585 1.54477C116.584 1.74267 116.517 1.93472 116.396 2.09105L114.958 3.9154" fill="#F27500"/>
<path d="M97.1353 8.58628L115.345 0.708492C115.528 0.633428 115.731 0.620922 115.922 0.672936C116.113 0.72495 116.282 0.838578 116.402 0.996142C116.522 1.15371 116.586 1.34638 116.585 1.54428C116.584 1.74218 116.517 1.93423 116.396 2.09056L114.958 3.91491" fill="#3BDBA1"/>
<path d="M116.769 3.65319L134.91 0.17034C135.098 0.138021 135.291 0.166374 135.462 0.251237C135.633 0.336099 135.772 0.47308 135.86 0.642391C135.948 0.811701 135.98 1.00452 135.95 1.19298C135.921 1.38143 135.833 1.55572 135.698 1.69063L134.315 3.0727" fill="#3BDBA1"/>
<path fill-rule="evenodd" clip-rule="evenodd" d="M98.7509 61.9537C97.9128 61.8212 97.0535 61.7524 96.1781 61.7524C87.1456 61.7524 79.8232 69.0791 79.8232 78.1171C79.8232 87.1551 87.1456 94.4818 96.1781 94.4818C105.211 94.4818 112.533 87.1551 112.533 78.1171C112.533 74.5773 111.41 71.2999 109.5 68.6225C108.449 70.6826 106.347 72.0881 103.925 72.0881C100.451 72.0881 97.6348 69.1959 97.6348 65.6283C97.6348 64.2631 98.0472 62.9969 98.7509 61.9537Z" fill="black"/>
<path d="M190.489 109.494C190.489 110.69 189.943 111.867 188.878 112.981C187.81 114.097 186.242 115.124 184.265 115.998C180.313 117.746 174.818 118.839 168.722 118.839C162.627 118.839 157.132 117.746 153.18 115.998C151.203 115.124 149.635 114.097 148.567 112.981C147.502 111.867 146.956 110.69 146.956 109.494C146.956 108.299 147.502 107.122 148.567 106.008C149.635 104.892 151.203 103.865 153.18 102.991C157.132 101.243 162.627 100.15 168.722 100.15C174.818 100.15 180.313 101.243 184.265 102.991C186.242 103.865 187.81 104.892 188.878 106.008C189.943 107.122 190.489 108.299 190.489 109.494Z" fill="#3BDBA1" stroke="#3BDBA1"/>
<path d="M115.248 109.494C115.248 110.69 114.702 111.867 113.637 112.981C112.569 114.097 111.001 115.124 109.024 115.998C105.072 117.746 99.5774 118.839 93.4816 118.839C87.3859 118.839 81.8912 117.746 77.9392 115.998C75.9625 115.124 74.394 114.097 73.3264 112.981C72.2613 111.867 71.7153 110.69 71.7153 109.494C71.7153 108.299 72.2613 107.122 73.3264 106.008C74.394 104.892 75.9625 103.865 77.9392 102.991C81.8912 101.243 87.3859 100.15 93.4816 100.15C99.5774 100.15 105.072 101.243 109.024 102.991C111.001 103.865 112.569 104.892 113.637 106.008C114.702 107.122 115.248 108.299 115.248 109.494Z" fill="#3BDBA1" stroke="#3BDBA1"/>
<path d="M87.123 250.091C93.1145 255.701 107.494 262.542 117.08 245.018C116.159 245.71 131.137 269.92 145.194 245.018C146.116 245.018 159.942 269.92 172.616 245.018" stroke="#43EDB0" stroke-width="4" stroke-linecap="round" stroke-linejoin="round"/>
</g>
<path d="M184.068 397.62V387.048C184.068 383.227 180.973 380.13 177.154 380.13C173.335 380.13 170.24 383.227 170.24 387.048V397.62C170.24 401.441 173.335 404.538 177.154 404.538C180.973 404.538 184.068 401.441 184.068 397.62Z" fill="#FDE01B"/>
<path d="M171.622 397.62V387.048C171.622 383.227 168.526 380.13 164.708 380.13C160.889 380.13 157.794 383.227 157.794 387.048V397.62C157.794 401.441 160.889 404.538 164.708 404.538C168.526 404.538 171.622 401.441 171.622 397.62Z" fill="#FDE01B"/>
<path d="M159.177 398.118V387.546C159.177 383.725 156.081 380.628 152.262 380.628C148.444 380.628 145.348 383.725 145.348 387.546V398.118C145.348 401.939 148.444 405.036 152.262 405.036C156.081 405.036 159.177 401.939 159.177 398.118Z" fill="#FDE01B"/>
<path d="M117.844 396.526V385.955C117.844 382.134 114.748 379.036 110.929 379.036C107.111 379.036 104.015 382.134 104.015 385.955V396.526C104.015 400.347 107.111 403.445 110.929 403.445C114.748 403.445 117.844 400.347 117.844 396.526Z" fill="#FDE01B"/>
<path d="M105.398 396.526V385.955C105.398 382.134 102.303 379.036 98.4842 379.036C94.6655 379.036 91.5699 382.134 91.5699 385.955V396.526C91.5699 400.347 94.6655 403.445 98.4842 403.445C102.303 403.445 105.398 400.347 105.398 396.526Z" fill="#FDE01B"/>
<path d="M92.9658 397.024V386.453C92.9658 382.632 89.8702 379.534 86.0515 379.534C82.2329 379.534 79.1373 382.632 79.1373 386.453V397.024C79.1373 400.845 82.2329 403.943 86.0515 403.943C89.8702 403.943 92.9658 400.845 92.9658 397.024Z" fill="#FDE01B"/>
<path d="M173.514 362.262C173.514 359.685 169.437 357.596 164.407 357.596C159.378 357.596 155.301 359.685 155.301 362.262V385.236C155.301 387.813 159.378 389.902 164.407 389.902C169.437 389.902 173.514 387.813 173.514 385.236V362.262Z" fill="#FDE01B"/>
<path d="M106.457 362.262C106.457 359.685 102.565 357.596 97.7644 357.596C92.9636 357.596 89.0718 359.685 89.0718 362.262V385.236C89.0718 387.813 92.9636 389.902 97.7644 389.902C102.565 389.902 106.457 387.813 106.457 385.236V362.262Z" fill="#FDE01B"/>
<g filter="url(#filter4_d)">
<path d="M149.856 260.865L140.068 182.657L130.856 182.674L122.062 182.657L112.246 260.864L130.96 286.907L140.312 274.136L149.856 260.865Z" fill="#EB3F6D"/>
</g>
<g filter="url(#filter5_d)">
<path d="M140.235 182.59L142.679 163.637L119.032 163.598L121.86 182.59H140.235Z" fill="#EB3F6D"/>
</g>
</g>
<g filter="url(#filter6_d)">
<path d="M71.9629 262.643C64.8639 297.031 48.602 326.291 27.7429 346.263C14.0758 318.665 9.44073 282.593 17.136 245.278C24.2374 210.876 40.4969 181.63 61.3584 161.644C75.0166 189.212 79.6654 225.287 71.9629 262.643Z" fill="#43EDB0"/>
</g>
<g filter="url(#filter7_d)">
<path d="M241.789 256.822C246.224 291.655 240.328 324.611 227.073 350.274C205.197 328.606 189.117 295.989 184.297 258.195C179.86 223.348 185.758 190.406 199.011 164.729C220.869 186.372 236.963 218.987 241.789 256.822Z" fill="#43EDB0"/>
</g>
<defs>
<filter id="filter0_i" x="30.4346" y="0.142578" width="195" height="432" filterUnits="userSpaceOnUse" color-interpolation-filters="sRGB">
<feFlood flood-opacity="0" result="BackgroundImageFix"/>
<feBlend mode="normal" in="SourceGraphic" in2="BackgroundImageFix" result="shape"/>
<feColorMatrix in="SourceAlpha" type="matrix" values="0 0 0 0 0 0 0 0 0 0 0 0 0 0 0 0 0 0 127 0" result="hardAlpha"/>
<feOffset dy="4"/>
<feGaussianBlur stdDeviation="2"/>
<feComposite in2="hardAlpha" operator="arithmetic" k2="-1" k3="1"/>
<feColorMatrix type="matrix" values="0 0 0 0 0 0 0 0 0 0 0 0 0 0 0 0 0 0 0.25 0"/>
<feBlend mode="normal" in2="shape" result="effect1_innerShadow"/>
</filter>
<filter id="filter1_i" x="30.4346" y="-14.8574" width="210" height="443" filterUnits="userSpaceOnUse" color-interpolation-filters="sRGB">
<feFlood flood-opacity="0" result="BackgroundImageFix"/>
<feBlend mode="normal" in="SourceGraphic" in2="BackgroundImageFix" result="shape"/>
<feColorMatrix in="SourceAlpha" type="matrix" values="0 0 0 0 0 0 0 0 0 0 0 0 0 0 0 0 0 0 127 0" result="hardAlpha"/>
<feOffset dx="21" dy="-21"/>
<feGaussianBlur stdDeviation="7.5"/>
<feComposite in2="hardAlpha" operator="arithmetic" k2="-1" k3="1"/>
<feColorMatrix type="matrix" values="0 0 0 0 0 0 0 0 0 0 0 0 0 0 0 0 0 0 0.12 0"/>
<feBlend mode="normal" in2="shape" result="effect1_innerShadow"/>
</filter>
<filter id="filter2_i" x="138.357" y="50.5554" width="55.3549" height="59.3883" filterUnits="userSpaceOnUse" color-interpolation-filters="sRGB">
<feFlood flood-opacity="0" result="BackgroundImageFix"/>
<feBlend mode="normal" in="SourceGraphic" in2="BackgroundImageFix" result="shape"/>
<feColorMatrix in="SourceAlpha" type="matrix" values="0 0 0 0 0 0 0 0 0 0 0 0 0 0 0 0 0 0 127 0" result="hardAlpha"/>
<feOffset dy="4"/>
<feGaussianBlur stdDeviation="2"/>
<feComposite in2="hardAlpha" operator="arithmetic" k2="-1" k3="1"/>
<feColorMatrix type="matrix" values="0 0 0 0 0 0 0 0 0 0 0 0 0 0 0 0 0 0 0.15 0"/>
<feBlend mode="normal" in2="shape" result="effect1_innerShadow"/>
</filter>
<filter id="filter3_i" x="67.772" y="50.5554" width="55.3548" height="59.3883" filterUnits="userSpaceOnUse" color-interpolation-filters="sRGB">
<feFlood flood-opacity="0" result="BackgroundImageFix"/>
<feBlend mode="normal" in="SourceGraphic" in2="BackgroundImageFix" result="shape"/>
<feColorMatrix in="SourceAlpha" type="matrix" values="0 0 0 0 0 0 0 0 0 0 0 0 0 0 0 0 0 0 127 0" result="hardAlpha"/>
<feOffset dy="4"/>
<feGaussianBlur stdDeviation="2"/>
<feComposite in2="hardAlpha" operator="arithmetic" k2="-1" k3="1"/>
<feColorMatrix type="matrix" values="0 0 0 0 0 0 0 0 0 0 0 0 0 0 0 0 0 0 0.15 0"/>
<feBlend mode="normal" in2="shape" result="effect1_innerShadow"/>
</filter>
<filter id="filter4_d" x="110.246" y="182.657" width="41.6103" height="110.25" filterUnits="userSpaceOnUse" color-interpolation-filters="sRGB">
<feFlood flood-opacity="0" result="BackgroundImageFix"/>
<feColorMatrix in="SourceAlpha" type="matrix" values="0 0 0 0 0 0 0 0 0 0 0 0 0 0 0 0 0 0 127 0"/>
<feOffset dy="4"/>
<feGaussianBlur stdDeviation="1"/>
<feColorMatrix type="matrix" values="0 0 0 0 0 0 0 0 0 0 0 0 0 0 0 0 0 0 0.25 0"/>
<feBlend mode="normal" in2="BackgroundImageFix" result="effect1_dropShadow"/>
<feBlend mode="normal" in="SourceGraphic" in2="effect1_dropShadow" result="shape"/>
</filter>
<filter id="filter5_d" x="115.032" y="163.598" width="31.6477" height="26.9928" filterUnits="userSpaceOnUse" color-interpolation-filters="sRGB">
<feFlood flood-opacity="0" result="BackgroundImageFix"/>
<feColorMatrix in="SourceAlpha" type="matrix" values="0 0 0 0 0 0 0 0 0 0 0 0 0 0 0 0 0 0 127 0"/>
<feOffset dy="4"/>
<feGaussianBlur stdDeviation="2"/>
<feColorMatrix type="matrix" values="0 0 0 0 0 0 0 0 0 0 0 0 0 0 0 0 0 0 0.25 0"/>
<feBlend mode="normal" in2="BackgroundImageFix" result="effect1_dropShadow"/>
<feBlend mode="normal" in="SourceGraphic" in2="effect1_dropShadow" result="shape"/>
</filter>
<filter id="filter6_d" x="10.4272" y="161.644" width="70.2468" height="192.619" filterUnits="userSpaceOnUse" color-interpolation-filters="sRGB">
<feFlood flood-opacity="0" result="BackgroundImageFix"/>
<feColorMatrix in="SourceAlpha" type="matrix" values="0 0 0 0 0 0 0 0 0 0 0 0 0 0 0 0 0 0 127 0"/>
<feOffset dx="1" dy="4"/>
<feGaussianBlur stdDeviation="2"/>
<feColorMatrix type="matrix" values="0 0 0 0 0 0 0 0 0 0 0 0 0 0 0 0 0 0 0.15 0"/>
<feBlend mode="normal" in2="BackgroundImageFix" result="effect1_dropShadow"/>
<feBlend mode="normal" in="SourceGraphic" in2="effect1_dropShadow" result="shape"/>
</filter>
<filter id="filter7_d" x="179.837" y="164.729" width="68.4101" height="193.546" filterUnits="userSpaceOnUse" color-interpolation-filters="sRGB">
<feFlood flood-opacity="0" result="BackgroundImageFix"/>
<feColorMatrix in="SourceAlpha" type="matrix" values="0 0 0 0 0 0 0 0 0 0 0 0 0 0 0 0 0 0 127 0"/>
<feOffset dx="1" dy="4"/>
<feGaussianBlur stdDeviation="2"/>
<feColorMatrix type="matrix" values="0 0 0 0 0 0 0 0 0 0 0 0 0 0 0 0 0 0 0.15 0"/>
<feBlend mode="normal" in2="BackgroundImageFix" result="effect1_dropShadow"/>
<feBlend mode="normal" in="SourceGraphic" in2="effect1_dropShadow" result="shape"/>
</filter>
<clipPath id="clip0">
<rect width="195" height="428" fill="white" transform="translate(30.4346 0.142578)"/>
</clipPath>
</defs>
</svg>
