<svg width="194" height="428" viewBox="0 0 194 428" fill="none" xmlns="http://www.w3.org/2000/svg">
<g clip-path="url(#clip0)" filter="url(#filter0_i)">
<path d="M46.165 369.511C18.7356 346.223 0.467773 304.747 0.467773 257.452C0.467773 184.617 43.799 125.575 97.2408 125.575C150.683 125.575 194.014 184.617 194.014 257.452C194.014 303.973 176.337 344.854 149.651 368.336" fill="#F27500"/>
<path d="M99.1663 192.592C151.397 192.592 193.738 150.051 193.738 97.5742C193.738 45.0975 151.397 2.55676 99.1663 2.55676C46.9356 2.55676 4.59424 45.0975 4.59424 97.5742C4.59424 150.051 46.9356 192.592 99.1663 192.592Z" fill="#F27500"/>
<path d="M137.433 246.528C131.657 251.965 117.795 258.594 108.554 241.613C109.442 242.283 95.0027 265.743 81.4516 241.613C80.563 241.613 67.234 265.743 55.0159 241.613" stroke="#F69D49" stroke-width="2" stroke-linecap="round" stroke-linejoin="round"/>
<path d="M122.105 227.313C112.33 227.313 108.11 220.164 107.221 216.589C108.11 217.259 93.6699 240.719 80.1188 216.589C79.2302 220.164 75.0093 227.313 65.2348 227.313" stroke="#F69D49" stroke-width="2" stroke-linecap="round" stroke-linejoin="round"/>
<g filter="url(#filter1_d)">
<path d="M193.601 262.234C192.542 297.007 181.716 328.339 164.851 351.392C146.9 326.791 136.28 292.377 137.422 254.647C138.481 219.86 149.307 188.542 166.172 165.475C184.11 190.049 194.743 224.462 193.601 262.234Z" fill="#F69D49"/>
</g>
<g filter="url(#filter2_d)">
<path d="M21.1924 192.078C-2.31935 217.593 -16.4597 247.552 -20.5429 275.881C9.41548 271.015 40.9983 253.992 66.536 226.276C90.0478 200.761 104.188 170.802 108.271 142.473C78.3224 147.329 46.7395 164.352 21.1924 192.078Z" fill="#F69D49"/>
</g>
<path d="M165.759 164.923L179.625 152.802C179.775 152.676 179.88 152.503 179.923 152.312C179.966 152.12 179.946 151.919 179.864 151.741C179.783 151.562 179.646 151.415 179.473 151.322C179.301 151.229 179.103 151.195 178.91 151.226L176.929 151.517L186.558 142.616C186.703 142.481 186.8 142.302 186.833 142.107C186.866 141.911 186.833 141.71 186.741 141.535C186.648 141.36 186.5 141.22 186.32 141.138C186.141 141.056 185.939 141.036 185.747 141.082L182.775 141.801" fill="#F27500"/>
<path d="M30.1806 162.767L16.686 150.162C16.5477 150.029 16.4556 149.855 16.4232 149.665C16.3909 149.476 16.4199 149.281 16.5062 149.109C16.5925 148.937 16.7313 148.797 16.9024 148.711C17.0735 148.624 17.2676 148.595 17.4564 148.628L19.4235 148.987L10.097 139.755C9.95541 139.616 9.86405 139.433 9.83728 139.235C9.81051 139.038 9.84986 138.837 9.94912 138.664C10.0484 138.492 10.2019 138.357 10.3855 138.282C10.5692 138.207 10.7726 138.195 10.9636 138.249L13.9073 139.05" fill="#F27500"/>
<path d="M101.519 99.8548L110.501 112.293C110.689 112.486 110.836 112.714 110.934 112.965C111.032 113.215 111.079 113.483 111.073 113.752C111.067 114.021 111.007 114.287 110.897 114.532C110.787 114.778 110.629 114.999 110.433 115.182L100.927 131.269C100.534 131.643 100.01 131.846 99.4686 131.833C98.9274 131.82 98.4133 131.593 98.0385 131.2L89.0558 114.615C88.6744 114.229 88.4604 113.708 88.4604 113.164C88.4604 112.62 88.6744 112.099 89.0558 111.713L98.575 99.8686C98.762 99.6643 98.9889 99.5009 99.2417 99.3887C99.4944 99.2765 99.7675 99.218 100.044 99.2167C100.32 99.2154 100.594 99.2714 100.848 99.3812C101.101 99.491 101.33 99.6522 101.519 99.8548Z" fill="#FDE01B"/>
<path d="M98.7406 127.39C100.264 130.454 100.637 131.559 100.954 131.239C99.8118 132.389 98.5351 131.709 98.0591 131.23C95.3618 126.443 89.7497 116.48 88.9881 114.948C88.2265 113.416 88.4271 112.549 88.5858 112.389C90.8632 108.56 97.4791 100.771 99.0579 99.4631C99.888 98.7755 100.592 99.226 100.96 99.462L100.962 99.4631L101.568 99.9119L91.4418 113.347C93.3459 116.858 97.2174 124.326 98.7406 127.39Z" fill="#DCC31E"/>
<g filter="url(#filter3_i)">
<path d="M135.174 105.741C150.382 105.741 162.71 93.3421 162.71 78.0471C162.71 62.752 150.382 50.353 135.174 50.353C119.967 50.353 107.639 62.752 107.639 78.0471C107.639 93.3421 119.967 105.741 135.174 105.741Z" fill="white"/>
</g>
<path d="M128.916 90.6353C137.902 90.6353 145.187 83.3086 145.187 74.2706C145.187 65.2326 137.902 57.9059 128.916 57.9059C119.93 57.9059 112.645 65.2326 112.645 74.2706C112.645 83.3086 119.93 90.6353 128.916 90.6353Z" fill="black"/>
<path d="M125.161 69.2353C125.161 72.7114 122.359 75.5294 118.903 75.5294C115.447 75.5294 112.645 72.7114 112.645 69.2353C112.645 65.7591 115.447 62.9412 118.903 62.9412C122.359 62.9412 125.161 65.7591 125.161 69.2353Z" fill="white"/>
<g filter="url(#filter4_i)">
<path d="M65.0838 105.741C80.2913 105.741 92.6193 93.3421 92.6193 78.0471C92.6193 62.752 80.2913 50.353 65.0838 50.353C49.8764 50.353 37.5483 62.752 37.5483 78.0471C37.5483 93.3421 49.8764 105.741 65.0838 105.741Z" fill="white"/>
</g>
<path d="M60.0776 90.6353C69.0638 90.6353 76.3486 83.3086 76.3486 74.2706C76.3486 65.2326 69.0638 57.9059 60.0776 57.9059C51.0914 57.9059 43.8066 65.2326 43.8066 74.2706C43.8066 83.3086 51.0914 90.6353 60.0776 90.6353Z" fill="black"/>
<path d="M142.429 17.2758L180.134 55.7112C180.431 56.0113 180.807 56.2196 181.218 56.3114C181.629 56.4032 182.057 56.3747 182.453 56.2292C182.848 56.0837 183.193 55.8274 183.448 55.4906C183.703 55.1538 183.856 54.7508 183.889 54.3292V3.84208C183.921 3.49973 183.874 3.15458 183.75 2.83408C183.626 2.51358 183.429 2.22653 183.175 1.99576C182.922 1.76499 182.618 1.59688 182.288 1.50473C181.958 1.41258 181.612 1.39893 181.276 1.46492L143.598 13.5304C143.199 13.5963 142.825 13.7724 142.519 14.0392C142.213 14.306 141.987 14.6529 141.865 15.0413C141.744 15.4296 141.733 15.8442 141.832 16.2388C141.932 16.6333 142.138 16.9923 142.429 17.2758V17.2758Z" fill="#F27500"/>
<path d="M153.915 19.584L175.127 41.1857C175.29 41.3568 175.498 41.4771 175.728 41.532C175.957 41.5869 176.197 41.5743 176.419 41.4955C176.641 41.4167 176.836 41.2751 176.98 41.0878C177.125 40.9005 177.212 40.6753 177.232 40.4394L176.778 9.7989C176.804 9.60264 176.782 9.40304 176.716 9.21668C176.649 9.03032 176.54 8.86258 176.396 8.72742C176.252 8.59225 176.078 8.49358 175.888 8.43956C175.699 8.38554 175.499 8.37773 175.306 8.41682L154.548 17.4556C154.322 17.4961 154.112 17.5987 153.941 17.752C153.77 17.9054 153.645 18.1034 153.58 18.3241C153.514 18.5447 153.511 18.7793 153.57 19.0018C153.629 19.2242 153.749 19.4258 153.915 19.584Z" fill="black"/>
<path d="M54.4462 17.345L16.6861 55.7666C16.3912 56.0682 16.0159 56.2779 15.6053 56.3705C15.1947 56.4632 14.7662 56.4349 14.3712 56.289C13.9763 56.1431 13.6316 55.8858 13.3785 55.548C13.1254 55.2102 12.9748 54.8063 12.9445 54.3846L12.9445 3.89749C12.9095 3.55444 12.9553 3.2079 13.0783 2.88594C13.2013 2.56399 13.3979 2.27564 13.6524 2.04421C13.9068 1.81277 14.212 1.64474 14.543 1.55373C14.8741 1.46271 15.2218 1.45129 15.5581 1.52032L53.2356 13.5858C53.6416 13.6434 54.0233 13.8146 54.3371 14.0797C54.6509 14.3448 54.8843 14.6933 55.0105 15.0852C55.1368 15.4772 55.1507 15.8969 55.0509 16.2964C54.9511 16.696 54.7416 17.0594 54.4462 17.345V17.345Z" fill="#F27500"/>
<path d="M42.9598 19.6945L21.7482 41.2548C21.5853 41.4259 21.3767 41.5462 21.1475 41.6011C20.9183 41.6561 20.6782 41.6433 20.4559 41.5645C20.2337 41.4858 20.0389 41.3442 19.8948 41.1569C19.7506 40.9695 19.6635 40.7444 19.6436 40.5085L20.0837 9.868C20.0579 9.67175 20.0792 9.47214 20.1456 9.28579C20.2121 9.09943 20.3218 8.93169 20.4658 8.79653C20.6097 8.66136 20.7837 8.56264 20.9732 8.50862C21.1628 8.4546 21.3624 8.44684 21.5556 8.48593L42.3271 17.5247C42.5649 17.5535 42.7891 17.6518 42.9719 17.8074C43.1547 17.963 43.2881 18.169 43.3554 18.4C43.4228 18.631 43.4212 18.8768 43.3509 19.1069C43.2806 19.337 43.1446 19.5413 42.9598 19.6945V19.6945Z" fill="black"/>
<path d="M102.193 2.61206L120.557 1.97628C120.748 1.97217 120.936 2.02981 121.092 2.14073C121.248 2.25165 121.365 2.41002 121.425 2.59254C121.485 2.77505 121.485 2.97209 121.426 3.15472C121.366 3.33735 121.25 3.49589 121.094 3.60711L119.457 4.75426L132.538 4.6575C132.739 4.6519 132.936 4.71431 133.097 4.83465C133.258 4.95499 133.374 5.12628 133.426 5.32095C133.479 5.51562 133.465 5.72235 133.386 5.90785C133.307 6.09336 133.169 6.24685 132.992 6.34363L130.338 7.85008" fill="#F27500"/>
<path d="M66.3584 8.44443L84.475 0.566646C84.6573 0.491583 84.8591 0.479076 85.0492 0.53109C85.2392 0.583104 85.4069 0.696733 85.5261 0.854296C85.6452 1.01186 85.7093 1.20453 85.7082 1.40244C85.7072 1.60034 85.6412 1.79239 85.5204 1.94872L84.0898 3.77306" fill="#F27500"/>
<path d="M66.3584 8.44406L84.475 0.56628C84.6573 0.491217 84.8591 0.47871 85.0492 0.530724C85.2392 0.582738 85.4069 0.696366 85.5261 0.85393C85.6452 1.01149 85.7093 1.20417 85.7082 1.40207C85.7072 1.59997 85.6412 1.79202 85.5204 1.94835L84.0898 3.7727" fill="#F27500"/>
<path d="M85.8921 3.51049L103.94 0.0276401C104.127 -0.00467911 104.319 0.0236743 104.489 0.108537C104.659 0.193399 104.798 0.33038 104.885 0.499691C104.973 0.669001 105.004 0.861824 104.975 1.05028C104.946 1.23873 104.858 1.41303 104.724 1.54793L103.348 2.93" fill="#F27500"/>
<path d="M56.3228 67.9765C56.3228 71.4526 53.5209 74.2706 50.0647 74.2706C46.6085 74.2706 43.8066 71.4526 43.8066 67.9765C43.8066 64.5003 46.6085 61.6824 50.0647 61.6824C53.5209 61.6824 56.3228 64.5003 56.3228 67.9765Z" fill="white"/>
<ellipse cx="65.7099" cy="107.629" rx="21.9032" ry="11.9588" fill="#F27500"/>
<ellipse cx="138.303" cy="107.629" rx="26.9097" ry="11.9588" fill="#F27500"/>
</g>
<path d="M152.817 397.89V387.318C152.817 383.497 149.738 380.4 145.939 380.4C142.139 380.4 139.06 383.497 139.06 387.318V397.89C139.06 401.711 142.139 404.808 145.939 404.808C149.738 404.808 152.817 401.711 152.817 397.89Z" fill="#FDE01B"/>
<path d="M140.436 397.89V387.318C140.436 383.497 137.356 380.4 133.557 380.4C129.758 380.4 126.678 383.497 126.678 387.318V397.89C126.678 401.711 129.758 404.808 133.557 404.808C137.356 404.808 140.436 401.711 140.436 397.89Z" fill="#FDE01B"/>
<path d="M128.053 398.388V387.816C128.053 383.995 124.973 380.898 121.174 380.898C117.375 380.898 114.296 383.995 114.296 387.816V398.388C114.296 402.209 117.375 405.306 121.174 405.306C124.973 405.306 128.053 402.209 128.053 398.388Z" fill="#FDE01B"/>
<path d="M86.9316 396.796V386.225C86.9316 382.404 83.8519 379.307 80.0528 379.307C76.2537 379.307 73.174 382.404 73.174 386.225V396.796C73.174 400.617 76.2537 403.715 80.0528 403.715C83.8519 403.715 86.9316 400.617 86.9316 396.796Z" fill="#FDE01B"/>
<path d="M74.5503 396.796V386.225C74.5503 382.404 71.4705 379.307 67.6715 379.307C63.8724 379.307 60.7926 382.404 60.7926 386.225V396.796C60.7926 400.617 63.8724 403.715 67.6715 403.715C71.4705 403.715 74.5503 400.617 74.5503 396.796Z" fill="#FDE01B"/>
<path d="M62.1821 397.294V386.723C62.1821 382.902 59.1024 379.804 55.3033 379.804C51.5042 379.804 48.4245 382.902 48.4245 386.723V397.294C48.4245 401.115 51.5042 404.213 55.3033 404.213C59.1024 404.213 62.1821 401.115 62.1821 397.294Z" fill="#FDE01B"/>
<path d="M142.317 362.532C142.317 359.955 138.261 357.866 133.257 357.866C128.253 357.866 124.197 359.955 124.197 362.532V385.506C124.197 388.083 128.253 390.172 133.257 390.172C138.261 390.172 142.317 388.083 142.317 385.506V362.532Z" fill="#FDE01B"/>
<path d="M75.6036 362.532C75.6036 359.955 71.7318 357.866 66.9556 357.866C62.1795 357.866 58.3076 359.955 58.3076 362.532V385.506C58.3076 388.083 62.1795 390.172 66.9556 390.172C71.7318 390.172 75.6036 388.083 75.6036 385.506V362.532Z" fill="#FDE01B"/>
<defs>
<filter id="filter0_i" x="0" y="-15" width="209" height="443" filterUnits="userSpaceOnUse" color-interpolation-filters="sRGB">
<feFlood flood-opacity="0" result="BackgroundImageFix"/>
<feBlend mode="normal" in="SourceGraphic" in2="BackgroundImageFix" result="shape"/>
<feColorMatrix in="SourceAlpha" type="matrix" values="0 0 0 0 0 0 0 0 0 0 0 0 0 0 0 0 0 0 127 0" result="hardAlpha"/>
<feOffset dx="21" dy="-21"/>
<feGaussianBlur stdDeviation="7.5"/>
<feComposite in2="hardAlpha" operator="arithmetic" k2="-1" k3="1"/>
<feColorMatrix type="matrix" values="0 0 0 0 0 0 0 0 0 0 0 0 0 0 0 0 0 0 0.12 0"/>
<feBlend mode="normal" in2="shape" result="effect1_innerShadow"/>
</filter>
<filter id="filter1_d" x="133.338" y="165.475" width="64.3464" height="193.916" filterUnits="userSpaceOnUse" color-interpolation-filters="sRGB">
<feFlood flood-opacity="0" result="BackgroundImageFix"/>
<feColorMatrix in="SourceAlpha" type="matrix" values="0 0 0 0 0 0 0 0 0 0 0 0 0 0 0 0 0 0 127 0"/>
<feOffset dy="4"/>
<feGaussianBlur stdDeviation="2"/>
<feColorMatrix type="matrix" values="0 0 0 0 0 0 0 0 0 0 0 0 0 0 0 0 0 0 0.25 0"/>
<feBlend mode="normal" in2="BackgroundImageFix" result="effect1_dropShadow"/>
<feBlend mode="normal" in="SourceGraphic" in2="effect1_dropShadow" result="shape"/>
</filter>
<filter id="filter2_d" x="-24.543" y="142.473" width="136.814" height="141.408" filterUnits="userSpaceOnUse" color-interpolation-filters="sRGB">
<feFlood flood-opacity="0" result="BackgroundImageFix"/>
<feColorMatrix in="SourceAlpha" type="matrix" values="0 0 0 0 0 0 0 0 0 0 0 0 0 0 0 0 0 0 127 0"/>
<feOffset dy="4"/>
<feGaussianBlur stdDeviation="2"/>
<feColorMatrix type="matrix" values="0 0 0 0 0 0 0 0 0 0 0 0 0 0 0 0 0 0 0.25 0"/>
<feBlend mode="normal" in2="BackgroundImageFix" result="effect1_dropShadow"/>
<feBlend mode="normal" in="SourceGraphic" in2="effect1_dropShadow" result="shape"/>
</filter>
<filter id="filter3_i" x="107.639" y="50.353" width="55.071" height="59.3882" filterUnits="userSpaceOnUse" color-interpolation-filters="sRGB">
<feFlood flood-opacity="0" result="BackgroundImageFix"/>
<feBlend mode="normal" in="SourceGraphic" in2="BackgroundImageFix" result="shape"/>
<feColorMatrix in="SourceAlpha" type="matrix" values="0 0 0 0 0 0 0 0 0 0 0 0 0 0 0 0 0 0 127 0" result="hardAlpha"/>
<feOffset dy="4"/>
<feGaussianBlur stdDeviation="2"/>
<feComposite in2="hardAlpha" operator="arithmetic" k2="-1" k3="1"/>
<feColorMatrix type="matrix" values="0 0 0 0 0 0 0 0 0 0 0 0 0 0 0 0 0 0 0.25 0"/>
<feBlend mode="normal" in2="shape" result="effect1_innerShadow"/>
</filter>
<filter id="filter4_i" x="37.5483" y="50.353" width="55.071" height="59.3882" filterUnits="userSpaceOnUse" color-interpolation-filters="sRGB">
<feFlood flood-opacity="0" result="BackgroundImageFix"/>
<feBlend mode="normal" in="SourceGraphic" in2="BackgroundImageFix" result="shape"/>
<feColorMatrix in="SourceAlpha" type="matrix" values="0 0 0 0 0 0 0 0 0 0 0 0 0 0 0 0 0 0 127 0" result="hardAlpha"/>
<feOffset dy="4"/>
<feGaussianBlur stdDeviation="2"/>
<feComposite in2="hardAlpha" operator="arithmetic" k2="-1" k3="1"/>
<feColorMatrix type="matrix" values="0 0 0 0 0 0 0 0 0 0 0 0 0 0 0 0 0 0 0.25 0"/>
<feBlend mode="normal" in2="shape" result="effect1_innerShadow"/>
</filter>
<clipPath id="clip0">
<rect width="194" height="428" fill="white"/>
</clipPath>
</defs>
</svg>
