<svg width="255" height="429" viewBox="0 0 255 429" fill="none" xmlns="http://www.w3.org/2000/svg">
<g filter="url(#filter0_i)">
<g clip-path="url(#clip0)" filter="url(#filter1_i)">
<path d="M77.5978 369.653C50.0271 346.365 31.665 304.889 31.665 257.595C31.665 184.76 75.2196 125.718 128.937 125.718C182.654 125.718 226.209 184.76 226.209 257.595C226.209 304.116 208.441 344.997 181.617 368.479" fill="#FDE01B"/>
<path d="M130.872 192.734C183.372 192.734 225.932 150.194 225.932 97.717C225.932 45.2403 183.372 2.69958 130.872 2.69958C78.3721 2.69958 35.8125 45.2403 35.8125 97.717C35.8125 150.194 78.3721 192.734 130.872 192.734Z" fill="#FDE01B"/>
<path d="M197.808 165.065L211.746 152.945C211.896 152.818 212.001 152.646 212.045 152.455C212.088 152.263 212.067 152.062 211.986 151.883C211.904 151.705 211.766 151.557 211.593 151.465C211.42 151.372 211.221 151.338 211.027 151.369L209.035 151.659L218.714 142.759C218.86 142.624 218.957 142.445 218.99 142.249C219.023 142.054 218.991 141.853 218.898 141.678C218.805 141.502 218.656 141.363 218.475 141.281C218.294 141.199 218.092 141.179 217.898 141.225L214.912 141.943" fill="#FDEC77"/>
<path d="M61.5311 162.909L47.967 150.305C47.828 150.172 47.7354 149.997 47.7028 149.808C47.6703 149.618 47.6995 149.423 47.7862 149.251C47.8729 149.079 48.0125 148.94 48.1845 148.853C48.3564 148.767 48.5516 148.738 48.7413 148.771L50.7185 149.13L41.344 139.898C41.2017 139.758 41.1098 139.575 41.0829 139.378C41.056 139.18 41.0956 138.979 41.1953 138.807C41.2951 138.634 41.4494 138.5 41.634 138.425C41.8186 138.349 42.023 138.338 42.2151 138.391L45.1739 139.193" fill="#FDE01B"/>
<path d="M133.236 99.9973L142.265 112.436C142.453 112.628 142.601 112.857 142.7 113.107C142.798 113.358 142.846 113.626 142.839 113.895C142.833 114.164 142.773 114.429 142.662 114.675C142.552 114.92 142.393 115.141 142.196 115.324L132.641 131.412C132.246 131.786 131.719 131.989 131.175 131.976C130.631 131.963 130.114 131.735 129.738 131.343L120.709 114.758C120.325 114.372 120.11 113.85 120.11 113.307C120.11 112.763 120.325 112.241 120.709 111.855L130.277 100.011C130.465 99.8068 130.693 99.6434 130.947 99.5312C131.201 99.419 131.476 99.3605 131.753 99.3592C132.031 99.3579 132.306 99.4139 132.561 99.5237C132.816 99.6335 133.046 99.7947 133.236 99.9973Z" fill="#FDEC77"/>
<path d="M123.848 115.245C123.511 114.863 123.325 114.372 123.325 113.863C123.325 113.354 123.511 112.862 123.848 112.481C123.848 112.481 130.975 102.629 131.897 101.707C132.819 100.784 132.358 99.6316 132.358 99.6316C131.667 98.8438 130.084 99.5722 129.365 100.332L120.605 111.852C120.265 112.232 120.145 113.005 120.145 113.236C120.145 113.466 120.28 114.279 120.605 114.619C120.931 114.96 128.17 129.405 128.881 130.489C129.593 131.573 131.189 132.327 131.436 131.913C131.684 131.499 131.436 130.189 131.436 130.189C131.219 129.919 130.921 129.485 130.762 129.176L123.848 115.245Z" fill="#F2D405"/>
<g filter="url(#filter2_i)">
<path d="M167.066 105.884C182.351 105.884 194.743 93.4846 194.743 78.1896C194.743 62.8946 182.351 50.4955 167.066 50.4955C151.78 50.4955 139.388 62.8946 139.388 78.1896C139.388 93.4846 151.78 105.884 167.066 105.884Z" fill="white"/>
</g>
<path fill-rule="evenodd" clip-rule="evenodd" d="M173.682 60.358C172.123 59.8647 170.464 59.5986 168.743 59.5986C159.71 59.5986 152.388 66.9253 152.388 75.9633C152.388 85.0013 159.71 92.328 168.743 92.328C177.775 92.328 185.097 85.0013 185.097 75.9633C185.097 73.0803 184.352 70.3714 183.044 68.0189C182.081 70.2585 179.855 71.8265 177.264 71.8265C173.79 71.8265 170.974 69.0085 170.974 65.5324C170.974 63.3882 172.045 61.4945 173.682 60.358Z" fill="black"/>
<g filter="url(#filter3_i)">
<path d="M96.6135 105.884C111.899 105.884 124.291 93.4846 124.291 78.1896C124.291 62.8946 111.899 50.4955 96.6135 50.4955C81.3276 50.4955 68.936 62.8946 68.936 78.1896C68.936 93.4846 81.3276 105.884 96.6135 105.884Z" fill="white"/>
</g>
<path d="M174.357 17.4173L212.257 55.8527C212.555 56.1528 212.933 56.3611 213.346 56.4529C213.759 56.5447 214.19 56.5161 214.587 56.3707C214.984 56.2252 215.332 55.9689 215.588 55.6321C215.844 55.2953 215.998 54.8922 216.031 54.4706V3.98356C216.064 3.64121 216.015 3.29606 215.891 2.97556C215.766 2.65506 215.569 2.36801 215.314 2.13724C215.059 1.90647 214.753 1.73836 214.422 1.64621C214.09 1.55406 213.742 1.54041 213.404 1.60639L175.533 13.6719C175.131 13.7378 174.755 13.9139 174.448 14.1807C174.14 14.4475 173.913 14.7944 173.791 15.1827C173.669 15.5711 173.657 15.9857 173.757 16.3802C173.857 16.7748 174.065 17.1338 174.357 17.4173Z" fill="#FDE01B"/>
<path d="M185.903 19.7267L207.224 41.3284C207.388 41.4995 207.598 41.6198 207.828 41.6747C208.058 41.7296 208.3 41.717 208.523 41.6382C208.746 41.5594 208.942 41.4178 209.087 41.2305C209.232 41.0432 209.32 40.818 209.34 40.5821L208.883 9.9416C208.909 9.74534 208.888 9.54574 208.821 9.35938C208.754 9.17302 208.644 9.00528 208.499 8.87012C208.355 8.73495 208.18 8.63628 207.989 8.58226C207.799 8.52824 207.598 8.52043 207.404 8.55952L186.539 17.5983C186.312 17.6388 186.101 17.7414 185.929 17.8947C185.758 18.0481 185.632 18.2461 185.566 18.4668C185.5 18.6874 185.496 18.922 185.556 19.1445C185.616 19.3669 185.736 19.5685 185.903 19.7267Z" fill="black"/>
<path d="M85.9209 17.4866L47.9662 55.9082C47.6697 56.2098 47.2925 56.4195 46.8798 56.5121C46.4671 56.6048 46.0364 56.5765 45.6394 56.4306C45.2424 56.2847 44.8959 56.0274 44.6415 55.6896C44.3872 55.3518 44.2358 54.9479 44.2053 54.5262V4.03909C44.1701 3.69604 44.2161 3.3495 44.3398 3.02755C44.4634 2.70559 44.6611 2.41725 44.9168 2.18581C45.1726 1.95438 45.4793 1.78634 45.8121 1.69533C46.1448 1.60432 46.4944 1.59289 46.8324 1.66192L84.7041 13.7274C85.1122 13.785 85.4958 13.9562 85.8113 14.2213C86.1267 14.4864 86.3613 14.8349 86.4882 15.2268C86.6151 15.6188 86.6291 16.0385 86.5288 16.438C86.4285 16.8376 86.2179 17.201 85.9209 17.4866V17.4866Z" fill="#FDE01B"/>
<path d="M74.3754 19.8371L53.0544 41.3974C52.8907 41.5685 52.6811 41.6888 52.4507 41.7437C52.2203 41.7986 51.9789 41.7859 51.7555 41.7071C51.5322 41.6283 51.3363 41.4868 51.1915 41.2994C51.0466 41.1121 50.959 40.887 50.939 40.6511L51.3813 10.0106C51.3554 9.81433 51.3768 9.61472 51.4436 9.42836C51.5104 9.24201 51.6207 9.07427 51.7654 8.9391C51.9101 8.80394 52.085 8.70522 52.2755 8.6512C52.466 8.59718 52.6667 8.58942 52.8608 8.62851L73.7394 17.6672C73.9785 17.696 74.2038 17.7944 74.3876 17.9499C74.5713 18.1055 74.7054 18.3116 74.7731 18.5426C74.8408 18.7736 74.8392 19.0193 74.7685 19.2494C74.6978 19.4795 74.5611 19.6839 74.3754 19.8371V19.8371Z" fill="black"/>
<path d="M133.914 2.75464L152.372 2.11886C152.565 2.11474 152.753 2.17239 152.91 2.28331C153.067 2.39423 153.185 2.5526 153.245 2.73511C153.305 2.91763 153.306 3.11467 153.246 3.2973C153.186 3.47993 153.069 3.63847 152.912 3.74969L151.266 4.89684L164.416 4.80008C164.617 4.79448 164.815 4.85688 164.977 4.97723C165.139 5.09757 165.255 5.26886 165.308 5.46353C165.361 5.6582 165.347 5.86492 165.267 6.05043C165.188 6.23594 165.049 6.38942 164.872 6.48621L162.203 7.99266" fill="#FDE01B"/>
<path d="M97.895 8.58676L116.105 0.70898C116.288 0.633917 116.491 0.62141 116.682 0.673424C116.873 0.725438 117.042 0.839067 117.161 0.99663C117.281 1.15419 117.346 1.34687 117.345 1.54477C117.344 1.74267 117.277 1.93472 117.156 2.09105L115.718 3.9154" fill="#F27500"/>
<path d="M97.895 8.58627L116.105 0.708492C116.288 0.633428 116.491 0.620922 116.682 0.672936C116.873 0.72495 117.042 0.838578 117.161 0.996142C117.281 1.15371 117.346 1.34638 117.345 1.54428C117.344 1.74218 117.277 1.93423 117.156 2.09056L115.718 3.91491" fill="#FDE01B"/>
<path d="M117.529 3.65319L135.67 0.17034C135.858 0.138021 136.051 0.166374 136.222 0.251237C136.393 0.336099 136.532 0.47308 136.62 0.642391C136.708 0.811701 136.739 1.00452 136.71 1.19298C136.681 1.38143 136.593 1.55573 136.458 1.69063L135.075 3.0727" fill="#FDE01B"/>
<path fill-rule="evenodd" clip-rule="evenodd" d="M104.675 60.4186C103.063 59.8865 101.339 59.5986 99.5487 59.5986C90.5162 59.5986 83.1938 66.9253 83.1938 75.9633C83.1938 85.0013 90.5162 92.328 99.5487 92.328C108.581 92.328 115.904 85.0013 115.904 75.9633C115.904 73.1909 115.215 70.5795 113.999 68.2912C112.977 70.3846 110.828 71.8265 108.343 71.8265C104.869 71.8265 102.053 69.0085 102.053 65.5324C102.053 63.4259 103.087 61.5611 104.675 60.4186Z" fill="black"/>
<ellipse cx="97.2427" cy="107.772" rx="22.0161" ry="11.9588" fill="#FDE01B"/>
<ellipse cx="170.21" cy="107.772" rx="27.0484" ry="11.9588" fill="#FDE01B"/>
<path d="M87.8828 250.091C93.8743 255.701 108.254 262.542 117.84 245.018C116.918 245.71 131.897 269.921 145.954 245.018C146.876 245.018 160.702 269.921 173.376 245.018" stroke="#FDEC77" stroke-width="4" stroke-linecap="round" stroke-linejoin="round"/>
<path d="M103.783 230.261C113.923 230.261 118.301 222.882 119.223 219.193C118.301 219.885 133.28 244.096 147.336 219.193C148.258 222.882 152.637 230.261 162.776 230.261" stroke="#FDEC77" stroke-width="4" stroke-linecap="round" stroke-linejoin="round"/>
<path d="M181.223 54.4453C187.086 53.6843 198.381 49.1963 196.651 37.3324" stroke="black" stroke-width="2.5" stroke-linecap="round" stroke-linejoin="round"/>
<path d="M187.621 58.0352C193.539 57.7437 205.117 54.1786 204.089 42.2501" stroke="black" stroke-width="2.5" stroke-linecap="round" stroke-linejoin="round"/>
<path d="M193.825 63.3614C199.752 63.19 211.393 59.863 210.545 47.9271" stroke="black" stroke-width="2.5" stroke-linecap="round" stroke-linejoin="round"/>
<path d="M85.0338 54.5179C78.9925 53.7338 67.3558 49.11 69.139 36.8872" stroke="black" stroke-width="2.5" stroke-linecap="round" stroke-linejoin="round"/>
<path d="M78.4415 58.2161C72.345 57.9158 60.4169 54.2428 61.476 41.9535" stroke="black" stroke-width="2.5" stroke-linecap="round" stroke-linejoin="round"/>
<path d="M72.0497 63.7035C65.9437 63.5268 53.9502 60.0992 54.8238 47.8022" stroke="black" stroke-width="2.5" stroke-linecap="round" stroke-linejoin="round"/>
<path d="M141.139 122.211L134.321 134.052C133.754 134.402 132.425 134.728 131.644 133.238C130.863 131.748 127.159 124.517 125.405 121.088" stroke="#F35B84" stroke-width="2" stroke-linecap="round"/>
</g>
<path d="M184.847 397.83V387.258C184.847 383.437 181.751 380.34 177.932 380.34C174.114 380.34 171.018 383.437 171.018 387.258V397.83C171.018 401.651 174.114 404.748 177.932 404.748C181.751 404.748 184.847 401.651 184.847 397.83Z" fill="#FDE01B"/>
<path d="M171.73 398.655V388.247C171.73 384.485 168.683 381.435 164.923 381.435C161.163 381.435 158.115 384.485 158.115 388.247V398.655C158.115 402.418 161.163 405.467 164.923 405.467C168.683 405.467 171.73 402.418 171.73 398.655Z" fill="#FDE01B"/>
<path d="M159.955 398.328V387.756C159.955 383.935 156.859 380.838 153.041 380.838C149.222 380.838 146.127 383.935 146.127 387.756V398.328C146.127 402.149 149.222 405.246 153.041 405.246C156.859 405.246 159.955 402.149 159.955 398.328Z" fill="#FDE01B"/>
<path d="M118.623 396.736V386.165C118.623 382.344 115.527 379.247 111.708 379.247C107.89 379.247 104.794 382.344 104.794 386.165V396.736C104.794 400.557 107.89 403.655 111.708 403.655C115.527 403.655 118.623 400.557 118.623 396.736Z" fill="#FDE01B"/>
<path d="M106.176 396.736V386.165C106.176 382.344 103.081 379.247 99.262 379.247C95.4433 379.247 92.3477 382.344 92.3477 386.165V396.736C92.3477 400.557 95.4433 403.655 99.262 403.655C103.081 403.655 106.176 400.557 106.176 396.736Z" fill="#FDE01B"/>
<path d="M93.7456 397.234V386.663C93.7456 382.842 90.65 379.744 86.8313 379.744C83.0127 379.744 79.917 382.842 79.917 386.663V397.234C79.917 401.055 83.0127 404.153 86.8313 404.153C90.65 404.153 93.7456 401.055 93.7456 397.234Z" fill="#FDE01B"/>
<path d="M174.292 362.472C174.292 359.895 170.215 357.806 165.186 357.806C160.156 357.806 156.079 359.895 156.079 362.472V385.446C156.079 388.023 160.156 390.112 165.186 390.112C170.215 390.112 174.292 388.023 174.292 385.446V362.472Z" fill="#FDE01B"/>
<path d="M107.235 362.472C107.235 359.895 103.343 357.806 98.5427 357.806C93.7419 357.806 89.8501 359.895 89.8501 362.472V385.446C89.8501 388.023 93.7419 390.112 98.5427 390.112C103.343 390.112 107.235 388.023 107.235 385.446V362.472Z" fill="#FDE01B"/>
<g filter="url(#filter4_d)">
<path d="M72.036 261.767C65.0027 295.837 48.8913 324.825 28.2253 344.613C14.6848 317.27 10.0926 281.531 17.7166 244.562C24.7523 210.479 40.8613 181.504 61.5296 161.703C75.0614 189.016 79.6672 224.757 72.036 261.767Z" fill="#FDEC77"/>
</g>
<g filter="url(#filter5_d)">
<path d="M240.29 256C244.684 290.51 238.843 323.161 225.711 348.587C204.037 327.119 188.106 294.804 183.331 257.359C178.935 222.835 184.778 190.198 197.908 164.759C219.563 186.202 235.509 218.514 240.29 256Z" fill="#FDEC77"/>
</g>
</g>
<defs>
<filter id="filter0_i" x="14.042" y="0.142578" width="227.693" height="432" filterUnits="userSpaceOnUse" color-interpolation-filters="sRGB">
<feFlood flood-opacity="0" result="BackgroundImageFix"/>
<feBlend mode="normal" in="SourceGraphic" in2="BackgroundImageFix" result="shape"/>
<feColorMatrix in="SourceAlpha" type="matrix" values="0 0 0 0 0 0 0 0 0 0 0 0 0 0 0 0 0 0 127 0" result="hardAlpha"/>
<feOffset dy="4"/>
<feGaussianBlur stdDeviation="2"/>
<feComposite in2="hardAlpha" operator="arithmetic" k2="-1" k3="1"/>
<feColorMatrix type="matrix" values="0 0 0 0 0 0 0 0 0 0 0 0 0 0 0 0 0 0 0.25 0"/>
<feBlend mode="normal" in2="shape" result="effect1_innerShadow"/>
</filter>
<filter id="filter1_i" x="31.1943" y="-14.8574" width="215" height="443" filterUnits="userSpaceOnUse" color-interpolation-filters="sRGB">
<feFlood flood-opacity="0" result="BackgroundImageFix"/>
<feBlend mode="normal" in="SourceGraphic" in2="BackgroundImageFix" result="shape"/>
<feColorMatrix in="SourceAlpha" type="matrix" values="0 0 0 0 0 0 0 0 0 0 0 0 0 0 0 0 0 0 127 0" result="hardAlpha"/>
<feOffset dx="20" dy="-15"/>
<feGaussianBlur stdDeviation="10"/>
<feComposite in2="hardAlpha" operator="arithmetic" k2="-1" k3="1"/>
<feColorMatrix type="matrix" values="0 0 0 0 0 0 0 0 0 0 0 0 0 0 0 0 0 0 0.12 0"/>
<feBlend mode="normal" in2="shape" result="effect1_innerShadow"/>
</filter>
<filter id="filter2_i" x="139.388" y="50.4955" width="55.3548" height="59.3882" filterUnits="userSpaceOnUse" color-interpolation-filters="sRGB">
<feFlood flood-opacity="0" result="BackgroundImageFix"/>
<feBlend mode="normal" in="SourceGraphic" in2="BackgroundImageFix" result="shape"/>
<feColorMatrix in="SourceAlpha" type="matrix" values="0 0 0 0 0 0 0 0 0 0 0 0 0 0 0 0 0 0 127 0" result="hardAlpha"/>
<feOffset dy="4"/>
<feGaussianBlur stdDeviation="2"/>
<feComposite in2="hardAlpha" operator="arithmetic" k2="-1" k3="1"/>
<feColorMatrix type="matrix" values="0 0 0 0 0 0 0 0 0 0 0 0 0 0 0 0 0 0 0.15 0"/>
<feBlend mode="normal" in2="shape" result="effect1_innerShadow"/>
</filter>
<filter id="filter3_i" x="68.936" y="50.4955" width="55.3549" height="59.3882" filterUnits="userSpaceOnUse" color-interpolation-filters="sRGB">
<feFlood flood-opacity="0" result="BackgroundImageFix"/>
<feBlend mode="normal" in="SourceGraphic" in2="BackgroundImageFix" result="shape"/>
<feColorMatrix in="SourceAlpha" type="matrix" values="0 0 0 0 0 0 0 0 0 0 0 0 0 0 0 0 0 0 127 0" result="hardAlpha"/>
<feOffset dy="4"/>
<feGaussianBlur stdDeviation="2"/>
<feComposite in2="hardAlpha" operator="arithmetic" k2="-1" k3="1"/>
<feColorMatrix type="matrix" values="0 0 0 0 0 0 0 0 0 0 0 0 0 0 0 0 0 0 0.15 0"/>
<feBlend mode="normal" in2="shape" result="effect1_innerShadow"/>
</filter>
<filter id="filter4_d" x="11.042" y="161.703" width="69.6705" height="190.91" filterUnits="userSpaceOnUse" color-interpolation-filters="sRGB">
<feFlood flood-opacity="0" result="BackgroundImageFix"/>
<feColorMatrix in="SourceAlpha" type="matrix" values="0 0 0 0 0 0 0 0 0 0 0 0 0 0 0 0 0 0 127 0"/>
<feOffset dx="1" dy="4"/>
<feGaussianBlur stdDeviation="2"/>
<feColorMatrix type="matrix" values="0 0 0 0 0 0 0 0 0 0 0 0 0 0 0 0 0 0 0.15 0"/>
<feBlend mode="normal" in2="BackgroundImageFix" result="effect1_dropShadow"/>
<feBlend mode="normal" in="SourceGraphic" in2="effect1_dropShadow" result="shape"/>
</filter>
<filter id="filter5_d" x="178.884" y="164.759" width="67.8509" height="191.828" filterUnits="userSpaceOnUse" color-interpolation-filters="sRGB">
<feFlood flood-opacity="0" result="BackgroundImageFix"/>
<feColorMatrix in="SourceAlpha" type="matrix" values="0 0 0 0 0 0 0 0 0 0 0 0 0 0 0 0 0 0 127 0"/>
<feOffset dx="1" dy="4"/>
<feGaussianBlur stdDeviation="2"/>
<feColorMatrix type="matrix" values="0 0 0 0 0 0 0 0 0 0 0 0 0 0 0 0 0 0 0.15 0"/>
<feBlend mode="normal" in2="BackgroundImageFix" result="effect1_dropShadow"/>
<feBlend mode="normal" in="SourceGraphic" in2="effect1_dropShadow" result="shape"/>
</filter>
<clipPath id="clip0">
<rect width="195" height="428" fill="white" transform="translate(31.1943 0.142578)"/>
</clipPath>
</defs>
</svg>
