<svg width="196" height="429" viewBox="0 0 196 429" fill="none" xmlns="http://www.w3.org/2000/svg">
<g clip-path="url(#clip0)" filter="url(#filter0_i)">
<path d="M46.8149 369.816C19.2276 346.528 0.854492 305.052 0.854492 257.757C0.854492 184.922 44.4353 125.88 98.185 125.88C151.935 125.88 195.516 184.922 195.516 257.757C195.516 304.278 177.737 345.159 150.897 368.641" fill="#F27500"/>
<path d="M100.122 192.897C152.653 192.897 195.239 150.356 195.239 97.8792C195.239 45.4025 152.653 2.86169 100.122 2.86169C47.5902 2.86169 5.00488 45.4025 5.00488 97.8792C5.00488 150.356 47.5902 192.897 100.122 192.897Z" fill="#F27500"/>
<path d="M139.098 247.529C133.272 252.981 119.291 259.628 109.97 242.6C110.866 243.272 96.3023 266.798 82.6347 242.6C81.7385 242.6 68.2949 266.798 55.9716 242.6" stroke="#F69131" stroke-width="2" stroke-linecap="round" stroke-linejoin="round"/>
<path d="M123.638 228.26C113.779 228.26 109.522 221.09 108.626 217.505C109.522 218.177 94.9581 241.704 81.2904 217.505C80.3942 221.09 76.1371 228.26 66.2784 228.26" stroke="#F69131" stroke-width="2" stroke-linecap="round" stroke-linejoin="round"/>
<g filter="url(#filter1_d)">
<path d="M195.101 262.539C194.035 297.312 183.147 328.644 166.185 351.697C148.13 327.096 137.449 292.682 138.598 254.952C139.663 220.165 150.551 188.847 167.513 165.78C185.554 190.354 196.249 224.767 195.101 262.539Z" fill="#F69131"/>
</g>
<g filter="url(#filter2_d)">
<path d="M56.3319 252.996C56.0275 218.209 45.8172 186.656 29.3671 163.23C10.7865 187.444 -0.641406 221.623 -0.309362 259.409C-0.00498755 294.195 10.2054 325.748 26.6554 349.174C45.2361 324.974 56.664 290.795 56.3319 252.996Z" fill="#F69131"/>
</g>
<path d="M167.098 165.228L181.044 153.107C181.194 152.981 181.299 152.808 181.343 152.617C181.386 152.425 181.366 152.224 181.284 152.046C181.202 151.867 181.064 151.72 180.891 151.627C180.717 151.534 180.518 151.5 180.324 151.531L178.332 151.821L188.016 142.921C188.162 142.786 188.259 142.607 188.293 142.412C188.326 142.216 188.293 142.015 188.2 141.84C188.107 141.665 187.958 141.525 187.777 141.443C187.596 141.361 187.394 141.341 187.2 141.387L184.212 142.105" fill="#F27500"/>
<path d="M30.7383 163.072L17.166 150.467C17.0269 150.334 16.9342 150.16 16.9017 149.97C16.8691 149.781 16.8983 149.585 16.9851 149.414C17.0718 149.242 17.2115 149.102 17.3836 149.016C17.5556 148.929 17.7509 148.9 17.9407 148.933L19.9192 149.292L10.5389 140.06C10.3966 139.921 10.3047 139.738 10.2778 139.54C10.2508 139.343 10.2904 139.142 10.3902 138.969C10.4901 138.797 10.6445 138.662 10.8292 138.587C11.0139 138.512 11.2184 138.5 11.4106 138.554L14.3712 139.355" fill="#F27500"/>
<path d="M102.487 100.16L111.521 112.598C111.71 112.791 111.858 113.019 111.957 113.27C112.055 113.52 112.103 113.788 112.096 114.057C112.09 114.326 112.03 114.592 111.919 114.837C111.808 115.083 111.65 115.304 111.452 115.487L101.892 131.574C101.497 131.948 100.969 132.151 100.425 132.138C99.8808 132.125 99.3637 131.898 98.9867 131.505L89.9523 114.92C89.5687 114.534 89.3535 114.013 89.3535 113.469C89.3535 112.925 89.5687 112.404 89.9523 112.018L99.5263 100.174C99.7144 99.9693 99.9427 99.8059 100.197 99.6937C100.451 99.5815 100.726 99.523 101.004 99.5217C101.282 99.5204 101.557 99.5764 101.812 99.6862C102.067 99.796 102.297 99.9572 102.487 100.16Z" fill="#FDE01B"/>
<path d="M101.561 100.699C104.466 104.679 107.372 108.687 110.291 112.667C110.388 112.806 110.498 112.93 110.581 113.068C111.121 113.939 110.927 114.243 110.471 115.017L109.198 117.145L104.397 125.217L102.156 128.976C101.865 129.46 101.464 130.593 100.994 130.925C99.6102 131.933 98.1021 127.746 97.6732 126.958L92.9831 118.306L91.2814 115.183C90.8386 114.381 90.1607 113.538 90.7141 112.667C92.2937 110.487 93.9886 108.393 95.7916 106.393L98.9737 102.468C99.5686 101.708 100.523 99.8832 101.741 100.906C102.958 101.929 104.231 100.298 103.207 99.441C100.219 96.8841 98.1989 100.173 96.511 102.205L89.967 110.304C89.5109 110.623 89.1306 111.038 88.8532 111.52C88.5758 112.002 88.408 112.539 88.3617 113.093C88.3155 113.647 88.3919 114.204 88.5857 114.726C88.7794 115.247 89.0858 115.719 89.4828 116.109L94.1591 124.719C95.316 127.162 96.6093 129.538 98.0329 131.837C98.2805 132.172 98.5945 132.452 98.9556 132.66C99.3166 132.869 99.7168 133 100.131 133.047C100.545 133.094 100.965 133.055 101.363 132.932C101.762 132.809 102.13 132.606 102.446 132.334C102.938 131.783 103.348 131.164 103.664 130.496L109.046 121.444C110.263 119.412 111.813 117.366 112.809 115.252C113.57 113.704 112.809 112.488 111.868 111.23L108.797 107.084L103.373 99.6483C102.612 98.5841 100.814 99.6068 101.561 100.699Z" fill="black"/>
<path d="M93.0932 115.529C92.7557 115.147 92.5694 114.656 92.5694 114.146C92.5694 113.637 92.7557 113.146 93.0932 112.764L101.09 101.957V101.003C100.398 100.215 99.3328 99.8559 98.6134 100.616L90.174 112.018C89.8336 112.398 89.6455 112.89 89.6455 113.4C89.6455 113.91 89.8336 114.402 90.174 114.782L98.1292 130.773C98.8209 131.561 101.367 131.851 102.086 131.091L100.578 130.331C100.36 130.06 100.17 129.768 100.011 129.46L93.0932 115.529Z" fill="#F2D405"/>
<path d="M101.422 100.616C104.327 104.61 107.233 108.618 110.152 112.598L110.456 112.999C110.982 113.87 110.788 114.174 110.332 114.948L109.073 117.076L104.327 125.147L102.1 128.907C101.809 129.39 101.408 130.524 100.924 130.855C99.5401 131.864 98.0321 127.677 97.6032 126.875L92.9131 118.237L91.2114 115.114C90.7687 114.298 90.0907 113.469 90.6579 112.598C92.2371 110.421 93.9272 108.327 95.7217 106.324L98.9038 102.398C99.5125 101.638 100.467 99.814 101.671 100.837C102.874 101.859 104.147 100.229 103.137 99.3717C100.135 96.8149 98.1151 100.104 96.4272 102.136L89.8832 110.235C89.0672 110.99 88.5065 111.98 88.2783 113.068C88.3387 114.15 88.7298 115.187 89.399 116.039L94.0753 124.65C95.2322 127.093 96.5255 129.469 97.9491 131.767C98.1967 132.103 98.5107 132.383 98.8717 132.591C99.2328 132.799 99.6329 132.931 100.047 132.978C100.461 133.024 100.881 132.985 101.279 132.863C101.678 132.74 102.046 132.537 102.363 132.265C102.857 131.708 103.272 131.085 103.594 130.413L108.976 121.374C110.179 119.343 111.743 117.297 112.725 115.183C113.486 113.635 112.725 112.418 111.784 111.161L108.727 107.015L103.289 99.579C102.432 98.501 100.633 99.5375 101.422 100.616Z" fill="black"/>
<g filter="url(#filter3_i)">
<path d="M136.337 106.046C151.632 106.046 164.031 93.6471 164.031 78.352C164.031 63.057 151.632 50.6579 136.337 50.6579C121.042 50.6579 108.643 63.057 108.643 78.352C108.643 93.6471 121.042 106.046 136.337 106.046Z" fill="white"/>
</g>
<path d="M130.042 90.9402C139.08 90.9402 146.407 83.6135 146.407 74.5755C146.407 65.5375 139.08 58.2108 130.042 58.2108C121.004 58.2108 113.678 65.5375 113.678 74.5755C113.678 83.6135 121.004 90.9402 130.042 90.9402Z" fill="black"/>
<path d="M126.266 69.5402C126.266 73.0164 123.448 75.8343 119.972 75.8343C116.496 75.8343 113.678 73.0164 113.678 69.5402C113.678 66.0641 116.496 63.2461 119.972 63.2461C123.448 63.2461 126.266 66.0641 126.266 69.5402Z" fill="white"/>
<g filter="url(#filter4_i)">
<path d="M65.8426 106.046C81.1376 106.046 93.5367 93.6471 93.5367 78.352C93.5367 63.057 81.1376 50.6579 65.8426 50.6579C50.5475 50.6579 38.1484 63.057 38.1484 78.352C38.1484 93.6471 50.5475 106.046 65.8426 106.046Z" fill="white"/>
</g>
<path d="M143.634 17.5808L181.556 56.0162C181.854 56.3162 182.233 56.5245 182.646 56.6163C183.059 56.7081 183.49 56.6796 183.888 56.5341C184.285 56.3886 184.633 56.1323 184.889 55.7955C185.145 55.4588 185.299 55.0557 185.333 54.6341V4.14701C185.365 3.80466 185.317 3.45952 185.192 3.13901C185.068 2.81851 184.87 2.53146 184.615 2.30069C184.359 2.06992 184.054 1.90182 183.722 1.80966C183.39 1.71751 183.042 1.70386 182.704 1.76985L144.81 13.8354C144.407 13.9012 144.032 14.0774 143.724 14.3441C143.416 14.6109 143.189 14.9578 143.067 15.3462C142.945 15.7346 142.933 16.1491 143.033 16.5437C143.133 16.9383 143.341 17.2973 143.634 17.5808V17.5808Z" fill="#F27500"/>
<path d="M155.186 19.8889L176.52 41.4907C176.683 41.6618 176.893 41.782 177.124 41.8369C177.354 41.8919 177.596 41.8792 177.819 41.8004C178.043 41.7216 178.239 41.58 178.384 41.3927C178.529 41.2054 178.616 40.9803 178.636 40.7444L178.18 10.1038C178.206 9.90757 178.184 9.70797 178.118 9.52161C178.051 9.33525 177.94 9.16752 177.795 9.03235C177.651 8.89718 177.476 8.79851 177.285 8.74449C177.094 8.69047 176.894 8.68266 176.699 8.72176L155.822 17.7605C155.595 17.801 155.384 17.9036 155.212 18.057C155.04 18.2103 154.914 18.4083 154.848 18.629C154.782 18.8496 154.779 19.0843 154.838 19.3067C154.898 19.5291 155.018 19.7307 155.186 19.8889Z" fill="black"/>
<path d="M55.1438 17.65L17.1662 56.0716C16.8696 56.3731 16.4921 56.5828 16.0792 56.6755C15.6662 56.7681 15.2353 56.7398 14.838 56.5939C14.4408 56.448 14.0941 56.1908 13.8396 55.853C13.585 55.5152 13.4335 55.1112 13.4031 54.6895V4.20242C13.3679 3.85937 13.4139 3.51283 13.5376 3.19088C13.6613 2.86892 13.8591 2.58058 14.115 2.34914C14.3709 2.11771 14.6778 1.94967 15.0108 1.85866C15.3438 1.76765 15.6935 1.75622 16.0317 1.82525L53.9263 13.8907C54.3346 13.9484 54.7185 14.1195 55.0341 14.3847C55.3498 14.6498 55.5845 14.9982 55.7114 15.3902C55.8384 15.7821 55.8524 16.2018 55.7521 16.6014C55.6517 17.0009 55.441 17.3643 55.1438 17.65V17.65Z" fill="#F27500"/>
<path d="M43.5912 19.9994L22.2574 41.5598C22.0935 41.7309 21.8838 41.8511 21.6533 41.906C21.4227 41.961 21.1812 41.9483 20.9577 41.8695C20.7342 41.7907 20.5382 41.6491 20.3933 41.4618C20.2483 41.2745 20.1606 41.0494 20.1406 40.8134L20.5833 10.1729C20.5574 9.97668 20.5788 9.77707 20.6456 9.59072C20.7124 9.40436 20.8228 9.23662 20.9676 9.10146C21.1124 8.96629 21.2873 8.86758 21.478 8.81355C21.6686 8.75953 21.8694 8.75177 22.0637 8.79086L42.9548 17.8296C43.1941 17.8584 43.4195 17.9567 43.6034 18.1123C43.7872 18.2679 43.9213 18.4739 43.9891 18.7049C44.0568 18.9359 44.0553 19.1817 43.9845 19.4118C43.9138 19.6419 43.777 19.8462 43.5912 19.9994V19.9994Z" fill="black"/>
<path d="M103.165 2.917L121.635 2.28121C121.827 2.2771 122.016 2.33474 122.173 2.44566C122.33 2.55658 122.448 2.71495 122.508 2.89747C122.569 3.07998 122.569 3.27702 122.509 3.45965C122.449 3.64228 122.332 3.80083 122.175 3.91205L120.528 5.05919L133.685 4.96243C133.887 4.95683 134.085 5.01924 134.247 5.13958C134.409 5.25992 134.526 5.43122 134.579 5.62589C134.631 5.82056 134.617 6.02728 134.538 6.21279C134.459 6.39829 134.319 6.55178 134.142 6.64856L131.472 8.15502" fill="#F27500"/>
<path d="M67.125 8.74934L86.5594 3.16885C86.7427 3.09378 86.9457 3.08128 87.1368 3.13329C87.3279 3.1853 87.4966 3.29893 87.6164 3.4565C87.7363 3.61406 87.8007 3.80673 87.7997 4.00463C87.7987 4.20254 87.7323 4.39458 87.6108 4.55092L84.9586 4.07798" fill="#F27500"/>
<path d="M67.125 8.74898L86.675 3.04821C86.8583 2.97315 87.0612 2.96064 87.2524 3.01265C87.4435 3.06467 87.4849 3.03376 87.6048 3.19133C87.7246 3.34889 87.789 3.54157 87.788 3.73947C87.787 3.93737 87.7206 4.12942 87.5991 4.28575L84.9586 4.07762" fill="#F27500"/>
<path d="M86.7705 3.81542L104.922 0.332572C105.11 0.300253 105.304 0.328606 105.475 0.413468C105.646 0.49833 105.785 0.635312 105.873 0.804622C105.961 0.973932 105.993 1.16676 105.963 1.35521C105.934 1.54366 105.846 1.71796 105.711 1.85286L104.327 3.23493" fill="#F27500"/>
<path fill-rule="evenodd" clip-rule="evenodd" d="M77.1718 74.5755C77.1718 83.6135 69.8451 90.9402 60.8071 90.9402C51.7691 90.9402 44.4424 83.6135 44.4424 74.5755C44.4424 73.2295 44.6049 71.9214 44.9114 70.6698C45.852 72.9616 48.1058 74.5755 50.7365 74.5755C54.2126 74.5755 57.0306 71.7575 57.0306 68.2814C57.0306 64.8053 54.2126 61.9873 50.7365 61.9873C50.6015 61.9873 50.4676 61.9915 50.3347 61.9999C53.1725 59.6341 56.8236 58.2108 60.8071 58.2108C69.8451 58.2108 77.1718 65.5375 77.1718 74.5755Z" fill="black"/>
</g>
<path d="M154.081 398.195V387.623C154.081 383.803 150.984 380.705 147.163 380.705C143.342 380.705 140.244 383.803 140.244 387.623V398.195C140.244 402.016 143.342 405.113 147.163 405.113C150.984 405.113 154.081 402.016 154.081 398.195Z" fill="#FDE01B"/>
<path d="M141.629 398.195V387.623C141.629 383.803 138.531 380.705 134.71 380.705C130.89 380.705 127.792 383.803 127.792 387.623V398.195C127.792 402.016 130.89 405.113 134.71 405.113C138.531 405.113 141.629 402.016 141.629 398.195Z" fill="#FDE01B"/>
<path d="M129.176 398.693V388.121C129.176 384.3 126.078 381.203 122.257 381.203C118.436 381.203 115.339 384.3 115.339 388.121V398.693C115.339 402.514 118.436 405.611 122.257 405.611C126.078 405.611 129.176 402.514 129.176 398.693Z" fill="#FDE01B"/>
<path d="M87.8164 397.101V386.53C87.8164 382.709 84.7189 379.612 80.898 379.612C77.077 379.612 73.9795 382.709 73.9795 386.53V397.101C73.9795 400.922 77.077 404.02 80.898 404.02C84.7189 404.02 87.8164 400.922 87.8164 397.101Z" fill="#FDE01B"/>
<path d="M75.3643 397.101V386.53C75.3643 382.709 72.2668 379.612 68.4458 379.612C64.6248 379.612 61.5273 382.709 61.5273 386.53V397.101C61.5273 400.922 64.6248 404.02 68.4458 404.02C72.2668 404.02 75.3643 400.922 75.3643 397.101Z" fill="#FDE01B"/>
<path d="M62.9238 397.599V387.028C62.9238 383.207 59.8263 380.109 56.0054 380.109C52.1844 380.109 49.0869 383.207 49.0869 387.028V397.599C49.0869 401.42 52.1844 404.518 56.0054 404.518C59.8263 404.518 62.9238 401.42 62.9238 397.599Z" fill="#FDE01B"/>
<path d="M143.522 362.837C143.522 360.26 139.442 358.171 134.41 358.171C129.377 358.171 125.298 360.26 125.298 362.837V385.811C125.298 388.388 129.377 390.477 134.41 390.477C139.442 390.477 143.522 388.388 143.522 385.811V362.837Z" fill="#FDE01B"/>
<path d="M76.424 362.837C76.424 360.26 72.5298 358.171 67.7262 358.171C62.9225 358.171 59.0283 360.26 59.0283 362.837V385.811C59.0283 388.388 62.9225 390.477 67.7262 390.477C72.5298 390.477 76.424 388.388 76.424 385.811V362.837Z" fill="#FDE01B"/>
<path d="M164.286 74.0053C164.286 93.6455 155.886 109.141 135.787 109.141C115.687 109.141 101.041 94.4393 101.041 74.7991C101.041 55.1589 111.783 46.2869 131.883 46.2869C151.982 46.2869 164.286 54.3651 164.286 74.0053Z" fill="black"/>
<path d="M194.17 111.709C120.576 103.603 96.5383 63.0038 73.209 6.67107L87.2039 2.90173C154.567 96.2401 195.043 95.5567 195.043 95.5567C196.548 98.4758 195.686 105.138 194.17 111.709Z" fill="black"/>
<defs>
<filter id="filter0_i" x="0.383789" y="-14.6951" width="210.118" height="443" filterUnits="userSpaceOnUse" color-interpolation-filters="sRGB">
<feFlood flood-opacity="0" result="BackgroundImageFix"/>
<feBlend mode="normal" in="SourceGraphic" in2="BackgroundImageFix" result="shape"/>
<feColorMatrix in="SourceAlpha" type="matrix" values="0 0 0 0 0 0 0 0 0 0 0 0 0 0 0 0 0 0 127 0" result="hardAlpha"/>
<feOffset dx="21" dy="-21"/>
<feGaussianBlur stdDeviation="7.5"/>
<feComposite in2="hardAlpha" operator="arithmetic" k2="-1" k3="1"/>
<feColorMatrix type="matrix" values="0 0 0 0 0 0 0 0 0 0 0 0 0 0 0 0 0 0 0.12 0"/>
<feBlend mode="normal" in2="shape" result="effect1_innerShadow"/>
</filter>
<filter id="filter1_d" x="134.514" y="165.78" width="64.671" height="193.916" filterUnits="userSpaceOnUse" color-interpolation-filters="sRGB">
<feFlood flood-opacity="0" result="BackgroundImageFix"/>
<feColorMatrix in="SourceAlpha" type="matrix" values="0 0 0 0 0 0 0 0 0 0 0 0 0 0 0 0 0 0 127 0"/>
<feOffset dy="4"/>
<feGaussianBlur stdDeviation="2"/>
<feColorMatrix type="matrix" values="0 0 0 0 0 0 0 0 0 0 0 0 0 0 0 0 0 0 0.25 0"/>
<feBlend mode="normal" in2="BackgroundImageFix" result="effect1_dropShadow"/>
<feBlend mode="normal" in="SourceGraphic" in2="effect1_dropShadow" result="shape"/>
</filter>
<filter id="filter2_d" x="-4.31641" y="163.23" width="64.6554" height="193.944" filterUnits="userSpaceOnUse" color-interpolation-filters="sRGB">
<feFlood flood-opacity="0" result="BackgroundImageFix"/>
<feColorMatrix in="SourceAlpha" type="matrix" values="0 0 0 0 0 0 0 0 0 0 0 0 0 0 0 0 0 0 127 0"/>
<feOffset dy="4"/>
<feGaussianBlur stdDeviation="2"/>
<feColorMatrix type="matrix" values="0 0 0 0 0 0 0 0 0 0 0 0 0 0 0 0 0 0 0.25 0"/>
<feBlend mode="normal" in2="BackgroundImageFix" result="effect1_dropShadow"/>
<feBlend mode="normal" in="SourceGraphic" in2="effect1_dropShadow" result="shape"/>
</filter>
<filter id="filter3_i" x="108.643" y="50.6579" width="55.3882" height="59.3882" filterUnits="userSpaceOnUse" color-interpolation-filters="sRGB">
<feFlood flood-opacity="0" result="BackgroundImageFix"/>
<feBlend mode="normal" in="SourceGraphic" in2="BackgroundImageFix" result="shape"/>
<feColorMatrix in="SourceAlpha" type="matrix" values="0 0 0 0 0 0 0 0 0 0 0 0 0 0 0 0 0 0 127 0" result="hardAlpha"/>
<feOffset dy="4"/>
<feGaussianBlur stdDeviation="2"/>
<feComposite in2="hardAlpha" operator="arithmetic" k2="-1" k3="1"/>
<feColorMatrix type="matrix" values="0 0 0 0 0 0 0 0 0 0 0 0 0 0 0 0 0 0 0.25 0"/>
<feBlend mode="normal" in2="shape" result="effect1_innerShadow"/>
</filter>
<filter id="filter4_i" x="38.1484" y="50.6579" width="55.3882" height="59.3882" filterUnits="userSpaceOnUse" color-interpolation-filters="sRGB">
<feFlood flood-opacity="0" result="BackgroundImageFix"/>
<feBlend mode="normal" in="SourceGraphic" in2="BackgroundImageFix" result="shape"/>
<feColorMatrix in="SourceAlpha" type="matrix" values="0 0 0 0 0 0 0 0 0 0 0 0 0 0 0 0 0 0 127 0" result="hardAlpha"/>
<feOffset dy="4"/>
<feGaussianBlur stdDeviation="2"/>
<feComposite in2="hardAlpha" operator="arithmetic" k2="-1" k3="1"/>
<feColorMatrix type="matrix" values="0 0 0 0 0 0 0 0 0 0 0 0 0 0 0 0 0 0 0.25 0"/>
<feBlend mode="normal" in2="shape" result="effect1_innerShadow"/>
</filter>
<clipPath id="clip0">
<rect width="195.118" height="428" fill="white" transform="translate(0.383789 0.304932)"/>
</clipPath>
</defs>
</svg>
