<svg width="196" height="429" viewBox="0 0 196 429" fill="none" xmlns="http://www.w3.org/2000/svg">
<g clip-path="url(#clip0)" filter="url(#filter0_i)">
<path d="M47.048 369.816C19.4772 346.528 1.11523 305.052 1.11523 257.757C1.11523 184.922 44.6698 125.88 98.3871 125.88C152.104 125.88 195.659 184.922 195.659 257.757C195.659 304.278 177.891 345.159 151.067 368.641" fill="#F27500"/>
<path d="M100.323 192.897C152.823 192.897 195.382 150.356 195.382 97.8792C195.382 45.4025 152.823 2.86169 100.323 2.86169C47.8228 2.86169 5.26318 45.4025 5.26318 97.8792C5.26318 150.356 47.8228 192.897 100.323 192.897Z" fill="#F27500"/>
<path d="M139.275 247.529C133.453 252.981 119.48 259.628 110.165 242.6C111.061 243.272 96.5059 266.798 82.8465 242.6C81.9508 242.6 68.5153 266.798 56.1995 242.6" stroke="#F69131" stroke-width="2" stroke-linecap="round" stroke-linejoin="round"/>
<path d="M123.824 228.26C113.972 228.26 109.717 221.09 108.821 217.505C109.717 218.177 95.1619 241.704 81.5025 217.505C80.6068 221.09 76.3522 228.26 66.4995 228.26" stroke="#F69131" stroke-width="2" stroke-linecap="round" stroke-linejoin="round"/>
<g filter="url(#filter1_d)">
<path d="M195.244 262.539C194.18 297.312 183.298 328.644 166.346 351.697C148.302 327.096 137.628 292.682 138.775 254.952C139.84 220.165 150.722 188.847 167.674 165.78C185.704 190.354 196.392 224.767 195.244 262.539Z" fill="#F69131"/>
</g>
<g filter="url(#filter2_d)">
<path d="M56.5595 252.996C56.2553 218.209 46.0511 186.656 29.611 163.23C11.0415 187.444 -0.379492 221.623 -0.0476472 259.409C0.256543 294.195 10.4607 325.748 26.9009 349.174C45.4703 324.974 56.8913 290.795 56.5595 252.996Z" fill="#F69131"/>
</g>
<path d="M167.259 165.228L181.196 153.107C181.347 152.981 181.452 152.808 181.495 152.617C181.539 152.425 181.518 152.224 181.437 152.046C181.355 151.867 181.217 151.72 181.044 151.627C180.87 151.534 180.671 151.5 180.477 151.531L178.486 151.821L188.165 142.921C188.311 142.786 188.408 142.607 188.441 142.412C188.474 142.216 188.442 142.015 188.348 141.84C188.255 141.665 188.107 141.525 187.926 141.443C187.745 141.361 187.542 141.341 187.349 141.387L184.363 142.105" fill="#F27500"/>
<path d="M30.9813 163.072L17.4172 150.467C17.2781 150.334 17.1856 150.16 17.153 149.97C17.1205 149.781 17.1497 149.585 17.2364 149.414C17.3231 149.242 17.4627 149.102 17.6347 149.016C17.8066 148.929 18.0018 148.9 18.1915 148.933L20.1687 149.292L10.7942 140.06C10.6519 139.921 10.56 139.738 10.5331 139.54C10.5062 139.343 10.5458 139.142 10.6455 138.969C10.7453 138.797 10.8996 138.662 11.0842 138.587C11.2688 138.512 11.4732 138.5 11.6652 138.554L14.6241 139.355" fill="#F27500"/>
<path d="M102.687 100.16L111.716 112.598C111.904 112.791 112.052 113.019 112.151 113.27C112.25 113.52 112.297 113.788 112.291 114.057C112.284 114.326 112.224 114.592 112.113 114.837C112.003 115.083 111.844 115.304 111.647 115.487L102.093 131.574C101.698 131.948 101.17 132.151 100.626 132.138C100.082 132.125 99.5657 131.898 99.1889 131.505L90.1599 114.92C89.7766 114.534 89.5615 114.013 89.5615 113.469C89.5615 112.925 89.7766 112.404 90.1599 112.018L99.7282 100.174C99.9162 99.9693 100.144 99.8059 100.398 99.6937C100.652 99.5815 100.927 99.523 101.205 99.5217C101.482 99.5204 101.757 99.5764 102.012 99.6862C102.268 99.796 102.497 99.9572 102.687 100.16Z" fill="#FDE01B"/>
<path d="M101.761 100.699C104.665 104.679 107.568 108.687 110.486 112.667C110.582 112.806 110.693 112.93 110.776 113.068C111.315 113.939 111.122 114.243 110.665 115.017L109.393 117.145L104.595 125.217L102.355 128.976C102.065 129.46 101.664 130.593 101.194 130.925C99.8114 131.933 98.3042 127.746 97.8756 126.958L93.1883 118.306L91.4876 115.183C91.0451 114.381 90.3676 113.538 90.9207 112.667C92.4993 110.487 94.1932 108.393 95.9952 106.393L99.1753 102.468C99.7699 101.708 100.724 99.8832 101.941 100.906C103.157 101.929 104.43 100.298 103.406 99.441C100.42 96.8841 98.401 100.173 96.7141 102.205L90.174 110.304C89.7182 110.623 89.3382 111.038 89.0609 111.52C88.7836 112.002 88.6159 112.539 88.5697 113.093C88.5235 113.647 88.5999 114.204 88.7935 114.726C88.9872 115.247 89.2933 115.719 89.6901 116.109L94.3636 124.719C95.5198 127.162 96.8123 129.538 98.2351 131.837C98.4825 132.172 98.7964 132.452 99.1572 132.66C99.518 132.869 99.9179 133 100.332 133.047C100.746 133.094 101.165 133.055 101.563 132.932C101.961 132.809 102.33 132.606 102.646 132.334C103.137 131.783 103.547 131.164 103.863 130.496L109.241 121.444C110.458 119.412 112.007 117.366 113.002 115.252C113.763 113.704 113.002 112.488 112.062 111.23L108.992 107.084L103.572 99.6483C102.812 98.5841 101.014 99.6068 101.761 100.699Z" fill="black"/>
<path d="M93.2986 115.529C92.9613 115.147 92.7751 114.656 92.7751 114.146C92.7751 113.637 92.9613 113.146 93.2986 112.764L101.29 101.957V101.003C100.599 100.215 99.5345 99.8559 98.8155 100.616L90.3812 112.018C90.041 112.398 89.853 112.89 89.853 113.4C89.853 113.91 90.041 114.402 90.3812 114.782L98.3316 130.773C99.0229 131.561 101.567 131.851 102.286 131.091L100.779 130.331C100.561 130.06 100.372 129.768 100.212 129.46L93.2986 115.529Z" fill="#F2D405"/>
<path d="M101.622 100.616C104.526 104.61 107.43 108.618 110.347 112.598L110.651 112.999C111.177 113.87 110.983 114.174 110.527 114.948L109.269 117.076L104.526 125.147L102.3 128.907C102.009 129.39 101.608 130.524 101.125 130.855C99.7418 131.864 98.2347 127.677 97.8061 126.875L93.1188 118.237L91.4181 115.114C90.9756 114.298 90.2981 113.469 90.865 112.598C92.4432 110.421 94.1323 108.327 95.9257 106.324L99.1058 102.398C99.7142 101.638 100.668 99.814 101.871 100.837C103.074 101.859 104.346 100.229 103.337 99.3717C100.336 96.8149 98.3177 100.104 96.6308 102.136L90.0907 110.235C89.2753 110.99 88.7148 111.98 88.4868 113.068C88.5471 114.15 88.938 115.187 89.6068 116.039L94.2803 124.65C95.4365 127.093 96.729 129.469 98.1518 131.767C98.3992 132.103 98.7131 132.383 99.0739 132.591C99.4346 132.799 99.8346 132.931 100.249 132.978C100.663 133.024 101.082 132.985 101.48 132.863C101.878 132.74 102.247 132.537 102.563 132.265C103.057 131.708 103.471 131.085 103.793 130.413L109.172 121.374C110.375 119.343 111.937 117.297 112.919 115.183C113.679 113.635 112.919 112.418 111.979 111.161L108.923 107.015L103.489 99.579C102.632 98.501 100.834 99.5375 101.622 100.616Z" fill="black"/>
<g filter="url(#filter3_i)">
<path d="M136.516 106.046C151.802 106.046 164.194 93.6471 164.194 78.352C164.194 63.057 151.802 50.6579 136.516 50.6579C121.23 50.6579 108.839 63.057 108.839 78.352C108.839 93.6471 121.23 106.046 136.516 106.046Z" fill="white"/>
</g>
<path d="M130.226 90.9402C139.258 90.9402 146.581 83.6135 146.581 74.5755C146.581 65.5375 139.258 58.2108 130.226 58.2108C121.193 58.2108 113.871 65.5375 113.871 74.5755C113.871 83.6135 121.193 90.9402 130.226 90.9402Z" fill="black"/>
<path d="M126.452 69.5402C126.452 73.0164 123.635 75.8343 120.161 75.8343C116.687 75.8343 113.871 73.0164 113.871 69.5402C113.871 66.0641 116.687 63.2461 120.161 63.2461C123.635 63.2461 126.452 66.0641 126.452 69.5402Z" fill="white"/>
<g filter="url(#filter4_i)">
<path d="M66.0641 106.046C81.35 106.046 93.7416 93.6471 93.7416 78.352C93.7416 63.057 81.35 50.6579 66.0641 50.6579C50.7783 50.6579 38.3867 63.057 38.3867 78.352C38.3867 93.6471 50.7783 106.046 66.0641 106.046Z" fill="white"/>
</g>
<path d="M143.808 17.5799L181.707 56.0153C182.006 56.3154 182.384 56.5237 182.797 56.6155C183.21 56.7073 183.64 56.6787 184.038 56.5333C184.435 56.3878 184.782 56.1315 185.038 55.7947C185.294 55.4579 185.448 55.0549 185.482 54.6333V4.14616C185.514 3.80381 185.466 3.45866 185.342 3.13816C185.217 2.81765 185.019 2.53061 184.764 2.29984C184.509 2.06907 184.204 1.90096 183.872 1.80881C183.541 1.71665 183.193 1.70301 182.855 1.76899L144.983 13.8345C144.581 13.9004 144.206 14.0765 143.898 14.3433C143.591 14.6101 143.363 14.957 143.241 15.3453C143.12 15.7337 143.108 16.1483 143.208 16.5428C143.308 16.9374 143.516 17.2964 143.808 17.5799V17.5799Z" fill="#F27500"/>
<path d="M155.353 19.8889L176.674 41.4907C176.838 41.6618 177.048 41.782 177.278 41.8369C177.509 41.8919 177.75 41.8792 177.973 41.8004C178.197 41.7216 178.393 41.58 178.537 41.3927C178.682 41.2054 178.77 40.9803 178.79 40.7444L178.334 10.1038C178.36 9.90757 178.338 9.70797 178.271 9.52161C178.205 9.33525 178.094 9.16752 177.95 9.03235C177.805 8.89718 177.63 8.79851 177.44 8.74449C177.249 8.69047 177.048 8.68266 176.854 8.72176L155.989 17.7605C155.763 17.801 155.552 17.9036 155.38 18.057C155.208 18.2103 155.082 18.4083 155.016 18.629C154.95 18.8496 154.947 19.0843 155.006 19.3067C155.066 19.5291 155.186 19.7307 155.353 19.8889Z" fill="black"/>
<path d="M55.3716 17.6491L17.4169 56.0707C17.1204 56.3723 16.7432 56.582 16.3305 56.6746C15.9178 56.7673 15.4871 56.7389 15.0901 56.593C14.6931 56.4472 14.3466 56.1899 14.0922 55.8521C13.8379 55.5143 13.6864 55.1103 13.656 54.6886V4.20156C13.6208 3.85851 13.6668 3.51198 13.7904 3.19002C13.9141 2.86807 14.1117 2.57972 14.3675 2.34829C14.6233 2.11685 14.93 1.94882 15.2628 1.8578C15.5955 1.76679 15.945 1.75537 16.2831 1.8244L54.1548 13.8899C54.5629 13.9475 54.9465 14.1187 55.262 14.3838C55.5774 14.6489 55.812 14.9974 55.9389 15.3893C56.0657 15.7813 56.0798 16.201 55.9795 16.6005C55.8792 17.0001 55.6685 17.3634 55.3716 17.6491V17.6491Z" fill="#F27500"/>
<path d="M43.8261 19.9994L22.5051 41.5598C22.3414 41.7309 22.1318 41.8511 21.9014 41.906C21.671 41.961 21.4296 41.9483 21.2062 41.8695C20.9829 41.7907 20.787 41.6491 20.6422 41.4618C20.4973 41.2745 20.4097 41.0494 20.3896 40.8134L20.832 10.1729C20.8061 9.97668 20.8275 9.77707 20.8943 9.59072C20.9611 9.40436 21.0714 9.23662 21.2161 9.10146C21.3608 8.96629 21.5356 8.86758 21.7262 8.81355C21.9167 8.75953 22.1174 8.75177 22.3115 8.79086L43.1901 17.8296C43.4292 17.8584 43.6545 17.9567 43.8382 18.1123C44.022 18.2679 44.156 18.4739 44.2237 18.7049C44.2915 18.9359 44.2899 19.1817 44.2192 19.4118C44.1485 19.6419 44.0118 19.8462 43.8261 19.9994V19.9994Z" fill="black"/>
<path d="M103.364 2.917L121.823 2.28121C122.015 2.2771 122.204 2.33474 122.361 2.44566C122.518 2.55658 122.635 2.71495 122.696 2.89747C122.756 3.07998 122.756 3.27702 122.696 3.45965C122.636 3.64228 122.519 3.80083 122.362 3.91205L120.717 5.05919L133.866 4.96243C134.068 4.95683 134.266 5.01924 134.428 5.13958C134.589 5.25992 134.706 5.43122 134.759 5.62589C134.811 5.82056 134.797 6.02728 134.718 6.21279C134.639 6.39829 134.5 6.55178 134.323 6.64856L131.654 8.15502" fill="#F27500"/>
<path d="M67.3457 8.74934L86.7684 3.16885C86.9515 3.09378 87.1544 3.08128 87.3454 3.13329C87.5365 3.1853 87.705 3.29893 87.8248 3.4565C87.9446 3.61406 88.0089 3.80673 88.0079 4.00463C88.0069 4.20254 87.9405 4.39458 87.8191 4.55092L85.1685 4.07798" fill="#F27500"/>
<path d="M67.3457 8.74898L86.8839 3.04821C87.0671 2.97315 87.2699 2.96064 87.4609 3.01265C87.652 3.06467 87.6933 3.03376 87.8131 3.19133C87.9329 3.34889 87.9973 3.54157 87.9963 3.73947C87.9952 3.93737 87.9289 4.12942 87.8075 4.28575L85.1685 4.07762" fill="#F27500"/>
<path d="M86.98 3.81542L105.121 0.332572C105.309 0.300253 105.502 0.328606 105.673 0.413468C105.844 0.49833 105.983 0.635312 106.071 0.804622C106.159 0.973932 106.191 1.16676 106.161 1.35521C106.132 1.54366 106.044 1.71796 105.909 1.85286L104.526 3.23493" fill="#F27500"/>
<path fill-rule="evenodd" clip-rule="evenodd" d="M77.3869 74.5755C77.3869 83.6135 70.0646 90.9402 61.0321 90.9402C51.9996 90.9402 44.6772 83.6135 44.6772 74.5755C44.6772 73.2295 44.8397 71.9214 45.1459 70.6698C46.086 72.9616 48.3384 74.5755 50.9676 74.5755C54.4416 74.5755 57.2579 71.7575 57.2579 68.2814C57.2579 64.8053 54.4416 61.9873 50.9676 61.9873C50.8327 61.9873 50.6988 61.9915 50.566 61.9999C53.4021 59.6341 57.051 58.2108 61.0321 58.2108C70.0646 58.2108 77.3869 65.5375 77.3869 74.5755Z" fill="black"/>
</g>
<path d="M154.25 398.195V387.623C154.25 383.803 151.154 380.705 147.336 380.705C143.517 380.705 140.421 383.803 140.421 387.623V398.195C140.421 402.016 143.517 405.113 147.336 405.113C151.154 405.113 154.25 402.016 154.25 398.195Z" fill="#FDE01B"/>
<path d="M141.804 398.195V387.623C141.804 383.803 138.708 380.705 134.889 380.705C131.071 380.705 127.975 383.803 127.975 387.623V398.195C127.975 402.016 131.071 405.113 134.889 405.113C138.708 405.113 141.804 402.016 141.804 398.195Z" fill="#FDE01B"/>
<path d="M129.358 398.693V388.121C129.358 384.3 126.263 381.203 122.444 381.203C118.625 381.203 115.53 384.3 115.53 388.121V398.693C115.53 402.514 118.625 405.611 122.444 405.611C126.263 405.611 129.358 402.514 129.358 398.693Z" fill="#FDE01B"/>
<path d="M88.0249 397.101V386.53C88.0249 382.709 84.9293 379.612 81.1106 379.612C77.292 379.612 74.1963 382.709 74.1963 386.53V397.101C74.1963 400.922 77.292 404.02 81.1106 404.02C84.9293 404.02 88.0249 400.922 88.0249 397.101Z" fill="#FDE01B"/>
<path d="M75.5791 397.101V386.53C75.5791 382.709 72.4835 379.612 68.6648 379.612C64.8462 379.612 61.7505 382.709 61.7505 386.53V397.101C61.7505 400.922 64.8462 404.02 68.6648 404.02C72.4835 404.02 75.5791 400.922 75.5791 397.101Z" fill="#FDE01B"/>
<path d="M63.1475 397.599V387.028C63.1475 383.207 60.0518 380.109 56.2332 380.109C52.4145 380.109 49.3189 383.207 49.3189 387.028V397.599C49.3189 401.42 52.4145 404.518 56.2332 404.518C60.0518 404.518 63.1475 401.42 63.1475 397.599Z" fill="#FDE01B"/>
<path d="M143.695 362.837C143.695 360.26 139.618 358.171 134.589 358.171C129.56 358.171 125.482 360.26 125.482 362.837V385.811C125.482 388.388 129.56 390.477 134.589 390.477C139.618 390.477 143.695 388.388 143.695 385.811V362.837Z" fill="#FDE01B"/>
<path d="M76.6386 362.837C76.6386 360.26 72.7468 358.171 67.946 358.171C63.1452 358.171 59.2534 360.26 59.2534 362.837V385.811C59.2534 388.388 63.1452 390.477 67.946 390.477C72.7468 390.477 76.6386 388.388 76.6386 385.811V362.837Z" fill="#FDE01B"/>
<defs>
<filter id="filter0_i" x="0.64502" y="-14.6951" width="210" height="443" filterUnits="userSpaceOnUse" color-interpolation-filters="sRGB">
<feFlood flood-opacity="0" result="BackgroundImageFix"/>
<feBlend mode="normal" in="SourceGraphic" in2="BackgroundImageFix" result="shape"/>
<feColorMatrix in="SourceAlpha" type="matrix" values="0 0 0 0 0 0 0 0 0 0 0 0 0 0 0 0 0 0 127 0" result="hardAlpha"/>
<feOffset dx="21" dy="-21"/>
<feGaussianBlur stdDeviation="7.5"/>
<feComposite in2="hardAlpha" operator="arithmetic" k2="-1" k3="1"/>
<feColorMatrix type="matrix" values="0 0 0 0 0 0 0 0 0 0 0 0 0 0 0 0 0 0 0.12 0"/>
<feBlend mode="normal" in2="shape" result="effect1_innerShadow"/>
</filter>
<filter id="filter1_d" x="134.691" y="165.78" width="64.6368" height="193.916" filterUnits="userSpaceOnUse" color-interpolation-filters="sRGB">
<feFlood flood-opacity="0" result="BackgroundImageFix"/>
<feColorMatrix in="SourceAlpha" type="matrix" values="0 0 0 0 0 0 0 0 0 0 0 0 0 0 0 0 0 0 127 0"/>
<feOffset dy="4"/>
<feGaussianBlur stdDeviation="2"/>
<feColorMatrix type="matrix" values="0 0 0 0 0 0 0 0 0 0 0 0 0 0 0 0 0 0 0.25 0"/>
<feBlend mode="normal" in2="BackgroundImageFix" result="effect1_dropShadow"/>
<feBlend mode="normal" in="SourceGraphic" in2="effect1_dropShadow" result="shape"/>
</filter>
<filter id="filter2_d" x="-4.05469" y="163.23" width="64.6212" height="193.944" filterUnits="userSpaceOnUse" color-interpolation-filters="sRGB">
<feFlood flood-opacity="0" result="BackgroundImageFix"/>
<feColorMatrix in="SourceAlpha" type="matrix" values="0 0 0 0 0 0 0 0 0 0 0 0 0 0 0 0 0 0 127 0"/>
<feOffset dy="4"/>
<feGaussianBlur stdDeviation="2"/>
<feColorMatrix type="matrix" values="0 0 0 0 0 0 0 0 0 0 0 0 0 0 0 0 0 0 0.25 0"/>
<feBlend mode="normal" in2="BackgroundImageFix" result="effect1_dropShadow"/>
<feBlend mode="normal" in="SourceGraphic" in2="effect1_dropShadow" result="shape"/>
</filter>
<filter id="filter3_i" x="108.839" y="50.6579" width="55.3548" height="59.3882" filterUnits="userSpaceOnUse" color-interpolation-filters="sRGB">
<feFlood flood-opacity="0" result="BackgroundImageFix"/>
<feBlend mode="normal" in="SourceGraphic" in2="BackgroundImageFix" result="shape"/>
<feColorMatrix in="SourceAlpha" type="matrix" values="0 0 0 0 0 0 0 0 0 0 0 0 0 0 0 0 0 0 127 0" result="hardAlpha"/>
<feOffset dy="4"/>
<feGaussianBlur stdDeviation="2"/>
<feComposite in2="hardAlpha" operator="arithmetic" k2="-1" k3="1"/>
<feColorMatrix type="matrix" values="0 0 0 0 0 0 0 0 0 0 0 0 0 0 0 0 0 0 0.25 0"/>
<feBlend mode="normal" in2="shape" result="effect1_innerShadow"/>
</filter>
<filter id="filter4_i" x="38.3867" y="50.6579" width="55.3548" height="59.3882" filterUnits="userSpaceOnUse" color-interpolation-filters="sRGB">
<feFlood flood-opacity="0" result="BackgroundImageFix"/>
<feBlend mode="normal" in="SourceGraphic" in2="BackgroundImageFix" result="shape"/>
<feColorMatrix in="SourceAlpha" type="matrix" values="0 0 0 0 0 0 0 0 0 0 0 0 0 0 0 0 0 0 127 0" result="hardAlpha"/>
<feOffset dy="4"/>
<feGaussianBlur stdDeviation="2"/>
<feComposite in2="hardAlpha" operator="arithmetic" k2="-1" k3="1"/>
<feColorMatrix type="matrix" values="0 0 0 0 0 0 0 0 0 0 0 0 0 0 0 0 0 0 0.25 0"/>
<feBlend mode="normal" in2="shape" result="effect1_innerShadow"/>
</filter>
<clipPath id="clip0">
<rect width="195" height="428" fill="white" transform="translate(0.64502 0.304932)"/>
</clipPath>
</defs>
</svg>
