<svg width="237" height="199" viewBox="0 0 237 199" fill="none" xmlns="http://www.w3.org/2000/svg">
<path d="M26.2969 56.1688C26.2969 56.1688 27.2303 34.4675 59.4322 34.0008C91.6341 33.5341 123.603 37.9677 119.636 9.49934C118.889 4.15569 117.536 1.86888 116.089 1.65887L115.576 1.58887C114.129 1.79888 112.775 4.08568 112.029 9.42934C108.062 37.8977 140.03 33.4641 172.232 33.9308C204.434 34.3975 205.368 56.0988 205.368 56.0988" stroke="#1037D0" stroke-width="2" stroke-miterlimit="10" stroke-linecap="round"/>
<path d="M89.6371 81.5241V75.652H99.4366V70.8858H89.6371V64.6324H100.809V59.9424H84.337V86.2141H101.152V81.5241H89.6371Z" fill="#1037D0"/>
<path d="M122.715 77.0247C122.715 71.5721 118.559 67.9879 113.488 67.9879C108.378 67.9879 104.031 71.5721 104.031 77.3298C104.031 82.8205 108.035 86.5573 113.488 86.5573C116.614 86.5573 119.741 85.3371 121.419 83.0874L118.483 80.1514C117.415 81.4097 115.623 82.1342 113.831 82.1342C111.429 82.1342 109.751 80.9903 109.217 78.9312H122.639C122.677 78.1305 122.715 77.5204 122.715 77.0247ZM109.217 75.6902C109.751 73.288 111.543 72.3347 113.564 72.3347C115.813 72.3347 117.567 73.593 117.72 75.6902H109.217Z" fill="#1037D0"/>
<path d="M136.918 67.9879C135.164 67.9879 132.342 69.0174 131.579 71.4196V68.4454H126.584V86.2141H131.579V77.101C131.579 73.8599 133.791 72.9067 135.583 72.9067C137.299 72.9067 138.977 74.165 138.977 76.9866V86.2141H143.972V76.4528C144.01 71.1145 141.57 67.9879 136.918 67.9879Z" fill="#1037D0"/>
<path d="M22.0672 106.118C20.2369 106.118 17.4916 106.957 16.1189 109.55C15.0894 107.376 13.0303 106.118 10.3993 106.118C8.41657 106.118 5.89998 107.3 5.36615 109.74V106.576H0.371094V124.344H5.36615V115.079C5.36615 111.876 7.19641 111.037 8.98853 111.037C10.6663 111.037 12.1152 112.143 12.1152 114.926V124.344H17.1103V114.926C17.2247 112.257 18.6355 110.999 20.6182 111.037C22.3722 111.037 23.8212 112.181 23.8212 114.964V124.344H28.8544V114.583C28.8544 109.245 26.5284 106.118 22.0672 106.118Z" fill="#1037D0"/>
<path d="M51.2395 115.155C51.2395 109.702 47.0833 106.118 42.012 106.118C36.9025 106.118 32.5557 109.702 32.5557 115.46C32.5557 120.951 36.5594 124.688 42.012 124.688C45.1387 124.688 48.2654 123.467 49.9431 121.218L47.0071 118.282C45.9394 119.54 44.1473 120.264 42.3552 120.264C39.953 120.264 38.2752 119.121 37.7414 117.061H51.1632C51.2014 116.261 51.2395 115.651 51.2395 115.155ZM37.7414 113.82C38.2752 111.418 40.0674 110.465 42.0883 110.465C44.3379 110.465 46.0919 111.723 46.2444 113.82H37.7414Z" fill="#1037D0"/>
<path d="M72.725 115.155C72.725 109.702 68.5688 106.118 63.4975 106.118C58.388 106.118 54.0412 109.702 54.0412 115.46C54.0412 120.951 58.0449 124.688 63.4975 124.688C66.6242 124.688 69.7508 123.467 71.4286 121.218L68.4925 118.282C67.4249 119.54 65.6328 120.264 63.8407 120.264C61.4385 120.264 59.7607 119.121 59.2269 117.061H72.6487C72.6869 116.261 72.725 115.651 72.725 115.155ZM59.2269 113.82C59.7607 111.418 61.5528 110.465 63.5737 110.465C65.8234 110.465 67.5774 111.723 67.7299 113.82H59.2269Z" fill="#1037D0"/>
<path d="M82.8858 124.688C86.5463 124.688 90.3593 122.857 90.3593 119.121C90.3593 117.672 89.8255 115.002 85.5549 113.859L82.6189 113.096C81.6275 112.829 80.8649 112.41 80.8649 111.571C80.8649 110.656 81.78 110.084 82.9239 110.084C84.106 110.084 85.0974 110.732 85.0974 111.914H89.8636C89.9018 107.72 86.0887 106.118 82.8477 106.118C78.7296 106.118 75.8698 108.673 75.8698 111.418C75.8698 113.287 76.4799 115.841 81.0556 117.061L83.4196 117.633C84.7542 117.977 85.3643 118.358 85.3643 119.121C85.3643 120.15 84.2585 120.76 82.8096 120.76C81.0556 120.76 80.1786 119.654 80.1786 118.625H75.4885C75.5267 122.552 79.149 124.688 82.8858 124.688Z" fill="#1037D0"/>
<path d="M104.693 106.576H100.918V100.055H95.9231V106.576H92.682V110.427H95.9231V124.344H100.918V110.427H104.693V106.576Z" fill="#1037D0"/>
<path d="M125.229 115.155C125.229 109.702 121.072 106.118 116.001 106.118C110.892 106.118 106.545 109.702 106.545 115.46C106.545 120.951 110.548 124.688 116.001 124.688C119.128 124.688 122.254 123.467 123.932 121.218L120.996 118.282C119.928 119.54 118.136 120.264 116.344 120.264C113.942 120.264 112.264 119.121 111.73 117.061H125.152C125.19 116.261 125.229 115.651 125.229 115.155ZM111.73 113.82C112.264 111.418 114.056 110.465 116.077 110.465C118.327 110.465 120.081 111.723 120.233 113.82H111.73Z" fill="#1037D0"/>
<path d="M139.279 106.118C137.067 106.118 135.046 107.376 134.055 110.351V106.576H129.098V124.344H134.093V118.244C134.093 113.172 135.847 110.808 138.402 110.808C139.012 110.808 139.889 110.884 140.956 111.456L142.1 106.69C141.3 106.271 140.232 106.118 139.279 106.118Z" fill="#1037D0"/>
<path d="M165.593 106.576L162.237 117.405L158.844 106.576H154.649L151.256 117.405L147.9 106.576H142.486L148.968 124.344H153.238L156.785 112.791L160.445 124.344H164.716L171.007 106.576H165.593Z" fill="#1037D0"/>
<path d="M191.137 115.155C191.137 109.702 186.981 106.118 181.91 106.118C176.8 106.118 172.453 109.702 172.453 115.46C172.453 120.951 176.457 124.688 181.91 124.688C185.036 124.688 188.163 123.467 189.841 121.218L186.905 118.282C185.837 119.54 184.045 120.264 182.253 120.264C179.851 120.264 178.173 119.121 177.639 117.061H191.061C191.099 116.261 191.137 115.651 191.137 115.155ZM177.639 113.82C178.173 111.418 179.965 110.465 181.986 110.465C184.236 110.465 185.99 111.723 186.142 113.82H177.639Z" fill="#1037D0"/>
<path d="M205.187 106.118C202.976 106.118 200.955 107.376 199.963 110.351V106.576H195.007V124.344H200.002V118.244C200.002 113.172 201.756 110.808 204.31 110.808C204.92 110.808 205.797 110.884 206.865 111.456L208.009 106.69C207.208 106.271 206.141 106.118 205.187 106.118Z" fill="#1037D0"/>
<path d="M228.184 124.344L219.681 114.392L226.621 106.576H220.215L215.715 111.99V97.0812H210.72V124.344H215.715V116.642L221.969 124.344H228.184Z" fill="#1037D0"/>
<path d="M231.26 115.536H235.149L235.836 98.0726H230.574L231.26 115.536ZM233.167 124.688C234.921 124.688 236.37 123.391 236.37 121.599C236.37 119.845 234.921 118.549 233.167 118.549C231.451 118.549 230.002 119.845 230.002 121.599C230.002 123.391 231.451 124.688 233.167 124.688Z" fill="#1037D0"/>
<path d="M26.2793 142.803C26.2793 142.803 27.2127 164.504 59.4146 164.971C91.6165 165.437 123.585 161.004 119.618 189.472C118.871 194.816 117.518 197.103 116.071 197.313L115.558 197.383C114.111 197.173 112.758 194.886 112.011 189.542C108.044 161.074 140.013 165.507 172.215 165.041C204.417 164.574 205.35 142.873 205.35 142.873" stroke="#1037D0" stroke-width="2" stroke-miterlimit="10" stroke-linecap="round"/>
</svg>
