<svg width="246" height="247" viewBox="0 0 246 247" fill="none" xmlns="http://www.w3.org/2000/svg">
<path d="M122.832 245.776C190.391 245.776 245.158 191.055 245.158 123.553C245.158 56.0513 190.391 1.33008 122.832 1.33008C55.2732 1.33008 0.505859 56.0513 0.505859 123.553C0.505859 191.055 55.2732 245.776 122.832 245.776Z" fill="#ED1D54" stroke="white" stroke-miterlimit="10"/>
<path d="M122.832 221.717C175.678 221.717 218.518 178.913 218.518 126.112C218.518 73.3107 175.678 30.5068 122.832 30.5068C69.9864 30.5068 27.1465 73.3107 27.1465 126.112C27.1465 178.913 69.9864 221.717 122.832 221.717Z" stroke="#F2D405" stroke-width="2" stroke-miterlimit="10" stroke-linecap="round" stroke-linejoin="round" stroke-dasharray="10 10"/>
<path d="M80.0525 117.074H94.3855V112.667H85.0332V92.3857H80.0525V117.074Z" fill="white"/>
<path d="M113.703 108.439C113.703 103.315 109.798 99.9464 105.032 99.9464C100.23 99.9464 96.1455 103.315 96.1455 108.725C96.1455 113.885 99.9079 117.397 105.032 117.397C107.97 117.397 110.909 116.25 112.485 114.136L109.726 111.377C108.723 112.56 107.039 113.24 105.355 113.24C103.097 113.24 101.52 112.165 101.019 110.23H113.632C113.668 109.478 113.703 108.905 113.703 108.439ZM101.019 107.185C101.52 104.927 103.205 104.031 105.104 104.031C107.218 104.031 108.866 105.214 109.009 107.185H101.019Z" fill="white"/>
<path d="M128.77 100.376V108.94C128.77 111.95 126.692 112.846 125.008 112.846C123.395 112.846 121.819 111.664 121.819 109.048V100.376H117.125V109.55C117.089 114.566 119.382 117.469 123.754 117.469C125.402 117.469 128.054 116.537 128.77 114.351V117.074H133.464V100.376H128.77Z" fill="white"/>
<path d="M154.607 117.074L146.616 107.722L153.138 100.376H147.118L142.889 105.465V91.4541H138.195V117.074H142.889V109.836L148.766 117.074H154.607Z" fill="white"/>
<path d="M172.141 108.439C172.141 103.315 168.236 99.9464 163.47 99.9464C158.668 99.9464 154.583 103.315 154.583 108.725C154.583 113.885 158.346 117.397 163.47 117.397C166.408 117.397 169.346 116.25 170.923 114.136L168.164 111.377C167.161 112.56 165.477 113.24 163.792 113.24C161.535 113.24 159.958 112.165 159.457 110.23H172.07C172.106 109.478 172.141 108.905 172.141 108.439ZM159.457 107.185C159.958 104.927 161.642 104.031 163.542 104.031C165.656 104.031 167.304 105.214 167.447 107.185H159.457Z" fill="white"/>
<path d="M81.8742 152.907L73.8836 143.555L80.4051 136.209H74.3852L70.157 141.297V127.287H65.4629V152.907H70.157V145.669L76.0335 152.907H81.8742Z" fill="white"/>
<path d="M83.8691 152.907H88.5632V127.287H83.8691V152.907Z" fill="white"/>
<path d="M109.837 144.271C109.837 139.147 105.931 135.779 101.165 135.779C96.3637 135.779 92.2788 139.147 92.2788 144.558C92.2788 149.718 96.0412 153.229 101.165 153.229C104.104 153.229 107.042 152.083 108.618 149.969L105.859 147.21C104.856 148.392 103.172 149.073 101.488 149.073C99.2304 149.073 97.6537 147.998 97.1521 146.063H109.765C109.801 145.31 109.837 144.737 109.837 144.271ZM97.1521 143.017C97.6537 140.76 99.3378 139.864 101.237 139.864C103.351 139.864 104.999 141.046 105.143 143.017H97.1521Z" fill="white"/>
<path d="M124.904 136.209V144.773C124.904 147.783 122.825 148.679 121.141 148.679C119.529 148.679 117.952 147.496 117.952 144.881V136.209H113.258V145.382C113.222 150.399 115.515 153.301 119.887 153.301C121.535 153.301 124.187 152.37 124.904 150.184V152.907H129.598V136.209H124.904Z" fill="white"/>
<path d="M143.896 135.779C141.818 135.779 139.919 136.961 138.987 139.756V136.209H134.329V152.907H139.023V147.174C139.023 142.408 140.671 140.186 143.072 140.186C143.645 140.186 144.469 140.258 145.473 140.796L146.548 136.317C145.795 135.922 144.792 135.779 143.896 135.779Z" fill="white"/>
<path d="M165.23 144.271C165.23 139.147 161.325 135.779 156.559 135.779C151.757 135.779 147.672 139.147 147.672 144.558C147.672 149.718 151.435 153.229 156.559 153.229C159.497 153.229 162.435 152.083 164.012 149.969L161.253 147.21C160.25 148.392 158.565 149.073 156.881 149.073C154.624 149.073 153.047 147.998 152.546 146.063H165.159C165.195 145.31 165.23 144.737 165.23 144.271ZM152.546 143.017C153.047 140.76 154.731 139.864 156.631 139.864C158.745 139.864 160.393 141.046 160.536 143.017H152.546Z" fill="white"/>
<path d="M178.577 135.779C176.929 135.779 174.277 136.747 173.561 139.004V136.209H168.867V152.907H173.561V144.343C173.561 141.297 175.639 140.401 177.323 140.401C178.935 140.401 180.512 141.584 180.512 144.236V152.907H185.206V143.734C185.242 138.717 182.949 135.779 178.577 135.779Z" fill="white"/>
</svg>
