<svg width="326" height="319" viewBox="0 0 326 319" fill="none" xmlns="http://www.w3.org/2000/svg">
<path d="M51.7129 104.491C51.7129 104.491 72.5869 43.739 123.104 80.5239C173.62 117.309 184.468 113.589 184.468 113.589C184.468 113.589 212.061 105.278 238.085 130.248C264.11 155.219 246.385 159.792 267.109 174.085C287.833 188.377 276.443 233.823 247.499 240.934C218.556 248.045 225.781 216.934 176.737 218.278C103.97 220.273 106.775 190.767 100.901 177.431C100.352 176.18 99.8945 174.898 99.4705 173.599C98.5852 170.893 86.1649 174.611 62.6705 161.124C33.7536 144.526 49.1742 115.025 51.7129 104.491Z" fill="#3BDBA1"/>
<path d="M108.961 106.498L86.1567 94.5775L83.1583 100.314L97.5218 107.822L71.3631 121.402L68.7548 126.392L92.1654 138.629L95.1637 132.893L80.0075 124.97L106.353 111.488L108.961 106.498Z" fill="white"/>
<path d="M106.697 146.759C112.9 150.002 120.743 148.401 124.326 141.546C127.934 134.644 124.771 127.291 118.569 124.048C112.366 120.806 104.523 122.407 100.915 129.309C97.332 136.164 100.495 143.517 106.697 146.759ZM109.671 141.07C106.64 139.486 105.363 135.908 107.118 132.551C108.897 129.146 112.563 128.153 115.595 129.738C118.626 131.322 119.903 134.899 118.124 138.304C116.368 141.661 112.702 142.655 109.671 141.07Z" fill="white"/>
<path d="M172.413 180.576L185.291 146.397L179.695 143.472L158.837 159.407L159.922 133.136L154.419 130.259L133.659 160.319L140.281 163.78L153.022 145.086L152.442 165.506L157.526 168.163L173.868 155.983L165.791 177.114L172.413 180.576Z" fill="white"/>
<path d="M187.579 189.038C193.781 192.28 201.625 190.68 205.208 183.824C208.816 176.923 205.653 169.569 199.451 166.327C193.248 163.085 185.405 164.685 181.797 171.587C178.214 178.443 181.377 185.796 187.579 189.038ZM190.553 183.349C187.522 181.764 186.245 178.187 188 174.829C189.779 171.425 193.445 170.432 196.477 172.016C199.508 173.601 200.785 177.178 199.006 180.582C197.25 183.94 193.584 184.933 190.553 183.349Z" fill="white"/>
<path d="M214.449 203.083C220.651 206.325 228.494 204.725 232.078 197.87C235.685 190.968 232.523 183.614 226.32 180.372C220.118 177.13 212.275 178.731 208.667 185.633C205.084 192.488 208.246 199.841 214.449 203.083ZM217.423 197.394C214.391 195.809 213.114 192.232 214.869 188.875C216.649 185.47 220.315 184.477 223.346 186.062C226.377 187.646 227.655 191.223 225.875 194.628C224.12 197.985 220.454 198.978 217.423 197.394Z" fill="white"/>
<path d="M247.599 187.279C249.744 188.401 252.323 187.67 253.395 185.618C254.468 183.567 253.571 181.079 251.426 179.958C249.328 178.861 246.727 179.52 245.654 181.572C244.581 183.624 245.5 186.182 247.599 187.279ZM231.185 211.297L237.294 214.491L248.654 192.759L242.544 189.566L231.185 211.297Z" fill="white"/>
<path d="M250.232 207.538L254.989 210.024L266.993 189.104L260.558 185.74L250.232 207.538ZM246.714 219.949C248.859 221.07 251.46 220.411 252.606 218.219C253.727 216.074 252.784 213.562 250.638 212.441C248.54 211.344 245.939 212.003 244.818 214.148C243.672 216.34 244.615 218.852 246.714 219.949Z" fill="white"/>
</svg>
