<svg width="271" height="158" viewBox="0 0 271 158" fill="none" xmlns="http://www.w3.org/2000/svg">
<path d="M34.1833 33.5405L34.4943 10.3118L72.3985 37.0696L62.7721 40.8904L44.1036 56.9135L12.1212 31.4703L34.1833 33.5405Z" fill="#3BDBA1"/>
<path d="M217.271 96.3736C217.271 96.3736 135.775 95.9192 66.3547 36.8134L36.5947 59.2352C36.5947 59.2352 112.431 127.018 219.925 126.426C221.158 126.421 217.271 96.3736 217.271 96.3736Z" fill="#43EDB0"/>
<path d="M243.175 110.531L258.812 93.3509L212.85 87.0104L217.272 96.3756L219.968 120.83L260.705 124.086L243.175 110.531Z" fill="#3BDBA1"/>
<path d="M76.9421 61.2648L65.9437 65.8998L71.8065 69.5368L70.4303 71.7529L61.376 66.1355L62.574 64.2067L73.4992 59.5288L67.942 56.0743L69.3181 53.8582L78.1469 59.3331L76.9421 61.2648Z" fill="#1037D0"/>
<path d="M77.4492 64.3838L79.8467 65.7917L74.8329 74.3117L72.4345 72.9063L77.4492 64.3838ZM78.8587 61.2265C79.0219 60.9143 79.2751 60.6582 79.5855 60.4913C79.8959 60.3244 80.2494 60.2543 80.6001 60.2901C80.9509 60.3259 81.2829 60.4659 81.5534 60.6921C81.8239 60.9183 82.0204 61.2203 82.1175 61.559C82.2146 61.8978 82.208 62.2579 82.0984 62.5927C81.9887 62.9275 81.7812 63.2218 81.5025 63.4375C81.2239 63.6532 80.8869 63.7804 80.535 63.8028C80.1832 63.8252 79.8326 63.7417 79.5286 63.563C79.3314 63.4537 79.1578 63.3065 79.0178 63.1298C78.8778 62.9532 78.7741 62.7506 78.7127 62.5338C78.6513 62.3169 78.6335 62.0901 78.6602 61.8664C78.687 61.6427 78.7577 61.4265 78.8684 61.2303L78.8587 61.2265Z" fill="#1037D0"/>
<path d="M87.6906 76.8922L81.1632 73.2687C80.8656 74.4154 81.3747 75.4244 82.5468 76.0672C82.9668 76.3097 83.4331 76.4609 83.9154 76.5111C84.3976 76.5612 84.885 76.5091 85.3457 76.3581L85.9819 78.58C84.5596 79.2209 82.7037 78.9755 81.185 78.1255C78.5298 76.6497 77.5914 73.7511 79.0734 71.0813C80.6296 68.2804 83.7138 67.7126 86.1958 69.106C88.6779 70.4994 89.7196 73.3431 88.2454 75.9934C88.1083 76.2265 87.9243 76.5142 87.6906 76.8922ZM86.1692 73.9859C86.6638 72.9254 86.1479 71.8406 85.0528 71.231C84.0705 70.6857 82.9355 70.677 82.0319 71.6886L86.1692 73.9859Z" fill="#1037D0"/>
<path d="M96.2128 77.1563L94.3431 76.1819L90.7696 83.0518L88.3017 81.7653L91.884 74.9017L90.2831 74.0672L91.2729 72.1661L92.8738 73.0006L94.5512 69.7857L97.0176 71.0688L95.3392 74.2861L97.2089 75.2605L96.2128 77.1563Z" fill="#1037D0"/>
<path d="M109.201 87.5123L102.434 84.3378C102.217 85.5022 102.791 86.4748 104 87.045C104.435 87.2594 104.911 87.3795 105.396 87.3976C105.88 87.4157 106.363 87.3313 106.813 87.15L107.595 89.3251C106.218 90.0572 104.353 89.9291 102.779 89.1898C100.033 87.8948 98.9004 85.0661 100.202 82.3028C101.569 79.4044 104.607 78.6325 107.18 79.8451C109.753 81.0577 110.978 83.8359 109.687 86.5807C109.569 86.8298 109.406 87.1286 109.201 87.5123ZM107.487 84.7133C107.917 83.6244 107.323 82.5735 106.19 82.039C105.173 81.559 104.044 81.6145 103.206 82.6969L107.487 84.7133Z" fill="#1037D0"/>
<path d="M119.994 85.9342L118.355 88.1027C118.052 87.7076 117.652 87.3975 117.194 87.2026C115.891 86.6348 114.469 87.4474 113.341 90.0344L111.984 93.1448L109.436 92.0323L113.402 82.9749L115.93 84.0797L115.093 86.0016C116.261 84.7057 117.571 84.5133 118.701 85.0069C119.197 85.2131 119.64 85.5304 119.994 85.9342V85.9342Z" fill="#1037D0"/>
<path d="M135.088 91.8177L132.033 99.7792C130.484 103.819 127.72 104.918 124.449 103.661C123.504 103.312 122.679 102.698 122.073 101.894C121.466 101.09 121.104 100.128 121.029 99.1244L123.547 99.0201C123.605 99.534 123.802 100.022 124.118 100.432C124.433 100.842 124.855 101.158 125.337 101.346C127.004 101.984 128.402 101.477 129.337 99.0642L129.392 98.9253C128.376 99.5576 126.947 99.4865 125.917 99.0911C123.539 98.1778 122.085 95.5066 123.224 92.5353C124.363 89.564 127.232 88.554 129.612 89.4649C130.658 89.8777 131.75 90.765 132.082 91.9153L132.511 90.8288L135.088 91.8177ZM130.65 95.3874C130.77 95.0735 130.826 94.7392 130.816 94.4035C130.806 94.0678 130.73 93.7374 130.592 93.4311C130.454 93.1248 130.257 92.8487 130.012 92.6185C129.767 92.3884 129.479 92.2087 129.165 92.0899C128.852 91.9641 128.517 91.9022 128.18 91.9075C127.844 91.9129 127.511 91.9855 127.203 92.1211C126.894 92.2567 126.616 92.4525 126.385 92.6971C126.153 92.9417 125.973 93.23 125.854 93.5453C125.61 94.1807 125.629 94.8872 125.906 95.5093C126.043 95.8173 126.24 96.0953 126.484 96.3274C126.729 96.5596 127.017 96.7413 127.332 96.8623C127.647 96.9832 127.983 97.041 128.32 97.0324C128.657 97.0237 128.989 96.9488 129.297 96.8118C129.605 96.6748 129.883 96.4785 130.116 96.2341C130.348 95.9897 130.529 95.702 130.65 95.3874Z" fill="#1037D0"/>
<path d="M135.519 97.2209C136.536 94.2438 139.562 93.132 142.234 94.0431C144.907 94.9542 146.622 97.6919 145.606 100.664C144.591 103.636 141.571 104.734 138.899 103.822C136.227 102.911 134.509 100.173 135.519 97.2209ZM142.935 99.7506C143.434 98.2864 142.707 96.9379 141.403 96.4937C140.922 96.3129 140.398 96.2794 139.898 96.3977C139.399 96.5159 138.946 96.7804 138.597 97.1574C138.249 97.5344 138.021 98.0067 137.943 98.514C137.865 99.0212 137.94 99.5403 138.159 100.005C138.377 100.469 138.729 100.858 139.17 101.122C139.611 101.385 140.121 101.512 140.633 101.484C141.146 101.457 141.639 101.278 142.049 100.969C142.459 100.66 142.768 100.236 142.935 99.7506V99.7506Z" fill="#1037D0"/>
<path d="M156.924 105.047L149.778 102.9C149.734 104.082 150.446 104.962 151.722 105.356C152.183 105.505 152.671 105.554 153.153 105.502C153.635 105.45 154.1 105.296 154.519 105.052L155.612 107.086C154.36 108.016 152.496 108.165 150.828 107.664C147.918 106.797 146.384 104.159 147.262 101.234C148.19 98.1683 151.075 96.9501 153.8 97.7695C156.525 98.5889 158.147 101.157 157.275 104.065C157.191 104.308 157.071 104.624 156.924 105.047ZM154.819 102.527C155.072 101.386 154.338 100.434 153.139 100.073C152.061 99.7493 150.953 99.971 150.282 101.165L154.819 102.527Z" fill="#1037D0"/>
<path d="M171.9 97.4804L168.112 112.169L165.42 111.472L165.727 110.281C164.808 111.045 163.357 111.137 162.288 110.861C159.824 110.224 158.076 107.735 158.868 104.655C159.661 101.575 162.396 100.242 164.867 100.879C165.977 101.165 167.165 101.91 167.594 103.05L169.219 96.7912L171.9 97.4804ZM166.58 106.642C166.706 106.151 166.685 105.633 166.517 105.154C166.349 104.674 166.043 104.256 165.638 103.95C165.232 103.645 164.745 103.466 164.238 103.437C163.73 103.408 163.226 103.53 162.789 103.788C162.351 104.045 162 104.426 161.779 104.883C161.559 105.34 161.479 105.853 161.549 106.355C161.62 106.858 161.838 107.329 162.176 107.708C162.514 108.086 162.957 108.357 163.449 108.484C163.776 108.57 164.116 108.591 164.45 108.545C164.785 108.499 165.107 108.387 165.398 108.216C165.688 108.045 165.943 107.818 166.145 107.548C166.348 107.279 166.495 106.972 166.579 106.645L166.58 106.642Z" fill="#1037D0"/>
<path d="M187.569 106.177L185.652 115.875L182.923 115.335L183.238 113.753C182.57 114.939 180.921 115.176 179.961 114.994C177.42 114.492 176.42 112.543 177.006 109.63L178.058 104.302L180.787 104.841L179.792 109.876C179.493 111.397 180.272 112.265 181.211 112.449C182.188 112.644 183.5 112.362 183.845 110.614L184.824 105.651L187.569 106.177Z" fill="#1037D0"/>
<path d="M190.484 103.172C190.525 102.822 190.669 102.493 190.899 102.226C191.129 101.959 191.434 101.767 191.774 101.675C192.114 101.583 192.474 101.595 192.808 101.71C193.141 101.824 193.433 102.035 193.645 102.317C193.857 102.598 193.98 102.937 193.997 103.289C194.015 103.64 193.927 103.989 193.745 104.291C193.562 104.592 193.294 104.831 192.974 104.978C192.653 105.126 192.296 105.173 191.949 105.116C191.498 105.05 191.091 104.809 190.817 104.445C190.542 104.081 190.423 103.624 190.484 103.172V103.172ZM190.297 106.623L193.04 107.084L191.413 116.833L188.672 116.374L190.297 106.623Z" fill="#1037D0"/>
<path d="M201.263 110.478L199.183 110.178L198.079 117.839L195.32 117.44L196.422 109.778L194.637 109.518L194.947 107.389L196.733 107.648L197.249 104.057L200.003 104.454L199.484 108.044L201.564 108.344L201.263 110.478Z" fill="#1037D0"/>
<path d="M204.05 103.889L206.96 104.24L205.424 113.845L203.272 113.585L204.05 103.889ZM202.169 116.846C202.2 116.494 202.336 116.159 202.56 115.886C202.783 115.612 203.083 115.411 203.421 115.308C203.76 115.206 204.121 115.207 204.459 115.312C204.797 115.416 205.096 115.619 205.318 115.895C205.54 116.17 205.674 116.505 205.704 116.858C205.733 117.21 205.657 117.563 205.485 117.871C205.312 118.18 205.052 118.429 204.736 118.589C204.42 118.748 204.064 118.809 203.713 118.765C203.485 118.742 203.264 118.675 203.063 118.566C202.861 118.457 202.683 118.309 202.54 118.13C202.396 117.951 202.29 117.746 202.227 117.526C202.164 117.306 202.146 117.075 202.173 116.848L202.169 116.846Z" fill="#1037D0"/>
</svg>
