<svg width="42" height="70" viewBox="0 0 42 70" fill="none" xmlns="http://www.w3.org/2000/svg">
<circle cx="20.8956" cy="59.4698" r="10.4474" fill="#555659" fill-opacity="0.34"/>
<path d="M20.8948 0C15.3532 0 10.0385 2.19294 6.11994 6.09641C2.20141 9.99987 0 15.2941 0 20.8144C0 36.4253 20.8948 59.4698 20.8948 59.4698C20.8948 59.4698 41.7896 36.4253 41.7896 20.8144C41.7896 15.2941 39.5882 9.99987 35.6697 6.09641C31.7511 2.19294 26.4364 0 20.8948 0ZM20.8948 28.2482C19.4189 28.2482 17.9761 27.8122 16.7489 26.9954C15.5217 26.1785 14.5652 25.0175 14.0004 23.6592C13.4356 22.3009 13.2878 20.8062 13.5758 19.3642C13.8637 17.9222 14.5744 16.5976 15.6181 15.558C16.6617 14.5184 17.9914 13.8104 19.4389 13.5235C20.8865 13.2367 22.387 13.3839 23.7505 13.9466C25.1141 14.5092 26.2796 15.462 27.0996 16.6845C27.9196 17.9069 28.3572 19.3442 28.3572 20.8144C28.3572 21.7906 28.1642 22.7573 27.7892 23.6592C27.4142 24.5611 26.8645 25.3806 26.1715 26.0709C25.4786 26.7612 24.6559 27.3087 23.7505 27.6823C22.8452 28.0559 21.8748 28.2482 20.8948 28.2482Z" fill="#EB3F6D"/>
<circle cx="21.2188" cy="20.523" r="8.83211" fill="#EB3F6D"/>
<path d="M21.0939 9.11267C21.554 9.11267 21.9952 9.30015 22.3205 9.63386C22.6457 9.96757 22.8285 10.4202 22.8285 10.8921V11.8439H19.3594V10.8921C19.3594 10.4202 19.5421 9.96757 19.8674 9.63386C20.1927 9.30015 20.6339 9.11267 21.0939 9.11267Z" fill="#E6E6E6"/>
<path d="M22.867 12.5131L19.297 12.4998C19.297 12.4998 19.1687 26.0476 12.4071 33.2738H12.3458L12.3418 34.4466L17.6278 34.4656C17.3408 33.8778 17.2053 33.2244 17.2344 32.5676C17.2634 31.9109 17.4559 31.2727 17.7936 30.714C18.1313 30.1552 18.6029 29.6945 19.1634 29.3759C19.724 29.0572 20.3547 28.8911 20.9956 28.8935C21.6364 28.8958 22.266 29.0666 22.8242 29.3894C23.3825 29.7123 23.8508 30.1764 24.1846 30.7377C24.5183 31.2989 24.7064 31.9385 24.7308 32.5954C24.7552 33.2524 24.6151 33.9048 24.324 34.4905L29.61 34.5103L29.614 33.3392C22.8984 26.0617 22.867 12.5131 22.867 12.5131Z" fill="#E6E6E6"/>
<path d="M30.5364 32.9877L23.9209 32.9628L23.9153 34.5353L30.5308 34.5602L30.5364 32.9877Z" fill="#CCCCCC"/>
<path d="M17.8704 32.9392L11.2549 32.9163L11.2488 34.4888L17.8643 34.5117L17.8704 32.9392Z" fill="#CCCCCC"/>
<path d="M24.9987 25.0182L17.0932 24.9892L16.3711 23.7452L25.7297 23.78L24.9987 25.0182Z" fill="#CCCCCC"/>
<path d="M25.7724 22.8322L16.334 22.7967L16.3304 23.7899L25.7688 23.8254L25.7724 22.8322Z" fill="#666666"/>
<path d="M19.832 22.8228L22.2523 22.8322C22.2523 22.8322 21.7755 20.6048 21.6973 20.0051H20.4065C20.2673 20.9555 20.0755 21.8964 19.832 22.8228Z" fill="#EB3F6D"/>
<path d="M23.3585 18.1659L18.7155 18.1494L18.292 17.2505L23.7885 17.2712L23.3585 18.1659Z" fill="#CCCCCC"/>
<path d="M23.8372 16.5283L18.2705 16.5074L18.2679 17.2241L23.8346 17.2451L23.8372 16.5283Z" fill="#666666"/>
<path d="M22.8646 12.5057L19.3204 12.4925L18.9961 12.1258L23.1913 12.1407L22.8646 12.5057Z" fill="#CCCCCC"/>
<path d="M23.2716 11.4823L18.915 11.4659L18.9128 12.0949L23.2693 12.1113L23.2716 11.4823Z" fill="#666666"/>
<path d="M21.293 8.24338C21.293 8.12911 21.2027 8.03647 21.0913 8.03647C20.9799 8.03647 20.8896 8.12911 20.8896 8.24338V9.15379C20.8896 9.26807 20.9799 9.36071 21.0913 9.36071C21.2027 9.36071 21.293 9.26807 21.293 9.15379V8.24338Z" fill="#E6E6E6"/>
</svg>
