<svg width="42" height="70" viewBox="0 0 42 70" fill="none" xmlns="http://www.w3.org/2000/svg">
<circle cx="20.671" cy="59.4698" r="10.4474" fill="#555659" fill-opacity="0.34"/>
<path d="M20.8948 0C15.3532 0 10.0385 2.19294 6.11995 6.09641C2.20141 9.99987 0 15.2941 0 20.8144C0 36.4253 20.8948 59.4698 20.8948 59.4698C20.8948 59.4698 41.7896 36.4253 41.7896 20.8144C41.7896 15.2941 39.5882 9.99987 35.6697 6.09641C31.7511 2.19294 26.4364 0 20.8948 0ZM20.8948 28.2482C19.4189 28.2482 17.9761 27.8122 16.7489 26.9954C15.5217 26.1785 14.5652 25.0175 14.0004 23.6592C13.4356 22.3009 13.2878 20.8062 13.5757 19.3642C13.8637 17.9222 14.5744 16.5976 15.6181 15.558C16.6617 14.5184 17.9914 13.8104 19.4389 13.5235C20.8865 13.2367 22.387 13.3839 23.7506 13.9466C25.1141 14.5092 26.2796 15.462 27.0996 16.6845C27.9196 17.9069 28.3572 19.3442 28.3572 20.8144C28.3572 21.7906 28.1642 22.7573 27.7892 23.6592C27.4142 24.5611 26.8645 25.3806 26.1715 26.0709C25.4786 26.7612 24.6559 27.3087 23.7506 27.6823C22.8452 28.0559 21.8748 28.2482 20.8948 28.2482Z" fill="#1037D0"/>
<path d="M29.397 20.8035C29.397 25.4638 25.619 29.2417 20.9587 29.2417C16.2984 29.2417 12.5204 25.4638 12.5204 20.8035C12.5204 16.1431 16.2984 12.3652 20.9587 12.3652C25.619 12.3652 29.397 16.1431 29.397 20.8035Z" fill="#1037D0"/>
<path fill-rule="evenodd" clip-rule="evenodd" d="M19.4158 28.7505C17.5295 30.9249 16.1327 33.0603 15.3024 34.5053C15.2221 34.5959 15.1451 34.6933 15.0724 34.797C14.4289 35.7166 14.3733 36.7884 14.9484 37.1909C15.5235 37.5933 16.5114 37.1741 17.155 36.2544C17.2666 36.0949 17.3606 35.9308 17.4366 35.7664C18.4372 34.4354 19.8647 32.2878 21.1305 29.6637C21.2824 29.437 21.46 29.1495 21.6662 28.8157C22.5242 27.4268 23.8774 25.2361 25.9389 23.2844C26.1857 23.0508 26.3984 22.8089 26.1694 22.5578C25.7599 22.1088 25.0317 22.2186 24.5695 22.6209C24.6671 22.08 24.4633 21.4894 23.9486 21.3115C23.6274 21.2005 23.4893 21.4915 23.3724 21.8106C22.3955 24.476 20.9189 26.5855 19.9827 27.923C19.7577 28.2445 19.564 28.5213 19.4158 28.7505Z" fill="#CCCCCC"/>
<ellipse cx="28.0515" cy="17.4209" rx="4.69512" ry="6.40083" transform="rotate(32.0435 28.0515 17.4209)" fill="#F27500"/>
<path fill-rule="evenodd" clip-rule="evenodd" d="M21.5839 30.3889C22.9822 32.905 24.5112 34.9478 25.5852 36.2222C25.6428 36.3286 25.708 36.4343 25.7807 36.538C26.4248 37.4573 27.413 37.8759 27.9879 37.4731C28.5627 37.0703 28.5065 35.9986 27.8624 35.0794C27.7506 34.9199 27.6286 34.7755 27.5001 34.6478C26.5915 33.2525 25.0613 31.1766 23.0283 29.0899C22.8672 28.8696 22.6578 28.6044 22.4146 28.2965C21.4027 27.0153 19.8068 24.9945 18.6777 22.3899C18.5425 22.0781 18.3879 21.7956 18.0736 21.9249C17.5118 22.1562 17.3659 22.8781 17.5859 23.45C17.111 23.1733 16.4863 23.1628 16.1431 23.5857C15.929 23.8496 16.1552 24.0789 16.4151 24.2979C18.5859 26.1273 20.0633 28.2361 21.0001 29.5733C21.2252 29.8946 21.4191 30.1713 21.5839 30.3889Z" fill="#CCCCCC"/>
<ellipse cx="13.8901" cy="18.3993" rx="4.69512" ry="6.40083" transform="rotate(-37.9617 13.8901 18.3993)" fill="#F27500"/>
</svg>
