<svg width="76" height="42" viewBox="0 0 76 42" fill="none" xmlns="http://www.w3.org/2000/svg">
<path d="M59.9125 21C61.3588 21 62.7726 20.5601 63.9751 19.736C65.1776 18.9119 66.1149 17.7406 66.6684 16.3701C67.2218 14.9997 67.3666 13.4917 67.0845 12.0368C66.8023 10.582 66.1059 9.24559 65.0832 8.1967C64.0605 7.14781 62.7576 6.4335 61.3391 6.14411C59.9206 5.85472 58.4503 6.00325 57.1141 6.57091C55.7779 7.13856 54.6359 8.09986 53.8324 9.33323C53.0289 10.5666 52.6 12.0166 52.6 13.5C52.5969 14.4858 52.7839 15.4625 53.1503 16.3739C53.5167 17.2852 54.0552 18.1133 54.7349 18.8104C55.4145 19.5074 56.2219 20.0598 57.1105 20.4356C57.9991 20.8113 58.9513 21.0032 59.9125 21ZM37.975 18C39.7105 18 41.4071 17.4722 42.8501 16.4832C44.2932 15.4943 45.4179 14.0887 46.082 12.4442C46.7462 10.7996 46.92 8.99002 46.5814 7.24419C46.2428 5.49836 45.4071 3.89471 44.1799 2.63604C42.9527 1.37737 41.3891 0.520203 39.6869 0.172936C37.9847 -0.17433 36.2204 0.00389961 34.617 0.685088C33.0135 1.36628 31.6431 2.51983 30.6789 3.99987C29.7146 5.47991 29.2 7.21997 29.2 9C29.195 10.1833 29.4185 11.356 29.8577 12.4502C30.2969 13.5445 30.9431 14.5387 31.7589 15.3755C32.5748 16.2122 33.5441 16.875 34.611 17.3254C35.6779 17.7759 36.8212 18.0052 37.975 18ZM59.9125 27C54.5597 27 43.825 29.76 43.825 35.25V42H76V35.25C76 29.76 65.2652 27 59.9125 27ZM37.975 24C31.1598 24 17.5 27.51 17.5 34.5V42H37.975V35.25C38.0553 33.0208 38.7488 30.8604 39.9755 29.0183C41.2022 27.1763 42.9119 25.7277 44.9072 24.84C42.6286 24.3299 40.3069 24.0486 37.975 24Z" fill="#2B4ED6"/>
<path d="M20.5 13.1429C20.7761 13.1429 21 12.919 21 12.6429V9.85714C21 9.581 20.7761 9.35714 20.5 9.35714H12.6429V1.5C12.6429 1.22386 12.419 1 12.1429 1H9.35714C9.081 1 8.85714 1.22386 8.85714 1.5V9.35714H1C0.723858 9.35714 0.5 9.581 0.5 9.85714V12.6429C0.5 12.919 0.723858 13.1429 1 13.1429H8.85714V21C8.85714 21.2761 9.081 21.5 9.35714 21.5H12.1429C12.419 21.5 12.6429 21.2761 12.6429 21V13.1429H20.5Z" fill="#2B4ED6" stroke="white" stroke-linecap="round" stroke-linejoin="round"/>
</svg>
