<svg width="101" height="56" viewBox="0 0 101 56" fill="none" xmlns="http://www.w3.org/2000/svg">
<path d="M78.9895 28C80.9178 28 82.8029 27.4135 84.4063 26.3147C86.0096 25.2159 87.2593 23.6541 87.9973 21.8268C88.7352 19.9996 88.9283 17.9889 88.5521 16.0491C88.1759 14.1093 87.2473 12.3275 85.8837 10.9289C84.5202 9.53041 82.7829 8.578 80.8916 8.19215C79.0003 7.8063 77.0399 8.00433 75.2583 8.76121C73.4767 9.51808 71.954 10.7998 70.8826 12.4443C69.8113 14.0888 69.2395 16.0222 69.2395 18C69.2353 19.3144 69.4847 20.6167 69.9732 21.8318C70.4618 23.047 71.1798 24.1511 72.086 25.0805C72.9922 26.0099 74.0686 26.7464 75.2534 27.2474C76.4382 27.7485 77.7079 28.0042 78.9895 28ZM49.7395 24C52.0535 24 54.3156 23.2962 56.2396 21.9776C58.1637 20.6591 59.6633 18.7849 60.5488 16.5922C61.4344 14.3995 61.6661 11.9867 61.2146 9.65892C60.7632 7.33115 59.6489 5.19295 58.0126 3.51472C56.3763 1.83649 54.2916 0.693605 52.022 0.230582C49.7524 -0.232441 47.4 0.00519948 45.2621 0.913451C43.1242 1.8217 41.2969 3.35977 40.0113 5.33316C38.7256 7.30655 38.0395 9.62663 38.0395 12C38.0327 13.5778 38.3308 15.1413 38.9164 16.6003C39.502 18.0593 40.3636 19.385 41.4513 20.5006C42.5391 21.6163 43.8316 22.5 45.2541 23.1006C46.6767 23.7012 48.2011 24.0069 49.7395 24ZM78.9895 36C71.8525 36 57.5395 39.68 57.5395 47V56H100.439V47C100.439 39.68 86.1265 36 78.9895 36ZM49.7395 32C40.6525 32 22.4395 36.68 22.4395 46V56H49.7395V47C49.8465 44.0277 50.7712 41.1472 52.4068 38.6911C54.0424 36.235 56.322 34.3036 58.9825 33.12C55.9442 32.4398 52.8486 32.0647 49.7395 32Z" fill="#3BDBA1"/>
<path d="M26.4395 16.8571H15.2966V28H11.5823V16.8571H0.439453V13.1429H11.5823V2H15.2966V13.1429H26.4395V16.8571Z" fill="#3BDBA1"/>
</svg>
