<svg width="111" height="110" viewBox="0 0 111 110" fill="none" xmlns="http://www.w3.org/2000/svg">
<path d="M83.1416 62H84.6416V60.5V49.5V48H83.1416H62.6416V27.5V26H61.1416H50.1416H48.6416V27.5V48H28.1416H26.6416V49.5V60.5V62H28.1416H48.6416V82.5V84H50.1416H61.1416H62.6416V82.5V62H83.1416ZM25.9186 10.5164C34.7166 4.63772 45.0603 1.5 55.6416 1.5C62.6673 1.5 69.6243 2.88382 76.1152 5.57244C82.6061 8.26107 88.5039 12.2018 93.4718 17.1698C98.4398 22.1377 102.381 28.0355 105.069 34.5264C107.758 41.0173 109.142 47.9743 109.142 55C109.142 65.5813 106.004 75.925 100.125 84.723C94.2466 93.521 85.891 100.378 76.1152 104.428C66.3393 108.477 55.5823 109.536 45.2043 107.472C34.8263 105.408 25.2935 100.312 17.8114 92.8302C10.3293 85.3481 5.23392 75.8153 3.16961 65.4373C1.1053 55.0593 2.16478 44.3023 6.21407 34.5264C10.2634 24.7506 17.1206 16.395 25.9186 10.5164Z" fill="white" stroke="#3BDBA1" stroke-width="3"/>
</svg>
