<svg width="28" height="38" viewBox="0 0 28 38" fill="none" xmlns="http://www.w3.org/2000/svg">
<path d="M12.6271 12.2414C12.5129 11.0367 11.4358 10.1354 10.2646 10.4399C7.92965 11.0468 5.78267 12.2628 4.05229 13.9807C1.80048 16.2162 0.393478 19.1634 0.0710092 22.32C-0.251459 25.4766 0.530562 28.6474 2.28383 31.292C4.03709 33.9367 6.65312 35.8916 9.68617 36.8237C12.7192 37.7558 15.9816 37.6074 18.9175 36.4038C21.8534 35.2002 24.2811 33.0158 25.7871 30.2229C27.293 27.4299 27.7839 24.2013 27.1761 21.087C26.7091 18.6938 25.6156 16.482 24.0245 14.6685C23.2264 13.7588 21.8291 13.8997 21.058 14.8323C20.2869 15.765 20.4442 17.1349 21.1719 18.1018C22.0163 19.2238 22.6024 20.5297 22.875 21.9263C23.2885 24.0455 22.9544 26.2425 21.9297 28.143C20.905 30.0436 19.253 31.53 17.2552 32.349C15.2574 33.168 13.0374 33.269 10.9735 32.6348C8.90958 32.0005 7.12945 30.6702 5.9364 28.8706C4.74335 27.071 4.2112 24.9133 4.43064 22.7653C4.65007 20.6174 5.6075 18.6119 7.13979 17.0907C8.14964 16.0881 9.36799 15.3368 10.6967 14.8826C11.8418 14.4913 12.7414 13.4461 12.6271 12.2414Z" fill="white"/>
<path d="M5.62354 5.80176C4.29461 5.42719 2.91365 6.20085 2.53907 7.52978C2.16449 8.85871 2.93815 10.2397 4.26708 10.6143L5.62354 5.80176ZM14.2983 10.8443L16.7924 11.0154L16.9315 8.98904L14.9765 8.43802L14.2983 10.8443ZM11.1235 20.5942C11.029 21.9716 12.0691 23.1649 13.4465 23.2594C14.824 23.3539 16.0173 22.3139 16.1118 20.9364L11.1235 20.5942ZM4.26708 10.6143L13.6201 13.2505L14.9765 8.43802L5.62354 5.80176L4.26708 10.6143ZM11.8042 10.6731L11.1235 20.5942L16.1118 20.9364L16.7924 11.0154L11.8042 10.6731Z" fill="white"/>
</svg>
