<svg width="30" height="38" viewBox="0 0 30 38" fill="none" xmlns="http://www.w3.org/2000/svg">
<path d="M5.72501 5.93917C4.13029 5.48968 2.47313 6.41807 2.02364 8.01278C1.57415 9.6075 2.50254 11.2647 4.09726 11.7142L5.72501 5.93917ZM14.2641 11.4629L17.2571 11.6683L17.4239 9.23665L15.078 8.57542L14.2641 11.4629ZM10.5905 21.1786C10.4771 22.8316 11.7252 24.2635 13.3781 24.3769C15.0311 24.4903 16.463 23.2422 16.5764 21.5893L10.5905 21.1786ZM4.09726 11.7142L13.4502 14.3504L15.078 8.57542L5.72501 5.93917L4.09726 11.7142ZM11.2712 11.2576L10.5905 21.1786L16.5764 21.5893L17.2571 11.6683L11.2712 11.2576Z" fill="#3D3D3D"/>
<path d="M14.6271 12.2412C14.5129 11.0364 13.4358 10.1352 12.2646 10.4396C9.92965 11.0466 7.78267 12.2626 6.05229 13.9804C3.80048 16.216 2.39348 19.1631 2.07101 22.3197C1.74854 25.4763 2.53056 28.6471 4.28383 31.2918C6.03709 33.9365 8.65312 35.8914 11.6862 36.8235C14.7192 37.7556 17.9816 37.6072 20.9175 36.4035C23.8534 35.1999 26.2811 33.0156 27.7871 30.2226C29.293 27.4297 29.7839 24.201 29.1761 21.0867C28.7091 18.6936 27.6156 16.4817 26.0245 14.6683C25.2264 13.7586 23.8291 13.8994 23.058 14.8321C22.2869 15.7647 22.4442 17.1347 23.1719 18.1016C24.0163 19.2235 24.6024 20.5294 24.875 21.9261C25.2885 24.0453 24.9544 26.2423 23.9297 28.1428C22.905 30.0433 21.253 31.5297 19.2552 32.3488C17.2574 33.1678 15.0374 33.2688 12.9735 32.6345C10.9096 32.0002 9.12945 30.67 7.9364 28.8703C6.74335 27.0707 6.2112 24.9131 6.43064 22.7651C6.65007 20.6171 7.6075 18.6117 9.13979 17.0904C10.1496 16.0879 11.368 15.3365 12.6967 14.8824C13.8418 14.491 14.7414 13.4459 14.6271 12.2412Z" fill="#3D3D3D"/>
</svg>
