<svg width="35" height="31" viewBox="0 0 35 31" fill="none" xmlns="http://www.w3.org/2000/svg">
<path d="M23.1007 1.24038C22.044 -0.0357117 20.1528 -0.213512 18.8767 0.843253C17.6006 1.90002 17.4228 3.79117 18.4796 5.06727L23.1007 1.24038ZM30.881 15.3389L33.227 17.2087L34.7461 15.3027L33.1915 13.4255L30.881 15.3389ZM18.4441 26.1303C17.4115 27.4259 17.6247 29.3134 18.9204 30.3461C20.2161 31.3787 22.1036 31.1655 23.1362 29.8698L18.4441 26.1303ZM18.4796 5.06727L28.5704 17.2524L33.1915 13.4255L23.1007 1.24038L18.4796 5.06727ZM28.5349 13.4692L18.4441 26.1303L23.1362 29.8698L33.227 17.2087L28.5349 13.4692Z" fill="#335DFF"/>
<path d="M26.4503 15.3238L3.9353 15.3237" stroke="#335DFF" stroke-width="6" stroke-linecap="round" stroke-linejoin="round"/>
</svg>
