<svg width="19" height="33" viewBox="0 0 19 33" fill="none" xmlns="http://www.w3.org/2000/svg">
<path d="M12.4498 1.76765C13.6827 0.278875 15.8891 0.0714414 17.3779 1.30433C18.8666 2.53723 19.0741 4.74357 17.8412 6.23235L12.4498 1.76765ZM5.05471 16.1851L2.31765 18.3665L0.545388 16.1428L2.35904 13.9528L5.05471 16.1851ZM17.8826 26.6648C19.0873 28.1764 18.8385 30.3785 17.3269 31.5833C15.8153 32.788 13.6132 32.5393 12.4085 31.0276L17.8826 26.6648ZM17.8412 6.23235L7.75037 18.4175L2.35904 13.9528L12.4498 1.76765L17.8412 6.23235ZM7.79176 14.0037L17.8826 26.6648L12.4085 31.0276L2.31765 18.3665L7.79176 14.0037Z" fill="white"/>
</svg>
