<svg width="33" height="19" viewBox="0 0 33 19" fill="none" xmlns="http://www.w3.org/2000/svg">
<path d="M31.0781 12.3043C32.5668 13.5372 32.7743 15.7436 31.5414 17.2323C30.3085 18.7211 28.1021 18.9286 26.6134 17.6957L31.0781 12.3043ZM16.6606 4.9092L14.4792 2.17215L16.7029 0.39988L18.8929 2.21353L16.6606 4.9092ZM6.1809 17.7371C4.66927 18.9418 2.4672 18.693 1.26244 17.1814C0.057682 15.6698 0.306452 13.4677 1.81808 12.2629L6.1809 17.7371ZM26.6134 17.6957L14.4282 7.60486L18.8929 2.21353L31.0781 12.3043L26.6134 17.6957ZM18.842 7.64625L6.1809 17.7371L1.81808 12.2629L14.4792 2.17215L18.842 7.64625Z" fill="white"/>
</svg>
