<?xml version="1.0" encoding="utf-8"?>
<!-- Generator: Adobe Illustrator 24.1.3, SVG Export Plug-In . SVG Version: 6.00 Build 0)  -->
<svg version="1.1" id="Laag_1" xmlns="http://www.w3.org/2000/svg" xmlns:xlink="http://www.w3.org/1999/xlink" x="0px" y="0px"
	 viewBox="0 0 36 36" style="enable-background:new 0 0 36 36;" xml:space="preserve">
<style type="text/css">
	.st0{fill:#335DFF;}
	.st1{fill:none;stroke:#335DFF;stroke-width:7;stroke-linecap:round;stroke-linejoin:round;}
</style>
<path class="st0" d="M23.9,3.3c-1.2-1.5-3.4-1.7-4.9-0.5s-1.7,3.4-0.5,4.9L23.9,3.3z M31.3,17.7l2.7,2.2l1.8-2.2L34,15.5L31.3,17.7z
	 M18.4,28.2c-1.2,1.5-1,3.7,0.6,4.9c1.5,1.2,3.7,1,4.9-0.6L18.4,28.2z M18.5,7.8l10.1,12.2l5.4-4.5L23.9,3.3L18.5,7.8z M28.5,15.5
	L18.4,28.2l5.5,4.4L34,19.9L28.5,15.5z"/>
<path class="st1" d="M26.8,17.7H4.3"/>
</svg>
