<svg width="52" height="101" viewBox="0 0 52 101" fill="none" xmlns="http://www.w3.org/2000/svg">
<path d="M13.8165 3.69201C11.1746 0.501777 6.44666 0.0572767 3.25643 2.69919C0.0661998 5.3411 -0.378301 10.069 2.26361 13.2592L13.8165 3.69201ZM42.3067 49.8542L48.1718 54.5286L51.9695 49.7636L48.0831 45.0706L42.3067 49.8542ZM2.17493 88.1747C-0.406698 91.4139 0.126378 96.1326 3.36559 98.7142C6.6048 101.296 11.3235 100.763 13.9051 97.5236L2.17493 88.1747ZM2.26361 13.2592L36.5303 54.6378L48.0831 45.0706L13.8165 3.69201L2.26361 13.2592ZM36.4416 45.1797L2.17493 88.1747L13.9051 97.5236L48.1718 54.5286L36.4416 45.1797Z" fill="#335DFF"/>
</svg>
