<svg width="40" height="36" viewBox="0 0 40 36" fill="none" xmlns="http://www.w3.org/2000/svg">
<path d="M5.81986 5.21732V0.198242H9.16592V5.21732H14.185V8.56338H9.16592V13.5825H5.81986V8.56338H0.800781V5.21732H5.81986ZM10.8389 15.2555V10.2364H15.858V5.21732H27.5692L30.6309 8.56338H35.9344C36.821 8.56603 37.6705 8.91941 38.2975 9.54634C38.9244 10.1733 39.2778 11.0228 39.2804 11.9094V31.9858C39.2778 32.8724 38.9244 33.7219 38.2975 34.3489C37.6705 34.9758 36.821 35.3292 35.9344 35.3318H9.16592C8.2793 35.3292 7.42976 34.9758 6.80283 34.3489C6.17589 33.7219 5.82251 32.8724 5.81986 31.9858V15.2555H10.8389ZM22.5501 30.3127C24.2046 30.3127 25.8219 29.8221 27.1976 28.903C28.5732 27.9838 29.6454 26.6773 30.2785 25.1488C30.9117 23.6203 31.0773 21.9383 30.7545 20.3156C30.4318 18.693 29.6351 17.2024 28.4652 16.0326C27.2953 14.8627 25.8048 14.066 24.1821 13.7432C22.5594 13.4204 20.8775 13.5861 19.3489 14.2192C17.8204 14.8524 16.514 15.9245 15.5948 17.3002C14.6756 18.6758 14.185 20.2931 14.185 21.9476C14.185 24.1662 15.0663 26.2939 16.6351 27.8626C18.2039 29.4314 20.3316 30.3127 22.5501 30.3127ZM17.1964 21.9476C17.1964 23.0065 17.5104 24.0415 18.0987 24.9219C18.687 25.8024 19.5231 26.4886 20.5014 26.8938C21.4796 27.299 22.5561 27.405 23.5946 27.1984C24.6331 26.9918 25.587 26.482 26.3358 25.7332C27.0845 24.9845 27.5944 24.0306 27.801 22.9921C28.0075 21.9535 27.9015 20.8771 27.4963 19.8988C27.0911 18.9206 26.4049 18.0844 25.5245 17.4962C24.6441 16.9079 23.609 16.5939 22.5501 16.5939C21.1303 16.5939 19.7685 17.158 18.7645 18.162C17.7605 19.166 17.1964 20.5277 17.1964 21.9476Z" fill="#335DFF"/>
</svg>
