<svg width="45" height="45" viewBox="0 0 45 45" fill="none" xmlns="http://www.w3.org/2000/svg">
<path d="M28.3275 13.5L22.5 19.3275L16.6725 13.5L13.5 16.6725L19.3275 22.5L13.5 28.3275L16.6725 31.5L22.5 25.6725L28.3275 31.5L31.5 28.3275L25.6725 22.5L31.5 16.6725L28.3275 13.5ZM22.5 9.12977e-06C18.0499 9.12977e-06 13.6998 1.31961 9.99968 3.79194C6.29957 6.26427 3.41569 9.77829 1.71272 13.8896C0.00974889 18.001 -0.435826 22.525 0.432341 26.8895C1.30051 31.2541 3.44342 35.2632 6.59011 38.4099C9.73678 41.5566 13.7459 43.6995 18.1105 44.5677C22.475 45.4358 26.999 44.9903 31.1104 43.2873C35.2217 41.5843 38.7357 38.7004 41.2081 35.0003C43.6804 31.3002 45 26.9501 45 22.5C45.0027 19.5445 44.4225 16.6175 43.2927 13.8865C42.1629 11.1554 40.5057 8.67401 38.4158 6.58416C36.326 4.49432 33.8446 2.83708 31.1135 1.70729C28.3825 0.577507 25.4555 -0.00265441 22.5 9.12977e-06ZM22.5 40.5C18.9399 40.5 15.4598 39.4443 12.4997 37.4664C9.53966 35.4886 7.23255 32.6774 5.87018 29.3883C4.5078 26.0992 4.15134 22.48 4.84587 18.9884C5.54041 15.4967 7.25474 12.2894 9.77208 9.77208C12.2894 7.25474 15.4967 5.54041 18.9884 4.84587C22.48 4.15134 26.0992 4.5078 29.3883 5.87018C32.6774 7.23255 35.4886 9.53966 37.4664 12.4997C39.4443 15.4598 40.5 18.9399 40.5 22.5C40.4934 27.2719 38.5949 31.8465 35.2207 35.2207C31.8465 38.5949 27.2719 40.4934 22.5 40.5Z" fill="white"/>
</svg>
