<svg width="70" height="69" viewBox="0 0 70 69" fill="none" xmlns="http://www.w3.org/2000/svg">
<rect x="0.566406" y="0.225586" width="68.69" height="68.6896" rx="34.3448" fill="#ED1D54"/>
<rect x="0.566406" y="0.225586" width="68.69" height="68.6896" rx="34.3448" fill="#ED1D54"/>
<path d="M36.7802 25.9341L45.2939 17.4204C46.4655 16.2488 48.365 16.2488 49.5366 17.4204L52.2385 20.1223C53.4101 21.2939 53.4101 23.1934 52.2385 24.365L43.7248 32.8787C42.5532 34.0502 42.5532 35.9497 43.7248 37.1213L52.2385 45.635C53.4101 46.8066 53.4101 48.7061 52.2385 49.8776L49.5366 52.5796C48.365 53.7511 46.4655 53.7511 45.2939 52.5796L36.7802 44.0659C35.6087 42.8943 33.7092 42.8943 32.5376 44.0659L24.0239 52.5796C22.8523 53.7511 20.9528 53.7511 19.7813 52.5796L17.0793 49.8776C15.9078 48.7061 15.9078 46.8066 17.0793 45.635L25.593 37.1213C26.7646 35.9497 26.7646 34.0502 25.593 32.8787L17.0793 24.365C15.9078 23.1934 15.9078 21.2939 17.0793 20.1223L19.7813 17.4204C20.9528 16.2488 22.8523 16.2488 24.0239 17.4204L32.5376 25.9341C33.7092 27.1057 35.6087 27.1057 36.7802 25.9341Z" fill="white"/>
</svg>
