<svg width="38" height="37" viewBox="0 0 38 37" fill="none" xmlns="http://www.w3.org/2000/svg">
<path d="M36.7219 30.293L21.5464 15.0341C22.3001 13.0709 22.4649 10.9286 22.0203 8.87218C21.5757 6.81578 20.5412 4.93558 19.0449 3.46421C17.4511 1.88434 15.4168 0.829621 13.2125 0.440249C11.0082 0.0508772 6.70432 -0.622525 6.70432 1.28437L13.8752 8.49461L8.87226 13.525L1.53462 6.31477C-0.423591 6.31477 0.245475 10.6436 0.634357 12.8694C1.02324 15.0952 2.09629 17.1424 3.70256 18.7231C5.16589 20.2277 7.03583 21.2678 9.081 21.7149C11.1262 22.1619 13.2568 21.9962 15.2093 21.2383L30.3849 36.4972C30.5355 36.6561 30.7166 36.7826 30.9173 36.869C31.1179 36.9554 31.3339 37 31.5522 37C31.7705 37 31.9865 36.9554 32.1872 36.869C32.3879 36.7826 32.569 36.6561 32.7196 36.4972L36.5552 32.6406C36.7399 32.5121 36.8936 32.3435 37.0049 32.1473C37.1162 31.9511 37.1823 31.7323 37.1983 31.507C37.2143 31.2817 37.1798 31.0557 37.0974 30.8456C37.0149 30.6355 36.8866 30.4466 36.7219 30.293Z" fill="#335DFF"/>
</svg>
