<svg xmlns="http://www.w3.org/2000/svg" viewBox="0 0 50.66 50.66"><defs><style>.cls-1{fill:#fbd6ce;}</style></defs><title>facebook</title><g id="Layer_2" data-name="Layer 2"><g id="Facebook"><path class="cls-1" d="M35.9,50.66H14.76A14.78,14.78,0,0,1,0,35.9V14.76A14.78,14.78,0,0,1,14.76,0H35.9A14.78,14.78,0,0,1,50.66,14.76V35.9A14.78,14.78,0,0,1,35.9,50.66ZM14.76,3A11.77,11.77,0,0,0,3,14.76V35.9A11.77,11.77,0,0,0,14.76,47.66H35.9A11.78,11.78,0,0,0,47.66,35.9V14.76A11.77,11.77,0,0,0,35.9,3Z"/><path class="cls-1" d="M31.37,26.81H15.87a2.5,2.5,0,0,1,0-5h15.5a2.5,2.5,0,0,1,0,5Z"/><path class="cls-1" d="M23.62,42.29a2.5,2.5,0,0,1-2.5-2.5V18.62a2.5,2.5,0,0,1,5,0V39.79A2.5,2.5,0,0,1,23.62,42.29Z"/><path class="cls-1" d="M26.12,18.62h-5A10.25,10.25,0,0,1,31.37,8.37v5A5.25,5.25,0,0,0,26.12,18.62Z"/></g></g></svg>