<svg width="38" height="27" viewBox="0 0 38 27" fill="none" xmlns="http://www.w3.org/2000/svg">
<path d="M27.4801 13.6491C28.3901 13.6491 29.2796 13.3793 30.0362 12.8737C30.7928 12.3682 31.3825 11.6496 31.7308 10.8089C32.079 9.96819 32.1701 9.0431 31.9926 8.15062C31.8151 7.25813 31.3769 6.43833 30.7334 5.79489C30.09 5.15144 29.2702 4.71325 28.3777 4.53572C27.4852 4.35819 26.5601 4.44931 25.7194 4.79754C24.8787 5.14577 24.1601 5.73548 23.6546 6.49209C23.149 7.2487 22.8792 8.13824 22.8792 9.04821C22.8773 9.65295 22.9949 10.2521 23.2255 10.8112C23.456 11.3703 23.7948 11.8782 24.2224 12.3059C24.6501 12.7335 25.158 13.0723 25.7171 13.3028C26.2762 13.5334 26.8754 13.651 27.4801 13.6491ZM13.6774 11.8087C14.7694 11.8087 15.8368 11.4849 16.7448 10.8783C17.6527 10.2716 18.3603 9.40934 18.7782 8.4005C19.1961 7.39165 19.3054 6.28155 19.0924 5.21057C18.8794 4.13958 18.3535 3.15582 17.5814 2.38369C16.8093 1.61155 15.8255 1.08572 14.7545 0.87269C13.6835 0.659658 12.5734 0.768994 11.5646 1.18687C10.5558 1.60475 9.69348 2.3124 9.08682 3.22033C8.48015 4.12827 8.15635 5.19571 8.15635 6.28767C8.15318 7.0136 8.29383 7.73296 8.57017 8.40424C8.84651 9.07551 9.25306 9.68541 9.76637 10.1987C10.2797 10.712 10.8896 11.1186 11.5609 11.3949C12.2321 11.6713 12.9515 11.8119 13.6774 11.8087ZM27.4801 17.3298C24.1122 17.3298 17.3581 19.0229 17.3581 22.3908V26.5316H37.6021V22.3908C37.6021 19.0229 30.8479 17.3298 27.4801 17.3298ZM13.6774 15.4895C9.38939 15.4895 0.794922 17.6427 0.794922 21.9307V26.5316H13.6774V22.3908C13.7279 21.0233 14.1643 19.698 14.9361 18.568C15.7079 17.4379 16.7837 16.5493 18.0391 16.0048C16.6054 15.6918 15.1446 15.5192 13.6774 15.4895Z" fill="#335DFF"/>
</svg>
