<svg width="37" height="26" viewBox="0 0 37 26" fill="none" xmlns="http://www.w3.org/2000/svg">
<path d="M26.6975 12.7269C27.582 12.7269 28.4466 12.4647 29.1821 11.9732C29.9175 11.4818 30.4907 10.7834 30.8292 9.9662C31.1677 9.14902 31.2563 8.24982 31.0837 7.38231C30.9111 6.51479 30.4852 5.71793 29.8598 5.09249C29.2343 4.46705 28.4375 4.04111 27.57 3.86855C26.7024 3.696 25.8032 3.78456 24.9861 4.12305C24.1689 4.46153 23.4704 5.03474 22.979 5.77018C22.4876 6.50563 22.2253 7.37027 22.2253 8.25478C22.2234 8.8426 22.3378 9.425 22.5619 9.96844C22.786 10.5119 23.1153 11.0056 23.531 11.4213C23.9466 11.8369 24.4404 12.1663 24.9838 12.3904C25.5273 12.6144 26.1097 12.7288 26.6975 12.7269V12.7269ZM13.281 10.9381C14.3424 10.9381 15.38 10.6233 16.2625 10.0336C17.1451 9.44395 17.8329 8.60581 18.2391 7.62519C18.6453 6.64458 18.7515 5.56553 18.5445 4.52452C18.3374 3.4835 17.8263 2.52727 17.0758 1.77674C16.3252 1.0262 15.369 0.515086 14.328 0.308015C13.287 0.100944 12.2079 0.20722 11.2273 0.613405C10.2467 1.01959 9.40853 1.70744 8.81884 2.58997C8.22916 3.4725 7.91441 4.51008 7.91441 5.57149C7.91133 6.2771 8.04804 6.97633 8.31665 7.62883C8.58526 8.28132 8.98044 8.87415 9.47939 9.3731C9.97833 9.87205 10.5712 10.2672 11.2237 10.5358C11.8762 10.8044 12.5754 10.9412 13.281 10.9381V10.9381ZM26.6975 16.3047C23.4239 16.3047 16.8587 17.9504 16.8587 21.224V25.249H36.5362V21.224C36.5362 17.9504 29.9711 16.3047 26.6975 16.3047ZM13.281 14.5158C9.11295 14.5158 0.758957 16.6088 0.758957 20.7768V25.249H13.281V21.224C13.3301 19.8948 13.7543 18.6066 14.5045 17.5082C15.2547 16.4098 16.3003 15.546 17.5206 15.0167C16.127 14.7125 14.7071 14.5448 13.281 14.5158V14.5158Z" fill="white"/>
</svg>
