<svg width="19" height="19" viewBox="0 0 19 19" fill="none" xmlns="http://www.w3.org/2000/svg">
<path d="M9.93657 5.42586L14.6116 0.750808C15.0021 0.360284 15.6353 0.360283 16.0258 0.750808L17.9266 2.6516C18.3171 3.04212 18.3171 3.67529 17.9266 4.06581L13.2516 8.74086C12.8611 9.13138 12.8611 9.76455 13.2516 10.1551L17.9266 14.8301C18.3171 15.2206 18.3171 15.8538 17.9266 16.2443L16.0258 18.1451C15.6353 18.5357 15.0021 18.5357 14.6116 18.1451L9.93657 13.4701C9.54605 13.0796 8.91288 13.0796 8.52236 13.4701L3.84731 18.1451C3.45678 18.5357 2.82362 18.5357 2.43309 18.1451L0.532302 16.2443C0.141778 15.8538 0.141778 15.2206 0.532303 14.8301L5.20735 10.1551C5.59788 9.76455 5.59788 9.13138 5.20735 8.74086L0.532302 4.06581C0.141778 3.67529 0.141778 3.04212 0.532302 2.6516L2.43309 0.750808C2.82362 0.360284 3.45678 0.360284 3.84731 0.750808L8.52236 5.42586C8.91288 5.81638 9.54605 5.81638 9.93657 5.42586Z" fill="#9E9D9D"/>
</svg>
