<svg width="35" height="25" viewBox="0 0 35 25" fill="none" xmlns="http://www.w3.org/2000/svg">
<path d="M25.2304 12.2446C26.0907 12.2446 26.9318 11.9882 27.6471 11.5076C28.3625 11.0271 28.9201 10.3441 29.2493 9.54505C29.5785 8.74598 29.6647 7.8667 29.4968 7.0184C29.329 6.17011 28.9147 5.3909 28.3063 4.77931C27.698 4.16773 26.9229 3.75123 26.079 3.58249C25.2352 3.41376 24.3605 3.50036 23.5657 3.83135C22.7708 4.16234 22.0914 4.72285 21.6134 5.442C21.1354 6.16114 20.8803 7.00663 20.8803 7.87155C20.8785 8.44635 20.9897 9.01584 21.2077 9.54724C21.4256 10.0786 21.746 10.5615 22.1503 10.9679C22.5546 11.3744 23.0349 11.6964 23.5635 11.9155C24.0921 12.1346 24.6586 12.2465 25.2304 12.2446ZM12.1802 10.4954C13.2126 10.4954 14.2219 10.1876 15.0803 9.611C15.9387 9.03438 16.6078 8.2148 17.0029 7.25591C17.398 6.29702 17.5014 5.24188 17.2999 4.22393C17.0985 3.20597 16.6014 2.27092 15.8713 1.53702C15.1413 0.803114 14.2112 0.303319 13.1986 0.100835C12.186 -0.101648 11.1364 0.00227377 10.1825 0.39946C9.2287 0.796645 8.41343 1.46926 7.83984 2.33223C7.26625 3.19521 6.9601 4.2098 6.9601 5.2477C6.95711 5.93768 7.09009 6.62142 7.35136 7.25946C7.61263 7.8975 7.99702 8.4772 8.48235 8.96509C8.96768 9.45299 9.54432 9.83941 10.179 10.1021C10.8137 10.3647 11.4938 10.4984 12.1802 10.4954ZM25.2304 15.7431C22.0461 15.7431 15.6602 17.3524 15.6602 20.5535L15.6602 24.4893L34.8005 24.4893L34.8005 20.5535C34.8005 17.3524 28.4146 15.7431 25.2304 15.7431ZM12.1802 13.9939C8.12592 13.9939 0 16.0405 0 20.1162L0 24.4893L12.1802 24.4893L12.1802 20.5535C12.2279 19.2537 12.6405 17.994 13.3702 16.9199C14.1 15.8459 15.1171 15.0013 16.304 14.4836C14.9485 14.1862 13.5674 14.0222 12.1802 13.9939Z" fill="white"/>
</svg>
