<svg width="47" height="41" viewBox="0 0 47 41" fill="none" xmlns="http://www.w3.org/2000/svg">
<path d="M23.5739 9.37125C26.3657 9.37125 29.0431 10.4803 31.0171 12.4543C32.9912 14.4284 34.1002 17.1058 34.1002 19.8976C34.0991 21.2187 33.8417 22.5271 33.3423 23.7502L39.4897 29.8976C42.698 27.2233 45.1814 23.7842 46.7108 19.8976C44.8818 15.2451 41.6948 11.251 37.5645 8.43484C33.4342 5.61872 28.5519 4.11107 23.5529 4.10809C20.6953 4.10725 17.8597 4.60598 15.1739 5.58177L19.7213 10.1291C20.9444 9.6298 22.2528 9.37241 23.5739 9.37125ZM2.52128 3.62388L7.32128 8.42388L8.2897 9.3923C4.77059 12.1246 2.05106 15.7531 0.416016 19.8976C1.61472 22.9493 3.4046 25.7342 5.68283 28.0921C7.96106 30.45 10.6827 32.3345 13.6915 33.6374C16.7002 34.9403 19.9368 35.6359 23.2152 35.6841C26.4936 35.7324 29.7492 35.1324 32.795 33.9186L33.6792 34.8028L39.8476 40.9502L42.5213 38.2765L5.19496 0.950195L2.52128 3.62388ZM14.1634 15.266L17.4265 18.5291C17.3175 18.9772 17.2609 19.4364 17.2581 19.8976C17.2581 21.5726 17.9235 23.1791 19.108 24.3635C20.2924 25.5479 21.8989 26.2134 23.5739 26.2134C24.035 26.2105 24.4943 26.154 24.9423 26.0449L28.2055 29.3081C26.2408 30.2972 24.0143 30.6415 21.8426 30.2922C19.6709 29.9428 17.6647 28.9175 16.1093 27.3622C14.5539 25.8068 13.5287 23.8006 13.1793 21.6289C12.8299 19.4572 13.1743 17.2307 14.1634 15.266ZM23.2371 13.6239L29.8687 20.2555L29.9108 19.9186C29.9108 18.2436 29.2453 16.6371 28.0609 15.4527C26.8765 14.2682 25.27 13.6028 23.595 13.6028L23.2371 13.6239Z" fill="#335DFF"/>
</svg>
