<svg width="35" height="28" viewBox="0 0 35 28" fill="none" xmlns="http://www.w3.org/2000/svg">
<path d="M30.8423 0.445831H3.9521C3.06355 0.450274 2.21291 0.806368 1.58617 1.43625C0.959442 2.06613 0.607616 2.91855 0.607627 3.80711L0.59082 23.9748C0.59348 24.8654 0.948468 25.7189 1.57826 26.3486C2.20804 26.9784 3.06145 27.3334 3.9521 27.3361H30.8423C31.733 27.3334 32.5864 26.9784 33.2162 26.3486C33.846 25.7189 34.201 24.8654 34.2036 23.9748V3.80711C34.201 2.91646 33.846 2.06305 33.2162 1.43327C32.5864 0.803479 31.733 0.448491 30.8423 0.445831ZM30.8423 7.16839L17.3972 15.5716L3.9521 7.16839V3.80711L17.3972 12.2103L30.8423 3.80711V7.16839Z" fill="#335DFF"/>
</svg>
