<svg width="70" height="66" viewBox="0 0 70 66" fill="none" xmlns="http://www.w3.org/2000/svg">
<path d="M69.6164 23.9914C69.6246 22.8275 69.3307 21.6811 68.7627 20.6625C68.1947 19.6439 67.3719 18.7875 66.3734 18.1756L35.1509 0.0440369L3.92839 18.1756C2.92556 18.7856 2.09752 19.6407 1.52362 20.659C0.94973 21.6774 0.649217 22.8248 0.650886 23.9914V58.2019C0.656346 60.0149 1.38506 61.7521 2.67788 63.0341C3.9707 64.316 5.72257 65.0386 7.55088 65.044H62.7509C64.5792 65.0386 66.3311 64.316 67.6239 63.0341C68.9167 61.7521 69.6454 60.0149 69.6509 58.2019L69.6164 23.9914ZM35.1509 41.0967L6.65388 23.444L35.1509 6.88614L63.6479 23.444L35.1509 41.0967Z" fill="#1037D0"/>
</svg>
