<svg width="26" height="26" viewBox="0 0 26 26" fill="none" xmlns="http://www.w3.org/2000/svg">
<path d="M22.502 7.18066C22.502 7.45681 22.2781 7.68066 22.002 7.68066H3.00195C2.72581 7.68066 2.50195 7.45681 2.50195 7.18066V5.68066C2.50195 5.40452 2.72581 5.18066 3.00195 5.18066H22.002C22.2781 5.18066 22.502 5.40452 22.502 5.68066V7.18066ZM20.002 0.680664C20.002 0.404522 19.7781 0.180664 19.502 0.180664H5.50195C5.22581 0.180664 5.00195 0.404522 5.00195 0.680664V2.18066C5.00195 2.45681 5.22581 2.68066 5.50195 2.68066H19.502C19.7781 2.68066 20.002 2.45681 20.002 2.18066V0.680664ZM25.002 12.6807V22.6807C25 23.3431 24.7359 23.9778 24.2675 24.4462C23.7991 24.9147 23.1644 25.1787 22.502 25.1807H2.50195C1.83952 25.1787 1.20478 24.9147 0.736372 24.4462C0.267959 23.9778 0.00393153 23.3431 0.00195312 22.6807V12.6807C0.00393153 12.0182 0.267959 11.3835 0.736372 10.9151C1.20478 10.4467 1.83952 10.1826 2.50195 10.1807H22.502C23.1644 10.1826 23.7991 10.4467 24.2675 10.9151C24.7359 11.3835 25 12.0182 25.002 12.6807ZM16.6946 18.1193C17.0427 17.9302 17.043 17.4306 16.6952 17.241L10.7412 13.9961C10.408 13.8145 10.002 14.0556 10.002 14.4351V20.915C10.002 21.2941 10.4075 21.5353 10.7407 21.3543L16.6946 18.1193Z" fill="#1037D0"/>
</svg>
