<svg width="32" height="32" viewBox="0 0 32 32" fill="none" xmlns="http://www.w3.org/2000/svg">
<path d="M15.7849 0.0722656C12.6993 0.0722656 9.68291 0.987266 7.11728 2.70156C4.55166 4.41585 2.55201 6.85244 1.37118 9.70321C0.190354 12.554 -0.118604 15.6909 0.483375 18.7172C1.08536 21.7436 2.57124 24.5235 4.75312 26.7054C6.935 28.8872 9.71488 30.3731 12.7412 30.9751C15.7676 31.5771 18.9045 31.2681 21.7553 30.0873C24.606 28.9065 27.0426 26.9068 28.7569 24.3412C30.4712 21.7756 31.3862 18.7592 31.3862 15.6736C31.3862 13.6248 30.9827 11.596 30.1986 9.70321C29.4146 7.81037 28.2654 6.0905 26.8167 4.64178C25.368 3.19307 23.6481 2.04388 21.7553 1.25984C19.8624 0.475805 17.8337 0.0722656 15.7849 0.0722656ZM15.7849 4.75266C16.7106 4.75266 17.6155 5.02716 18.3852 5.54145C19.1549 6.05573 19.7548 6.78671 20.109 7.64194C20.4633 8.49717 20.556 9.43824 20.3754 10.3461C20.1948 11.2541 19.749 12.088 19.0944 12.7426C18.4399 13.3971 17.6059 13.8429 16.698 14.0235C15.7901 14.2041 14.849 14.1114 13.9938 13.7572C13.1386 13.4029 12.4076 12.803 11.8933 12.0333C11.379 11.2636 11.1045 10.3587 11.1045 9.43305C11.1045 8.19173 11.5976 7.00126 12.4754 6.12351C13.3531 5.24577 14.5436 4.75266 15.7849 4.75266ZM15.7849 26.9065C13.9313 26.9065 12.1064 26.4478 10.4731 25.5713C8.83978 24.6947 7.44878 23.4276 6.42412 21.8829C6.47093 18.7782 12.6646 17.0777 15.7849 17.0777C18.9052 17.0777 25.0989 18.7782 25.1457 21.8829C24.121 23.4276 22.73 24.6947 21.0967 25.5713C19.4634 26.4478 17.6386 26.9065 15.7849 26.9065Z" fill="#1037D0"/>
</svg>
