<svg width="24" height="24" viewBox="0 0 24 24" fill="none" xmlns="http://www.w3.org/2000/svg">
<path d="M23.6885 19.6495L13.8449 9.75188C14.3338 8.47844 14.4407 7.08881 14.1523 5.75493C13.8639 4.42105 13.1929 3.20146 12.2223 2.24705C11.1885 1.22227 9.86899 0.538133 8.43916 0.285567C7.00933 0.0330014 4.21762 -0.4038 4.21762 0.833102L8.869 5.51002L5.62386 8.77299L0.864306 4.09607C-0.405885 4.09607 0.028104 6.90399 0.280352 8.34774C0.5326 9.7915 1.22863 11.1194 2.27054 12.1447C3.21973 13.1207 4.43266 13.7953 5.75926 14.0853C7.08585 14.3753 8.4679 14.2678 9.73438 13.7762L19.578 23.6739C19.6757 23.7769 19.7932 23.859 19.9233 23.915C20.0535 23.9711 20.1936 24 20.3352 24C20.4768 24 20.6169 23.9711 20.7471 23.915C20.8772 23.859 20.9947 23.7769 21.0924 23.6739L23.5803 21.1723C23.7002 21.0889 23.7999 20.9796 23.8721 20.8523C23.9443 20.725 23.9871 20.5831 23.9975 20.437C24.0079 20.2908 23.9855 20.1442 23.932 20.0079C23.8786 19.8717 23.7953 19.7492 23.6885 19.6495Z" fill="#3D3D3D"/>
</svg>
