<svg width="43" height="30" viewBox="0 0 43 30" fill="none" xmlns="http://www.w3.org/2000/svg">
<path d="M37.8098 1.4668H5.71623C3.54329 1.4668 1.6123 3.08641 1.6123 5.28346V24.6501C1.6123 26.8472 3.54329 28.4668 5.71623 28.4668H37.8098C39.9827 28.4668 41.9137 26.8472 41.9137 24.6501V5.28346C41.9137 3.08641 39.9827 1.4668 37.8098 1.4668Z" stroke="#3D3D3D" stroke-width="2" stroke-miterlimit="10"/>
<path d="M21.5127 17.2695H36.4581" stroke="#3D3D3D" stroke-width="1.5" stroke-miterlimit="10" stroke-linecap="round" stroke-linejoin="round"/>
<path d="M21.5127 20.5742H36.4581" stroke="#3D3D3D" stroke-width="1.5" stroke-miterlimit="10" stroke-linecap="round" stroke-linejoin="round"/>
<path d="M21.5127 23.8799H36.4581" stroke="#3D3D3D" stroke-width="1.5" stroke-miterlimit="10" stroke-linecap="round" stroke-linejoin="round"/>
<path d="M35.3165 4.9707H29.3531C28.6527 4.9707 28.085 5.48591 28.085 6.12145V11.533C28.085 12.1685 28.6527 12.6837 29.3531 12.6837H35.3165C36.0169 12.6837 36.5846 12.1685 36.5846 11.533V6.12145C36.5846 5.48591 36.0169 4.9707 35.3165 4.9707Z" fill="#3D3D3D"/>
</svg>
