<svg width="48" height="24" viewBox="0 0 48 24" fill="none" xmlns="http://www.w3.org/2000/svg">
<path d="M8.02505 7.776C8.02505 7.152 7.47305 6.696 6.80105 6.696C6.15305 6.696 5.57705 7.176 5.57705 7.776L5.57705 10.512L2.84105 10.512C2.21705 10.512 1.76105 11.064 1.76105 11.736C1.76105 12.384 2.24105 12.96 2.84105 12.96L5.57705 12.96L5.57705 15.72C5.57705 16.32 6.15305 16.8 6.80105 16.8C7.47305 16.8 8.02505 16.344 8.02505 15.72L8.02505 12.96L10.785 12.96C11.385 12.96 11.865 12.384 11.865 11.736C11.865 11.064 11.409 10.512 10.785 10.512L8.02505 10.512L8.02505 7.776Z" fill="white"/>
<path d="M45.3833 2L20.2456 2C18.9029 2 17.8145 3.00885 17.8145 4.25333L17.8145 19.7467C17.8145 20.9911 18.9029 22 20.2456 22L45.3833 22C46.726 22 47.8145 20.9911 47.8145 19.7467L47.8145 4.25333C47.8145 3.00885 46.726 2 45.3833 2Z" fill="white"/>
<path d="M32.8145 12.6699L43.35 12.6699" stroke="#335DFF" stroke-width="1.5" stroke-miterlimit="10" stroke-linecap="round" stroke-linejoin="round"/>
<path d="M32.8145 15.6699L43.35 15.6699" stroke="#335DFF" stroke-width="1.5" stroke-miterlimit="10" stroke-linecap="round" stroke-linejoin="round"/>
<path d="M32.8145 18.6699L43.35 18.6699" stroke="#335DFF" stroke-width="1.5" stroke-miterlimit="10" stroke-linecap="round" stroke-linejoin="round"/>
<path d="M42.5461 4L38.3422 4C37.8485 4 37.4482 4.36319 37.4482 4.8112L37.4482 8.626C37.4482 9.07401 37.8485 9.43719 38.3422 9.43719L42.5461 9.43719C43.0398 9.43719 43.44 9.07401 43.44 8.626L43.44 4.8112C43.44 4.36319 43.0398 4 42.5461 4Z" fill="#335DFF"/>
</svg>
