<svg width="30" height="24" viewBox="0 0 30 24" fill="none" xmlns="http://www.w3.org/2000/svg">
<path d="M27.5688 2H2.43119C1.08848 2 0 3.00885 0 4.25333V19.7467C0 20.9911 1.08848 22 2.43119 22H27.5688C28.9115 22 30 20.9911 30 19.7467V4.25333C30 3.00885 28.9115 2 27.5688 2Z" fill="white"/>
<path d="M15 12.6699H25.5356" stroke="#335DFF" stroke-width="1.5" stroke-miterlimit="10" stroke-linecap="round" stroke-linejoin="round"/>
<path d="M15 15.6699H25.5356" stroke="#335DFF" stroke-width="1.5" stroke-miterlimit="10" stroke-linecap="round" stroke-linejoin="round"/>
<path d="M15 18.6699H25.5356" stroke="#335DFF" stroke-width="1.5" stroke-miterlimit="10" stroke-linecap="round" stroke-linejoin="round"/>
<path d="M24.7316 4H20.5277C20.034 4 19.6338 4.36319 19.6338 4.8112V8.62599C19.6338 9.07401 20.034 9.43719 20.5277 9.43719H24.7316C25.2253 9.43719 25.6255 9.07401 25.6255 8.62599V4.8112C25.6255 4.36319 25.2253 4 24.7316 4Z" fill="#335DFF"/>
</svg>
