<?xml version="1.0" encoding="utf-8"?>
<!-- Generator: Adobe Illustrator 24.1.3, SVG Export Plug-In . SVG Version: 6.00 Build 0)  -->
<svg version="1.1" id="Layer_1" xmlns="http://www.w3.org/2000/svg" xmlns:xlink="http://www.w3.org/1999/xlink" x="0px" y="0px"
	 viewBox="0 0 25 25" style="enable-background:new 0 0 25 25;" xml:space="preserve">
<style type="text/css">
	.st0{fill:#FFFFFF;}
</style>
<path class="st0" d="M17.1,2.7c1.6,0.8,3.1,2,4.1,3.5s1.7,3.2,1.9,5h1.5c-0.2-3-1.6-5.8-3.8-7.8c-2.2-2-5.1-3.2-8.1-3.2l-0.7,0
	L15.8,4L17.1,2.7z M10.8,1.9c-0.1-0.1-0.3-0.3-0.5-0.3C10.2,1.5,10,1.5,9.8,1.5c-0.2,0-0.4,0-0.6,0.1C9,1.7,8.8,1.8,8.7,1.9L2.4,8.3
	C2.2,8.4,2.1,8.6,2,8.7C1.9,8.9,1.9,9.1,1.9,9.3s0,0.4,0.1,0.6c0.1,0.2,0.2,0.3,0.3,0.5l12,12c0.1,0.1,0.3,0.3,0.5,0.3
	c0.2,0.1,0.4,0.1,0.6,0.1s0.4,0,0.6-0.1c0.2-0.1,0.3-0.2,0.5-0.3l6.4-6.4c0.1-0.1,0.3-0.3,0.3-0.5c0.1-0.2,0.1-0.4,0.1-0.6
	c0-0.2,0-0.4-0.1-0.6c-0.1-0.2-0.2-0.3-0.3-0.5L10.8,1.9z M15.4,21.3l-12-12L9.8,3l12,12L15.4,21.3z M8.1,21.6
	c-1.6-0.8-3.1-2-4.1-3.5c-1-1.5-1.7-3.2-1.9-5H0.7c0.2,3,1.6,5.8,3.8,7.8c2.2,2,5.1,3.2,8.1,3.2l0.7,0l-3.8-3.8L8.1,21.6L8.1,21.6z"
	/>
</svg>
