<svg width="37" height="37" viewBox="0 0 37 37" fill="none" xmlns="http://www.w3.org/2000/svg">
<path d="M28.5407 0.206238H4.32919C3.25898 0.206238 2.2326 0.631379 1.47584 1.38813C0.719086 2.14489 0.293945 3.17127 0.293945 4.24149V32.4882C0.293945 33.5584 0.719086 34.5848 1.47584 35.3416C2.2326 36.0983 3.25898 36.5235 4.32919 36.5235H32.5759C33.6452 36.5203 34.6697 36.0941 35.4258 35.3381C36.1818 34.582 36.608 33.5575 36.6112 32.4882V8.27674L28.5407 0.206238ZM18.4526 32.4882C17.2554 32.4882 16.0852 32.1332 15.0898 31.4681C14.0944 30.803 13.3186 29.8577 12.8604 28.7517C12.4023 27.6457 12.2824 26.4286 12.516 25.2545C12.7495 24.0804 13.326 23.0018 14.1725 22.1553C15.019 21.3088 16.0976 20.7323 17.2717 20.4988C18.4459 20.2652 19.6629 20.3851 20.7689 20.8432C21.8749 21.3014 22.8202 22.0772 23.4853 23.0726C24.1504 24.068 24.5054 25.2382 24.5054 26.4354C24.5054 28.0407 23.8677 29.5803 22.7326 30.7154C21.5975 31.8505 20.0579 32.4882 18.4526 32.4882ZM24.5054 12.312H4.32919V4.24149H24.5054V12.312Z" fill="#335DFF"/>
</svg>
