<svg width="42" height="44" viewBox="0 0 42 44" fill="none" xmlns="http://www.w3.org/2000/svg">
<path d="M36.971 23.7564C37.0636 23.0579 37.1128 22.3542 37.1185 21.6494C37.1128 20.9446 37.0636 20.2408 36.971 19.5424L41.4174 15.9949C41.6137 15.8342 41.7471 15.607 41.7935 15.3547C41.8399 15.1023 41.7962 14.8413 41.6703 14.6189L37.4557 7.17994C37.3315 6.95812 37.1339 6.78868 36.8983 6.70201C36.6627 6.61533 36.4046 6.61708 36.1702 6.70694L30.923 8.85693C29.8337 7.99511 28.6359 7.28645 27.3617 6.74994L26.5609 1.05247C26.5261 0.799504 26.4019 0.568206 26.2118 0.401959C26.0217 0.235712 25.7787 0.145937 25.5284 0.149473H17.0991C16.8488 0.145937 16.6058 0.235712 16.4157 0.401959C16.2256 0.568206 16.1014 0.799504 16.0666 1.05247L15.2658 6.74994C13.9956 7.2948 12.7989 8.00285 11.7045 8.85693L6.45728 6.70694C6.22342 6.61149 5.96336 6.60692 5.72641 6.69411C5.48947 6.78129 5.29213 6.95416 5.17183 7.17994L0.957223 14.6189C0.828247 14.8404 0.782779 15.1023 0.82932 15.3556C0.875861 15.6088 1.01123 15.8361 1.2101 15.9949L5.65651 19.5424C5.5647 20.2409 5.51544 20.9446 5.50899 21.6494C5.51544 22.3541 5.5647 23.0578 5.65651 23.7564L1.2101 27.3038C1.01381 27.4646 0.88041 27.6917 0.834026 27.9441C0.787642 28.1965 0.831344 28.4575 0.957223 28.6798L5.17183 36.1188C5.29605 36.3406 5.49365 36.5101 5.72921 36.5967C5.96476 36.6834 6.22287 36.6817 6.45728 36.5918L11.7045 34.4418C12.7938 35.3036 13.9916 36.0123 15.2658 36.5488L16.0666 42.2463C16.1014 42.4992 16.2256 42.7305 16.4157 42.8968C16.6058 43.063 16.8488 43.1528 17.0991 43.1493H25.5284C25.7787 43.1528 26.0217 43.063 26.2118 42.8968C26.4019 42.7305 26.5261 42.4992 26.5609 42.2463L27.3617 36.5488C28.6319 36.0039 29.8286 35.2959 30.923 34.4418L36.1702 36.5918C36.4041 36.6873 36.6642 36.6918 36.9011 36.6046C37.138 36.5175 37.3354 36.3446 37.4557 36.1188L41.6703 28.6798C41.7962 28.4575 41.8399 28.1965 41.7935 27.9441C41.7471 27.6917 41.6137 27.4646 41.4174 27.3038L36.971 23.7564ZM21.3138 29.1743C19.855 29.1743 18.429 28.733 17.2161 27.9062C16.0032 27.0793 15.0579 25.9041 14.4996 24.529C13.9414 23.154 13.7953 21.641 14.0799 20.1813C14.3645 18.7216 15.067 17.3808 16.0984 16.3284C17.1299 15.276 18.4441 14.5593 19.8749 14.269C21.3056 13.9786 22.7885 14.1277 24.1363 14.6972C25.484 15.2668 26.6359 16.2312 27.4463 17.4687C28.2567 18.7062 28.6893 20.1611 28.6893 21.6494C28.6893 23.6451 27.9122 25.5591 26.5291 26.9703C25.1459 28.3815 23.2699 29.1743 21.3138 29.1743Z" fill="#335DFF"/>
</svg>
