<svg width="38" height="42" viewBox="0 0 38 42" fill="none" xmlns="http://www.w3.org/2000/svg">
<path d="M31.2352 29.4479C29.749 29.4545 28.3188 30.0163 27.2255 31.0232L12.6391 22.5332C12.7519 22.0639 12.8136 21.5837 12.8232 21.1012C12.8136 20.6186 12.7519 20.1384 12.6391 19.6691L27.0618 11.2609C28.0945 12.2167 29.4247 12.7876 30.8289 12.8777C32.233 12.9678 33.6253 12.5715 34.7716 11.7556C35.9179 10.9397 36.7482 9.75389 37.1229 8.39767C37.4975 7.04146 37.3937 5.59759 36.8288 4.30895C36.2639 3.02031 35.2725 1.96553 34.0212 1.32204C32.77 0.678557 31.3353 0.485634 29.9585 0.775726C28.5817 1.06582 27.3468 1.82122 26.4616 2.91487C25.5764 4.00851 25.0948 5.37366 25.0979 6.78067C25.1075 7.26326 25.1692 7.7434 25.282 8.21272L10.8592 16.6209C9.98569 15.803 8.8921 15.2584 7.71304 15.054C6.53398 14.8496 5.32088 14.9943 4.22301 15.4704C3.12514 15.9465 2.19039 16.7331 1.53378 17.7335C0.877171 18.734 0.527344 19.9045 0.527344 21.1012C0.527344 22.2978 0.877171 23.4683 1.53378 24.4688C2.19039 25.4692 3.12514 26.2558 4.22301 26.7319C5.32088 27.208 6.53398 27.3527 7.71304 27.1483C8.8921 26.9439 9.98569 26.3993 10.8592 25.5814L25.4252 34.0919C25.3192 34.5273 25.2643 34.9735 25.2616 35.4216C25.2616 36.6031 25.6119 37.7581 26.2683 38.7404C26.9247 39.7228 27.8577 40.4885 28.9492 40.9406C30.0408 41.3927 31.2419 41.511 32.4007 41.2805C33.5594 41.05 34.6238 40.4811 35.4593 39.6457C36.2947 38.8102 36.8636 37.7458 37.0941 36.587C37.3246 35.4283 37.2063 34.2272 36.7542 33.1356C36.3021 32.0441 35.5364 31.1111 34.554 30.4547C33.5717 29.7983 32.4167 29.4479 31.2352 29.4479Z" fill="#335DFF"/>
</svg>
