<svg width="200" height="196" viewBox="0 0 200 196" fill="none" xmlns="http://www.w3.org/2000/svg">
<path d="M0.486328 64.7587V131.178H44.7661L100.116 186.528V9.40893L44.7661 64.7587H0.486328ZM149.931 97.9686C149.928 88.6933 147.337 79.6029 142.447 71.721C137.558 63.8392 130.565 57.479 122.256 53.3566V142.47C130.569 138.383 137.569 132.046 142.461 124.179C147.353 116.313 149.941 107.232 149.931 97.9686V97.9686ZM122.256 0.885071V23.6892C138.263 28.446 152.306 38.2469 162.292 51.6317C172.278 65.0165 177.672 81.2691 177.672 97.9686C177.672 114.668 172.278 130.921 162.292 144.305C152.306 157.69 138.263 167.491 122.256 172.248V195.052C144.262 190.047 163.914 177.714 177.992 160.074C192.07 142.435 199.737 120.537 199.737 97.9686C199.737 75.4005 192.07 53.5019 177.992 35.8628C163.914 18.2236 144.262 5.89044 122.256 0.885071V0.885071Z" fill="white"/>
</svg>
