<svg width="50" height="45" viewBox="0 0 50 45" fill="none" xmlns="http://www.w3.org/2000/svg">
<path d="M0.634766 44.4745H9.46156V17.9941H0.634766V44.4745ZM49.1821 20.2008C49.1786 19.0313 48.7125 17.9108 47.8856 17.0839C47.0587 16.257 45.9382 15.7909 44.7687 15.7874H30.8445L32.9408 5.70276L33.007 4.99662C33.0051 4.11928 32.656 3.27836 32.0361 2.65752L29.697 0.340485L15.1769 14.8826C14.762 15.2872 14.4329 15.7713 14.2093 16.3058C13.9856 16.8404 13.8719 17.4146 13.875 17.9941V40.0611C13.8784 41.2305 14.3446 42.351 15.1715 43.1779C15.9984 44.0049 17.1189 44.471 18.2884 44.4745H38.1486C39.0158 44.4775 39.8644 44.2234 40.5871 43.7442C41.3098 43.265 41.8742 42.5822 42.209 41.7823L48.8732 26.2251C49.0771 25.7125 49.182 25.1658 49.1821 24.6142V20.3994L49.1601 20.3773L49.1821 20.2008Z" fill="#335DFF"/>
</svg>
