<svg width="30" height="35" viewBox="0 0 30 35" fill="none" xmlns="http://www.w3.org/2000/svg">
<path d="M24.3824 3.9V2.2C24.3824 1.74913 24.2026 1.31673 23.8827 0.997918C23.5628 0.679107 23.1289 0.5 22.6765 0.5H2.20588C1.75345 0.5 1.31956 0.679107 0.999642 0.997918C0.679727 1.31673 0.5 1.74913 0.5 2.2V9C0.5 9.45087 0.679727 9.88327 0.999642 10.2021C1.31956 10.5209 1.75345 10.7 2.20588 10.7H22.6765C23.1289 10.7 23.5628 10.5209 23.8827 10.2021C24.2026 9.88327 24.3824 9.45087 24.3824 9V7.3H26.0882V14.1H9.02941V32.8C9.02941 33.2509 9.20914 33.6833 9.52905 34.0021C9.84897 34.3209 10.2829 34.5 10.7353 34.5H14.1471C14.5995 34.5 15.0334 34.3209 15.3533 34.0021C15.6732 33.6833 15.8529 33.2509 15.8529 32.8V17.5H29.5V3.9H24.3824Z" fill="white"/>
</svg>
