<svg width="30" height="35" viewBox="0 0 30 35" fill="none" xmlns="http://www.w3.org/2000/svg">
<path d="M24.0181 3.77109V2.07109C24.0181 1.62023 23.8384 1.18782 23.5185 0.869012C23.1985 0.5502 22.7646 0.371094 22.3122 0.371094H1.84162C1.3892 0.371094 0.955299 0.5502 0.635384 0.869012C0.315469 1.18782 0.135742 1.62023 0.135742 2.07109V8.87109C0.135742 9.32196 0.315469 9.75436 0.635384 10.0732C0.955299 10.392 1.3892 10.5711 1.84162 10.5711H22.3122C22.7646 10.5711 23.1985 10.392 23.5185 10.0732C23.8384 9.75436 24.0181 9.32196 24.0181 8.87109V7.17109H25.724V13.9711H8.66515V32.6711C8.66515 33.122 8.84488 33.5544 9.1648 33.8732C9.48471 34.192 9.91861 34.3711 10.371 34.3711H13.7828C14.2352 34.3711 14.6691 34.192 14.989 33.8732C15.309 33.5544 15.4887 33.122 15.4887 32.6711V17.3711H29.1357V3.77109H24.0181Z" fill="#3D3D3D"/>
</svg>
