<svg width="24" height="28" viewBox="0 0 24 28" fill="none" xmlns="http://www.w3.org/2000/svg">
<path d="M19.1081 2.70817V1.35482C19.1081 0.995887 18.9643 0.651656 18.7084 0.397853C18.4525 0.14405 18.1053 0.00146484 17.7434 0.00146484H1.36668C1.00473 0.00146484 0.657608 0.14405 0.401672 0.397853C0.145737 0.651656 0.00195313 0.995887 0.00195312 1.35482V6.76823C0.00195312 7.12716 0.145737 7.47139 0.401672 7.7252C0.657608 7.979 1.00473 8.12158 1.36668 8.12158H17.7434C18.1053 8.12158 18.4525 7.979 18.7084 7.7252C18.9643 7.47139 19.1081 7.12716 19.1081 6.76823V5.41488H20.4728V10.8283H6.82558V25.7152C6.82558 26.0741 6.96937 26.4183 7.2253 26.6721C7.48124 26.9259 7.82836 27.0685 8.19031 27.0685H10.9198C11.2817 27.0685 11.6288 26.9259 11.8848 26.6721C12.1407 26.4183 12.2845 26.0741 12.2845 25.7152V13.535H23.2023V2.70817H19.1081Z" fill="#1037D0"/>
</svg>
