<svg width="17" height="17" viewBox="0 0 17 17" fill="none" xmlns="http://www.w3.org/2000/svg">
<path d="M12.1553 10.699H11.3883L11.1165 10.4369C12.1811 9.19646 12.7238 7.59182 12.6305 5.95984C12.5373 4.32786 11.8154 2.79547 10.6164 1.68442C9.41735 0.573358 7.83451 -0.0299546 6.20016 0.00114529C4.56581 0.0322452 3.00707 0.695338 1.85121 1.85121C0.695338 3.00707 0.0322452 4.56581 0.00114529 6.20016C-0.0299546 7.83451 0.573358 9.41735 1.68442 10.6164C2.79547 11.8154 4.32786 12.5373 5.95984 12.6305C7.59182 12.7238 9.19646 12.1811 10.4369 11.1165L10.699 11.3883V12.1553L15.5534 17L17 15.5534L12.1553 10.699ZM6.33006 10.699C5.46597 10.699 4.62127 10.4428 3.9028 9.96271C3.18433 9.48264 2.62436 8.80031 2.29368 8.00198C1.96301 7.20366 1.87649 6.32521 2.04506 5.47772C2.21364 4.63023 2.62974 3.85176 3.24075 3.24075C3.85176 2.62974 4.63023 2.21364 5.47772 2.04506C6.32521 1.87649 7.20366 1.96301 8.00198 2.29368C8.80031 2.62436 9.48264 3.18433 9.96271 3.9028C10.4428 4.62127 10.699 5.46597 10.699 6.33006C10.6998 6.90402 10.5873 7.47248 10.368 8.00289C10.1487 8.5333 9.82693 9.01524 9.42108 9.42108C9.01524 9.82693 8.5333 10.1487 8.00289 10.368C7.47248 10.5873 6.90402 10.6998 6.33006 10.699ZM8.75725 6.8155H6.8155V8.75725H5.84462V6.8155H3.90287V5.84462H5.84462V3.90287H6.8155V5.84462H8.75725V6.8155Z" fill="black"/>
</svg>
