<svg width="61" height="45" viewBox="0 0 61 45" fill="none" xmlns="http://www.w3.org/2000/svg">
<path d="M44.3144 22.5C45.7978 22.5 47.2479 22.0287 48.4812 21.1457C49.7146 20.2628 50.6759 19.0078 51.2435 17.5394C51.8112 16.0711 51.9597 14.4554 51.6703 12.8966C51.381 11.3378 50.6666 9.906 49.6177 8.78218C48.5689 7.65837 47.2325 6.89304 45.7776 6.58298C44.3228 6.27292 42.8148 6.43205 41.4443 7.04026C40.0739 7.64846 38.9025 8.67842 38.0784 9.99989C37.2543 11.3214 36.8144 12.875 36.8144 14.4643C36.8113 15.5205 37.0031 16.567 37.3789 17.5434C37.7547 18.5199 38.307 19.4071 39.0041 20.154C39.7012 20.9008 40.5292 21.4926 41.4406 21.8952C42.352 22.2979 43.3286 22.5034 44.3144 22.5ZM21.8145 19.2857C23.5945 19.2857 25.3345 18.7202 26.8146 17.6606C28.2946 16.601 29.4482 15.095 30.1294 13.333C30.8106 11.571 30.9888 9.63216 30.6415 7.76163C30.2943 5.8911 29.4371 4.17291 28.1784 2.82433C26.9197 1.47575 25.3161 0.557361 23.5703 0.185289C21.8244 -0.186783 20.0148 0.00417817 18.3703 0.734023C16.7258 1.46387 15.3202 2.69982 14.3312 4.28558C13.3423 5.87134 12.8145 7.73568 12.8145 9.64286C12.8093 10.9107 13.0386 12.1671 13.489 13.3396C13.9395 14.512 14.6022 15.5772 15.439 16.4737C16.2757 17.3702 17.2699 18.0803 18.3642 18.563C19.4585 19.0456 20.6311 19.2912 21.8145 19.2857ZM44.3144 28.9286C38.8244 28.9286 27.8145 31.8857 27.8145 37.7679V45H60.8145V37.7679C60.8145 31.8857 49.8044 28.9286 44.3144 28.9286ZM21.8145 25.7143C14.8245 25.7143 0.814453 29.475 0.814453 36.9643V45H21.8145V37.7679C21.8968 35.3794 22.6081 33.0647 23.8663 31.0911C25.1244 29.1174 26.878 27.5654 28.9245 26.6143C26.5873 26.0677 24.2061 25.7663 21.8145 25.7143Z" fill="#3D3D3D"/>
</svg>
