<svg width="36" height="25" viewBox="0 0 36 25" fill="none" xmlns="http://www.w3.org/2000/svg">
<path d="M25.5146 12.501C26.3749 12.501 27.216 12.2445 27.9313 11.764C28.6467 11.2835 29.2042 10.6005 29.5335 9.8014C29.8627 9.00232 29.9489 8.12304 29.781 7.27475C29.6132 6.42645 29.1989 5.64725 28.5905 5.03566C27.9821 4.42407 27.207 4.00758 26.3632 3.83884C25.5194 3.6701 24.6447 3.75671 23.8499 4.08769C23.055 4.41868 22.3756 4.97919 21.8976 5.69834C21.4196 6.41749 21.1645 7.26298 21.1645 8.12789C21.1626 8.70269 21.2739 9.27218 21.4919 9.80358C21.7098 10.335 22.0302 10.8178 22.4345 11.2242C22.8388 11.6307 23.3191 11.9527 23.8477 12.1719C24.3763 12.391 24.9428 12.5028 25.5146 12.501ZM12.4644 10.7517C13.4968 10.7517 14.506 10.444 15.3645 9.86734C16.2229 9.29072 16.892 8.47114 17.2871 7.51225C17.6822 6.55336 17.7856 5.49822 17.5841 4.48027C17.3827 3.46232 16.8856 2.52727 16.1555 1.79336C15.4255 1.05946 14.4953 0.559667 13.4827 0.357183C12.4701 0.1547 11.4206 0.258621 10.4667 0.655807C9.51288 1.05299 8.69761 1.7256 8.12402 2.58858C7.55043 3.45156 7.24428 4.46615 7.24428 5.50405C7.24129 6.19403 7.37427 6.87777 7.63554 7.51581C7.89681 8.15385 8.28121 8.73354 8.76653 9.22144C9.25186 9.70933 9.82851 10.0958 10.4632 10.3584C11.0979 10.6211 11.778 10.7548 12.4644 10.7517ZM25.5146 15.9994C22.3303 15.9994 15.9444 17.6087 15.9444 20.8098V24.7456H35.0847V20.8098C35.0847 17.6087 28.6988 15.9994 25.5146 15.9994ZM12.4644 14.2502C8.4101 14.2502 0.28418 16.2968 0.28418 20.3725V24.7456H12.4644V20.8098C12.5121 19.51 12.9247 18.2503 13.6544 17.1763C14.3842 16.1022 15.4012 15.2576 16.5882 14.74C15.2327 14.4426 13.8515 14.2785 12.4644 14.2502Z" fill="#1037D0"/>
</svg>
