<svg width="72" height="71" viewBox="0 0 72 71" fill="none" xmlns="http://www.w3.org/2000/svg">
<path fill-rule="evenodd" clip-rule="evenodd" d="M36.7917 7.08393L65.167 63.2994C65.5027 63.9645 65.0193 64.75 64.2743 64.75H7.52377C6.77873 64.75 6.29533 63.9645 6.63105 63.2994L35.0063 7.08393C35.376 6.3514 36.422 6.35141 36.7917 7.08393ZM29.65 4.38028C32.2382 -0.747371 39.5598 -0.747377 42.1481 4.38027L70.5233 60.5957C72.8734 65.2515 69.4896 70.75 64.2743 70.75H7.52377C2.30847 70.75 -1.07534 65.2515 1.27472 60.5957L29.65 4.38028ZM36.211 57.4734C33.955 57.4734 32.083 55.7934 32.083 53.4414C32.083 51.1374 33.955 49.4574 36.211 49.4574C38.467 49.4574 40.387 51.1374 40.387 53.4414C40.387 55.7934 38.467 57.4734 36.211 57.4734ZM36.259 23.7294C38.227 23.7294 40.003 25.1214 39.859 26.9454L39.091 44.8014C39.043 46.1934 37.795 47.2974 36.259 47.2974C34.771 47.2974 33.475 46.1934 33.427 44.8014L32.659 26.9454C32.563 25.1694 34.387 23.7294 36.259 23.7294Z" fill="white"/>
</svg>
