<svg width="416" height="533" viewBox="0 0 416 533" fill="none" xmlns="http://www.w3.org/2000/svg">
<path d="M-42 395.171H397C400.866 395.171 404 398.305 404 402.171C404 406.037 400.866 409.171 397 409.171H-42C-45.866 409.171 -49 406.037 -49 402.171C-49 398.305 -45.866 395.171 -42 395.171Z" fill="#F27500"/>
<path d="M5.91519 420.171L216 402.328L169.093 397.48L-12.0493 388.171L-37 402.328L5.91519 420.171Z" fill="#F27500"/>
<path d="M124.71 381.72C124.71 312.659 39.4796 292.209 -3.13561 290.616L-121.115 321.114V604.611H339.443C339.443 376.818 124.71 468.047 124.71 381.72Z" fill="white"/>
<g filter="url(#filter0_i)">
<g clip-path="url(#clip0)" filter="url(#filter1_i)">
<path d="M243.864 369.511C216.294 346.223 197.932 304.747 197.932 257.452C197.932 184.617 241.486 125.575 295.203 125.575C348.921 125.575 392.475 184.617 392.475 257.452C392.475 303.973 374.708 344.855 347.884 368.336" fill="#3BDBA1"/>
<path d="M297.139 192.592C349.639 192.592 392.198 150.051 392.198 97.5743C392.198 45.0976 349.639 2.55688 297.139 2.55688C244.639 2.55688 202.079 45.0976 202.079 97.5743C202.079 150.051 244.639 192.592 297.139 192.592Z" fill="#3BDBA1"/>
<path d="M364.074 164.923L378.012 152.802C378.162 152.676 378.267 152.504 378.311 152.312C378.354 152.12 378.334 151.92 378.252 151.741C378.17 151.562 378.032 151.415 377.859 151.322C377.686 151.229 377.487 151.196 377.293 151.226L375.302 151.517L384.98 142.616C385.126 142.481 385.223 142.302 385.256 142.107C385.29 141.911 385.257 141.71 385.164 141.535C385.071 141.36 384.922 141.22 384.741 141.138C384.561 141.057 384.358 141.037 384.165 141.082L381.178 141.801" fill="#3BDBA1"/>
<path d="M227.797 162.767L214.233 150.162C214.094 150.029 214.001 149.855 213.969 149.665C213.936 149.476 213.966 149.28 214.052 149.109C214.139 148.937 214.279 148.797 214.451 148.711C214.623 148.624 214.818 148.595 215.007 148.628L216.985 148.987L207.61 139.755C207.468 139.616 207.376 139.433 207.349 139.235C207.322 139.038 207.362 138.837 207.461 138.664C207.561 138.492 207.716 138.357 207.9 138.282C208.085 138.207 208.289 138.195 208.481 138.249L211.44 139.05" fill="#3BDBA1"/>
<path d="M299.502 99.8546L308.531 112.293C308.72 112.486 308.868 112.714 308.966 112.965C309.065 113.215 309.113 113.483 309.106 113.752C309.1 114.021 309.039 114.286 308.929 114.532C308.818 114.778 308.66 114.998 308.462 115.182L298.908 131.269C298.513 131.643 297.986 131.846 297.442 131.833C296.898 131.82 296.381 131.593 296.004 131.2L286.975 114.615C286.592 114.229 286.377 113.708 286.377 113.164C286.377 112.62 286.592 112.099 286.975 111.713L296.544 99.8685C296.732 99.6641 296.96 99.5007 297.214 99.3886C297.468 99.2764 297.742 99.2179 298.02 99.2166C298.298 99.2153 298.573 99.2713 298.828 99.3811C299.083 99.4909 299.313 99.6521 299.502 99.8546Z" fill="#FDE01B"/>
<path d="M290.115 115.102C289.778 114.721 289.592 114.229 289.592 113.72C289.592 113.211 289.778 112.72 290.115 112.338C290.115 112.338 297.242 102.487 298.164 101.564C299.085 100.642 298.624 99.489 298.624 99.489C297.933 98.7012 296.351 99.4296 295.632 100.19L286.872 111.71C286.532 112.09 286.411 112.863 286.411 113.093C286.411 113.324 286.546 114.136 286.872 114.477C287.198 114.817 294.437 129.263 295.148 130.347C295.859 131.43 297.455 132.184 297.703 131.77C297.95 131.356 297.703 130.047 297.703 130.047C297.485 129.776 297.188 129.342 297.028 129.034L290.115 115.102Z" fill="#F2D405"/>
<g filter="url(#filter2_i)">
<path d="M333.06 105.801C348.346 105.801 360.738 93.402 360.738 78.107C360.738 62.8119 348.346 50.4128 333.06 50.4128C317.774 50.4128 305.383 62.8119 305.383 78.107C305.383 93.402 317.774 105.801 333.06 105.801Z" fill="white"/>
</g>
<path fill-rule="evenodd" clip-rule="evenodd" d="M336.147 61.9268C335.107 61.7189 334.03 61.6099 332.928 61.6099C323.896 61.6099 316.573 68.9366 316.573 77.9746C316.573 87.0126 323.896 94.3393 332.928 94.3393C341.961 94.3393 349.283 87.0126 349.283 77.9746C349.283 74.7722 348.364 71.7846 346.775 69.2617C345.602 70.8874 343.693 71.9456 341.536 71.9456C337.97 71.9456 335.08 69.0534 335.08 65.4858C335.08 64.1706 335.473 62.9473 336.147 61.9268Z" fill="black"/>
<g filter="url(#filter3_i)">
<path d="M262.476 105.801C277.762 105.801 290.154 93.402 290.154 78.107C290.154 62.8119 277.762 50.4128 262.476 50.4128C247.19 50.4128 234.799 62.8119 234.799 78.107C234.799 93.402 247.19 105.801 262.476 105.801Z" fill="white"/>
</g>
<path d="M340.623 17.2747L378.523 55.7102C378.821 56.0102 379.199 56.2185 379.612 56.3103C380.025 56.4021 380.456 56.3736 380.853 56.2281C381.251 56.0826 381.598 55.8263 381.854 55.4895C382.11 55.1528 382.264 54.7497 382.297 54.3281V3.84098C382.33 3.49863 382.282 3.15349 382.157 2.83298C382.032 2.51248 381.835 2.22543 381.58 1.99466C381.325 1.76389 381.019 1.59579 380.688 1.50363C380.356 1.41148 380.008 1.39783 379.67 1.46382L341.799 13.5293C341.397 13.5952 341.021 13.7713 340.714 14.0381C340.406 14.3049 340.179 14.6518 340.057 15.0402C339.935 15.4285 339.923 15.8431 340.023 16.2377C340.123 16.6322 340.331 16.9912 340.623 17.2747V17.2747Z" fill="#3BDBA1"/>
<path d="M352.17 19.5841L373.491 41.1858C373.655 41.3569 373.864 41.4772 374.095 41.5321C374.325 41.5871 374.566 41.5744 374.79 41.4956C375.013 41.4168 375.209 41.2752 375.354 41.0879C375.499 40.9006 375.586 40.6755 375.606 40.4396L375.15 9.79902C375.176 9.60276 375.155 9.40316 375.088 9.2168C375.021 9.03044 374.911 8.86271 374.766 8.72754C374.621 8.59237 374.446 8.4937 374.256 8.43968C374.065 8.38566 373.865 8.37785 373.671 8.41695L352.806 17.4557C352.579 17.4962 352.368 17.5988 352.196 17.7522C352.024 17.9055 351.898 18.1035 351.832 18.3242C351.766 18.5448 351.763 18.7794 351.823 19.0019C351.882 19.2243 352.002 19.4259 352.17 19.5841Z" fill="black"/>
<path d="M252.188 17.344L214.233 55.7657C213.937 56.0672 213.56 56.2769 213.147 56.3696C212.734 56.4622 212.303 56.4339 211.906 56.288C211.509 56.1421 211.163 55.8849 210.909 55.5471C210.654 55.2093 210.503 54.8053 210.472 54.3836V3.89651C210.437 3.55346 210.483 3.20692 210.607 2.88497C210.73 2.56301 210.928 2.27467 211.184 2.04323C211.44 1.8118 211.746 1.64376 212.079 1.55275C212.412 1.46174 212.761 1.45031 213.099 1.51935L250.971 13.5848C251.379 13.6425 251.763 13.8136 252.078 14.0787C252.394 14.3439 252.628 14.6923 252.755 15.0843C252.882 15.4762 252.896 15.8959 252.796 16.2955C252.696 16.695 252.485 17.0584 252.188 17.344V17.344Z" fill="#3BDBA1"/>
<path d="M240.642 19.6945L219.321 41.2548C219.157 41.4259 218.947 41.5462 218.717 41.6011C218.486 41.6561 218.245 41.6434 218.022 41.5646C217.798 41.4858 217.602 41.3442 217.458 41.1569C217.313 40.9695 217.225 40.7444 217.205 40.5085L217.647 9.868C217.622 9.67175 217.643 9.47214 217.71 9.28579C217.777 9.09943 217.887 8.93169 218.032 8.79653C218.176 8.66136 218.351 8.56264 218.542 8.50862C218.732 8.4546 218.933 8.44684 219.127 8.48593L240.006 17.5247C240.245 17.5535 240.47 17.6518 240.654 17.8074C240.837 17.963 240.971 18.169 241.039 18.4C241.107 18.631 241.105 18.8768 241.035 19.1069C240.964 19.337 240.827 19.5413 240.642 19.6945V19.6945Z" fill="black"/>
<path d="M300.18 2.61206L318.639 1.97628C318.831 1.97217 319.019 2.02981 319.176 2.14073C319.333 2.25165 319.451 2.41002 319.511 2.59254C319.571 2.77505 319.572 2.97209 319.512 3.15472C319.452 3.33735 319.335 3.49589 319.178 3.60711L317.532 4.75426L330.682 4.6575C330.883 4.6519 331.081 4.71431 331.243 4.83465C331.405 4.95499 331.522 5.12628 331.574 5.32095C331.627 5.51562 331.613 5.72235 331.533 5.90785C331.454 6.09336 331.315 6.24685 331.138 6.34363L328.469 7.85008" fill="#3BDBA1"/>
<path d="M264.162 8.44418L282.372 0.566402C282.555 0.491339 282.758 0.478832 282.949 0.530846C283.14 0.58286 283.309 0.696488 283.429 0.854052C283.548 1.01162 283.613 1.20429 283.612 1.40219C283.611 1.60009 283.544 1.79214 283.423 1.94847L281.985 3.77282" fill="#F27500"/>
<path d="M264.162 8.4437L282.372 0.565914C282.555 0.49085 282.758 0.478344 282.949 0.530358C283.14 0.582372 283.309 0.696 283.429 0.853564C283.548 1.01113 283.613 1.2038 283.612 1.4017C283.611 1.5996 283.544 1.79165 283.423 1.94799L281.985 3.77233" fill="#3BDBA1"/>
<path d="M283.796 3.51061L301.937 0.0277622C302.125 -0.00455704 302.318 0.0237963 302.489 0.108659C302.66 0.193521 302.799 0.330502 302.887 0.499812C302.975 0.669123 303.006 0.861946 302.977 1.0504C302.948 1.23885 302.86 1.41315 302.725 1.54805L301.342 2.93012" fill="#3BDBA1"/>
<path fill-rule="evenodd" clip-rule="evenodd" d="M265.777 61.8112C264.939 61.6787 264.08 61.6099 263.204 61.6099C254.172 61.6099 246.85 68.9366 246.85 77.9746C246.85 87.0126 254.172 94.3393 263.204 94.3393C272.237 94.3393 279.559 87.0126 279.559 77.9746C279.559 74.4347 278.436 71.1574 276.527 68.48C275.476 70.54 273.373 71.9456 270.951 71.9456C267.477 71.9456 264.661 69.0534 264.661 65.4858C264.661 64.1206 265.074 62.8544 265.777 61.8112Z" fill="black"/>
<path d="M357.515 109.352C357.515 110.548 356.969 111.725 355.904 112.838C354.836 113.954 353.268 114.982 351.291 115.856C347.339 117.603 341.845 118.696 335.749 118.696C329.653 118.696 324.158 117.603 320.206 115.856C318.23 114.982 316.661 113.954 315.594 112.838C314.528 111.725 313.982 110.548 313.982 109.352C313.982 108.156 314.528 106.979 315.594 105.866C316.661 104.75 318.23 103.722 320.206 102.848C324.158 101.101 329.653 100.007 335.749 100.007C341.845 100.007 347.339 101.101 351.291 102.848C353.268 103.722 354.836 104.75 355.904 105.866C356.969 106.979 357.515 108.156 357.515 109.352Z" fill="#3BDBA1" stroke="#3BDBA1"/>
<path d="M282.274 109.352C282.274 110.548 281.728 111.725 280.663 112.838C279.595 113.954 278.027 114.982 276.05 115.856C272.098 117.603 266.603 118.696 260.508 118.696C254.412 118.696 248.917 117.603 244.965 115.856C242.988 114.982 241.42 113.954 240.352 112.838C239.287 111.725 238.741 110.548 238.741 109.352C238.741 108.156 239.287 106.979 240.352 105.866C241.42 104.75 242.988 103.722 244.965 102.848C248.917 101.101 254.412 100.007 260.508 100.007C266.603 100.007 272.098 101.101 276.05 102.848C278.027 103.722 279.595 104.75 280.663 105.866C281.728 106.979 282.274 108.156 282.274 109.352Z" fill="#3BDBA1" stroke="#3BDBA1"/>
<path d="M254.149 249.948C260.141 255.559 274.52 262.399 284.107 244.875C283.185 245.567 298.164 269.778 312.22 244.875C313.142 244.875 326.969 269.778 339.643 244.875" stroke="#43EDB0" stroke-width="4" stroke-linecap="round" stroke-linejoin="round"/>
</g>
<path d="M351.096 397.477V386.906C351.096 383.085 348 379.987 344.181 379.987C340.363 379.987 337.267 383.085 337.267 386.906V397.477C337.267 401.298 340.363 404.396 344.181 404.396C348 404.396 351.096 401.298 351.096 397.477Z" fill="#FDE01B"/>
<path d="M338.648 397.477V386.906C338.648 383.085 335.553 379.987 331.734 379.987C327.916 379.987 324.82 383.085 324.82 386.906V397.477C324.82 401.298 327.916 404.396 331.734 404.396C335.553 404.396 338.648 401.298 338.648 397.477Z" fill="#FDE01B"/>
<path d="M326.203 397.975V387.404C326.203 383.583 323.107 380.485 319.289 380.485C315.47 380.485 312.375 383.583 312.375 387.404V397.975C312.375 401.796 315.47 404.894 319.289 404.894C323.107 404.894 326.203 401.796 326.203 397.975Z" fill="#FDE01B"/>
<path d="M284.871 396.384V385.812C284.871 381.991 281.775 378.894 277.957 378.894C274.138 378.894 271.043 381.991 271.043 385.812V396.384C271.043 400.205 274.138 403.302 277.957 403.302C281.775 403.302 284.871 400.205 284.871 396.384Z" fill="#FDE01B"/>
<path d="M272.426 396.384V385.812C272.426 381.991 269.33 378.894 265.511 378.894C261.693 378.894 258.597 381.991 258.597 385.812V396.384C258.597 400.205 261.693 403.302 265.511 403.302C269.33 403.302 272.426 400.205 272.426 396.384Z" fill="#FDE01B"/>
<path d="M259.992 396.882V386.31C259.992 382.489 256.897 379.392 253.078 379.392C249.259 379.392 246.164 382.489 246.164 386.31V396.882C246.164 400.703 249.259 403.8 253.078 403.8C256.897 403.8 259.992 400.703 259.992 396.882Z" fill="#FDE01B"/>
<path d="M340.54 362.12C340.54 359.542 336.463 357.453 331.434 357.453C326.404 357.453 322.327 359.542 322.327 362.12V385.093C322.327 387.67 326.404 389.759 331.434 389.759C336.463 389.759 340.54 387.67 340.54 385.093V362.12Z" fill="#FDE01B"/>
<path d="M273.484 362.12C273.484 359.542 269.592 357.453 264.791 357.453C259.99 357.453 256.099 359.542 256.099 362.12V385.093C256.099 387.67 259.99 389.759 264.791 389.759C269.592 389.759 273.484 387.67 273.484 385.093V362.12Z" fill="#FDE01B"/>
<g filter="url(#filter4_d)">
<path d="M316.882 260.722L307.094 182.515L297.882 182.532L289.088 182.515L279.271 260.721L297.985 286.764L307.338 273.994L316.882 260.722Z" fill="#EB3F6D"/>
</g>
<g filter="url(#filter5_d)">
<path d="M307.262 182.448L309.706 163.494L286.059 163.455L288.887 182.448H307.262Z" fill="#EB3F6D"/>
</g>
</g>
<g filter="url(#filter6_d)">
<path d="M238.989 262.501C231.89 296.889 215.628 326.148 194.769 346.121C181.102 318.523 176.467 282.45 184.162 245.135C191.263 210.733 207.523 181.488 228.384 161.501C242.042 189.07 246.691 225.145 238.989 262.501Z" fill="#43EDB0"/>
</g>
<g filter="url(#filter7_d)">
<path d="M408.814 256.68C413.249 291.513 407.354 324.468 394.099 350.132C372.223 328.463 356.142 295.846 351.323 258.052C346.886 223.205 352.783 190.264 366.036 164.586C387.894 186.229 403.988 218.844 408.814 256.68Z" fill="#43EDB0"/>
</g>
<defs>
<filter id="filter0_i" x="197.461" y="0" width="195" height="432" filterUnits="userSpaceOnUse" color-interpolation-filters="sRGB">
<feFlood flood-opacity="0" result="BackgroundImageFix"/>
<feBlend mode="normal" in="SourceGraphic" in2="BackgroundImageFix" result="shape"/>
<feColorMatrix in="SourceAlpha" type="matrix" values="0 0 0 0 0 0 0 0 0 0 0 0 0 0 0 0 0 0 127 0" result="hardAlpha"/>
<feOffset dy="4"/>
<feGaussianBlur stdDeviation="2"/>
<feComposite in2="hardAlpha" operator="arithmetic" k2="-1" k3="1"/>
<feColorMatrix type="matrix" values="0 0 0 0 0 0 0 0 0 0 0 0 0 0 0 0 0 0 0.25 0"/>
<feBlend mode="normal" in2="shape" result="effect1_innerShadow"/>
</filter>
<filter id="filter1_i" x="197.461" y="-15" width="210" height="443" filterUnits="userSpaceOnUse" color-interpolation-filters="sRGB">
<feFlood flood-opacity="0" result="BackgroundImageFix"/>
<feBlend mode="normal" in="SourceGraphic" in2="BackgroundImageFix" result="shape"/>
<feColorMatrix in="SourceAlpha" type="matrix" values="0 0 0 0 0 0 0 0 0 0 0 0 0 0 0 0 0 0 127 0" result="hardAlpha"/>
<feOffset dx="21" dy="-21"/>
<feGaussianBlur stdDeviation="7.5"/>
<feComposite in2="hardAlpha" operator="arithmetic" k2="-1" k3="1"/>
<feColorMatrix type="matrix" values="0 0 0 0 0 0 0 0 0 0 0 0 0 0 0 0 0 0 0.12 0"/>
<feBlend mode="normal" in2="shape" result="effect1_innerShadow"/>
</filter>
<filter id="filter2_i" x="305.383" y="50.4128" width="55.3549" height="59.3883" filterUnits="userSpaceOnUse" color-interpolation-filters="sRGB">
<feFlood flood-opacity="0" result="BackgroundImageFix"/>
<feBlend mode="normal" in="SourceGraphic" in2="BackgroundImageFix" result="shape"/>
<feColorMatrix in="SourceAlpha" type="matrix" values="0 0 0 0 0 0 0 0 0 0 0 0 0 0 0 0 0 0 127 0" result="hardAlpha"/>
<feOffset dy="4"/>
<feGaussianBlur stdDeviation="2"/>
<feComposite in2="hardAlpha" operator="arithmetic" k2="-1" k3="1"/>
<feColorMatrix type="matrix" values="0 0 0 0 0 0 0 0 0 0 0 0 0 0 0 0 0 0 0.15 0"/>
<feBlend mode="normal" in2="shape" result="effect1_innerShadow"/>
</filter>
<filter id="filter3_i" x="234.799" y="50.4128" width="55.3548" height="59.3883" filterUnits="userSpaceOnUse" color-interpolation-filters="sRGB">
<feFlood flood-opacity="0" result="BackgroundImageFix"/>
<feBlend mode="normal" in="SourceGraphic" in2="BackgroundImageFix" result="shape"/>
<feColorMatrix in="SourceAlpha" type="matrix" values="0 0 0 0 0 0 0 0 0 0 0 0 0 0 0 0 0 0 127 0" result="hardAlpha"/>
<feOffset dy="4"/>
<feGaussianBlur stdDeviation="2"/>
<feComposite in2="hardAlpha" operator="arithmetic" k2="-1" k3="1"/>
<feColorMatrix type="matrix" values="0 0 0 0 0 0 0 0 0 0 0 0 0 0 0 0 0 0 0.15 0"/>
<feBlend mode="normal" in2="shape" result="effect1_innerShadow"/>
</filter>
<filter id="filter4_d" x="277.271" y="182.515" width="41.6103" height="110.25" filterUnits="userSpaceOnUse" color-interpolation-filters="sRGB">
<feFlood flood-opacity="0" result="BackgroundImageFix"/>
<feColorMatrix in="SourceAlpha" type="matrix" values="0 0 0 0 0 0 0 0 0 0 0 0 0 0 0 0 0 0 127 0"/>
<feOffset dy="4"/>
<feGaussianBlur stdDeviation="1"/>
<feColorMatrix type="matrix" values="0 0 0 0 0 0 0 0 0 0 0 0 0 0 0 0 0 0 0.25 0"/>
<feBlend mode="normal" in2="BackgroundImageFix" result="effect1_dropShadow"/>
<feBlend mode="normal" in="SourceGraphic" in2="effect1_dropShadow" result="shape"/>
</filter>
<filter id="filter5_d" x="282.059" y="163.455" width="31.6477" height="26.9928" filterUnits="userSpaceOnUse" color-interpolation-filters="sRGB">
<feFlood flood-opacity="0" result="BackgroundImageFix"/>
<feColorMatrix in="SourceAlpha" type="matrix" values="0 0 0 0 0 0 0 0 0 0 0 0 0 0 0 0 0 0 127 0"/>
<feOffset dy="4"/>
<feGaussianBlur stdDeviation="2"/>
<feColorMatrix type="matrix" values="0 0 0 0 0 0 0 0 0 0 0 0 0 0 0 0 0 0 0.25 0"/>
<feBlend mode="normal" in2="BackgroundImageFix" result="effect1_dropShadow"/>
<feBlend mode="normal" in="SourceGraphic" in2="effect1_dropShadow" result="shape"/>
</filter>
<filter id="filter6_d" x="177.453" y="161.501" width="70.2468" height="192.619" filterUnits="userSpaceOnUse" color-interpolation-filters="sRGB">
<feFlood flood-opacity="0" result="BackgroundImageFix"/>
<feColorMatrix in="SourceAlpha" type="matrix" values="0 0 0 0 0 0 0 0 0 0 0 0 0 0 0 0 0 0 127 0"/>
<feOffset dx="1" dy="4"/>
<feGaussianBlur stdDeviation="2"/>
<feColorMatrix type="matrix" values="0 0 0 0 0 0 0 0 0 0 0 0 0 0 0 0 0 0 0.15 0"/>
<feBlend mode="normal" in2="BackgroundImageFix" result="effect1_dropShadow"/>
<feBlend mode="normal" in="SourceGraphic" in2="effect1_dropShadow" result="shape"/>
</filter>
<filter id="filter7_d" x="346.863" y="164.586" width="68.4101" height="193.546" filterUnits="userSpaceOnUse" color-interpolation-filters="sRGB">
<feFlood flood-opacity="0" result="BackgroundImageFix"/>
<feColorMatrix in="SourceAlpha" type="matrix" values="0 0 0 0 0 0 0 0 0 0 0 0 0 0 0 0 0 0 127 0"/>
<feOffset dx="1" dy="4"/>
<feGaussianBlur stdDeviation="2"/>
<feColorMatrix type="matrix" values="0 0 0 0 0 0 0 0 0 0 0 0 0 0 0 0 0 0 0.15 0"/>
<feBlend mode="normal" in2="BackgroundImageFix" result="effect1_dropShadow"/>
<feBlend mode="normal" in="SourceGraphic" in2="effect1_dropShadow" result="shape"/>
</filter>
<clipPath id="clip0">
<rect width="195" height="428" fill="white" transform="translate(197.461)"/>
</clipPath>
</defs>
</svg>
