<svg width="404" height="533" viewBox="0 0 404 533" fill="none" xmlns="http://www.w3.org/2000/svg">
<path d="M-42 395.171H397C400.866 395.171 404 398.305 404 402.171C404 406.037 400.866 409.171 397 409.171H-42C-45.866 409.171 -49 406.037 -49 402.171C-49 398.305 -45.866 395.171 -42 395.171Z" fill="#F27500"/>
<path d="M5.91519 420.171L216 402.328L169.093 397.48L-12.0493 388.171L-37 402.328L5.91519 420.171Z" fill="#F27500"/>
<path d="M124.71 381.72C124.71 312.659 39.4796 292.209 -3.13561 290.616L-121.115 321.114V604.611H339.443C339.443 376.818 124.71 468.047 124.71 381.72Z" fill="white"/>
<g clip-path="url(#clip0)" filter="url(#filter0_i)">
<path d="M346.598 369.681C374.168 346.394 392.53 304.918 392.53 257.623C392.53 184.788 348.976 125.746 295.258 125.746C241.541 125.746 197.987 184.788 197.987 257.623C197.987 304.144 215.754 345.025 242.578 368.507" fill="#F27500"/>
<path d="M293.322 192.763C240.822 192.763 198.263 150.222 198.263 97.7451C198.263 45.2684 240.822 2.72766 293.322 2.72766C345.822 2.72766 388.382 45.2684 388.382 97.7451C388.382 150.222 345.822 192.763 293.322 192.763Z" fill="#F27500"/>
<path d="M254.858 246.699C260.664 252.136 274.598 258.764 283.887 241.784C282.993 242.454 297.508 265.914 311.128 241.784C312.022 241.784 325.419 265.914 337.7 241.784" stroke="#F69131" stroke-width="2" stroke-linecap="round" stroke-linejoin="round"/>
<path d="M270.266 227.484C280.091 227.484 284.333 220.335 285.226 216.76C284.333 217.43 298.847 240.89 312.468 216.76C313.361 220.335 317.604 227.484 327.429 227.484" stroke="#F69131" stroke-width="2" stroke-linecap="round" stroke-linejoin="round"/>
<g filter="url(#filter1_d)">
<path d="M198.401 262.405C199.466 297.178 210.348 328.51 227.299 351.563C245.343 326.962 256.018 292.548 254.87 254.817C253.805 220.031 242.924 188.713 225.972 165.646C207.942 190.219 197.254 224.633 198.401 262.405Z" fill="#F69131"/>
</g>
<g filter="url(#filter2_d)">
<path d="M371.699 192.248C395.332 217.764 409.545 247.723 413.649 276.052C383.536 271.186 351.791 254.163 326.121 226.447C302.488 200.932 288.275 170.973 284.171 142.644C314.274 147.5 346.02 164.523 371.699 192.248Z" fill="#F69131"/>
</g>
<path d="M226.387 165.093L212.449 152.973C212.299 152.846 212.193 152.674 212.15 152.483C212.107 152.291 212.127 152.09 212.209 151.911C212.291 151.733 212.429 151.585 212.602 151.493C212.775 151.4 212.974 151.366 213.168 151.397L215.159 151.687L205.481 142.787C205.335 142.652 205.238 142.473 205.205 142.277C205.171 142.082 205.204 141.881 205.297 141.706C205.39 141.53 205.539 141.391 205.72 141.309C205.9 141.227 206.103 141.207 206.296 141.253L209.283 141.971" fill="#F27500"/>
<path d="M362.664 162.937L376.228 150.333C376.367 150.2 376.459 150.026 376.492 149.836C376.525 149.646 376.495 149.451 376.409 149.28C376.322 149.108 376.182 148.968 376.01 148.882C375.838 148.795 375.643 148.766 375.454 148.799L373.476 149.158L382.851 139.926C382.993 139.786 383.085 139.604 383.112 139.406C383.139 139.209 383.099 139.008 382.999 138.835C382.9 138.663 382.745 138.528 382.561 138.453C382.376 138.378 382.172 138.366 381.98 138.42L379.021 139.221" fill="#F27500"/>
<path d="M294.533 100.026L303.562 112.464C303.75 112.657 303.898 112.885 303.997 113.136C304.095 113.386 304.143 113.654 304.136 113.923C304.13 114.192 304.07 114.457 303.959 114.703C303.848 114.949 303.69 115.17 303.493 115.353L293.938 131.44C293.543 131.814 293.016 132.017 292.472 132.004C291.928 131.991 291.411 131.764 291.035 131.371L282.006 114.786C281.622 114.4 281.407 113.879 281.407 113.335C281.407 112.791 281.622 112.27 282.006 111.884L291.574 100.039C291.762 99.8352 291.99 99.6718 292.244 99.5596C292.498 99.4474 292.773 99.3889 293.05 99.3876C293.328 99.3863 293.603 99.4423 293.858 99.5521C294.113 99.6619 294.343 99.8231 294.533 100.026Z" fill="#FDE01B"/>
<path d="M291.74 127.561C293.271 130.625 293.646 131.73 293.965 131.41C292.817 132.559 291.533 131.88 291.055 131.401C288.344 126.614 282.703 116.651 281.937 115.119C281.172 113.587 281.373 112.72 281.533 112.56C283.822 108.731 290.472 100.942 292.059 99.634C292.893 98.9464 293.6 99.3969 293.971 99.6329L293.973 99.634L294.582 100.083L284.404 113.518C286.317 117.028 290.209 124.497 291.74 127.561Z" fill="#F2D405"/>
<g filter="url(#filter3_i)">
<path d="M257.129 105.912C241.843 105.912 229.452 93.513 229.452 78.2179C229.452 62.9229 241.843 50.5238 257.129 50.5238C272.415 50.5238 284.807 62.9229 284.807 78.2179C284.807 93.513 272.415 105.912 257.129 105.912Z" fill="white"/>
</g>
<path d="M263.42 90.8062C254.387 90.8062 247.065 83.4795 247.065 74.4415C247.065 65.4035 254.387 58.0768 263.42 58.0768C272.452 58.0768 279.774 65.4035 279.774 74.4415C279.774 83.4795 272.452 90.8062 263.42 90.8062Z" fill="black"/>
<path d="M267.194 69.4062C267.194 72.8823 270.01 75.7003 273.484 75.7003C276.958 75.7003 279.774 72.8823 279.774 69.4062C279.774 65.93 276.958 63.1121 273.484 63.1121C270.01 63.1121 267.194 65.93 267.194 69.4062Z" fill="white"/>
<g filter="url(#filter4_i)">
<path d="M327.58 105.912C312.295 105.912 299.903 93.513 299.903 78.2179C299.903 62.9229 312.295 50.5238 327.58 50.5238C342.866 50.5238 355.258 62.9229 355.258 78.2179C355.258 93.513 342.866 105.912 327.58 105.912Z" fill="white"/>
</g>
<path d="M332.613 90.8062C323.58 90.8062 316.258 83.4795 316.258 74.4415C316.258 65.4035 323.58 58.0768 332.613 58.0768C341.645 58.0768 348.968 65.4035 348.968 74.4415C348.968 83.4795 341.645 90.8062 332.613 90.8062Z" fill="black"/>
<path d="M249.837 17.4467L211.937 55.8821C211.639 56.1822 211.261 56.3905 210.848 56.4823C210.435 56.5741 210.004 56.5456 209.607 56.4001C209.209 56.2546 208.862 55.9983 208.606 55.6615C208.35 55.3247 208.196 54.9217 208.162 54.5001V4.01298C208.13 3.67063 208.178 3.32548 208.303 3.00498C208.428 2.68448 208.625 2.39743 208.88 2.16666C209.135 1.93589 209.441 1.76778 209.772 1.67563C210.104 1.58348 210.452 1.56983 210.79 1.63581L248.661 13.7013C249.063 13.7672 249.439 13.9433 249.746 14.2101C250.054 14.4769 250.281 14.8238 250.403 15.2122C250.525 15.6005 250.537 16.0151 250.437 16.4097C250.337 16.8042 250.129 17.1632 249.837 17.4467V17.4467Z" fill="#F27500"/>
<path d="M238.291 19.7549L216.97 41.3566C216.806 41.5277 216.597 41.648 216.366 41.7029C216.136 41.7578 215.895 41.7452 215.671 41.6664C215.448 41.5876 215.252 41.446 215.107 41.2587C214.962 41.0714 214.875 40.8462 214.855 40.6103L215.311 9.96979C215.285 9.77354 215.306 9.57393 215.373 9.38758C215.44 9.20122 215.55 9.03348 215.695 8.89832C215.84 8.76315 216.015 8.66448 216.205 8.61046C216.396 8.55643 216.596 8.54863 216.79 8.58772L237.655 17.6265C237.882 17.667 238.093 17.7696 238.265 17.9229C238.437 18.0763 238.563 18.2743 238.629 18.495C238.695 18.7156 238.698 18.9502 238.638 19.1727C238.579 19.3951 238.459 19.5967 238.291 19.7549Z" fill="black"/>
<path d="M338.273 17.5159L376.228 55.9375C376.524 56.2391 376.901 56.4488 377.314 56.5414C377.727 56.6341 378.157 56.6058 378.554 56.4599C378.951 56.314 379.298 56.0567 379.552 55.7189C379.807 55.3811 379.958 54.9772 379.989 54.5555V4.06839C380.024 3.72533 379.978 3.3788 379.854 3.05684C379.73 2.73489 379.533 2.44654 379.277 2.21511C379.021 1.98367 378.715 1.81564 378.382 1.72463C378.049 1.63361 377.699 1.62219 377.361 1.69122L339.49 13.7567C339.082 13.8143 338.698 13.9855 338.383 14.2506C338.067 14.5157 337.833 14.8642 337.706 15.2561C337.579 15.6481 337.565 16.0678 337.665 16.4673C337.765 16.8669 337.976 17.2303 338.273 17.5159V17.5159Z" fill="#F27500"/>
<path d="M349.818 19.8654L371.139 41.4257C371.303 41.5968 371.513 41.7171 371.743 41.772C371.974 41.827 372.215 41.8142 372.438 41.7354C372.662 41.6566 372.858 41.5151 373.002 41.3278C373.147 41.1404 373.235 40.9153 373.255 40.6794L372.812 10.0389C372.838 9.84265 372.817 9.64304 372.75 9.45668C372.683 9.27033 372.573 9.10259 372.428 8.96742C372.284 8.83226 372.109 8.73354 371.918 8.67952C371.728 8.6255 371.527 8.61774 371.333 8.65683L350.454 17.6955C350.215 17.7244 349.99 17.8227 349.806 17.9783C349.623 18.1339 349.488 18.3399 349.421 18.5709C349.353 18.8019 349.355 19.0477 349.425 19.2778C349.496 19.5079 349.633 19.7122 349.818 19.8654V19.8654Z" fill="black"/>
<path d="M290.28 2.78296L271.821 2.14718C271.629 2.14306 271.441 2.20071 271.284 2.31163C271.126 2.42255 271.009 2.58092 270.949 2.76343C270.889 2.94595 270.888 3.14299 270.948 3.32562C271.008 3.50825 271.125 3.66679 271.282 3.77801L272.928 4.92516L259.778 4.8284C259.577 4.8228 259.379 4.88521 259.217 5.00555C259.055 5.12589 258.938 5.29718 258.886 5.49185C258.833 5.68652 258.847 5.89324 258.926 6.07875C259.006 6.26426 259.145 6.41775 259.322 6.51453L261.991 8.02098" fill="#F27500"/>
<path d="M326.3 8.61533L308.09 0.737544C307.907 0.662481 307.704 0.649975 307.513 0.701989C307.322 0.754003 307.153 0.867631 307.033 1.02519C306.914 1.18276 306.849 1.37543 306.85 1.57333C306.851 1.77124 306.918 1.96328 307.039 2.11962L308.477 3.94396" fill="#F27500"/>
<path d="M326.299 8.61496L308.089 0.737178C307.906 0.662115 307.703 0.649609 307.512 0.701623C307.321 0.753637 307.152 0.867265 307.032 1.02483C306.913 1.18239 306.848 1.37507 306.849 1.57297C306.85 1.77087 306.917 1.96292 307.038 2.11925L308.476 3.94359" fill="#F27500"/>
<path d="M306.665 3.68139L288.524 0.198539C288.336 0.166219 288.143 0.194573 287.972 0.279435C287.801 0.364297 287.662 0.501279 287.574 0.670589C287.486 0.839899 287.455 1.03272 287.484 1.22117C287.513 1.40963 287.601 1.58392 287.736 1.71883L289.119 3.1009" fill="#F27500"/>
<path d="M336.387 68.1474C336.387 71.6235 339.203 74.4415 342.677 74.4415C346.151 74.4415 348.968 71.6235 348.968 68.1474C348.968 64.6712 346.151 61.8533 342.677 61.8533C339.203 61.8533 336.387 64.6712 336.387 68.1474Z" fill="white"/>
<ellipse rx="22.0161" ry="11.9588" transform="matrix(-1 0 0 1 326.952 107.8)" fill="#F27500"/>
<ellipse rx="27.0484" ry="11.9588" transform="matrix(-1 0 0 1 253.984 107.8)" fill="#F27500"/>
</g>
<path d="M239.396 398.061V387.489C239.396 383.668 242.491 380.571 246.31 380.571C250.128 380.571 253.224 383.668 253.224 387.489V398.061C253.224 401.882 250.128 404.979 246.31 404.979C242.491 404.979 239.396 401.882 239.396 398.061Z" fill="#FDE01B"/>
<path d="M251.841 398.061V387.489C251.841 383.668 254.936 380.571 258.755 380.571C262.574 380.571 265.669 383.668 265.669 387.489V398.061C265.669 401.882 262.574 404.979 258.755 404.979C254.936 404.979 251.841 401.882 251.841 398.061Z" fill="#FDE01B"/>
<path d="M264.287 398.559V387.987C264.287 384.166 267.383 381.069 271.201 381.069C275.02 381.069 278.116 384.166 278.116 387.987V398.559C278.116 402.379 275.02 405.477 271.201 405.477C267.383 405.477 264.287 402.379 264.287 398.559Z" fill="#FDE01B"/>
<path d="M305.62 396.967V386.396C305.62 382.575 308.716 379.477 312.534 379.477C316.353 379.477 319.449 382.575 319.449 386.396V396.967C319.449 400.788 316.353 403.886 312.534 403.886C308.716 403.886 305.62 400.788 305.62 396.967Z" fill="#FDE01B"/>
<path d="M318.065 396.967V386.396C318.065 382.575 321.161 379.477 324.98 379.477C328.798 379.477 331.894 382.575 331.894 386.396V396.967C331.894 400.788 328.798 403.886 324.98 403.886C321.161 403.886 318.065 400.788 318.065 396.967Z" fill="#FDE01B"/>
<path d="M330.498 397.465V386.894C330.498 383.073 333.594 379.975 337.412 379.975C341.231 379.975 344.327 383.073 344.327 386.894V397.465C344.327 401.286 341.231 404.384 337.412 404.384C333.594 404.384 330.498 401.286 330.498 397.465Z" fill="#FDE01B"/>
<path d="M249.95 362.703C249.95 360.126 254.027 358.037 259.057 358.037C264.086 358.037 268.163 360.126 268.163 362.703V385.677C268.163 388.254 264.086 390.343 259.057 390.343C254.027 390.343 249.95 388.254 249.95 385.677V362.703Z" fill="#FDE01B"/>
<path d="M317.006 362.703C317.006 360.126 320.898 358.037 325.699 358.037C330.5 358.037 334.392 360.126 334.392 362.703V385.677C334.392 388.254 330.5 390.343 325.699 390.343C320.898 390.343 317.006 388.254 317.006 385.677V362.703Z" fill="#FDE01B"/>
<defs>
<filter id="filter0_i" x="198" y="-14.8291" width="210" height="443" filterUnits="userSpaceOnUse" color-interpolation-filters="sRGB">
<feFlood flood-opacity="0" result="BackgroundImageFix"/>
<feBlend mode="normal" in="SourceGraphic" in2="BackgroundImageFix" result="shape"/>
<feColorMatrix in="SourceAlpha" type="matrix" values="0 0 0 0 0 0 0 0 0 0 0 0 0 0 0 0 0 0 127 0" result="hardAlpha"/>
<feOffset dx="21" dy="-21"/>
<feGaussianBlur stdDeviation="7.5"/>
<feComposite in2="hardAlpha" operator="arithmetic" k2="-1" k3="1"/>
<feColorMatrix type="matrix" values="0 0 0 0 0 0 0 0 0 0 0 0 0 0 0 0 0 0 0.12 0"/>
<feBlend mode="normal" in2="shape" result="effect1_innerShadow"/>
</filter>
<filter id="filter1_d" x="194.317" y="165.646" width="64.6368" height="193.916" filterUnits="userSpaceOnUse" color-interpolation-filters="sRGB">
<feFlood flood-opacity="0" result="BackgroundImageFix"/>
<feColorMatrix in="SourceAlpha" type="matrix" values="0 0 0 0 0 0 0 0 0 0 0 0 0 0 0 0 0 0 127 0"/>
<feOffset dy="4"/>
<feGaussianBlur stdDeviation="2"/>
<feColorMatrix type="matrix" values="0 0 0 0 0 0 0 0 0 0 0 0 0 0 0 0 0 0 0.25 0"/>
<feBlend mode="normal" in2="BackgroundImageFix" result="effect1_dropShadow"/>
<feBlend mode="normal" in="SourceGraphic" in2="effect1_dropShadow" result="shape"/>
</filter>
<filter id="filter2_d" x="280.171" y="142.644" width="137.478" height="141.408" filterUnits="userSpaceOnUse" color-interpolation-filters="sRGB">
<feFlood flood-opacity="0" result="BackgroundImageFix"/>
<feColorMatrix in="SourceAlpha" type="matrix" values="0 0 0 0 0 0 0 0 0 0 0 0 0 0 0 0 0 0 127 0"/>
<feOffset dy="4"/>
<feGaussianBlur stdDeviation="2"/>
<feColorMatrix type="matrix" values="0 0 0 0 0 0 0 0 0 0 0 0 0 0 0 0 0 0 0.25 0"/>
<feBlend mode="normal" in2="BackgroundImageFix" result="effect1_dropShadow"/>
<feBlend mode="normal" in="SourceGraphic" in2="effect1_dropShadow" result="shape"/>
</filter>
<filter id="filter3_i" x="229.452" y="50.5238" width="55.3548" height="59.3882" filterUnits="userSpaceOnUse" color-interpolation-filters="sRGB">
<feFlood flood-opacity="0" result="BackgroundImageFix"/>
<feBlend mode="normal" in="SourceGraphic" in2="BackgroundImageFix" result="shape"/>
<feColorMatrix in="SourceAlpha" type="matrix" values="0 0 0 0 0 0 0 0 0 0 0 0 0 0 0 0 0 0 127 0" result="hardAlpha"/>
<feOffset dy="4"/>
<feGaussianBlur stdDeviation="2"/>
<feComposite in2="hardAlpha" operator="arithmetic" k2="-1" k3="1"/>
<feColorMatrix type="matrix" values="0 0 0 0 0 0 0 0 0 0 0 0 0 0 0 0 0 0 0.25 0"/>
<feBlend mode="normal" in2="shape" result="effect1_innerShadow"/>
</filter>
<filter id="filter4_i" x="299.903" y="50.5238" width="55.3548" height="59.3882" filterUnits="userSpaceOnUse" color-interpolation-filters="sRGB">
<feFlood flood-opacity="0" result="BackgroundImageFix"/>
<feBlend mode="normal" in="SourceGraphic" in2="BackgroundImageFix" result="shape"/>
<feColorMatrix in="SourceAlpha" type="matrix" values="0 0 0 0 0 0 0 0 0 0 0 0 0 0 0 0 0 0 127 0" result="hardAlpha"/>
<feOffset dy="4"/>
<feGaussianBlur stdDeviation="2"/>
<feComposite in2="hardAlpha" operator="arithmetic" k2="-1" k3="1"/>
<feColorMatrix type="matrix" values="0 0 0 0 0 0 0 0 0 0 0 0 0 0 0 0 0 0 0.25 0"/>
<feBlend mode="normal" in2="shape" result="effect1_innerShadow"/>
</filter>
<clipPath id="clip0">
<rect width="195" height="428" fill="white" transform="matrix(-1 0 0 1 393 0.170898)"/>
</clipPath>
</defs>
</svg>
