<svg width="415" height="533" viewBox="0 0 415 533" fill="none" xmlns="http://www.w3.org/2000/svg">
<path d="M-42 395.171H397C400.866 395.171 404 398.305 404 402.171C404 406.037 400.866 409.171 397 409.171H-42C-45.866 409.171 -49 406.037 -49 402.171C-49 398.305 -45.866 395.171 -42 395.171Z" fill="#F27500"/>
<path d="M5.91519 420.171L216 402.328L169.093 397.48L-12.0493 388.171L-37 402.328L5.91519 420.171Z" fill="#F27500"/>
<path d="M124.71 381.72C124.71 312.659 39.4796 292.209 -3.13561 290.616L-121.115 321.114V604.611H339.443C339.443 376.818 124.71 468.047 124.71 381.72Z" fill="white"/>
<g filter="url(#filter0_i)">
<g clip-path="url(#clip0)" filter="url(#filter1_i)">
<path d="M245.623 369.511C218.052 346.223 199.69 304.747 199.69 257.452C199.69 184.617 243.245 125.575 296.962 125.575C350.68 125.575 394.234 184.617 394.234 257.452C394.234 303.973 376.467 344.855 349.643 368.336" fill="#FDE01B"/>
<path d="M298.897 192.592C351.397 192.592 393.957 150.051 393.957 97.5744C393.957 45.0977 351.397 2.55701 298.897 2.55701C246.398 2.55701 203.838 45.0977 203.838 97.5744C203.838 150.051 246.398 192.592 298.897 192.592Z" fill="#FDE01B"/>
<path d="M365.834 164.923L379.771 152.802C379.922 152.676 380.027 152.504 380.071 152.312C380.114 152.12 380.093 151.92 380.012 151.741C379.93 151.562 379.792 151.415 379.619 151.322C379.446 151.229 379.247 151.196 379.052 151.226L377.061 151.517L386.74 142.616C386.886 142.481 386.983 142.302 387.016 142.107C387.049 141.911 387.017 141.71 386.924 141.535C386.83 141.36 386.682 141.22 386.501 141.138C386.32 141.057 386.118 141.037 385.924 141.082L382.938 141.801" fill="#FDEC77"/>
<path d="M229.556 162.767L215.992 150.162C215.853 150.029 215.76 149.855 215.728 149.665C215.695 149.476 215.724 149.28 215.811 149.109C215.898 148.937 216.037 148.797 216.209 148.711C216.381 148.624 216.576 148.595 216.766 148.628L218.743 148.987L209.369 139.755C209.227 139.616 209.135 139.433 209.108 139.235C209.081 139.038 209.12 138.837 209.22 138.664C209.32 138.492 209.474 138.357 209.659 138.282C209.844 138.207 210.048 138.195 210.24 138.249L213.199 139.05" fill="#FDE01B"/>
<path d="M301.261 99.8546L310.29 112.293C310.479 112.486 310.626 112.714 310.725 112.965C310.824 113.215 310.871 113.483 310.865 113.752C310.858 114.021 310.798 114.286 310.688 114.532C310.577 114.778 310.418 114.998 310.221 115.182L300.667 131.269C300.272 131.643 299.745 131.846 299.201 131.833C298.657 131.82 298.14 131.592 297.763 131.2L288.734 114.615C288.351 114.229 288.136 113.708 288.136 113.164C288.136 112.62 288.351 112.099 288.734 111.713L298.302 99.8685C298.49 99.6641 298.719 99.5007 298.973 99.3886C299.227 99.2764 299.501 99.2179 299.779 99.2166C300.057 99.2153 300.332 99.2713 300.587 99.3811C300.842 99.4909 301.071 99.6521 301.261 99.8546Z" fill="#FDEC77"/>
<path d="M291.874 115.102C291.537 114.721 291.35 114.229 291.35 113.72C291.35 113.211 291.537 112.72 291.874 112.338C291.874 112.338 299.001 102.487 299.922 101.564C300.844 100.642 300.383 99.489 300.383 99.489C299.692 98.7012 298.11 99.4296 297.391 100.19L288.631 111.71C288.291 112.09 288.17 112.863 288.17 113.093C288.17 113.324 288.305 114.136 288.631 114.477C288.956 114.817 296.196 129.263 296.907 130.347C297.618 131.43 299.214 132.184 299.462 131.77C299.709 131.356 299.462 130.047 299.462 130.047C299.244 129.776 298.947 129.342 298.787 129.034L291.874 115.102Z" fill="#F2D405"/>
<g filter="url(#filter2_i)">
<path d="M335.091 105.741C350.376 105.741 362.768 93.3421 362.768 78.047C362.768 62.752 350.376 50.3529 335.091 50.3529C319.805 50.3529 307.413 62.752 307.413 78.047C307.413 93.3421 319.805 105.741 335.091 105.741Z" fill="white"/>
</g>
<path fill-rule="evenodd" clip-rule="evenodd" d="M341.707 60.2154C340.149 59.722 338.489 59.4559 336.768 59.4559C327.735 59.4559 320.413 66.7827 320.413 75.8206C320.413 84.8586 327.735 92.1854 336.768 92.1854C345.8 92.1854 353.123 84.8586 353.123 75.8206C353.123 72.9376 352.378 70.2288 351.07 67.8763C350.106 70.1159 347.881 71.6839 345.289 71.6839C341.815 71.6839 338.999 68.8659 338.999 65.3898C338.999 63.2456 340.07 61.3519 341.707 60.2154Z" fill="black"/>
<g filter="url(#filter3_i)">
<path d="M264.639 105.741C279.925 105.741 292.317 93.3421 292.317 78.047C292.317 62.752 279.925 50.3529 264.639 50.3529C249.354 50.3529 236.962 62.752 236.962 78.047C236.962 93.3421 249.354 105.741 264.639 105.741Z" fill="white"/>
</g>
<path d="M342.382 17.2747L380.282 55.7101C380.58 56.0102 380.958 56.2185 381.371 56.3103C381.784 56.4021 382.215 56.3736 382.612 56.2281C383.009 56.0826 383.357 55.8263 383.613 55.4895C383.869 55.1527 384.023 54.7497 384.056 54.3281V3.84098C384.088 3.49863 384.04 3.15349 383.916 2.83298C383.791 2.51248 383.593 2.22543 383.338 1.99466C383.083 1.76389 382.778 1.59579 382.447 1.50363C382.115 1.41148 381.767 1.39783 381.429 1.46382L343.557 13.5293C343.156 13.5952 342.78 13.7713 342.472 14.0381C342.165 14.3049 341.937 14.6518 341.816 15.0402C341.694 15.4285 341.682 15.8431 341.782 16.2377C341.882 16.6322 342.09 16.9912 342.382 17.2747Z" fill="#FDE01B"/>
<path d="M353.929 19.5841L375.25 41.1858C375.413 41.3569 375.623 41.4772 375.853 41.5321C376.084 41.5871 376.325 41.5744 376.548 41.4956C376.772 41.4168 376.968 41.2752 377.113 41.0879C377.257 40.9006 377.345 40.6755 377.365 40.4396L376.909 9.79902C376.935 9.60276 376.913 9.40316 376.847 9.2168C376.78 9.03044 376.669 8.86271 376.525 8.72754C376.38 8.59237 376.205 8.4937 376.015 8.43968C375.824 8.38566 375.624 8.37785 375.429 8.41695L354.565 17.4557C354.338 17.4962 354.127 17.5988 353.955 17.7522C353.783 17.9055 353.657 18.1035 353.591 18.3242C353.525 18.5448 353.522 18.7794 353.581 19.0019C353.641 19.2243 353.761 19.4259 353.929 19.5841Z" fill="black"/>
<path d="M253.947 17.344L215.992 55.7657C215.696 56.0672 215.318 56.2769 214.906 56.3696C214.493 56.4622 214.062 56.4339 213.665 56.288C213.268 56.1421 212.922 55.8849 212.667 55.5471C212.413 55.2093 212.262 54.8053 212.231 54.3836V3.89651C212.196 3.55346 212.242 3.20692 212.366 2.88497C212.489 2.56301 212.687 2.27467 212.943 2.04323C213.198 1.8118 213.505 1.64376 213.838 1.55275C214.171 1.46174 214.52 1.45031 214.858 1.51935L252.73 13.5848C253.138 13.6425 253.522 13.8136 253.837 14.0787C254.153 14.3439 254.387 14.6923 254.514 15.0843C254.641 15.4762 254.655 15.8959 254.555 16.2955C254.454 16.695 254.244 17.0584 253.947 17.344V17.344Z" fill="#FDE01B"/>
<path d="M242.4 19.6945L221.079 41.2548C220.916 41.4259 220.706 41.5462 220.476 41.6011C220.245 41.6561 220.004 41.6434 219.78 41.5646C219.557 41.4858 219.361 41.3442 219.216 41.1569C219.072 40.9695 218.984 40.7444 218.964 40.5085L219.406 9.868C219.38 9.67175 219.402 9.47214 219.469 9.28579C219.535 9.09943 219.646 8.93169 219.79 8.79653C219.935 8.66136 220.11 8.56264 220.3 8.50862C220.491 8.4546 220.692 8.44684 220.886 8.48593L241.764 17.5247C242.003 17.5535 242.229 17.6518 242.412 17.8074C242.596 17.963 242.73 18.169 242.798 18.4C242.866 18.631 242.864 18.8768 242.793 19.1069C242.723 19.337 242.586 19.5413 242.4 19.6945V19.6945Z" fill="black"/>
<path d="M301.938 2.61206L320.397 1.97628C320.59 1.97217 320.778 2.02981 320.935 2.14073C321.092 2.25165 321.21 2.41002 321.27 2.59254C321.33 2.77505 321.331 2.97209 321.271 3.15472C321.211 3.33735 321.094 3.49589 320.937 3.60711L319.291 4.75426L332.441 4.6575C332.642 4.6519 332.84 4.71431 333.002 4.83465C333.164 4.95499 333.28 5.12628 333.333 5.32095C333.386 5.51562 333.371 5.72235 333.292 5.90785C333.213 6.09336 333.074 6.24685 332.897 6.34363L330.228 7.85008" fill="#FDE01B"/>
<path d="M265.921 8.44419L284.131 0.566402C284.314 0.491339 284.517 0.478832 284.708 0.530846C284.899 0.58286 285.068 0.696488 285.187 0.854052C285.307 1.01162 285.371 1.20429 285.37 1.40219C285.369 1.60009 285.303 1.79214 285.182 1.94847L283.744 3.77282" fill="#F27500"/>
<path d="M265.921 8.4437L284.131 0.565914C284.314 0.49085 284.517 0.478344 284.708 0.530358C284.899 0.582372 285.068 0.696 285.187 0.853564C285.307 1.01113 285.371 1.2038 285.37 1.4017C285.369 1.5996 285.303 1.79165 285.182 1.94799L283.744 3.77233" fill="#FDE01B"/>
<path d="M285.555 3.51061L303.695 0.0277622C303.884 -0.00455704 304.077 0.0237963 304.248 0.108659C304.419 0.193521 304.558 0.330502 304.646 0.499813C304.734 0.669123 304.765 0.861946 304.736 1.0504C304.707 1.23885 304.618 1.41315 304.484 1.54805L303.101 2.93012" fill="#FDE01B"/>
<path fill-rule="evenodd" clip-rule="evenodd" d="M272.701 60.2759C271.088 59.7438 269.365 59.4559 267.575 59.4559C258.542 59.4559 251.22 66.7827 251.22 75.8206C251.22 84.8586 258.542 92.1854 267.575 92.1854C276.607 92.1854 283.929 84.8586 283.929 75.8206C283.929 73.0482 283.24 70.4368 282.024 68.1486C281.003 70.2419 278.854 71.6839 276.369 71.6839C272.895 71.6839 270.079 68.8659 270.079 65.3898C270.079 63.2832 271.113 61.4184 272.701 60.2759Z" fill="black"/>
<ellipse cx="265.268" cy="107.629" rx="22.0161" ry="11.9588" fill="#FDE01B"/>
<ellipse cx="338.236" cy="107.629" rx="27.0484" ry="11.9588" fill="#FDE01B"/>
<path d="M255.908 249.948C261.9 255.559 276.279 262.399 285.865 244.875C284.944 245.567 299.922 269.778 313.979 244.875C314.901 244.875 328.727 269.778 341.402 244.875" stroke="#FDEC77" stroke-width="4" stroke-linecap="round" stroke-linejoin="round"/>
<path d="M271.809 230.118C281.948 230.118 286.326 222.74 287.248 219.05C286.326 219.742 301.305 243.953 315.362 219.05C316.284 222.74 320.662 230.118 330.801 230.118" stroke="#FDEC77" stroke-width="4" stroke-linecap="round" stroke-linejoin="round"/>
<path d="M349.248 54.3028C355.111 53.5417 366.406 49.0537 364.676 37.1898" stroke="black" stroke-width="2.5" stroke-linecap="round" stroke-linejoin="round"/>
<path d="M355.646 57.8926C361.564 57.6011 373.142 54.036 372.114 42.1075" stroke="black" stroke-width="2.5" stroke-linecap="round" stroke-linejoin="round"/>
<path d="M361.85 63.2188C367.777 63.0473 379.418 59.7204 378.57 47.7844" stroke="black" stroke-width="2.5" stroke-linecap="round" stroke-linejoin="round"/>
<path d="M253.059 54.3753C247.017 53.5912 235.381 48.9674 237.164 36.7446" stroke="black" stroke-width="2.5" stroke-linecap="round" stroke-linejoin="round"/>
<path d="M246.466 58.0736C240.369 57.7733 228.441 54.1003 229.5 41.811" stroke="black" stroke-width="2.5" stroke-linecap="round" stroke-linejoin="round"/>
<path d="M240.075 63.5609C233.969 63.3842 221.975 59.9566 222.849 47.6596" stroke="black" stroke-width="2.5" stroke-linecap="round" stroke-linejoin="round"/>
<path d="M309.164 122.068L302.346 133.909C301.779 134.259 300.45 134.586 299.669 133.095C298.888 131.605 295.184 124.374 293.43 120.945" stroke="#F35B84" stroke-width="2" stroke-linecap="round"/>
</g>
<path d="M352.873 397.687V387.116C352.873 383.295 349.777 380.197 345.959 380.197C342.14 380.197 339.044 383.295 339.044 387.116V397.687C339.044 401.508 342.14 404.606 345.959 404.606C349.777 404.606 352.873 401.508 352.873 397.687Z" fill="#FDE01B"/>
<path d="M339.757 398.513V388.104C339.757 384.342 336.709 381.292 332.949 381.292C329.189 381.292 326.141 384.342 326.141 388.104V398.513C326.141 402.275 329.189 405.325 332.949 405.325C336.709 405.325 339.757 402.275 339.757 398.513Z" fill="#FDE01B"/>
<path d="M327.981 398.185V387.614C327.981 383.793 324.886 380.695 321.067 380.695C317.249 380.695 314.153 383.793 314.153 387.614V398.185C314.153 402.006 317.249 405.104 321.067 405.104C324.886 405.104 327.981 402.006 327.981 398.185Z" fill="#FDE01B"/>
<path d="M286.648 396.594V386.022C286.648 382.201 283.553 379.104 279.734 379.104C275.916 379.104 272.82 382.201 272.82 386.022V396.594C272.82 400.415 275.916 403.512 279.734 403.512C283.553 403.512 286.648 400.415 286.648 396.594Z" fill="#FDE01B"/>
<path d="M274.203 396.594V386.022C274.203 382.201 271.107 379.104 267.289 379.104C263.47 379.104 260.375 382.201 260.375 386.022V396.594C260.375 400.415 263.47 403.512 267.289 403.512C271.107 403.512 274.203 400.415 274.203 396.594Z" fill="#FDE01B"/>
<path d="M261.771 397.092V386.52C261.771 382.699 258.676 379.602 254.857 379.602C251.039 379.602 247.943 382.699 247.943 386.52V397.092C247.943 400.913 251.039 404.01 254.857 404.01C258.676 404.01 261.771 400.913 261.771 397.092Z" fill="#FDE01B"/>
<path d="M342.319 362.33C342.319 359.753 338.241 357.663 333.212 357.663C328.183 357.663 324.105 359.753 324.105 362.33V385.303C324.105 387.88 328.183 389.97 333.212 389.97C338.241 389.97 342.319 387.88 342.319 385.303V362.33Z" fill="#FDE01B"/>
<path d="M275.262 362.33C275.262 359.753 271.37 357.663 266.57 357.663C261.769 357.663 257.877 359.753 257.877 362.33V385.303C257.877 387.88 261.769 389.97 266.57 389.97C271.37 389.97 275.262 387.88 275.262 385.303V362.33Z" fill="#FDE01B"/>
<g filter="url(#filter4_d)">
<path d="M240.062 261.624C233.029 295.694 216.918 324.683 196.252 344.47C182.711 317.128 178.119 281.389 185.743 244.42C192.779 210.336 208.888 181.361 229.556 161.56C243.088 188.873 247.694 224.614 240.062 261.624Z" fill="#FDEC77"/>
</g>
<g filter="url(#filter5_d)">
<path d="M408.316 255.857C412.71 290.368 406.869 323.018 393.736 348.444C372.063 326.976 356.131 294.661 351.356 257.217C346.96 222.693 352.804 190.056 365.934 164.616C387.589 186.059 403.534 218.372 408.316 255.857Z" fill="#FDEC77"/>
</g>
</g>
<defs>
<filter id="filter0_i" x="182.068" y="0" width="227.693" height="432" filterUnits="userSpaceOnUse" color-interpolation-filters="sRGB">
<feFlood flood-opacity="0" result="BackgroundImageFix"/>
<feBlend mode="normal" in="SourceGraphic" in2="BackgroundImageFix" result="shape"/>
<feColorMatrix in="SourceAlpha" type="matrix" values="0 0 0 0 0 0 0 0 0 0 0 0 0 0 0 0 0 0 127 0" result="hardAlpha"/>
<feOffset dy="4"/>
<feGaussianBlur stdDeviation="2"/>
<feComposite in2="hardAlpha" operator="arithmetic" k2="-1" k3="1"/>
<feColorMatrix type="matrix" values="0 0 0 0 0 0 0 0 0 0 0 0 0 0 0 0 0 0 0.25 0"/>
<feBlend mode="normal" in2="shape" result="effect1_innerShadow"/>
</filter>
<filter id="filter1_i" x="199.22" y="-15" width="215" height="443" filterUnits="userSpaceOnUse" color-interpolation-filters="sRGB">
<feFlood flood-opacity="0" result="BackgroundImageFix"/>
<feBlend mode="normal" in="SourceGraphic" in2="BackgroundImageFix" result="shape"/>
<feColorMatrix in="SourceAlpha" type="matrix" values="0 0 0 0 0 0 0 0 0 0 0 0 0 0 0 0 0 0 127 0" result="hardAlpha"/>
<feOffset dx="20" dy="-15"/>
<feGaussianBlur stdDeviation="10"/>
<feComposite in2="hardAlpha" operator="arithmetic" k2="-1" k3="1"/>
<feColorMatrix type="matrix" values="0 0 0 0 0 0 0 0 0 0 0 0 0 0 0 0 0 0 0.12 0"/>
<feBlend mode="normal" in2="shape" result="effect1_innerShadow"/>
</filter>
<filter id="filter2_i" x="307.413" y="50.3529" width="55.3548" height="59.3882" filterUnits="userSpaceOnUse" color-interpolation-filters="sRGB">
<feFlood flood-opacity="0" result="BackgroundImageFix"/>
<feBlend mode="normal" in="SourceGraphic" in2="BackgroundImageFix" result="shape"/>
<feColorMatrix in="SourceAlpha" type="matrix" values="0 0 0 0 0 0 0 0 0 0 0 0 0 0 0 0 0 0 127 0" result="hardAlpha"/>
<feOffset dy="4"/>
<feGaussianBlur stdDeviation="2"/>
<feComposite in2="hardAlpha" operator="arithmetic" k2="-1" k3="1"/>
<feColorMatrix type="matrix" values="0 0 0 0 0 0 0 0 0 0 0 0 0 0 0 0 0 0 0.15 0"/>
<feBlend mode="normal" in2="shape" result="effect1_innerShadow"/>
</filter>
<filter id="filter3_i" x="236.962" y="50.3529" width="55.3549" height="59.3882" filterUnits="userSpaceOnUse" color-interpolation-filters="sRGB">
<feFlood flood-opacity="0" result="BackgroundImageFix"/>
<feBlend mode="normal" in="SourceGraphic" in2="BackgroundImageFix" result="shape"/>
<feColorMatrix in="SourceAlpha" type="matrix" values="0 0 0 0 0 0 0 0 0 0 0 0 0 0 0 0 0 0 127 0" result="hardAlpha"/>
<feOffset dy="4"/>
<feGaussianBlur stdDeviation="2"/>
<feComposite in2="hardAlpha" operator="arithmetic" k2="-1" k3="1"/>
<feColorMatrix type="matrix" values="0 0 0 0 0 0 0 0 0 0 0 0 0 0 0 0 0 0 0.15 0"/>
<feBlend mode="normal" in2="shape" result="effect1_innerShadow"/>
</filter>
<filter id="filter4_d" x="179.068" y="161.56" width="69.6705" height="190.91" filterUnits="userSpaceOnUse" color-interpolation-filters="sRGB">
<feFlood flood-opacity="0" result="BackgroundImageFix"/>
<feColorMatrix in="SourceAlpha" type="matrix" values="0 0 0 0 0 0 0 0 0 0 0 0 0 0 0 0 0 0 127 0"/>
<feOffset dx="1" dy="4"/>
<feGaussianBlur stdDeviation="2"/>
<feColorMatrix type="matrix" values="0 0 0 0 0 0 0 0 0 0 0 0 0 0 0 0 0 0 0.15 0"/>
<feBlend mode="normal" in2="BackgroundImageFix" result="effect1_dropShadow"/>
<feBlend mode="normal" in="SourceGraphic" in2="effect1_dropShadow" result="shape"/>
</filter>
<filter id="filter5_d" x="346.91" y="164.616" width="67.8509" height="191.828" filterUnits="userSpaceOnUse" color-interpolation-filters="sRGB">
<feFlood flood-opacity="0" result="BackgroundImageFix"/>
<feColorMatrix in="SourceAlpha" type="matrix" values="0 0 0 0 0 0 0 0 0 0 0 0 0 0 0 0 0 0 127 0"/>
<feOffset dx="1" dy="4"/>
<feGaussianBlur stdDeviation="2"/>
<feColorMatrix type="matrix" values="0 0 0 0 0 0 0 0 0 0 0 0 0 0 0 0 0 0 0.15 0"/>
<feBlend mode="normal" in2="BackgroundImageFix" result="effect1_dropShadow"/>
<feBlend mode="normal" in="SourceGraphic" in2="effect1_dropShadow" result="shape"/>
</filter>
<clipPath id="clip0">
<rect width="195" height="428" fill="white" transform="translate(199.22)"/>
</clipPath>
</defs>
</svg>
