<svg width="404" height="533" viewBox="0 0 404 533" fill="none" xmlns="http://www.w3.org/2000/svg">
<path d="M-42 395.171H397C400.866 395.171 404 398.305 404 402.171C404 406.037 400.866 409.171 397 409.171H-42C-45.866 409.171 -49 406.037 -49 402.171C-49 398.305 -45.866 395.171 -42 395.171Z" fill="#F27500"/>
<path d="M5.91519 420.171L216 402.328L169.093 397.48L-12.0493 388.171L-37 402.328L5.91519 420.171Z" fill="#F27500"/>
<path d="M124.71 381.72C124.71 312.659 39.4796 292.209 -3.13561 290.616L-121.115 321.114V604.611H339.443C339.443 376.818 124.71 468.047 124.71 381.72Z" fill="white"/>
<g clip-path="url(#clip0)" filter="url(#filter0_i)">
<path d="M346.598 369.681C374.168 346.394 392.53 304.918 392.53 257.623C392.53 184.788 348.976 125.746 295.258 125.746C241.541 125.746 197.987 184.788 197.987 257.623C197.987 304.144 215.754 345.025 242.578 368.507" fill="#F27500"/>
<path d="M293.322 192.763C240.822 192.763 198.263 150.222 198.263 97.7451C198.263 45.2684 240.822 2.72766 293.322 2.72766C345.822 2.72766 388.382 45.2684 388.382 97.7451C388.382 150.222 345.822 192.763 293.322 192.763Z" fill="#F27500"/>
<path d="M254.858 246.699C260.664 252.136 274.598 258.764 283.887 241.784C282.993 242.454 297.508 265.914 311.128 241.784C312.022 241.784 325.419 265.914 337.7 241.784" stroke="#F69131" stroke-width="2" stroke-linecap="round" stroke-linejoin="round"/>
<path d="M270.266 227.484C280.091 227.484 284.333 220.335 285.226 216.76C284.333 217.43 298.847 240.89 312.468 216.76C313.361 220.335 317.604 227.484 327.429 227.484" stroke="#F69131" stroke-width="2" stroke-linecap="round" stroke-linejoin="round"/>
<g filter="url(#filter1_d)">
<path d="M198.401 262.405C199.466 297.178 210.348 328.51 227.299 351.563C245.343 326.962 256.018 292.548 254.87 254.817C253.805 220.031 242.924 188.713 225.972 165.646C207.942 190.219 197.254 224.633 198.401 262.405Z" fill="#F69131"/>
</g>
<g filter="url(#filter2_d)">
<path d="M371.699 192.248C395.332 217.764 409.545 247.723 413.649 276.052C383.536 271.186 351.791 254.163 326.121 226.447C302.488 200.932 288.275 170.973 284.171 142.644C314.274 147.5 346.02 164.523 371.699 192.248Z" fill="#F69131"/>
</g>
<path d="M226.387 165.093L212.449 152.973C212.299 152.846 212.193 152.674 212.15 152.483C212.107 152.291 212.127 152.09 212.209 151.911C212.291 151.733 212.429 151.585 212.602 151.493C212.775 151.4 212.974 151.366 213.168 151.397L215.159 151.687L205.481 142.787C205.335 142.652 205.238 142.473 205.205 142.277C205.171 142.082 205.204 141.881 205.297 141.706C205.39 141.53 205.539 141.391 205.72 141.309C205.9 141.227 206.103 141.207 206.296 141.253L209.283 141.971" fill="#F27500"/>
<path d="M362.664 162.937L376.228 150.333C376.367 150.2 376.459 150.026 376.492 149.836C376.525 149.646 376.495 149.451 376.409 149.28C376.322 149.108 376.182 148.968 376.01 148.882C375.838 148.795 375.643 148.766 375.454 148.799L373.476 149.158L382.851 139.926C382.993 139.786 383.085 139.604 383.112 139.406C383.139 139.209 383.099 139.008 382.999 138.835C382.9 138.663 382.745 138.528 382.561 138.453C382.376 138.378 382.172 138.366 381.98 138.42L379.021 139.221" fill="#F27500"/>
<path d="M294.533 100.026L303.562 112.464C303.75 112.657 303.898 112.885 303.997 113.136C304.095 113.386 304.143 113.654 304.136 113.923C304.13 114.192 304.07 114.457 303.959 114.703C303.848 114.949 303.69 115.17 303.493 115.353L293.938 131.44C293.543 131.814 293.016 132.017 292.472 132.004C291.928 131.991 291.411 131.764 291.035 131.371L282.006 114.786C281.622 114.4 281.407 113.879 281.407 113.335C281.407 112.791 281.622 112.27 282.006 111.884L291.574 100.039C291.762 99.8352 291.99 99.6718 292.244 99.5596C292.498 99.4474 292.773 99.3889 293.05 99.3876C293.328 99.3863 293.603 99.4423 293.858 99.5521C294.113 99.6619 294.343 99.8231 294.533 100.026Z" fill="#FDE01B"/>
<path d="M291.74 127.561C293.271 130.625 293.646 131.73 293.965 131.41C292.817 132.559 291.533 131.88 291.055 131.401C288.344 126.614 282.703 116.651 281.937 115.119C281.172 113.587 281.373 112.72 281.533 112.56C283.822 108.731 290.472 100.942 292.059 99.634C292.893 98.9464 293.6 99.3969 293.971 99.6329L293.973 99.634L294.582 100.083L284.404 113.518C286.317 117.028 290.209 124.497 291.74 127.561Z" fill="#F2D405"/>
<g filter="url(#filter3_i)">
<path d="M257.129 105.912C241.843 105.912 229.452 93.513 229.452 78.2179C229.452 62.9229 241.843 50.5238 257.129 50.5238C272.415 50.5238 284.807 62.9229 284.807 78.2179C284.807 93.513 272.415 105.912 257.129 105.912Z" fill="white"/>
</g>
<path d="M263.42 90.8062C254.387 90.8062 247.065 83.4795 247.065 74.4415C247.065 65.4035 254.387 58.0768 263.42 58.0768C272.452 58.0768 279.774 65.4035 279.774 74.4415C279.774 83.4795 272.452 90.8062 263.42 90.8062Z" fill="black"/>
<path d="M267.194 69.4062C267.194 72.8823 270.01 75.7003 273.484 75.7003C276.958 75.7003 279.774 72.8823 279.774 69.4062C279.774 65.93 276.958 63.1121 273.484 63.1121C270.01 63.1121 267.194 65.93 267.194 69.4062Z" fill="white"/>
<g filter="url(#filter4_i)">
<path d="M327.58 105.912C312.295 105.912 299.903 93.513 299.903 78.2179C299.903 62.9229 312.295 50.5238 327.58 50.5238C342.866 50.5238 355.258 62.9229 355.258 78.2179C355.258 93.513 342.866 105.912 327.58 105.912Z" fill="white"/>
</g>
<path d="M332.613 90.8062C323.58 90.8062 316.258 83.4795 316.258 74.4415C316.258 65.4035 323.58 58.0768 332.613 58.0768C341.645 58.0768 348.968 65.4035 348.968 74.4415C348.968 83.4795 341.645 90.8062 332.613 90.8062Z" fill="black"/>
<path d="M249.837 17.4467L211.937 55.8821C211.639 56.1822 211.261 56.3905 210.848 56.4823C210.435 56.5741 210.004 56.5456 209.607 56.4001C209.209 56.2546 208.862 55.9983 208.606 55.6615C208.35 55.3247 208.196 54.9217 208.162 54.5001V4.01298C208.13 3.67063 208.178 3.32548 208.303 3.00498C208.428 2.68448 208.625 2.39743 208.88 2.16666C209.135 1.93589 209.441 1.76778 209.772 1.67563C210.104 1.58348 210.452 1.56983 210.79 1.63581L248.661 13.7013C249.063 13.7672 249.439 13.9433 249.746 14.2101C250.054 14.4769 250.281 14.8238 250.403 15.2122C250.525 15.6005 250.537 16.0151 250.437 16.4097C250.337 16.8042 250.129 17.1632 249.837 17.4467V17.4467Z" fill="#F27500"/>
<path d="M238.291 19.7549L216.97 41.3566C216.806 41.5277 216.597 41.648 216.366 41.7029C216.136 41.7578 215.895 41.7452 215.671 41.6664C215.448 41.5876 215.252 41.446 215.107 41.2587C214.962 41.0714 214.875 40.8462 214.855 40.6103L215.311 9.96979C215.285 9.77354 215.306 9.57393 215.373 9.38758C215.44 9.20122 215.55 9.03348 215.695 8.89832C215.84 8.76315 216.015 8.66448 216.205 8.61046C216.396 8.55643 216.596 8.54863 216.79 8.58772L237.655 17.6265C237.882 17.667 238.093 17.7696 238.265 17.9229C238.437 18.0763 238.563 18.2743 238.629 18.495C238.695 18.7156 238.698 18.9502 238.638 19.1727C238.579 19.3951 238.459 19.5967 238.291 19.7549Z" fill="black"/>
<path d="M338.273 17.5159L376.228 55.9375C376.524 56.2391 376.901 56.4488 377.314 56.5414C377.727 56.6341 378.157 56.6058 378.554 56.4599C378.951 56.314 379.298 56.0567 379.552 55.7189C379.807 55.3811 379.958 54.9772 379.989 54.5555V4.06839C380.024 3.72533 379.978 3.3788 379.854 3.05684C379.73 2.73489 379.533 2.44654 379.277 2.21511C379.021 1.98367 378.715 1.81564 378.382 1.72463C378.049 1.63361 377.699 1.62219 377.361 1.69122L339.49 13.7567C339.082 13.8143 338.698 13.9855 338.383 14.2506C338.067 14.5157 337.833 14.8642 337.706 15.2561C337.579 15.6481 337.565 16.0678 337.665 16.4673C337.765 16.8669 337.976 17.2303 338.273 17.5159V17.5159Z" fill="#F27500"/>
<path d="M349.818 19.8654L371.139 41.4257C371.303 41.5968 371.513 41.7171 371.743 41.772C371.974 41.827 372.215 41.8142 372.438 41.7354C372.662 41.6566 372.858 41.5151 373.002 41.3278C373.147 41.1404 373.235 40.9153 373.255 40.6794L372.812 10.0389C372.838 9.84265 372.817 9.64304 372.75 9.45668C372.683 9.27033 372.573 9.10259 372.428 8.96742C372.284 8.83226 372.109 8.73354 371.918 8.67952C371.728 8.6255 371.527 8.61774 371.333 8.65683L350.454 17.6955C350.215 17.7244 349.99 17.8227 349.806 17.9783C349.623 18.1339 349.488 18.3399 349.421 18.5709C349.353 18.8019 349.355 19.0477 349.425 19.2778C349.496 19.5079 349.633 19.7122 349.818 19.8654V19.8654Z" fill="black"/>
<path d="M290.28 2.78296L271.821 2.14718C271.629 2.14306 271.441 2.20071 271.284 2.31163C271.126 2.42255 271.009 2.58092 270.949 2.76343C270.889 2.94595 270.888 3.14299 270.948 3.32562C271.008 3.50825 271.125 3.66679 271.282 3.77801L272.928 4.92516L259.778 4.8284C259.577 4.8228 259.379 4.88521 259.217 5.00555C259.055 5.12589 258.938 5.29718 258.886 5.49185C258.833 5.68652 258.847 5.89324 258.926 6.07875C259.006 6.26426 259.145 6.41775 259.322 6.51453L261.991 8.02098" fill="#F27500"/>
<path d="M326.3 8.61533L308.09 0.737544C307.907 0.662481 307.704 0.649975 307.513 0.701989C307.322 0.754003 307.153 0.867631 307.033 1.02519C306.914 1.18276 306.849 1.37543 306.85 1.57333C306.851 1.77124 306.918 1.96328 307.039 2.11962L308.477 3.94396" fill="#F27500"/>
<path d="M326.299 8.61496L308.089 0.737178C307.906 0.662115 307.703 0.649609 307.512 0.701623C307.321 0.753637 307.152 0.867265 307.032 1.02483C306.913 1.18239 306.848 1.37507 306.849 1.57297C306.85 1.77087 306.917 1.96292 307.038 2.11925L308.476 3.94359" fill="#F27500"/>
<path d="M306.665 3.68139L288.524 0.198539C288.336 0.166219 288.143 0.194573 287.972 0.279435C287.801 0.364297 287.662 0.501279 287.574 0.670589C287.486 0.839899 287.455 1.03272 287.484 1.22117C287.513 1.40963 287.601 1.58392 287.736 1.71883L289.119 3.1009" fill="#F27500"/>
<path d="M336.387 68.1474C336.387 71.6235 339.203 74.4415 342.677 74.4415C346.151 74.4415 348.968 71.6235 348.968 68.1474C348.968 64.6712 346.151 61.8533 342.677 61.8533C339.203 61.8533 336.387 64.6712 336.387 68.1474Z" fill="white"/>
<ellipse rx="22.0161" ry="11.9588" transform="matrix(-1 0 0 1 326.952 107.8)" fill="#F27500"/>
<ellipse rx="27.0484" ry="11.9588" transform="matrix(-1 0 0 1 253.984 107.8)" fill="#F27500"/>
</g>
<g clip-path="url(#clip1)" filter="url(#filter5_i)">
<path d="M243.841 369.673C216.254 346.385 197.881 304.909 197.881 257.615C197.881 184.779 241.462 125.737 295.211 125.737C348.961 125.737 392.542 184.779 392.542 257.615C392.542 304.135 374.764 345.017 347.923 368.498" fill="#F27500"/>
<path d="M297.148 192.754C349.68 192.754 392.265 150.213 392.265 97.7366C392.265 45.2599 349.68 2.71912 297.148 2.71912C244.617 2.71912 202.031 45.2599 202.031 97.7366C202.031 150.213 244.617 192.754 297.148 192.754Z" fill="#F27500"/>
<path d="M336.124 247.387C330.298 252.839 316.317 259.486 306.996 242.457C307.893 243.13 293.329 266.656 279.661 242.457C278.765 242.457 265.321 266.656 252.998 242.457" stroke="#F69131" stroke-width="2" stroke-linecap="round" stroke-linejoin="round"/>
<path d="M320.664 228.118C310.805 228.118 306.548 220.948 305.652 217.363C306.548 218.035 291.984 241.561 278.317 217.363C277.421 220.948 273.163 228.118 263.305 228.118" stroke="#F69131" stroke-width="2" stroke-linecap="round" stroke-linejoin="round"/>
<g filter="url(#filter6_d)">
<path d="M392.127 262.397C391.062 297.169 380.173 328.501 363.212 351.554C345.157 326.953 334.476 292.54 335.624 254.809C336.689 220.022 347.578 188.704 364.54 165.638C382.581 190.211 393.275 224.624 392.127 262.397Z" fill="#F69131"/>
</g>
<g filter="url(#filter7_d)">
<path d="M253.358 252.853C253.054 218.066 242.844 186.514 226.394 163.088C207.813 187.302 196.385 221.48 196.717 259.266C197.021 294.053 207.232 325.606 223.682 349.032C242.262 324.832 253.69 290.653 253.358 252.853Z" fill="#F69131"/>
</g>
<path d="M364.124 165.085L378.07 152.964C378.221 152.838 378.326 152.666 378.369 152.474C378.413 152.282 378.392 152.082 378.31 151.903C378.229 151.724 378.091 151.577 377.917 151.484C377.744 151.391 377.545 151.358 377.35 151.389L375.358 151.679L385.043 142.778C385.189 142.644 385.286 142.464 385.319 142.269C385.352 142.073 385.32 141.872 385.226 141.697C385.133 141.522 384.985 141.382 384.804 141.301C384.623 141.219 384.42 141.199 384.227 141.244L381.238 141.963" fill="#F27500"/>
<path d="M227.765 162.929L214.192 150.324C214.053 150.191 213.961 150.017 213.928 149.828C213.895 149.638 213.925 149.443 214.011 149.271C214.098 149.099 214.238 148.96 214.41 148.873C214.582 148.787 214.777 148.758 214.967 148.79L216.946 149.15L207.565 139.917C207.423 139.778 207.331 139.595 207.304 139.398C207.277 139.2 207.317 138.999 207.417 138.827C207.516 138.654 207.671 138.52 207.856 138.444C208.04 138.369 208.245 138.357 208.437 138.411L211.398 139.213" fill="#F27500"/>
<path d="M299.513 100.017L308.548 112.456C308.736 112.648 308.884 112.877 308.983 113.127C309.082 113.378 309.129 113.646 309.123 113.915C309.116 114.184 309.056 114.449 308.945 114.695C308.835 114.94 308.676 115.161 308.479 115.344L298.918 131.432C298.523 131.806 297.996 132.009 297.451 131.996C296.907 131.983 296.39 131.755 296.013 131.363L286.979 114.778C286.595 114.392 286.38 113.87 286.38 113.327C286.38 112.783 286.595 112.261 286.979 111.875L296.553 100.031C296.741 99.8267 296.969 99.6633 297.223 99.5512C297.477 99.439 297.752 99.3805 298.03 99.3792C298.308 99.3779 298.583 99.4339 298.838 99.5437C299.094 99.6535 299.323 99.8147 299.513 100.017Z" fill="#FDE01B"/>
<path d="M298.587 100.556C301.493 104.536 304.398 108.544 307.317 112.525C307.414 112.663 307.525 112.787 307.608 112.926C308.147 113.796 307.954 114.1 307.497 114.874L306.224 117.003L301.423 125.074L299.182 128.833C298.892 129.317 298.49 130.45 298.02 130.782C296.637 131.791 295.128 127.603 294.7 126.815L290.009 118.164L288.308 115.04C287.865 114.239 287.187 113.395 287.74 112.525C289.32 110.344 291.015 108.25 292.818 106.25L296 102.325C296.595 101.565 297.55 99.7406 298.767 100.763C299.985 101.786 301.257 100.155 300.234 99.2983C297.245 96.7415 295.225 100.031 293.537 102.062L286.993 110.161C286.537 110.48 286.157 110.895 285.88 111.377C285.602 111.859 285.434 112.396 285.388 112.95C285.342 113.504 285.418 114.062 285.612 114.583C285.806 115.104 286.112 115.576 286.509 115.966L291.185 124.576C292.342 127.02 293.636 129.396 295.059 131.694C295.307 132.029 295.621 132.31 295.982 132.518C296.343 132.726 296.743 132.858 297.157 132.904C297.572 132.951 297.991 132.912 298.389 132.789C298.788 132.667 299.157 132.463 299.473 132.192C299.964 131.64 300.374 131.021 300.69 130.353L306.072 121.301C307.29 119.269 308.839 117.224 309.835 115.109C310.596 113.561 309.835 112.345 308.894 111.087L305.823 106.941L300.4 99.5056C299.639 98.4414 297.84 99.4642 298.587 100.556Z" fill="black"/>
<path d="M290.12 115.386C289.782 115.005 289.596 114.513 289.596 114.004C289.596 113.495 289.782 113.003 290.12 112.622L298.116 101.814V100.86C297.424 100.073 296.359 99.7133 295.64 100.473L287.2 111.876C286.86 112.256 286.672 112.748 286.672 113.258C286.672 113.768 286.86 114.26 287.2 114.64L295.156 130.63C295.847 131.418 298.393 131.708 299.112 130.948L297.604 130.188C297.387 129.917 297.197 129.626 297.037 129.317L290.12 115.386Z" fill="#F2D405"/>
<path d="M298.448 100.473C301.354 104.467 304.259 108.475 307.178 112.456L307.482 112.856C308.008 113.727 307.815 114.031 307.358 114.805L306.099 116.933L301.353 125.005L299.126 128.764C298.836 129.248 298.434 130.381 297.95 130.713C296.566 131.722 295.058 127.534 294.63 126.732L289.939 118.094L288.238 114.971C287.795 114.156 287.117 113.326 287.684 112.456C289.263 110.279 290.954 108.184 292.748 106.181L295.93 102.256C296.539 101.496 297.493 99.6714 298.697 100.694C299.901 101.717 301.174 100.086 300.164 99.2291C297.161 96.6723 295.141 99.9616 293.454 101.993L286.91 110.092C286.094 110.848 285.533 111.838 285.305 112.925C285.365 114.007 285.756 115.044 286.425 115.897L291.102 124.507C292.259 126.95 293.552 129.327 294.975 131.625C295.223 131.96 295.537 132.24 295.898 132.449C296.259 132.657 296.659 132.789 297.074 132.835C297.488 132.882 297.907 132.843 298.306 132.72C298.704 132.597 299.073 132.394 299.389 132.122C299.884 131.565 300.298 130.942 300.62 130.27L306.002 121.232C307.206 119.2 308.769 117.155 309.751 115.04C310.512 113.492 309.751 112.276 308.811 111.018L305.753 106.872L300.316 99.4364C299.458 98.3584 297.66 99.395 298.448 100.473Z" fill="black"/>
<g filter="url(#filter8_i)">
<path d="M333.363 105.903C348.658 105.903 361.057 93.5044 361.057 78.2094C361.057 62.9143 348.658 50.5153 333.363 50.5153C318.068 50.5153 305.669 62.9143 305.669 78.2094C305.669 93.5044 318.068 105.903 333.363 105.903Z" fill="white"/>
</g>
<path d="M327.069 90.7976C336.107 90.7976 343.434 83.4709 343.434 74.4329C343.434 65.395 336.107 58.0682 327.069 58.0682C318.031 58.0682 310.704 65.395 310.704 74.4329C310.704 83.4709 318.031 90.7976 327.069 90.7976Z" fill="black"/>
<path d="M323.292 69.3976C323.292 72.8738 320.474 75.6918 316.998 75.6918C313.522 75.6918 310.704 72.8738 310.704 69.3976C310.704 65.9215 313.522 63.1035 316.998 63.1035C320.474 63.1035 323.292 65.9215 323.292 69.3976Z" fill="white"/>
<g filter="url(#filter9_i)">
<path d="M262.869 105.903C278.164 105.903 290.563 93.5044 290.563 78.2094C290.563 62.9143 278.164 50.5153 262.869 50.5153C247.574 50.5153 235.175 62.9143 235.175 78.2094C235.175 93.5044 247.574 105.903 262.869 105.903Z" fill="white"/>
</g>
<path d="M340.66 17.4382L378.582 55.8736C378.881 56.1737 379.259 56.3819 379.672 56.4737C380.085 56.5655 380.516 56.537 380.914 56.3915C381.312 56.2461 381.659 55.9897 381.915 55.653C382.171 55.3162 382.325 54.9131 382.359 54.4915V4.00443C382.391 3.66208 382.343 3.31694 382.219 2.99643C382.094 2.67593 381.896 2.38888 381.641 2.15811C381.386 1.92734 381.08 1.75924 380.748 1.66708C380.417 1.57493 380.068 1.56129 379.731 1.62727L341.836 13.6928C341.434 13.7587 341.058 13.9348 340.75 14.2016C340.443 14.4683 340.215 14.8152 340.093 15.2036C339.971 15.592 339.959 16.0066 340.06 16.4011C340.16 16.7957 340.368 17.1547 340.66 17.4382V17.4382Z" fill="#F27500"/>
<path d="M352.212 19.7463L373.546 41.3481C373.71 41.5192 373.919 41.6394 374.15 41.6944C374.381 41.7493 374.622 41.7366 374.846 41.6578C375.069 41.579 375.265 41.4375 375.41 41.2501C375.555 41.0628 375.643 40.8377 375.663 40.6018L375.206 9.96125C375.232 9.76499 375.211 9.56539 375.144 9.37903C375.077 9.19267 374.967 9.02494 374.822 8.88977C374.677 8.75461 374.502 8.65593 374.311 8.60191C374.121 8.54789 373.92 8.54008 373.726 8.57918L352.848 17.6179C352.621 17.6584 352.41 17.7611 352.238 17.9144C352.066 18.0677 351.94 18.2658 351.874 18.4864C351.808 18.7071 351.805 18.9417 351.865 19.1641C351.924 19.3866 352.045 19.5881 352.212 19.7463Z" fill="black"/>
<path d="M252.17 17.5074L214.193 55.929C213.896 56.2306 213.518 56.4402 213.106 56.5329C212.693 56.6255 212.262 56.5972 211.864 56.4513C211.467 56.3054 211.12 56.0482 210.866 55.7104C210.611 55.3726 210.46 54.9686 210.429 54.5469V4.05984C210.394 3.71679 210.44 3.37025 210.564 3.0483C210.688 2.72634 210.885 2.438 211.141 2.20656C211.397 1.97513 211.704 1.80709 212.037 1.71608C212.37 1.62507 212.72 1.61364 213.058 1.68268L250.953 13.7481C251.361 13.8058 251.745 13.977 252.06 14.2421C252.376 14.5072 252.611 14.8556 252.738 15.2476C252.865 15.6395 252.879 16.0592 252.778 16.4588C252.678 16.8584 252.467 17.2217 252.17 17.5074V17.5074Z" fill="#F27500"/>
<path d="M240.618 19.8569L219.284 41.4172C219.12 41.5883 218.91 41.7085 218.68 41.7635C218.449 41.8184 218.208 41.8057 217.984 41.7269C217.761 41.6481 217.565 41.5065 217.42 41.3192C217.275 41.1319 217.187 40.9068 217.167 40.6709L217.61 10.0304C217.584 9.8341 217.605 9.6345 217.672 9.44814C217.739 9.26178 217.849 9.09405 217.994 8.95888C218.139 8.82371 218.314 8.725 218.504 8.67098C218.695 8.61695 218.896 8.60919 219.09 8.64828L239.981 17.687C240.22 17.7158 240.446 17.8141 240.63 17.9697C240.814 18.1253 240.948 18.3314 241.015 18.5624C241.083 18.7933 241.082 19.0391 241.011 19.2692C240.94 19.4993 240.803 19.7036 240.618 19.8569V19.8569Z" fill="black"/>
<path d="M300.191 2.77442L318.661 2.13863C318.854 2.13452 319.042 2.19216 319.2 2.30308C319.357 2.414 319.474 2.57238 319.534 2.75489C319.595 2.9374 319.595 3.13444 319.535 3.31707C319.475 3.4997 319.358 3.65825 319.201 3.76947L317.555 4.91661L330.712 4.81986C330.914 4.81426 331.111 4.87666 331.273 4.997C331.435 5.11734 331.552 5.28864 331.605 5.48331C331.658 5.67798 331.643 5.8847 331.564 6.07021C331.485 6.25571 331.346 6.4092 331.168 6.50599L328.498 8.01244" fill="#F27500"/>
<path d="M264.151 8.60676L283.586 3.02627C283.769 2.9512 283.972 2.9387 284.163 2.99071C284.354 3.04273 284.523 3.15635 284.643 3.31392C284.763 3.47148 284.827 3.66415 284.826 3.86206C284.825 4.05996 284.759 4.25201 284.637 4.40834L281.985 3.9354" fill="#F27500"/>
<path d="M264.151 8.6064L283.701 2.90563C283.885 2.83057 284.088 2.81806 284.279 2.87008C284.47 2.92209 284.511 2.89119 284.631 3.04875C284.751 3.20631 284.815 3.39899 284.814 3.59689C284.813 3.79479 284.747 3.98684 284.625 4.14317L281.985 3.93504" fill="#F27500"/>
<path d="M283.797 3.67284L301.949 0.189994C302.137 0.157674 302.33 0.186028 302.501 0.27089C302.672 0.355752 302.812 0.492734 302.9 0.662044C302.987 0.831354 303.019 1.02418 302.99 1.21263C302.961 1.40108 302.872 1.57538 302.737 1.71028L301.354 3.09235" fill="#F27500"/>
<path fill-rule="evenodd" clip-rule="evenodd" d="M274.198 74.4329C274.198 83.4709 266.871 90.7976 257.833 90.7976C248.795 90.7976 241.469 83.4709 241.469 74.4329C241.469 73.0869 241.631 71.7788 241.938 70.5272C242.878 72.819 245.132 74.4329 247.763 74.4329C251.239 74.4329 254.057 71.615 254.057 68.1388C254.057 64.6627 251.239 61.8447 247.763 61.8447C247.628 61.8447 247.494 61.849 247.361 61.8573C250.199 59.4915 253.85 58.0682 257.833 58.0682C266.871 58.0682 274.198 65.395 274.198 74.4329Z" fill="black"/>
</g>
<path d="M351.107 398.052V387.481C351.107 383.66 348.01 380.562 344.189 380.562C340.368 380.562 337.271 383.66 337.271 387.481V398.052C337.271 401.873 340.368 404.971 344.189 404.971C348.01 404.971 351.107 401.873 351.107 398.052Z" fill="#FDE01B"/>
<path d="M338.655 398.052V387.481C338.655 383.66 335.558 380.562 331.737 380.562C327.916 380.562 324.818 383.66 324.818 387.481V398.052C324.818 401.873 327.916 404.971 331.737 404.971C335.558 404.971 338.655 401.873 338.655 398.052Z" fill="#FDE01B"/>
<path d="M326.202 398.55V387.979C326.202 384.158 323.105 381.06 319.284 381.06C315.463 381.06 312.365 384.158 312.365 387.979V398.55C312.365 402.371 315.463 405.469 319.284 405.469C323.105 405.469 326.202 402.371 326.202 398.55Z" fill="#FDE01B"/>
<path d="M284.843 396.959V386.387C284.843 382.566 281.745 379.469 277.924 379.469C274.103 379.469 271.006 382.566 271.006 386.387V396.959C271.006 400.78 274.103 403.877 277.924 403.877C281.745 403.877 284.843 400.78 284.843 396.959Z" fill="#FDE01B"/>
<path d="M272.391 396.959V386.387C272.391 382.566 269.293 379.469 265.472 379.469C261.651 379.469 258.554 382.566 258.554 386.387V396.959C258.554 400.78 261.651 403.877 265.472 403.877C269.293 403.877 272.391 400.78 272.391 396.959Z" fill="#FDE01B"/>
<path d="M259.95 397.457V386.885C259.95 383.064 256.853 379.967 253.032 379.967C249.211 379.967 246.113 383.064 246.113 386.885V397.457C246.113 401.278 249.211 404.375 253.032 404.375C256.853 404.375 259.95 401.278 259.95 397.457Z" fill="#FDE01B"/>
<path d="M340.548 362.695C340.548 360.118 336.469 358.028 331.436 358.028C326.404 358.028 322.324 360.118 322.324 362.695V385.668C322.324 388.245 326.404 390.335 331.436 390.335C336.469 390.335 340.548 388.245 340.548 385.668V362.695Z" fill="#FDE01B"/>
<path d="M273.45 362.695C273.45 360.118 269.556 358.028 264.753 358.028C259.949 358.028 256.055 360.118 256.055 362.695V385.668C256.055 388.245 259.949 390.335 264.753 390.335C269.556 390.335 273.45 388.245 273.45 385.668V362.695Z" fill="#FDE01B"/>
<path d="M361.312 73.8627C361.312 93.5029 352.913 108.999 332.813 108.999C312.713 108.999 298.067 94.2967 298.067 74.6565C298.067 55.0163 308.809 46.1443 328.909 46.1443C349.009 46.1443 361.312 54.2225 361.312 73.8627Z" fill="black"/>
<path d="M391.196 111.567C317.603 103.461 293.565 62.8612 270.235 6.5285L284.23 2.75916C351.593 96.0976 392.07 95.4142 392.07 95.4142C393.574 98.3333 392.712 104.996 391.196 111.567Z" fill="black"/>
<defs>
<filter id="filter0_i" x="198" y="-14.8291" width="210" height="443" filterUnits="userSpaceOnUse" color-interpolation-filters="sRGB">
<feFlood flood-opacity="0" result="BackgroundImageFix"/>
<feBlend mode="normal" in="SourceGraphic" in2="BackgroundImageFix" result="shape"/>
<feColorMatrix in="SourceAlpha" type="matrix" values="0 0 0 0 0 0 0 0 0 0 0 0 0 0 0 0 0 0 127 0" result="hardAlpha"/>
<feOffset dx="21" dy="-21"/>
<feGaussianBlur stdDeviation="7.5"/>
<feComposite in2="hardAlpha" operator="arithmetic" k2="-1" k3="1"/>
<feColorMatrix type="matrix" values="0 0 0 0 0 0 0 0 0 0 0 0 0 0 0 0 0 0 0.12 0"/>
<feBlend mode="normal" in2="shape" result="effect1_innerShadow"/>
</filter>
<filter id="filter1_d" x="194.317" y="165.646" width="64.6368" height="193.916" filterUnits="userSpaceOnUse" color-interpolation-filters="sRGB">
<feFlood flood-opacity="0" result="BackgroundImageFix"/>
<feColorMatrix in="SourceAlpha" type="matrix" values="0 0 0 0 0 0 0 0 0 0 0 0 0 0 0 0 0 0 127 0"/>
<feOffset dy="4"/>
<feGaussianBlur stdDeviation="2"/>
<feColorMatrix type="matrix" values="0 0 0 0 0 0 0 0 0 0 0 0 0 0 0 0 0 0 0.25 0"/>
<feBlend mode="normal" in2="BackgroundImageFix" result="effect1_dropShadow"/>
<feBlend mode="normal" in="SourceGraphic" in2="effect1_dropShadow" result="shape"/>
</filter>
<filter id="filter2_d" x="280.171" y="142.644" width="137.478" height="141.408" filterUnits="userSpaceOnUse" color-interpolation-filters="sRGB">
<feFlood flood-opacity="0" result="BackgroundImageFix"/>
<feColorMatrix in="SourceAlpha" type="matrix" values="0 0 0 0 0 0 0 0 0 0 0 0 0 0 0 0 0 0 127 0"/>
<feOffset dy="4"/>
<feGaussianBlur stdDeviation="2"/>
<feColorMatrix type="matrix" values="0 0 0 0 0 0 0 0 0 0 0 0 0 0 0 0 0 0 0.25 0"/>
<feBlend mode="normal" in2="BackgroundImageFix" result="effect1_dropShadow"/>
<feBlend mode="normal" in="SourceGraphic" in2="effect1_dropShadow" result="shape"/>
</filter>
<filter id="filter3_i" x="229.452" y="50.5238" width="55.3548" height="59.3882" filterUnits="userSpaceOnUse" color-interpolation-filters="sRGB">
<feFlood flood-opacity="0" result="BackgroundImageFix"/>
<feBlend mode="normal" in="SourceGraphic" in2="BackgroundImageFix" result="shape"/>
<feColorMatrix in="SourceAlpha" type="matrix" values="0 0 0 0 0 0 0 0 0 0 0 0 0 0 0 0 0 0 127 0" result="hardAlpha"/>
<feOffset dy="4"/>
<feGaussianBlur stdDeviation="2"/>
<feComposite in2="hardAlpha" operator="arithmetic" k2="-1" k3="1"/>
<feColorMatrix type="matrix" values="0 0 0 0 0 0 0 0 0 0 0 0 0 0 0 0 0 0 0.25 0"/>
<feBlend mode="normal" in2="shape" result="effect1_innerShadow"/>
</filter>
<filter id="filter4_i" x="299.903" y="50.5238" width="55.3548" height="59.3882" filterUnits="userSpaceOnUse" color-interpolation-filters="sRGB">
<feFlood flood-opacity="0" result="BackgroundImageFix"/>
<feBlend mode="normal" in="SourceGraphic" in2="BackgroundImageFix" result="shape"/>
<feColorMatrix in="SourceAlpha" type="matrix" values="0 0 0 0 0 0 0 0 0 0 0 0 0 0 0 0 0 0 127 0" result="hardAlpha"/>
<feOffset dy="4"/>
<feGaussianBlur stdDeviation="2"/>
<feComposite in2="hardAlpha" operator="arithmetic" k2="-1" k3="1"/>
<feColorMatrix type="matrix" values="0 0 0 0 0 0 0 0 0 0 0 0 0 0 0 0 0 0 0.25 0"/>
<feBlend mode="normal" in2="shape" result="effect1_innerShadow"/>
</filter>
<filter id="filter5_i" x="197.41" y="-14.8376" width="210.118" height="443" filterUnits="userSpaceOnUse" color-interpolation-filters="sRGB">
<feFlood flood-opacity="0" result="BackgroundImageFix"/>
<feBlend mode="normal" in="SourceGraphic" in2="BackgroundImageFix" result="shape"/>
<feColorMatrix in="SourceAlpha" type="matrix" values="0 0 0 0 0 0 0 0 0 0 0 0 0 0 0 0 0 0 127 0" result="hardAlpha"/>
<feOffset dx="21" dy="-21"/>
<feGaussianBlur stdDeviation="7.5"/>
<feComposite in2="hardAlpha" operator="arithmetic" k2="-1" k3="1"/>
<feColorMatrix type="matrix" values="0 0 0 0 0 0 0 0 0 0 0 0 0 0 0 0 0 0 0.12 0"/>
<feBlend mode="normal" in2="shape" result="effect1_innerShadow"/>
</filter>
<filter id="filter6_d" x="331.54" y="165.638" width="64.671" height="193.916" filterUnits="userSpaceOnUse" color-interpolation-filters="sRGB">
<feFlood flood-opacity="0" result="BackgroundImageFix"/>
<feColorMatrix in="SourceAlpha" type="matrix" values="0 0 0 0 0 0 0 0 0 0 0 0 0 0 0 0 0 0 127 0"/>
<feOffset dy="4"/>
<feGaussianBlur stdDeviation="2"/>
<feColorMatrix type="matrix" values="0 0 0 0 0 0 0 0 0 0 0 0 0 0 0 0 0 0 0.25 0"/>
<feBlend mode="normal" in2="BackgroundImageFix" result="effect1_dropShadow"/>
<feBlend mode="normal" in="SourceGraphic" in2="effect1_dropShadow" result="shape"/>
</filter>
<filter id="filter7_d" x="192.71" y="163.088" width="64.6554" height="193.944" filterUnits="userSpaceOnUse" color-interpolation-filters="sRGB">
<feFlood flood-opacity="0" result="BackgroundImageFix"/>
<feColorMatrix in="SourceAlpha" type="matrix" values="0 0 0 0 0 0 0 0 0 0 0 0 0 0 0 0 0 0 127 0"/>
<feOffset dy="4"/>
<feGaussianBlur stdDeviation="2"/>
<feColorMatrix type="matrix" values="0 0 0 0 0 0 0 0 0 0 0 0 0 0 0 0 0 0 0.25 0"/>
<feBlend mode="normal" in2="BackgroundImageFix" result="effect1_dropShadow"/>
<feBlend mode="normal" in="SourceGraphic" in2="effect1_dropShadow" result="shape"/>
</filter>
<filter id="filter8_i" x="305.669" y="50.5153" width="55.3882" height="59.3882" filterUnits="userSpaceOnUse" color-interpolation-filters="sRGB">
<feFlood flood-opacity="0" result="BackgroundImageFix"/>
<feBlend mode="normal" in="SourceGraphic" in2="BackgroundImageFix" result="shape"/>
<feColorMatrix in="SourceAlpha" type="matrix" values="0 0 0 0 0 0 0 0 0 0 0 0 0 0 0 0 0 0 127 0" result="hardAlpha"/>
<feOffset dy="4"/>
<feGaussianBlur stdDeviation="2"/>
<feComposite in2="hardAlpha" operator="arithmetic" k2="-1" k3="1"/>
<feColorMatrix type="matrix" values="0 0 0 0 0 0 0 0 0 0 0 0 0 0 0 0 0 0 0.25 0"/>
<feBlend mode="normal" in2="shape" result="effect1_innerShadow"/>
</filter>
<filter id="filter9_i" x="235.175" y="50.5153" width="55.3882" height="59.3882" filterUnits="userSpaceOnUse" color-interpolation-filters="sRGB">
<feFlood flood-opacity="0" result="BackgroundImageFix"/>
<feBlend mode="normal" in="SourceGraphic" in2="BackgroundImageFix" result="shape"/>
<feColorMatrix in="SourceAlpha" type="matrix" values="0 0 0 0 0 0 0 0 0 0 0 0 0 0 0 0 0 0 127 0" result="hardAlpha"/>
<feOffset dy="4"/>
<feGaussianBlur stdDeviation="2"/>
<feComposite in2="hardAlpha" operator="arithmetic" k2="-1" k3="1"/>
<feColorMatrix type="matrix" values="0 0 0 0 0 0 0 0 0 0 0 0 0 0 0 0 0 0 0.25 0"/>
<feBlend mode="normal" in2="shape" result="effect1_innerShadow"/>
</filter>
<clipPath id="clip0">
<rect width="195" height="428" fill="white" transform="matrix(-1 0 0 1 393 0.170898)"/>
</clipPath>
<clipPath id="clip1">
<rect width="195.118" height="428" fill="white" transform="translate(197.41 0.162354)"/>
</clipPath>
</defs>
</svg>
