<svg width="404" height="533" viewBox="0 0 404 533" fill="none" xmlns="http://www.w3.org/2000/svg">
<path d="M-42 395.171H397C400.866 395.171 404 398.305 404 402.171C404 406.037 400.866 409.171 397 409.171H-42C-45.866 409.171 -49 406.037 -49 402.171C-49 398.305 -45.866 395.171 -42 395.171Z" fill="#F27500"/>
<path d="M5.91519 420.171L216 402.328L169.093 397.48L-12.0493 388.171L-37 402.328L5.91519 420.171Z" fill="#F27500"/>
<path d="M124.71 381.72C124.71 312.659 39.4796 292.209 -3.13561 290.616L-121.115 321.114V604.611H339.443C339.443 376.818 124.71 468.047 124.71 381.72Z" fill="white"/>
<g clip-path="url(#clip0)" filter="url(#filter0_i)">
<path d="M346.598 369.681C374.168 346.394 392.53 304.918 392.53 257.623C392.53 184.788 348.976 125.746 295.258 125.746C241.541 125.746 197.987 184.788 197.987 257.623C197.987 304.144 215.754 345.025 242.578 368.507" fill="#F27500"/>
<path d="M293.322 192.763C240.822 192.763 198.263 150.222 198.263 97.7451C198.263 45.2684 240.822 2.72766 293.322 2.72766C345.822 2.72766 388.382 45.2684 388.382 97.7451C388.382 150.222 345.822 192.763 293.322 192.763Z" fill="#F27500"/>
<path d="M254.858 246.699C260.664 252.136 274.598 258.764 283.887 241.784C282.993 242.454 297.508 265.914 311.128 241.784C312.022 241.784 325.419 265.914 337.7 241.784" stroke="#F69131" stroke-width="2" stroke-linecap="round" stroke-linejoin="round"/>
<path d="M270.266 227.484C280.091 227.484 284.333 220.335 285.226 216.76C284.333 217.43 298.847 240.89 312.468 216.76C313.361 220.335 317.604 227.484 327.429 227.484" stroke="#F69131" stroke-width="2" stroke-linecap="round" stroke-linejoin="round"/>
<g filter="url(#filter1_d)">
<path d="M198.401 262.405C199.466 297.178 210.348 328.51 227.299 351.563C245.343 326.962 256.018 292.548 254.87 254.817C253.805 220.031 242.924 188.713 225.972 165.646C207.942 190.219 197.254 224.633 198.401 262.405Z" fill="#F69131"/>
</g>
<g filter="url(#filter2_d)">
<path d="M371.699 192.248C395.332 217.764 409.545 247.723 413.649 276.052C383.536 271.186 351.791 254.163 326.121 226.447C302.488 200.932 288.275 170.973 284.171 142.644C314.274 147.5 346.02 164.523 371.699 192.248Z" fill="#F69131"/>
</g>
<path d="M226.387 165.093L212.449 152.973C212.299 152.846 212.193 152.674 212.15 152.483C212.107 152.291 212.127 152.09 212.209 151.911C212.291 151.733 212.429 151.585 212.602 151.493C212.775 151.4 212.974 151.366 213.168 151.397L215.159 151.687L205.481 142.787C205.335 142.652 205.238 142.473 205.205 142.277C205.171 142.082 205.204 141.881 205.297 141.706C205.39 141.53 205.539 141.391 205.72 141.309C205.9 141.227 206.103 141.207 206.296 141.253L209.283 141.971" fill="#F27500"/>
<path d="M362.664 162.937L376.228 150.333C376.367 150.2 376.459 150.026 376.492 149.836C376.525 149.646 376.495 149.451 376.409 149.28C376.322 149.108 376.182 148.968 376.01 148.882C375.838 148.795 375.643 148.766 375.454 148.799L373.476 149.158L382.851 139.926C382.993 139.786 383.085 139.604 383.112 139.406C383.139 139.209 383.099 139.008 382.999 138.835C382.9 138.663 382.745 138.528 382.561 138.453C382.376 138.378 382.172 138.366 381.98 138.42L379.021 139.221" fill="#F27500"/>
<path d="M294.533 100.026L303.562 112.464C303.75 112.657 303.898 112.885 303.997 113.136C304.095 113.386 304.143 113.654 304.136 113.923C304.13 114.192 304.07 114.457 303.959 114.703C303.848 114.949 303.69 115.17 303.493 115.353L293.938 131.44C293.543 131.814 293.016 132.017 292.472 132.004C291.928 131.991 291.411 131.764 291.035 131.371L282.006 114.786C281.622 114.4 281.407 113.879 281.407 113.335C281.407 112.791 281.622 112.27 282.006 111.884L291.574 100.039C291.762 99.8352 291.99 99.6718 292.244 99.5596C292.498 99.4474 292.773 99.3889 293.05 99.3876C293.328 99.3863 293.603 99.4423 293.858 99.5521C294.113 99.6619 294.343 99.8231 294.533 100.026Z" fill="#FDE01B"/>
<path d="M291.74 127.561C293.271 130.625 293.646 131.73 293.965 131.41C292.817 132.559 291.533 131.88 291.055 131.401C288.344 126.614 282.703 116.651 281.937 115.119C281.172 113.587 281.373 112.72 281.533 112.56C283.822 108.731 290.472 100.942 292.059 99.634C292.893 98.9464 293.6 99.3969 293.971 99.6329L293.973 99.634L294.582 100.083L284.404 113.518C286.317 117.028 290.209 124.497 291.74 127.561Z" fill="#F2D405"/>
<g filter="url(#filter3_i)">
<path d="M257.129 105.912C241.843 105.912 229.452 93.513 229.452 78.2179C229.452 62.9229 241.843 50.5238 257.129 50.5238C272.415 50.5238 284.807 62.9229 284.807 78.2179C284.807 93.513 272.415 105.912 257.129 105.912Z" fill="white"/>
</g>
<path d="M263.42 90.8062C254.387 90.8062 247.065 83.4795 247.065 74.4415C247.065 65.4035 254.387 58.0768 263.42 58.0768C272.452 58.0768 279.774 65.4035 279.774 74.4415C279.774 83.4795 272.452 90.8062 263.42 90.8062Z" fill="black"/>
<path d="M267.194 69.4062C267.194 72.8823 270.01 75.7003 273.484 75.7003C276.958 75.7003 279.774 72.8823 279.774 69.4062C279.774 65.93 276.958 63.1121 273.484 63.1121C270.01 63.1121 267.194 65.93 267.194 69.4062Z" fill="white"/>
<g filter="url(#filter4_i)">
<path d="M327.58 105.912C312.295 105.912 299.903 93.513 299.903 78.2179C299.903 62.9229 312.295 50.5238 327.58 50.5238C342.866 50.5238 355.258 62.9229 355.258 78.2179C355.258 93.513 342.866 105.912 327.58 105.912Z" fill="white"/>
</g>
<path d="M332.613 90.8062C323.58 90.8062 316.258 83.4795 316.258 74.4415C316.258 65.4035 323.58 58.0768 332.613 58.0768C341.645 58.0768 348.968 65.4035 348.968 74.4415C348.968 83.4795 341.645 90.8062 332.613 90.8062Z" fill="black"/>
<path d="M249.837 17.4467L211.937 55.8821C211.639 56.1822 211.261 56.3905 210.848 56.4823C210.435 56.5741 210.004 56.5456 209.607 56.4001C209.209 56.2546 208.862 55.9983 208.606 55.6615C208.35 55.3247 208.196 54.9217 208.162 54.5001V4.01298C208.13 3.67063 208.178 3.32548 208.303 3.00498C208.428 2.68448 208.625 2.39743 208.88 2.16666C209.135 1.93589 209.441 1.76778 209.772 1.67563C210.104 1.58348 210.452 1.56983 210.79 1.63581L248.661 13.7013C249.063 13.7672 249.439 13.9433 249.746 14.2101C250.054 14.4769 250.281 14.8238 250.403 15.2122C250.525 15.6005 250.537 16.0151 250.437 16.4097C250.337 16.8042 250.129 17.1632 249.837 17.4467V17.4467Z" fill="#F27500"/>
<path d="M238.291 19.7549L216.97 41.3566C216.806 41.5277 216.597 41.648 216.366 41.7029C216.136 41.7578 215.895 41.7452 215.671 41.6664C215.448 41.5876 215.252 41.446 215.107 41.2587C214.962 41.0714 214.875 40.8462 214.855 40.6103L215.311 9.96979C215.285 9.77354 215.306 9.57393 215.373 9.38758C215.44 9.20122 215.55 9.03348 215.695 8.89832C215.84 8.76315 216.015 8.66448 216.205 8.61046C216.396 8.55643 216.596 8.54863 216.79 8.58772L237.655 17.6265C237.882 17.667 238.093 17.7696 238.265 17.9229C238.437 18.0763 238.563 18.2743 238.629 18.495C238.695 18.7156 238.698 18.9502 238.638 19.1727C238.579 19.3951 238.459 19.5967 238.291 19.7549Z" fill="black"/>
<path d="M338.273 17.5159L376.228 55.9375C376.524 56.2391 376.901 56.4488 377.314 56.5414C377.727 56.6341 378.157 56.6058 378.554 56.4599C378.951 56.314 379.298 56.0567 379.552 55.7189C379.807 55.3811 379.958 54.9772 379.989 54.5555V4.06839C380.024 3.72533 379.978 3.3788 379.854 3.05684C379.73 2.73489 379.533 2.44654 379.277 2.21511C379.021 1.98367 378.715 1.81564 378.382 1.72463C378.049 1.63361 377.699 1.62219 377.361 1.69122L339.49 13.7567C339.082 13.8143 338.698 13.9855 338.383 14.2506C338.067 14.5157 337.833 14.8642 337.706 15.2561C337.579 15.6481 337.565 16.0678 337.665 16.4673C337.765 16.8669 337.976 17.2303 338.273 17.5159V17.5159Z" fill="#F27500"/>
<path d="M349.818 19.8654L371.139 41.4257C371.303 41.5968 371.513 41.7171 371.743 41.772C371.974 41.827 372.215 41.8142 372.438 41.7354C372.662 41.6566 372.858 41.5151 373.002 41.3278C373.147 41.1404 373.235 40.9153 373.255 40.6794L372.812 10.0389C372.838 9.84265 372.817 9.64304 372.75 9.45668C372.683 9.27033 372.573 9.10259 372.428 8.96742C372.284 8.83226 372.109 8.73354 371.918 8.67952C371.728 8.6255 371.527 8.61774 371.333 8.65683L350.454 17.6955C350.215 17.7244 349.99 17.8227 349.806 17.9783C349.623 18.1339 349.488 18.3399 349.421 18.5709C349.353 18.8019 349.355 19.0477 349.425 19.2778C349.496 19.5079 349.633 19.7122 349.818 19.8654V19.8654Z" fill="black"/>
<path d="M290.28 2.78296L271.821 2.14718C271.629 2.14306 271.441 2.20071 271.284 2.31163C271.126 2.42255 271.009 2.58092 270.949 2.76343C270.889 2.94595 270.888 3.14299 270.948 3.32562C271.008 3.50825 271.125 3.66679 271.282 3.77801L272.928 4.92516L259.778 4.8284C259.577 4.8228 259.379 4.88521 259.217 5.00555C259.055 5.12589 258.938 5.29718 258.886 5.49185C258.833 5.68652 258.847 5.89324 258.926 6.07875C259.006 6.26426 259.145 6.41775 259.322 6.51453L261.991 8.02098" fill="#F27500"/>
<path d="M326.3 8.61533L308.09 0.737544C307.907 0.662481 307.704 0.649975 307.513 0.701989C307.322 0.754003 307.153 0.867631 307.033 1.02519C306.914 1.18276 306.849 1.37543 306.85 1.57333C306.851 1.77124 306.918 1.96328 307.039 2.11962L308.477 3.94396" fill="#F27500"/>
<path d="M326.299 8.61496L308.089 0.737178C307.906 0.662115 307.703 0.649609 307.512 0.701623C307.321 0.753637 307.152 0.867265 307.032 1.02483C306.913 1.18239 306.848 1.37507 306.849 1.57297C306.85 1.77087 306.917 1.96292 307.038 2.11925L308.476 3.94359" fill="#F27500"/>
<path d="M306.665 3.68139L288.524 0.198539C288.336 0.166219 288.143 0.194573 287.972 0.279435C287.801 0.364297 287.662 0.501279 287.574 0.670589C287.486 0.839899 287.455 1.03272 287.484 1.22117C287.513 1.40963 287.601 1.58392 287.736 1.71883L289.119 3.1009" fill="#F27500"/>
<path d="M336.387 68.1474C336.387 71.6235 339.203 74.4415 342.677 74.4415C346.151 74.4415 348.968 71.6235 348.968 68.1474C348.968 64.6712 346.151 61.8533 342.677 61.8533C339.203 61.8533 336.387 64.6712 336.387 68.1474Z" fill="white"/>
<ellipse rx="22.0161" ry="11.9588" transform="matrix(-1 0 0 1 326.952 107.8)" fill="#F27500"/>
<ellipse rx="27.0484" ry="11.9588" transform="matrix(-1 0 0 1 253.984 107.8)" fill="#F27500"/>
</g>
<g clip-path="url(#clip1)" filter="url(#filter5_i)">
<path d="M244.073 369.673C216.503 346.385 198.141 304.909 198.141 257.615C198.141 184.779 241.695 125.737 295.412 125.737C349.13 125.737 392.684 184.779 392.684 257.615C392.684 304.135 374.917 345.017 348.093 368.498" fill="#F27500"/>
<path d="M297.349 192.754C349.849 192.754 392.408 150.213 392.408 97.7366C392.408 45.2599 349.849 2.71912 297.349 2.71912C244.849 2.71912 202.289 45.2599 202.289 97.7366C202.289 150.213 244.849 192.754 297.349 192.754Z" fill="#F27500"/>
<path d="M336.301 247.387C330.479 252.839 316.506 259.486 307.191 242.457C308.086 243.13 293.531 266.656 279.872 242.457C278.976 242.457 265.541 266.656 253.225 242.457" stroke="#F69131" stroke-width="2" stroke-linecap="round" stroke-linejoin="round"/>
<path d="M320.85 228.118C310.997 228.118 306.742 220.948 305.847 217.363C306.742 218.035 292.187 241.561 278.528 217.363C277.632 220.948 273.378 228.118 263.525 228.118" stroke="#F69131" stroke-width="2" stroke-linecap="round" stroke-linejoin="round"/>
<g filter="url(#filter6_d)">
<path d="M392.27 262.397C391.205 297.169 380.323 328.501 363.372 351.554C345.328 326.953 334.653 292.54 335.801 254.809C336.866 220.022 347.747 188.704 364.699 165.638C382.729 190.211 393.417 224.624 392.27 262.397Z" fill="#F69131"/>
</g>
<g filter="url(#filter7_d)">
<path d="M253.585 252.853C253.281 218.066 243.076 186.514 226.636 163.088C208.067 187.302 196.646 221.48 196.978 259.266C197.282 294.053 207.486 325.606 223.926 349.032C242.496 324.832 253.917 290.653 253.585 252.853Z" fill="#F69131"/>
</g>
<path d="M364.284 165.085L378.222 152.964C378.372 152.838 378.477 152.666 378.521 152.474C378.564 152.282 378.544 152.082 378.462 151.903C378.38 151.724 378.242 151.577 378.069 151.484C377.896 151.391 377.697 151.358 377.503 151.389L375.512 151.679L385.19 142.778C385.336 142.644 385.433 142.464 385.466 142.269C385.5 142.073 385.467 141.872 385.374 141.697C385.281 141.522 385.132 141.382 384.951 141.301C384.771 141.219 384.568 141.199 384.375 141.244L381.388 141.963" fill="#F27500"/>
<path d="M228.007 162.929L214.443 150.324C214.304 150.191 214.211 150.017 214.179 149.828C214.146 149.638 214.176 149.443 214.262 149.271C214.349 149.099 214.489 148.96 214.661 148.873C214.832 148.787 215.028 148.758 215.217 148.79L217.195 149.15L207.82 139.917C207.678 139.778 207.586 139.595 207.559 139.398C207.532 139.2 207.572 138.999 207.671 138.827C207.771 138.654 207.925 138.52 208.11 138.444C208.295 138.369 208.499 138.357 208.691 138.411L211.65 139.213" fill="#F27500"/>
<path d="M299.713 100.017L308.742 112.456C308.931 112.648 309.079 112.877 309.177 113.127C309.276 113.378 309.323 113.646 309.317 113.915C309.311 114.184 309.25 114.449 309.14 114.695C309.029 114.94 308.871 115.161 308.673 115.344L299.119 131.432C298.724 131.806 298.197 132.009 297.653 131.996C297.109 131.983 296.592 131.755 296.215 131.363L287.186 114.778C286.803 114.392 286.588 113.87 286.588 113.327C286.588 112.783 286.803 112.261 287.186 111.875L296.755 100.031C296.943 99.8267 297.171 99.6633 297.425 99.5512C297.679 99.439 297.953 99.3805 298.231 99.3792C298.509 99.3779 298.784 99.4339 299.039 99.5437C299.294 99.6535 299.524 99.8147 299.713 100.017Z" fill="#FDE01B"/>
<path d="M298.786 100.556C301.69 104.536 304.594 108.544 307.511 112.525C307.608 112.663 307.718 112.787 307.801 112.926C308.341 113.796 308.147 114.1 307.691 114.874L306.419 117.003L301.621 125.074L299.381 128.833C299.091 129.317 298.69 130.45 298.219 130.782C296.837 131.791 295.33 127.603 294.901 126.815L290.214 118.164L288.513 115.04C288.071 114.239 287.393 113.395 287.946 112.525C289.525 110.344 291.219 108.25 293.021 106.25L296.201 102.325C296.795 101.565 297.749 99.7406 298.966 100.763C300.183 101.786 301.455 100.155 300.432 99.2983C297.445 96.7415 295.426 100.031 293.739 102.062L287.199 110.161C286.744 110.48 286.364 110.895 286.086 111.377C285.809 111.859 285.641 112.396 285.595 112.95C285.549 113.504 285.625 114.062 285.819 114.583C286.013 115.104 286.319 115.576 286.716 115.966L291.389 124.576C292.545 127.02 293.838 129.396 295.26 131.694C295.508 132.029 295.822 132.31 296.183 132.518C296.543 132.726 296.943 132.858 297.357 132.904C297.771 132.951 298.191 132.912 298.589 132.789C298.987 132.667 299.355 132.463 299.671 132.192C300.163 131.64 300.572 131.021 300.888 130.353L306.267 121.301C307.483 119.269 309.032 117.224 310.028 115.109C310.788 113.561 310.028 112.345 309.087 111.087L306.018 106.941L300.598 99.5056C299.837 98.4414 298.04 99.4642 298.786 100.556Z" fill="black"/>
<path d="M290.324 115.386C289.987 115.005 289.801 114.513 289.801 114.004C289.801 113.495 289.987 113.003 290.324 112.622L298.316 101.814V100.86C297.625 100.073 296.56 99.7133 295.841 100.473L287.407 111.876C287.067 112.256 286.879 112.748 286.879 113.258C286.879 113.768 287.067 114.26 287.407 114.64L295.357 130.63C296.049 131.418 298.593 131.708 299.312 130.948L297.805 130.188C297.587 129.917 297.397 129.626 297.238 129.317L290.324 115.386Z" fill="#F2D405"/>
<path d="M298.648 100.473C301.552 104.467 304.455 108.475 307.373 112.456L307.677 112.856C308.203 113.727 308.009 114.031 307.553 114.805L306.294 116.933L301.552 125.005L299.326 128.764C299.035 129.248 298.634 130.381 298.15 130.713C296.768 131.722 295.261 127.534 294.832 126.732L290.145 118.094L288.444 114.971C288.002 114.156 287.324 113.326 287.891 112.456C289.469 110.279 291.158 108.184 292.952 106.181L296.132 102.256C296.74 101.496 297.694 99.6714 298.897 100.694C300.1 101.717 301.372 100.086 300.363 99.2291C297.362 96.6723 295.344 99.9616 293.657 101.993L287.117 110.092C286.301 110.848 285.741 111.838 285.513 112.925C285.573 114.007 285.964 115.044 286.633 115.897L291.306 124.507C292.462 126.95 293.755 129.327 295.178 131.625C295.425 131.96 295.739 132.24 296.1 132.449C296.461 132.657 296.86 132.789 297.274 132.835C297.688 132.882 298.108 132.843 298.506 132.72C298.904 132.597 299.273 132.394 299.588 132.122C300.083 131.565 300.497 130.942 300.819 130.27L306.198 121.232C307.401 119.2 308.963 117.155 309.945 115.04C310.705 113.492 309.945 112.276 309.005 111.018L305.949 106.872L300.515 99.4364C299.658 98.3584 297.86 99.395 298.648 100.473Z" fill="black"/>
<g filter="url(#filter8_i)">
<path d="M333.542 105.903C348.827 105.903 361.219 93.5044 361.219 78.2094C361.219 62.9143 348.827 50.5153 333.542 50.5153C318.256 50.5153 305.864 62.9143 305.864 78.2094C305.864 93.5044 318.256 105.903 333.542 105.903Z" fill="white"/>
</g>
<path d="M327.251 90.7976C336.284 90.7976 343.606 83.4709 343.606 74.4329C343.606 65.395 336.284 58.0682 327.251 58.0682C318.219 58.0682 310.896 65.395 310.896 74.4329C310.896 83.4709 318.219 90.7976 327.251 90.7976Z" fill="black"/>
<path d="M323.477 69.3976C323.477 72.8738 320.661 75.6918 317.187 75.6918C313.713 75.6918 310.896 72.8738 310.896 69.3976C310.896 65.9215 313.713 63.1035 317.187 63.1035C320.661 63.1035 323.477 65.9215 323.477 69.3976Z" fill="white"/>
<g filter="url(#filter9_i)">
<path d="M263.091 105.903C278.376 105.903 290.768 93.5044 290.768 78.2094C290.768 62.9143 278.376 50.5153 263.091 50.5153C247.805 50.5153 235.413 62.9143 235.413 78.2094C235.413 93.5044 247.805 105.903 263.091 105.903Z" fill="white"/>
</g>
<path d="M340.834 17.4373L378.734 55.8727C379.032 56.1728 379.41 56.3811 379.823 56.4729C380.236 56.5647 380.667 56.5362 381.064 56.3907C381.461 56.2452 381.809 55.9889 382.065 55.6521C382.321 55.3154 382.475 54.9123 382.508 54.4907V4.00358C382.541 3.66123 382.493 3.31608 382.368 2.99558C382.243 2.67508 382.046 2.38803 381.791 2.15726C381.536 1.92649 381.23 1.75838 380.899 1.66623C380.567 1.57408 380.219 1.56043 379.881 1.62641L342.01 13.6919C341.608 13.7578 341.232 13.9339 340.925 14.2007C340.617 14.4675 340.39 14.8144 340.268 15.2028C340.146 15.5911 340.134 16.0057 340.234 16.4003C340.334 16.7948 340.542 17.1538 340.834 17.4373V17.4373Z" fill="#F27500"/>
<path d="M352.38 19.7463L373.701 41.3481C373.864 41.5192 374.074 41.6394 374.305 41.6944C374.535 41.7493 374.776 41.7366 375 41.6578C375.223 41.579 375.419 41.4375 375.564 41.2501C375.709 41.0628 375.796 40.8377 375.816 40.6018L375.36 9.96125C375.386 9.76499 375.365 9.56539 375.298 9.37903C375.231 9.19267 375.121 9.02494 374.976 8.88977C374.831 8.75461 374.656 8.65593 374.466 8.60191C374.275 8.54789 374.075 8.54008 373.881 8.57918L353.016 17.6179C352.789 17.6584 352.578 17.7611 352.406 17.9144C352.234 18.0677 352.108 18.2658 352.042 18.4864C351.976 18.7071 351.973 18.9417 352.033 19.1641C352.092 19.3866 352.212 19.5881 352.38 19.7463Z" fill="black"/>
<path d="M252.398 17.5065L214.443 55.9281C214.147 56.2297 213.77 56.4394 213.357 56.532C212.944 56.6247 212.513 56.5964 212.116 56.4505C211.719 56.3046 211.373 56.0473 211.119 55.7095C210.864 55.3717 210.713 54.9678 210.682 54.5461V4.05899C210.647 3.71593 210.693 3.3694 210.817 3.04744C210.94 2.72549 211.138 2.43714 211.394 2.20571C211.65 1.97427 211.956 1.80624 212.289 1.71523C212.622 1.62421 212.971 1.61279 213.309 1.68182L251.181 13.7473C251.589 13.8049 251.973 13.9761 252.288 14.2412C252.604 14.5063 252.838 14.8548 252.965 15.2467C253.092 15.6387 253.106 16.0584 253.006 16.4579C252.906 16.8575 252.695 17.2209 252.398 17.5065V17.5065Z" fill="#F27500"/>
<path d="M240.852 19.8569L219.531 41.4172C219.368 41.5883 219.158 41.7085 218.928 41.7635C218.697 41.8184 218.456 41.8057 218.233 41.7269C218.009 41.6481 217.813 41.5065 217.669 41.3192C217.524 41.1319 217.436 40.9068 217.416 40.6709L217.858 10.0304C217.832 9.8341 217.854 9.6345 217.921 9.44814C217.987 9.26178 218.098 9.09405 218.242 8.95888C218.387 8.82371 218.562 8.725 218.753 8.67098C218.943 8.61695 219.144 8.60919 219.338 8.64828L240.216 17.687C240.456 17.7158 240.681 17.8141 240.865 17.9697C241.048 18.1253 241.182 18.3314 241.25 18.5624C241.318 18.7933 241.316 19.0391 241.246 19.2692C241.175 19.4993 241.038 19.7036 240.852 19.8569V19.8569Z" fill="black"/>
<path d="M300.391 2.77442L318.85 2.13863C319.042 2.13452 319.23 2.19216 319.387 2.30308C319.544 2.414 319.662 2.57238 319.722 2.75489C319.782 2.9374 319.783 3.13444 319.723 3.31707C319.663 3.4997 319.546 3.65825 319.389 3.76947L317.743 4.91661L330.893 4.81986C331.094 4.81426 331.292 4.87666 331.454 4.997C331.616 5.11734 331.733 5.28864 331.785 5.48331C331.838 5.67798 331.824 5.8847 331.744 6.07021C331.665 6.25571 331.526 6.4092 331.349 6.50599L328.68 8.01244" fill="#F27500"/>
<path d="M264.371 8.60676L283.794 3.02627C283.977 2.9512 284.18 2.9387 284.371 2.99071C284.562 3.04273 284.73 3.15635 284.85 3.31392C284.97 3.47148 285.034 3.66415 285.033 3.86206C285.032 4.05996 284.966 4.25201 284.845 4.40834L282.194 3.9354" fill="#F27500"/>
<path d="M264.371 8.6064L283.909 2.90563C284.092 2.83057 284.295 2.81806 284.486 2.87008C284.677 2.92209 284.719 2.89119 284.839 3.04875C284.958 3.20631 285.023 3.39899 285.022 3.59689C285.021 3.79479 284.954 3.98684 284.833 4.14317L282.194 3.93504" fill="#F27500"/>
<path d="M284.006 3.67284L302.147 0.189994C302.335 0.157674 302.528 0.186028 302.699 0.27089C302.87 0.355752 303.009 0.492734 303.097 0.662044C303.185 0.831354 303.216 1.02418 303.187 1.21263C303.158 1.40108 303.07 1.57538 302.935 1.71028L301.552 3.09235" fill="#F27500"/>
<path fill-rule="evenodd" clip-rule="evenodd" d="M274.413 74.4329C274.413 83.4709 267.09 90.7976 258.058 90.7976C249.025 90.7976 241.703 83.4709 241.703 74.4329C241.703 73.0869 241.866 71.7788 242.172 70.5272C243.112 72.819 245.364 74.4329 247.993 74.4329C251.467 74.4329 254.284 71.615 254.284 68.1388C254.284 64.6627 251.467 61.8447 247.993 61.8447C247.859 61.8447 247.725 61.849 247.592 61.8573C250.428 59.4915 254.077 58.0682 258.058 58.0682C267.09 58.0682 274.413 65.395 274.413 74.4329Z" fill="black"/>
</g>
<path d="M351.275 398.052V387.481C351.275 383.66 348.18 380.562 344.361 380.562C340.542 380.562 337.447 383.66 337.447 387.481V398.052C337.447 401.873 340.542 404.971 344.361 404.971C348.18 404.971 351.275 401.873 351.275 398.052Z" fill="#FDE01B"/>
<path d="M338.83 398.052V387.481C338.83 383.66 335.734 380.562 331.916 380.562C328.097 380.562 325.002 383.66 325.002 387.481V398.052C325.002 401.873 328.097 404.971 331.916 404.971C335.734 404.971 338.83 401.873 338.83 398.052Z" fill="#FDE01B"/>
<path d="M326.385 398.55V387.979C326.385 384.158 323.289 381.06 319.47 381.06C315.652 381.06 312.556 384.158 312.556 387.979V398.55C312.556 402.371 315.652 405.469 319.47 405.469C323.289 405.469 326.385 402.371 326.385 398.55Z" fill="#FDE01B"/>
<path d="M285.051 396.959V386.387C285.051 382.566 281.955 379.469 278.136 379.469C274.318 379.469 271.222 382.566 271.222 386.387V396.959C271.222 400.78 274.318 403.877 278.136 403.877C281.955 403.877 285.051 400.78 285.051 396.959Z" fill="#FDE01B"/>
<path d="M272.605 396.959V386.387C272.605 382.566 269.51 379.469 265.691 379.469C261.873 379.469 258.777 382.566 258.777 386.387V396.959C258.777 400.78 261.873 403.877 265.691 403.877C269.51 403.877 272.605 400.78 272.605 396.959Z" fill="#FDE01B"/>
<path d="M260.174 397.457V386.885C260.174 383.064 257.078 379.967 253.26 379.967C249.441 379.967 246.345 383.064 246.345 386.885V397.457C246.345 401.278 249.441 404.375 253.26 404.375C257.078 404.375 260.174 401.278 260.174 397.457Z" fill="#FDE01B"/>
<path d="M340.722 362.695C340.722 360.118 336.645 358.028 331.615 358.028C326.586 358.028 322.509 360.118 322.509 362.695V385.668C322.509 388.245 326.586 390.335 331.615 390.335C336.645 390.335 340.722 388.245 340.722 385.668V362.695Z" fill="#FDE01B"/>
<path d="M273.664 362.695C273.664 360.118 269.773 358.028 264.972 358.028C260.171 358.028 256.279 360.118 256.279 362.695V385.668C256.279 388.245 260.171 390.335 264.972 390.335C269.773 390.335 273.664 388.245 273.664 385.668V362.695Z" fill="#FDE01B"/>
<defs>
<filter id="filter0_i" x="198" y="-14.8291" width="210" height="443" filterUnits="userSpaceOnUse" color-interpolation-filters="sRGB">
<feFlood flood-opacity="0" result="BackgroundImageFix"/>
<feBlend mode="normal" in="SourceGraphic" in2="BackgroundImageFix" result="shape"/>
<feColorMatrix in="SourceAlpha" type="matrix" values="0 0 0 0 0 0 0 0 0 0 0 0 0 0 0 0 0 0 127 0" result="hardAlpha"/>
<feOffset dx="21" dy="-21"/>
<feGaussianBlur stdDeviation="7.5"/>
<feComposite in2="hardAlpha" operator="arithmetic" k2="-1" k3="1"/>
<feColorMatrix type="matrix" values="0 0 0 0 0 0 0 0 0 0 0 0 0 0 0 0 0 0 0.12 0"/>
<feBlend mode="normal" in2="shape" result="effect1_innerShadow"/>
</filter>
<filter id="filter1_d" x="194.317" y="165.646" width="64.6368" height="193.916" filterUnits="userSpaceOnUse" color-interpolation-filters="sRGB">
<feFlood flood-opacity="0" result="BackgroundImageFix"/>
<feColorMatrix in="SourceAlpha" type="matrix" values="0 0 0 0 0 0 0 0 0 0 0 0 0 0 0 0 0 0 127 0"/>
<feOffset dy="4"/>
<feGaussianBlur stdDeviation="2"/>
<feColorMatrix type="matrix" values="0 0 0 0 0 0 0 0 0 0 0 0 0 0 0 0 0 0 0.25 0"/>
<feBlend mode="normal" in2="BackgroundImageFix" result="effect1_dropShadow"/>
<feBlend mode="normal" in="SourceGraphic" in2="effect1_dropShadow" result="shape"/>
</filter>
<filter id="filter2_d" x="280.171" y="142.644" width="137.478" height="141.408" filterUnits="userSpaceOnUse" color-interpolation-filters="sRGB">
<feFlood flood-opacity="0" result="BackgroundImageFix"/>
<feColorMatrix in="SourceAlpha" type="matrix" values="0 0 0 0 0 0 0 0 0 0 0 0 0 0 0 0 0 0 127 0"/>
<feOffset dy="4"/>
<feGaussianBlur stdDeviation="2"/>
<feColorMatrix type="matrix" values="0 0 0 0 0 0 0 0 0 0 0 0 0 0 0 0 0 0 0.25 0"/>
<feBlend mode="normal" in2="BackgroundImageFix" result="effect1_dropShadow"/>
<feBlend mode="normal" in="SourceGraphic" in2="effect1_dropShadow" result="shape"/>
</filter>
<filter id="filter3_i" x="229.452" y="50.5238" width="55.3548" height="59.3882" filterUnits="userSpaceOnUse" color-interpolation-filters="sRGB">
<feFlood flood-opacity="0" result="BackgroundImageFix"/>
<feBlend mode="normal" in="SourceGraphic" in2="BackgroundImageFix" result="shape"/>
<feColorMatrix in="SourceAlpha" type="matrix" values="0 0 0 0 0 0 0 0 0 0 0 0 0 0 0 0 0 0 127 0" result="hardAlpha"/>
<feOffset dy="4"/>
<feGaussianBlur stdDeviation="2"/>
<feComposite in2="hardAlpha" operator="arithmetic" k2="-1" k3="1"/>
<feColorMatrix type="matrix" values="0 0 0 0 0 0 0 0 0 0 0 0 0 0 0 0 0 0 0.25 0"/>
<feBlend mode="normal" in2="shape" result="effect1_innerShadow"/>
</filter>
<filter id="filter4_i" x="299.903" y="50.5238" width="55.3548" height="59.3882" filterUnits="userSpaceOnUse" color-interpolation-filters="sRGB">
<feFlood flood-opacity="0" result="BackgroundImageFix"/>
<feBlend mode="normal" in="SourceGraphic" in2="BackgroundImageFix" result="shape"/>
<feColorMatrix in="SourceAlpha" type="matrix" values="0 0 0 0 0 0 0 0 0 0 0 0 0 0 0 0 0 0 127 0" result="hardAlpha"/>
<feOffset dy="4"/>
<feGaussianBlur stdDeviation="2"/>
<feComposite in2="hardAlpha" operator="arithmetic" k2="-1" k3="1"/>
<feColorMatrix type="matrix" values="0 0 0 0 0 0 0 0 0 0 0 0 0 0 0 0 0 0 0.25 0"/>
<feBlend mode="normal" in2="shape" result="effect1_innerShadow"/>
</filter>
<filter id="filter5_i" x="197.671" y="-14.8376" width="210" height="443" filterUnits="userSpaceOnUse" color-interpolation-filters="sRGB">
<feFlood flood-opacity="0" result="BackgroundImageFix"/>
<feBlend mode="normal" in="SourceGraphic" in2="BackgroundImageFix" result="shape"/>
<feColorMatrix in="SourceAlpha" type="matrix" values="0 0 0 0 0 0 0 0 0 0 0 0 0 0 0 0 0 0 127 0" result="hardAlpha"/>
<feOffset dx="21" dy="-21"/>
<feGaussianBlur stdDeviation="7.5"/>
<feComposite in2="hardAlpha" operator="arithmetic" k2="-1" k3="1"/>
<feColorMatrix type="matrix" values="0 0 0 0 0 0 0 0 0 0 0 0 0 0 0 0 0 0 0.12 0"/>
<feBlend mode="normal" in2="shape" result="effect1_innerShadow"/>
</filter>
<filter id="filter6_d" x="331.717" y="165.638" width="64.6368" height="193.916" filterUnits="userSpaceOnUse" color-interpolation-filters="sRGB">
<feFlood flood-opacity="0" result="BackgroundImageFix"/>
<feColorMatrix in="SourceAlpha" type="matrix" values="0 0 0 0 0 0 0 0 0 0 0 0 0 0 0 0 0 0 127 0"/>
<feOffset dy="4"/>
<feGaussianBlur stdDeviation="2"/>
<feColorMatrix type="matrix" values="0 0 0 0 0 0 0 0 0 0 0 0 0 0 0 0 0 0 0.25 0"/>
<feBlend mode="normal" in2="BackgroundImageFix" result="effect1_dropShadow"/>
<feBlend mode="normal" in="SourceGraphic" in2="effect1_dropShadow" result="shape"/>
</filter>
<filter id="filter7_d" x="192.971" y="163.088" width="64.6212" height="193.944" filterUnits="userSpaceOnUse" color-interpolation-filters="sRGB">
<feFlood flood-opacity="0" result="BackgroundImageFix"/>
<feColorMatrix in="SourceAlpha" type="matrix" values="0 0 0 0 0 0 0 0 0 0 0 0 0 0 0 0 0 0 127 0"/>
<feOffset dy="4"/>
<feGaussianBlur stdDeviation="2"/>
<feColorMatrix type="matrix" values="0 0 0 0 0 0 0 0 0 0 0 0 0 0 0 0 0 0 0.25 0"/>
<feBlend mode="normal" in2="BackgroundImageFix" result="effect1_dropShadow"/>
<feBlend mode="normal" in="SourceGraphic" in2="effect1_dropShadow" result="shape"/>
</filter>
<filter id="filter8_i" x="305.864" y="50.5153" width="55.3548" height="59.3882" filterUnits="userSpaceOnUse" color-interpolation-filters="sRGB">
<feFlood flood-opacity="0" result="BackgroundImageFix"/>
<feBlend mode="normal" in="SourceGraphic" in2="BackgroundImageFix" result="shape"/>
<feColorMatrix in="SourceAlpha" type="matrix" values="0 0 0 0 0 0 0 0 0 0 0 0 0 0 0 0 0 0 127 0" result="hardAlpha"/>
<feOffset dy="4"/>
<feGaussianBlur stdDeviation="2"/>
<feComposite in2="hardAlpha" operator="arithmetic" k2="-1" k3="1"/>
<feColorMatrix type="matrix" values="0 0 0 0 0 0 0 0 0 0 0 0 0 0 0 0 0 0 0.25 0"/>
<feBlend mode="normal" in2="shape" result="effect1_innerShadow"/>
</filter>
<filter id="filter9_i" x="235.413" y="50.5153" width="55.3548" height="59.3882" filterUnits="userSpaceOnUse" color-interpolation-filters="sRGB">
<feFlood flood-opacity="0" result="BackgroundImageFix"/>
<feBlend mode="normal" in="SourceGraphic" in2="BackgroundImageFix" result="shape"/>
<feColorMatrix in="SourceAlpha" type="matrix" values="0 0 0 0 0 0 0 0 0 0 0 0 0 0 0 0 0 0 127 0" result="hardAlpha"/>
<feOffset dy="4"/>
<feGaussianBlur stdDeviation="2"/>
<feComposite in2="hardAlpha" operator="arithmetic" k2="-1" k3="1"/>
<feColorMatrix type="matrix" values="0 0 0 0 0 0 0 0 0 0 0 0 0 0 0 0 0 0 0.25 0"/>
<feBlend mode="normal" in2="shape" result="effect1_innerShadow"/>
</filter>
<clipPath id="clip0">
<rect width="195" height="428" fill="white" transform="matrix(-1 0 0 1 393 0.170898)"/>
</clipPath>
<clipPath id="clip1">
<rect width="195" height="428" fill="white" transform="translate(197.671 0.162354)"/>
</clipPath>
</defs>
</svg>
