<svg width="51" height="212" viewBox="0 0 51 212" fill="none" xmlns="http://www.w3.org/2000/svg">
<path d="M49.4238 124.24L13.7578 142.488L13.4994 108.211C22.0282 106.238 38.9825 96.2264 38.569 71.9611C38.1555 47.6957 21.6836 39.6566 13.4994 38.6702L13.4994 3.15991L49.4238 22.148L49.4238 124.24Z" fill="#FDE01B" stroke="#F27500" stroke-width="3"/>
<path d="M21.7643 165.275C21.5085 164.785 20.9043 164.596 20.4148 164.852L12.4386 169.021C11.9492 169.276 11.7598 169.881 12.0156 170.37C12.2714 170.86 12.8756 171.049 13.365 170.793L20.455 167.087L24.1607 174.177C24.4166 174.667 25.0207 174.856 25.5102 174.6C25.9997 174.345 26.1891 173.74 25.9332 173.251L21.7643 165.275ZM8.25304 209.355L21.8323 166.037L19.9238 165.439L6.34461 208.757L8.25304 209.355Z" fill="#ED1D54"/>
</svg>
