<svg width="159" height="360" viewBox="0 0 159 360" fill="none" xmlns="http://www.w3.org/2000/svg">
<path d="M112.777 24.6325V313.323L152.277 334.823L149.536 44.6872L112.777 24.6325Z" fill="#F27500"/>
<path d="M115.811 26.2334L115.865 315.323L152.624 334.823V46.3478L115.811 26.2334Z" fill="#FDE01B"/>
<path d="M107.457 317.069L156.968 342.714" stroke="black" stroke-dasharray="5 5"/>
<path d="M131.563 357.81C143.162 358.21 148.396 347.644 149.563 342.31L113.063 323.31C113.063 323.31 112.39 335.129 113.528 342.31C114.667 349.491 119.963 357.41 131.563 357.81Z" fill="#F27500"/>
<path d="M134.25 359.076C145.85 359.476 151.083 348.909 152.25 343.576L114.9 324.236C114.9 324.236 114.612 336.395 115.75 343.576C116.888 350.757 122.65 358.676 134.25 359.076Z" fill="#FDE01B"/>
<path d="M134.211 358.966C145.811 359.366 151.044 348.8 152.211 343.466L114.91 324.259C114.91 324.259 114.572 336.285 115.711 343.466C116.849 350.647 122.611 358.566 134.211 358.966Z" fill="black" fill-opacity="0.2"/>
<path d="M158.193 43.0793L108.682 17.4346" stroke="black" stroke-dasharray="5 5"/>
<path d="M132.957 0.768311C121.357 0.36829 116.124 10.935 114.957 16.2683L151.457 35.2683C151.457 35.2683 152.13 23.4492 150.991 16.2683C149.853 9.0874 144.557 1.16833 132.957 0.768311Z" fill="#F27500"/>
<path d="M134.602 1.63755C123.002 1.23753 117.768 11.8042 116.602 17.1375L153.952 36.4771C153.952 36.4771 154.24 24.3184 153.102 17.1375C151.963 9.95662 146.202 2.03757 134.602 1.63755Z" fill="#FDE01B"/>
<path d="M134.641 1.74714C123.041 1.34712 117.808 11.9138 116.641 17.2472L153.941 36.4541C153.941 36.4541 154.279 24.4281 153.141 17.2472C152.003 10.0662 146.241 2.14716 134.641 1.74714Z" fill="black" fill-opacity="0.2"/>
<path d="M69.8951 197.645C71.687 198.195 71.6811 197.215 72.0015 197.126L39.5127 182.877C36.7424 183.357 34.7635 183.95 34.7635 183.95L35.2125 187.068C35.2125 187.068 68.1033 197.096 69.8951 197.645Z" fill="#4A64AE"/>
<path d="M69.2138 175.218C70.9721 174.569 71.021 175.548 71.3458 175.619L39.7047 191.662C36.9119 191.337 34.9029 190.856 34.9029 190.856L35.1769 187.718C35.1769 187.718 67.4555 175.867 69.2138 175.218Z" fill="#4A64AE"/>
<path d="M9.0844 181.907C15.0655 181.872 35.6154 187.069 36.0561 187.245C38.792 185.736 41.0104 182.786 41.0104 182.786C31.7177 179.58 24.8964 174.099 21.9805 171.411C21.3274 170.807 20.3299 169.539 19.6768 168.934C17.5572 167.029 11.3711 161.792 5.02424 167.58C-0.51792 172.606 3.6905 178.224 5.66198 180.427C6.20066 181.01 8.28384 181.897 9.0844 181.907ZM9.85932 180.545C5.86516 179.1 3.68987 175.073 4.95219 171.549C6.24311 168.029 10.4997 166.345 14.4939 167.79C18.488 169.234 20.6633 173.261 19.401 176.786C18.1101 180.305 13.8535 181.989 9.85932 180.545Z" fill="#EA2254"/>
<path d="M21.284 205.021C21.8755 204.43 22.7668 203.205 23.3583 202.614C25.9999 199.988 32.2081 194.601 40.8167 191.261C40.8167 191.261 38.5967 188.551 36.008 187.252C35.6007 187.433 16.4962 193.041 10.8809 193.22C10.1298 193.258 8.1996 194.139 7.72098 194.731C5.92207 196.875 2.19802 202.292 7.5786 206.812C13.7416 212.02 19.3622 206.885 21.284 205.021ZM8.19376 204.78C6.20858 201.874 7.30068 197.702 10.5688 195.462C13.8635 193.216 18.1349 193.777 20.0935 196.69C22.0786 199.597 20.9865 203.769 17.7184 206.009C14.4237 208.255 10.1523 207.693 8.19376 204.78Z" fill="#EA2254"/>
<path d="M44.2305 188.359C45.0589 188.359 45.7305 187.688 45.7305 186.859C45.7305 186.031 45.0589 185.359 44.2305 185.359C43.402 185.359 42.7305 186.031 42.7305 186.859C42.7305 187.688 43.402 188.359 44.2305 188.359Z" fill="#3850A2"/>
</svg>
