<svg width="604" height="287" viewBox="0 0 604 287" fill="none" xmlns="http://www.w3.org/2000/svg">
<path d="M334.952 1.93396C325.881 1.93396 318.451 9.18589 318.451 18.0375L317.686 257.991C317.686 266.949 325.117 274.095 334.187 274.095C343.366 274.095 350.688 266.843 350.688 257.991L351.453 18.0375C351.453 9.18589 344.131 1.93396 334.952 1.93396Z" fill="#F27500"/>
<path d="M337.028 1.93396C327.848 1.93396 320.527 9.18589 320.527 18.0375L319.762 257.991C319.762 266.949 327.193 274.095 336.263 274.095C345.442 274.095 352.764 266.843 352.764 257.991L353.529 18.0375C353.529 9.18589 346.098 1.93396 337.028 1.93396Z" fill="#FDE01B"/>
<path d="M583.014 4.06702C573.944 4.06702 566.513 11.3189 566.513 20.1706L565.748 260.124C565.748 269.082 573.179 276.228 582.249 276.228C591.429 276.228 598.75 268.976 598.75 260.124L599.515 20.1706C599.515 11.3189 592.194 4.06702 583.014 4.06702Z" fill="#F27500"/>
<path d="M585.09 4.06702C575.911 4.06702 568.589 11.3189 568.589 20.1706L567.824 260.124C567.824 269.082 575.255 276.228 584.325 276.228C593.505 276.228 600.827 268.976 600.827 260.124L601.591 20.1706C601.591 11.3189 594.16 4.06702 585.09 4.06702Z" fill="#FDE01B"/>
<g filter="url(#filter0_d)">
<path d="M597.658 17.7178C597.658 8.86613 590.227 1.6142 581.157 1.6142L335.279 0.867665C326.1 0.867665 318.778 8.11959 318.778 16.9712C318.778 25.9295 326.209 33.0748 335.279 33.0748L581.157 33.8213C590.227 33.8213 597.658 26.676 597.658 17.7178Z" fill="#F27500"/>
<path d="M599.844 19.7441C599.844 10.7859 592.413 3.64056 583.343 3.64056L337.465 2.89403C328.285 2.89403 320.963 10.146 320.963 18.9976C320.963 27.9559 328.394 35.1011 337.465 35.1011L583.343 35.8477C592.413 35.8477 599.844 28.5957 599.844 19.7441Z" fill="#FDE01B"/>
</g>
<path d="M595.473 258.738C595.473 249.886 588.042 242.634 578.972 242.634L333.093 241.888C323.914 241.888 316.592 249.14 316.592 257.991C316.592 266.95 324.023 274.095 333.093 274.095L578.972 274.841C588.042 274.841 595.473 267.696 595.473 258.738Z" fill="#F27500"/>
<path d="M597.658 260.764C597.658 251.806 590.227 244.661 581.157 244.661L335.279 243.914C326.1 243.914 318.778 251.166 318.778 260.018C318.778 268.976 326.209 276.121 335.279 276.121L581.157 276.868C590.227 276.868 597.658 269.616 597.658 260.764Z" fill="#FDE01B"/>
<path d="M17.6121 14.0864C8.74799 14.0864 1.48585 21.3341 1.48585 30.1805L0.738281 269.992C0.738281 278.945 8.00042 286.086 16.8645 286.086C25.8354 286.086 32.9907 278.839 32.9907 269.992L33.7383 30.1805C33.7383 21.3341 26.5829 14.0864 17.6121 14.0864Z" fill="#F27500"/>
<path d="M20.6121 14.0864C11.6412 14.0864 4.48585 21.3341 4.48585 30.1805L3.73828 269.992C3.73828 278.945 11.0004 286.086 19.8645 286.086C28.8354 286.086 35.9907 278.839 35.9907 269.992L36.7383 30.1805C36.7383 21.3341 29.4761 14.0864 20.6121 14.0864Z" fill="#FDE01B"/>
<path d="M227.203 126.658C227.531 126.911 228.002 126.85 228.255 126.522C228.507 126.193 228.446 125.722 228.118 125.47C207.134 109.305 184.226 101.974 159.377 103.496C134.523 105.019 114.998 114.957 100.837 133.34C100.584 133.668 100.646 134.139 100.974 134.392C101.302 134.645 101.773 134.584 102.026 134.255C115.341 116.969 135.994 106.432 159.469 104.993C182.948 103.555 207.317 111.34 227.203 126.658Z" fill="#1037D0" stroke="#1037D0" stroke-width="1.5" stroke-linecap="round" stroke-linejoin="round"/>
<path d="M210.82 129.651L230.971 127.894L222.224 109.212" stroke="#1037D0" stroke-width="2.5" stroke-linecap="round" stroke-linejoin="round"/>
<path d="M56.7383 277.086C61.6506 276.773 71.4751 270.313 71.4751 246.983C71.4751 217.82 64.4576 150.086 76.7383 150.086" stroke="#1037D0" stroke-width="3" stroke-linecap="round" stroke-linejoin="round"/>
<path d="M56.7383 23.0864C61.6506 23.4 71.4751 29.8598 71.4751 53.1901C71.4751 82.3531 64.4576 150.086 76.7383 150.086" stroke="#1037D0" stroke-width="3" stroke-linecap="round" stroke-linejoin="round"/>
<defs>
<filter id="filter0_d" x="314.777" y="0.867676" width="289.066" height="42.98" filterUnits="userSpaceOnUse" color-interpolation-filters="sRGB">
<feFlood flood-opacity="0" result="BackgroundImageFix"/>
<feColorMatrix in="SourceAlpha" type="matrix" values="0 0 0 0 0 0 0 0 0 0 0 0 0 0 0 0 0 0 127 0"/>
<feOffset dy="4"/>
<feGaussianBlur stdDeviation="2"/>
<feColorMatrix type="matrix" values="0 0 0 0 0 0 0 0 0 0 0 0 0 0 0 0 0 0 0.25 0"/>
<feBlend mode="normal" in2="BackgroundImageFix" result="effect1_dropShadow"/>
<feBlend mode="normal" in="SourceGraphic" in2="effect1_dropShadow" result="shape"/>
</filter>
</defs>
</svg>
