<svg width="505" height="222" viewBox="0 0 505 222" fill="none" xmlns="http://www.w3.org/2000/svg">
<path d="M502.668 86.968L454.668 58.468L455.668 174.468L502.668 206.468V86.968Z" fill="#FDE01B"/>
<path d="M41.1543 209.718L38.0612 89.7294L0.654297 68.2183L1.6543 184.218L41.1543 209.718Z" fill="#F27500"/>
<path d="M40.9727 209.229V89.7295L4.21438 70.2295V186.229L40.9727 209.229Z" fill="#FDE01B"/>
<path d="M107.154 214.718L104.061 94.7294L66.6543 73.2183L67.6543 189.218L107.154 214.718Z" fill="#F27500"/>
<path d="M106.973 214.229V94.7295L70.2144 75.2295V191.229L106.973 214.229Z" fill="#FDE01B"/>
<path d="M466.668 181.968V65.468L454.668 58.468L455.668 174.468L466.668 181.968Z" fill="#F27500"/>
<path d="M462.668 179.468V62.968L458.668 60.468V176.468L462.668 179.468Z" fill="#FDE01B"/>
<path d="M470.668 184.468V67.968L466.668 65.468V181.468L470.668 184.468Z" fill="#FDE01B"/>
<path d="M504.168 115.468L453.668 90.468V151.968L504.168 174.468V115.468Z" fill="#E6E6E6" fill-opacity="0.5"/>
<path d="M379.97 110.175C380.768 109.952 381.234 109.125 381.012 108.327L377.388 95.3225C377.165 94.5245 376.338 94.0579 375.54 94.2803C374.742 94.5027 374.276 95.3299 374.498 96.1279L377.72 107.687L366.16 110.909C365.362 111.131 364.895 111.959 365.118 112.757C365.34 113.555 366.167 114.021 366.965 113.799L379.97 110.175ZM144.709 121.798C145.654 122.963 145.654 122.963 145.654 122.963C145.654 122.963 145.655 122.962 145.656 122.961C145.659 122.959 145.663 122.956 145.669 122.951C145.68 122.942 145.698 122.928 145.722 122.909C145.77 122.87 145.844 122.812 145.942 122.734C146.14 122.579 146.439 122.348 146.835 122.048C147.628 121.447 148.814 120.572 150.372 119.481C153.487 117.298 158.091 114.254 164.021 110.824C175.882 103.961 193.037 95.5622 214.193 89.4225C256.481 77.15 314.765 73.8972 378.83 110.036L380.304 107.423C315.4 70.8108 256.255 74.0919 213.357 86.5414C191.92 92.7626 174.541 101.271 162.518 108.227C156.506 111.705 151.829 114.797 148.651 117.024C147.061 118.137 145.846 119.034 145.025 119.656C144.614 119.966 144.302 120.208 144.092 120.373C143.986 120.456 143.906 120.519 143.851 120.563C143.824 120.585 143.803 120.601 143.789 120.613C143.782 120.619 143.776 120.623 143.772 120.627C143.77 120.628 143.768 120.63 143.767 120.631C143.766 120.632 143.765 120.632 144.709 121.798Z" fill="#F27500"/>
<path d="M502.629 113.215L504.182 115.564L502.629 114.899V113.215Z" fill="#C4C4C4"/>
<path d="M454.959 90.1812L453.674 90.4741L454.959 91.1069V90.1812Z" fill="#C4C4C4"/>
</svg>
