<svg width="573" height="415" viewBox="0 0 573 415" fill="none" xmlns="http://www.w3.org/2000/svg">
<path d="M4.81596 385.418V381.144C4.81596 380.387 5.11446 379.66 5.64579 379.124C6.17712 378.588 6.89776 378.287 7.64917 378.287C8.40058 378.287 9.12122 378.588 9.65255 379.124C10.1839 379.66 10.4824 380.387 10.4824 381.144V385.418C11.3921 384.805 12.0822 383.914 12.4508 382.875C12.8194 381.836 12.8469 380.705 12.5294 379.65C12.2118 378.594 11.5659 377.669 10.6871 377.012C9.80834 376.355 8.74326 376 7.64917 376C6.55508 376 5.49 376.355 4.61122 377.012C3.73244 377.669 3.08657 378.594 2.76898 379.65C2.45139 380.705 2.47893 381.836 2.84753 382.875C3.21613 383.914 3.90625 384.805 4.81596 385.418ZM15.9675 390.709L10.8224 388.127C10.6286 388.045 10.4206 388.002 10.2104 388.001H9.34909V381.144C9.34909 380.69 9.16999 380.254 8.8512 379.932C8.5324 379.611 8.10002 379.43 7.64917 379.43C7.19832 379.43 6.76594 379.611 6.44714 379.932C6.12834 380.254 5.94924 380.69 5.94924 381.144V393.418L2.06209 392.595C1.97232 392.577 1.88144 392.566 1.7901 392.561C1.45389 392.562 1.13186 392.697 0.894805 392.938L-0.000488281 393.852L5.59793 399.497C5.91677 399.818 6.34864 399.999 6.79921 400H14.4942C14.8962 399.998 15.2837 399.849 15.5842 399.579C15.8846 399.31 16.0773 398.94 16.1261 398.537L16.9761 392.515C17.0393 392.143 16.9736 391.76 16.7899 391.431C16.6062 391.103 16.3158 390.848 15.9675 390.709Z" fill="white"/>
<path d="M247.512 236.024C248.148 236.554 249.094 236.467 249.624 235.83L258.26 225.454C258.789 224.817 258.703 223.871 258.066 223.341C257.429 222.811 256.483 222.898 255.954 223.535L248.278 232.758L239.054 225.082C238.417 224.553 237.471 224.639 236.941 225.276C236.411 225.913 236.498 226.859 237.135 227.388L247.512 236.024ZM172.003 112.977C171.462 114.376 171.461 114.376 171.461 114.376C171.461 114.376 171.461 114.376 171.462 114.376C171.463 114.376 171.465 114.377 171.468 114.378C171.474 114.381 171.484 114.385 171.498 114.39C171.526 114.402 171.57 114.419 171.63 114.444C171.749 114.493 171.931 114.568 172.17 114.672C172.65 114.879 173.362 115.199 174.276 115.641C176.105 116.525 178.741 117.9 181.938 119.849C188.333 123.747 196.967 129.937 205.876 139.09C223.677 157.377 242.629 187.536 246.977 235.008L249.965 234.734C245.549 186.524 226.267 155.737 208.026 136.997C198.913 127.636 190.073 121.294 183.5 117.287C180.213 115.283 177.491 113.863 175.583 112.94C174.629 112.479 173.878 112.142 173.361 111.918C173.103 111.807 172.903 111.723 172.766 111.667C172.697 111.639 172.644 111.618 172.607 111.603C172.589 111.596 172.574 111.59 172.564 111.586C172.559 111.584 172.554 111.582 172.551 111.581C172.55 111.58 172.548 111.58 172.547 111.579C172.546 111.579 172.545 111.578 172.003 112.977Z" fill="#F27500"/>
<path d="M40.1475 0.2767L12.6597 32.6907L40.6945 56.465L68.1824 24.051L40.1475 0.2767Z" fill="#F27500"/>
<path d="M42.5694 2.33041L15.0815 34.7444L43.1164 58.5187L70.6043 26.1047L42.5694 2.33041Z" fill="#FDE01B"/>
<path d="M42.1475 182.276L14.6597 214.69L42.6945 238.465L70.1824 206.051L42.1475 182.276Z" fill="#F27500"/>
<path d="M44.5694 184.33L17.0815 216.744L45.1164 240.518L72.6043 208.104L44.5694 184.33Z" fill="#FDE01B"/>
<path d="M105.982 62.7876C106.754 63.0867 107.623 62.7028 107.922 61.9302L112.795 49.3404C113.094 48.5678 112.71 47.6991 111.938 47.4001C111.165 47.101 110.296 47.4849 109.997 48.2575L105.666 59.4485L94.4748 55.1169C93.7022 54.8178 92.8335 55.2017 92.5345 55.9743C92.2354 56.7469 92.6193 57.6156 93.3919 57.9146L105.982 62.7876ZM70.6599 34.044C70.6405 35.5439 70.6398 35.5439 70.6391 35.5438C70.639 35.5438 70.6385 35.5438 70.6383 35.5438C70.6379 35.5438 70.6379 35.5438 70.6383 35.5438C70.6389 35.5438 70.641 35.5439 70.6446 35.544C70.6516 35.5441 70.6643 35.5444 70.6825 35.545C70.719 35.5461 70.7774 35.5482 70.8568 35.5522C71.0157 35.5601 71.2582 35.5752 71.5758 35.604C72.2111 35.6614 73.1453 35.7731 74.3094 35.9894C76.639 36.4224 79.8787 37.2726 83.4816 38.9392C90.6636 42.2616 99.3421 48.8493 105.151 61.9951L107.895 60.7825C101.757 46.8921 92.5039 39.8075 84.7411 36.2165C80.8716 34.4264 77.3855 33.5097 74.8575 33.0399C73.5928 32.8049 72.5652 32.6812 71.8459 32.6162C71.4862 32.5836 71.2032 32.5657 71.0059 32.5559C70.9073 32.551 70.83 32.5481 70.7752 32.5464C70.7478 32.5456 70.726 32.545 70.7099 32.5447C70.7019 32.5445 70.6953 32.5444 70.6902 32.5443C70.6877 32.5442 70.6855 32.5442 70.6836 32.5442C70.6827 32.5442 70.6816 32.5441 70.6812 32.5441C70.6801 32.5441 70.6792 32.5441 70.6599 34.044Z" fill="#F27500"/>
<path d="M108.226 202.233C109.02 201.999 109.855 202.453 110.089 203.247L113.91 216.195C114.145 216.99 113.691 217.824 112.896 218.059C112.102 218.293 111.267 217.839 111.033 217.044L107.636 205.535L96.1271 208.932C95.3325 209.166 94.4983 208.712 94.2638 207.918C94.0294 207.123 94.4834 206.289 95.2779 206.054L108.226 202.233ZM70.6597 227.974C70.7637 226.478 70.763 226.478 70.7624 226.478C70.7623 226.478 70.7617 226.478 70.7615 226.478C70.7612 226.478 70.7611 226.478 70.7615 226.478C70.7622 226.478 70.7643 226.478 70.7678 226.478C70.7748 226.479 70.7875 226.479 70.8057 226.48C70.8421 226.482 70.9005 226.485 70.98 226.488C71.139 226.493 71.3819 226.498 71.7008 226.495C72.3386 226.49 73.2789 226.456 74.4568 226.336C76.8142 226.096 80.1128 225.515 83.8405 224.15C91.2715 221.43 100.462 215.578 107.333 202.955L109.968 204.389C102.708 217.727 92.9037 224.027 84.8719 226.967C80.8682 228.433 77.3186 229.06 74.7605 229.32C73.4807 229.451 72.4465 229.489 71.7243 229.495C71.3631 229.498 71.0796 229.492 70.8822 229.486C70.7834 229.483 70.7062 229.479 70.6514 229.476C70.624 229.475 70.6023 229.474 70.5863 229.473C70.5783 229.472 70.5717 229.472 70.5666 229.472C70.564 229.471 70.5618 229.471 70.56 229.471C70.5591 229.471 70.558 229.471 70.5575 229.471C70.5565 229.471 70.5556 229.471 70.6597 227.974Z" fill="#F27500"/>
<path d="M136.66 90.7769L88.6597 62.2769L89.6597 178.277L136.66 210.277V90.7769Z" fill="#FDE01B"/>
<path d="M100.66 185.777V69.2769L88.6595 62.2769L89.6595 178.277L100.66 185.777Z" fill="#F27500"/>
<path d="M96.6597 183.277V66.7769L92.6597 64.2769V180.277L96.6597 183.277Z" fill="#FDE01B"/>
<path d="M104.66 188.277V71.7769L100.66 69.2769V185.277L104.66 188.277Z" fill="#FDE01B"/>
<path d="M139.16 117.277L88.6597 92.2769V153.777L139.16 176.277V117.277Z" fill="#E6E6E6" fill-opacity="0.5"/>
<path d="M267.237 287.5L219.237 259L220.237 375L267.237 407V287.5Z" fill="#FDE01B"/>
<path d="M231.237 382.5V266L219.237 259L220.237 375L231.237 382.5Z" fill="#F27500"/>
<path d="M227.237 380V263.5L223.237 261V377L227.237 380Z" fill="#FDE01B"/>
<path d="M235.237 385V268.5L231.237 266V382L235.237 385Z" fill="#FDE01B"/>
<g filter="url(#filter0_d)">
<rect x="273.539" y="291.096" width="66" height="3" transform="rotate(-152.05 273.539 291.096)" fill="#F27500"/>
</g>
<g filter="url(#filter1_d)">
<rect x="274.421" y="289.143" width="66" height="4.76386" transform="rotate(-152.05 274.421 289.143)" fill="#FDE01B"/>
</g>
<g filter="url(#filter2_d)">
<rect x="268.539" y="408.892" width="66" height="3" transform="rotate(-152.05 268.539 408.892)" fill="#F27500"/>
</g>
<g filter="url(#filter3_d)">
<rect x="269.421" y="406.938" width="66" height="4.76386" transform="rotate(-152.05 269.421 406.938)" fill="#FDE01B"/>
</g>
<path d="M523.658 31.3693C523.658 21.287 531.813 13.0269 542.037 13.0269C552.14 13.0269 560.416 21.287 560.416 31.3693V53.5269L523.658 53.5252V31.3693Z" fill="#F27500"/>
<path d="M526.79 30.3693C526.79 20.287 534.945 12.0269 545.169 12.0269C555.271 12.0269 563.548 20.287 563.548 30.3693V53.5269H526.79V30.3693Z" fill="#FDE01B"/>
<path d="M523.658 355.184C523.658 365.267 531.813 373.527 542.037 373.527C552.14 373.527 560.416 365.267 560.416 355.184V333.027L523.658 333.028V355.184Z" fill="#F27500"/>
<path d="M526.79 356.184C526.79 366.267 534.945 374.527 545.169 374.527C555.271 374.527 563.548 366.267 563.548 356.184V333.027H526.79V356.184Z" fill="#FDE01B"/>
<path d="M523.658 195.03V237.53H560.416V195.03H523.658Z" fill="#F27500"/>
<path d="M523.658 149.03V191.53H560.416V149.03H523.658Z" fill="#F27500"/>
<path d="M523.658 103.026V145.526H560.416V103.026H523.658Z" fill="#F27500"/>
<path d="M526.833 195.03V237.53H563.592V195.03H526.833Z" fill="#FDE01B"/>
<path d="M523.658 241.027V283.527H560.416V241.027H523.658Z" fill="#F27500"/>
<path d="M523.658 287.027V329.527H560.416V287.027H523.658Z" fill="#F27500"/>
<path d="M526.833 241.027V283.527H563.592V241.027H526.833Z" fill="#FDE01B"/>
<path d="M526.833 287.027V329.527H563.592V287.027H526.833Z" fill="#FDE01B"/>
<path d="M526.833 149.03V191.53H563.592V149.03H526.833Z" fill="#FDE01B"/>
<path d="M526.833 103.026V145.526H563.592V103.026H526.833Z" fill="#FDE01B"/>
<path d="M523.658 57.0269V99.5269H560.416V57.0269H523.658Z" fill="#F27500"/>
<path d="M526.833 57.0269V99.5269H563.592V57.0269H526.833Z" fill="#FDE01B"/>
<path d="M496.823 205.313C498.615 205.863 498.609 204.882 498.93 204.794L466.441 190.545C463.671 191.025 461.692 191.618 461.692 191.618L462.141 194.736C462.141 194.736 495.032 204.763 496.823 205.313Z" fill="#4A64AE"/>
<path d="M496.141 182.886C497.899 182.237 497.948 183.216 498.273 183.286L466.632 199.33C463.839 199.005 461.83 198.524 461.83 198.524L462.104 195.386C462.104 195.386 494.383 183.534 496.141 182.886Z" fill="#4A64AE"/>
<path d="M436.012 189.575C441.993 189.54 462.543 194.737 462.983 194.913C465.719 193.404 467.938 190.454 467.938 190.454C458.645 187.248 451.824 181.767 448.908 179.079C448.255 178.474 447.257 177.207 446.604 176.602C444.484 174.697 438.298 169.46 431.951 175.248C426.409 180.274 430.618 185.892 432.589 188.095C433.128 188.678 435.211 189.565 436.012 189.575ZM436.787 188.213C432.792 186.768 430.617 182.741 431.879 179.217C433.17 175.697 437.427 174.013 441.421 175.458C445.415 176.902 447.591 180.929 446.328 184.454C445.037 187.973 440.781 189.657 436.787 188.213Z" fill="#EA2254"/>
<path d="M448.211 212.689C448.803 212.098 449.694 210.873 450.286 210.282C452.927 207.656 459.135 202.269 467.744 198.929C467.744 198.929 465.524 196.219 462.935 194.92C462.528 195.101 443.423 200.708 437.808 200.888C437.057 200.926 435.127 201.806 434.648 202.399C432.849 204.543 429.125 209.959 434.506 214.48C440.669 219.688 446.289 214.553 448.211 212.689ZM435.121 212.448C433.136 209.542 434.228 205.37 437.496 203.13C440.791 200.883 445.062 201.445 447.021 204.358C449.006 207.264 447.914 211.436 444.646 213.676C441.351 215.923 437.08 215.361 435.121 212.448Z" fill="#EA2254"/>
<path d="M471.158 196.027C471.987 196.027 472.658 195.355 472.658 194.527C472.658 193.698 471.987 193.027 471.158 193.027C470.33 193.027 469.658 193.698 469.658 194.527C469.658 195.355 470.33 196.027 471.158 196.027Z" fill="#3850A2"/>
<path d="M514.658 193.367L570.417 193.293" stroke="black" stroke-dasharray="5 5"/>
<path d="M515.658 147.367L571.417 147.293" stroke="black" stroke-dasharray="5 5"/>
<path d="M514.658 101.367L570.417 101.293" stroke="black" stroke-dasharray="5 5"/>
<path d="M515.658 55.3672L571.417 55.2933" stroke="black" stroke-dasharray="5 5"/>
<path d="M516.658 331.367L572.417 331.293" stroke="black" stroke-dasharray="5 5"/>
<path d="M515.658 285.367L571.417 285.293" stroke="black" stroke-dasharray="5 5"/>
<path d="M515.659 239.29L571.418 239.216" stroke="black" stroke-dasharray="5 5"/>
<defs>
<filter id="filter0_d" x="209.237" y="251.512" width="71.7076" height="45.5845" filterUnits="userSpaceOnUse" color-interpolation-filters="sRGB">
<feFlood flood-opacity="0" result="BackgroundImageFix"/>
<feColorMatrix in="SourceAlpha" type="matrix" values="0 0 0 0 0 0 0 0 0 0 0 0 0 0 0 0 0 0 127 0"/>
<feOffset/>
<feGaussianBlur stdDeviation="3"/>
<feColorMatrix type="matrix" values="0 0 0 0 0 0 0 0 0 0 0 0 0 0 0 0 0 0 0.25 0"/>
<feBlend mode="normal" in2="BackgroundImageFix" result="effect1_dropShadow"/>
<feBlend mode="normal" in="SourceGraphic" in2="effect1_dropShadow" result="shape"/>
</filter>
<filter id="filter1_d" x="210.12" y="248" width="72.5343" height="47.1426" filterUnits="userSpaceOnUse" color-interpolation-filters="sRGB">
<feFlood flood-opacity="0" result="BackgroundImageFix"/>
<feColorMatrix in="SourceAlpha" type="matrix" values="0 0 0 0 0 0 0 0 0 0 0 0 0 0 0 0 0 0 127 0"/>
<feOffset/>
<feGaussianBlur stdDeviation="3"/>
<feColorMatrix type="matrix" values="0 0 0 0 0 0 0 0 0 0 0 0 0 0 0 0 0 0 0.25 0"/>
<feBlend mode="normal" in2="BackgroundImageFix" result="effect1_dropShadow"/>
<feBlend mode="normal" in="SourceGraphic" in2="effect1_dropShadow" result="shape"/>
</filter>
<filter id="filter2_d" x="204.237" y="369.308" width="71.7076" height="45.5845" filterUnits="userSpaceOnUse" color-interpolation-filters="sRGB">
<feFlood flood-opacity="0" result="BackgroundImageFix"/>
<feColorMatrix in="SourceAlpha" type="matrix" values="0 0 0 0 0 0 0 0 0 0 0 0 0 0 0 0 0 0 127 0"/>
<feOffset/>
<feGaussianBlur stdDeviation="3"/>
<feColorMatrix type="matrix" values="0 0 0 0 0 0 0 0 0 0 0 0 0 0 0 0 0 0 0.25 0"/>
<feBlend mode="normal" in2="BackgroundImageFix" result="effect1_dropShadow"/>
<feBlend mode="normal" in="SourceGraphic" in2="effect1_dropShadow" result="shape"/>
</filter>
<filter id="filter3_d" x="205.12" y="365.796" width="72.5343" height="47.1426" filterUnits="userSpaceOnUse" color-interpolation-filters="sRGB">
<feFlood flood-opacity="0" result="BackgroundImageFix"/>
<feColorMatrix in="SourceAlpha" type="matrix" values="0 0 0 0 0 0 0 0 0 0 0 0 0 0 0 0 0 0 127 0"/>
<feOffset/>
<feGaussianBlur stdDeviation="3"/>
<feColorMatrix type="matrix" values="0 0 0 0 0 0 0 0 0 0 0 0 0 0 0 0 0 0 0.25 0"/>
<feBlend mode="normal" in2="BackgroundImageFix" result="effect1_dropShadow"/>
<feBlend mode="normal" in="SourceGraphic" in2="effect1_dropShadow" result="shape"/>
</filter>
</defs>
</svg>
