<svg width="588" height="373" viewBox="0 0 588 373" fill="none" xmlns="http://www.w3.org/2000/svg">
<path d="M83.0312 50.5576C83.0312 40.4753 91.1862 32.2151 101.41 32.2151C111.513 32.2151 119.79 40.4753 119.79 50.5576V199.715H83.0312V50.5576Z" fill="#F27500"/>
<path d="M86.1621 50.5576C86.1621 40.4753 94.3171 32.2151 104.541 32.2151C114.644 32.2151 122.92 40.4753 122.92 50.5576V200.215H86.1621V50.5576Z" fill="#FDE01B"/>
<path d="M83.0762 353.873C83.0762 363.955 91.2312 372.215 101.455 372.215C111.558 372.215 119.834 363.955 119.834 353.873V204.715H83.0762V353.873Z" fill="#F27500"/>
<path d="M86.207 353.873C86.207 363.955 94.362 372.215 104.586 372.215C114.689 372.215 122.965 363.955 122.965 353.873V204.215H86.207V353.873Z" fill="#FDE01B"/>
<path d="M69.1959 214.501C70.9878 215.051 70.9819 214.071 71.3022 213.982L38.8135 199.733C36.0432 200.213 34.0643 200.806 34.0643 200.806L34.5133 203.924C34.5133 203.924 67.4041 213.952 69.1959 214.501Z" fill="#4A64AE"/>
<path d="M68.5146 192.074C70.2729 191.425 70.3218 192.404 70.6466 192.474L39.0055 208.518C36.2126 208.193 34.2037 207.712 34.2037 207.712L34.4777 204.574C34.4777 204.574 66.7562 192.723 68.5146 192.074Z" fill="#4A64AE"/>
<path d="M8.38518 198.763C14.3663 198.728 34.9162 203.925 35.3569 204.101C38.0928 202.592 40.3112 199.642 40.3112 199.642C31.0185 196.436 24.1972 190.955 21.2813 188.267C20.6282 187.662 19.6307 186.395 18.9776 185.79C16.858 183.885 10.6719 178.648 4.32502 184.436C-1.21714 189.462 2.99129 195.08 4.96276 197.283C5.50144 197.866 7.58462 198.753 8.38518 198.763ZM9.1601 197.401C5.16594 195.956 2.99065 191.929 4.25297 188.405C5.54389 184.885 9.80049 183.201 13.7947 184.646C17.7888 186.09 19.9641 190.117 18.7018 193.642C17.4109 197.161 13.1543 198.845 9.1601 197.401Z" fill="#EA2254"/>
<path d="M20.5848 221.877C21.1763 221.286 22.0676 220.061 22.6591 219.47C25.3007 216.844 31.5088 211.457 40.1175 208.117C40.1175 208.117 37.8975 205.407 35.3088 204.108C34.9015 204.289 15.797 209.897 10.1816 210.076C9.43055 210.114 7.50038 210.995 7.02176 211.587C5.22285 213.731 1.4988 219.148 6.87938 223.668C13.0424 228.876 18.6629 223.741 20.5848 221.877ZM7.49454 221.636C5.50936 218.73 6.60146 214.558 9.86957 212.318C13.1643 210.072 17.4357 210.633 19.3942 213.546C21.3794 216.452 20.2873 220.625 17.0192 222.865C13.7244 225.111 9.45307 224.549 7.49454 221.636Z" fill="#EA2254"/>
<path d="M43.5312 205.215C44.3597 205.215 45.0312 204.544 45.0312 203.715C45.0312 202.887 44.3597 202.215 43.5312 202.215C42.7028 202.215 42.0312 202.887 42.0312 203.715C42.0312 204.544 42.7028 205.215 43.5312 205.215Z" fill="#3850A2"/>
<path d="M518.439 88.3791C516.647 87.8296 516.653 88.8097 516.333 88.8984L548.821 103.148C551.592 102.667 553.57 102.075 553.57 102.075L553.121 98.9564C553.121 98.9564 520.231 88.9286 518.439 88.3791Z" fill="#4A64AE"/>
<path d="M519.12 110.807C517.362 111.455 517.313 110.476 516.988 110.406L548.629 94.3623C551.422 94.687 553.431 95.1681 553.431 95.1681L553.157 98.3065C553.157 98.3065 520.879 110.158 519.12 110.807Z" fill="#4A64AE"/>
<path d="M579.25 104.117C573.269 104.152 552.719 98.9558 552.278 98.7794C549.542 100.289 547.324 103.238 547.324 103.238C556.616 106.444 563.438 111.926 566.354 114.613C567.007 115.218 568.004 116.485 568.657 117.09C570.777 118.996 576.963 124.232 583.31 118.444C588.852 113.418 584.643 107.8 582.672 105.597C582.133 105.015 580.05 104.127 579.25 104.117ZM578.475 105.48C582.469 106.924 584.644 110.951 583.382 114.476C582.091 117.995 577.834 119.679 573.84 118.235C569.846 116.79 567.671 112.763 568.933 109.239C570.224 105.719 574.481 104.035 578.475 105.48Z" fill="#EA2254"/>
<path d="M567.05 81.0034C566.458 81.5943 565.567 82.8194 564.976 83.4102C562.334 86.0363 556.126 91.4235 547.517 94.7631C547.517 94.7631 549.737 97.4729 552.326 98.7722C552.733 98.591 571.838 92.9838 577.453 92.8041C578.204 92.7665 580.134 91.8858 580.613 91.2936C582.412 89.1492 586.136 83.7327 580.755 79.2119C574.592 74.0044 568.972 79.1395 567.05 81.0034ZM580.14 81.244C582.125 84.1504 581.033 88.3226 577.765 90.5625C574.47 92.8089 570.199 92.247 568.241 89.3343C566.255 86.4279 567.347 82.2558 570.616 80.0158C573.91 77.7695 578.182 78.3313 580.14 81.244Z" fill="#EA2254"/>
<path d="M544.104 97.6653C543.275 97.6653 542.604 98.3369 542.604 99.1653C542.604 99.9937 543.275 100.665 544.104 100.665C544.932 100.665 545.604 99.9937 545.604 99.1653C545.604 98.3369 544.932 97.6653 544.104 97.6653Z" fill="#3850A2"/>
<path d="M515.439 277.379C513.647 276.83 513.653 277.81 513.333 277.898L545.821 292.148C548.592 291.667 550.57 291.075 550.57 291.075L550.121 287.956C550.121 287.956 517.231 277.929 515.439 277.379Z" fill="#4A64AE"/>
<path d="M516.12 299.807C514.362 300.455 514.313 299.476 513.988 299.406L545.629 283.362C548.422 283.687 550.431 284.168 550.431 284.168L550.157 287.306C550.157 287.306 517.879 299.158 516.12 299.807Z" fill="#4A64AE"/>
<path d="M576.25 293.117C570.269 293.152 549.719 287.956 549.278 287.779C546.542 289.289 544.324 292.238 544.324 292.238C553.616 295.444 560.438 300.926 563.354 303.613C564.007 304.218 565.004 305.485 565.657 306.09C567.777 307.996 573.963 313.232 580.31 307.444C585.852 302.418 581.643 296.8 579.672 294.597C579.133 294.015 577.05 293.127 576.25 293.117ZM575.475 294.48C579.469 295.924 581.644 299.951 580.382 303.476C579.091 306.995 574.834 308.679 570.84 307.235C566.846 305.79 564.671 301.763 565.933 298.239C567.224 294.719 571.481 293.035 575.475 294.48Z" fill="#EA2254"/>
<path d="M564.05 270.003C563.458 270.594 562.567 271.819 561.976 272.41C559.334 275.036 553.126 280.424 544.517 283.763C544.517 283.763 546.737 286.473 549.326 287.772C549.733 287.591 568.838 281.984 574.453 281.804C575.204 281.766 577.134 280.886 577.613 280.294C579.412 278.149 583.136 272.733 577.755 268.212C571.592 263.004 565.972 268.139 564.05 270.003ZM577.14 270.244C579.125 273.15 578.033 277.323 574.765 279.563C571.47 281.809 567.199 281.247 565.241 278.334C563.255 275.428 564.347 271.256 567.616 269.016C570.91 266.769 575.182 267.331 577.14 270.244Z" fill="#EA2254"/>
<path d="M541.104 286.665C540.275 286.665 539.604 287.337 539.604 288.165C539.604 288.994 540.275 289.665 541.104 289.665C541.932 289.665 542.604 288.994 542.604 288.165C542.604 287.337 541.932 286.665 541.104 286.665Z" fill="#3850A2"/>
<path d="M459.031 190.215V309.715L498.531 331.215L495.79 213.215L459.031 190.215Z" fill="#F27500"/>
<path d="M462.119 192.215V311.715L498.877 331.215V215.215L462.119 192.215Z" fill="#FDE01B"/>
<path d="M459.031 182.215V185.715L498.531 209.715L495.531 182.215H459.031Z" fill="#F27500"/>
<path d="M462.031 182.215V185.715L498.531 209.715V182.215H462.031Z" fill="#FDE01B"/>
<path d="M498.031 163.215L494.938 43.2262L457.531 21.7151L458.531 137.715L498.031 163.215Z" fill="#F27500"/>
<path d="M497.852 162.726V43.2263L461.093 23.7263V139.726L497.852 162.726Z" fill="#FDE01B"/>
<path d="M494.938 172.715V167.226L458.438 143.715V172.715H494.938Z" fill="#F27500"/>
<path d="M497.938 172.726V169.226L461.438 145.226V172.726H497.938Z" fill="#FDE01B"/>
<path d="M497.531 172.715V169.215L461.031 145.215V172.715H497.531Z" fill="black" fill-opacity="0.1"/>
<path d="M497.531 172.715V169.215L461.031 145.215V172.715H497.531Z" fill="black" fill-opacity="0.1"/>
<path d="M462.031 182.215V185.715L498.531 209.715V182.215H462.031Z" fill="black" fill-opacity="0.1"/>
<path d="M462.031 182.215V185.715L498.531 209.715V182.215H462.031Z" fill="black" fill-opacity="0.1"/>
<path d="M456.426 184.615L502.638 215.816" stroke="black" stroke-dasharray="5 5"/>
<path d="M74.0312 202.633L129.79 202.559" stroke="black" stroke-dasharray="5 5"/>
<path d="M503.543 170.326L457.331 139.126" stroke="black" stroke-dasharray="5 5"/>
<path d="M456.125 309.741L504.939 336.69" stroke="black" stroke-dasharray="5 5"/>
<path d="M503.846 45.2004L455.032 18.2519" stroke="black" stroke-dasharray="5 5"/>
<path d="M478.531 349.716C490.131 350.116 495.365 339.549 496.531 334.216L460.031 315.216V334.216C461.365 339.216 466.931 349.316 478.531 349.716Z" fill="#F27500"/>
<path d="M481.531 350.716C493.131 351.116 498.365 340.549 499.531 335.216L463.031 316.216V335.216C464.365 340.216 469.931 350.316 481.531 350.716Z" fill="#FDE01B"/>
<path d="M481.531 350.715C493.131 351.115 498.365 340.548 499.531 335.215L463.031 316.215V335.215C464.365 340.215 469.931 350.315 481.531 350.715Z" fill="black" fill-opacity="0.1"/>
<path d="M476.506 0.546631C464.906 0.14661 459.673 10.7133 458.506 16.0466L495.006 35.0466V16.0466C493.673 11.0466 488.106 0.946651 476.506 0.546631Z" fill="#F27500"/>
<path d="M479.424 2.17773C467.824 1.77771 462.591 12.3444 461.424 17.6777L497.924 36.6777V17.6777C496.59 12.6777 491.024 2.57775 479.424 2.17773Z" fill="#E4CA18"/>
<path d="M421.945 90.1058C422.641 89.5787 422.822 88.6466 422.35 88.0241L414.654 77.879C414.182 77.2564 413.235 77.1791 412.539 77.7062C411.844 78.2334 411.662 79.1654 412.135 79.788L418.975 88.8058L408.896 96.4419C408.201 96.969 408.019 97.9011 408.492 98.5236C408.964 99.1462 409.911 99.2235 410.606 98.6963L421.945 90.1058ZM168.973 126.616C169.807 127.759 169.806 127.76 169.805 127.76C169.806 127.76 169.806 127.76 169.806 127.759C169.807 127.759 169.809 127.757 169.812 127.755C169.818 127.75 169.829 127.743 169.844 127.732C169.874 127.711 169.921 127.677 169.986 127.631C170.117 127.539 170.318 127.4 170.591 127.217C171.136 126.851 171.97 126.309 173.1 125.621C175.36 124.244 178.808 122.28 183.518 119.963C192.936 115.328 207.406 109.277 227.522 103.678C267.752 92.4807 330.591 83.0824 420.804 90.4506L421.376 87.5066C330.838 80.1118 267.619 89.5323 226.978 100.844C206.658 106.5 191.989 112.627 182.378 117.356C177.573 119.72 174.033 121.735 171.685 123.166C170.51 123.881 169.634 124.451 169.046 124.845C168.752 125.042 168.53 125.195 168.38 125.301C168.304 125.354 168.247 125.395 168.206 125.424C168.186 125.438 168.171 125.45 168.16 125.458C168.154 125.462 168.149 125.465 168.146 125.468C168.144 125.469 168.143 125.47 168.142 125.471C168.14 125.472 168.139 125.473 168.973 126.616Z" fill="#F27500"/>
<path d="M414.525 270.609C415.221 270.082 415.402 269.15 414.93 268.527L407.234 258.382C406.762 257.759 405.815 257.682 405.12 258.209C404.424 258.736 404.243 259.668 404.715 260.291L411.555 269.309L401.476 276.945C400.781 277.472 400.599 278.404 401.072 279.027C401.544 279.649 402.491 279.726 403.186 279.199L414.525 270.609ZM161.553 307.119C162.387 308.262 162.386 308.262 162.386 308.263C162.386 308.263 162.386 308.263 162.386 308.262C162.387 308.262 162.389 308.26 162.392 308.258C162.398 308.253 162.409 308.246 162.424 308.235C162.454 308.213 162.501 308.18 162.567 308.134C162.697 308.042 162.898 307.903 163.171 307.72C163.717 307.354 164.55 306.812 165.68 306.124C167.94 304.747 171.388 302.783 176.098 300.465C185.516 295.831 199.986 289.78 220.102 284.181C260.332 272.984 323.171 263.585 413.384 270.954L413.956 268.009C323.418 260.615 260.199 270.035 219.558 281.347C199.238 287.003 184.569 293.129 174.959 297.859C170.153 300.223 166.614 302.238 164.265 303.669C163.09 304.384 162.214 304.953 161.626 305.348C161.332 305.545 161.11 305.698 160.96 305.804C160.884 305.857 160.827 305.898 160.787 305.927C160.767 305.941 160.751 305.953 160.74 305.961C160.734 305.965 160.73 305.968 160.726 305.971C160.724 305.972 160.723 305.973 160.722 305.974C160.72 305.975 160.719 305.976 161.553 307.119Z" fill="#F27500"/>
<path d="M83.0312 50.5576C83.0312 40.4753 91.1862 32.2151 101.41 32.2151C111.513 32.2151 119.79 40.4753 119.79 50.5576V199.715H83.0312V50.5576Z" fill="#F27500"/>
<path d="M86.1621 50.5576C86.1621 40.4753 94.3171 32.2151 104.541 32.2151C114.644 32.2151 122.92 40.4753 122.92 50.5576V200.215H86.1621V50.5576Z" fill="#FDE01B"/>
<path d="M69.1959 214.501C70.9878 215.051 70.9819 214.071 71.3022 213.982L38.8135 199.733C36.0432 200.213 34.0643 200.806 34.0643 200.806L34.5133 203.924C34.5133 203.924 67.4041 213.952 69.1959 214.501Z" fill="#4A64AE"/>
<path d="M68.5146 192.074C70.2729 191.425 70.3218 192.404 70.6466 192.474L39.0055 208.518C36.2126 208.193 34.2037 207.712 34.2037 207.712L34.4777 204.574C34.4777 204.574 66.7562 192.723 68.5146 192.074Z" fill="#4A64AE"/>
<path d="M8.38518 198.763C14.3663 198.728 34.9162 203.925 35.3569 204.101C38.0928 202.592 40.3112 199.642 40.3112 199.642C31.0185 196.436 24.1972 190.955 21.2813 188.267C20.6282 187.662 19.6307 186.395 18.9776 185.79C16.858 183.885 10.6719 178.648 4.32502 184.436C-1.21714 189.462 2.99129 195.08 4.96276 197.283C5.50144 197.866 7.58462 198.753 8.38518 198.763ZM9.1601 197.401C5.16594 195.956 2.99065 191.929 4.25297 188.405C5.54389 184.885 9.80049 183.201 13.7947 184.646C17.7888 186.09 19.9641 190.117 18.7018 193.642C17.4109 197.161 13.1543 198.845 9.1601 197.401Z" fill="#EA2254"/>
<path d="M20.5848 221.877C21.1763 221.286 22.0676 220.061 22.6591 219.47C25.3007 216.844 31.5088 211.457 40.1175 208.117C40.1175 208.117 37.8975 205.407 35.3088 204.108C34.9015 204.289 15.797 209.897 10.1816 210.076C9.43055 210.114 7.50038 210.995 7.02176 211.587C5.22285 213.731 1.4988 219.148 6.87938 223.668C13.0424 228.876 18.6629 223.741 20.5848 221.877ZM7.49454 221.636C5.50936 218.73 6.60146 214.558 9.86957 212.318C13.1643 210.072 17.4357 210.633 19.3942 213.546C21.3794 216.452 20.2873 220.625 17.0192 222.865C13.7244 225.111 9.45307 224.549 7.49454 221.636Z" fill="#EA2254"/>
<path d="M43.5312 205.215C44.3597 205.215 45.0312 204.544 45.0312 203.715C45.0312 202.887 44.3597 202.215 43.5312 202.215C42.7028 202.215 42.0312 202.887 42.0312 203.715C42.0312 204.544 42.7028 205.215 43.5312 205.215Z" fill="#3850A2"/>
<path d="M518.439 88.3791C516.647 87.8296 516.653 88.8097 516.333 88.8984L548.821 103.148C551.592 102.667 553.57 102.075 553.57 102.075L553.121 98.9564C553.121 98.9564 520.231 88.9286 518.439 88.3791Z" fill="#4A64AE"/>
<path d="M519.12 110.807C517.362 111.455 517.313 110.476 516.988 110.406L548.629 94.3623C551.422 94.687 553.431 95.1681 553.431 95.1681L553.157 98.3065C553.157 98.3065 520.879 110.158 519.12 110.807Z" fill="#4A64AE"/>
<path d="M579.25 104.117C573.269 104.152 552.719 98.9558 552.278 98.7794C549.542 100.289 547.324 103.238 547.324 103.238C556.616 106.444 563.438 111.926 566.354 114.613C567.007 115.218 568.004 116.485 568.657 117.09C570.777 118.996 576.963 124.232 583.31 118.444C588.852 113.418 584.643 107.8 582.672 105.597C582.133 105.015 580.05 104.127 579.25 104.117ZM578.475 105.48C582.469 106.924 584.644 110.951 583.382 114.476C582.091 117.995 577.834 119.679 573.84 118.235C569.846 116.79 567.671 112.763 568.933 109.239C570.224 105.719 574.481 104.035 578.475 105.48Z" fill="#EA2254"/>
<path d="M567.05 81.0034C566.458 81.5943 565.567 82.8194 564.976 83.4102C562.334 86.0363 556.126 91.4235 547.517 94.7631C547.517 94.7631 549.737 97.4729 552.326 98.7722C552.733 98.591 571.838 92.9838 577.453 92.8041C578.204 92.7665 580.134 91.8858 580.613 91.2936C582.412 89.1492 586.136 83.7327 580.755 79.2119C574.592 74.0044 568.972 79.1395 567.05 81.0034ZM580.14 81.244C582.125 84.1504 581.033 88.3226 577.765 90.5625C574.47 92.8089 570.199 92.247 568.241 89.3343C566.255 86.4279 567.347 82.2558 570.616 80.0158C573.91 77.7695 578.182 78.3313 580.14 81.244Z" fill="#EA2254"/>
<path d="M544.104 97.6653C543.275 97.6653 542.604 98.3369 542.604 99.1653C542.604 99.9937 543.275 100.665 544.104 100.665C544.932 100.665 545.604 99.9937 545.604 99.1653C545.604 98.3369 544.932 97.6653 544.104 97.6653Z" fill="#3850A2"/>
<path d="M515.439 277.379C513.647 276.83 513.653 277.81 513.333 277.898L545.821 292.148C548.592 291.667 550.57 291.075 550.57 291.075L550.121 287.956C550.121 287.956 517.231 277.929 515.439 277.379Z" fill="#4A64AE"/>
<path d="M516.12 299.807C514.362 300.455 514.313 299.476 513.988 299.406L545.629 283.362C548.422 283.687 550.431 284.168 550.431 284.168L550.157 287.306C550.157 287.306 517.879 299.158 516.12 299.807Z" fill="#4A64AE"/>
<path d="M576.25 293.117C570.269 293.152 549.719 287.956 549.278 287.779C546.542 289.289 544.324 292.238 544.324 292.238C553.616 295.444 560.438 300.926 563.354 303.613C564.007 304.218 565.004 305.485 565.657 306.09C567.777 307.996 573.963 313.232 580.31 307.444C585.852 302.418 581.643 296.8 579.672 294.597C579.133 294.015 577.05 293.127 576.25 293.117ZM575.475 294.48C579.469 295.924 581.644 299.951 580.382 303.476C579.091 306.995 574.834 308.679 570.84 307.235C566.846 305.79 564.671 301.763 565.933 298.239C567.224 294.719 571.481 293.035 575.475 294.48Z" fill="#EA2254"/>
<path d="M564.05 270.003C563.458 270.594 562.567 271.819 561.976 272.41C559.334 275.036 553.126 280.424 544.517 283.763C544.517 283.763 546.737 286.473 549.326 287.772C549.733 287.591 568.838 281.984 574.453 281.804C575.204 281.766 577.134 280.886 577.613 280.294C579.412 278.149 583.136 272.733 577.755 268.212C571.592 263.004 565.972 268.139 564.05 270.003ZM577.14 270.244C579.125 273.15 578.033 277.323 574.765 279.563C571.47 281.809 567.199 281.247 565.241 278.334C563.255 275.428 564.347 271.256 567.616 269.016C570.91 266.769 575.182 267.331 577.14 270.244Z" fill="#EA2254"/>
<path d="M541.104 286.665C540.275 286.665 539.604 287.337 539.604 288.165C539.604 288.994 540.275 289.665 541.104 289.665C541.932 289.665 542.604 288.994 542.604 288.165C542.604 287.337 541.932 286.665 541.104 286.665Z" fill="#3850A2"/>
<path d="M459.031 190.215V309.715L498.531 331.215L495.79 213.215L459.031 190.215Z" fill="#F27500"/>
<path d="M462.119 192.215V311.715L498.877 331.215V215.215L462.119 192.215Z" fill="#FDE01B"/>
<path d="M459.031 182.215V185.715L498.531 209.715L495.531 182.215H459.031Z" fill="#F27500"/>
<path d="M462.031 182.215V185.715L498.531 209.715V182.215H462.031Z" fill="#FDE01B"/>
<path d="M498.031 163.215L494.938 43.2262L457.531 21.7151L458.531 137.715L498.031 163.215Z" fill="#F27500"/>
<path d="M497.852 162.726V43.2263L461.093 23.7263V139.726L497.852 162.726Z" fill="#FDE01B"/>
<path d="M494.938 172.715V167.226L458.438 143.715V172.715H494.938Z" fill="#F27500"/>
<path d="M497.938 172.726V169.226L461.438 145.226V172.726H497.938Z" fill="#FDE01B"/>
<path d="M497.531 172.715V169.215L461.031 145.215V172.715H497.531Z" fill="black" fill-opacity="0.1"/>
<path d="M497.531 172.715V169.215L461.031 145.215V172.715H497.531Z" fill="black" fill-opacity="0.1"/>
<path d="M462.031 182.215V185.715L498.531 209.715V182.215H462.031Z" fill="black" fill-opacity="0.1"/>
<path d="M462.031 182.215V185.715L498.531 209.715V182.215H462.031Z" fill="black" fill-opacity="0.1"/>
<path d="M456.426 184.615L502.638 215.816" stroke="black" stroke-dasharray="5 5"/>
<path d="M503.543 170.326L457.331 139.126" stroke="black" stroke-dasharray="5 5"/>
<path d="M456.125 309.741L504.939 336.69" stroke="black" stroke-dasharray="5 5"/>
<path d="M503.846 45.2004L455.032 18.2519" stroke="black" stroke-dasharray="5 5"/>
<path d="M479.4 2.19287C467.8 1.79285 462.567 12.3595 461.4 17.6929L497.9 36.6929V17.6929C496.567 12.6929 491 2.59289 479.4 2.19287Z" fill="black" fill-opacity="0.1"/>
<path d="M481.166 350.715C492.766 351.115 497.999 340.548 499.166 335.215L462.666 316.215V335.215C463.999 340.215 469.566 350.315 481.166 350.715Z" fill="black" fill-opacity="0.1"/>
<path d="M421.945 90.1058C422.641 89.5787 422.822 88.6466 422.35 88.0241L414.654 77.879C414.182 77.2564 413.235 77.1791 412.539 77.7062C411.844 78.2334 411.662 79.1654 412.135 79.788L418.975 88.8058L408.896 96.4419C408.201 96.969 408.019 97.9011 408.492 98.5236C408.964 99.1462 409.911 99.2235 410.606 98.6963L421.945 90.1058ZM168.973 126.616C169.807 127.759 169.806 127.76 169.805 127.76C169.806 127.76 169.806 127.76 169.806 127.759C169.807 127.759 169.809 127.757 169.812 127.755C169.818 127.75 169.829 127.743 169.844 127.732C169.874 127.711 169.921 127.677 169.986 127.631C170.117 127.539 170.318 127.4 170.591 127.217C171.136 126.851 171.97 126.309 173.1 125.621C175.36 124.244 178.808 122.28 183.518 119.963C192.936 115.328 207.406 109.277 227.522 103.678C267.752 92.4807 330.591 83.0824 420.804 90.4506L421.376 87.5066C330.838 80.1118 267.619 89.5323 226.978 100.844C206.658 106.5 191.989 112.627 182.378 117.356C177.573 119.72 174.033 121.735 171.685 123.166C170.51 123.881 169.634 124.451 169.046 124.845C168.752 125.042 168.53 125.195 168.38 125.301C168.304 125.354 168.247 125.395 168.206 125.424C168.186 125.438 168.171 125.45 168.16 125.458C168.154 125.462 168.149 125.465 168.146 125.468C168.144 125.469 168.143 125.47 168.142 125.471C168.14 125.472 168.139 125.473 168.973 126.616Z" fill="#F27500"/>
<path d="M414.525 270.609C415.221 270.082 415.402 269.15 414.93 268.527L407.234 258.382C406.762 257.759 405.815 257.682 405.12 258.209C404.424 258.736 404.243 259.668 404.715 260.291L411.555 269.309L401.476 276.945C400.781 277.472 400.599 278.404 401.072 279.027C401.544 279.649 402.491 279.726 403.186 279.199L414.525 270.609ZM161.553 307.119C162.387 308.262 162.386 308.262 162.386 308.263C162.386 308.263 162.386 308.263 162.386 308.262C162.387 308.262 162.389 308.26 162.392 308.258C162.398 308.253 162.409 308.246 162.424 308.235C162.454 308.213 162.501 308.18 162.567 308.134C162.697 308.042 162.898 307.903 163.171 307.72C163.717 307.354 164.55 306.812 165.68 306.124C167.94 304.747 171.388 302.783 176.098 300.465C185.516 295.831 199.986 289.78 220.102 284.181C260.332 272.984 323.171 263.585 413.384 270.954L413.956 268.009C323.418 260.615 260.199 270.035 219.558 281.347C199.238 287.003 184.569 293.129 174.959 297.859C170.153 300.223 166.614 302.238 164.265 303.669C163.09 304.384 162.214 304.953 161.626 305.348C161.332 305.545 161.11 305.698 160.96 305.804C160.884 305.857 160.827 305.898 160.787 305.927C160.767 305.941 160.751 305.953 160.74 305.961C160.734 305.965 160.73 305.968 160.726 305.971C160.724 305.972 160.723 305.973 160.722 305.974C160.72 305.975 160.719 305.976 161.553 307.119Z" fill="#F27500"/>
</svg>
