<svg width="496" height="429" viewBox="0 0 496 429" fill="none" xmlns="http://www.w3.org/2000/svg">
<path d="M38.2398 0.282925L10.752 32.6969L38.7868 56.4712L66.2747 24.0572L38.2398 0.282925Z" fill="#F27500"/>
<path d="M40.6617 2.33664L13.1738 34.7506L41.2087 58.5249L68.6966 26.1109L40.6617 2.33664Z" fill="#FDE01B"/>
<path d="M28.2379 365.912L0.75 398.326L28.7849 422.1L56.2727 389.686L28.2379 365.912Z" fill="#F27500"/>
<path d="M30.6597 367.966L3.17188 400.38L31.2068 424.154L58.6946 391.74L30.6597 367.966Z" fill="#FDE01B"/>
<path d="M104.073 62.7944C104.846 63.0934 105.714 62.7095 106.013 61.9369L110.886 49.3471C111.185 48.5745 110.802 47.7058 110.029 47.4068C109.256 47.1078 108.388 47.4916 108.089 48.2642L103.757 59.4552L92.5661 55.1236C91.7935 54.8245 90.9248 55.2084 90.6258 55.981C90.3267 56.7536 90.7106 57.6223 91.4832 57.9213L104.073 62.7944ZM68.7512 34.0507C68.7318 35.5506 68.7311 35.5506 68.7304 35.5506C68.7304 35.5506 68.7298 35.5505 68.7296 35.5505C68.7292 35.5505 68.7292 35.5505 68.7296 35.5505C68.7302 35.5506 68.7324 35.5506 68.7359 35.5507C68.7429 35.5508 68.7556 35.5511 68.7738 35.5517C68.8103 35.5528 68.8687 35.555 68.9481 35.5589C69.107 35.5668 69.3495 35.582 69.6671 35.6107C70.3024 35.6681 71.2366 35.7798 72.4007 35.9961C74.7303 36.4291 77.97 37.2793 81.5729 38.946C88.7549 42.2683 97.4334 48.856 103.242 62.0018L105.986 60.7892C99.8484 46.8989 90.5952 39.8142 82.8324 36.2232C78.9629 34.4332 75.4768 33.5164 72.9488 33.0466C71.6841 32.8116 70.6565 32.6879 69.9373 32.6229C69.5775 32.5903 69.2946 32.5724 69.0972 32.5626C68.9986 32.5577 68.9213 32.5548 68.8665 32.5531C68.8391 32.5523 68.8173 32.5517 68.8012 32.5514C68.7932 32.5512 68.7867 32.5511 68.7815 32.551C68.779 32.5509 68.7768 32.5509 68.7749 32.5509C68.774 32.5509 68.7729 32.5509 68.7725 32.5509C68.7715 32.5508 68.7705 32.5508 68.7512 34.0507Z" fill="#F27500"/>
<path d="M94.3177 385.869C95.1122 385.634 95.9464 386.088 96.1809 386.883L100.002 399.831C100.236 400.625 99.7824 401.46 98.9879 401.694C98.1933 401.929 97.3591 401.474 97.1247 400.68L93.7281 389.171L82.2189 392.567C81.4243 392.802 80.5901 392.348 80.3556 391.553C80.1212 390.758 80.5752 389.924 81.3697 389.69L94.3177 385.869ZM56.7515 411.61C56.8555 410.114 56.8548 410.114 56.8542 410.113C56.8541 410.113 56.8535 410.113 56.8533 410.113C56.853 410.113 56.8529 410.113 56.8533 410.113C56.854 410.113 56.8561 410.114 56.8596 410.114C56.8666 410.114 56.8793 410.115 56.8975 410.116C56.9339 410.118 56.9923 410.12 57.0718 410.123C57.2308 410.128 57.4737 410.133 57.7926 410.131C58.4304 410.126 59.3707 410.091 60.5486 409.971C62.906 409.731 66.2046 409.151 69.9323 407.786C77.3633 405.065 86.5542 399.214 93.4247 386.59L96.0597 388.024C88.8 401.363 78.9955 407.663 70.9637 410.603C66.96 412.069 63.4104 412.696 60.8523 412.956C59.5725 413.086 58.5383 413.125 57.8161 413.13C57.4549 413.133 57.1714 413.128 56.974 413.121C56.8752 413.118 56.798 413.115 56.7432 413.112C56.7158 413.111 56.6941 413.109 56.6781 413.108C56.6701 413.108 56.6635 413.107 56.6584 413.107C56.6558 413.107 56.6536 413.107 56.6518 413.107C56.6509 413.107 56.6498 413.106 56.6493 413.106C56.6483 413.106 56.6474 413.106 56.7515 411.61Z" fill="#F27500"/>
<path d="M365.846 212.451C366.514 211.962 366.66 211.023 366.17 210.355L358.198 199.46C357.709 198.792 356.77 198.647 356.102 199.136C355.433 199.625 355.288 200.564 355.777 201.232L362.864 210.916L353.18 218.003C352.511 218.492 352.366 219.43 352.855 220.099C353.344 220.768 354.283 220.913 354.951 220.424L365.846 212.451ZM167.492 222.101C168.276 223.381 168.275 223.381 168.274 223.381C168.274 223.381 168.274 223.382 168.274 223.381C168.275 223.381 168.276 223.38 168.278 223.379C168.282 223.377 168.29 223.372 168.3 223.366C168.322 223.353 168.357 223.332 168.405 223.304C168.502 223.248 168.652 223.163 168.857 223.05C169.267 222.824 169.897 222.491 170.754 222.071C172.469 221.231 175.096 220.044 178.705 218.684C185.922 215.964 197.067 212.548 212.695 209.818C243.951 204.358 293.152 201.637 364.73 212.723L365.189 209.758C293.331 198.629 243.798 201.339 212.179 206.863C196.37 209.625 185.043 213.089 177.647 215.877C173.949 217.271 171.234 218.495 169.434 219.377C168.534 219.817 167.863 220.173 167.412 220.421C167.186 220.545 167.015 220.642 166.899 220.71C166.84 220.744 166.795 220.77 166.764 220.789C166.748 220.799 166.736 220.806 166.727 220.812C166.722 220.814 166.718 220.817 166.715 220.818C166.714 220.819 166.712 220.82 166.712 220.821C166.71 220.821 166.709 220.822 167.492 222.101Z" fill="#F27500"/>
<path d="M434.465 79.1867V368.114L473.965 389.377L471.223 99.2414L434.465 79.1867Z" fill="#F27500"/>
<path d="M437.498 80.7878L437.553 369.877L474.311 389.377V100.902L437.498 80.7878Z" fill="#FDE01B"/>
<path d="M441.072 82.5346V371.671L480.572 392.725L477.831 102.589L441.072 82.5346Z" fill="#F27500"/>
<path d="M444.105 84.1357L444.16 373.225L480.862 392.855L480.919 104.25L444.105 84.1357Z" fill="#FDE01B"/>
<path d="M482.556 228.659L433.229 203.659V265.159L482.556 287.659V228.659Z" fill="#E6E6E6" fill-opacity="0.5"/>
<path d="M480.918 226.254L482.549 228.651L480.918 227.841V226.254Z" fill="#C4C4C4"/>
<path d="M434.49 203.372L433.234 203.665L434.49 204.298V203.372Z" fill="#C4C4C4"/>
<g filter="url(#filter0_d)">
<rect x="427.539" y="364.414" width="65.9727" height="3" transform="rotate(28.0737 427.539 364.414)" fill="#F27500"/>
</g>
<g filter="url(#filter1_d)">
<rect x="426.477" y="366.366" width="66" height="4.76387" transform="rotate(28.0737 426.477 366.366)" fill="#FDE01B"/>
</g>
<g filter="url(#filter2_d)">
<rect x="486.594" y="108.251" width="66" height="3" transform="rotate(-151.926 486.594 108.251)" fill="#F27500"/>
</g>
<g filter="url(#filter3_d)">
<rect x="487.48" y="106.299" width="66" height="4.76387" transform="rotate(-151.926 487.48 106.299)" fill="#FDE01B"/>
</g>
<defs>
<filter id="filter0_d" x="420.127" y="358.414" width="71.6224" height="45.6942" filterUnits="userSpaceOnUse" color-interpolation-filters="sRGB">
<feFlood flood-opacity="0" result="BackgroundImageFix"/>
<feColorMatrix in="SourceAlpha" type="matrix" values="0 0 0 0 0 0 0 0 0 0 0 0 0 0 0 0 0 0 127 0"/>
<feOffset/>
<feGaussianBlur stdDeviation="3"/>
<feColorMatrix type="matrix" values="0 0 0 0 0 0 0 0 0 0 0 0 0 0 0 0 0 0 0.25 0"/>
<feBlend mode="normal" in2="BackgroundImageFix" result="effect1_dropShadow"/>
<feBlend mode="normal" in="SourceGraphic" in2="effect1_dropShadow" result="shape"/>
</filter>
<filter id="filter1_d" x="418.234" y="360.366" width="72.4766" height="47.2634" filterUnits="userSpaceOnUse" color-interpolation-filters="sRGB">
<feFlood flood-opacity="0" result="BackgroundImageFix"/>
<feColorMatrix in="SourceAlpha" type="matrix" values="0 0 0 0 0 0 0 0 0 0 0 0 0 0 0 0 0 0 127 0"/>
<feOffset/>
<feGaussianBlur stdDeviation="3"/>
<feColorMatrix type="matrix" values="0 0 0 0 0 0 0 0 0 0 0 0 0 0 0 0 0 0 0.25 0"/>
<feBlend mode="normal" in2="BackgroundImageFix" result="effect1_dropShadow"/>
<feBlend mode="normal" in="SourceGraphic" in2="effect1_dropShadow" result="shape"/>
</filter>
<filter id="filter2_d" x="422.359" y="68.5437" width="71.6465" height="45.707" filterUnits="userSpaceOnUse" color-interpolation-filters="sRGB">
<feFlood flood-opacity="0" result="BackgroundImageFix"/>
<feColorMatrix in="SourceAlpha" type="matrix" values="0 0 0 0 0 0 0 0 0 0 0 0 0 0 0 0 0 0 127 0"/>
<feOffset/>
<feGaussianBlur stdDeviation="3"/>
<feColorMatrix type="matrix" values="0 0 0 0 0 0 0 0 0 0 0 0 0 0 0 0 0 0 0.25 0"/>
<feBlend mode="normal" in2="BackgroundImageFix" result="effect1_dropShadow"/>
<feBlend mode="normal" in="SourceGraphic" in2="effect1_dropShadow" result="shape"/>
</filter>
<filter id="filter3_d" x="423.246" y="65.0359" width="72.4766" height="47.2634" filterUnits="userSpaceOnUse" color-interpolation-filters="sRGB">
<feFlood flood-opacity="0" result="BackgroundImageFix"/>
<feColorMatrix in="SourceAlpha" type="matrix" values="0 0 0 0 0 0 0 0 0 0 0 0 0 0 0 0 0 0 127 0"/>
<feOffset/>
<feGaussianBlur stdDeviation="3"/>
<feColorMatrix type="matrix" values="0 0 0 0 0 0 0 0 0 0 0 0 0 0 0 0 0 0 0.25 0"/>
<feBlend mode="normal" in2="BackgroundImageFix" result="effect1_dropShadow"/>
<feBlend mode="normal" in="SourceGraphic" in2="effect1_dropShadow" result="shape"/>
</filter>
</defs>
</svg>
