<svg width="600" height="339" viewBox="0 0 600 339" fill="none" xmlns="http://www.w3.org/2000/svg">
<path d="M598.158 86.6267L550.158 58.1267L551.158 174.127L598.158 206.127V86.6267Z" fill="#FDE01B"/>
<path d="M136.645 209.377L133.551 89.3881L96.1445 67.877L97.1445 183.877L136.645 209.377Z" fill="#F27500"/>
<path d="M136.463 208.888V89.3882L99.7046 69.8882V185.888L136.463 208.888Z" fill="#FDE01B"/>
<path d="M202.645 214.377L199.551 94.3881L162.145 72.877L163.145 188.877L202.645 214.377Z" fill="#F27500"/>
<path d="M202.463 213.888V94.3882L165.705 74.8882V190.888L202.463 213.888Z" fill="#FDE01B"/>
<path d="M562.158 181.627V65.1267L550.158 58.1267L551.158 174.127L562.158 181.627Z" fill="#F27500"/>
<path d="M558.158 179.127V62.6267L554.158 60.1267V176.127L558.158 179.127Z" fill="#FDE01B"/>
<path d="M566.158 184.127V67.6267L562.158 65.1267V181.127L566.158 184.127Z" fill="#FDE01B"/>
<path d="M599.658 115.127L549.158 90.1267V151.627L599.658 174.127V115.127Z" fill="#E6E6E6" fill-opacity="0.5"/>
<path d="M475.46 109.833C476.258 109.611 476.725 108.784 476.502 107.986L472.878 94.9812C472.656 94.1832 471.828 93.7166 471.03 93.939C470.232 94.1614 469.766 94.9886 469.988 95.7866L473.21 107.346L461.65 110.568C460.852 110.79 460.386 111.617 460.608 112.415C460.83 113.213 461.658 113.68 462.456 113.458L475.46 109.833ZM240.2 121.456C241.144 122.622 241.144 122.622 241.144 122.622C241.145 122.621 241.145 122.621 241.147 122.62C241.149 122.618 241.153 122.614 241.159 122.61C241.17 122.601 241.188 122.587 241.212 122.567C241.26 122.529 241.334 122.47 241.433 122.393C241.63 122.238 241.929 122.007 242.325 121.706C243.119 121.106 244.304 120.231 245.862 119.14C248.978 116.957 253.581 113.913 259.511 110.482C271.373 103.62 288.527 95.2209 309.683 89.0812C351.972 76.8087 410.256 73.5558 474.32 109.695L475.794 107.082C410.89 70.4695 351.745 73.7506 308.847 86.2001C287.41 92.4213 270.031 100.93 258.009 107.885C251.996 111.364 247.32 114.456 244.141 116.682C242.551 117.796 241.336 118.693 240.515 119.314C240.105 119.625 239.793 119.867 239.582 120.032C239.476 120.115 239.396 120.178 239.342 120.222C239.314 120.243 239.294 120.26 239.279 120.272C239.272 120.278 239.266 120.282 239.262 120.285C239.26 120.287 239.258 120.288 239.257 120.289C239.256 120.29 239.255 120.291 240.2 121.456Z" fill="#F27500"/>
<path d="M598.119 112.873L599.672 115.222L598.119 114.558V112.873Z" fill="#C4C4C4"/>
<path d="M550.449 89.8398L549.164 90.1328L550.449 90.7656V89.8398Z" fill="#C4C4C4"/>
<path d="M2.97891 313.998C2.97891 316.248 3.87891 318.098 5.32891 319.498C2.47891 321.148 0.628906 324.148 0.628906 327.748C0.628906 333.998 6.22891 338.698 13.0789 338.698C19.9289 338.698 25.5289 333.998 25.5289 327.748C25.5289 324.198 23.6789 321.148 20.8289 319.498C22.3289 318.148 23.2289 316.298 23.2289 313.998C23.2289 308.948 18.6289 304.848 13.0789 304.848C7.52891 304.848 2.97891 308.948 2.97891 313.998ZM7.62891 327.398C7.62891 324.898 9.47891 322.498 13.0289 322.498C16.6789 322.498 18.5289 324.898 18.5289 327.398C18.5289 330.148 15.9789 332.198 13.0789 332.198C10.1789 332.198 7.62891 330.148 7.62891 327.398ZM9.72891 314.198C9.72891 312.598 10.9289 311.148 13.0789 311.148C15.2289 311.148 16.4289 312.598 16.4289 314.198C16.4289 315.848 15.3289 317.348 13.0789 317.348C10.8289 317.348 9.72891 315.848 9.72891 314.198Z" fill="#F27500"/>
<path d="M56.6234 336.798C57.6734 338.198 59.3734 339.048 61.5734 338.098C63.2734 337.348 64.3234 335.348 63.0234 333.798L56.5734 325.598L61.5234 319.348C62.7734 317.698 61.7234 315.798 60.0734 315.048C57.8734 314.098 55.9734 314.948 55.1234 316.348L52.4234 320.248L49.7234 316.348C48.8734 314.948 46.9734 314.098 44.7734 315.048C43.1234 315.798 42.0734 317.698 43.3234 319.348L48.2734 325.598L41.8234 333.798C40.5234 335.348 41.5734 337.348 43.2734 338.098C45.4734 339.048 47.1734 338.198 48.2234 336.798L52.4234 331.098L56.6234 336.798Z" fill="#F27500"/>
</svg>
