<svg width="622" height="379" viewBox="0 0 622 379" fill="none" xmlns="http://www.w3.org/2000/svg">
<path d="M432.646 350.133C432.646 360.198 424.216 368.444 413.646 368.444C403.203 368.444 394.646 360.198 394.646 350.133V178.444H432.646L432.646 350.133Z" fill="#F27500"/>
<path d="M434.646 350.133C434.646 360.198 426.438 368.444 416.146 368.444C405.978 368.444 397.646 360.198 397.646 350.133V178.444H434.646L434.646 350.133Z" fill="#FDE01B"/>
<path d="M581.646 341.133C581.646 351.198 573.66 359.444 563.646 359.444C553.752 359.444 545.646 351.198 545.646 341.133V169.444H581.646L581.646 341.133Z" fill="#F27500"/>
<path d="M585.646 341.037C585.646 351.155 577.216 359.444 566.646 359.444C556.203 359.444 547.646 351.155 547.646 341.037V168.444H585.646L585.646 341.037Z" fill="#FDE01B"/>
<g filter="url(#filter0_d)">
<path d="M567.24 172.444C577.357 172.444 585.646 180.431 585.646 190.444C585.646 200.338 577.357 208.444 567.24 208.444L394.647 208.444L394.646 172.444L567.24 172.444Z" fill="#F27500"/>
</g>
<g filter="url(#filter1_d)">
<path d="M567.24 169.444C577.357 169.444 585.646 177.431 585.646 187.444C585.646 197.338 577.357 205.444 567.24 205.444L394.647 205.444L394.646 169.444L567.24 169.444Z" fill="#FDE01B"/>
</g>
<g filter="url(#filter2_d)">
<path d="M567.24 335.444C577.357 335.444 585.646 343.431 585.646 353.444C585.646 363.338 577.357 371.444 567.24 371.444L394.647 371.444L394.646 335.444L567.24 335.444Z" fill="#F27500"/>
</g>
<g filter="url(#filter3_d)">
<path d="M567.24 332.444C577.357 332.444 585.646 340.652 585.646 350.944C585.646 361.113 577.357 369.444 567.24 369.444L394.647 369.444L394.646 332.444L567.24 332.444Z" fill="#FDE01B"/>
</g>
<path d="M97.6016 49.7863C97.6016 39.704 105.757 31.4438 115.981 31.4438C126.083 31.4438 134.36 39.704 134.36 49.7863V137.444H97.6016V49.7863Z" fill="#F27500"/>
<path d="M134.648 327.101C134.648 337.184 126.493 345.444 116.269 345.444C106.167 345.444 97.8902 337.184 97.8902 327.101L97.6465 142.444H134.648L134.648 327.101Z" fill="#F27500"/>
<path d="M100.732 49.7863C100.732 39.704 108.887 31.4438 119.112 31.4438C129.214 31.4438 137.491 39.704 137.491 49.7863V137.944H100.732V49.7863Z" fill="#FDE01B"/>
<path d="M137.779 327.101C137.779 337.183 129.624 345.444 119.4 345.444C109.298 345.444 101.021 337.183 101.021 327.101V142.444H137.646L137.779 327.101Z" fill="#FDE01B"/>
<path d="M81.6465 140.444H157.646" stroke="black" stroke-dasharray="5 5"/>
<path d="M432.646 350.133C432.646 360.198 424.216 368.444 413.646 368.444C403.203 368.444 394.646 360.198 394.646 350.133V178.444H432.646L432.646 350.133Z" fill="#F27500"/>
<path d="M434.646 350.133C434.646 360.198 426.438 368.444 416.146 368.444C405.978 368.444 397.646 360.198 397.646 350.133V178.444H434.646L434.646 350.133Z" fill="#FDE01B"/>
<path d="M581.646 341.133C581.646 351.198 573.66 359.444 563.646 359.444C553.752 359.444 545.646 351.198 545.646 341.133V169.444H581.646L581.646 341.133Z" fill="#F27500"/>
<path d="M585.646 341.037C585.646 351.155 577.216 359.444 566.646 359.444C556.203 359.444 547.646 351.155 547.646 341.037V168.444H585.646L585.646 341.037Z" fill="#FDE01B"/>
<g filter="url(#filter4_d)">
<path d="M567.24 172.444C577.357 172.444 585.646 180.431 585.646 190.444C585.646 200.338 577.357 208.444 567.24 208.444L394.647 208.444L394.646 172.444L567.24 172.444Z" fill="#F27500"/>
</g>
<g filter="url(#filter5_d)">
<path d="M567.24 169.444C577.357 169.444 585.646 177.431 585.646 187.444C585.646 197.338 577.357 205.444 567.24 205.444L394.647 205.444L394.646 169.444L567.24 169.444Z" fill="#FDE01B"/>
</g>
<g filter="url(#filter6_d)">
<path d="M567.24 335.444C577.357 335.444 585.646 343.431 585.646 353.444C585.646 363.338 577.357 371.444 567.24 371.444L394.647 371.444L394.646 335.444L567.24 335.444Z" fill="#F27500"/>
</g>
<g filter="url(#filter7_d)">
<path d="M567.24 332.444C577.357 332.444 585.646 340.652 585.646 350.944C585.646 361.113 577.357 369.444 567.24 369.444L394.647 369.444L394.646 332.444L567.24 332.444Z" fill="#FDE01B"/>
</g>
<path d="M457.646 26.7863C457.646 16.704 465.801 8.44385 476.026 8.44385C486.128 8.44385 494.405 16.704 494.405 26.7863V114.444H457.646V26.7863Z" fill="#F27500"/>
<path d="M459.646 25.7863C459.646 15.704 467.801 7.44385 478.026 7.44385C488.128 7.44385 496.405 15.704 496.405 25.7863V113.944H459.646V25.7863Z" fill="#FDE01B"/>
<g filter="url(#filter8_d)">
<path d="M479.989 114.203C469.907 114.203 461.646 106.048 461.646 95.8235C461.646 85.7211 469.907 77.4444 479.989 77.4444L567.646 77.4444L567.646 114.203L479.989 114.203Z" fill="#F27500"/>
</g>
<g filter="url(#filter9_d)">
<path d="M478.989 110.203C468.907 110.203 460.646 102.048 460.646 91.8235C460.646 81.7211 468.907 73.4444 478.989 73.4444L567.146 73.4444L567.146 110.203L478.989 110.203Z" fill="#FDE01B"/>
</g>
<path d="M536.777 26.7863C536.777 16.704 544.932 8.44385 555.156 8.44385C565.259 8.44385 573.536 16.704 573.536 26.7863V114.944H536.777V26.7863Z" fill="#FDE01B"/>
<path d="M457.646 26.7863C457.646 16.704 465.801 8.44385 476.026 8.44385C486.128 8.44385 494.405 16.704 494.405 26.7863V114.444H457.646V26.7863Z" fill="#F27500"/>
<path d="M459.646 25.7863C459.646 15.704 467.801 7.44385 478.026 7.44385C488.128 7.44385 496.405 15.704 496.405 25.7863V113.944H459.646V25.7863Z" fill="#FDE01B"/>
<g filter="url(#filter10_d)">
<path d="M479.989 114.203C469.907 114.203 461.646 106.048 461.646 95.8235C461.646 85.7211 469.907 77.4444 479.989 77.4444L567.646 77.4444L567.646 114.203L479.989 114.203Z" fill="#F27500"/>
</g>
<g filter="url(#filter11_d)">
<path d="M478.989 110.203C468.907 110.203 460.646 102.048 460.646 91.8235C460.646 81.7211 468.907 73.4444 478.989 73.4444L567.146 73.4444L567.146 110.203L478.989 110.203Z" fill="#FDE01B"/>
</g>
<g filter="url(#filter12_d)">
<path d="M477.989 44.2017C467.907 44.2017 459.646 36.0467 459.646 25.8225C459.646 15.7201 467.907 7.44338 477.989 7.44338L566.146 7.44338L566.146 44.2017L477.989 44.2017Z" fill="#FDE01B"/>
</g>
<path d="M69.8112 152.73C71.603 153.28 71.5971 152.299 71.9175 152.211L39.4287 137.962C36.6584 138.442 34.6795 139.035 34.6795 139.035L35.1286 142.153C35.1286 142.153 68.0193 152.18 69.8112 152.73Z" fill="#4A64AE"/>
<path d="M69.1298 130.303C70.8881 129.654 70.937 130.633 71.2619 130.703L39.6207 146.747C36.8279 146.422 34.8189 145.941 34.8189 145.941L35.0929 142.803C35.0929 142.803 67.3715 130.951 69.1298 130.303Z" fill="#4A64AE"/>
<path d="M9.00042 136.992C14.9815 136.957 35.5315 142.153 35.9721 142.33C38.7081 140.82 40.9265 137.871 40.9265 137.871C31.6338 134.665 24.8124 129.183 21.8965 126.496C21.2434 125.891 20.2459 124.624 19.5928 124.019C17.4733 122.113 11.2871 116.877 4.94026 122.665C-0.601905 127.691 3.60652 133.309 5.578 135.512C6.11667 136.094 8.19986 136.982 9.00042 136.992ZM9.77533 135.629C5.78117 134.185 3.60589 130.158 4.8682 126.633C6.15912 123.114 10.4157 121.43 14.4099 122.874C18.404 124.319 20.5793 128.346 19.317 131.871C18.0261 135.39 13.7695 137.074 9.77533 135.629Z" fill="#EA2254"/>
<path d="M21.2 160.106C21.7915 159.515 22.6828 158.29 23.2744 157.699C25.9159 155.073 32.1241 149.686 40.7327 146.346C40.7327 146.346 38.5127 143.636 35.924 142.337C35.5167 142.518 16.4122 148.125 10.7969 148.305C10.0458 148.343 8.11562 149.223 7.637 149.816C5.83808 151.96 2.11404 157.376 7.49461 161.897C13.6576 167.105 19.2782 161.97 21.2 160.106ZM8.10977 159.865C6.1246 156.959 7.21669 152.787 10.4848 150.547C13.7796 148.3 18.0509 148.862 20.0095 151.775C21.9946 154.681 20.9025 158.853 17.6344 161.093C14.3397 163.34 10.0683 162.778 8.10977 159.865Z" fill="#EA2254"/>
<path d="M44.1465 143.444C44.9749 143.444 45.6465 142.772 45.6465 141.944C45.6465 141.115 44.9749 140.444 44.1465 140.444C43.3181 140.444 42.6465 141.115 42.6465 141.944C42.6465 142.772 43.3181 143.444 44.1465 143.444Z" fill="#3850A2"/>
<rect x="179.646" y="38.4438" width="98" height="3" transform="rotate(90 179.646 38.4438)" fill="#F27500"/>
<rect x="158.146" y="38.4438" width="19" height="3" fill="#F27500"/>
<rect x="158.146" y="133.444" width="19" height="3" fill="#F27500"/>
<rect x="606.146" y="16.4438" width="98" height="3" transform="rotate(90 606.146 16.4438)" fill="#F27500"/>
<rect x="584.646" y="16.4438" width="19" height="3" fill="#F27500"/>
<rect x="584.646" y="111.444" width="19" height="3" fill="#F27500"/>
<rect x="179.646" y="144.444" width="95" height="3" transform="rotate(90 179.646 144.444)" fill="#1037D0"/>
<rect x="179.646" y="242.444" width="95" height="3" transform="rotate(90 179.646 242.444)" fill="#1037D0"/>
<rect x="157.646" y="144.444" width="19" height="3" fill="#1037D0"/>
<rect x="157.646" y="242.444" width="19" height="3" fill="#1037D0"/>
<rect x="157.646" y="236.444" width="19" height="3" fill="#1037D0"/>
<rect x="157.646" y="334.444" width="19" height="3" fill="#1037D0"/>
<rect x="621.646" y="172.444" width="95" height="3" transform="rotate(90 621.646 172.444)" fill="#1037D0"/>
<rect x="599.646" y="172.444" width="19" height="3" fill="#1037D0"/>
<rect x="599.646" y="264.444" width="19" height="3" fill="#1037D0"/>
<rect x="621.646" y="270.444" width="95" height="3" transform="rotate(90 621.646 270.444)" fill="#1037D0"/>
<rect x="599.646" y="270.444" width="19" height="3" fill="#1037D0"/>
<rect x="599.646" y="362.444" width="19" height="3" fill="#1037D0"/>
<path d="M196.31 114.707C227.412 54.4435 338.065 30.4498 422.88 63.641" stroke="#F27500" stroke-width="3" stroke-linecap="round" stroke-linejoin="round"/>
<path d="M415.346 47.784L424.509 64.9199L406.38 69.2712" stroke="#F27500" stroke-width="2.5" stroke-linecap="round" stroke-linejoin="round"/>
<path d="M337.037 240.139L357.188 238.382L348.441 219.701" stroke="#1037D0" stroke-width="2.5" stroke-linecap="round" stroke-linejoin="round"/>
<path d="M356.646 237.444C327.227 223.106 254.639 203.033 199.646 237.444" stroke="#1037D0" stroke-width="3" stroke-linecap="round" stroke-linejoin="round"/>
<defs>
<filter id="filter0_d" x="387.646" y="166.444" width="205" height="50" filterUnits="userSpaceOnUse" color-interpolation-filters="sRGB">
<feFlood flood-opacity="0" result="BackgroundImageFix"/>
<feColorMatrix in="SourceAlpha" type="matrix" values="0 0 0 0 0 0 0 0 0 0 0 0 0 0 0 0 0 0 127 0"/>
<feOffset dy="1"/>
<feGaussianBlur stdDeviation="3.5"/>
<feColorMatrix type="matrix" values="0 0 0 0 0 0 0 0 0 0 0 0 0 0 0 0 0 0 0.25 0"/>
<feBlend mode="normal" in2="BackgroundImageFix" result="effect1_dropShadow"/>
<feBlend mode="normal" in="SourceGraphic" in2="effect1_dropShadow" result="shape"/>
</filter>
<filter id="filter1_d" x="387.646" y="163.444" width="205" height="50" filterUnits="userSpaceOnUse" color-interpolation-filters="sRGB">
<feFlood flood-opacity="0" result="BackgroundImageFix"/>
<feColorMatrix in="SourceAlpha" type="matrix" values="0 0 0 0 0 0 0 0 0 0 0 0 0 0 0 0 0 0 127 0"/>
<feOffset dy="1"/>
<feGaussianBlur stdDeviation="3.5"/>
<feColorMatrix type="matrix" values="0 0 0 0 0 0 0 0 0 0 0 0 0 0 0 0 0 0 0.25 0"/>
<feBlend mode="normal" in2="BackgroundImageFix" result="effect1_dropShadow"/>
<feBlend mode="normal" in="SourceGraphic" in2="effect1_dropShadow" result="shape"/>
</filter>
<filter id="filter2_d" x="387.646" y="328.444" width="205" height="50" filterUnits="userSpaceOnUse" color-interpolation-filters="sRGB">
<feFlood flood-opacity="0" result="BackgroundImageFix"/>
<feColorMatrix in="SourceAlpha" type="matrix" values="0 0 0 0 0 0 0 0 0 0 0 0 0 0 0 0 0 0 127 0"/>
<feOffset/>
<feGaussianBlur stdDeviation="3.5"/>
<feColorMatrix type="matrix" values="0 0 0 0 0 0 0 0 0 0 0 0 0 0 0 0 0 0 0.25 0"/>
<feBlend mode="normal" in2="BackgroundImageFix" result="effect1_dropShadow"/>
<feBlend mode="normal" in="SourceGraphic" in2="effect1_dropShadow" result="shape"/>
</filter>
<filter id="filter3_d" x="387.646" y="325.444" width="205" height="51" filterUnits="userSpaceOnUse" color-interpolation-filters="sRGB">
<feFlood flood-opacity="0" result="BackgroundImageFix"/>
<feColorMatrix in="SourceAlpha" type="matrix" values="0 0 0 0 0 0 0 0 0 0 0 0 0 0 0 0 0 0 127 0"/>
<feOffset/>
<feGaussianBlur stdDeviation="3.5"/>
<feColorMatrix type="matrix" values="0 0 0 0 0 0 0 0 0 0 0 0 0 0 0 0 0 0 0.25 0"/>
<feBlend mode="normal" in2="BackgroundImageFix" result="effect1_dropShadow"/>
<feBlend mode="normal" in="SourceGraphic" in2="effect1_dropShadow" result="shape"/>
</filter>
<filter id="filter4_d" x="387.646" y="166.444" width="205" height="50" filterUnits="userSpaceOnUse" color-interpolation-filters="sRGB">
<feFlood flood-opacity="0" result="BackgroundImageFix"/>
<feColorMatrix in="SourceAlpha" type="matrix" values="0 0 0 0 0 0 0 0 0 0 0 0 0 0 0 0 0 0 127 0"/>
<feOffset dy="1"/>
<feGaussianBlur stdDeviation="3.5"/>
<feColorMatrix type="matrix" values="0 0 0 0 0 0 0 0 0 0 0 0 0 0 0 0 0 0 0.25 0"/>
<feBlend mode="normal" in2="BackgroundImageFix" result="effect1_dropShadow"/>
<feBlend mode="normal" in="SourceGraphic" in2="effect1_dropShadow" result="shape"/>
</filter>
<filter id="filter5_d" x="387.646" y="163.444" width="205" height="50" filterUnits="userSpaceOnUse" color-interpolation-filters="sRGB">
<feFlood flood-opacity="0" result="BackgroundImageFix"/>
<feColorMatrix in="SourceAlpha" type="matrix" values="0 0 0 0 0 0 0 0 0 0 0 0 0 0 0 0 0 0 127 0"/>
<feOffset dy="1"/>
<feGaussianBlur stdDeviation="3.5"/>
<feColorMatrix type="matrix" values="0 0 0 0 0 0 0 0 0 0 0 0 0 0 0 0 0 0 0.25 0"/>
<feBlend mode="normal" in2="BackgroundImageFix" result="effect1_dropShadow"/>
<feBlend mode="normal" in="SourceGraphic" in2="effect1_dropShadow" result="shape"/>
</filter>
<filter id="filter6_d" x="387.646" y="328.444" width="205" height="50" filterUnits="userSpaceOnUse" color-interpolation-filters="sRGB">
<feFlood flood-opacity="0" result="BackgroundImageFix"/>
<feColorMatrix in="SourceAlpha" type="matrix" values="0 0 0 0 0 0 0 0 0 0 0 0 0 0 0 0 0 0 127 0"/>
<feOffset/>
<feGaussianBlur stdDeviation="3.5"/>
<feColorMatrix type="matrix" values="0 0 0 0 0 0 0 0 0 0 0 0 0 0 0 0 0 0 0.25 0"/>
<feBlend mode="normal" in2="BackgroundImageFix" result="effect1_dropShadow"/>
<feBlend mode="normal" in="SourceGraphic" in2="effect1_dropShadow" result="shape"/>
</filter>
<filter id="filter7_d" x="387.646" y="325.444" width="205" height="51" filterUnits="userSpaceOnUse" color-interpolation-filters="sRGB">
<feFlood flood-opacity="0" result="BackgroundImageFix"/>
<feColorMatrix in="SourceAlpha" type="matrix" values="0 0 0 0 0 0 0 0 0 0 0 0 0 0 0 0 0 0 127 0"/>
<feOffset/>
<feGaussianBlur stdDeviation="3.5"/>
<feColorMatrix type="matrix" values="0 0 0 0 0 0 0 0 0 0 0 0 0 0 0 0 0 0 0.25 0"/>
<feBlend mode="normal" in2="BackgroundImageFix" result="effect1_dropShadow"/>
<feBlend mode="normal" in="SourceGraphic" in2="effect1_dropShadow" result="shape"/>
</filter>
<filter id="filter8_d" x="454.646" y="70.4443" width="120" height="50.7583" filterUnits="userSpaceOnUse" color-interpolation-filters="sRGB">
<feFlood flood-opacity="0" result="BackgroundImageFix"/>
<feColorMatrix in="SourceAlpha" type="matrix" values="0 0 0 0 0 0 0 0 0 0 0 0 0 0 0 0 0 0 127 0"/>
<feOffset/>
<feGaussianBlur stdDeviation="3.5"/>
<feColorMatrix type="matrix" values="0 0 0 0 0 0 0 0 0 0 0 0 0 0 0 0 0 0 0.25 0"/>
<feBlend mode="normal" in2="BackgroundImageFix" result="effect1_dropShadow"/>
<feBlend mode="normal" in="SourceGraphic" in2="effect1_dropShadow" result="shape"/>
</filter>
<filter id="filter9_d" x="453.646" y="66.4443" width="120.5" height="50.7583" filterUnits="userSpaceOnUse" color-interpolation-filters="sRGB">
<feFlood flood-opacity="0" result="BackgroundImageFix"/>
<feColorMatrix in="SourceAlpha" type="matrix" values="0 0 0 0 0 0 0 0 0 0 0 0 0 0 0 0 0 0 127 0"/>
<feOffset/>
<feGaussianBlur stdDeviation="3.5"/>
<feColorMatrix type="matrix" values="0 0 0 0 0 0 0 0 0 0 0 0 0 0 0 0 0 0 0.25 0"/>
<feBlend mode="normal" in2="BackgroundImageFix" result="effect1_dropShadow"/>
<feBlend mode="normal" in="SourceGraphic" in2="effect1_dropShadow" result="shape"/>
</filter>
<filter id="filter10_d" x="454.646" y="70.4443" width="120" height="50.7583" filterUnits="userSpaceOnUse" color-interpolation-filters="sRGB">
<feFlood flood-opacity="0" result="BackgroundImageFix"/>
<feColorMatrix in="SourceAlpha" type="matrix" values="0 0 0 0 0 0 0 0 0 0 0 0 0 0 0 0 0 0 127 0"/>
<feOffset/>
<feGaussianBlur stdDeviation="3.5"/>
<feColorMatrix type="matrix" values="0 0 0 0 0 0 0 0 0 0 0 0 0 0 0 0 0 0 0.25 0"/>
<feBlend mode="normal" in2="BackgroundImageFix" result="effect1_dropShadow"/>
<feBlend mode="normal" in="SourceGraphic" in2="effect1_dropShadow" result="shape"/>
</filter>
<filter id="filter11_d" x="453.646" y="66.4443" width="120.5" height="50.7583" filterUnits="userSpaceOnUse" color-interpolation-filters="sRGB">
<feFlood flood-opacity="0" result="BackgroundImageFix"/>
<feColorMatrix in="SourceAlpha" type="matrix" values="0 0 0 0 0 0 0 0 0 0 0 0 0 0 0 0 0 0 127 0"/>
<feOffset/>
<feGaussianBlur stdDeviation="3.5"/>
<feColorMatrix type="matrix" values="0 0 0 0 0 0 0 0 0 0 0 0 0 0 0 0 0 0 0.25 0"/>
<feBlend mode="normal" in2="BackgroundImageFix" result="effect1_dropShadow"/>
<feBlend mode="normal" in="SourceGraphic" in2="effect1_dropShadow" result="shape"/>
</filter>
<filter id="filter12_d" x="452.646" y="0.443359" width="120.5" height="50.7583" filterUnits="userSpaceOnUse" color-interpolation-filters="sRGB">
<feFlood flood-opacity="0" result="BackgroundImageFix"/>
<feColorMatrix in="SourceAlpha" type="matrix" values="0 0 0 0 0 0 0 0 0 0 0 0 0 0 0 0 0 0 127 0"/>
<feOffset/>
<feGaussianBlur stdDeviation="3.5"/>
<feColorMatrix type="matrix" values="0 0 0 0 0 0 0 0 0 0 0 0 0 0 0 0 0 0 0.25 0"/>
<feBlend mode="normal" in2="BackgroundImageFix" result="effect1_dropShadow"/>
<feBlend mode="normal" in="SourceGraphic" in2="effect1_dropShadow" result="shape"/>
</filter>
</defs>
</svg>
