<svg width="269" height="416" viewBox="0 0 269 416" fill="none" xmlns="http://www.w3.org/2000/svg">
<path d="M235.554 236.614C236.191 237.144 237.137 237.058 237.667 236.421L246.302 226.044C246.832 225.407 246.745 224.462 246.109 223.932C245.472 223.402 244.526 223.488 243.996 224.125L236.32 233.349L227.096 225.673C226.459 225.143 225.514 225.23 224.984 225.867C224.454 226.503 224.54 227.449 225.177 227.979L235.554 236.614ZM160.046 113.568C159.504 114.967 159.504 114.966 159.503 114.966C159.504 114.966 159.504 114.966 159.504 114.967C159.505 114.967 159.507 114.968 159.51 114.969C159.516 114.971 159.526 114.975 159.54 114.981C159.568 114.992 159.613 115.01 159.672 115.034C159.792 115.083 159.973 115.159 160.213 115.262C160.692 115.47 161.405 115.789 162.319 116.231C164.148 117.116 166.784 118.491 169.981 120.439C176.376 124.337 185.009 130.528 193.918 139.68C211.72 157.967 230.672 188.126 235.02 235.598L238.007 235.325C233.592 187.115 214.31 156.327 196.068 137.588C186.956 128.227 178.116 121.884 171.542 117.878C168.255 115.874 165.533 114.453 163.625 113.531C162.671 113.069 161.92 112.732 161.404 112.509C161.145 112.397 160.946 112.314 160.808 112.258C160.74 112.23 160.686 112.208 160.65 112.194C160.631 112.186 160.617 112.18 160.606 112.176C160.601 112.174 160.597 112.173 160.594 112.171C160.592 112.171 160.591 112.17 160.59 112.17C160.588 112.169 160.587 112.169 160.046 113.568Z" fill="#F27500"/>
<path d="M28.191 0.867032L0.703125 33.281L28.738 57.0553L56.2259 24.6413L28.191 0.867032Z" fill="#F27500"/>
<path d="M30.6129 2.92074L3.125 35.3347L31.1599 59.109L58.6477 26.695L30.6129 2.92074Z" fill="#FDE01B"/>
<path d="M30.191 182.867L2.70312 215.281L30.738 239.055L58.2259 206.641L30.191 182.867Z" fill="#F27500"/>
<path d="M32.6129 184.921L5.125 217.335L33.1599 241.109L60.6477 208.695L32.6129 184.921Z" fill="#FDE01B"/>
<path d="M94.0242 63.378C94.7968 63.677 95.6655 63.2931 95.9645 62.5206L100.838 49.9307C101.137 49.1582 100.753 48.2894 99.9801 47.9904C99.2075 47.6914 98.3388 48.0753 98.0398 48.8478L93.7082 60.0388L82.5173 55.7072C81.7447 55.4082 80.876 55.792 80.5769 56.5646C80.2779 57.3372 80.6618 58.2059 81.4344 58.5049L94.0242 63.378ZM58.7024 34.6343C58.683 36.1342 58.6823 36.1342 58.6816 36.1342C58.6815 36.1342 58.681 36.1342 58.6808 36.1342C58.6804 36.1342 58.6804 36.1342 58.6807 36.1342C58.6814 36.1342 58.6835 36.1342 58.6871 36.1343C58.6941 36.1344 58.7068 36.1348 58.725 36.1353C58.7614 36.1364 58.8199 36.1386 58.8993 36.1425C59.0582 36.1504 59.3007 36.1656 59.6182 36.1943C60.2535 36.2517 61.1878 36.3634 62.3519 36.5797C64.6815 37.0127 67.9211 37.8629 71.524 39.5296C78.7061 42.8519 87.3846 49.4397 93.1936 62.5854L95.9376 61.3728C89.7995 47.4825 80.5464 40.3978 72.7836 36.8068C68.9141 35.0168 65.428 34.1001 62.9 33.6302C61.6353 33.3952 60.6077 33.2715 59.8884 33.2065C59.5287 33.174 59.2457 33.1561 59.0484 33.1462C58.9497 33.1413 58.8724 33.1384 58.8176 33.1367C58.7902 33.1359 58.7684 33.1354 58.7524 33.135C58.7444 33.1348 58.7378 33.1347 58.7327 33.1346C58.7301 33.1346 58.7279 33.1345 58.7261 33.1345C58.7252 33.1345 58.7241 33.1345 58.7236 33.1345C58.7226 33.1345 58.7217 33.1344 58.7024 34.6343Z" fill="#F27500"/>
<path d="M96.2689 202.824C97.0634 202.59 97.8976 203.044 98.1321 203.838L101.953 216.786C102.188 217.581 101.734 218.415 100.939 218.65C100.144 218.884 99.3103 218.43 99.0758 217.635L95.6793 206.126L84.17 209.523C83.3755 209.757 82.5413 209.303 82.3068 208.509C82.0723 207.714 82.5264 206.88 83.3209 206.645L96.2689 202.824ZM58.7026 228.566C58.8067 227.069 58.806 227.069 58.8053 227.069C58.8052 227.069 58.8047 227.069 58.8045 227.069C58.8041 227.069 58.8041 227.069 58.8045 227.069C58.8051 227.069 58.8072 227.069 58.8108 227.069C58.8178 227.07 58.8305 227.071 58.8487 227.071C58.8851 227.073 58.9435 227.076 59.023 227.079C59.1819 227.084 59.4249 227.089 59.7437 227.086C60.3816 227.081 61.3219 227.047 62.4998 226.927C64.8571 226.687 68.1557 226.106 71.8835 224.741C79.3145 222.021 88.5054 216.169 95.3759 203.546L98.0109 204.98C90.7512 218.318 80.9467 224.618 72.9148 227.559C68.9112 229.024 65.3616 229.651 62.8035 229.911C61.5237 230.042 60.4895 230.08 59.7673 230.086C59.4061 230.089 59.1226 230.083 58.9251 230.077C58.8264 230.074 58.7491 230.07 58.6944 230.067C58.667 230.066 58.6452 230.065 58.6292 230.064C58.6212 230.063 58.6147 230.063 58.6095 230.063C58.607 230.062 58.6048 230.062 58.603 230.062C58.6021 230.062 58.601 230.062 58.6005 230.062C58.5995 230.062 58.5986 230.062 58.7026 228.566Z" fill="#F27500"/>
<path d="M124.703 91.3679L76.7031 62.8679L77.7031 178.868L124.703 210.868V91.3679Z" fill="#FDE01B"/>
<path d="M88.7031 186.368V69.8679L76.703 62.8679L77.703 178.868L88.7031 186.368Z" fill="#F27500"/>
<path d="M84.7031 183.868V67.3679L80.7031 64.8679V180.868L84.7031 183.868Z" fill="#FDE01B"/>
<path d="M92.7031 188.868V72.3679L88.7031 69.8679V185.868L92.7031 188.868Z" fill="#FDE01B"/>
<path d="M255.279 288.091L207.279 259.591L208.279 375.591L255.279 407.591V288.091Z" fill="#FDE01B"/>
<path d="M219.279 383.091V266.591L207.279 259.591L208.279 375.591L219.279 383.091Z" fill="#F27500"/>
<path d="M215.279 380.591V264.091L211.279 261.591V377.591L215.279 380.591Z" fill="#FDE01B"/>
<path d="M223.279 385.591V269.091L219.279 266.591V382.591L223.279 385.591Z" fill="#FDE01B"/>
<g filter="url(#filter0_d)">
<rect x="261.336" y="291.785" width="66" height="3" transform="rotate(-152.05 261.336 291.785)" fill="#F27500"/>
</g>
<rect x="262.463" y="289.734" width="66" height="4.76386" transform="rotate(-152.05 262.463 289.734)" fill="#FDE01B"/>
<g filter="url(#filter1_d)">
<rect x="256.58" y="409.483" width="66" height="3" transform="rotate(-152.05 256.58 409.483)" fill="#F27500"/>
</g>
<g filter="url(#filter2_d)">
<rect x="257.463" y="407.53" width="66" height="4.76386" transform="rotate(-152.05 257.463 407.53)" fill="#FDE01B"/>
</g>
<path d="M126.043 125.056L75.543 100.056V161.556L126.043 184.056V125.056Z" fill="#E6E6E6" fill-opacity="0.5"/>
<path d="M124.504 122.803L126.057 125.152L124.504 124.487V122.803Z" fill="#C4C4C4"/>
<path d="M76.834 99.7693L75.5488 100.062L76.834 100.695V99.7693Z" fill="#C4C4C4"/>
<defs>
<filter id="filter0_d" x="197.035" y="252.2" width="71.7076" height="45.5845" filterUnits="userSpaceOnUse" color-interpolation-filters="sRGB">
<feFlood flood-opacity="0" result="BackgroundImageFix"/>
<feColorMatrix in="SourceAlpha" type="matrix" values="0 0 0 0 0 0 0 0 0 0 0 0 0 0 0 0 0 0 127 0"/>
<feOffset/>
<feGaussianBlur stdDeviation="3"/>
<feColorMatrix type="matrix" values="0 0 0 0 0 0 0 0 0 0 0 0 0 0 0 0 0 0 0.25 0"/>
<feBlend mode="normal" in2="BackgroundImageFix" result="effect1_dropShadow"/>
<feBlend mode="normal" in="SourceGraphic" in2="effect1_dropShadow" result="shape"/>
</filter>
<filter id="filter1_d" x="192.279" y="369.899" width="71.7076" height="45.5845" filterUnits="userSpaceOnUse" color-interpolation-filters="sRGB">
<feFlood flood-opacity="0" result="BackgroundImageFix"/>
<feColorMatrix in="SourceAlpha" type="matrix" values="0 0 0 0 0 0 0 0 0 0 0 0 0 0 0 0 0 0 127 0"/>
<feOffset/>
<feGaussianBlur stdDeviation="3"/>
<feColorMatrix type="matrix" values="0 0 0 0 0 0 0 0 0 0 0 0 0 0 0 0 0 0 0.25 0"/>
<feBlend mode="normal" in2="BackgroundImageFix" result="effect1_dropShadow"/>
<feBlend mode="normal" in="SourceGraphic" in2="effect1_dropShadow" result="shape"/>
</filter>
<filter id="filter2_d" x="193.162" y="366.387" width="72.5343" height="47.1426" filterUnits="userSpaceOnUse" color-interpolation-filters="sRGB">
<feFlood flood-opacity="0" result="BackgroundImageFix"/>
<feColorMatrix in="SourceAlpha" type="matrix" values="0 0 0 0 0 0 0 0 0 0 0 0 0 0 0 0 0 0 127 0"/>
<feOffset/>
<feGaussianBlur stdDeviation="3"/>
<feColorMatrix type="matrix" values="0 0 0 0 0 0 0 0 0 0 0 0 0 0 0 0 0 0 0.25 0"/>
<feBlend mode="normal" in2="BackgroundImageFix" result="effect1_dropShadow"/>
<feBlend mode="normal" in="SourceGraphic" in2="effect1_dropShadow" result="shape"/>
</filter>
</defs>
</svg>
