<svg width="291" height="390" viewBox="0 0 291 390" fill="none" xmlns="http://www.w3.org/2000/svg">
<path d="M60.6946 297.354L77.2383 296.572L60.8237 326.823L44.0546 328.661L60.6946 297.354Z" fill="#FDE01B"/>
<path d="M56.8987 327.256L73.121 296.735L77.2395 296.572L60.8249 326.823L56.8987 327.256Z" fill="#F27500"/>
<path d="M58.289 327.158L74.5113 296.637L75.9073 296.539L59.7547 326.929L58.289 327.158Z" fill="#FDE01B"/>
<path d="M55.5019 327.353L71.7241 296.832L73.1202 296.734L56.9676 327.124L55.5019 327.353Z" fill="#FDE01B"/>
<g filter="url(#filter0_d)">
<rect width="19.5815" height="0.890069" transform="matrix(1 0.000715525 0.000715525 -1 58.5469 297.421)" fill="#F27500"/>
</g>
<g filter="url(#filter1_d)">
<rect width="19.5815" height="1.41339" transform="matrix(1 0.000715473 0.000715473 -1 58.5879 296.787)" fill="#FDE01B"/>
</g>
<g filter="url(#filter2_d)">
<rect width="19.5815" height="0.890069" transform="matrix(1 0.000715527 0.000715527 -1 43.4512 328.977)" fill="#F27500"/>
</g>
<g filter="url(#filter3_d)">
<rect width="19.5815" height="1.41339" transform="matrix(1 0.000715474 0.000715474 -1 43.4922 328.343)" fill="#FDE01B"/>
</g>
<path d="M37.2563 319.161L66.6973 317.768L37.486 371.602L7.64397 374.874L37.2563 319.161Z" fill="#FDE01B"/>
<path d="M30.5039 372.37L59.3728 318.055L66.7021 317.765L37.4909 371.599L30.5039 372.37Z" fill="#F27500"/>
<path d="M32.9881 372.198L61.8571 317.883L64.3414 317.709L35.5964 371.79L32.9881 372.198Z" fill="#FDE01B"/>
<path d="M28.0194 372.545L56.8883 318.231L59.3727 318.056L30.6277 372.138L28.0194 372.545Z" fill="#FDE01B"/>
<g filter="url(#filter4_d)">
<rect width="34.847" height="1.58395" transform="matrix(1 0.000715525 0.000715525 -1 33.5176 319.277)" fill="#F27500"/>
</g>
<g filter="url(#filter5_d)">
<rect width="34.847" height="2.51525" transform="matrix(1 0.000715473 0.000715473 -1 33.5039 318.149)" fill="#FDE01B"/>
</g>
<g filter="url(#filter6_d)">
<rect width="34.847" height="1.58396" transform="matrix(1 0.000715527 0.000715527 -1 6.57422 375.436)" fill="#F27500"/>
</g>
<g filter="url(#filter7_d)">
<rect width="34.847" height="2.51525" transform="matrix(1 0.000715474 0.000715474 -1 6.65039 374.308)" fill="#FDE01B"/>
</g>
<path d="M236.513 327.532L253.057 328.315L236.642 298.064L219.873 296.225L236.513 327.532Z" fill="#FDE01B"/>
<path d="M232.717 297.631L248.939 328.152L253.058 328.315L236.643 298.064L232.717 297.631Z" fill="#F27500"/>
<path d="M234.107 297.729L250.33 328.25L251.726 328.348L235.573 297.958L234.107 297.729Z" fill="#FDE01B"/>
<path d="M231.32 297.534L247.543 328.055L248.939 328.153L232.786 297.763L231.32 297.534Z" fill="#FDE01B"/>
<g filter="url(#filter8_d)">
<rect x="234.365" y="327.466" width="19.5815" height="0.890069" transform="rotate(-0.0409968 234.365 327.466)" fill="#F27500"/>
</g>
<g filter="url(#filter9_d)">
<rect x="234.406" y="328.1" width="19.5815" height="1.41339" transform="rotate(-0.0409938 234.406 328.1)" fill="#FDE01B"/>
</g>
<g filter="url(#filter10_d)">
<rect x="219.27" y="295.91" width="19.5815" height="0.890069" transform="rotate(-0.0409967 219.27 295.91)" fill="#F27500"/>
</g>
<g filter="url(#filter11_d)">
<rect x="219.311" y="296.544" width="19.5815" height="1.41339" transform="rotate(-0.0409937 219.311 296.544)" fill="#FDE01B"/>
</g>
<path d="M252.956 371.879L282.396 373.271L253.185 319.438L223.343 316.165L252.956 371.879Z" fill="#FDE01B"/>
<path d="M246.201 318.669L275.07 372.984L282.399 373.274L253.188 319.44L246.201 318.669Z" fill="#F27500"/>
<path d="M248.685 318.841L277.554 373.156L280.039 373.331L251.294 319.249L248.685 318.841Z" fill="#FDE01B"/>
<path d="M243.711 318.494L272.58 372.809L275.064 372.983L246.319 318.901L243.711 318.494Z" fill="#FDE01B"/>
<g filter="url(#filter12_d)">
<rect x="249.129" y="371.764" width="34.847" height="1.58396" transform="rotate(-0.0409968 249.129 371.764)" fill="#F27500"/>
</g>
<g filter="url(#filter13_d)">
<rect x="249.205" y="372.893" width="34.847" height="2.51525" transform="rotate(-0.0409938 249.205 372.893)" fill="#FDE01B"/>
</g>
<g filter="url(#filter14_d)">
<rect x="222.268" y="315.605" width="34.847" height="1.58395" transform="rotate(-0.0409967 222.268 315.605)" fill="#F27500"/>
</g>
<g filter="url(#filter15_d)">
<rect x="222.344" y="316.734" width="34.847" height="2.51525" transform="rotate(-0.0409937 222.344 316.734)" fill="#FDE01B"/>
</g>
<rect x="33.5723" y="308.359" width="223.529" height="5.58821" fill="#FDE01B"/>
<rect x="33.5723" y="313.694" width="223.529" height="2.03208" fill="#F27500"/>
<rect x="66.0859" y="288.55" width="157.994" height="5.58821" fill="#FDE01B"/>
<path d="M224.078 288.55L218.998 293.884L233.223 308.363H257.099L224.078 288.55Z" fill="#FDE01B"/>
<path d="M61.2593 308.359H33.5723L66.0855 288.546L70.9117 293.881L61.2593 308.359Z" fill="#FDE01B"/>
<path d="M219.254 294.134L233.224 308.358H227.382L219.254 296.42H70.6581L65.1186 308.358H61.2598L70.6581 294.134H219.254Z" fill="#F27500"/>
<path d="M92.9395 136.992L104.339 135.355L144.464 135.355L174.558 135.355L196.901 136.972L196.901 139.018L92.9395 139.018L92.9395 136.992Z" fill="#FDE01B"/>
<rect x="92.9395" y="138.928" width="103.961" height="0.736761" fill="#F27500"/>
<rect x="108.061" y="129.808" width="73.4817" height="2.02609" fill="#FDE01B"/>
<path d="M181.548 129.808L167.723 132.119L166.355 136.992L196.906 136.992L181.548 129.808Z" fill="#FDE01B"/>
<path d="M117.562 136.994L92.9395 136.994L108.061 129.811L122.051 131.745L117.562 136.994Z" fill="#FDE01B"/>
<path d="M168.628 131.837L166.918 135.357L164.2 135.357L166.918 132.666L121.93 132.666L119.922 135.357L117.559 135.357L121.93 131.837L168.628 131.837Z" fill="#F27500"/>
<path d="M82.7178 250.833L94.9629 250.253L82.8134 272.644L70.4014 274.005L82.7178 250.833Z" fill="#FDE01B"/>
<path d="M79.91 272.964L91.9172 250.374L94.9656 250.253L82.8161 272.644L79.91 272.964Z" fill="#F27500"/>
<path d="M80.9461 272.893L92.9533 250.302L93.9866 250.23L82.031 272.724L80.9461 272.893Z" fill="#FDE01B"/>
<path d="M78.8738 273.04L90.881 250.449L91.9143 250.376L79.9587 272.87L78.8738 273.04Z" fill="#FDE01B"/>
<g filter="url(#filter16_d)">
<rect width="14.4936" height="0.658799" transform="matrix(1 0.000715524 0.000715524 -1 81.1289 250.878)" fill="#F27500"/>
</g>
<g filter="url(#filter17_d)">
<rect width="14.4936" height="1.04614" transform="matrix(1 0.000715471 0.000715471 -1 81.1562 250.408)" fill="#FDE01B"/>
</g>
<g filter="url(#filter18_d)">
<rect width="14.4936" height="0.658799" transform="matrix(1 0.000715527 0.000715527 -1 69.9551 274.236)" fill="#F27500"/>
</g>
<g filter="url(#filter19_d)">
<rect width="14.4936" height="1.04614" transform="matrix(1 0.000715474 0.000715474 -1 69.9824 273.765)" fill="#FDE01B"/>
</g>
<path d="M60.501 266.84L82.7754 265.786L60.6749 306.516L38.0971 308.991L60.501 266.84Z" fill="#FDE01B"/>
<path d="M55.3793 307.101L77.2208 266.008L82.766 265.789L60.6655 306.518L55.3793 307.101Z" fill="#F27500"/>
<path d="M57.2659 306.967L79.1075 265.874L80.9871 265.742L59.2393 306.659L57.2659 306.967Z" fill="#FDE01B"/>
<path d="M53.5022 307.232L75.3438 266.139L77.2234 266.007L55.4756 306.924L53.5022 307.232Z" fill="#FDE01B"/>
<g filter="url(#filter20_d)">
<rect width="26.3644" height="1.19838" transform="matrix(1 0.000715524 0.000715524 -1 58.7285 267.395)" fill="#F27500"/>
</g>
<g filter="url(#filter21_d)">
<rect width="26.3644" height="1.90298" transform="matrix(1 0.000715471 0.000715471 -1 58.7832 266.535)" fill="#FDE01B"/>
</g>
<g filter="url(#filter22_d)">
<rect width="26.3644" height="1.19838" transform="matrix(1 0.000715527 0.000715527 -1 37.2734 309.417)" fill="#F27500"/>
</g>
<g filter="url(#filter23_d)">
<rect width="26.3644" height="1.90298" transform="matrix(1 0.000715474 0.000715474 -1 37.3281 308.56)" fill="#FDE01B"/>
</g>
<path d="M212.845 273.166L225.09 273.745L212.94 251.354L200.528 249.993L212.845 273.166Z" fill="#FDE01B"/>
<path d="M210.037 251.034L222.044 273.625L225.093 273.745L212.943 251.355L210.037 251.034Z" fill="#F27500"/>
<path d="M211.073 251.105L223.08 273.696L224.114 273.768L212.158 251.275L211.073 251.105Z" fill="#FDE01B"/>
<path d="M209.001 250.959L221.008 273.549L222.041 273.622L210.086 251.128L209.001 250.959Z" fill="#FDE01B"/>
<g filter="url(#filter24_d)">
<rect x="211.266" y="273.119" width="14.4936" height="0.658799" transform="rotate(-0.0409968 211.266 273.119)" fill="#F27500"/>
</g>
<g filter="url(#filter25_d)">
<rect x="211.293" y="273.59" width="14.4936" height="1.04614" transform="rotate(-0.0409938 211.293 273.59)" fill="#FDE01B"/>
</g>
<g filter="url(#filter26_d)">
<rect x="200.09" y="249.763" width="14.4936" height="0.658799" transform="rotate(-0.0409967 200.09 249.763)" fill="#F27500"/>
</g>
<g filter="url(#filter27_d)">
<rect x="200.117" y="250.233" width="14.4936" height="1.04614" transform="rotate(-0.0409937 200.117 250.233)" fill="#FDE01B"/>
</g>
<path d="M228.95 306.829L251.262 307.885L229.124 267.086L206.508 264.606L228.95 306.829Z" fill="#FDE01B"/>
<path d="M223.821 266.498L245.699 307.66L251.254 307.88L229.116 267.082L223.821 266.498Z" fill="#F27500"/>
<path d="M225.707 266.632L247.585 307.795L249.468 307.927L227.683 266.941L225.707 266.632Z" fill="#FDE01B"/>
<path d="M221.939 266.37L243.818 307.533L245.7 307.665L223.916 266.679L221.939 266.37Z" fill="#FDE01B"/>
<g filter="url(#filter28_d)">
<rect x="226.041" y="306.741" width="26.4091" height="1.20041" transform="rotate(-0.0409969 226.041 306.741)" fill="#F27500"/>
</g>
<g filter="url(#filter29_d)">
<rect x="226.094" y="307.597" width="26.4091" height="1.9062" transform="rotate(-0.0409939 226.094 307.597)" fill="#FDE01B"/>
</g>
<g filter="url(#filter30_d)">
<rect x="205.609" y="264.181" width="26.4091" height="1.20041" transform="rotate(-0.0409967 205.609 264.181)" fill="#F27500"/>
</g>
<g filter="url(#filter31_d)">
<rect x="205.602" y="265.304" width="26.4091" height="1.9062" transform="rotate(-0.0409937 205.602 265.304)" fill="#FDE01B"/>
</g>
<rect x="59.3906" y="258.998" width="171.951" height="4.29876" fill="#FDE01B"/>
<rect x="59.3906" y="263.099" width="171.951" height="1.56319" fill="#F27500"/>
<rect x="84.4062" y="243.757" width="121.538" height="4.29876" fill="#FDE01B"/>
<path d="M205.941 243.757L202.033 247.86L212.976 258.998H231.343L205.941 243.757Z" fill="#FDE01B"/>
<path d="M80.689 258.998H59.3906L84.4016 243.757L88.1142 247.86L80.689 258.998Z" fill="#FDE01B"/>
<path d="M202.227 248.055L212.974 258.998H208.48L202.227 249.814H87.9192L84.5974 258.998H80.6895L87.9192 248.055H202.227Z" fill="#F27500"/>
<path d="M202.033 248.25L213.366 248.25" stroke="#F27500"/>
<path d="M76.9746 248.25L88.3077 248.25" stroke="#F27500"/>
<path d="M87.9844 255.448L61.7207 256.566L78.128 200.683L106.778 191.437L87.9844 255.448Z" fill="#FDE01B"/>
<path d="M84.8348 198.512L67.458 257.697L60.765 257.939L78.1277 200.682L84.8348 198.512Z" fill="#F27500"/>
<path d="M82.4331 199.186L65.3546 257.355L63.0988 257.521L79.9535 200.114L82.4331 199.186Z" fill="#FDE01B"/>
<path d="M87.236 197.84L69.8592 257.025L67.4542 257.698L84.7565 198.767L87.236 197.84Z" fill="#FDE01B"/>
<path d="M105.936 194.409L77.957 201.37L95.1101 142.947L121.001 143.099L105.936 194.409Z" fill="#FDE01B"/>
<path d="M101.819 140.778L84.4422 199.963L77.8843 201.624L95.1119 142.948L101.819 140.778Z" fill="#F27500"/>
<path d="M99.4079 141.45L82.0311 200.635L79.6261 201.308L96.9283 142.377L99.4079 141.45Z" fill="#FDE01B"/>
<path d="M104.22 140.103L86.8436 199.288L84.4386 199.961L101.741 141.031L104.22 140.103Z" fill="#FDE01B"/>
<rect width="34.945" height="1.58841" transform="matrix(-1 -0.000133697 -0.000133697 1 94.3926 255.551)" fill="#F27500"/>
<rect width="34.945" height="2.52232" transform="matrix(-1 -0.000133615 -0.000133615 1 94.3086 256.686)" fill="#FDE01B"/>
<rect width="34.945" height="1.58841" transform="matrix(0.999983 0.00574085 0.00574085 -0.999983 92.7285 143.056)" fill="#F27500"/>
<rect width="34.945" height="2.52232" transform="matrix(0.999983 0.00574077 0.00574077 -0.999983 92.8125 141.925)" fill="#FDE01B"/>
<path d="M122.086 134.364L96.3008 135.983L109.713 79.3068L137.832 68.5501L122.086 134.364Z" fill="#FDE01B"/>
<path d="M116.298 76.7837L102.093 136.809L95.4226 137.407L109.716 79.3067L116.298 76.7837Z" fill="#F27500"/>
<path d="M113.929 77.5857L99.9681 136.58L97.7242 136.866L111.503 78.6437L113.929 77.5857Z" fill="#FDE01B"/>
<path d="M118.659 75.9853L104.453 136.01L102.087 136.811L116.232 77.0433L118.659 75.9853Z" fill="#FDE01B"/>
<path d="M137.245 70.9809L109.676 79.4189L123.698 20.1667L149.56 18.9418L137.245 70.9809Z" fill="#FDE01B"/>
<path d="M130.277 17.6437L116.072 77.6688L109.612 79.6765L123.695 20.1667L130.277 17.6437Z" fill="#F27500"/>
<path d="M127.916 18.4431L113.711 78.4682L111.345 79.2686L125.49 19.5011L127.916 18.4431Z" fill="#FDE01B"/>
<path d="M132.647 16.844L118.442 76.8691L116.076 77.6695L130.22 17.9019L132.647 16.844Z" fill="#FDE01B"/>
<rect width="34.945" height="1.58841" transform="matrix(-1 0.000331617 0.000331617 1 128.115 133.852)" fill="#F27500"/>
<rect width="34.945" height="2.52232" transform="matrix(-1 0.000331669 0.000331669 1 128.047 134.984)" fill="#FDE01B"/>
<rect width="34.945" height="1.58841" transform="matrix(0.999555 -0.0298098 -0.0298098 -0.999555 120.164 20.4177)" fill="#F27500"/>
<rect width="34.945" height="2.52232" transform="matrix(0.999556 -0.0298098 -0.0298098 -0.999556 120.205 19.282)" fill="#FDE01B"/>
<path d="M161.847 19.0229L135.68 16.51L149.092 73.1861L177.21 83.9428L161.847 19.0229Z" fill="#FDE01B"/>
<path d="M155.675 75.7095L141.473 15.9891L134.957 15.7578L149.093 73.1865L155.675 75.7095Z" fill="#F27500"/>
<path d="M153.308 74.9098L139.346 15.9151L137.151 15.8388L150.881 73.8518L153.308 74.9098Z" fill="#FDE01B"/>
<path d="M158.043 76.5093L143.837 16.4841L141.461 15.9335L155.616 75.4513L158.043 76.5093Z" fill="#FDE01B"/>
<path d="M176.425 80.5921L148.855 72.1541L163.553 134.148L189.08 133.571L176.425 80.5921Z" fill="#FDE01B"/>
<path d="M169.457 133.929L155.252 73.9042L148.791 71.8965L163.34 133.601L169.457 133.929Z" fill="#F27500"/>
<path d="M167.191 133.389L152.883 73.104L150.517 72.3036L164.792 133.388L167.191 133.389Z" fill="#FDE01B"/>
<path d="M171.825 134.729L157.619 74.7039L155.254 73.9035L169.398 133.671L171.825 134.729Z" fill="#FDE01B"/>
<rect x="167.445" y="20.3848" width="34.945" height="1.58841" transform="rotate(-178.292 167.445 20.3848)" fill="#F27500"/>
<rect x="167.404" y="19.249" width="34.945" height="2.52232" transform="rotate(-178.292 167.404 19.249)" fill="#FDE01B"/>
<rect x="161.951" y="133.44" width="34.945" height="1.58841" transform="rotate(-0.196325 161.951 133.44)" fill="#F27500"/>
<rect x="161.957" y="134.579" width="34.945" height="2.52232" transform="rotate(-0.19632 161.957 134.579)" fill="#FDE01B"/>
<path d="M192.078 141.137L165.75 139.801L182.597 197.183L211.376 206.865L192.078 141.137Z" fill="#FDE01B"/>
<path d="M189.333 199.453L171.746 139.631L165.325 139.631L182.596 197.182L189.333 199.453Z" fill="#F27500"/>
<path d="M186.916 198.746L169.513 139.632L167.323 139.632L184.425 197.777L186.916 198.746Z" fill="#FDE01B"/>
<path d="M191.742 200.163L173.958 139.674L171.765 139.674L189.251 199.195L191.742 200.163Z" fill="#FDE01B"/>
<path d="M210.378 203.474L182.289 196.139L199.902 256.129L225.847 256.161L210.378 203.474Z" fill="#FDE01B"/>
<path d="M206.645 258.404L188.802 197.631L182.218 195.881L199.908 256.132L206.645 258.404Z" fill="#F27500"/>
<path d="M204.232 257.695L186.389 196.922L183.974 196.215L201.74 256.726L204.232 257.695Z" fill="#FDE01B"/>
<path d="M209.058 259.11L191.215 198.337L188.8 197.63L206.566 258.141L209.058 259.11Z" fill="#FDE01B"/>
<g filter="url(#filter32_d)">
<rect width="35.1795" height="1.62056" transform="matrix(-0.995145 -0.000904876 -0.0124021 -1.00463 197.01 144.645)" fill="#F27500"/>
</g>
<g filter="url(#filter33_d)">
<rect width="35.1795" height="3.38973" transform="matrix(-0.995145 -0.00116192 -0.0121425 -1.00463 196.975 143.073)" fill="#FDE01B"/>
</g>
<g filter="url(#filter34_d)">
<rect width="35.1795" height="1.62056" transform="matrix(0.995145 0.000208223 0.0131053 1.00462 196.307 255.687)" fill="#F27500"/>
</g>
<g filter="url(#filter35_d)">
<rect width="35.1795" height="2.57338" transform="matrix(0.995145 0.000208249 0.0131053 1.00462 196.312 256.85)" fill="#FDE01B"/>
</g>
<path d="M239.689 317.07L270.247 374.055H197.277C194.147 360.526 178.266 333.633 139.775 334.289C101.285 334.945 88.5329 361.073 86.9682 374.055H14.0566L44.4512 317.07H239.689Z" fill="#FDE01B" stroke="#F27500" stroke-width="3"/>
<path d="M52.7213 280.839L52.5797 279.346L52.5327 282.327L52.7213 280.839ZM231.267 263.903L231.409 265.396L231.454 262.414L231.267 263.903ZM65.4472 243.029L65.2463 241.543L65.2599 244.517L65.4472 243.029ZM216.068 222.668L216.269 224.154L216.392 221.203L216.068 222.668ZM80.5841 192.703L80.4036 191.214L80.2602 194.168L80.5841 192.703ZM202.926 177.869L203.107 179.358L203.227 176.399L202.926 177.869ZM91.7417 155.095L91.4952 153.615L91.4407 156.565L91.7417 155.095ZM196.757 137.597L197.004 139.077L197.078 136.132L196.757 137.597ZM100.637 116.551L100.352 115.078L100.316 118.016L100.637 116.551ZM180.862 101.03L181.147 102.503L181.3 99.5953L180.862 101.03ZM109.921 79.4108L109.284 78.0528L109.484 80.8456L109.921 79.4108ZM169.358 51.5227L169.995 52.8806L170.033 50.1832L169.358 51.5227ZM121.978 27.6384L121.924 26.1394L121.302 28.9778L121.978 27.6384ZM163.291 26.1592L164.125 27.4057L163.237 24.6601L163.291 26.1592ZM115.032 58.461L114.198 57.2145L114.533 59.8757L115.032 58.461ZM175.939 79.9382L176.376 81.3733L176.438 78.5236L175.939 79.9382ZM104.46 101.687L104.023 100.252L104.159 103.157L104.46 101.687ZM185.275 118.201L185.598 119.666L185.575 116.732L185.275 118.201ZM93.2284 138.46L92.906 136.995L92.9675 139.937L93.2284 138.46ZM196.307 156.669L196.526 158.153L196.568 155.192L196.307 156.669ZM86.553 172.885L86.3338 171.401L86.2401 174.352L86.553 172.885ZM208.874 198.973L209.053 200.462L209.186 197.506L208.874 198.973ZM73.7959 215.252L73.6165 213.763L73.5092 216.725L73.7959 215.252ZM222.208 244.156L222.408 245.642L222.494 242.683L222.208 244.156ZM58.7188 266.146L58.5188 264.659L58.5943 267.641L58.7188 266.146ZM236.423 280.943L236.596 282.433L236.547 279.448L236.423 280.943ZM249.971 304.336L52.91 279.351L52.5327 282.327L249.594 307.312L249.971 304.336ZM52.863 282.332L231.409 265.396L231.125 262.409L52.5797 279.346L52.863 282.332ZM231.454 262.414L65.6346 241.541L65.2599 244.517L231.08 265.391L231.454 262.414ZM65.6482 244.516L216.269 224.154L215.867 221.181L65.2463 241.543L65.6482 244.516ZM216.392 221.203L80.908 191.238L80.2602 194.168L215.744 224.132L216.392 221.203ZM80.7647 194.192L203.107 179.358L202.745 176.38L80.4036 191.214L80.7647 194.192ZM203.227 176.399L92.0427 153.626L91.4407 156.565L202.625 179.338L203.227 176.399ZM91.9882 156.575L197.004 139.077L196.511 136.118L91.4952 153.615L91.9882 156.575ZM197.078 136.132L100.957 115.085L100.316 118.016L196.437 139.063L197.078 136.132ZM100.921 118.023L181.147 102.503L180.578 99.5575L100.352 115.078L100.921 118.023ZM181.3 99.5953L110.359 77.9759L109.484 80.8456L180.425 102.465L181.3 99.5953ZM110.559 80.7687L169.995 52.8806L168.721 50.1647L109.284 78.0528L110.559 80.7687ZM170.033 50.1832L122.653 26.299L121.302 28.9778L168.683 52.8621L170.033 50.1832ZM122.031 29.1374L163.344 27.6582L163.237 24.6601L121.924 26.1394L122.031 29.1374ZM162.456 24.9127L114.198 57.2145L115.866 59.7076L164.125 27.4057L162.456 24.9127ZM114.533 59.8757L175.44 81.3529L176.438 78.5236L115.531 57.0464L114.533 59.8757ZM175.503 78.5032L104.023 100.252L104.896 103.122L176.376 81.3733L175.503 78.5032ZM104.159 103.157L184.975 119.671L185.575 116.732L104.76 100.217L104.159 103.157ZM184.953 116.736L92.906 136.995L93.5508 139.925L185.598 119.666L184.953 116.736ZM92.9675 139.937L196.046 158.146L196.568 155.192L93.4894 136.983L92.9675 139.937ZM196.088 155.185L86.3338 171.401L86.7723 174.369L196.526 158.153L196.088 155.185ZM86.2401 174.352L208.561 200.44L209.186 197.506L86.8659 171.418L86.2401 174.352ZM208.694 197.484L73.6165 213.763L73.9754 216.742L209.053 200.462L208.694 197.484ZM73.5092 216.725L221.921 245.628L222.494 242.683L74.0827 213.78L73.5092 216.725ZM222.008 242.669L58.5188 264.659L58.9187 267.632L222.408 245.642L222.008 242.669ZM58.5943 267.641L236.298 282.438L236.547 279.448L58.8432 264.651L58.5943 267.641ZM236.25 279.453L41.0596 302.089L41.4052 305.069L236.596 282.433L236.25 279.453Z" fill="#F27500"/>
<defs>
<filter id="filter0_d" x="52.5469" y="290.531" width="31.5821" height="12.9041" filterUnits="userSpaceOnUse" color-interpolation-filters="sRGB">
<feFlood flood-opacity="0" result="BackgroundImageFix"/>
<feColorMatrix in="SourceAlpha" type="matrix" values="0 0 0 0 0 0 0 0 0 0 0 0 0 0 0 0 0 0 127 0"/>
<feOffset/>
<feGaussianBlur stdDeviation="3"/>
<feColorMatrix type="matrix" values="0 0 0 0 0 0 0 0 0 0 0 0 0 0 0 0 0 0 0.25 0"/>
<feBlend mode="normal" in2="BackgroundImageFix" result="effect1_dropShadow"/>
<feBlend mode="normal" in="SourceGraphic" in2="effect1_dropShadow" result="shape"/>
</filter>
<filter id="filter1_d" x="52.5879" y="289.374" width="31.5825" height="13.4274" filterUnits="userSpaceOnUse" color-interpolation-filters="sRGB">
<feFlood flood-opacity="0" result="BackgroundImageFix"/>
<feColorMatrix in="SourceAlpha" type="matrix" values="0 0 0 0 0 0 0 0 0 0 0 0 0 0 0 0 0 0 127 0"/>
<feOffset/>
<feGaussianBlur stdDeviation="3"/>
<feColorMatrix type="matrix" values="0 0 0 0 0 0 0 0 0 0 0 0 0 0 0 0 0 0 0.25 0"/>
<feBlend mode="normal" in2="BackgroundImageFix" result="effect1_dropShadow"/>
<feBlend mode="normal" in="SourceGraphic" in2="effect1_dropShadow" result="shape"/>
</filter>
<filter id="filter2_d" x="37.4512" y="322.086" width="31.5821" height="12.9041" filterUnits="userSpaceOnUse" color-interpolation-filters="sRGB">
<feFlood flood-opacity="0" result="BackgroundImageFix"/>
<feColorMatrix in="SourceAlpha" type="matrix" values="0 0 0 0 0 0 0 0 0 0 0 0 0 0 0 0 0 0 127 0"/>
<feOffset/>
<feGaussianBlur stdDeviation="3"/>
<feColorMatrix type="matrix" values="0 0 0 0 0 0 0 0 0 0 0 0 0 0 0 0 0 0 0.25 0"/>
<feBlend mode="normal" in2="BackgroundImageFix" result="effect1_dropShadow"/>
<feBlend mode="normal" in="SourceGraphic" in2="effect1_dropShadow" result="shape"/>
</filter>
<filter id="filter3_d" x="37.4922" y="320.929" width="31.5825" height="13.4274" filterUnits="userSpaceOnUse" color-interpolation-filters="sRGB">
<feFlood flood-opacity="0" result="BackgroundImageFix"/>
<feColorMatrix in="SourceAlpha" type="matrix" values="0 0 0 0 0 0 0 0 0 0 0 0 0 0 0 0 0 0 127 0"/>
<feOffset/>
<feGaussianBlur stdDeviation="3"/>
<feColorMatrix type="matrix" values="0 0 0 0 0 0 0 0 0 0 0 0 0 0 0 0 0 0 0.25 0"/>
<feBlend mode="normal" in2="BackgroundImageFix" result="effect1_dropShadow"/>
<feBlend mode="normal" in="SourceGraphic" in2="effect1_dropShadow" result="shape"/>
</filter>
<filter id="filter4_d" x="27.5176" y="311.693" width="46.8481" height="13.6089" filterUnits="userSpaceOnUse" color-interpolation-filters="sRGB">
<feFlood flood-opacity="0" result="BackgroundImageFix"/>
<feColorMatrix in="SourceAlpha" type="matrix" values="0 0 0 0 0 0 0 0 0 0 0 0 0 0 0 0 0 0 127 0"/>
<feOffset/>
<feGaussianBlur stdDeviation="3"/>
<feColorMatrix type="matrix" values="0 0 0 0 0 0 0 0 0 0 0 0 0 0 0 0 0 0 0.25 0"/>
<feBlend mode="normal" in2="BackgroundImageFix" result="effect1_dropShadow"/>
<feBlend mode="normal" in="SourceGraphic" in2="effect1_dropShadow" result="shape"/>
</filter>
<filter id="filter5_d" x="27.5039" y="309.634" width="46.8488" height="14.5402" filterUnits="userSpaceOnUse" color-interpolation-filters="sRGB">
<feFlood flood-opacity="0" result="BackgroundImageFix"/>
<feColorMatrix in="SourceAlpha" type="matrix" values="0 0 0 0 0 0 0 0 0 0 0 0 0 0 0 0 0 0 127 0"/>
<feOffset/>
<feGaussianBlur stdDeviation="3"/>
<feColorMatrix type="matrix" values="0 0 0 0 0 0 0 0 0 0 0 0 0 0 0 0 0 0 0.25 0"/>
<feBlend mode="normal" in2="BackgroundImageFix" result="effect1_dropShadow"/>
<feBlend mode="normal" in="SourceGraphic" in2="effect1_dropShadow" result="shape"/>
</filter>
<filter id="filter6_d" x="0.574219" y="367.852" width="46.8481" height="13.6089" filterUnits="userSpaceOnUse" color-interpolation-filters="sRGB">
<feFlood flood-opacity="0" result="BackgroundImageFix"/>
<feColorMatrix in="SourceAlpha" type="matrix" values="0 0 0 0 0 0 0 0 0 0 0 0 0 0 0 0 0 0 127 0"/>
<feOffset/>
<feGaussianBlur stdDeviation="3"/>
<feColorMatrix type="matrix" values="0 0 0 0 0 0 0 0 0 0 0 0 0 0 0 0 0 0 0.25 0"/>
<feBlend mode="normal" in2="BackgroundImageFix" result="effect1_dropShadow"/>
<feBlend mode="normal" in="SourceGraphic" in2="effect1_dropShadow" result="shape"/>
</filter>
<filter id="filter7_d" x="0.650391" y="365.792" width="46.8488" height="14.5402" filterUnits="userSpaceOnUse" color-interpolation-filters="sRGB">
<feFlood flood-opacity="0" result="BackgroundImageFix"/>
<feColorMatrix in="SourceAlpha" type="matrix" values="0 0 0 0 0 0 0 0 0 0 0 0 0 0 0 0 0 0 127 0"/>
<feOffset/>
<feGaussianBlur stdDeviation="3"/>
<feColorMatrix type="matrix" values="0 0 0 0 0 0 0 0 0 0 0 0 0 0 0 0 0 0 0.25 0"/>
<feBlend mode="normal" in2="BackgroundImageFix" result="effect1_dropShadow"/>
<feBlend mode="normal" in="SourceGraphic" in2="effect1_dropShadow" result="shape"/>
</filter>
<filter id="filter8_d" x="228.365" y="321.452" width="31.5821" height="12.9041" filterUnits="userSpaceOnUse" color-interpolation-filters="sRGB">
<feFlood flood-opacity="0" result="BackgroundImageFix"/>
<feColorMatrix in="SourceAlpha" type="matrix" values="0 0 0 0 0 0 0 0 0 0 0 0 0 0 0 0 0 0 127 0"/>
<feOffset/>
<feGaussianBlur stdDeviation="3"/>
<feColorMatrix type="matrix" values="0 0 0 0 0 0 0 0 0 0 0 0 0 0 0 0 0 0 0.25 0"/>
<feBlend mode="normal" in2="BackgroundImageFix" result="effect1_dropShadow"/>
<feBlend mode="normal" in="SourceGraphic" in2="effect1_dropShadow" result="shape"/>
</filter>
<filter id="filter9_d" x="228.406" y="322.086" width="31.5825" height="13.4274" filterUnits="userSpaceOnUse" color-interpolation-filters="sRGB">
<feFlood flood-opacity="0" result="BackgroundImageFix"/>
<feColorMatrix in="SourceAlpha" type="matrix" values="0 0 0 0 0 0 0 0 0 0 0 0 0 0 0 0 0 0 127 0"/>
<feOffset/>
<feGaussianBlur stdDeviation="3"/>
<feColorMatrix type="matrix" values="0 0 0 0 0 0 0 0 0 0 0 0 0 0 0 0 0 0 0.25 0"/>
<feBlend mode="normal" in2="BackgroundImageFix" result="effect1_dropShadow"/>
<feBlend mode="normal" in="SourceGraphic" in2="effect1_dropShadow" result="shape"/>
</filter>
<filter id="filter10_d" x="213.27" y="289.896" width="31.5821" height="12.9041" filterUnits="userSpaceOnUse" color-interpolation-filters="sRGB">
<feFlood flood-opacity="0" result="BackgroundImageFix"/>
<feColorMatrix in="SourceAlpha" type="matrix" values="0 0 0 0 0 0 0 0 0 0 0 0 0 0 0 0 0 0 127 0"/>
<feOffset/>
<feGaussianBlur stdDeviation="3"/>
<feColorMatrix type="matrix" values="0 0 0 0 0 0 0 0 0 0 0 0 0 0 0 0 0 0 0.25 0"/>
<feBlend mode="normal" in2="BackgroundImageFix" result="effect1_dropShadow"/>
<feBlend mode="normal" in="SourceGraphic" in2="effect1_dropShadow" result="shape"/>
</filter>
<filter id="filter11_d" x="213.311" y="290.53" width="31.5825" height="13.4274" filterUnits="userSpaceOnUse" color-interpolation-filters="sRGB">
<feFlood flood-opacity="0" result="BackgroundImageFix"/>
<feColorMatrix in="SourceAlpha" type="matrix" values="0 0 0 0 0 0 0 0 0 0 0 0 0 0 0 0 0 0 127 0"/>
<feOffset/>
<feGaussianBlur stdDeviation="3"/>
<feColorMatrix type="matrix" values="0 0 0 0 0 0 0 0 0 0 0 0 0 0 0 0 0 0 0.25 0"/>
<feBlend mode="normal" in2="BackgroundImageFix" result="effect1_dropShadow"/>
<feBlend mode="normal" in="SourceGraphic" in2="effect1_dropShadow" result="shape"/>
</filter>
<filter id="filter12_d" x="243.129" y="365.739" width="46.8481" height="13.6089" filterUnits="userSpaceOnUse" color-interpolation-filters="sRGB">
<feFlood flood-opacity="0" result="BackgroundImageFix"/>
<feColorMatrix in="SourceAlpha" type="matrix" values="0 0 0 0 0 0 0 0 0 0 0 0 0 0 0 0 0 0 127 0"/>
<feOffset/>
<feGaussianBlur stdDeviation="3"/>
<feColorMatrix type="matrix" values="0 0 0 0 0 0 0 0 0 0 0 0 0 0 0 0 0 0 0.25 0"/>
<feBlend mode="normal" in2="BackgroundImageFix" result="effect1_dropShadow"/>
<feBlend mode="normal" in="SourceGraphic" in2="effect1_dropShadow" result="shape"/>
</filter>
<filter id="filter13_d" x="243.205" y="366.868" width="46.8488" height="14.5402" filterUnits="userSpaceOnUse" color-interpolation-filters="sRGB">
<feFlood flood-opacity="0" result="BackgroundImageFix"/>
<feColorMatrix in="SourceAlpha" type="matrix" values="0 0 0 0 0 0 0 0 0 0 0 0 0 0 0 0 0 0 127 0"/>
<feOffset/>
<feGaussianBlur stdDeviation="3"/>
<feColorMatrix type="matrix" values="0 0 0 0 0 0 0 0 0 0 0 0 0 0 0 0 0 0 0.25 0"/>
<feBlend mode="normal" in2="BackgroundImageFix" result="effect1_dropShadow"/>
<feBlend mode="normal" in="SourceGraphic" in2="effect1_dropShadow" result="shape"/>
</filter>
<filter id="filter14_d" x="216.268" y="309.581" width="46.8481" height="13.6089" filterUnits="userSpaceOnUse" color-interpolation-filters="sRGB">
<feFlood flood-opacity="0" result="BackgroundImageFix"/>
<feColorMatrix in="SourceAlpha" type="matrix" values="0 0 0 0 0 0 0 0 0 0 0 0 0 0 0 0 0 0 127 0"/>
<feOffset/>
<feGaussianBlur stdDeviation="3"/>
<feColorMatrix type="matrix" values="0 0 0 0 0 0 0 0 0 0 0 0 0 0 0 0 0 0 0.25 0"/>
<feBlend mode="normal" in2="BackgroundImageFix" result="effect1_dropShadow"/>
<feBlend mode="normal" in="SourceGraphic" in2="effect1_dropShadow" result="shape"/>
</filter>
<filter id="filter15_d" x="216.344" y="310.709" width="46.8488" height="14.5402" filterUnits="userSpaceOnUse" color-interpolation-filters="sRGB">
<feFlood flood-opacity="0" result="BackgroundImageFix"/>
<feColorMatrix in="SourceAlpha" type="matrix" values="0 0 0 0 0 0 0 0 0 0 0 0 0 0 0 0 0 0 127 0"/>
<feOffset/>
<feGaussianBlur stdDeviation="3"/>
<feColorMatrix type="matrix" values="0 0 0 0 0 0 0 0 0 0 0 0 0 0 0 0 0 0 0.25 0"/>
<feBlend mode="normal" in2="BackgroundImageFix" result="effect1_dropShadow"/>
<feBlend mode="normal" in="SourceGraphic" in2="effect1_dropShadow" result="shape"/>
</filter>
<filter id="filter16_d" x="75.1289" y="244.219" width="26.494" height="12.6692" filterUnits="userSpaceOnUse" color-interpolation-filters="sRGB">
<feFlood flood-opacity="0" result="BackgroundImageFix"/>
<feColorMatrix in="SourceAlpha" type="matrix" values="0 0 0 0 0 0 0 0 0 0 0 0 0 0 0 0 0 0 127 0"/>
<feOffset/>
<feGaussianBlur stdDeviation="3"/>
<feColorMatrix type="matrix" values="0 0 0 0 0 0 0 0 0 0 0 0 0 0 0 0 0 0 0.25 0"/>
<feBlend mode="normal" in2="BackgroundImageFix" result="effect1_dropShadow"/>
<feBlend mode="normal" in="SourceGraphic" in2="effect1_dropShadow" result="shape"/>
</filter>
<filter id="filter17_d" x="75.1562" y="243.362" width="26.4943" height="13.0565" filterUnits="userSpaceOnUse" color-interpolation-filters="sRGB">
<feFlood flood-opacity="0" result="BackgroundImageFix"/>
<feColorMatrix in="SourceAlpha" type="matrix" values="0 0 0 0 0 0 0 0 0 0 0 0 0 0 0 0 0 0 127 0"/>
<feOffset/>
<feGaussianBlur stdDeviation="3"/>
<feColorMatrix type="matrix" values="0 0 0 0 0 0 0 0 0 0 0 0 0 0 0 0 0 0 0.25 0"/>
<feBlend mode="normal" in2="BackgroundImageFix" result="effect1_dropShadow"/>
<feBlend mode="normal" in="SourceGraphic" in2="effect1_dropShadow" result="shape"/>
</filter>
<filter id="filter18_d" x="63.9551" y="267.577" width="26.494" height="12.6692" filterUnits="userSpaceOnUse" color-interpolation-filters="sRGB">
<feFlood flood-opacity="0" result="BackgroundImageFix"/>
<feColorMatrix in="SourceAlpha" type="matrix" values="0 0 0 0 0 0 0 0 0 0 0 0 0 0 0 0 0 0 127 0"/>
<feOffset/>
<feGaussianBlur stdDeviation="3"/>
<feColorMatrix type="matrix" values="0 0 0 0 0 0 0 0 0 0 0 0 0 0 0 0 0 0 0.25 0"/>
<feBlend mode="normal" in2="BackgroundImageFix" result="effect1_dropShadow"/>
<feBlend mode="normal" in="SourceGraphic" in2="effect1_dropShadow" result="shape"/>
</filter>
<filter id="filter19_d" x="63.9824" y="266.719" width="26.4943" height="13.0565" filterUnits="userSpaceOnUse" color-interpolation-filters="sRGB">
<feFlood flood-opacity="0" result="BackgroundImageFix"/>
<feColorMatrix in="SourceAlpha" type="matrix" values="0 0 0 0 0 0 0 0 0 0 0 0 0 0 0 0 0 0 127 0"/>
<feOffset/>
<feGaussianBlur stdDeviation="3"/>
<feColorMatrix type="matrix" values="0 0 0 0 0 0 0 0 0 0 0 0 0 0 0 0 0 0 0.25 0"/>
<feBlend mode="normal" in2="BackgroundImageFix" result="effect1_dropShadow"/>
<feBlend mode="normal" in="SourceGraphic" in2="effect1_dropShadow" result="shape"/>
</filter>
<filter id="filter20_d" x="52.7285" y="260.196" width="38.3653" height="13.2172" filterUnits="userSpaceOnUse" color-interpolation-filters="sRGB">
<feFlood flood-opacity="0" result="BackgroundImageFix"/>
<feColorMatrix in="SourceAlpha" type="matrix" values="0 0 0 0 0 0 0 0 0 0 0 0 0 0 0 0 0 0 127 0"/>
<feOffset/>
<feGaussianBlur stdDeviation="3"/>
<feColorMatrix type="matrix" values="0 0 0 0 0 0 0 0 0 0 0 0 0 0 0 0 0 0 0.25 0"/>
<feBlend mode="normal" in2="BackgroundImageFix" result="effect1_dropShadow"/>
<feBlend mode="normal" in="SourceGraphic" in2="effect1_dropShadow" result="shape"/>
</filter>
<filter id="filter21_d" x="52.7832" y="258.632" width="38.3658" height="13.9218" filterUnits="userSpaceOnUse" color-interpolation-filters="sRGB">
<feFlood flood-opacity="0" result="BackgroundImageFix"/>
<feColorMatrix in="SourceAlpha" type="matrix" values="0 0 0 0 0 0 0 0 0 0 0 0 0 0 0 0 0 0 127 0"/>
<feOffset/>
<feGaussianBlur stdDeviation="3"/>
<feColorMatrix type="matrix" values="0 0 0 0 0 0 0 0 0 0 0 0 0 0 0 0 0 0 0.25 0"/>
<feBlend mode="normal" in2="BackgroundImageFix" result="effect1_dropShadow"/>
<feBlend mode="normal" in="SourceGraphic" in2="effect1_dropShadow" result="shape"/>
</filter>
<filter id="filter22_d" x="31.2734" y="302.218" width="38.3653" height="13.2172" filterUnits="userSpaceOnUse" color-interpolation-filters="sRGB">
<feFlood flood-opacity="0" result="BackgroundImageFix"/>
<feColorMatrix in="SourceAlpha" type="matrix" values="0 0 0 0 0 0 0 0 0 0 0 0 0 0 0 0 0 0 127 0"/>
<feOffset/>
<feGaussianBlur stdDeviation="3"/>
<feColorMatrix type="matrix" values="0 0 0 0 0 0 0 0 0 0 0 0 0 0 0 0 0 0 0.25 0"/>
<feBlend mode="normal" in2="BackgroundImageFix" result="effect1_dropShadow"/>
<feBlend mode="normal" in="SourceGraphic" in2="effect1_dropShadow" result="shape"/>
</filter>
<filter id="filter23_d" x="31.3281" y="300.657" width="38.3658" height="13.9218" filterUnits="userSpaceOnUse" color-interpolation-filters="sRGB">
<feFlood flood-opacity="0" result="BackgroundImageFix"/>
<feColorMatrix in="SourceAlpha" type="matrix" values="0 0 0 0 0 0 0 0 0 0 0 0 0 0 0 0 0 0 127 0"/>
<feOffset/>
<feGaussianBlur stdDeviation="3"/>
<feColorMatrix type="matrix" values="0 0 0 0 0 0 0 0 0 0 0 0 0 0 0 0 0 0 0.25 0"/>
<feBlend mode="normal" in2="BackgroundImageFix" result="effect1_dropShadow"/>
<feBlend mode="normal" in="SourceGraphic" in2="effect1_dropShadow" result="shape"/>
</filter>
<filter id="filter24_d" x="205.266" y="267.109" width="26.494" height="12.6692" filterUnits="userSpaceOnUse" color-interpolation-filters="sRGB">
<feFlood flood-opacity="0" result="BackgroundImageFix"/>
<feColorMatrix in="SourceAlpha" type="matrix" values="0 0 0 0 0 0 0 0 0 0 0 0 0 0 0 0 0 0 127 0"/>
<feOffset/>
<feGaussianBlur stdDeviation="3"/>
<feColorMatrix type="matrix" values="0 0 0 0 0 0 0 0 0 0 0 0 0 0 0 0 0 0 0.25 0"/>
<feBlend mode="normal" in2="BackgroundImageFix" result="effect1_dropShadow"/>
<feBlend mode="normal" in="SourceGraphic" in2="effect1_dropShadow" result="shape"/>
</filter>
<filter id="filter25_d" x="205.293" y="267.579" width="26.4943" height="13.0565" filterUnits="userSpaceOnUse" color-interpolation-filters="sRGB">
<feFlood flood-opacity="0" result="BackgroundImageFix"/>
<feColorMatrix in="SourceAlpha" type="matrix" values="0 0 0 0 0 0 0 0 0 0 0 0 0 0 0 0 0 0 127 0"/>
<feOffset/>
<feGaussianBlur stdDeviation="3"/>
<feColorMatrix type="matrix" values="0 0 0 0 0 0 0 0 0 0 0 0 0 0 0 0 0 0 0.25 0"/>
<feBlend mode="normal" in2="BackgroundImageFix" result="effect1_dropShadow"/>
<feBlend mode="normal" in="SourceGraphic" in2="effect1_dropShadow" result="shape"/>
</filter>
<filter id="filter26_d" x="194.09" y="243.752" width="26.494" height="12.6692" filterUnits="userSpaceOnUse" color-interpolation-filters="sRGB">
<feFlood flood-opacity="0" result="BackgroundImageFix"/>
<feColorMatrix in="SourceAlpha" type="matrix" values="0 0 0 0 0 0 0 0 0 0 0 0 0 0 0 0 0 0 127 0"/>
<feOffset/>
<feGaussianBlur stdDeviation="3"/>
<feColorMatrix type="matrix" values="0 0 0 0 0 0 0 0 0 0 0 0 0 0 0 0 0 0 0.25 0"/>
<feBlend mode="normal" in2="BackgroundImageFix" result="effect1_dropShadow"/>
<feBlend mode="normal" in="SourceGraphic" in2="effect1_dropShadow" result="shape"/>
</filter>
<filter id="filter27_d" x="194.117" y="244.223" width="26.4943" height="13.0565" filterUnits="userSpaceOnUse" color-interpolation-filters="sRGB">
<feFlood flood-opacity="0" result="BackgroundImageFix"/>
<feColorMatrix in="SourceAlpha" type="matrix" values="0 0 0 0 0 0 0 0 0 0 0 0 0 0 0 0 0 0 127 0"/>
<feOffset/>
<feGaussianBlur stdDeviation="3"/>
<feColorMatrix type="matrix" values="0 0 0 0 0 0 0 0 0 0 0 0 0 0 0 0 0 0 0.25 0"/>
<feBlend mode="normal" in2="BackgroundImageFix" result="effect1_dropShadow"/>
<feBlend mode="normal" in="SourceGraphic" in2="effect1_dropShadow" result="shape"/>
</filter>
<filter id="filter28_d" x="220.041" y="300.722" width="38.41" height="13.2193" filterUnits="userSpaceOnUse" color-interpolation-filters="sRGB">
<feFlood flood-opacity="0" result="BackgroundImageFix"/>
<feColorMatrix in="SourceAlpha" type="matrix" values="0 0 0 0 0 0 0 0 0 0 0 0 0 0 0 0 0 0 127 0"/>
<feOffset/>
<feGaussianBlur stdDeviation="3"/>
<feColorMatrix type="matrix" values="0 0 0 0 0 0 0 0 0 0 0 0 0 0 0 0 0 0 0.25 0"/>
<feBlend mode="normal" in2="BackgroundImageFix" result="effect1_dropShadow"/>
<feBlend mode="normal" in="SourceGraphic" in2="effect1_dropShadow" result="shape"/>
</filter>
<filter id="filter29_d" x="220.094" y="301.578" width="38.4105" height="13.9251" filterUnits="userSpaceOnUse" color-interpolation-filters="sRGB">
<feFlood flood-opacity="0" result="BackgroundImageFix"/>
<feColorMatrix in="SourceAlpha" type="matrix" values="0 0 0 0 0 0 0 0 0 0 0 0 0 0 0 0 0 0 127 0"/>
<feOffset/>
<feGaussianBlur stdDeviation="3"/>
<feColorMatrix type="matrix" values="0 0 0 0 0 0 0 0 0 0 0 0 0 0 0 0 0 0 0.25 0"/>
<feBlend mode="normal" in2="BackgroundImageFix" result="effect1_dropShadow"/>
<feBlend mode="normal" in="SourceGraphic" in2="effect1_dropShadow" result="shape"/>
</filter>
<filter id="filter30_d" x="199.609" y="258.163" width="38.41" height="13.2193" filterUnits="userSpaceOnUse" color-interpolation-filters="sRGB">
<feFlood flood-opacity="0" result="BackgroundImageFix"/>
<feColorMatrix in="SourceAlpha" type="matrix" values="0 0 0 0 0 0 0 0 0 0 0 0 0 0 0 0 0 0 127 0"/>
<feOffset/>
<feGaussianBlur stdDeviation="3"/>
<feColorMatrix type="matrix" values="0 0 0 0 0 0 0 0 0 0 0 0 0 0 0 0 0 0 0.25 0"/>
<feBlend mode="normal" in2="BackgroundImageFix" result="effect1_dropShadow"/>
<feBlend mode="normal" in="SourceGraphic" in2="effect1_dropShadow" result="shape"/>
</filter>
<filter id="filter31_d" x="199.602" y="259.285" width="38.4105" height="13.9251" filterUnits="userSpaceOnUse" color-interpolation-filters="sRGB">
<feFlood flood-opacity="0" result="BackgroundImageFix"/>
<feColorMatrix in="SourceAlpha" type="matrix" values="0 0 0 0 0 0 0 0 0 0 0 0 0 0 0 0 0 0 127 0"/>
<feOffset/>
<feGaussianBlur stdDeviation="3"/>
<feColorMatrix type="matrix" values="0 0 0 0 0 0 0 0 0 0 0 0 0 0 0 0 0 0 0.25 0"/>
<feBlend mode="normal" in2="BackgroundImageFix" result="effect1_dropShadow"/>
<feBlend mode="normal" in="SourceGraphic" in2="effect1_dropShadow" result="shape"/>
</filter>
<filter id="filter32_d" x="159.98" y="140.985" width="39.0288" height="5.65989" filterUnits="userSpaceOnUse" color-interpolation-filters="sRGB">
<feFlood flood-opacity="0" result="BackgroundImageFix"/>
<feColorMatrix in="SourceAlpha" type="matrix" values="0 0 0 0 0 0 0 0 0 0 0 0 0 0 0 0 0 0 127 0"/>
<feOffset/>
<feGaussianBlur stdDeviation="1"/>
<feColorMatrix type="matrix" values="0 0 0 0 0 0 0 0 0 0 0 0 0 0 0 0 0 0 0.25 0"/>
<feBlend mode="normal" in2="BackgroundImageFix" result="effect1_dropShadow"/>
<feBlend mode="normal" in="SourceGraphic" in2="effect1_dropShadow" result="shape"/>
</filter>
<filter id="filter33_d" x="159.924" y="137.627" width="39.0499" height="7.4463" filterUnits="userSpaceOnUse" color-interpolation-filters="sRGB">
<feFlood flood-opacity="0" result="BackgroundImageFix"/>
<feColorMatrix in="SourceAlpha" type="matrix" values="0 0 0 0 0 0 0 0 0 0 0 0 0 0 0 0 0 0 127 0"/>
<feOffset/>
<feGaussianBlur stdDeviation="1"/>
<feColorMatrix type="matrix" values="0 0 0 0 0 0 0 0 0 0 0 0 0 0 0 0 0 0 0.25 0"/>
<feBlend mode="normal" in2="BackgroundImageFix" result="effect1_dropShadow"/>
<feBlend mode="normal" in="SourceGraphic" in2="effect1_dropShadow" result="shape"/>
</filter>
<filter id="filter34_d" x="194.307" y="253.687" width="39.03" height="5.63537" filterUnits="userSpaceOnUse" color-interpolation-filters="sRGB">
<feFlood flood-opacity="0" result="BackgroundImageFix"/>
<feColorMatrix in="SourceAlpha" type="matrix" values="0 0 0 0 0 0 0 0 0 0 0 0 0 0 0 0 0 0 127 0"/>
<feOffset/>
<feGaussianBlur stdDeviation="1"/>
<feColorMatrix type="matrix" values="0 0 0 0 0 0 0 0 0 0 0 0 0 0 0 0 0 0 0.25 0"/>
<feBlend mode="normal" in2="BackgroundImageFix" result="effect1_dropShadow"/>
<feBlend mode="normal" in="SourceGraphic" in2="effect1_dropShadow" result="shape"/>
</filter>
<filter id="filter35_d" x="194.312" y="254.85" width="39.0424" height="6.59259" filterUnits="userSpaceOnUse" color-interpolation-filters="sRGB">
<feFlood flood-opacity="0" result="BackgroundImageFix"/>
<feColorMatrix in="SourceAlpha" type="matrix" values="0 0 0 0 0 0 0 0 0 0 0 0 0 0 0 0 0 0 127 0"/>
<feOffset/>
<feGaussianBlur stdDeviation="1"/>
<feColorMatrix type="matrix" values="0 0 0 0 0 0 0 0 0 0 0 0 0 0 0 0 0 0 0.25 0"/>
<feBlend mode="normal" in2="BackgroundImageFix" result="effect1_dropShadow"/>
<feBlend mode="normal" in="SourceGraphic" in2="effect1_dropShadow" result="shape"/>
</filter>
</defs>
</svg>
