<svg width="146" height="363" viewBox="0 0 146 363" fill="none" xmlns="http://www.w3.org/2000/svg">
<path d="M96.001 19.3425C96.001 9.26019 104.156 1 114.38 1C124.483 1 132.759 9.26019 132.759 19.3425V41.5L96.001 41.4984V19.3425Z" fill="#F27500"/>
<path d="M99.1323 18.3425C99.1323 8.26019 107.287 0 117.511 0C127.614 0 135.891 8.26019 135.891 18.3425V41.5H99.1323V18.3425Z" fill="#FDE01B"/>
<path d="M96.001 343.158C96.001 353.24 104.156 361.5 114.38 361.5C124.483 361.5 132.759 353.24 132.759 343.158V321L96.001 321.002V343.158Z" fill="#F27500"/>
<path d="M99.1323 344.158C99.1323 354.24 107.287 362.5 117.511 362.5C127.614 362.5 135.891 354.24 135.891 344.158V321H99.1323V344.158Z" fill="#FDE01B"/>
<path d="M96.001 183.003V225.503H132.759V183.003H96.001Z" fill="#F27500"/>
<path d="M96.001 137.003V179.503H132.759V137.003H96.001Z" fill="#F27500"/>
<path d="M96.001 90.9995V133.5H132.759V90.9995H96.001Z" fill="#F27500"/>
<path d="M99.1763 183.003V225.503H135.935V183.003H99.1763Z" fill="#FDE01B"/>
<path d="M96.001 229V271.5H132.759V229H96.001Z" fill="#F27500"/>
<path d="M96.001 275V317.5H132.759V275H96.001Z" fill="#F27500"/>
<path d="M99.1763 229V271.5H135.935V229H99.1763Z" fill="#FDE01B"/>
<path d="M99.1763 275V317.5H135.935V275H99.1763Z" fill="#FDE01B"/>
<path d="M99.1763 137.003V179.503H135.935V137.003H99.1763Z" fill="#FDE01B"/>
<path d="M99.1763 90.9995V133.5H135.935V90.9995H99.1763Z" fill="#FDE01B"/>
<path d="M96.001 45V87.5H132.759V45H96.001Z" fill="#F27500"/>
<path d="M99.1763 45V87.5H135.935V45H99.1763Z" fill="#FDE01B"/>
<path d="M69.1656 193.286C70.9575 193.836 70.9516 192.856 71.272 192.767L38.7832 178.518C36.0129 178.998 34.034 179.591 34.034 179.591L34.483 182.709C34.483 182.709 67.3738 192.737 69.1656 193.286Z" fill="#4A64AE"/>
<path d="M68.4833 170.859C70.2416 170.21 70.2905 171.189 70.6154 171.259L38.9742 187.303C36.1814 186.978 34.1724 186.497 34.1724 186.497L34.4464 183.359C34.4464 183.359 66.725 171.508 68.4833 170.859Z" fill="#4A64AE"/>
<path d="M8.35393 177.548C14.335 177.513 34.885 182.71 35.3256 182.886C38.0616 181.377 40.28 178.427 40.28 178.427C30.9873 175.221 24.1659 169.74 21.25 167.052C20.5969 166.448 19.5994 165.18 18.9463 164.575C16.8268 162.67 10.6407 157.433 4.29377 163.221C-1.24839 168.247 2.96004 173.865 4.93151 176.069C5.47019 176.651 7.55337 177.538 8.35393 177.548ZM9.12885 176.186C5.13469 174.741 2.9594 170.715 4.22172 167.19C5.51264 163.67 9.76924 161.986 13.7634 163.431C17.7576 164.875 19.9328 168.902 18.6705 172.427C17.3796 175.946 13.123 177.63 9.12885 176.186Z" fill="#EA2254"/>
<path d="M20.5535 200.662C21.145 200.071 22.0363 198.846 22.6279 198.255C25.2695 195.629 31.4776 190.242 40.0862 186.902C40.0862 186.902 37.8662 184.192 35.2776 182.893C34.8702 183.074 15.7657 188.682 10.1504 188.861C9.3993 188.899 7.46913 189.779 6.99051 190.372C5.1916 192.516 1.46755 197.933 6.84813 202.453C13.0111 207.661 18.6317 202.526 20.5535 200.662ZM7.46329 200.421C5.47811 197.515 6.57021 193.343 9.83832 191.103C13.1331 188.856 17.4045 189.418 19.363 192.331C21.3482 195.237 20.2561 199.41 16.9879 201.649C13.6932 203.896 9.42182 203.334 7.46329 200.421Z" fill="#EA2254"/>
<path d="M43.5005 184C44.3289 184 45.0005 183.328 45.0005 182.5C45.0005 181.672 44.3289 181 43.5005 181C42.6721 181 42.0005 181.672 42.0005 182.5C42.0005 183.328 42.6721 184 43.5005 184Z" fill="#3850A2"/>
<path d="M87.001 181.34L142.759 181.266" stroke="black" stroke-dasharray="5 5"/>
<path d="M88.001 135.34L143.759 135.266" stroke="black" stroke-dasharray="5 5"/>
<path d="M87.001 89.3398L142.759 89.266" stroke="black" stroke-dasharray="5 5"/>
<path d="M88.001 43.3398L143.759 43.266" stroke="black" stroke-dasharray="5 5"/>
<path d="M89.001 319.34L144.759 319.266" stroke="black" stroke-dasharray="5 5"/>
<path d="M88.001 273.34L143.759 273.266" stroke="black" stroke-dasharray="5 5"/>
<path d="M88.002 227.263L143.76 227.189" stroke="black" stroke-dasharray="5 5"/>
</svg>
