<svg width="496" height="429" viewBox="0 0 496 429" fill="none" xmlns="http://www.w3.org/2000/svg">
<path d="M37.5816 0.0227933L10.0938 32.4368L38.1286 56.2111L65.6165 23.7971L37.5816 0.0227933Z" fill="#F27500"/>
<path d="M40.0035 2.0765L12.5156 34.4905L40.5505 58.2648L68.0384 25.8508L40.0035 2.0765Z" fill="#FDE01B"/>
<path d="M27.5797 365.652L0.0917969 398.066L28.1267 421.84L55.6145 389.426L27.5797 365.652Z" fill="#F27500"/>
<path d="M30.0015 367.706L2.51367 400.12L30.5485 423.894L58.0364 391.48L30.0015 367.706Z" fill="#FDE01B"/>
<path d="M103.415 62.5342C104.187 62.8333 105.056 62.4494 105.355 61.6768L110.228 49.087C110.527 48.3144 110.143 47.4457 109.371 47.1467C108.598 46.8476 107.729 47.2315 107.43 48.0041L103.099 59.195L91.9079 54.8634C91.1353 54.5644 90.2666 54.9483 89.9676 55.7209C89.6685 56.4934 90.0524 57.3622 90.825 57.6612L103.415 62.5342ZM68.093 33.7906C68.0736 35.2904 68.0729 35.2904 68.0722 35.2904C68.0722 35.2904 68.0716 35.2904 68.0714 35.2904C68.071 35.2904 68.071 35.2904 68.0714 35.2904C68.072 35.2904 68.0742 35.2905 68.0777 35.2905C68.0847 35.2907 68.0974 35.291 68.1156 35.2916C68.1521 35.2927 68.2105 35.2948 68.2899 35.2988C68.4488 35.3067 68.6913 35.3218 69.0089 35.3505C69.6442 35.408 70.5784 35.5197 71.7425 35.736C74.0721 36.1689 77.3118 37.0191 80.9147 38.6858C88.0967 42.0082 96.7752 48.5959 102.584 61.7416L105.328 60.5291C99.1902 46.6387 89.937 39.5541 82.1742 35.963C78.3047 34.173 74.8186 33.2563 72.2906 32.7865C71.0259 32.5514 69.9983 32.4278 69.2791 32.3627C68.9193 32.3302 68.6364 32.3123 68.439 32.3025C68.3404 32.2976 68.2631 32.2947 68.2083 32.293C68.1809 32.2921 68.1591 32.2916 68.143 32.2913C68.135 32.2911 68.1284 32.291 68.1233 32.2909C68.1208 32.2908 68.1186 32.2908 68.1167 32.2908C68.1158 32.2907 68.1147 32.2907 68.1143 32.2907C68.1133 32.2907 68.1123 32.2907 68.093 33.7906Z" fill="#F27500"/>
<path d="M93.6595 385.608C94.454 385.374 95.2882 385.828 95.5227 386.623L99.3438 399.571C99.5783 400.365 99.1242 401.199 98.3297 401.434C97.5351 401.668 96.7009 401.214 96.4664 400.42L93.0699 388.91L81.5607 392.307C80.7661 392.541 79.9319 392.087 79.6974 391.293C79.463 390.498 79.917 389.664 80.7115 389.43L93.6595 385.608ZM56.0933 411.35C56.1973 409.853 56.1966 409.853 56.196 409.853C56.1959 409.853 56.1953 409.853 56.1951 409.853C56.1948 409.853 56.1947 409.853 56.1951 409.853C56.1958 409.853 56.1979 409.853 56.2014 409.854C56.2084 409.854 56.2211 409.855 56.2393 409.856C56.2757 409.858 56.3341 409.86 56.4136 409.863C56.5726 409.868 56.8155 409.873 57.1344 409.87C57.7722 409.865 58.7125 409.831 59.8904 409.711C62.2478 409.471 65.5464 408.89 69.2741 407.526C76.7051 404.805 85.896 398.954 92.7665 386.33L95.4015 387.764C88.1418 401.103 78.3373 407.402 70.3055 410.343C66.3018 411.808 62.7522 412.435 60.1941 412.696C58.9143 412.826 57.8801 412.865 57.1579 412.87C56.7967 412.873 56.5132 412.868 56.3158 412.861C56.217 412.858 56.1398 412.854 56.085 412.852C56.0576 412.85 56.0359 412.849 56.0199 412.848C56.0119 412.848 56.0053 412.847 56.0002 412.847C55.9976 412.847 55.9954 412.847 55.9936 412.846C55.9927 412.846 55.9916 412.846 55.9911 412.846C55.9901 412.846 55.9892 412.846 56.0933 411.35Z" fill="#F27500"/>
<path d="M365.187 212.191C365.856 211.702 366.001 210.763 365.512 210.095L357.54 199.2C357.05 198.532 356.112 198.386 355.443 198.875C354.775 199.365 354.629 200.303 355.119 200.972L362.205 210.656L352.521 217.742C351.853 218.232 351.707 219.17 352.197 219.839C352.686 220.507 353.624 220.653 354.293 220.163L365.187 212.191ZM166.834 221.841C167.617 223.12 167.617 223.121 167.616 223.121C167.616 223.121 167.616 223.121 167.616 223.121C167.617 223.121 167.618 223.12 167.62 223.119C167.624 223.116 167.631 223.112 167.642 223.106C167.664 223.093 167.699 223.072 167.747 223.044C167.843 222.988 167.994 222.902 168.199 222.79C168.609 222.564 169.238 222.23 170.096 221.81C171.811 220.97 174.438 219.784 178.047 218.424C185.264 215.704 196.409 212.288 212.037 209.558C243.293 204.098 292.493 201.377 364.072 212.463L364.531 209.498C292.673 198.369 243.14 201.079 211.521 206.603C195.712 209.365 184.385 212.829 176.989 215.617C173.291 217.01 170.576 218.234 168.776 219.116C167.876 219.557 167.205 219.913 166.753 220.161C166.528 220.285 166.357 220.382 166.24 220.45C166.182 220.484 166.137 220.51 166.106 220.529C166.09 220.538 166.077 220.546 166.068 220.551C166.064 220.554 166.06 220.556 166.057 220.558C166.056 220.559 166.054 220.56 166.054 220.56C166.052 220.561 166.051 220.562 166.834 221.841Z" fill="#F27500"/>
<path d="M433.807 78.9264V367.854L473.307 389.117L470.565 98.9811L433.807 78.9264Z" fill="#F27500"/>
<path d="M436.84 80.5276L436.895 369.617L473.653 389.117V100.642L436.84 80.5276Z" fill="#FDE01B"/>
<path d="M440.414 82.2743V371.411L479.914 392.465L477.172 102.329L440.414 82.2743Z" fill="#F27500"/>
<path d="M443.447 83.8755L443.502 372.965L480.204 392.595L480.26 103.99L443.447 83.8755Z" fill="#FDE01B"/>
<path d="M481.898 228.398L432.57 203.398V264.898L481.898 287.398V228.398Z" fill="#E6E6E6" fill-opacity="0.5"/>
<path d="M480.26 225.994L481.89 228.391L480.26 227.581V225.994Z" fill="#C4C4C4"/>
<path d="M433.831 203.112L432.576 203.405L433.831 204.037V203.112Z" fill="#C4C4C4"/>
<g filter="url(#filter0_d)">
<rect x="426.881" y="364.154" width="65.9727" height="3" transform="rotate(28.0737 426.881 364.154)" fill="#F27500"/>
</g>
<g filter="url(#filter1_d)">
<rect x="425.818" y="366.105" width="66" height="4.76387" transform="rotate(28.0737 425.818 366.105)" fill="#FDE01B"/>
</g>
<g filter="url(#filter2_d)">
<rect x="485.936" y="107.99" width="66" height="3" transform="rotate(-151.926 485.936 107.99)" fill="#F27500"/>
</g>
<g filter="url(#filter3_d)">
<rect x="486.822" y="106.039" width="66" height="4.76387" transform="rotate(-151.926 486.822 106.039)" fill="#FDE01B"/>
</g>
<path d="M85.8652 74.9262V363.617L125.365 385.117L122.624 94.9809L85.8652 74.9262Z" fill="#F27500"/>
<path d="M88.8984 76.5273L88.9532 365.617L125.711 385.117V96.6417L88.8984 76.5273Z" fill="#FDE01B"/>
<path d="M92.4727 78.2741V366.965L131.973 388.465L129.231 98.3288L92.4727 78.2741Z" fill="#F27500"/>
<path d="M95.5059 79.8752L95.5606 368.965L132.319 388.465V99.9896L95.5059 79.8752Z" fill="#FDE01B"/>
<path d="M133.956 224.398L84.6289 199.398V260.898L133.956 283.398V224.398Z" fill="#E6E6E6" fill-opacity="0.5"/>
<path d="M132.318 221.993L133.949 224.39L132.318 223.58V221.993Z" fill="#C4C4C4"/>
<path d="M85.8901 199.111L84.6348 199.404L85.8901 200.037V199.111Z" fill="#C4C4C4"/>
<defs>
<filter id="filter0_d" x="419.469" y="358.154" width="71.6224" height="45.6942" filterUnits="userSpaceOnUse" color-interpolation-filters="sRGB">
<feFlood flood-opacity="0" result="BackgroundImageFix"/>
<feColorMatrix in="SourceAlpha" type="matrix" values="0 0 0 0 0 0 0 0 0 0 0 0 0 0 0 0 0 0 127 0"/>
<feOffset/>
<feGaussianBlur stdDeviation="3"/>
<feColorMatrix type="matrix" values="0 0 0 0 0 0 0 0 0 0 0 0 0 0 0 0 0 0 0.25 0"/>
<feBlend mode="normal" in2="BackgroundImageFix" result="effect1_dropShadow"/>
<feBlend mode="normal" in="SourceGraphic" in2="effect1_dropShadow" result="shape"/>
</filter>
<filter id="filter1_d" x="417.576" y="360.105" width="72.4766" height="47.2634" filterUnits="userSpaceOnUse" color-interpolation-filters="sRGB">
<feFlood flood-opacity="0" result="BackgroundImageFix"/>
<feColorMatrix in="SourceAlpha" type="matrix" values="0 0 0 0 0 0 0 0 0 0 0 0 0 0 0 0 0 0 127 0"/>
<feOffset/>
<feGaussianBlur stdDeviation="3"/>
<feColorMatrix type="matrix" values="0 0 0 0 0 0 0 0 0 0 0 0 0 0 0 0 0 0 0.25 0"/>
<feBlend mode="normal" in2="BackgroundImageFix" result="effect1_dropShadow"/>
<feBlend mode="normal" in="SourceGraphic" in2="effect1_dropShadow" result="shape"/>
</filter>
<filter id="filter2_d" x="421.701" y="68.2834" width="71.6465" height="45.707" filterUnits="userSpaceOnUse" color-interpolation-filters="sRGB">
<feFlood flood-opacity="0" result="BackgroundImageFix"/>
<feColorMatrix in="SourceAlpha" type="matrix" values="0 0 0 0 0 0 0 0 0 0 0 0 0 0 0 0 0 0 127 0"/>
<feOffset/>
<feGaussianBlur stdDeviation="3"/>
<feColorMatrix type="matrix" values="0 0 0 0 0 0 0 0 0 0 0 0 0 0 0 0 0 0 0.25 0"/>
<feBlend mode="normal" in2="BackgroundImageFix" result="effect1_dropShadow"/>
<feBlend mode="normal" in="SourceGraphic" in2="effect1_dropShadow" result="shape"/>
</filter>
<filter id="filter3_d" x="422.588" y="64.7756" width="72.4766" height="47.2634" filterUnits="userSpaceOnUse" color-interpolation-filters="sRGB">
<feFlood flood-opacity="0" result="BackgroundImageFix"/>
<feColorMatrix in="SourceAlpha" type="matrix" values="0 0 0 0 0 0 0 0 0 0 0 0 0 0 0 0 0 0 127 0"/>
<feOffset/>
<feGaussianBlur stdDeviation="3"/>
<feColorMatrix type="matrix" values="0 0 0 0 0 0 0 0 0 0 0 0 0 0 0 0 0 0 0.25 0"/>
<feBlend mode="normal" in2="BackgroundImageFix" result="effect1_dropShadow"/>
<feBlend mode="normal" in="SourceGraphic" in2="effect1_dropShadow" result="shape"/>
</filter>
</defs>
</svg>
