<svg width="589" height="379" viewBox="0 0 589 379" fill="none" xmlns="http://www.w3.org/2000/svg">
<path d="M83.5508 53.1215C83.5508 43.0392 91.7058 34.7791 101.93 34.7791C112.032 34.7791 120.309 43.0392 120.309 53.1215V202.279H83.5508V53.1215Z" fill="#F27500"/>
<path d="M86.6816 53.1215C86.6816 43.0392 94.8366 34.7791 105.061 34.7791C115.163 34.7791 123.44 43.0392 123.44 53.1215V202.779H86.6816V53.1215Z" fill="#FDE01B"/>
<path d="M83.5957 356.437C83.5957 366.519 91.7507 374.779 101.975 374.779C112.077 374.779 120.354 366.519 120.354 356.437V207.279H83.5957V356.437Z" fill="#F27500"/>
<path d="M86.7266 356.437C86.7266 366.519 94.8815 374.779 105.106 374.779C115.208 374.779 123.485 366.519 123.485 356.437V206.779H86.7266V356.437Z" fill="#FDE01B"/>
<path d="M69.7155 217.065C71.5073 217.615 71.5014 216.635 71.8218 216.546L39.333 202.297C36.5627 202.777 34.5838 203.37 34.5838 203.37L35.0328 206.488C35.0328 206.488 67.9236 216.516 69.7155 217.065Z" fill="#4A64AE"/>
<path d="M69.0341 194.638C70.7924 193.989 70.8413 194.968 71.1662 195.038L39.525 211.082C36.7322 210.757 34.7232 210.276 34.7232 210.276L34.9972 207.138C34.9972 207.138 67.2758 195.287 69.0341 194.638Z" fill="#4A64AE"/>
<path d="M8.90471 201.327C14.8858 201.292 35.4358 206.489 35.8764 206.665C38.6123 205.156 40.8308 202.206 40.8308 202.206C31.5381 199 24.7167 193.519 21.8008 190.831C21.1477 190.226 20.1502 188.959 19.4971 188.354C17.3776 186.449 11.1914 181.212 4.84456 187C-0.697608 192.026 3.51082 197.644 5.48229 199.847C6.02097 200.429 8.10416 201.317 8.90471 201.327ZM9.67963 199.965C5.68547 198.52 3.51018 194.493 4.7725 190.969C6.06342 187.449 10.32 185.765 14.3142 187.21C18.3083 188.654 20.4836 192.681 19.2213 196.206C17.9304 199.725 13.6738 201.409 9.67963 199.965Z" fill="#EA2254"/>
<path d="M21.1043 224.441C21.6958 223.85 22.5871 222.625 23.1787 222.034C25.8202 219.408 32.0284 214.021 40.637 210.681C40.637 210.681 38.417 207.971 35.8283 206.672C35.421 206.853 16.3165 212.461 10.7012 212.64C9.95008 212.678 8.01991 213.559 7.54129 214.151C5.74238 216.295 2.01833 221.712 7.39891 226.232C13.5619 231.44 19.1825 226.305 21.1043 224.441ZM8.01407 224.2C6.0289 221.294 7.12099 217.122 10.3891 214.882C13.6839 212.635 17.9552 213.197 19.9138 216.11C21.8989 219.016 20.8068 223.189 17.5387 225.429C14.244 227.675 9.9726 227.113 8.01407 224.2Z" fill="#EA2254"/>
<path d="M44.0508 207.779C44.8792 207.779 45.5508 207.107 45.5508 206.279C45.5508 205.451 44.8792 204.779 44.0508 204.779C43.2224 204.779 42.5508 205.451 42.5508 206.279C42.5508 207.107 43.2224 207.779 44.0508 207.779Z" fill="#3850A2"/>
<path d="M518.958 90.9431C517.167 90.3936 517.172 91.3737 516.852 91.4624L549.341 105.712C552.111 105.231 554.09 104.639 554.09 104.639L553.641 101.52C553.641 101.52 520.75 91.4926 518.958 90.9431Z" fill="#4A64AE"/>
<path d="M519.64 113.371C517.881 114.019 517.833 113.04 517.508 112.97L549.149 96.9263C551.942 97.251 553.951 97.7321 553.951 97.7321L553.677 100.87C553.677 100.87 521.398 112.722 519.64 113.371Z" fill="#4A64AE"/>
<path d="M579.769 106.681C573.788 106.716 553.238 101.52 552.797 101.343C550.061 102.853 547.843 105.802 547.843 105.802C557.136 109.008 563.957 114.49 566.873 117.177C567.526 117.782 568.524 119.049 569.177 119.654C571.296 121.56 577.482 126.796 583.829 121.008C589.371 115.982 585.163 110.364 583.192 108.161C582.653 107.579 580.57 106.691 579.769 106.681ZM578.994 108.044C582.988 109.488 585.164 113.515 583.901 117.04C582.61 120.559 578.354 122.243 574.36 120.799C570.365 119.354 568.19 115.327 569.453 111.803C570.743 108.283 575 106.599 578.994 108.044Z" fill="#EA2254"/>
<path d="M567.57 83.5674C566.978 84.1583 566.087 85.3833 565.495 85.9742C562.854 88.6002 556.645 93.9875 548.037 97.327C548.037 97.327 550.257 100.037 552.845 101.336C553.253 101.155 572.357 95.5477 577.973 95.3681C578.724 95.3305 580.654 94.4498 581.133 93.8576C582.931 91.7132 586.655 86.2967 581.275 81.7759C575.112 76.5683 569.491 81.7035 567.57 83.5674ZM580.66 83.808C582.645 86.7144 581.553 90.8865 578.285 93.1265C574.99 95.3728 570.719 94.811 568.76 91.8983C566.775 88.9919 567.867 84.8197 571.135 82.5798C574.43 80.3334 578.701 80.8953 580.66 83.808Z" fill="#EA2254"/>
<path d="M544.623 100.229C543.795 100.229 543.123 100.901 543.123 101.729C543.123 102.558 543.795 103.229 544.623 103.229C545.451 103.229 546.123 102.558 546.123 101.729C546.123 100.901 545.451 100.229 544.623 100.229Z" fill="#3850A2"/>
<path d="M498.551 165.779L495.458 45.7902L458.051 24.2791L459.051 140.279L498.551 165.779Z" fill="#F27500"/>
<path d="M498.371 165.29V45.7903L461.613 26.2903V142.29L498.371 165.29Z" fill="#FDE01B"/>
<path d="M74.5508 205.197L130.309 205.123" stroke="black" stroke-dasharray="5 5"/>
<path d="M422.464 92.6698C423.16 92.1426 423.341 91.2106 422.869 90.588L415.174 80.4429C414.702 79.8204 413.755 79.743 413.059 80.2702C412.363 80.7973 412.182 81.7294 412.654 82.3519L419.495 91.3698L409.416 99.0058C408.72 99.533 408.539 100.465 409.011 101.088C409.483 101.71 410.43 101.787 411.126 101.26L422.464 92.6698ZM169.492 129.18C170.326 130.323 170.325 130.324 170.325 130.324C170.325 130.324 170.325 130.324 170.326 130.323C170.327 130.323 170.329 130.321 170.332 130.319C170.338 130.314 170.348 130.307 170.363 130.296C170.393 130.275 170.441 130.241 170.506 130.195C170.636 130.103 170.837 129.964 171.11 129.781C171.656 129.415 172.489 128.873 173.619 128.185C175.88 126.808 179.327 124.844 184.037 122.527C193.456 117.892 207.926 111.841 228.042 106.242C268.272 95.0446 331.11 85.6464 421.323 93.0146L421.896 90.0705C331.358 82.6758 268.138 92.0962 227.497 103.408C207.178 109.064 192.509 115.19 182.898 119.92C178.093 122.284 174.553 124.299 172.204 125.73C171.03 126.445 170.153 127.015 169.566 127.409C169.272 127.606 169.05 127.759 168.899 127.865C168.824 127.918 168.766 127.959 168.726 127.988C168.706 128.002 168.69 128.014 168.679 128.022C168.674 128.026 168.669 128.029 168.666 128.032C168.664 128.033 168.662 128.034 168.661 128.035C168.66 128.036 168.659 128.037 169.492 129.18Z" fill="#F27500"/>
<path d="M415.044 273.173C415.74 272.646 415.922 271.714 415.449 271.091L407.754 260.946C407.282 260.323 406.335 260.246 405.639 260.773C404.943 261.3 404.762 262.232 405.234 262.855L412.075 271.873L401.996 279.509C401.3 280.036 401.119 280.968 401.591 281.591C402.063 282.213 403.01 282.29 403.706 281.763L415.044 273.173ZM162.072 309.683C162.906 310.826 162.905 310.826 162.905 310.827C162.905 310.827 162.905 310.827 162.906 310.826C162.907 310.826 162.909 310.824 162.912 310.822C162.918 310.817 162.929 310.81 162.944 310.799C162.973 310.777 163.021 310.744 163.086 310.698C163.216 310.606 163.417 310.467 163.69 310.284C164.236 309.918 165.069 309.376 166.2 308.688C168.46 307.311 171.908 305.347 176.617 303.029C186.036 298.395 200.506 292.344 220.622 286.745C260.852 275.548 323.691 266.149 413.903 273.517L414.476 270.573C323.938 263.179 260.718 272.599 220.077 283.911C199.758 289.567 185.089 295.693 175.478 300.423C170.673 302.787 167.133 304.802 164.784 306.232C163.61 306.948 162.734 307.517 162.146 307.912C161.852 308.109 161.63 308.262 161.479 308.368C161.404 308.421 161.346 308.462 161.306 308.491C161.286 308.505 161.27 308.517 161.259 308.525C161.254 308.529 161.249 308.532 161.246 308.535C161.244 308.536 161.242 308.537 161.241 308.538C161.24 308.539 161.239 308.54 162.072 309.683Z" fill="#F27500"/>
<path d="M83.5508 53.1215C83.5508 43.0392 91.7058 34.7791 101.93 34.7791C112.032 34.7791 120.309 43.0392 120.309 53.1215V202.279H83.5508V53.1215Z" fill="#F27500"/>
<path d="M86.6816 53.1215C86.6816 43.0392 94.8366 34.7791 105.061 34.7791C115.163 34.7791 123.44 43.0392 123.44 53.1215V202.779H86.6816V53.1215Z" fill="#FDE01B"/>
<path d="M69.7155 217.065C71.5073 217.615 71.5014 216.635 71.8218 216.546L39.333 202.297C36.5627 202.777 34.5838 203.37 34.5838 203.37L35.0328 206.488C35.0328 206.488 67.9236 216.516 69.7155 217.065Z" fill="#4A64AE"/>
<path d="M69.0341 194.638C70.7924 193.989 70.8413 194.968 71.1662 195.038L39.525 211.082C36.7322 210.757 34.7232 210.276 34.7232 210.276L34.9972 207.138C34.9972 207.138 67.2758 195.287 69.0341 194.638Z" fill="#4A64AE"/>
<path d="M8.90471 201.327C14.8858 201.292 35.4358 206.489 35.8764 206.665C38.6123 205.156 40.8308 202.206 40.8308 202.206C31.5381 199 24.7167 193.519 21.8008 190.831C21.1477 190.226 20.1502 188.959 19.4971 188.354C17.3776 186.449 11.1914 181.212 4.84456 187C-0.697608 192.026 3.51082 197.644 5.48229 199.847C6.02097 200.429 8.10416 201.317 8.90471 201.327ZM9.67963 199.965C5.68547 198.52 3.51018 194.493 4.7725 190.969C6.06342 187.449 10.32 185.765 14.3142 187.21C18.3083 188.654 20.4836 192.681 19.2213 196.206C17.9304 199.725 13.6738 201.409 9.67963 199.965Z" fill="#EA2254"/>
<path d="M21.1043 224.441C21.6958 223.85 22.5871 222.625 23.1787 222.034C25.8202 219.408 32.0284 214.021 40.637 210.681C40.637 210.681 38.417 207.971 35.8283 206.672C35.421 206.853 16.3165 212.461 10.7012 212.64C9.95008 212.678 8.01991 213.559 7.54129 214.151C5.74238 216.295 2.01833 221.712 7.39891 226.232C13.5619 231.44 19.1825 226.305 21.1043 224.441ZM8.01407 224.2C6.0289 221.294 7.12099 217.122 10.3891 214.882C13.6839 212.635 17.9552 213.197 19.9138 216.11C21.8989 219.016 20.8068 223.189 17.5387 225.429C14.244 227.675 9.9726 227.113 8.01407 224.2Z" fill="#EA2254"/>
<path d="M44.0508 207.779C44.8792 207.779 45.5508 207.107 45.5508 206.279C45.5508 205.451 44.8792 204.779 44.0508 204.779C43.2224 204.779 42.5508 205.451 42.5508 206.279C42.5508 207.107 43.2224 207.779 44.0508 207.779Z" fill="#3850A2"/>
<path d="M518.958 90.9431C517.167 90.3936 517.172 91.3737 516.852 91.4624L549.341 105.712C552.111 105.231 554.09 104.639 554.09 104.639L553.641 101.52C553.641 101.52 520.75 91.4926 518.958 90.9431Z" fill="#4A64AE"/>
<path d="M519.64 113.371C517.881 114.019 517.833 113.04 517.508 112.97L549.149 96.9263C551.942 97.251 553.951 97.7321 553.951 97.7321L553.677 100.87C553.677 100.87 521.398 112.722 519.64 113.371Z" fill="#4A64AE"/>
<path d="M579.769 106.681C573.788 106.716 553.238 101.52 552.797 101.343C550.061 102.853 547.843 105.802 547.843 105.802C557.136 109.008 563.957 114.49 566.873 117.177C567.526 117.782 568.524 119.049 569.177 119.654C571.296 121.56 577.482 126.796 583.829 121.008C589.371 115.982 585.163 110.364 583.192 108.161C582.653 107.579 580.57 106.691 579.769 106.681ZM578.994 108.044C582.988 109.488 585.164 113.515 583.901 117.04C582.61 120.559 578.354 122.243 574.36 120.799C570.365 119.354 568.19 115.327 569.453 111.803C570.743 108.283 575 106.599 578.994 108.044Z" fill="#EA2254"/>
<path d="M567.57 83.5674C566.978 84.1583 566.087 85.3833 565.495 85.9742C562.854 88.6002 556.645 93.9875 548.037 97.327C548.037 97.327 550.257 100.037 552.845 101.336C553.253 101.155 572.357 95.5477 577.973 95.3681C578.724 95.3305 580.654 94.4498 581.133 93.8576C582.931 91.7132 586.655 86.2967 581.275 81.7759C575.112 76.5683 569.491 81.7035 567.57 83.5674ZM580.66 83.808C582.645 86.7144 581.553 90.8865 578.285 93.1265C574.99 95.3728 570.719 94.811 568.76 91.8983C566.775 88.9919 567.867 84.8197 571.135 82.5798C574.43 80.3334 578.701 80.8953 580.66 83.808Z" fill="#EA2254"/>
<path d="M544.623 100.229C543.795 100.229 543.123 100.901 543.123 101.729C543.123 102.558 543.795 103.229 544.623 103.229C545.451 103.229 546.123 102.558 546.123 101.729C546.123 100.901 545.451 100.229 544.623 100.229Z" fill="#3850A2"/>
<path d="M515.958 301.607C514.167 301.058 514.172 302.038 513.852 302.127L546.341 316.376C549.111 315.896 551.09 315.303 551.09 315.303L550.641 312.185C550.641 312.185 517.75 302.157 515.958 301.607Z" fill="#4A64AE"/>
<path d="M516.64 324.035C514.881 324.684 514.833 323.705 514.508 323.634L546.149 307.591C548.942 307.915 550.951 308.396 550.951 308.396L550.677 311.535C550.677 311.535 518.398 323.386 516.64 324.035Z" fill="#4A64AE"/>
<path d="M576.769 317.345C570.788 317.38 550.238 312.184 549.797 312.008C547.061 313.517 544.843 316.466 544.843 316.466C554.136 319.673 560.957 325.154 563.873 327.841C564.526 328.446 565.524 329.714 566.177 330.318C568.296 332.224 574.482 337.461 580.829 331.673C586.371 326.647 582.163 321.029 580.192 318.825C579.653 318.243 577.57 317.355 576.769 317.345ZM575.994 318.708C579.988 320.152 582.164 324.179 580.901 327.704C579.61 331.223 575.354 332.907 571.36 331.463C567.365 330.019 565.19 325.992 566.453 322.467C567.743 318.948 572 317.264 575.994 318.708Z" fill="#EA2254"/>
<path d="M564.57 294.232C563.978 294.823 563.087 296.048 562.495 296.639C559.854 299.265 553.645 304.652 545.037 307.991C545.037 307.991 547.257 310.701 549.845 312C550.253 311.819 569.357 306.212 574.973 306.032C575.724 305.995 577.654 305.114 578.133 304.522C579.931 302.378 583.655 296.961 578.275 292.44C572.112 287.233 566.491 292.368 564.57 294.232ZM577.66 294.472C579.645 297.379 578.553 301.551 575.285 303.791C571.99 306.037 567.719 305.475 565.76 302.563C563.775 299.656 564.867 295.484 568.135 293.244C571.43 290.998 575.701 291.56 577.66 294.472Z" fill="#EA2254"/>
<path d="M541.623 310.894C540.795 310.894 540.123 311.565 540.123 312.394C540.123 313.222 540.795 313.894 541.623 313.894C542.451 313.894 543.123 313.222 543.123 312.394C543.123 311.565 542.451 310.894 541.623 310.894Z" fill="#3850A2"/>
<path d="M459.551 214.443V333.943L499.051 355.443L496.309 237.443L459.551 214.443Z" fill="#F27500"/>
<path d="M462.639 216.443V335.943L499.397 355.443V239.443L462.639 216.443Z" fill="#FDE01B"/>
<path d="M498.562 165.673L495.469 45.6838L458.062 24.1727L459.062 140.173L498.562 165.673Z" fill="#F27500"/>
<path d="M498.383 165.184V45.6838L461.625 26.1838V142.184L498.383 165.184Z" fill="#FDE01B"/>
<path d="M498.535 175.281V172.956L458.97 146.173V175.281H498.535Z" fill="#F27500"/>
<path d="M498.539 175.279L498.539 172.947L460.871 147.381V175.279H498.539Z" fill="#FDE01B"/>
<path d="M498.58 175.289V172.917L460.859 147.395V175.289H498.58Z" fill="black" fill-opacity="0.1"/>
<path d="M498.58 175.289V172.917L460.859 147.395V175.289H498.58Z" fill="black" fill-opacity="0.1"/>
<path d="M502.936 172.487L456.724 141.287" stroke="black" stroke-dasharray="5 5"/>
<path d="M460.15 204.228V206.553L499.715 233.336V204.228H460.15Z" fill="#F27500"/>
<path d="M460.147 204.229L460.146 206.561L497.814 232.127V204.229H460.147Z" fill="#FDE01B"/>
<path d="M460.105 204.219V206.592L497.827 232.113V204.219H460.105Z" fill="black" fill-opacity="0.1"/>
<path d="M460.105 204.219V206.592L497.827 232.113V204.219H460.105Z" fill="black" fill-opacity="0.1"/>
<path d="M455.75 207.022L501.962 238.222" stroke="black" stroke-dasharray="5 5"/>
<path d="M422.464 92.6698C423.16 92.1426 423.341 91.2106 422.869 90.588L415.174 80.4429C414.702 79.8204 413.755 79.743 413.059 80.2702C412.363 80.7973 412.182 81.7294 412.654 82.3519L419.495 91.3698L409.416 99.0058C408.72 99.533 408.539 100.465 409.011 101.088C409.483 101.71 410.43 101.787 411.126 101.26L422.464 92.6698ZM169.492 129.18C170.326 130.323 170.325 130.324 170.325 130.324C170.325 130.324 170.325 130.324 170.326 130.323C170.327 130.323 170.329 130.321 170.332 130.319C170.338 130.314 170.348 130.307 170.363 130.296C170.393 130.275 170.441 130.241 170.506 130.195C170.636 130.103 170.837 129.964 171.11 129.781C171.656 129.415 172.489 128.873 173.619 128.185C175.88 126.808 179.327 124.844 184.037 122.527C193.456 117.892 207.926 111.841 228.042 106.242C268.272 95.0446 331.11 85.6464 421.323 93.0146L421.896 90.0705C331.358 82.6758 268.138 92.0962 227.497 103.408C207.178 109.064 192.509 115.19 182.898 119.92C178.093 122.284 174.553 124.299 172.204 125.73C171.03 126.445 170.153 127.015 169.566 127.409C169.272 127.606 169.05 127.759 168.899 127.865C168.824 127.918 168.766 127.959 168.726 127.988C168.706 128.002 168.69 128.014 168.679 128.022C168.674 128.026 168.669 128.029 168.666 128.032C168.664 128.033 168.662 128.034 168.661 128.035C168.66 128.036 168.659 128.037 169.492 129.18Z" fill="#F27500"/>
<path d="M415.044 273.173C415.74 272.646 415.922 271.714 415.449 271.091L407.754 260.946C407.282 260.323 406.335 260.246 405.639 260.773C404.943 261.3 404.762 262.232 405.234 262.855L412.075 271.873L401.996 279.509C401.3 280.036 401.119 280.968 401.591 281.591C402.063 282.213 403.01 282.29 403.706 281.763L415.044 273.173ZM162.072 309.683C162.906 310.826 162.905 310.826 162.905 310.827C162.905 310.827 162.905 310.827 162.906 310.826C162.907 310.826 162.909 310.824 162.912 310.822C162.918 310.817 162.929 310.81 162.944 310.799C162.973 310.777 163.021 310.744 163.086 310.698C163.216 310.606 163.417 310.467 163.69 310.284C164.236 309.918 165.069 309.376 166.2 308.688C168.46 307.311 171.908 305.347 176.617 303.029C186.036 298.395 200.506 292.344 220.622 286.745C260.852 275.548 323.691 266.149 413.903 273.517L414.476 270.573C323.938 263.179 260.718 272.599 220.077 283.911C199.758 289.567 185.089 295.693 175.478 300.423C170.673 302.787 167.133 304.802 164.784 306.232C163.61 306.948 162.734 307.517 162.146 307.912C161.852 308.109 161.63 308.262 161.479 308.368C161.404 308.421 161.346 308.462 161.306 308.491C161.286 308.505 161.27 308.517 161.259 308.525C161.254 308.529 161.249 308.532 161.246 308.535C161.244 308.536 161.242 308.537 161.241 308.538C161.24 308.539 161.239 308.54 162.072 309.683Z" fill="#F27500"/>
<path d="M454.643 336.174L504.154 361.819" stroke="black" stroke-dasharray="5 5"/>
<path d="M478.748 376.915C490.348 377.315 495.581 366.749 496.748 361.415L460.248 342.415C460.248 342.415 459.576 354.234 460.714 361.415C461.852 368.596 467.148 376.515 478.748 376.915Z" fill="#F27500"/>
<path d="M481.436 378.181C493.035 378.581 498.269 368.014 499.436 362.681L462.085 343.341C462.085 343.341 461.797 355.5 462.936 362.681C464.074 369.862 469.836 377.781 481.436 378.181Z" fill="#FDE01B"/>
<path d="M481.396 378.071C492.996 378.471 498.23 367.905 499.396 362.571L462.096 343.364C462.096 343.364 461.758 355.39 462.896 362.571C464.034 369.752 469.796 377.671 481.396 378.071Z" fill="black" fill-opacity="0.2"/>
<path d="M503.551 43.0465L454.04 17.4017" stroke="black" stroke-dasharray="5 5"/>
<path d="M476.355 0.452026C464.755 0.0520058 459.522 10.6187 458.355 15.952L494.855 34.952C494.855 34.952 495.528 23.1329 494.39 15.952C493.251 8.77111 487.955 0.852047 476.355 0.452026Z" fill="#F27500"/>
<path d="M478.486 1.53403C466.886 1.13401 461.653 11.7007 460.486 17.034L497.837 36.3735C497.837 36.3735 498.125 24.2149 496.986 17.034C495.848 9.85311 490.086 1.93406 478.486 1.53403Z" fill="#FDE01B"/>
<path d="M478.526 1.64362C466.926 1.2436 461.692 11.8103 460.526 17.1436L497.826 36.3506C497.826 36.3506 498.164 24.3245 497.026 17.1436C495.887 9.96272 490.126 2.04364 478.526 1.64362Z" fill="black" fill-opacity="0.2"/>
</svg>
