<svg width="435" height="261" viewBox="0 0 435 261" fill="none" xmlns="http://www.w3.org/2000/svg">
<path d="M433.104 31.8203L385.104 3.32031L386.104 119.32L433.104 151.32V31.8203Z" fill="#FDE01B"/>
<path d="M40.6035 141.82L37.5104 21.8314L0.103516 0.320312L1.10352 116.32L40.6035 141.82Z" fill="#F27500"/>
<path d="M40.4238 141.332V21.832L3.66555 2.33203V118.332L40.4238 141.332Z" fill="#FDE01B"/>
<path d="M40.4238 141.332V21.832L3.66555 2.33203V118.332L40.4238 141.332Z" fill="#FDE01B"/>
<path d="M40.6035 253.82L37.5104 133.831L0.103516 112.32L1.10352 228.32L40.6035 253.82Z" fill="#F27500"/>
<path d="M40.4238 253.332V133.832L3.66555 114.332V230.332L40.4238 253.332Z" fill="#FDE01B"/>
<path d="M106.604 253.82L103.51 133.831L66.1035 112.32L67.1035 228.32L106.604 253.82Z" fill="#F27500"/>
<path d="M106.424 253.332V133.832L69.6656 114.332V230.332L106.424 253.332Z" fill="#FDE01B"/>
<path d="M106.604 146.82L103.51 26.8314L66.1035 5.32031L67.1035 121.32L106.604 146.82Z" fill="#F27500"/>
<path d="M106.424 146.332V26.832L69.6656 7.33203V123.332L106.424 146.332Z" fill="#FDE01B"/>
<path d="M397.104 126.82V10.3203L385.103 3.32031L386.103 119.32L397.104 126.82Z" fill="#F27500"/>
<path d="M393.104 124.32V7.82033L389.104 5.32031V121.32L393.104 124.32Z" fill="#FDE01B"/>
<path d="M401.104 129.32V12.8203L397.104 10.3203V126.32L401.104 129.32Z" fill="#FDE01B"/>
<path d="M433.104 140.82L385.104 112.32L386.104 228.32L433.104 260.32V140.82Z" fill="#FDE01B"/>
<path d="M397.104 235.82V119.32L385.103 112.32L386.103 228.32L397.104 235.82Z" fill="#F27500"/>
<path d="M393.104 233.32V116.82L389.104 114.32V230.32L393.104 233.32Z" fill="#FDE01B"/>
<path d="M401.104 238.32V121.82L397.104 119.32V235.32L401.104 238.32Z" fill="#FDE01B"/>
<path d="M434.104 111.82L383.604 86.8203V148.32L434.104 170.82V111.82Z" fill="#E6E6E6" fill-opacity="0.5"/>
<path d="M348.891 100.304C349.559 99.8148 349.704 98.8762 349.215 98.2077L341.243 87.3132C340.754 86.6446 339.815 86.4993 339.146 86.9885C338.478 87.4778 338.333 88.4163 338.822 89.0849L345.908 98.7688L336.224 105.855C335.556 106.345 335.411 107.283 335.9 107.952C336.389 108.62 337.328 108.766 337.996 108.276L348.891 100.304ZM150.537 109.954C151.321 111.234 151.32 111.234 151.319 111.234C151.319 111.234 151.319 111.234 151.319 111.234C151.32 111.234 151.321 111.233 151.323 111.232C151.327 111.23 151.335 111.225 151.345 111.219C151.367 111.206 151.402 111.185 151.45 111.157C151.546 111.101 151.697 111.015 151.902 110.903C152.312 110.677 152.942 110.344 153.799 109.923C155.514 109.083 158.141 107.897 161.75 106.537C168.967 103.817 180.112 100.401 195.74 97.671C226.996 92.2107 276.196 89.4902 347.775 100.576L348.234 97.6112C276.376 86.4822 226.843 89.192 195.224 94.7157C179.415 97.4775 168.088 100.942 160.692 103.73C156.994 105.123 154.279 106.347 152.479 107.229C151.579 107.67 150.908 108.026 150.456 108.274C150.231 108.398 150.06 108.495 149.943 108.563C149.885 108.597 149.84 108.623 149.809 108.642C149.793 108.651 149.781 108.659 149.772 108.664C149.767 108.667 149.763 108.669 149.76 108.671C149.759 108.672 149.757 108.673 149.757 108.673C149.755 108.674 149.754 108.675 150.537 109.954Z" fill="#F27500"/>
</svg>
