<svg width="111" height="227" viewBox="0 0 111 227" fill="none" xmlns="http://www.w3.org/2000/svg">
<path d="M53.6469 162.21C53.4135 161.709 52.8184 161.493 52.3179 161.726L44.1617 165.531C43.6612 165.764 43.4448 166.359 43.6782 166.86C43.9117 167.36 44.5067 167.577 45.0072 167.343L52.2572 163.961L55.6392 171.211C55.8727 171.712 56.4677 171.928 56.9682 171.695C57.4687 171.461 57.6852 170.866 57.4517 170.366L53.6469 162.21ZM30.6111 226.385L53.6804 162.974L51.801 162.29L28.7316 225.701L30.6111 226.385Z" fill="#ED1D54"/>
<path d="M6.30745 136.665L6.15809 135.172L6.11878 138.153L6.30745 136.665ZM99.0657 127.383L99.2151 128.875L99.2502 125.894L99.0657 127.383ZM13.0214 116.717L12.8205 115.231L12.8369 118.206L13.0214 116.717ZM92.4864 105.975L92.6873 107.461L92.8103 104.51L92.4864 105.975ZM21.0073 90.1659L20.8268 88.6768L20.6834 91.6305L21.0073 90.1659ZM85.5528 82.3397L85.7333 83.8288L85.8538 80.8702L85.5528 82.3397ZM26.8939 70.3246L26.6284 68.8482L26.5929 71.794L26.8939 70.3246ZM79.1253 60.9316L79.3908 62.4079L79.4617 59.4698L79.1253 60.9316ZM31.5867 49.9892L31.3017 48.5165L31.2502 51.451L31.5867 49.9892ZM73.9124 41.8009L74.1973 43.2736L74.3497 40.3661L73.9124 41.8009ZM36.4852 30.3949L35.8481 29.0369L36.048 31.8297L36.4852 30.3949ZM67.843 15.6816L68.4801 17.0396L68.5182 14.3422L67.843 15.6816ZM42.8458 3.0807L42.7922 1.58166L42.1706 4.42014L42.8458 3.0807ZM64.6418 2.30029L65.4762 3.54682L64.5882 0.801254L64.6418 2.30029ZM39.1815 19.3422L38.3471 18.0957L38.6827 20.7568L39.1815 19.3422ZM71.315 30.6732L71.7516 32.1082L71.8138 29.2585L71.315 30.6732ZM33.6037 42.1474L33.1671 40.7123L33.3034 43.617L33.6037 42.1474ZM76.2405 50.8601L76.5235 52.3332L76.5408 49.3905L76.2405 50.8601ZM29.3432 59.8687L29.0602 58.3957L29.0292 61.3355L29.3432 59.8687ZM82.0607 71.1548L82.2799 72.6387L82.3747 69.688L82.0607 71.1548ZM24.1564 79.7101L23.9372 78.2262L23.8436 81.1771L24.1564 79.7101ZM88.6906 93.4739L88.8701 94.9631L89.0035 92.0069L88.6906 93.4739ZM17.426 102.062L17.2466 100.573L17.1393 103.535L17.426 102.062ZM95.7254 117.311L95.923 118.798L96.0122 115.839L95.7254 117.311ZM10.3758 128.653L10.1782 127.166L10.2459 130.147L10.3758 128.653ZM103.225 136.72L103.398 138.21L103.355 135.225L103.225 136.72ZM110.462 148.358L6.49612 135.177L6.11878 138.153L110.085 151.334L110.462 148.358ZM6.4568 138.157L99.2151 128.875L98.9163 125.89L6.15809 135.172L6.4568 138.157ZM99.2502 125.894L13.2059 115.228L12.8369 118.206L98.8812 128.871L99.2502 125.894ZM13.2224 118.204L92.6873 107.461L92.2854 104.488L12.8205 115.231L13.2224 118.204ZM92.8103 104.51L21.3313 88.7013L20.6834 91.6305L92.1625 107.439L92.8103 104.51ZM21.1879 91.655L85.7333 83.8288L85.3722 80.8506L20.8268 88.6768L21.1879 91.655ZM85.8538 80.8702L27.1949 68.8551L26.5929 71.794L85.2518 83.8092L85.8538 80.8702ZM27.1594 71.8009L79.3908 62.4079L78.8598 59.4552L26.6284 68.8482L27.1594 71.8009ZM79.4617 59.4698L31.9231 48.5275L31.2502 51.451L78.7888 62.3933L79.4617 59.4698ZM31.8716 51.4619L74.1973 43.2736L73.6275 40.3282L31.3017 48.5165L31.8716 51.4619ZM74.3497 40.3661L36.9225 28.96L36.048 31.8297L73.4752 43.2358L74.3497 40.3661ZM37.1224 31.7528L68.4801 17.0396L67.2058 14.3237L35.8481 29.0369L37.1224 31.7528ZM68.5182 14.3422L43.521 1.74126L42.1706 4.42014L67.1678 17.0211L68.5182 14.3422ZM42.8995 4.57974L64.6955 3.79933L64.5882 0.801254L42.7922 1.58166L42.8995 4.57974ZM63.8075 1.05376L38.3471 18.0957L40.0159 20.5887L65.4762 3.54682L63.8075 1.05376ZM38.6827 20.7568L70.8161 32.0878L71.8138 29.2585L39.6803 17.9276L38.6827 20.7568ZM70.8783 29.2381L33.1671 40.7123L34.0404 43.5824L71.7516 32.1082L70.8783 29.2381ZM33.3034 43.617L75.9402 52.3298L76.5408 49.3905L33.904 40.6777L33.3034 43.617ZM75.9575 49.3871L29.0602 58.3957L29.6261 61.3418L76.5235 52.3332L75.9575 49.3871ZM29.0292 61.3355L81.7467 72.6216L82.3747 69.688L29.6572 58.402L29.0292 61.3355ZM81.8414 69.6709L23.9372 78.2262L24.3757 81.194L82.2799 72.6387L81.8414 69.6709ZM23.8436 81.1771L88.3777 94.9409L89.0035 92.0069L24.4693 78.2431L23.8436 81.1771ZM88.5111 91.9847L17.2466 100.573L17.6055 103.552L88.8701 94.9631L88.5111 91.9847ZM17.1393 103.535L95.4387 118.784L96.0122 115.839L17.7128 100.59L17.1393 103.535ZM95.5278 115.824L10.1782 127.166L10.5733 130.14L95.923 118.798L95.5278 115.824ZM10.2459 130.147L103.095 138.214L103.355 135.225L10.5056 127.158L10.2459 130.147ZM103.052 135.23L0.0732974 147.172L0.41889 150.152L103.398 138.21L103.052 135.23Z" fill="#F27500"/>
</svg>
