<svg width="290" height="391" viewBox="0 0 290 391" fill="none" xmlns="http://www.w3.org/2000/svg">
<path d="M60.2395 297.48L76.7832 296.698L60.3686 326.948L43.5995 328.787L60.2395 297.48Z" fill="#FDE01B"/>
<path d="M56.4436 327.382L72.6659 296.86L76.7845 296.698L60.3698 326.948L56.4436 327.382Z" fill="#F27500"/>
<path d="M57.8339 327.283L74.0562 296.762L75.4522 296.664L59.2996 327.054L57.8339 327.283Z" fill="#FDE01B"/>
<path d="M55.0468 327.478L71.2691 296.957L72.6651 296.859L56.5125 327.249L55.0468 327.478Z" fill="#FDE01B"/>
<g filter="url(#filter0_d)">
<rect width="19.5815" height="0.890069" transform="matrix(1 0.000715525 0.000715525 -1 58.0918 297.546)" fill="#F27500"/>
</g>
<g filter="url(#filter1_d)">
<rect width="19.5815" height="1.41339" transform="matrix(1 0.000715473 0.000715473 -1 58.1328 296.913)" fill="#FDE01B"/>
</g>
<g filter="url(#filter2_d)">
<rect width="19.5815" height="0.890069" transform="matrix(1 0.000715527 0.000715527 -1 42.9961 329.102)" fill="#F27500"/>
</g>
<g filter="url(#filter3_d)">
<rect width="19.5815" height="1.41339" transform="matrix(1 0.000715474 0.000715474 -1 43.0371 328.469)" fill="#FDE01B"/>
</g>
<path d="M36.8012 319.286L66.2422 317.894L37.031 371.727L7.18889 375L36.8012 319.286Z" fill="#FDE01B"/>
<path d="M30.0488 372.496L58.9177 318.181L66.2471 317.891L37.0358 371.725L30.0488 372.496Z" fill="#F27500"/>
<path d="M32.5331 372.324L61.402 318.009L63.8864 317.834L35.1414 371.916L32.5331 372.324Z" fill="#FDE01B"/>
<path d="M27.5643 372.671L56.4332 318.356L58.9176 318.182L30.1726 372.264L27.5643 372.671Z" fill="#FDE01B"/>
<g filter="url(#filter4_d)">
<rect width="34.847" height="1.58395" transform="matrix(1 0.000715525 0.000715525 -1 33.0625 319.403)" fill="#F27500"/>
</g>
<g filter="url(#filter5_d)">
<rect width="34.847" height="2.51525" transform="matrix(1 0.000715473 0.000715473 -1 33.0488 318.275)" fill="#FDE01B"/>
</g>
<g filter="url(#filter6_d)">
<rect width="34.847" height="1.58396" transform="matrix(1 0.000715527 0.000715527 -1 6.11914 375.562)" fill="#F27500"/>
</g>
<g filter="url(#filter7_d)">
<rect width="34.847" height="2.51525" transform="matrix(1 0.000715474 0.000715474 -1 6.19531 374.433)" fill="#FDE01B"/>
</g>
<path d="M236.058 327.658L252.602 328.44L236.187 298.19L219.418 296.351L236.058 327.658Z" fill="#FDE01B"/>
<path d="M232.262 297.756L248.484 328.277L252.603 328.44L236.188 298.19L232.262 297.756Z" fill="#F27500"/>
<path d="M233.652 297.855L249.875 328.376L251.271 328.474L235.118 298.084L233.652 297.855Z" fill="#FDE01B"/>
<path d="M230.865 297.659L247.087 328.18L248.483 328.278L232.331 297.888L230.865 297.659Z" fill="#FDE01B"/>
<g filter="url(#filter8_d)">
<rect x="233.91" y="327.592" width="19.5815" height="0.890069" transform="rotate(-0.0409968 233.91 327.592)" fill="#F27500"/>
</g>
<g filter="url(#filter9_d)">
<rect x="233.951" y="328.226" width="19.5815" height="1.41339" transform="rotate(-0.0409938 233.951 328.226)" fill="#FDE01B"/>
</g>
<g filter="url(#filter10_d)">
<rect x="218.814" y="296.036" width="19.5815" height="0.890069" transform="rotate(-0.0409967 218.814 296.036)" fill="#F27500"/>
</g>
<g filter="url(#filter11_d)">
<rect x="218.855" y="296.669" width="19.5815" height="1.41339" transform="rotate(-0.0409937 218.855 296.669)" fill="#FDE01B"/>
</g>
<path d="M252.5 372.004L281.941 373.397L252.73 319.563L222.888 316.291L252.5 372.004Z" fill="#FDE01B"/>
<path d="M245.746 318.795L274.615 373.11L281.944 373.4L252.733 319.566L245.746 318.795Z" fill="#F27500"/>
<path d="M248.23 318.967L277.099 373.282L279.584 373.456L250.839 319.375L248.23 318.967Z" fill="#FDE01B"/>
<path d="M243.256 318.62L272.125 372.935L274.609 373.109L245.864 319.027L243.256 318.62Z" fill="#FDE01B"/>
<g filter="url(#filter12_d)">
<rect x="248.674" y="371.89" width="34.847" height="1.58396" transform="rotate(-0.0409968 248.674 371.89)" fill="#F27500"/>
</g>
<g filter="url(#filter13_d)">
<rect x="248.75" y="373.018" width="34.847" height="2.51525" transform="rotate(-0.0409938 248.75 373.018)" fill="#FDE01B"/>
</g>
<g filter="url(#filter14_d)">
<rect x="221.812" y="315.731" width="34.847" height="1.58395" transform="rotate(-0.0409967 221.812 315.731)" fill="#F27500"/>
</g>
<g filter="url(#filter15_d)">
<rect x="221.889" y="316.86" width="34.847" height="2.51525" transform="rotate(-0.0409937 221.889 316.86)" fill="#FDE01B"/>
</g>
<rect x="33.1172" y="308.485" width="223.529" height="5.58821" fill="#FDE01B"/>
<rect x="33.1172" y="313.82" width="223.529" height="2.03208" fill="#F27500"/>
<rect x="65.6309" y="288.676" width="157.994" height="5.58821" fill="#FDE01B"/>
<path d="M223.623 288.676L218.543 294.01L232.768 308.488H256.644L223.623 288.676Z" fill="#FDE01B"/>
<path d="M60.8042 308.485H33.1172L65.6304 288.672L70.4566 294.006L60.8042 308.485Z" fill="#FDE01B"/>
<path d="M218.799 294.259L232.769 308.484H226.927L218.799 296.545H70.203L64.6635 308.484H60.8047L70.203 294.259H218.799Z" fill="#F27500"/>
<path d="M92.4844 137.118L103.884 135.48L144.009 135.48L174.103 135.48L196.446 137.098L196.446 139.144L92.4844 139.144L92.4844 137.118Z" fill="#FDE01B"/>
<rect x="92.4844" y="139.054" width="103.961" height="0.736761" fill="#F27500"/>
<rect x="107.605" y="129.934" width="73.4817" height="2.02609" fill="#FDE01B"/>
<path d="M181.093 129.934L167.268 132.245L165.9 137.118L196.451 137.118L181.093 129.934Z" fill="#FDE01B"/>
<path d="M117.107 137.12L92.4844 137.12L107.606 129.936L121.596 131.87L117.107 137.12Z" fill="#FDE01B"/>
<path d="M168.173 131.963L166.463 135.482L163.745 135.482L166.463 132.791L121.475 132.792L119.467 135.482L117.104 135.482L121.475 131.963L168.173 131.963Z" fill="#F27500"/>
<path d="M82.2627 250.958L94.5078 250.379L82.3583 272.77L69.9464 274.131L82.2627 250.958Z" fill="#FDE01B"/>
<path d="M79.455 273.09L91.4621 250.499L94.5105 250.379L82.361 272.769L79.455 273.09Z" fill="#F27500"/>
<path d="M80.491 273.019L92.4982 250.428L93.5315 250.356L81.5759 272.849L80.491 273.019Z" fill="#FDE01B"/>
<path d="M78.4188 273.165L90.4259 250.575L91.4592 250.502L79.5036 272.996L78.4188 273.165Z" fill="#FDE01B"/>
<g filter="url(#filter16_d)">
<rect width="14.4936" height="0.658799" transform="matrix(1 0.000715524 0.000715524 -1 80.6738 251.004)" fill="#F27500"/>
</g>
<g filter="url(#filter17_d)">
<rect width="14.4936" height="1.04614" transform="matrix(1 0.000715471 0.000715471 -1 80.7012 250.533)" fill="#FDE01B"/>
</g>
<g filter="url(#filter18_d)">
<rect width="14.4936" height="0.658799" transform="matrix(1 0.000715527 0.000715527 -1 69.5 274.362)" fill="#F27500"/>
</g>
<g filter="url(#filter19_d)">
<rect width="14.4936" height="1.04614" transform="matrix(1 0.000715474 0.000715474 -1 69.5273 273.891)" fill="#FDE01B"/>
</g>
<path d="M60.046 266.966L82.3203 265.912L60.2198 306.641L37.642 309.117L60.046 266.966Z" fill="#FDE01B"/>
<path d="M54.9242 307.227L76.7658 266.134L82.311 265.915L60.2104 306.644L54.9242 307.227Z" fill="#F27500"/>
<path d="M56.8108 307.093L78.6524 265.999L80.532 265.867L58.7842 306.784L56.8108 307.093Z" fill="#FDE01B"/>
<path d="M53.0472 307.358L74.8887 266.264L76.7684 266.132L55.0205 307.049L53.0472 307.358Z" fill="#FDE01B"/>
<g filter="url(#filter20_d)">
<rect width="26.3644" height="1.19838" transform="matrix(1 0.000715524 0.000715524 -1 58.2734 267.52)" fill="#F27500"/>
</g>
<g filter="url(#filter21_d)">
<rect width="26.3644" height="1.90298" transform="matrix(1 0.000715471 0.000715471 -1 58.3281 266.661)" fill="#FDE01B"/>
</g>
<g filter="url(#filter22_d)">
<rect width="26.3644" height="1.19838" transform="matrix(1 0.000715527 0.000715527 -1 36.8184 309.542)" fill="#F27500"/>
</g>
<g filter="url(#filter23_d)">
<rect width="26.3644" height="1.90298" transform="matrix(1 0.000715474 0.000715474 -1 36.873 308.686)" fill="#FDE01B"/>
</g>
<path d="M212.39 273.291L224.635 273.871L212.485 251.48L200.073 250.119L212.39 273.291Z" fill="#FDE01B"/>
<path d="M209.582 251.16L221.589 273.75L224.638 273.871L212.488 251.48L209.582 251.16Z" fill="#F27500"/>
<path d="M210.618 251.231L222.625 273.822L223.658 273.894L211.703 251.4L210.618 251.231Z" fill="#FDE01B"/>
<path d="M208.546 251.085L220.553 273.675L221.586 273.748L209.631 251.254L208.546 251.085Z" fill="#FDE01B"/>
<g filter="url(#filter24_d)">
<rect x="210.811" y="273.245" width="14.4936" height="0.658799" transform="rotate(-0.0409968 210.811 273.245)" fill="#F27500"/>
</g>
<g filter="url(#filter25_d)">
<rect x="210.838" y="273.715" width="14.4936" height="1.04614" transform="rotate(-0.0409938 210.838 273.715)" fill="#FDE01B"/>
</g>
<g filter="url(#filter26_d)">
<rect x="199.635" y="249.888" width="14.4936" height="0.658799" transform="rotate(-0.0409967 199.635 249.888)" fill="#F27500"/>
</g>
<g filter="url(#filter27_d)">
<rect x="199.662" y="250.359" width="14.4936" height="1.04614" transform="rotate(-0.0409937 199.662 250.359)" fill="#FDE01B"/>
</g>
<path d="M228.495 306.955L250.807 308.01L228.669 267.212L206.053 264.732L228.495 306.955Z" fill="#FDE01B"/>
<path d="M223.365 266.623L245.244 307.786L250.799 308.006L228.661 267.207L223.365 266.623Z" fill="#F27500"/>
<path d="M225.252 266.758L247.13 307.921L249.013 308.053L227.228 267.066L225.252 266.758Z" fill="#FDE01B"/>
<path d="M221.484 266.496L243.363 307.659L245.245 307.791L223.461 266.805L221.484 266.496Z" fill="#FDE01B"/>
<g filter="url(#filter28_d)">
<rect x="225.586" y="306.867" width="26.4091" height="1.20041" transform="rotate(-0.0409969 225.586 306.867)" fill="#F27500"/>
</g>
<g filter="url(#filter29_d)">
<rect x="225.639" y="307.723" width="26.4091" height="1.9062" transform="rotate(-0.0409939 225.639 307.723)" fill="#FDE01B"/>
</g>
<g filter="url(#filter30_d)">
<rect x="205.154" y="264.307" width="26.4091" height="1.20041" transform="rotate(-0.0409967 205.154 264.307)" fill="#F27500"/>
</g>
<g filter="url(#filter31_d)">
<rect x="205.146" y="265.43" width="26.4091" height="1.9062" transform="rotate(-0.0409937 205.146 265.43)" fill="#FDE01B"/>
</g>
<rect x="58.9355" y="259.124" width="171.951" height="4.29876" fill="#FDE01B"/>
<rect x="58.9355" y="263.224" width="171.951" height="1.56319" fill="#F27500"/>
<rect x="83.9512" y="243.882" width="121.538" height="4.29876" fill="#FDE01B"/>
<path d="M205.486 243.882L201.578 247.986L212.52 259.123H230.888L205.486 243.882Z" fill="#FDE01B"/>
<path d="M80.234 259.124H58.9355L83.9465 243.882L87.6591 247.986L80.234 259.124Z" fill="#FDE01B"/>
<path d="M201.772 248.181L212.519 259.123H208.025L201.772 249.94H87.4641L84.1423 259.123H80.2344L87.4641 248.181H201.772Z" fill="#F27500"/>
<path d="M201.578 248.375L212.911 248.375" stroke="#F27500"/>
<path d="M76.5195 248.375L87.8526 248.375" stroke="#F27500"/>
<path d="M87.5293 255.574L61.2656 256.692L77.6729 200.809L106.323 191.562L87.5293 255.574Z" fill="#FDE01B"/>
<path d="M84.3797 198.638L67.0029 257.823L60.3099 258.065L77.6727 200.807L84.3797 198.638Z" fill="#F27500"/>
<path d="M81.978 199.312L64.8995 257.481L62.6437 257.646L79.4984 200.239L81.978 199.312Z" fill="#FDE01B"/>
<path d="M86.781 197.966L69.4041 257.151L66.9991 257.824L84.3014 198.893L86.781 197.966Z" fill="#FDE01B"/>
<path d="M105.481 194.535L77.502 201.495L94.655 143.073L120.546 143.225L105.481 194.535Z" fill="#FDE01B"/>
<path d="M101.364 140.904L83.9871 200.089L77.4292 201.75L94.6569 143.073L101.364 140.904Z" fill="#F27500"/>
<path d="M98.9528 141.576L81.576 200.761L79.171 201.434L96.4733 142.503L98.9528 141.576Z" fill="#FDE01B"/>
<path d="M103.765 140.229L86.3885 199.414L83.9835 200.087L101.286 141.156L103.765 140.229Z" fill="#FDE01B"/>
<rect width="34.945" height="1.58841" transform="matrix(-1 -0.000133697 -0.000133697 1 93.9375 255.676)" fill="#F27500"/>
<rect width="34.945" height="2.52232" transform="matrix(-1 -0.000133615 -0.000133615 1 93.8535 256.812)" fill="#FDE01B"/>
<rect width="34.945" height="1.58841" transform="matrix(0.999983 0.00574085 0.00574085 -0.999983 92.2734 143.182)" fill="#F27500"/>
<rect width="34.945" height="2.52232" transform="matrix(0.999983 0.00574077 0.00574077 -0.999983 92.3574 142.05)" fill="#FDE01B"/>
<path d="M121.631 134.489L95.8457 136.109L109.258 79.4325L137.376 68.6758L121.631 134.489Z" fill="#FDE01B"/>
<path d="M115.843 76.9095L101.638 136.935L94.9675 137.532L109.261 79.4325L115.843 76.9095Z" fill="#F27500"/>
<path d="M113.474 77.7114L99.513 136.706L97.2691 136.991L111.048 78.7694L113.474 77.7114Z" fill="#FDE01B"/>
<path d="M118.203 76.111L103.998 136.136L101.632 136.937L115.777 77.169L118.203 76.111Z" fill="#FDE01B"/>
<path d="M136.79 71.1066L109.221 79.5447L123.243 20.2924L149.105 19.0676L136.79 71.1066Z" fill="#FDE01B"/>
<path d="M129.822 17.7694L115.617 77.7946L109.157 79.8023L123.24 20.2924L129.822 17.7694Z" fill="#F27500"/>
<path d="M127.461 18.5688L113.256 78.594L110.89 79.3943L125.035 19.6268L127.461 18.5688Z" fill="#FDE01B"/>
<path d="M132.192 16.9697L117.986 76.9949L115.621 77.7952L129.765 18.0277L132.192 16.9697Z" fill="#FDE01B"/>
<rect width="34.945" height="1.58841" transform="matrix(-1 0.000331617 0.000331617 1 127.66 133.978)" fill="#F27500"/>
<rect width="34.945" height="2.52232" transform="matrix(-1 0.000331669 0.000331669 1 127.592 135.11)" fill="#FDE01B"/>
<rect width="34.945" height="1.58841" transform="matrix(0.999555 -0.0298098 -0.0298098 -0.999555 119.709 20.5435)" fill="#F27500"/>
<rect width="34.945" height="2.52232" transform="matrix(0.999556 -0.0298098 -0.0298098 -0.999556 119.75 19.4077)" fill="#FDE01B"/>
<path d="M161.392 19.1487L135.225 16.6357L148.637 73.3119L176.755 84.0686L161.392 19.1487Z" fill="#FDE01B"/>
<path d="M155.22 75.8352L141.018 16.1148L134.502 15.8835L148.638 73.3122L155.22 75.8352Z" fill="#F27500"/>
<path d="M152.853 75.0356L138.891 16.0409L136.696 15.9646L150.426 73.9776L152.853 75.0356Z" fill="#FDE01B"/>
<path d="M157.588 76.635L143.382 16.6098L141.006 16.0592L155.161 75.577L157.588 76.635Z" fill="#FDE01B"/>
<path d="M175.97 80.7179L148.4 72.2798L163.098 134.274L188.625 133.697L175.97 80.7179Z" fill="#FDE01B"/>
<path d="M169.002 134.055L154.796 74.0299L148.336 72.0222L162.884 133.727L169.002 134.055Z" fill="#F27500"/>
<path d="M166.736 133.514L152.428 73.2297L150.062 72.4294L164.337 133.514L166.736 133.514Z" fill="#FDE01B"/>
<path d="M171.369 134.855L157.164 74.8296L154.798 74.0292L168.943 133.797L171.369 134.855Z" fill="#FDE01B"/>
<rect x="166.99" y="20.5105" width="34.945" height="1.58841" transform="rotate(-178.292 166.99 20.5105)" fill="#F27500"/>
<rect x="166.949" y="19.3748" width="34.945" height="2.52232" transform="rotate(-178.292 166.949 19.3748)" fill="#FDE01B"/>
<rect x="161.496" y="133.566" width="34.945" height="1.58841" transform="rotate(-0.196325 161.496 133.566)" fill="#F27500"/>
<rect x="161.502" y="134.705" width="34.945" height="2.52232" transform="rotate(-0.19632 161.502 134.705)" fill="#FDE01B"/>
<path d="M191.623 141.263L165.295 139.927L182.142 197.309L210.921 206.991L191.623 141.263Z" fill="#FDE01B"/>
<path d="M188.878 199.579L171.291 139.757L164.869 139.757L182.141 197.307L188.878 199.579Z" fill="#F27500"/>
<path d="M186.461 198.871L169.058 139.758L166.868 139.757L183.97 197.903L186.461 198.871Z" fill="#FDE01B"/>
<path d="M191.287 200.289L173.503 139.8L171.31 139.8L188.796 199.32L191.287 200.289Z" fill="#FDE01B"/>
<path d="M209.923 203.6L181.834 196.265L199.447 256.255L225.392 256.287L209.923 203.6Z" fill="#FDE01B"/>
<path d="M206.19 258.529L188.347 197.757L181.763 196.007L199.453 256.258L206.19 258.529Z" fill="#F27500"/>
<path d="M203.777 257.82L185.934 197.048L183.519 196.34L201.285 256.852L203.777 257.82Z" fill="#FDE01B"/>
<path d="M208.603 259.235L190.76 198.463L188.345 197.755L206.111 258.267L208.603 259.235Z" fill="#FDE01B"/>
<g filter="url(#filter32_d)">
<rect width="35.1795" height="1.62056" transform="matrix(-0.995145 -0.000904876 -0.0124021 -1.00463 196.555 144.771)" fill="#F27500"/>
</g>
<g filter="url(#filter33_d)">
<rect width="35.1795" height="3.38973" transform="matrix(-0.995145 -0.00116192 -0.0121425 -1.00463 196.52 143.199)" fill="#FDE01B"/>
</g>
<g filter="url(#filter34_d)">
<rect width="35.1795" height="1.62056" transform="matrix(0.995145 0.000208223 0.0131053 1.00462 195.852 255.813)" fill="#F27500"/>
</g>
<g filter="url(#filter35_d)">
<rect width="35.1795" height="2.57338" transform="matrix(0.995145 0.000208249 0.0131053 1.00462 195.857 256.976)" fill="#FDE01B"/>
</g>
<defs>
<filter id="filter0_d" x="52.0918" y="290.656" width="31.5821" height="12.9041" filterUnits="userSpaceOnUse" color-interpolation-filters="sRGB">
<feFlood flood-opacity="0" result="BackgroundImageFix"/>
<feColorMatrix in="SourceAlpha" type="matrix" values="0 0 0 0 0 0 0 0 0 0 0 0 0 0 0 0 0 0 127 0"/>
<feOffset/>
<feGaussianBlur stdDeviation="3"/>
<feColorMatrix type="matrix" values="0 0 0 0 0 0 0 0 0 0 0 0 0 0 0 0 0 0 0.25 0"/>
<feBlend mode="normal" in2="BackgroundImageFix" result="effect1_dropShadow"/>
<feBlend mode="normal" in="SourceGraphic" in2="effect1_dropShadow" result="shape"/>
</filter>
<filter id="filter1_d" x="52.1328" y="289.499" width="31.5825" height="13.4274" filterUnits="userSpaceOnUse" color-interpolation-filters="sRGB">
<feFlood flood-opacity="0" result="BackgroundImageFix"/>
<feColorMatrix in="SourceAlpha" type="matrix" values="0 0 0 0 0 0 0 0 0 0 0 0 0 0 0 0 0 0 127 0"/>
<feOffset/>
<feGaussianBlur stdDeviation="3"/>
<feColorMatrix type="matrix" values="0 0 0 0 0 0 0 0 0 0 0 0 0 0 0 0 0 0 0.25 0"/>
<feBlend mode="normal" in2="BackgroundImageFix" result="effect1_dropShadow"/>
<feBlend mode="normal" in="SourceGraphic" in2="effect1_dropShadow" result="shape"/>
</filter>
<filter id="filter2_d" x="36.9961" y="322.212" width="31.5821" height="12.9041" filterUnits="userSpaceOnUse" color-interpolation-filters="sRGB">
<feFlood flood-opacity="0" result="BackgroundImageFix"/>
<feColorMatrix in="SourceAlpha" type="matrix" values="0 0 0 0 0 0 0 0 0 0 0 0 0 0 0 0 0 0 127 0"/>
<feOffset/>
<feGaussianBlur stdDeviation="3"/>
<feColorMatrix type="matrix" values="0 0 0 0 0 0 0 0 0 0 0 0 0 0 0 0 0 0 0.25 0"/>
<feBlend mode="normal" in2="BackgroundImageFix" result="effect1_dropShadow"/>
<feBlend mode="normal" in="SourceGraphic" in2="effect1_dropShadow" result="shape"/>
</filter>
<filter id="filter3_d" x="37.0371" y="321.055" width="31.5825" height="13.4274" filterUnits="userSpaceOnUse" color-interpolation-filters="sRGB">
<feFlood flood-opacity="0" result="BackgroundImageFix"/>
<feColorMatrix in="SourceAlpha" type="matrix" values="0 0 0 0 0 0 0 0 0 0 0 0 0 0 0 0 0 0 127 0"/>
<feOffset/>
<feGaussianBlur stdDeviation="3"/>
<feColorMatrix type="matrix" values="0 0 0 0 0 0 0 0 0 0 0 0 0 0 0 0 0 0 0.25 0"/>
<feBlend mode="normal" in2="BackgroundImageFix" result="effect1_dropShadow"/>
<feBlend mode="normal" in="SourceGraphic" in2="effect1_dropShadow" result="shape"/>
</filter>
<filter id="filter4_d" x="27.0625" y="311.819" width="46.8481" height="13.6089" filterUnits="userSpaceOnUse" color-interpolation-filters="sRGB">
<feFlood flood-opacity="0" result="BackgroundImageFix"/>
<feColorMatrix in="SourceAlpha" type="matrix" values="0 0 0 0 0 0 0 0 0 0 0 0 0 0 0 0 0 0 127 0"/>
<feOffset/>
<feGaussianBlur stdDeviation="3"/>
<feColorMatrix type="matrix" values="0 0 0 0 0 0 0 0 0 0 0 0 0 0 0 0 0 0 0.25 0"/>
<feBlend mode="normal" in2="BackgroundImageFix" result="effect1_dropShadow"/>
<feBlend mode="normal" in="SourceGraphic" in2="effect1_dropShadow" result="shape"/>
</filter>
<filter id="filter5_d" x="27.0488" y="309.76" width="46.8488" height="14.5402" filterUnits="userSpaceOnUse" color-interpolation-filters="sRGB">
<feFlood flood-opacity="0" result="BackgroundImageFix"/>
<feColorMatrix in="SourceAlpha" type="matrix" values="0 0 0 0 0 0 0 0 0 0 0 0 0 0 0 0 0 0 127 0"/>
<feOffset/>
<feGaussianBlur stdDeviation="3"/>
<feColorMatrix type="matrix" values="0 0 0 0 0 0 0 0 0 0 0 0 0 0 0 0 0 0 0.25 0"/>
<feBlend mode="normal" in2="BackgroundImageFix" result="effect1_dropShadow"/>
<feBlend mode="normal" in="SourceGraphic" in2="effect1_dropShadow" result="shape"/>
</filter>
<filter id="filter6_d" x="0.119141" y="367.978" width="46.8481" height="13.6089" filterUnits="userSpaceOnUse" color-interpolation-filters="sRGB">
<feFlood flood-opacity="0" result="BackgroundImageFix"/>
<feColorMatrix in="SourceAlpha" type="matrix" values="0 0 0 0 0 0 0 0 0 0 0 0 0 0 0 0 0 0 127 0"/>
<feOffset/>
<feGaussianBlur stdDeviation="3"/>
<feColorMatrix type="matrix" values="0 0 0 0 0 0 0 0 0 0 0 0 0 0 0 0 0 0 0.25 0"/>
<feBlend mode="normal" in2="BackgroundImageFix" result="effect1_dropShadow"/>
<feBlend mode="normal" in="SourceGraphic" in2="effect1_dropShadow" result="shape"/>
</filter>
<filter id="filter7_d" x="0.195312" y="365.918" width="46.8488" height="14.5402" filterUnits="userSpaceOnUse" color-interpolation-filters="sRGB">
<feFlood flood-opacity="0" result="BackgroundImageFix"/>
<feColorMatrix in="SourceAlpha" type="matrix" values="0 0 0 0 0 0 0 0 0 0 0 0 0 0 0 0 0 0 127 0"/>
<feOffset/>
<feGaussianBlur stdDeviation="3"/>
<feColorMatrix type="matrix" values="0 0 0 0 0 0 0 0 0 0 0 0 0 0 0 0 0 0 0.25 0"/>
<feBlend mode="normal" in2="BackgroundImageFix" result="effect1_dropShadow"/>
<feBlend mode="normal" in="SourceGraphic" in2="effect1_dropShadow" result="shape"/>
</filter>
<filter id="filter8_d" x="227.91" y="321.578" width="31.5821" height="12.9041" filterUnits="userSpaceOnUse" color-interpolation-filters="sRGB">
<feFlood flood-opacity="0" result="BackgroundImageFix"/>
<feColorMatrix in="SourceAlpha" type="matrix" values="0 0 0 0 0 0 0 0 0 0 0 0 0 0 0 0 0 0 127 0"/>
<feOffset/>
<feGaussianBlur stdDeviation="3"/>
<feColorMatrix type="matrix" values="0 0 0 0 0 0 0 0 0 0 0 0 0 0 0 0 0 0 0.25 0"/>
<feBlend mode="normal" in2="BackgroundImageFix" result="effect1_dropShadow"/>
<feBlend mode="normal" in="SourceGraphic" in2="effect1_dropShadow" result="shape"/>
</filter>
<filter id="filter9_d" x="227.951" y="322.212" width="31.5825" height="13.4274" filterUnits="userSpaceOnUse" color-interpolation-filters="sRGB">
<feFlood flood-opacity="0" result="BackgroundImageFix"/>
<feColorMatrix in="SourceAlpha" type="matrix" values="0 0 0 0 0 0 0 0 0 0 0 0 0 0 0 0 0 0 127 0"/>
<feOffset/>
<feGaussianBlur stdDeviation="3"/>
<feColorMatrix type="matrix" values="0 0 0 0 0 0 0 0 0 0 0 0 0 0 0 0 0 0 0.25 0"/>
<feBlend mode="normal" in2="BackgroundImageFix" result="effect1_dropShadow"/>
<feBlend mode="normal" in="SourceGraphic" in2="effect1_dropShadow" result="shape"/>
</filter>
<filter id="filter10_d" x="212.814" y="290.022" width="31.5821" height="12.9041" filterUnits="userSpaceOnUse" color-interpolation-filters="sRGB">
<feFlood flood-opacity="0" result="BackgroundImageFix"/>
<feColorMatrix in="SourceAlpha" type="matrix" values="0 0 0 0 0 0 0 0 0 0 0 0 0 0 0 0 0 0 127 0"/>
<feOffset/>
<feGaussianBlur stdDeviation="3"/>
<feColorMatrix type="matrix" values="0 0 0 0 0 0 0 0 0 0 0 0 0 0 0 0 0 0 0.25 0"/>
<feBlend mode="normal" in2="BackgroundImageFix" result="effect1_dropShadow"/>
<feBlend mode="normal" in="SourceGraphic" in2="effect1_dropShadow" result="shape"/>
</filter>
<filter id="filter11_d" x="212.855" y="290.656" width="31.5825" height="13.4274" filterUnits="userSpaceOnUse" color-interpolation-filters="sRGB">
<feFlood flood-opacity="0" result="BackgroundImageFix"/>
<feColorMatrix in="SourceAlpha" type="matrix" values="0 0 0 0 0 0 0 0 0 0 0 0 0 0 0 0 0 0 127 0"/>
<feOffset/>
<feGaussianBlur stdDeviation="3"/>
<feColorMatrix type="matrix" values="0 0 0 0 0 0 0 0 0 0 0 0 0 0 0 0 0 0 0.25 0"/>
<feBlend mode="normal" in2="BackgroundImageFix" result="effect1_dropShadow"/>
<feBlend mode="normal" in="SourceGraphic" in2="effect1_dropShadow" result="shape"/>
</filter>
<filter id="filter12_d" x="242.674" y="365.865" width="46.8481" height="13.6089" filterUnits="userSpaceOnUse" color-interpolation-filters="sRGB">
<feFlood flood-opacity="0" result="BackgroundImageFix"/>
<feColorMatrix in="SourceAlpha" type="matrix" values="0 0 0 0 0 0 0 0 0 0 0 0 0 0 0 0 0 0 127 0"/>
<feOffset/>
<feGaussianBlur stdDeviation="3"/>
<feColorMatrix type="matrix" values="0 0 0 0 0 0 0 0 0 0 0 0 0 0 0 0 0 0 0.25 0"/>
<feBlend mode="normal" in2="BackgroundImageFix" result="effect1_dropShadow"/>
<feBlend mode="normal" in="SourceGraphic" in2="effect1_dropShadow" result="shape"/>
</filter>
<filter id="filter13_d" x="242.75" y="366.993" width="46.8488" height="14.5402" filterUnits="userSpaceOnUse" color-interpolation-filters="sRGB">
<feFlood flood-opacity="0" result="BackgroundImageFix"/>
<feColorMatrix in="SourceAlpha" type="matrix" values="0 0 0 0 0 0 0 0 0 0 0 0 0 0 0 0 0 0 127 0"/>
<feOffset/>
<feGaussianBlur stdDeviation="3"/>
<feColorMatrix type="matrix" values="0 0 0 0 0 0 0 0 0 0 0 0 0 0 0 0 0 0 0.25 0"/>
<feBlend mode="normal" in2="BackgroundImageFix" result="effect1_dropShadow"/>
<feBlend mode="normal" in="SourceGraphic" in2="effect1_dropShadow" result="shape"/>
</filter>
<filter id="filter14_d" x="215.812" y="309.706" width="46.8481" height="13.6089" filterUnits="userSpaceOnUse" color-interpolation-filters="sRGB">
<feFlood flood-opacity="0" result="BackgroundImageFix"/>
<feColorMatrix in="SourceAlpha" type="matrix" values="0 0 0 0 0 0 0 0 0 0 0 0 0 0 0 0 0 0 127 0"/>
<feOffset/>
<feGaussianBlur stdDeviation="3"/>
<feColorMatrix type="matrix" values="0 0 0 0 0 0 0 0 0 0 0 0 0 0 0 0 0 0 0.25 0"/>
<feBlend mode="normal" in2="BackgroundImageFix" result="effect1_dropShadow"/>
<feBlend mode="normal" in="SourceGraphic" in2="effect1_dropShadow" result="shape"/>
</filter>
<filter id="filter15_d" x="215.889" y="310.835" width="46.8488" height="14.5402" filterUnits="userSpaceOnUse" color-interpolation-filters="sRGB">
<feFlood flood-opacity="0" result="BackgroundImageFix"/>
<feColorMatrix in="SourceAlpha" type="matrix" values="0 0 0 0 0 0 0 0 0 0 0 0 0 0 0 0 0 0 127 0"/>
<feOffset/>
<feGaussianBlur stdDeviation="3"/>
<feColorMatrix type="matrix" values="0 0 0 0 0 0 0 0 0 0 0 0 0 0 0 0 0 0 0.25 0"/>
<feBlend mode="normal" in2="BackgroundImageFix" result="effect1_dropShadow"/>
<feBlend mode="normal" in="SourceGraphic" in2="effect1_dropShadow" result="shape"/>
</filter>
<filter id="filter16_d" x="74.6738" y="244.345" width="26.494" height="12.6692" filterUnits="userSpaceOnUse" color-interpolation-filters="sRGB">
<feFlood flood-opacity="0" result="BackgroundImageFix"/>
<feColorMatrix in="SourceAlpha" type="matrix" values="0 0 0 0 0 0 0 0 0 0 0 0 0 0 0 0 0 0 127 0"/>
<feOffset/>
<feGaussianBlur stdDeviation="3"/>
<feColorMatrix type="matrix" values="0 0 0 0 0 0 0 0 0 0 0 0 0 0 0 0 0 0 0.25 0"/>
<feBlend mode="normal" in2="BackgroundImageFix" result="effect1_dropShadow"/>
<feBlend mode="normal" in="SourceGraphic" in2="effect1_dropShadow" result="shape"/>
</filter>
<filter id="filter17_d" x="74.7012" y="243.487" width="26.4943" height="13.0565" filterUnits="userSpaceOnUse" color-interpolation-filters="sRGB">
<feFlood flood-opacity="0" result="BackgroundImageFix"/>
<feColorMatrix in="SourceAlpha" type="matrix" values="0 0 0 0 0 0 0 0 0 0 0 0 0 0 0 0 0 0 127 0"/>
<feOffset/>
<feGaussianBlur stdDeviation="3"/>
<feColorMatrix type="matrix" values="0 0 0 0 0 0 0 0 0 0 0 0 0 0 0 0 0 0 0.25 0"/>
<feBlend mode="normal" in2="BackgroundImageFix" result="effect1_dropShadow"/>
<feBlend mode="normal" in="SourceGraphic" in2="effect1_dropShadow" result="shape"/>
</filter>
<filter id="filter18_d" x="63.5" y="267.703" width="26.494" height="12.6692" filterUnits="userSpaceOnUse" color-interpolation-filters="sRGB">
<feFlood flood-opacity="0" result="BackgroundImageFix"/>
<feColorMatrix in="SourceAlpha" type="matrix" values="0 0 0 0 0 0 0 0 0 0 0 0 0 0 0 0 0 0 127 0"/>
<feOffset/>
<feGaussianBlur stdDeviation="3"/>
<feColorMatrix type="matrix" values="0 0 0 0 0 0 0 0 0 0 0 0 0 0 0 0 0 0 0.25 0"/>
<feBlend mode="normal" in2="BackgroundImageFix" result="effect1_dropShadow"/>
<feBlend mode="normal" in="SourceGraphic" in2="effect1_dropShadow" result="shape"/>
</filter>
<filter id="filter19_d" x="63.5273" y="266.845" width="26.4943" height="13.0565" filterUnits="userSpaceOnUse" color-interpolation-filters="sRGB">
<feFlood flood-opacity="0" result="BackgroundImageFix"/>
<feColorMatrix in="SourceAlpha" type="matrix" values="0 0 0 0 0 0 0 0 0 0 0 0 0 0 0 0 0 0 127 0"/>
<feOffset/>
<feGaussianBlur stdDeviation="3"/>
<feColorMatrix type="matrix" values="0 0 0 0 0 0 0 0 0 0 0 0 0 0 0 0 0 0 0.25 0"/>
<feBlend mode="normal" in2="BackgroundImageFix" result="effect1_dropShadow"/>
<feBlend mode="normal" in="SourceGraphic" in2="effect1_dropShadow" result="shape"/>
</filter>
<filter id="filter20_d" x="52.2734" y="260.322" width="38.3653" height="13.2172" filterUnits="userSpaceOnUse" color-interpolation-filters="sRGB">
<feFlood flood-opacity="0" result="BackgroundImageFix"/>
<feColorMatrix in="SourceAlpha" type="matrix" values="0 0 0 0 0 0 0 0 0 0 0 0 0 0 0 0 0 0 127 0"/>
<feOffset/>
<feGaussianBlur stdDeviation="3"/>
<feColorMatrix type="matrix" values="0 0 0 0 0 0 0 0 0 0 0 0 0 0 0 0 0 0 0.25 0"/>
<feBlend mode="normal" in2="BackgroundImageFix" result="effect1_dropShadow"/>
<feBlend mode="normal" in="SourceGraphic" in2="effect1_dropShadow" result="shape"/>
</filter>
<filter id="filter21_d" x="52.3281" y="258.758" width="38.3658" height="13.9218" filterUnits="userSpaceOnUse" color-interpolation-filters="sRGB">
<feFlood flood-opacity="0" result="BackgroundImageFix"/>
<feColorMatrix in="SourceAlpha" type="matrix" values="0 0 0 0 0 0 0 0 0 0 0 0 0 0 0 0 0 0 127 0"/>
<feOffset/>
<feGaussianBlur stdDeviation="3"/>
<feColorMatrix type="matrix" values="0 0 0 0 0 0 0 0 0 0 0 0 0 0 0 0 0 0 0.25 0"/>
<feBlend mode="normal" in2="BackgroundImageFix" result="effect1_dropShadow"/>
<feBlend mode="normal" in="SourceGraphic" in2="effect1_dropShadow" result="shape"/>
</filter>
<filter id="filter22_d" x="30.8184" y="302.344" width="38.3653" height="13.2172" filterUnits="userSpaceOnUse" color-interpolation-filters="sRGB">
<feFlood flood-opacity="0" result="BackgroundImageFix"/>
<feColorMatrix in="SourceAlpha" type="matrix" values="0 0 0 0 0 0 0 0 0 0 0 0 0 0 0 0 0 0 127 0"/>
<feOffset/>
<feGaussianBlur stdDeviation="3"/>
<feColorMatrix type="matrix" values="0 0 0 0 0 0 0 0 0 0 0 0 0 0 0 0 0 0 0.25 0"/>
<feBlend mode="normal" in2="BackgroundImageFix" result="effect1_dropShadow"/>
<feBlend mode="normal" in="SourceGraphic" in2="effect1_dropShadow" result="shape"/>
</filter>
<filter id="filter23_d" x="30.873" y="300.783" width="38.3658" height="13.9218" filterUnits="userSpaceOnUse" color-interpolation-filters="sRGB">
<feFlood flood-opacity="0" result="BackgroundImageFix"/>
<feColorMatrix in="SourceAlpha" type="matrix" values="0 0 0 0 0 0 0 0 0 0 0 0 0 0 0 0 0 0 127 0"/>
<feOffset/>
<feGaussianBlur stdDeviation="3"/>
<feColorMatrix type="matrix" values="0 0 0 0 0 0 0 0 0 0 0 0 0 0 0 0 0 0 0.25 0"/>
<feBlend mode="normal" in2="BackgroundImageFix" result="effect1_dropShadow"/>
<feBlend mode="normal" in="SourceGraphic" in2="effect1_dropShadow" result="shape"/>
</filter>
<filter id="filter24_d" x="204.811" y="267.235" width="26.494" height="12.6692" filterUnits="userSpaceOnUse" color-interpolation-filters="sRGB">
<feFlood flood-opacity="0" result="BackgroundImageFix"/>
<feColorMatrix in="SourceAlpha" type="matrix" values="0 0 0 0 0 0 0 0 0 0 0 0 0 0 0 0 0 0 127 0"/>
<feOffset/>
<feGaussianBlur stdDeviation="3"/>
<feColorMatrix type="matrix" values="0 0 0 0 0 0 0 0 0 0 0 0 0 0 0 0 0 0 0.25 0"/>
<feBlend mode="normal" in2="BackgroundImageFix" result="effect1_dropShadow"/>
<feBlend mode="normal" in="SourceGraphic" in2="effect1_dropShadow" result="shape"/>
</filter>
<filter id="filter25_d" x="204.838" y="267.705" width="26.4943" height="13.0565" filterUnits="userSpaceOnUse" color-interpolation-filters="sRGB">
<feFlood flood-opacity="0" result="BackgroundImageFix"/>
<feColorMatrix in="SourceAlpha" type="matrix" values="0 0 0 0 0 0 0 0 0 0 0 0 0 0 0 0 0 0 127 0"/>
<feOffset/>
<feGaussianBlur stdDeviation="3"/>
<feColorMatrix type="matrix" values="0 0 0 0 0 0 0 0 0 0 0 0 0 0 0 0 0 0 0.25 0"/>
<feBlend mode="normal" in2="BackgroundImageFix" result="effect1_dropShadow"/>
<feBlend mode="normal" in="SourceGraphic" in2="effect1_dropShadow" result="shape"/>
</filter>
<filter id="filter26_d" x="193.635" y="243.878" width="26.494" height="12.6692" filterUnits="userSpaceOnUse" color-interpolation-filters="sRGB">
<feFlood flood-opacity="0" result="BackgroundImageFix"/>
<feColorMatrix in="SourceAlpha" type="matrix" values="0 0 0 0 0 0 0 0 0 0 0 0 0 0 0 0 0 0 127 0"/>
<feOffset/>
<feGaussianBlur stdDeviation="3"/>
<feColorMatrix type="matrix" values="0 0 0 0 0 0 0 0 0 0 0 0 0 0 0 0 0 0 0.25 0"/>
<feBlend mode="normal" in2="BackgroundImageFix" result="effect1_dropShadow"/>
<feBlend mode="normal" in="SourceGraphic" in2="effect1_dropShadow" result="shape"/>
</filter>
<filter id="filter27_d" x="193.662" y="244.349" width="26.4943" height="13.0565" filterUnits="userSpaceOnUse" color-interpolation-filters="sRGB">
<feFlood flood-opacity="0" result="BackgroundImageFix"/>
<feColorMatrix in="SourceAlpha" type="matrix" values="0 0 0 0 0 0 0 0 0 0 0 0 0 0 0 0 0 0 127 0"/>
<feOffset/>
<feGaussianBlur stdDeviation="3"/>
<feColorMatrix type="matrix" values="0 0 0 0 0 0 0 0 0 0 0 0 0 0 0 0 0 0 0.25 0"/>
<feBlend mode="normal" in2="BackgroundImageFix" result="effect1_dropShadow"/>
<feBlend mode="normal" in="SourceGraphic" in2="effect1_dropShadow" result="shape"/>
</filter>
<filter id="filter28_d" x="219.586" y="300.848" width="38.41" height="13.2193" filterUnits="userSpaceOnUse" color-interpolation-filters="sRGB">
<feFlood flood-opacity="0" result="BackgroundImageFix"/>
<feColorMatrix in="SourceAlpha" type="matrix" values="0 0 0 0 0 0 0 0 0 0 0 0 0 0 0 0 0 0 127 0"/>
<feOffset/>
<feGaussianBlur stdDeviation="3"/>
<feColorMatrix type="matrix" values="0 0 0 0 0 0 0 0 0 0 0 0 0 0 0 0 0 0 0.25 0"/>
<feBlend mode="normal" in2="BackgroundImageFix" result="effect1_dropShadow"/>
<feBlend mode="normal" in="SourceGraphic" in2="effect1_dropShadow" result="shape"/>
</filter>
<filter id="filter29_d" x="219.639" y="301.704" width="38.4105" height="13.9251" filterUnits="userSpaceOnUse" color-interpolation-filters="sRGB">
<feFlood flood-opacity="0" result="BackgroundImageFix"/>
<feColorMatrix in="SourceAlpha" type="matrix" values="0 0 0 0 0 0 0 0 0 0 0 0 0 0 0 0 0 0 127 0"/>
<feOffset/>
<feGaussianBlur stdDeviation="3"/>
<feColorMatrix type="matrix" values="0 0 0 0 0 0 0 0 0 0 0 0 0 0 0 0 0 0 0.25 0"/>
<feBlend mode="normal" in2="BackgroundImageFix" result="effect1_dropShadow"/>
<feBlend mode="normal" in="SourceGraphic" in2="effect1_dropShadow" result="shape"/>
</filter>
<filter id="filter30_d" x="199.154" y="258.288" width="38.41" height="13.2193" filterUnits="userSpaceOnUse" color-interpolation-filters="sRGB">
<feFlood flood-opacity="0" result="BackgroundImageFix"/>
<feColorMatrix in="SourceAlpha" type="matrix" values="0 0 0 0 0 0 0 0 0 0 0 0 0 0 0 0 0 0 127 0"/>
<feOffset/>
<feGaussianBlur stdDeviation="3"/>
<feColorMatrix type="matrix" values="0 0 0 0 0 0 0 0 0 0 0 0 0 0 0 0 0 0 0.25 0"/>
<feBlend mode="normal" in2="BackgroundImageFix" result="effect1_dropShadow"/>
<feBlend mode="normal" in="SourceGraphic" in2="effect1_dropShadow" result="shape"/>
</filter>
<filter id="filter31_d" x="199.146" y="259.411" width="38.4105" height="13.9251" filterUnits="userSpaceOnUse" color-interpolation-filters="sRGB">
<feFlood flood-opacity="0" result="BackgroundImageFix"/>
<feColorMatrix in="SourceAlpha" type="matrix" values="0 0 0 0 0 0 0 0 0 0 0 0 0 0 0 0 0 0 127 0"/>
<feOffset/>
<feGaussianBlur stdDeviation="3"/>
<feColorMatrix type="matrix" values="0 0 0 0 0 0 0 0 0 0 0 0 0 0 0 0 0 0 0.25 0"/>
<feBlend mode="normal" in2="BackgroundImageFix" result="effect1_dropShadow"/>
<feBlend mode="normal" in="SourceGraphic" in2="effect1_dropShadow" result="shape"/>
</filter>
<filter id="filter32_d" x="159.525" y="141.111" width="39.0288" height="5.65989" filterUnits="userSpaceOnUse" color-interpolation-filters="sRGB">
<feFlood flood-opacity="0" result="BackgroundImageFix"/>
<feColorMatrix in="SourceAlpha" type="matrix" values="0 0 0 0 0 0 0 0 0 0 0 0 0 0 0 0 0 0 127 0"/>
<feOffset/>
<feGaussianBlur stdDeviation="1"/>
<feColorMatrix type="matrix" values="0 0 0 0 0 0 0 0 0 0 0 0 0 0 0 0 0 0 0.25 0"/>
<feBlend mode="normal" in2="BackgroundImageFix" result="effect1_dropShadow"/>
<feBlend mode="normal" in="SourceGraphic" in2="effect1_dropShadow" result="shape"/>
</filter>
<filter id="filter33_d" x="159.469" y="137.753" width="39.0499" height="7.4463" filterUnits="userSpaceOnUse" color-interpolation-filters="sRGB">
<feFlood flood-opacity="0" result="BackgroundImageFix"/>
<feColorMatrix in="SourceAlpha" type="matrix" values="0 0 0 0 0 0 0 0 0 0 0 0 0 0 0 0 0 0 127 0"/>
<feOffset/>
<feGaussianBlur stdDeviation="1"/>
<feColorMatrix type="matrix" values="0 0 0 0 0 0 0 0 0 0 0 0 0 0 0 0 0 0 0.25 0"/>
<feBlend mode="normal" in2="BackgroundImageFix" result="effect1_dropShadow"/>
<feBlend mode="normal" in="SourceGraphic" in2="effect1_dropShadow" result="shape"/>
</filter>
<filter id="filter34_d" x="193.852" y="253.813" width="39.03" height="5.63537" filterUnits="userSpaceOnUse" color-interpolation-filters="sRGB">
<feFlood flood-opacity="0" result="BackgroundImageFix"/>
<feColorMatrix in="SourceAlpha" type="matrix" values="0 0 0 0 0 0 0 0 0 0 0 0 0 0 0 0 0 0 127 0"/>
<feOffset/>
<feGaussianBlur stdDeviation="1"/>
<feColorMatrix type="matrix" values="0 0 0 0 0 0 0 0 0 0 0 0 0 0 0 0 0 0 0.25 0"/>
<feBlend mode="normal" in2="BackgroundImageFix" result="effect1_dropShadow"/>
<feBlend mode="normal" in="SourceGraphic" in2="effect1_dropShadow" result="shape"/>
</filter>
<filter id="filter35_d" x="193.857" y="254.976" width="39.0424" height="6.59259" filterUnits="userSpaceOnUse" color-interpolation-filters="sRGB">
<feFlood flood-opacity="0" result="BackgroundImageFix"/>
<feColorMatrix in="SourceAlpha" type="matrix" values="0 0 0 0 0 0 0 0 0 0 0 0 0 0 0 0 0 0 127 0"/>
<feOffset/>
<feGaussianBlur stdDeviation="1"/>
<feColorMatrix type="matrix" values="0 0 0 0 0 0 0 0 0 0 0 0 0 0 0 0 0 0 0.25 0"/>
<feBlend mode="normal" in2="BackgroundImageFix" result="effect1_dropShadow"/>
<feBlend mode="normal" in="SourceGraphic" in2="effect1_dropShadow" result="shape"/>
</filter>
</defs>
</svg>
