<svg width="529" height="316" viewBox="0 0 529 316" fill="none" xmlns="http://www.w3.org/2000/svg">
<path d="M377.666 132.249C378.335 131.76 378.48 130.822 377.991 130.153L370.018 119.259C369.529 118.59 368.59 118.445 367.922 118.934C367.253 119.423 367.108 120.362 367.597 121.03L374.684 130.714L365 137.801C364.331 138.29 364.186 139.229 364.675 139.897C365.164 140.566 366.103 140.711 366.772 140.222L377.666 132.249ZM179.313 141.9C180.096 143.179 180.095 143.179 180.095 143.18C180.095 143.18 180.094 143.18 180.095 143.18C180.095 143.179 180.096 143.179 180.098 143.177C180.103 143.175 180.11 143.17 180.121 143.164C180.142 143.151 180.177 143.131 180.225 143.102C180.322 143.046 180.472 142.961 180.677 142.848C181.087 142.622 181.717 142.289 182.574 141.869C184.289 141.029 186.917 139.842 190.525 138.482C197.742 135.762 208.887 132.347 224.516 129.616C255.771 124.156 304.972 121.435 376.551 132.521L377.01 129.556C305.151 118.428 255.618 121.137 223.999 126.661C208.19 129.423 196.863 132.887 189.467 135.675C185.769 137.069 183.055 138.293 181.255 139.175C180.355 139.616 179.683 139.971 179.232 140.219C179.006 140.343 178.836 140.44 178.719 140.508C178.661 140.542 178.616 140.569 178.584 140.587C178.568 140.597 178.556 140.604 178.547 140.61C178.542 140.612 178.539 140.615 178.536 140.616C178.534 140.617 178.533 140.618 178.532 140.619C178.531 140.62 178.53 140.62 179.313 141.9Z" fill="#F27500"/>
<path d="M86.6172 5.39737V294.088L126.117 315.588L123.375 25.4521L86.6172 5.39737Z" fill="#F27500"/>
<path d="M89.6504 6.99854L89.7052 296.088L126.463 315.588V27.1129L89.6504 6.99854Z" fill="#FDE01B"/>
<path d="M0.382812 3.16714V291.858L39.8828 313.358L37.1411 23.2218L0.382812 3.16714Z" fill="#F27500"/>
<path d="M3.41602 4.76831L3.47079 293.858L40.2291 313.358V24.8827L3.41602 4.76831Z" fill="#FDE01B"/>
<path d="M480.617 0.93692V289.627L520.117 311.127L517.375 20.9916L480.617 0.93692Z" fill="#F27500"/>
<path d="M483.65 2.53809L483.705 291.628L520.463 311.128V22.6525L483.65 2.53809Z" fill="#FDE01B"/>
<path d="M487.225 4.28482V292.975L526.725 314.475L523.983 24.3395L487.225 4.28482Z" fill="#F27500"/>
<path d="M490.258 5.88599L490.313 294.976L527.071 314.476V26.0004L490.258 5.88599Z" fill="#FDE01B"/>
<path d="M528.708 150.409L479.381 125.409V186.909L528.708 209.409V150.409Z" fill="#E6E6E6" fill-opacity="0.5"/>
<path d="M527.07 148.004L528.701 150.401L527.07 149.591V148.004Z" fill="#C4C4C4"/>
<path d="M480.642 125.122L479.387 125.415L480.642 126.048V125.122Z" fill="#C4C4C4"/>
</svg>
