<svg width="446" height="253" viewBox="0 0 446 253" fill="none" xmlns="http://www.w3.org/2000/svg">
<path d="M96.6483 113.664L121.52 112.487L96.8423 157.965L71.6322 160.73L96.6483 113.664Z" fill="#FDE01B"/>
<path d="M90.9396 158.616L115.328 112.732L121.519 112.487L96.8421 157.965L90.9396 158.616Z" fill="#F27500"/>
<path d="M93.0379 158.469L117.426 112.585L119.525 112.437L95.2413 158.125L93.0379 158.469Z" fill="#FDE01B"/>
<path d="M88.8406 158.764L113.229 112.879L115.327 112.732L91.044 158.419L88.8406 158.764Z" fill="#FDE01B"/>
<g filter="url(#filter0_d)">
<rect width="29.4382" height="1.3381" transform="matrix(1 0.000715527 0.000715527 -1 93.4141 113.761)" fill="#F27500"/>
</g>
<g filter="url(#filter1_d)">
<rect width="29.4382" height="2.12484" transform="matrix(1 0.000715474 0.000715474 -1 93.4766 112.807)" fill="#FDE01B"/>
</g>
<g filter="url(#filter2_d)">
<rect width="29.4382" height="1.3381" transform="matrix(1 0.000715527 0.000715527 -1 70.7227 161.202)" fill="#F27500"/>
</g>
<g filter="url(#filter3_d)">
<rect width="29.4382" height="2.12484" transform="matrix(1 0.000715474 0.000715474 -1 70.7852 160.248)" fill="#FDE01B"/>
</g>
<path d="M52.6749 146.124L96.9355 144.031L53.0203 224.963L8.15675 229.882L52.6749 146.124Z" fill="#FDE01B"/>
<path d="M42.517 226.121L85.9176 144.466L96.9363 144.031L53.0211 224.963L42.517 226.121Z" fill="#F27500"/>
<path d="M46.252 225.859L89.6526 144.204L93.3876 143.942L50.1733 225.247L46.252 225.859Z" fill="#FDE01B"/>
<path d="M38.7813 226.383L82.1819 144.728L85.9169 144.466L42.7026 225.771L38.7813 226.383Z" fill="#FDE01B"/>
<g filter="url(#filter4_d)">
<rect width="52.3879" height="2.38127" transform="matrix(1 0.000715527 0.000715527 -1 46.9199 146.297)" fill="#F27500"/>
</g>
<g filter="url(#filter5_d)">
<rect width="52.3879" height="3.78134" transform="matrix(1 0.000715474 0.000715474 -1 47.0293 144.6)" fill="#FDE01B"/>
</g>
<g filter="url(#filter6_d)">
<rect width="52.3879" height="2.38127" transform="matrix(1 0.000715527 0.000715527 -1 6.54102 230.723)" fill="#F27500"/>
</g>
<g filter="url(#filter7_d)">
<rect width="52.3879" height="3.78134" transform="matrix(1 0.000715474 0.000715474 -1 6.65039 229.026)" fill="#FDE01B"/>
</g>
<path d="M360.969 159.035L385.84 160.212L361.163 114.734L335.953 111.969L360.969 159.035Z" fill="#FDE01B"/>
<path d="M355.26 114.083L379.648 159.967L385.84 160.212L361.162 114.734L355.26 114.083Z" fill="#F27500"/>
<path d="M357.358 114.23L381.746 160.114L383.845 160.262L359.562 114.574L357.358 114.23Z" fill="#FDE01B"/>
<path d="M353.161 113.936L377.549 159.82L379.648 159.967L355.364 114.28L353.161 113.936Z" fill="#FDE01B"/>
<g filter="url(#filter8_d)">
<rect x="357.732" y="158.938" width="29.4382" height="1.3381" transform="rotate(-0.0409967 357.732 158.938)" fill="#F27500"/>
</g>
<g filter="url(#filter9_d)">
<rect x="357.795" y="159.892" width="29.4382" height="2.12484" transform="rotate(-0.0409937 357.795 159.892)" fill="#FDE01B"/>
</g>
<g filter="url(#filter10_d)">
<rect x="335.043" y="111.497" width="29.4382" height="1.3381" transform="rotate(-0.0409967 335.043 111.497)" fill="#F27500"/>
</g>
<g filter="url(#filter11_d)">
<rect x="335.105" y="112.451" width="29.4382" height="2.12484" transform="rotate(-0.0409937 335.105 112.451)" fill="#FDE01B"/>
</g>
<path d="M392.402 225.455L436.662 227.549L392.747 146.617L347.883 141.697L392.402 225.455Z" fill="#FDE01B"/>
<path d="M382.244 145.458L425.644 227.113L436.663 227.549L392.748 146.616L382.244 145.458Z" fill="#F27500"/>
<path d="M385.979 145.72L429.379 227.375L433.114 227.637L389.9 146.332L385.979 145.72Z" fill="#FDE01B"/>
<path d="M378.508 145.196L421.908 226.851L425.643 227.113L382.429 145.808L378.508 145.196Z" fill="#FDE01B"/>
<g filter="url(#filter12_d)">
<rect x="386.646" y="225.282" width="52.3879" height="2.38127" transform="rotate(-0.0409967 386.646 225.282)" fill="#F27500"/>
</g>
<g filter="url(#filter13_d)">
<rect x="386.756" y="226.979" width="52.3879" height="3.78134" transform="rotate(-0.0409937 386.756 226.979)" fill="#FDE01B"/>
</g>
<g filter="url(#filter14_d)">
<rect x="346.268" y="140.856" width="52.3879" height="2.38127" transform="rotate(-0.0409967 346.268 140.856)" fill="#F27500"/>
</g>
<g filter="url(#filter15_d)">
<rect x="346.377" y="142.553" width="52.3879" height="3.78134" transform="rotate(-0.0409937 346.377 142.553)" fill="#FDE01B"/>
</g>
<rect x="49.2715" y="130.249" width="349.252" height="8.73131" fill="#FDE01B"/>
<rect x="49.2715" y="138.583" width="349.252" height="3.17502" fill="#F27500"/>
<rect x="100.072" y="99.292" width="246.858" height="8.73131" fill="#FDE01B"/>
<path d="M346.93 99.292L338.992 107.626L361.217 130.248H398.524L346.93 99.292Z" fill="#FDE01B"/>
<path d="M92.5312 130.249H49.2715L100.072 99.2919L107.613 107.627L92.5312 130.249Z" fill="#FDE01B"/>
<path d="M339.389 108.023L361.217 130.249H352.089L339.389 111.595H107.216L100.469 130.249H92.5312L107.216 108.023H339.389Z" fill="#F27500"/>
<path d="M360.027 129.852L398.524 130.646" stroke="#F27500"/>
<path d="M338.992 108.42L362.011 108.42" stroke="#F27500"/>
<path d="M84.9902 108.42L108.009 108.42" stroke="#F27500"/>
<path d="M49.2715 129.852H92.5312" stroke="#F27500"/>
<path d="M129.757 11.7237L148.166 10.8528L129.901 44.5141L111.241 46.5602L129.757 11.7237Z" fill="#FDE01B"/>
<path d="M125.532 44.996L143.583 11.034L148.166 10.8528L129.901 44.5141L125.532 44.996Z" fill="#F27500"/>
<path d="M127.085 44.8871L145.136 10.9251L146.69 10.8161L128.716 44.6323L127.085 44.8871Z" fill="#FDE01B"/>
<path d="M123.977 45.1051L142.029 11.1431L143.582 11.0341L125.608 44.8503L123.977 45.1051Z" fill="#FDE01B"/>
<g filter="url(#filter16_d)">
<rect width="21.7892" height="0.990416" transform="matrix(1 0.000715525 0.000715525 -1 127.363 11.7959)" fill="#F27500"/>
</g>
<g filter="url(#filter17_d)">
<rect width="21.7892" height="1.57274" transform="matrix(1 0.000715473 0.000715473 -1 127.408 11.0896)" fill="#FDE01B"/>
</g>
<g filter="url(#filter18_d)">
<rect width="21.7892" height="0.990416" transform="matrix(1 0.000715527 0.000715527 -1 110.568 46.9104)" fill="#F27500"/>
</g>
<g filter="url(#filter19_d)">
<rect width="21.7892" height="1.57274" transform="matrix(1 0.000715474 0.000715474 -1 110.613 46.2041)" fill="#FDE01B"/>
</g>
<path d="M97.2086 35.7496L129.969 34.1997L97.4642 94.1029L64.2577 97.7442L97.2086 35.7496Z" fill="#FDE01B"/>
<path d="M89.6903 94.9607L121.814 34.5224L129.97 34.1998L97.4651 94.103L89.6903 94.9607Z" fill="#F27500"/>
<path d="M92.4546 94.7665L124.578 34.3282L127.343 34.1342L95.3569 94.3131L92.4546 94.7665Z" fill="#FDE01B"/>
<path d="M86.9253 95.1547L119.049 34.7164L121.813 34.5224L89.8277 94.7013L86.9253 95.1547Z" fill="#FDE01B"/>
<g filter="url(#filter20_d)">
<rect width="38.7757" height="1.76253" transform="matrix(1 0.000715525 0.000715525 -1 92.9492 35.8777)" fill="#F27500"/>
</g>
<g filter="url(#filter21_d)">
<rect width="38.7757" height="2.79882" transform="matrix(1 0.000715473 0.000715473 -1 93.0293 34.6208)" fill="#FDE01B"/>
</g>
<g filter="url(#filter22_d)">
<rect width="38.7757" height="1.76253" transform="matrix(1 0.000715527 0.000715527 -1 63.0625 98.3669)" fill="#F27500"/>
</g>
<g filter="url(#filter23_d)">
<rect width="38.7757" height="2.79882" transform="matrix(1 0.000715474 0.000715474 -1 63.1426 97.1101)" fill="#FDE01B"/>
</g>
<path d="M340.946 98.6928C341.605 99.194 342.546 99.0657 343.048 98.4062L351.216 87.658C351.718 86.9984 351.589 86.0574 350.93 85.5561C350.27 85.0548 349.329 85.1832 348.828 85.8427L341.567 95.3967L332.013 88.1357C331.353 87.6344 330.412 87.7627 329.911 88.4223C329.41 89.0818 329.538 90.0229 330.198 90.5242L340.946 98.6928ZM334.367 53.7012L340.367 97.7012L343.34 97.2959L337.34 53.2959L334.367 53.7012Z" fill="#DA6A00"/>
<path d="M325.398 45.3061L343.807 46.177L325.541 12.5157L306.882 10.4696L325.398 45.3061Z" fill="#FDE01B"/>
<path d="M321.173 12.0337L339.224 45.9957L343.807 46.177L325.542 12.5157L321.173 12.0337Z" fill="#F27500"/>
<path d="M322.726 12.1427L340.777 46.1047L342.33 46.2137L324.356 12.3975L322.726 12.1427Z" fill="#FDE01B"/>
<path d="M319.618 11.9247L337.669 45.8867L339.223 45.9957L321.249 12.1795L319.618 11.9247Z" fill="#FDE01B"/>
<g filter="url(#filter24_d)">
<rect x="323.006" y="45.2339" width="21.7892" height="0.990416" transform="rotate(-0.0409967 323.006 45.2339)" fill="#F27500"/>
</g>
<g filter="url(#filter25_d)">
<rect x="323.051" y="45.9402" width="21.7892" height="1.57274" transform="rotate(-0.0409937 323.051 45.9402)" fill="#FDE01B"/>
</g>
<g filter="url(#filter26_d)">
<rect x="306.211" y="10.1194" width="21.7892" height="0.990416" transform="rotate(-0.0409967 306.211 10.1194)" fill="#F27500"/>
</g>
<g filter="url(#filter27_d)">
<rect x="306.256" y="10.8257" width="21.7892" height="1.57274" transform="rotate(-0.0409937 306.256 10.8257)" fill="#FDE01B"/>
</g>
<path d="M348.664 94.4672L381.424 96.0171L348.919 36.1139L315.713 32.4726L348.664 94.4672Z" fill="#FDE01B"/>
<path d="M341.145 35.2561L373.269 95.6944L381.425 96.017L348.92 36.1138L341.145 35.2561Z" fill="#F27500"/>
<path d="M343.91 35.4503L376.033 95.8886L378.798 96.0826L346.812 35.9037L343.91 35.4503Z" fill="#FDE01B"/>
<path d="M338.38 35.0621L370.504 95.5004L373.268 95.6944L341.283 35.5155L338.38 35.0621Z" fill="#FDE01B"/>
<g filter="url(#filter28_d)">
<rect x="344.404" y="94.3391" width="38.7757" height="1.76253" transform="rotate(-0.0409968 344.404 94.3391)" fill="#F27500"/>
</g>
<g filter="url(#filter29_d)">
<rect x="344.484" y="95.5959" width="38.7757" height="2.79882" transform="rotate(-0.0409938 344.484 95.5959)" fill="#FDE01B"/>
</g>
<g filter="url(#filter30_d)">
<rect x="314.518" y="31.8499" width="38.7757" height="1.76253" transform="rotate(-0.0409967 314.518 31.8499)" fill="#F27500"/>
</g>
<g filter="url(#filter31_d)">
<rect x="314.598" y="33.1067" width="38.7757" height="2.79882" transform="rotate(-0.0409937 314.598 33.1067)" fill="#FDE01B"/>
</g>
<rect x="94.6895" y="23.999" width="258.505" height="6.46262" fill="#FDE01B"/>
<rect x="94.6895" y="30.168" width="258.505" height="2.35004" fill="#F27500"/>
<rect x="132.291" y="1.08618" width="182.716" height="6.46262" fill="#FDE01B"/>
<path d="M315.006 1.08618L309.131 7.25507L325.581 23.9991H353.194L315.006 1.08618Z" fill="#FDE01B"/>
<path d="M126.709 23.999H94.6895L132.29 1.08595L137.871 7.25498L126.709 23.999Z" fill="#FDE01B"/>
<path d="M309.425 7.54883L325.581 23.9991H318.825L309.425 10.1926H137.578L132.584 23.9991H126.709L137.578 7.54883H309.425Z" fill="#F27500"/>
<path d="M324.699 23.7053L353.193 24.2928" stroke="#F27500"/>
<path d="M309.131 7.84253L326.169 7.84257" stroke="#F27500"/>
<path d="M121.127 7.84253L138.165 7.84257" stroke="#F27500"/>
<path d="M94.6895 23.7053H126.709" stroke="#F27500"/>
<path d="M73.9142 147.532C73.3284 148.118 72.3786 148.118 71.7929 147.532L62.2469 137.986C61.6611 137.4 61.6611 136.45 62.2469 135.865C62.8327 135.279 63.7824 135.279 64.3682 135.865L72.8535 144.35L81.3388 135.865C81.9246 135.279 82.8743 135.279 83.4601 135.865C84.0459 136.45 84.0459 137.4 83.4601 137.986L73.9142 147.532ZM74.3535 126.471V146.471H71.3535V126.471H74.3535Z" fill="#DA6A00"/>
<path d="M108.563 99.2639C108.986 99.9763 109.906 100.211 110.619 99.7886L122.23 92.9009C122.942 92.4782 123.177 91.558 122.754 90.8455C122.332 90.133 121.411 89.8981 120.699 90.3207L110.378 96.4432L104.256 86.1225C103.833 85.41 102.913 85.1751 102.2 85.5977C101.488 86.0204 101.253 86.9406 101.676 87.6531L108.563 99.2639ZM120.4 51.1275L108.4 98.1275L111.307 98.8696L123.307 51.8696L120.4 51.1275Z" fill="#DA6A00"/>
<path d="M365.914 120.559C365.328 121.145 364.379 121.145 363.793 120.559L354.247 111.013C353.661 110.427 353.661 109.478 354.247 108.892C354.833 108.306 355.782 108.306 356.368 108.892L364.854 117.377L373.339 108.892C373.925 108.306 374.874 108.306 375.46 108.892C376.046 109.478 376.046 110.427 375.46 111.013L365.914 120.559ZM366.354 99.4985V119.499H363.354V99.4985H366.354Z" fill="#DA6A00"/>
<defs>
<filter id="filter0_d" x="87.4141" y="106.423" width="41.4392" height="13.3592" filterUnits="userSpaceOnUse" color-interpolation-filters="sRGB">
<feFlood flood-opacity="0" result="BackgroundImageFix"/>
<feColorMatrix in="SourceAlpha" type="matrix" values="0 0 0 0 0 0 0 0 0 0 0 0 0 0 0 0 0 0 127 0"/>
<feOffset/>
<feGaussianBlur stdDeviation="3"/>
<feColorMatrix type="matrix" values="0 0 0 0 0 0 0 0 0 0 0 0 0 0 0 0 0 0 0.25 0"/>
<feBlend mode="normal" in2="BackgroundImageFix" result="effect1_dropShadow"/>
<feBlend mode="normal" in="SourceGraphic" in2="effect1_dropShadow" result="shape"/>
</filter>
<filter id="filter1_d" x="87.4766" y="104.682" width="41.4397" height="14.1459" filterUnits="userSpaceOnUse" color-interpolation-filters="sRGB">
<feFlood flood-opacity="0" result="BackgroundImageFix"/>
<feColorMatrix in="SourceAlpha" type="matrix" values="0 0 0 0 0 0 0 0 0 0 0 0 0 0 0 0 0 0 127 0"/>
<feOffset/>
<feGaussianBlur stdDeviation="3"/>
<feColorMatrix type="matrix" values="0 0 0 0 0 0 0 0 0 0 0 0 0 0 0 0 0 0 0.25 0"/>
<feBlend mode="normal" in2="BackgroundImageFix" result="effect1_dropShadow"/>
<feBlend mode="normal" in="SourceGraphic" in2="effect1_dropShadow" result="shape"/>
</filter>
<filter id="filter2_d" x="64.7227" y="153.864" width="41.4392" height="13.3592" filterUnits="userSpaceOnUse" color-interpolation-filters="sRGB">
<feFlood flood-opacity="0" result="BackgroundImageFix"/>
<feColorMatrix in="SourceAlpha" type="matrix" values="0 0 0 0 0 0 0 0 0 0 0 0 0 0 0 0 0 0 127 0"/>
<feOffset/>
<feGaussianBlur stdDeviation="3"/>
<feColorMatrix type="matrix" values="0 0 0 0 0 0 0 0 0 0 0 0 0 0 0 0 0 0 0.25 0"/>
<feBlend mode="normal" in2="BackgroundImageFix" result="effect1_dropShadow"/>
<feBlend mode="normal" in="SourceGraphic" in2="effect1_dropShadow" result="shape"/>
</filter>
<filter id="filter3_d" x="64.7852" y="152.124" width="41.4397" height="14.1459" filterUnits="userSpaceOnUse" color-interpolation-filters="sRGB">
<feFlood flood-opacity="0" result="BackgroundImageFix"/>
<feColorMatrix in="SourceAlpha" type="matrix" values="0 0 0 0 0 0 0 0 0 0 0 0 0 0 0 0 0 0 127 0"/>
<feOffset/>
<feGaussianBlur stdDeviation="3"/>
<feColorMatrix type="matrix" values="0 0 0 0 0 0 0 0 0 0 0 0 0 0 0 0 0 0 0.25 0"/>
<feBlend mode="normal" in2="BackgroundImageFix" result="effect1_dropShadow"/>
<feBlend mode="normal" in="SourceGraphic" in2="effect1_dropShadow" result="shape"/>
</filter>
<filter id="filter4_d" x="40.9199" y="137.916" width="64.3895" height="14.4188" filterUnits="userSpaceOnUse" color-interpolation-filters="sRGB">
<feFlood flood-opacity="0" result="BackgroundImageFix"/>
<feColorMatrix in="SourceAlpha" type="matrix" values="0 0 0 0 0 0 0 0 0 0 0 0 0 0 0 0 0 0 127 0"/>
<feOffset/>
<feGaussianBlur stdDeviation="3"/>
<feColorMatrix type="matrix" values="0 0 0 0 0 0 0 0 0 0 0 0 0 0 0 0 0 0 0.25 0"/>
<feBlend mode="normal" in2="BackgroundImageFix" result="effect1_dropShadow"/>
<feBlend mode="normal" in="SourceGraphic" in2="effect1_dropShadow" result="shape"/>
</filter>
<filter id="filter5_d" x="41.0293" y="134.818" width="64.3905" height="15.8188" filterUnits="userSpaceOnUse" color-interpolation-filters="sRGB">
<feFlood flood-opacity="0" result="BackgroundImageFix"/>
<feColorMatrix in="SourceAlpha" type="matrix" values="0 0 0 0 0 0 0 0 0 0 0 0 0 0 0 0 0 0 127 0"/>
<feOffset/>
<feGaussianBlur stdDeviation="3"/>
<feColorMatrix type="matrix" values="0 0 0 0 0 0 0 0 0 0 0 0 0 0 0 0 0 0 0.25 0"/>
<feBlend mode="normal" in2="BackgroundImageFix" result="effect1_dropShadow"/>
<feBlend mode="normal" in="SourceGraphic" in2="effect1_dropShadow" result="shape"/>
</filter>
<filter id="filter6_d" x="0.541016" y="222.342" width="64.3895" height="14.4188" filterUnits="userSpaceOnUse" color-interpolation-filters="sRGB">
<feFlood flood-opacity="0" result="BackgroundImageFix"/>
<feColorMatrix in="SourceAlpha" type="matrix" values="0 0 0 0 0 0 0 0 0 0 0 0 0 0 0 0 0 0 127 0"/>
<feOffset/>
<feGaussianBlur stdDeviation="3"/>
<feColorMatrix type="matrix" values="0 0 0 0 0 0 0 0 0 0 0 0 0 0 0 0 0 0 0.25 0"/>
<feBlend mode="normal" in2="BackgroundImageFix" result="effect1_dropShadow"/>
<feBlend mode="normal" in="SourceGraphic" in2="effect1_dropShadow" result="shape"/>
</filter>
<filter id="filter7_d" x="0.650391" y="219.244" width="64.3905" height="15.8188" filterUnits="userSpaceOnUse" color-interpolation-filters="sRGB">
<feFlood flood-opacity="0" result="BackgroundImageFix"/>
<feColorMatrix in="SourceAlpha" type="matrix" values="0 0 0 0 0 0 0 0 0 0 0 0 0 0 0 0 0 0 127 0"/>
<feOffset/>
<feGaussianBlur stdDeviation="3"/>
<feColorMatrix type="matrix" values="0 0 0 0 0 0 0 0 0 0 0 0 0 0 0 0 0 0 0.25 0"/>
<feBlend mode="normal" in2="BackgroundImageFix" result="effect1_dropShadow"/>
<feBlend mode="normal" in="SourceGraphic" in2="effect1_dropShadow" result="shape"/>
</filter>
<filter id="filter8_d" x="351.732" y="152.917" width="41.4392" height="13.3592" filterUnits="userSpaceOnUse" color-interpolation-filters="sRGB">
<feFlood flood-opacity="0" result="BackgroundImageFix"/>
<feColorMatrix in="SourceAlpha" type="matrix" values="0 0 0 0 0 0 0 0 0 0 0 0 0 0 0 0 0 0 127 0"/>
<feOffset/>
<feGaussianBlur stdDeviation="3"/>
<feColorMatrix type="matrix" values="0 0 0 0 0 0 0 0 0 0 0 0 0 0 0 0 0 0 0.25 0"/>
<feBlend mode="normal" in2="BackgroundImageFix" result="effect1_dropShadow"/>
<feBlend mode="normal" in="SourceGraphic" in2="effect1_dropShadow" result="shape"/>
</filter>
<filter id="filter9_d" x="351.795" y="153.871" width="41.4397" height="14.1459" filterUnits="userSpaceOnUse" color-interpolation-filters="sRGB">
<feFlood flood-opacity="0" result="BackgroundImageFix"/>
<feColorMatrix in="SourceAlpha" type="matrix" values="0 0 0 0 0 0 0 0 0 0 0 0 0 0 0 0 0 0 127 0"/>
<feOffset/>
<feGaussianBlur stdDeviation="3"/>
<feColorMatrix type="matrix" values="0 0 0 0 0 0 0 0 0 0 0 0 0 0 0 0 0 0 0.25 0"/>
<feBlend mode="normal" in2="BackgroundImageFix" result="effect1_dropShadow"/>
<feBlend mode="normal" in="SourceGraphic" in2="effect1_dropShadow" result="shape"/>
</filter>
<filter id="filter10_d" x="329.043" y="105.476" width="41.4392" height="13.3592" filterUnits="userSpaceOnUse" color-interpolation-filters="sRGB">
<feFlood flood-opacity="0" result="BackgroundImageFix"/>
<feColorMatrix in="SourceAlpha" type="matrix" values="0 0 0 0 0 0 0 0 0 0 0 0 0 0 0 0 0 0 127 0"/>
<feOffset/>
<feGaussianBlur stdDeviation="3"/>
<feColorMatrix type="matrix" values="0 0 0 0 0 0 0 0 0 0 0 0 0 0 0 0 0 0 0.25 0"/>
<feBlend mode="normal" in2="BackgroundImageFix" result="effect1_dropShadow"/>
<feBlend mode="normal" in="SourceGraphic" in2="effect1_dropShadow" result="shape"/>
</filter>
<filter id="filter11_d" x="329.105" y="106.43" width="41.4397" height="14.1459" filterUnits="userSpaceOnUse" color-interpolation-filters="sRGB">
<feFlood flood-opacity="0" result="BackgroundImageFix"/>
<feColorMatrix in="SourceAlpha" type="matrix" values="0 0 0 0 0 0 0 0 0 0 0 0 0 0 0 0 0 0 127 0"/>
<feOffset/>
<feGaussianBlur stdDeviation="3"/>
<feColorMatrix type="matrix" values="0 0 0 0 0 0 0 0 0 0 0 0 0 0 0 0 0 0 0.25 0"/>
<feBlend mode="normal" in2="BackgroundImageFix" result="effect1_dropShadow"/>
<feBlend mode="normal" in="SourceGraphic" in2="effect1_dropShadow" result="shape"/>
</filter>
<filter id="filter12_d" x="380.646" y="219.244" width="64.3895" height="14.4188" filterUnits="userSpaceOnUse" color-interpolation-filters="sRGB">
<feFlood flood-opacity="0" result="BackgroundImageFix"/>
<feColorMatrix in="SourceAlpha" type="matrix" values="0 0 0 0 0 0 0 0 0 0 0 0 0 0 0 0 0 0 127 0"/>
<feOffset/>
<feGaussianBlur stdDeviation="3"/>
<feColorMatrix type="matrix" values="0 0 0 0 0 0 0 0 0 0 0 0 0 0 0 0 0 0 0.25 0"/>
<feBlend mode="normal" in2="BackgroundImageFix" result="effect1_dropShadow"/>
<feBlend mode="normal" in="SourceGraphic" in2="effect1_dropShadow" result="shape"/>
</filter>
<filter id="filter13_d" x="380.756" y="220.942" width="64.3905" height="15.8188" filterUnits="userSpaceOnUse" color-interpolation-filters="sRGB">
<feFlood flood-opacity="0" result="BackgroundImageFix"/>
<feColorMatrix in="SourceAlpha" type="matrix" values="0 0 0 0 0 0 0 0 0 0 0 0 0 0 0 0 0 0 127 0"/>
<feOffset/>
<feGaussianBlur stdDeviation="3"/>
<feColorMatrix type="matrix" values="0 0 0 0 0 0 0 0 0 0 0 0 0 0 0 0 0 0 0.25 0"/>
<feBlend mode="normal" in2="BackgroundImageFix" result="effect1_dropShadow"/>
<feBlend mode="normal" in="SourceGraphic" in2="effect1_dropShadow" result="shape"/>
</filter>
<filter id="filter14_d" x="340.268" y="134.818" width="64.3895" height="14.4188" filterUnits="userSpaceOnUse" color-interpolation-filters="sRGB">
<feFlood flood-opacity="0" result="BackgroundImageFix"/>
<feColorMatrix in="SourceAlpha" type="matrix" values="0 0 0 0 0 0 0 0 0 0 0 0 0 0 0 0 0 0 127 0"/>
<feOffset/>
<feGaussianBlur stdDeviation="3"/>
<feColorMatrix type="matrix" values="0 0 0 0 0 0 0 0 0 0 0 0 0 0 0 0 0 0 0.25 0"/>
<feBlend mode="normal" in2="BackgroundImageFix" result="effect1_dropShadow"/>
<feBlend mode="normal" in="SourceGraphic" in2="effect1_dropShadow" result="shape"/>
</filter>
<filter id="filter15_d" x="340.377" y="136.516" width="64.3905" height="15.8188" filterUnits="userSpaceOnUse" color-interpolation-filters="sRGB">
<feFlood flood-opacity="0" result="BackgroundImageFix"/>
<feColorMatrix in="SourceAlpha" type="matrix" values="0 0 0 0 0 0 0 0 0 0 0 0 0 0 0 0 0 0 127 0"/>
<feOffset/>
<feGaussianBlur stdDeviation="3"/>
<feColorMatrix type="matrix" values="0 0 0 0 0 0 0 0 0 0 0 0 0 0 0 0 0 0 0.25 0"/>
<feBlend mode="normal" in2="BackgroundImageFix" result="effect1_dropShadow"/>
<feBlend mode="normal" in="SourceGraphic" in2="effect1_dropShadow" result="shape"/>
</filter>
<filter id="filter16_d" x="121.363" y="4.80542" width="33.7899" height="13.006" filterUnits="userSpaceOnUse" color-interpolation-filters="sRGB">
<feFlood flood-opacity="0" result="BackgroundImageFix"/>
<feColorMatrix in="SourceAlpha" type="matrix" values="0 0 0 0 0 0 0 0 0 0 0 0 0 0 0 0 0 0 127 0"/>
<feOffset/>
<feGaussianBlur stdDeviation="3"/>
<feColorMatrix type="matrix" values="0 0 0 0 0 0 0 0 0 0 0 0 0 0 0 0 0 0 0.25 0"/>
<feBlend mode="normal" in2="BackgroundImageFix" result="effect1_dropShadow"/>
<feBlend mode="normal" in="SourceGraphic" in2="effect1_dropShadow" result="shape"/>
</filter>
<filter id="filter17_d" x="121.408" y="3.51685" width="33.7903" height="13.5883" filterUnits="userSpaceOnUse" color-interpolation-filters="sRGB">
<feFlood flood-opacity="0" result="BackgroundImageFix"/>
<feColorMatrix in="SourceAlpha" type="matrix" values="0 0 0 0 0 0 0 0 0 0 0 0 0 0 0 0 0 0 127 0"/>
<feOffset/>
<feGaussianBlur stdDeviation="3"/>
<feColorMatrix type="matrix" values="0 0 0 0 0 0 0 0 0 0 0 0 0 0 0 0 0 0 0.25 0"/>
<feBlend mode="normal" in2="BackgroundImageFix" result="effect1_dropShadow"/>
<feBlend mode="normal" in="SourceGraphic" in2="effect1_dropShadow" result="shape"/>
</filter>
<filter id="filter18_d" x="104.568" y="39.9199" width="33.7899" height="13.006" filterUnits="userSpaceOnUse" color-interpolation-filters="sRGB">
<feFlood flood-opacity="0" result="BackgroundImageFix"/>
<feColorMatrix in="SourceAlpha" type="matrix" values="0 0 0 0 0 0 0 0 0 0 0 0 0 0 0 0 0 0 127 0"/>
<feOffset/>
<feGaussianBlur stdDeviation="3"/>
<feColorMatrix type="matrix" values="0 0 0 0 0 0 0 0 0 0 0 0 0 0 0 0 0 0 0.25 0"/>
<feBlend mode="normal" in2="BackgroundImageFix" result="effect1_dropShadow"/>
<feBlend mode="normal" in="SourceGraphic" in2="effect1_dropShadow" result="shape"/>
</filter>
<filter id="filter19_d" x="104.613" y="38.6313" width="33.7903" height="13.5883" filterUnits="userSpaceOnUse" color-interpolation-filters="sRGB">
<feFlood flood-opacity="0" result="BackgroundImageFix"/>
<feColorMatrix in="SourceAlpha" type="matrix" values="0 0 0 0 0 0 0 0 0 0 0 0 0 0 0 0 0 0 127 0"/>
<feOffset/>
<feGaussianBlur stdDeviation="3"/>
<feColorMatrix type="matrix" values="0 0 0 0 0 0 0 0 0 0 0 0 0 0 0 0 0 0 0.25 0"/>
<feBlend mode="normal" in2="BackgroundImageFix" result="effect1_dropShadow"/>
<feBlend mode="normal" in="SourceGraphic" in2="effect1_dropShadow" result="shape"/>
</filter>
<filter id="filter20_d" x="86.9492" y="28.1152" width="50.777" height="13.7903" filterUnits="userSpaceOnUse" color-interpolation-filters="sRGB">
<feFlood flood-opacity="0" result="BackgroundImageFix"/>
<feColorMatrix in="SourceAlpha" type="matrix" values="0 0 0 0 0 0 0 0 0 0 0 0 0 0 0 0 0 0 127 0"/>
<feOffset/>
<feGaussianBlur stdDeviation="3"/>
<feColorMatrix type="matrix" values="0 0 0 0 0 0 0 0 0 0 0 0 0 0 0 0 0 0 0.25 0"/>
<feBlend mode="normal" in2="BackgroundImageFix" result="effect1_dropShadow"/>
<feBlend mode="normal" in="SourceGraphic" in2="effect1_dropShadow" result="shape"/>
</filter>
<filter id="filter21_d" x="87.0293" y="25.822" width="50.7777" height="14.8266" filterUnits="userSpaceOnUse" color-interpolation-filters="sRGB">
<feFlood flood-opacity="0" result="BackgroundImageFix"/>
<feColorMatrix in="SourceAlpha" type="matrix" values="0 0 0 0 0 0 0 0 0 0 0 0 0 0 0 0 0 0 127 0"/>
<feOffset/>
<feGaussianBlur stdDeviation="3"/>
<feColorMatrix type="matrix" values="0 0 0 0 0 0 0 0 0 0 0 0 0 0 0 0 0 0 0.25 0"/>
<feBlend mode="normal" in2="BackgroundImageFix" result="effect1_dropShadow"/>
<feBlend mode="normal" in="SourceGraphic" in2="effect1_dropShadow" result="shape"/>
</filter>
<filter id="filter22_d" x="57.0625" y="90.6045" width="50.777" height="13.7903" filterUnits="userSpaceOnUse" color-interpolation-filters="sRGB">
<feFlood flood-opacity="0" result="BackgroundImageFix"/>
<feColorMatrix in="SourceAlpha" type="matrix" values="0 0 0 0 0 0 0 0 0 0 0 0 0 0 0 0 0 0 127 0"/>
<feOffset/>
<feGaussianBlur stdDeviation="3"/>
<feColorMatrix type="matrix" values="0 0 0 0 0 0 0 0 0 0 0 0 0 0 0 0 0 0 0.25 0"/>
<feBlend mode="normal" in2="BackgroundImageFix" result="effect1_dropShadow"/>
<feBlend mode="normal" in="SourceGraphic" in2="effect1_dropShadow" result="shape"/>
</filter>
<filter id="filter23_d" x="57.1426" y="88.3113" width="50.7777" height="14.8266" filterUnits="userSpaceOnUse" color-interpolation-filters="sRGB">
<feFlood flood-opacity="0" result="BackgroundImageFix"/>
<feColorMatrix in="SourceAlpha" type="matrix" values="0 0 0 0 0 0 0 0 0 0 0 0 0 0 0 0 0 0 127 0"/>
<feOffset/>
<feGaussianBlur stdDeviation="3"/>
<feColorMatrix type="matrix" values="0 0 0 0 0 0 0 0 0 0 0 0 0 0 0 0 0 0 0.25 0"/>
<feBlend mode="normal" in2="BackgroundImageFix" result="effect1_dropShadow"/>
<feBlend mode="normal" in="SourceGraphic" in2="effect1_dropShadow" result="shape"/>
</filter>
<filter id="filter24_d" x="317.006" y="39.2183" width="33.7899" height="13.006" filterUnits="userSpaceOnUse" color-interpolation-filters="sRGB">
<feFlood flood-opacity="0" result="BackgroundImageFix"/>
<feColorMatrix in="SourceAlpha" type="matrix" values="0 0 0 0 0 0 0 0 0 0 0 0 0 0 0 0 0 0 127 0"/>
<feOffset/>
<feGaussianBlur stdDeviation="3"/>
<feColorMatrix type="matrix" values="0 0 0 0 0 0 0 0 0 0 0 0 0 0 0 0 0 0 0.25 0"/>
<feBlend mode="normal" in2="BackgroundImageFix" result="effect1_dropShadow"/>
<feBlend mode="normal" in="SourceGraphic" in2="effect1_dropShadow" result="shape"/>
</filter>
<filter id="filter25_d" x="317.051" y="39.9246" width="33.7903" height="13.5883" filterUnits="userSpaceOnUse" color-interpolation-filters="sRGB">
<feFlood flood-opacity="0" result="BackgroundImageFix"/>
<feColorMatrix in="SourceAlpha" type="matrix" values="0 0 0 0 0 0 0 0 0 0 0 0 0 0 0 0 0 0 127 0"/>
<feOffset/>
<feGaussianBlur stdDeviation="3"/>
<feColorMatrix type="matrix" values="0 0 0 0 0 0 0 0 0 0 0 0 0 0 0 0 0 0 0.25 0"/>
<feBlend mode="normal" in2="BackgroundImageFix" result="effect1_dropShadow"/>
<feBlend mode="normal" in="SourceGraphic" in2="effect1_dropShadow" result="shape"/>
</filter>
<filter id="filter26_d" x="300.211" y="4.10376" width="33.7899" height="13.006" filterUnits="userSpaceOnUse" color-interpolation-filters="sRGB">
<feFlood flood-opacity="0" result="BackgroundImageFix"/>
<feColorMatrix in="SourceAlpha" type="matrix" values="0 0 0 0 0 0 0 0 0 0 0 0 0 0 0 0 0 0 127 0"/>
<feOffset/>
<feGaussianBlur stdDeviation="3"/>
<feColorMatrix type="matrix" values="0 0 0 0 0 0 0 0 0 0 0 0 0 0 0 0 0 0 0.25 0"/>
<feBlend mode="normal" in2="BackgroundImageFix" result="effect1_dropShadow"/>
<feBlend mode="normal" in="SourceGraphic" in2="effect1_dropShadow" result="shape"/>
</filter>
<filter id="filter27_d" x="300.256" y="4.81006" width="33.7903" height="13.5883" filterUnits="userSpaceOnUse" color-interpolation-filters="sRGB">
<feFlood flood-opacity="0" result="BackgroundImageFix"/>
<feColorMatrix in="SourceAlpha" type="matrix" values="0 0 0 0 0 0 0 0 0 0 0 0 0 0 0 0 0 0 127 0"/>
<feOffset/>
<feGaussianBlur stdDeviation="3"/>
<feColorMatrix type="matrix" values="0 0 0 0 0 0 0 0 0 0 0 0 0 0 0 0 0 0 0.25 0"/>
<feBlend mode="normal" in2="BackgroundImageFix" result="effect1_dropShadow"/>
<feBlend mode="normal" in="SourceGraphic" in2="effect1_dropShadow" result="shape"/>
</filter>
<filter id="filter28_d" x="338.404" y="88.3113" width="50.777" height="13.7903" filterUnits="userSpaceOnUse" color-interpolation-filters="sRGB">
<feFlood flood-opacity="0" result="BackgroundImageFix"/>
<feColorMatrix in="SourceAlpha" type="matrix" values="0 0 0 0 0 0 0 0 0 0 0 0 0 0 0 0 0 0 127 0"/>
<feOffset/>
<feGaussianBlur stdDeviation="3"/>
<feColorMatrix type="matrix" values="0 0 0 0 0 0 0 0 0 0 0 0 0 0 0 0 0 0 0.25 0"/>
<feBlend mode="normal" in2="BackgroundImageFix" result="effect1_dropShadow"/>
<feBlend mode="normal" in="SourceGraphic" in2="effect1_dropShadow" result="shape"/>
</filter>
<filter id="filter29_d" x="338.484" y="89.5681" width="50.7777" height="14.8266" filterUnits="userSpaceOnUse" color-interpolation-filters="sRGB">
<feFlood flood-opacity="0" result="BackgroundImageFix"/>
<feColorMatrix in="SourceAlpha" type="matrix" values="0 0 0 0 0 0 0 0 0 0 0 0 0 0 0 0 0 0 127 0"/>
<feOffset/>
<feGaussianBlur stdDeviation="3"/>
<feColorMatrix type="matrix" values="0 0 0 0 0 0 0 0 0 0 0 0 0 0 0 0 0 0 0.25 0"/>
<feBlend mode="normal" in2="BackgroundImageFix" result="effect1_dropShadow"/>
<feBlend mode="normal" in="SourceGraphic" in2="effect1_dropShadow" result="shape"/>
</filter>
<filter id="filter30_d" x="308.518" y="25.822" width="50.777" height="13.7903" filterUnits="userSpaceOnUse" color-interpolation-filters="sRGB">
<feFlood flood-opacity="0" result="BackgroundImageFix"/>
<feColorMatrix in="SourceAlpha" type="matrix" values="0 0 0 0 0 0 0 0 0 0 0 0 0 0 0 0 0 0 127 0"/>
<feOffset/>
<feGaussianBlur stdDeviation="3"/>
<feColorMatrix type="matrix" values="0 0 0 0 0 0 0 0 0 0 0 0 0 0 0 0 0 0 0.25 0"/>
<feBlend mode="normal" in2="BackgroundImageFix" result="effect1_dropShadow"/>
<feBlend mode="normal" in="SourceGraphic" in2="effect1_dropShadow" result="shape"/>
</filter>
<filter id="filter31_d" x="308.598" y="27.0789" width="50.7777" height="14.8266" filterUnits="userSpaceOnUse" color-interpolation-filters="sRGB">
<feFlood flood-opacity="0" result="BackgroundImageFix"/>
<feColorMatrix in="SourceAlpha" type="matrix" values="0 0 0 0 0 0 0 0 0 0 0 0 0 0 0 0 0 0 127 0"/>
<feOffset/>
<feGaussianBlur stdDeviation="3"/>
<feColorMatrix type="matrix" values="0 0 0 0 0 0 0 0 0 0 0 0 0 0 0 0 0 0 0.25 0"/>
<feBlend mode="normal" in2="BackgroundImageFix" result="effect1_dropShadow"/>
<feBlend mode="normal" in="SourceGraphic" in2="effect1_dropShadow" result="shape"/>
</filter>
</defs>
</svg>
