<svg width="269" height="416" viewBox="0 0 269 416" fill="none" xmlns="http://www.w3.org/2000/svg">
<path d="M235.23 236.478C235.867 237.008 236.812 236.922 237.342 236.285L245.978 225.908C246.508 225.271 246.421 224.326 245.784 223.796C245.148 223.266 244.202 223.352 243.672 223.989L235.996 233.213L226.772 225.537C226.135 225.007 225.189 225.094 224.66 225.731C224.13 226.367 224.216 227.313 224.853 227.843L235.23 236.478ZM159.722 113.432C159.18 114.831 159.179 114.83 159.179 114.83C159.179 114.83 159.179 114.83 159.18 114.831C159.181 114.831 159.183 114.832 159.186 114.833C159.192 114.835 159.202 114.839 159.216 114.845C159.244 114.856 159.288 114.874 159.348 114.898C159.468 114.947 159.649 115.023 159.889 115.126C160.368 115.334 161.08 115.653 161.995 116.095C163.823 116.98 166.459 118.355 169.657 120.303C176.051 124.201 184.685 130.392 193.594 139.544C211.395 157.831 230.347 187.99 234.696 235.462L237.683 235.189C233.267 186.979 213.986 156.191 195.744 137.452C186.632 128.091 177.791 121.748 171.218 117.742C167.931 115.738 165.209 114.317 163.301 113.395C162.347 112.933 161.596 112.596 161.079 112.373C160.821 112.261 160.621 112.178 160.484 112.122C160.415 112.094 160.362 112.072 160.325 112.058C160.307 112.05 160.292 112.044 160.282 112.04C160.277 112.038 160.273 112.037 160.269 112.035C160.268 112.035 160.266 112.034 160.266 112.034C160.264 112.033 160.263 112.033 159.722 113.432Z" fill="#F27500"/>
<path d="M27.8668 0.731045L0.378906 33.145L28.4138 56.9193L55.9017 24.5053L27.8668 0.731045Z" fill="#F27500"/>
<path d="M30.2886 2.78476L2.80078 35.1987L30.8357 58.973L58.3235 26.559L30.2886 2.78476Z" fill="#FDE01B"/>
<path d="M29.8668 182.731L2.37891 215.145L30.4138 238.919L57.9017 206.505L29.8668 182.731Z" fill="#F27500"/>
<path d="M32.2886 184.785L4.80078 217.199L32.8357 240.973L60.3235 208.559L32.2886 184.785Z" fill="#FDE01B"/>
<path d="M93.7 63.242C94.4725 63.541 95.3413 63.1571 95.6403 62.3846L100.513 49.7947C100.812 49.0222 100.428 48.1535 99.6559 47.8544C98.8833 47.5554 98.0146 47.9393 97.7156 48.7118L93.384 59.9028L82.193 55.5712C81.4205 55.2722 80.5518 55.6561 80.2527 56.4286C79.9537 57.2012 80.3376 58.0699 81.1101 58.3689L93.7 63.242ZM58.3781 34.4983C58.3588 35.9982 58.358 35.9982 58.3574 35.9982C58.3573 35.9982 58.3568 35.9982 58.3566 35.9982C58.3562 35.9982 58.3562 35.9982 58.3565 35.9982C58.3572 35.9982 58.3593 35.9982 58.3628 35.9983C58.3699 35.9985 58.3826 35.9988 58.4008 35.9993C58.4372 36.0005 58.4957 36.0026 58.5751 36.0065C58.7339 36.0144 58.9765 36.0296 59.294 36.0583C59.9293 36.1158 60.8636 36.2274 62.0276 36.4438C64.3573 36.8767 67.5969 37.7269 71.1998 39.3936C78.3818 42.7159 87.0603 49.3037 92.8694 62.4494L95.6134 61.2368C89.4753 47.3465 80.2222 40.2618 72.4594 36.6708C68.5898 34.8808 65.1038 33.9641 62.5758 33.4943C61.311 33.2592 60.2835 33.1355 59.5642 33.0705C59.2045 33.038 58.9215 33.0201 58.7242 33.0103C58.6255 33.0053 58.5482 33.0025 58.4934 33.0008C58.466 32.9999 58.4442 32.9994 58.4282 32.999C58.4202 32.9988 58.4136 32.9987 58.4085 32.9986C58.4059 32.9986 58.4037 32.9985 58.4019 32.9985C58.401 32.9985 58.3999 32.9985 58.3994 32.9985C58.3984 32.9985 58.3975 32.9985 58.3781 34.4983Z" fill="#F27500"/>
<path d="M95.9446 202.688C96.7392 202.454 97.5734 202.908 97.8079 203.702L101.629 216.65C101.863 217.445 101.409 218.279 100.615 218.514C99.8203 218.748 98.9861 218.294 98.7516 217.5L95.3551 205.99L83.8458 209.387C83.0513 209.621 82.2171 209.167 81.9826 208.373C81.7481 207.578 82.2021 206.744 82.9967 206.509L95.9446 202.688ZM58.3784 228.43C58.4825 226.933 58.4818 226.933 58.4811 226.933C58.481 226.933 58.4805 226.933 58.4803 226.933C58.4799 226.933 58.4799 226.933 58.4802 226.933C58.4809 226.933 58.483 226.933 58.4865 226.933C58.4936 226.934 58.5063 226.935 58.5245 226.935C58.5609 226.937 58.6193 226.94 58.6988 226.943C58.8577 226.948 59.1007 226.953 59.4195 226.95C60.0574 226.945 60.9976 226.911 62.1756 226.791C64.5329 226.551 67.8315 225.97 71.5593 224.605C78.9902 221.885 88.1811 216.033 95.0517 203.41L97.6867 204.844C90.427 218.183 80.6225 224.482 72.5906 227.423C68.587 228.888 65.0373 229.515 62.4793 229.775C61.1995 229.906 60.1653 229.944 59.4431 229.95C59.0819 229.953 58.7984 229.947 58.6009 229.941C58.5022 229.938 58.4249 229.934 58.3702 229.932C58.3428 229.93 58.321 229.929 58.305 229.928C58.297 229.927 58.2904 229.927 58.2853 229.927C58.2828 229.926 58.2806 229.926 58.2788 229.926C58.2778 229.926 58.2767 229.926 58.2763 229.926C58.2753 229.926 58.2744 229.926 58.3784 228.43Z" fill="#F27500"/>
<path d="M124.379 91.2319L76.3789 62.7319L77.3789 178.732L124.379 210.732V91.2319Z" fill="#FDE01B"/>
<path d="M88.3789 186.232V69.7319L76.3788 62.7319L77.3788 178.732L88.3789 186.232Z" fill="#F27500"/>
<path d="M84.3789 183.732V67.2319L80.3789 64.7319V180.732L84.3789 183.732Z" fill="#FDE01B"/>
<path d="M92.3789 188.732V72.2319L88.3789 69.7319V185.732L92.3789 188.732Z" fill="#FDE01B"/>
<path d="M254.955 287.955L206.955 259.455L207.955 375.455L254.955 407.455V287.955Z" fill="#FDE01B"/>
<path d="M218.955 382.955V266.455L206.955 259.455L207.955 375.455L218.955 382.955Z" fill="#F27500"/>
<path d="M214.955 380.455V263.955L210.955 261.455V377.455L214.955 380.455Z" fill="#FDE01B"/>
<path d="M222.955 385.455V268.955L218.955 266.455V382.455L222.955 385.455Z" fill="#FDE01B"/>
<g filter="url(#filter0_d)">
<rect x="261.012" y="291.649" width="66" height="3" transform="rotate(-152.05 261.012 291.649)" fill="#F27500"/>
</g>
<rect x="262.139" y="289.598" width="66" height="4.76386" transform="rotate(-152.05 262.139 289.598)" fill="#FDE01B"/>
<g filter="url(#filter1_d)">
<rect x="256.256" y="409.347" width="66" height="3" transform="rotate(-152.05 256.256 409.347)" fill="#F27500"/>
</g>
<g filter="url(#filter2_d)">
<rect x="257.139" y="407.394" width="66" height="4.76386" transform="rotate(-152.05 257.139 407.394)" fill="#FDE01B"/>
</g>
<defs>
<filter id="filter0_d" x="196.711" y="252.064" width="71.7076" height="45.5845" filterUnits="userSpaceOnUse" color-interpolation-filters="sRGB">
<feFlood flood-opacity="0" result="BackgroundImageFix"/>
<feColorMatrix in="SourceAlpha" type="matrix" values="0 0 0 0 0 0 0 0 0 0 0 0 0 0 0 0 0 0 127 0"/>
<feOffset/>
<feGaussianBlur stdDeviation="3"/>
<feColorMatrix type="matrix" values="0 0 0 0 0 0 0 0 0 0 0 0 0 0 0 0 0 0 0.25 0"/>
<feBlend mode="normal" in2="BackgroundImageFix" result="effect1_dropShadow"/>
<feBlend mode="normal" in="SourceGraphic" in2="effect1_dropShadow" result="shape"/>
</filter>
<filter id="filter1_d" x="191.955" y="369.763" width="71.7076" height="45.5845" filterUnits="userSpaceOnUse" color-interpolation-filters="sRGB">
<feFlood flood-opacity="0" result="BackgroundImageFix"/>
<feColorMatrix in="SourceAlpha" type="matrix" values="0 0 0 0 0 0 0 0 0 0 0 0 0 0 0 0 0 0 127 0"/>
<feOffset/>
<feGaussianBlur stdDeviation="3"/>
<feColorMatrix type="matrix" values="0 0 0 0 0 0 0 0 0 0 0 0 0 0 0 0 0 0 0.25 0"/>
<feBlend mode="normal" in2="BackgroundImageFix" result="effect1_dropShadow"/>
<feBlend mode="normal" in="SourceGraphic" in2="effect1_dropShadow" result="shape"/>
</filter>
<filter id="filter2_d" x="192.838" y="366.251" width="72.5343" height="47.1426" filterUnits="userSpaceOnUse" color-interpolation-filters="sRGB">
<feFlood flood-opacity="0" result="BackgroundImageFix"/>
<feColorMatrix in="SourceAlpha" type="matrix" values="0 0 0 0 0 0 0 0 0 0 0 0 0 0 0 0 0 0 127 0"/>
<feOffset/>
<feGaussianBlur stdDeviation="3"/>
<feColorMatrix type="matrix" values="0 0 0 0 0 0 0 0 0 0 0 0 0 0 0 0 0 0 0.25 0"/>
<feBlend mode="normal" in2="BackgroundImageFix" result="effect1_dropShadow"/>
<feBlend mode="normal" in="SourceGraphic" in2="effect1_dropShadow" result="shape"/>
</filter>
</defs>
</svg>
