<svg width="490" height="367" viewBox="0 0 490 367" fill="none" xmlns="http://www.w3.org/2000/svg">
<path d="M472.092 82.282L425.092 66.282V176.282L472.092 208.282V82.282Z" fill="#FDE01B"/>
<path d="M436.092 183.782V67.282L424.092 63.282L425.092 176.282L436.092 183.782Z" fill="#F27500"/>
<path d="M432.092 181.282V66.782L428.092 65.282V178.282L432.092 181.282Z" fill="#FDE01B"/>
<path d="M440.092 186.282V69.782L436.092 67.282V183.282L440.092 186.282Z" fill="#FDE01B"/>
<path d="M472.092 201.782L425.092 174.282V289.282L472.092 302.782V201.782Z" fill="#FDE01B"/>
<path d="M436.092 296.782V180.282L425.092 173.782V289.282L436.092 296.782Z" fill="#F27500"/>
<path d="M432.092 294.282V177.782L428.092 175.282V291.282L432.092 294.282Z" fill="#FDE01B"/>
<path d="M440.092 299.282V182.782L436.092 180.282V296.282L440.092 299.282Z" fill="#FDE01B"/>
<g filter="url(#filter0_d)">
<rect x="481.844" y="85.7346" width="66" height="3" transform="rotate(-164.977 481.844 85.7346)" fill="#F27500"/>
</g>
<g filter="url(#filter1_d)">
<rect x="482.266" y="83.6335" width="66" height="4.76387" transform="rotate(-164.977 482.266 83.6335)" fill="#FDE01B"/>
</g>
<g filter="url(#filter2_d)">
<rect x="419.127" y="287.325" width="66" height="3" transform="rotate(15.0226 419.127 287.325)" fill="#F27500"/>
</g>
<g filter="url(#filter3_d)">
<rect x="418.705" y="289.426" width="66" height="4.76387" transform="rotate(15.0226 418.705 289.426)" fill="#FDE01B"/>
</g>
<path d="M37.5816 0.281094L10.0938 32.6951L38.1286 56.4694L65.6165 24.0554L37.5816 0.281094Z" fill="#F27500"/>
<path d="M40.0035 2.33481L12.5156 34.7488L40.5505 58.5231L68.0384 26.1091L40.0035 2.33481Z" fill="#FDE01B"/>
<path d="M27.5797 304.282L0.0917969 336.696L28.1267 360.47L55.6145 328.056L27.5797 304.282Z" fill="#F27500"/>
<path d="M30.0015 306.336L2.51367 338.75L30.5485 362.524L58.0364 330.11L30.0015 306.336Z" fill="#FDE01B"/>
<path d="M103.415 62.7925C104.187 63.0916 105.056 62.7077 105.355 61.9351L110.228 49.3453C110.527 48.5727 110.143 47.704 109.371 47.405C108.598 47.1059 107.729 47.4898 107.43 48.2624L103.099 59.4533L91.9079 55.1217C91.1353 54.8227 90.2666 55.2066 89.9676 55.9792C89.6685 56.7517 90.0524 57.6205 90.825 57.9195L103.415 62.7925ZM68.093 34.0489C68.0736 35.5487 68.0729 35.5487 68.0722 35.5487C68.0722 35.5487 68.0716 35.5487 68.0714 35.5487C68.071 35.5487 68.071 35.5487 68.0714 35.5487C68.072 35.5487 68.0742 35.5488 68.0777 35.5488C68.0847 35.549 68.0974 35.5493 68.1156 35.5499C68.1521 35.551 68.2105 35.5531 68.2899 35.5571C68.4488 35.565 68.6913 35.5801 69.0089 35.6088C69.6442 35.6663 70.5784 35.778 71.7425 35.9943C74.0721 36.4272 77.3118 37.2775 80.9147 38.9441C88.0967 42.2665 96.7752 48.8542 102.584 61.9999L105.328 60.7874C99.1902 46.897 89.937 39.8124 82.1742 36.2213C78.3047 34.4313 74.8186 33.5146 72.2906 33.0448C71.0259 32.8098 69.9983 32.6861 69.2791 32.621C68.9193 32.5885 68.6364 32.5706 68.439 32.5608C68.3404 32.5559 68.2631 32.553 68.2083 32.5513C68.1809 32.5504 68.1591 32.5499 68.143 32.5496C68.135 32.5494 68.1284 32.5493 68.1233 32.5492C68.1208 32.5491 68.1186 32.5491 68.1167 32.5491C68.1158 32.549 68.1147 32.549 68.1143 32.549C68.1133 32.549 68.1123 32.549 68.093 34.0489Z" fill="#F27500"/>
<path d="M93.6595 324.238C94.454 324.004 95.2882 324.458 95.5227 325.252L99.3438 338.2C99.5783 338.995 99.1242 339.829 98.3297 340.063C97.5351 340.298 96.7009 339.844 96.4664 339.049L93.0699 327.54L81.5607 330.937C80.7661 331.171 79.9319 330.717 79.6974 329.922C79.463 329.128 79.917 328.294 80.7115 328.059L93.6595 324.238ZM56.0933 349.979C56.1973 348.483 56.1966 348.483 56.196 348.483C56.1959 348.483 56.1953 348.483 56.1951 348.483C56.1948 348.483 56.1947 348.483 56.1951 348.483C56.1958 348.483 56.1979 348.483 56.2014 348.483C56.2084 348.484 56.2211 348.484 56.2393 348.485C56.2757 348.487 56.3341 348.49 56.4136 348.492C56.5726 348.498 56.8155 348.502 57.1344 348.5C57.7722 348.495 58.7125 348.461 59.8904 348.341C62.2478 348.101 65.5464 347.52 69.2741 346.155C76.7051 343.435 85.896 337.583 92.7665 324.96L95.4015 326.394C88.1418 339.732 78.3373 346.032 70.3055 348.972C66.3018 350.438 62.7522 351.065 60.1941 351.325C58.9143 351.455 57.8801 351.494 57.1579 351.5C56.7967 351.503 56.5132 351.497 56.3158 351.491C56.217 351.488 56.1398 351.484 56.085 351.481C56.0576 351.48 56.0359 351.479 56.0199 351.478C56.0119 351.477 56.0053 351.477 56.0002 351.476C55.9976 351.476 55.9954 351.476 55.9936 351.476C55.9927 351.476 55.9916 351.476 55.9911 351.476C55.9901 351.476 55.9892 351.476 56.0933 349.979Z" fill="#F27500"/>
<path d="M359.646 163.191C360.315 162.702 360.46 161.763 359.971 161.095L351.999 150.2C351.509 149.532 350.571 149.386 349.902 149.876C349.234 150.365 349.088 151.304 349.578 151.972L356.664 161.656L346.98 168.743C346.312 169.232 346.166 170.17 346.656 170.839C347.145 171.508 348.083 171.653 348.752 171.164L359.646 163.191ZM161.293 172.841C162.076 174.121 162.076 174.121 162.075 174.121C162.075 174.121 162.075 174.122 162.075 174.121C162.076 174.121 162.077 174.12 162.079 174.119C162.083 174.117 162.09 174.112 162.101 174.106C162.123 174.093 162.158 174.072 162.206 174.044C162.302 173.988 162.453 173.903 162.658 173.79C163.068 173.564 163.697 173.231 164.555 172.811C166.27 171.97 168.897 170.784 172.506 169.424C179.722 166.704 190.868 163.288 206.496 160.558C237.752 155.098 286.952 152.377 358.531 163.463L358.99 160.498C287.132 149.369 237.599 152.079 205.98 157.603C190.171 160.365 178.844 163.829 171.448 166.617C167.75 168.011 165.035 169.235 163.235 170.117C162.335 170.557 161.664 170.913 161.212 171.161C160.987 171.285 160.816 171.382 160.699 171.45C160.641 171.484 160.596 171.51 160.565 171.529C160.549 171.539 160.536 171.546 160.527 171.552C160.523 171.554 160.519 171.557 160.516 171.558C160.515 171.559 160.513 171.56 160.513 171.561C160.511 171.561 160.51 171.562 161.293 172.841Z" fill="#F27500"/>
<path d="M123.592 93.7815L75.5918 65.2815L76.5918 181.281L123.592 213.281V93.7815Z" fill="#FDE01B"/>
<path d="M87.5918 188.782V72.2815L75.5917 65.2815L76.5917 181.281L87.5918 188.782Z" fill="#F27500"/>
<path d="M83.5918 186.282V69.7815L79.5918 67.2815V183.281L83.5918 186.282Z" fill="#FDE01B"/>
<path d="M91.5918 191.282V74.7815L87.5918 72.2815V188.281L91.5918 191.282Z" fill="#FDE01B"/>
<path d="M123.592 202.781L75.5918 174.281L76.5918 290.281L123.592 322.281V202.781Z" fill="#FDE01B"/>
<path d="M87.5918 297.782V181.282L75.5917 174.281L76.5917 290.281L87.5918 297.782Z" fill="#F27500"/>
<path d="M83.5918 295.282V178.782L79.5918 176.281V292.281L83.5918 295.282Z" fill="#FDE01B"/>
<path d="M91.5918 300.282V183.782L87.5918 181.281V297.281L91.5918 300.282Z" fill="#FDE01B"/>
<path d="M124.592 173.781L74.0918 148.781V210.281L124.592 232.781V173.781Z" fill="#E6E6E6" fill-opacity="0.5"/>
<defs>
<filter id="filter0_d" x="412.1" y="59.73" width="76.5219" height="32.0047" filterUnits="userSpaceOnUse" color-interpolation-filters="sRGB">
<feFlood flood-opacity="0" result="BackgroundImageFix"/>
<feColorMatrix in="SourceAlpha" type="matrix" values="0 0 0 0 0 0 0 0 0 0 0 0 0 0 0 0 0 0 127 0"/>
<feOffset/>
<feGaussianBlur stdDeviation="3"/>
<feColorMatrix type="matrix" values="0 0 0 0 0 0 0 0 0 0 0 0 0 0 0 0 0 0 0.25 0"/>
<feBlend mode="normal" in2="BackgroundImageFix" result="effect1_dropShadow"/>
<feBlend mode="normal" in="SourceGraphic" in2="effect1_dropShadow" result="shape"/>
</filter>
<filter id="filter1_d" x="412.521" y="55.9253" width="76.9791" height="33.7083" filterUnits="userSpaceOnUse" color-interpolation-filters="sRGB">
<feFlood flood-opacity="0" result="BackgroundImageFix"/>
<feColorMatrix in="SourceAlpha" type="matrix" values="0 0 0 0 0 0 0 0 0 0 0 0 0 0 0 0 0 0 127 0"/>
<feOffset/>
<feGaussianBlur stdDeviation="3"/>
<feColorMatrix type="matrix" values="0 0 0 0 0 0 0 0 0 0 0 0 0 0 0 0 0 0 0.25 0"/>
<feBlend mode="normal" in2="BackgroundImageFix" result="effect1_dropShadow"/>
<feBlend mode="normal" in="SourceGraphic" in2="effect1_dropShadow" result="shape"/>
</filter>
<filter id="filter2_d" x="412.35" y="281.325" width="76.5219" height="32.0047" filterUnits="userSpaceOnUse" color-interpolation-filters="sRGB">
<feFlood flood-opacity="0" result="BackgroundImageFix"/>
<feColorMatrix in="SourceAlpha" type="matrix" values="0 0 0 0 0 0 0 0 0 0 0 0 0 0 0 0 0 0 127 0"/>
<feOffset/>
<feGaussianBlur stdDeviation="3"/>
<feColorMatrix type="matrix" values="0 0 0 0 0 0 0 0 0 0 0 0 0 0 0 0 0 0 0.25 0"/>
<feBlend mode="normal" in2="BackgroundImageFix" result="effect1_dropShadow"/>
<feBlend mode="normal" in="SourceGraphic" in2="effect1_dropShadow" result="shape"/>
</filter>
<filter id="filter3_d" x="411.471" y="283.426" width="76.9791" height="33.7083" filterUnits="userSpaceOnUse" color-interpolation-filters="sRGB">
<feFlood flood-opacity="0" result="BackgroundImageFix"/>
<feColorMatrix in="SourceAlpha" type="matrix" values="0 0 0 0 0 0 0 0 0 0 0 0 0 0 0 0 0 0 127 0"/>
<feOffset/>
<feGaussianBlur stdDeviation="3"/>
<feColorMatrix type="matrix" values="0 0 0 0 0 0 0 0 0 0 0 0 0 0 0 0 0 0 0.25 0"/>
<feBlend mode="normal" in2="BackgroundImageFix" result="effect1_dropShadow"/>
<feBlend mode="normal" in="SourceGraphic" in2="effect1_dropShadow" result="shape"/>
</filter>
</defs>
</svg>
