<svg width="604" height="286" viewBox="0 0 604 286" fill="none" xmlns="http://www.w3.org/2000/svg">
<path d="M334.631 1.43652C325.561 1.43652 318.13 8.68846 318.13 17.5401L317.365 257.494C317.365 266.452 324.796 273.597 333.866 273.597C343.046 273.597 350.368 266.345 350.368 257.494L351.132 17.5401C351.132 8.68846 343.811 1.43652 334.631 1.43652Z" fill="#F27500"/>
<path d="M336.708 1.43652C327.528 1.43652 320.206 8.68846 320.206 17.5401L319.441 257.494C319.441 266.452 326.872 273.597 335.943 273.597C345.122 273.597 352.444 266.345 352.444 257.494L353.209 17.5401C353.209 8.68846 345.778 1.43652 336.708 1.43652Z" fill="#FDE01B"/>
<path d="M582.694 3.56958C573.624 3.56958 566.193 10.8215 566.193 19.6731L565.428 259.627C565.428 268.585 572.859 275.73 581.929 275.73C591.108 275.73 598.43 268.478 598.43 259.627L599.195 19.6731C599.195 10.8215 591.873 3.56958 582.694 3.56958Z" fill="#F27500"/>
<path d="M584.77 3.56958C575.591 3.56958 568.269 10.8215 568.269 19.6731L567.504 259.627C567.504 268.585 574.935 275.73 584.005 275.73C593.184 275.73 600.506 268.478 600.506 259.627L601.271 19.6731C601.271 10.8215 593.84 3.56958 584.77 3.56958Z" fill="#FDE01B"/>
<g filter="url(#filter0_d)">
<path d="M597.338 17.2202C597.338 8.36857 589.907 1.11664 580.837 1.11664L334.959 0.370106C325.779 0.370106 318.458 7.62204 318.458 16.4737C318.458 25.4319 325.889 32.5772 334.959 32.5772L580.837 33.3237C589.907 33.3237 597.338 26.1785 597.338 17.2202Z" fill="#F27500"/>
<path d="M599.523 19.2466C599.523 10.2883 592.092 3.14301 583.022 3.14301L337.144 2.39647C327.965 2.39647 320.643 9.6484 320.643 18.5C320.643 27.4583 328.074 34.6036 337.144 34.6036L583.022 35.3501C592.092 35.3501 599.523 28.0982 599.523 19.2466Z" fill="#FDE01B"/>
</g>
<g filter="url(#filter1_d)">
<path d="M595.152 258.24C595.152 249.389 587.721 242.137 578.651 242.137L332.773 241.39C323.594 241.39 316.272 248.642 316.272 257.494C316.272 266.452 323.703 273.597 332.773 273.597L578.651 274.344C587.721 274.344 595.152 267.198 595.152 258.24Z" fill="#F27500"/>
<path d="M597.338 260.267C597.338 251.308 589.907 244.163 580.837 244.163L334.959 243.416C325.779 243.416 318.458 250.668 318.458 259.52C318.458 268.478 325.889 275.624 334.959 275.624L580.837 276.37C589.907 276.37 597.338 269.118 597.338 260.267Z" fill="#FDE01B"/>
</g>
<path d="M17.2918 13.5889C8.42768 13.5889 1.16554 20.8365 1.16554 29.6829L0.417969 269.495C0.417969 278.448 7.6801 285.589 16.5442 285.589C25.5151 285.589 32.6704 278.341 32.6704 269.495L33.418 29.6829C33.418 20.8365 26.2626 13.5889 17.2918 13.5889Z" fill="#F27500"/>
<path d="M20.2918 13.5889C11.3209 13.5889 4.16554 20.8365 4.16554 29.6829L3.41797 269.495C3.41797 278.448 10.6801 285.589 19.5442 285.589C28.5151 285.589 35.6704 278.341 35.6704 269.495L36.418 29.6829C36.418 20.8365 29.1558 13.5889 20.2918 13.5889Z" fill="#FDE01B"/>
<path d="M226.883 126.161C227.211 126.413 227.682 126.352 227.934 126.024C228.187 125.696 228.126 125.225 227.798 124.972C206.814 108.808 183.906 101.476 159.057 102.999C134.203 104.522 114.678 114.459 100.517 132.843C100.264 133.171 100.325 133.642 100.653 133.895C100.982 134.147 101.452 134.086 101.705 133.758C115.021 116.472 135.674 105.934 159.148 104.496C182.627 103.058 206.997 110.843 226.883 126.161Z" fill="#1037D0" stroke="#1037D0" stroke-width="1.5" stroke-linecap="round" stroke-linejoin="round"/>
<path d="M210.5 129.154L230.651 127.396L221.903 108.715" stroke="#1037D0" stroke-width="2.5" stroke-linecap="round" stroke-linejoin="round"/>
<path d="M56.418 276.589C61.3302 276.275 71.1548 269.816 71.1548 246.485C71.1548 217.322 64.1373 149.589 76.418 149.589" stroke="#1037D0" stroke-width="3" stroke-linecap="round" stroke-linejoin="round"/>
<path d="M56.418 22.5889C61.3302 22.9024 71.1548 29.3622 71.1548 52.6926C71.1548 81.8555 64.1373 149.589 76.418 149.589" stroke="#1037D0" stroke-width="3" stroke-linecap="round" stroke-linejoin="round"/>
<defs>
<filter id="filter0_d" x="314.457" y="0.370117" width="289.066" height="42.98" filterUnits="userSpaceOnUse" color-interpolation-filters="sRGB">
<feFlood flood-opacity="0" result="BackgroundImageFix"/>
<feColorMatrix in="SourceAlpha" type="matrix" values="0 0 0 0 0 0 0 0 0 0 0 0 0 0 0 0 0 0 127 0"/>
<feOffset dy="4"/>
<feGaussianBlur stdDeviation="2"/>
<feColorMatrix type="matrix" values="0 0 0 0 0 0 0 0 0 0 0 0 0 0 0 0 0 0 0.25 0"/>
<feBlend mode="normal" in2="BackgroundImageFix" result="effect1_dropShadow"/>
<feBlend mode="normal" in="SourceGraphic" in2="effect1_dropShadow" result="shape"/>
</filter>
<filter id="filter1_d" x="311.271" y="235.39" width="289.066" height="42.98" filterUnits="userSpaceOnUse" color-interpolation-filters="sRGB">
<feFlood flood-opacity="0" result="BackgroundImageFix"/>
<feColorMatrix in="SourceAlpha" type="matrix" values="0 0 0 0 0 0 0 0 0 0 0 0 0 0 0 0 0 0 127 0"/>
<feOffset dx="-1" dy="-2"/>
<feGaussianBlur stdDeviation="2"/>
<feColorMatrix type="matrix" values="0 0 0 0 0 0 0 0 0 0 0 0 0 0 0 0 0 0 0.25 0"/>
<feBlend mode="normal" in2="BackgroundImageFix" result="effect1_dropShadow"/>
<feBlend mode="normal" in="SourceGraphic" in2="effect1_dropShadow" result="shape"/>
</filter>
</defs>
</svg>
