<svg width="159" height="348" viewBox="0 0 159 348" fill="none" xmlns="http://www.w3.org/2000/svg">
<path d="M109.093 304.526L157.906 331.474" stroke="black" stroke-dasharray="5 5"/>
<path d="M156.813 41.9854L108 15.0368" stroke="black" stroke-dasharray="5 5"/>
<path d="M131.5 344.5C143.1 344.9 148.333 334.333 149.5 329L113 310V329C114.333 334 119.9 344.1 131.5 344.5Z" fill="#F27500"/>
<path d="M128.407 0.0107422C116.807 -0.389278 111.574 10.1774 110.407 15.5107L146.907 34.5107V15.5107C145.574 10.5107 140.007 0.410763 128.407 0.0107422Z" fill="#F27500"/>
<path d="M134.5 347.5C146.1 347.9 151.333 337.333 152.5 332L116 313V332C117.333 337 122.9 347.1 134.5 347.5Z" fill="#FDE01B"/>
<path d="M131.407 1.01074C119.807 0.610722 114.574 11.1774 113.407 16.5107L149.907 35.5107V16.5107C148.574 11.5107 143.007 1.41076 131.407 1.01074Z" fill="#FDE01B"/>
<path d="M131.407 1.01074C119.807 0.610722 114.574 11.1774 113.407 16.5107L149.907 35.5107V16.5107C148.574 11.5107 143.007 1.41076 131.407 1.01074Z" fill="black" fill-opacity="0.1"/>
<path d="M134.5 347.5C146.1 347.9 151.333 337.333 152.5 332L116 313V332C117.333 337 122.9 347.1 134.5 347.5Z" fill="black" fill-opacity="0.1"/>
<path d="M69.1656 185.286C70.9575 185.836 70.9516 184.856 71.272 184.767L38.7832 170.518C36.0129 170.998 34.034 171.591 34.034 171.591L34.483 174.709C34.483 174.709 67.3738 184.737 69.1656 185.286Z" fill="#4A64AE"/>
<path d="M68.4833 162.859C70.2416 162.21 70.2905 163.189 70.6154 163.259L38.9742 179.303C36.1814 178.978 34.1724 178.497 34.1724 178.497L34.4464 175.359C34.4464 175.359 66.725 163.508 68.4833 162.859Z" fill="#4A64AE"/>
<path d="M8.35393 169.548C14.335 169.513 34.885 174.71 35.3256 174.886C38.0616 173.377 40.28 170.427 40.28 170.427C30.9873 167.221 24.1659 161.74 21.25 159.052C20.5969 158.448 19.5994 157.18 18.9463 156.575C16.8268 154.67 10.6407 149.433 4.29377 155.221C-1.24839 160.247 2.96004 165.865 4.93151 168.069C5.47019 168.651 7.55337 169.538 8.35393 169.548ZM9.12885 168.186C5.13469 166.741 2.9594 162.715 4.22172 159.19C5.51264 155.67 9.76924 153.986 13.7634 155.431C17.7576 156.875 19.9328 160.902 18.6705 164.427C17.3796 167.946 13.123 169.63 9.12885 168.186Z" fill="#EA2254"/>
<path d="M20.5535 192.662C21.145 192.071 22.0363 190.846 22.6279 190.255C25.2695 187.629 31.4776 182.242 40.0862 178.902C40.0862 178.902 37.8662 176.192 35.2776 174.893C34.8702 175.074 15.7657 180.682 10.1504 180.861C9.3993 180.899 7.46913 181.779 6.99051 182.372C5.1916 184.516 1.46755 189.933 6.84813 194.453C13.0111 199.661 18.6317 194.526 20.5535 192.662ZM7.46329 192.421C5.47811 189.515 6.57021 185.343 9.83832 183.103C13.1331 180.856 17.4045 181.418 19.363 184.331C21.3482 187.237 20.2561 191.41 16.9879 193.649C13.6932 195.896 9.42182 195.334 7.46329 192.421Z" fill="#EA2254"/>
<path d="M43.5005 176C44.3289 176 45.0005 175.328 45.0005 174.5C45.0005 173.672 44.3289 173 43.5005 173C42.6721 173 42.0005 173.672 42.0005 174.5C42.0005 175.328 42.6721 176 43.5005 176Z" fill="#3850A2"/>
<path d="M151 160L147.907 40.0116L110.5 18.5005L111.5 134.5L151 160Z" fill="#F27500"/>
<path d="M151 160V40.5005L114 21.0005V137L151 160Z" fill="#FDE01B"/>
<path d="M150.5 325.5L148 278.311L111 134V301.5L150.5 325.5Z" fill="#F27500"/>
<path d="M151 325V155.5L114 135V302.5L151 325Z" fill="#FDE01B"/>
</svg>
