<svg width="146" height="364" viewBox="0 0 146 364" fill="none" xmlns="http://www.w3.org/2000/svg">
<path d="M96.7012 19.9604C96.7012 9.87811 104.856 1.61792 115.08 1.61792C125.183 1.61792 133.459 9.87811 133.459 19.9604V42.1179L96.7012 42.1163V19.9604Z" fill="#F27500"/>
<path d="M99.832 18.9604C99.832 8.87811 107.987 0.61792 118.211 0.61792C128.314 0.61792 136.59 8.87811 136.59 18.9604V42.1179H99.832V18.9604Z" fill="#FDE01B"/>
<path d="M96.7012 343.775C96.7012 353.858 104.856 362.118 115.08 362.118C125.183 362.118 133.459 353.858 133.459 343.775V321.618L96.7012 321.62V343.775Z" fill="#F27500"/>
<path d="M99.832 344.775C99.832 354.858 107.987 363.118 118.211 363.118C128.314 363.118 136.59 354.858 136.59 344.775V321.618H99.832V344.775Z" fill="#FDE01B"/>
<path d="M96.7012 183.621V226.121H133.459V183.621H96.7012Z" fill="#F27500"/>
<path d="M96.7012 137.621V180.121H133.459V137.621H96.7012Z" fill="#F27500"/>
<path d="M96.7012 91.6177V134.118H133.459V91.6177H96.7012Z" fill="#F27500"/>
<path d="M99.877 183.621V226.121H136.635V183.621H99.877Z" fill="#FDE01B"/>
<path d="M96.7012 229.618V272.118H133.459V229.618H96.7012Z" fill="#F27500"/>
<path d="M96.7012 275.618V318.118H133.459V275.618H96.7012Z" fill="#F27500"/>
<path d="M99.877 229.618V272.118H136.635V229.618H99.877Z" fill="#FDE01B"/>
<path d="M99.877 275.618V318.118H136.635V275.618H99.877Z" fill="#FDE01B"/>
<path d="M99.877 137.621V180.121H136.635V137.621H99.877Z" fill="#FDE01B"/>
<path d="M99.877 91.6174V134.117H136.635V91.6174H99.877Z" fill="#FDE01B"/>
<path d="M96.7012 45.6182V88.1182H133.459V45.6182H96.7012Z" fill="#F27500"/>
<path d="M99.877 45.6179V88.1179H136.635V45.6179H99.877Z" fill="#FDE01B"/>
<path d="M69.8658 193.904C71.6577 194.454 71.6518 193.473 71.9722 193.385L39.4834 179.136C36.7131 179.616 34.7342 180.209 34.7342 180.209L35.1832 183.327C35.1832 183.327 68.074 193.355 69.8658 193.904Z" fill="#4A64AE"/>
<path d="M69.1845 171.477C70.9428 170.828 70.9917 171.807 71.3165 171.877L39.6754 187.921C36.8826 187.596 34.8736 187.115 34.8736 187.115L35.1476 183.977C35.1476 183.977 67.4262 172.125 69.1845 171.477Z" fill="#4A64AE"/>
<path d="M9.0551 178.166C15.0362 178.131 35.5862 183.327 36.0268 183.504C38.7627 181.994 40.9811 179.045 40.9811 179.045C31.6884 175.839 24.8671 170.357 21.9512 167.67C21.2981 167.065 20.3006 165.798 19.6475 165.193C17.528 163.288 11.3418 158.051 4.99495 163.839C-0.547217 168.865 3.66121 174.483 5.63268 176.686C6.17136 177.268 8.25455 178.156 9.0551 178.166ZM9.83002 176.804C5.83586 175.359 3.66058 171.332 4.92289 167.807C6.21381 164.288 10.4704 162.604 14.4646 164.048C18.4587 165.493 20.634 169.52 19.3717 173.045C18.0808 176.564 13.8242 178.248 9.83002 176.804Z" fill="#EA2254"/>
<path d="M21.2547 201.28C21.8462 200.689 22.7375 199.464 23.329 198.873C25.9706 196.247 32.1788 190.86 40.7874 187.52C40.7874 187.52 38.5674 184.81 35.9787 183.511C35.5714 183.692 16.4669 189.299 10.8516 189.479C10.1005 189.517 8.17031 190.397 7.69168 190.99C5.89277 193.134 2.16872 198.551 7.5493 203.071C13.7123 208.279 19.3329 203.144 21.2547 201.28ZM8.16446 201.039C6.17929 198.133 7.27138 193.961 10.5395 191.721C13.8342 189.474 18.1056 190.036 20.0642 192.949C22.0493 195.855 20.9572 200.027 17.6891 202.267C14.3944 204.514 10.123 203.952 8.16446 201.039Z" fill="#EA2254"/>
<path d="M44.2012 184.618C45.0296 184.618 45.7012 183.946 45.7012 183.118C45.7012 182.289 45.0296 181.618 44.2012 181.618C43.3727 181.618 42.7012 182.289 42.7012 183.118C42.7012 183.946 43.3727 184.618 44.2012 184.618Z" fill="#3850A2"/>
<path d="M87.7012 181.958L143.46 181.884" stroke="black" stroke-dasharray="5 5"/>
<path d="M88.7012 135.958L144.46 135.884" stroke="black" stroke-dasharray="5 5"/>
<path d="M87.7012 89.9578L143.46 89.8839" stroke="black" stroke-dasharray="5 5"/>
<path d="M88.7012 43.9578L144.46 43.8839" stroke="black" stroke-dasharray="5 5"/>
<path d="M89.7012 319.958L145.46 319.884" stroke="black" stroke-dasharray="5 5"/>
<path d="M88.7012 273.958L144.46 273.884" stroke="black" stroke-dasharray="5 5"/>
<path d="M88.7012 227.881L144.46 227.807" stroke="black" stroke-dasharray="5 5"/>
</svg>
