<svg width="506" height="369" viewBox="0 0 506 369" fill="none" xmlns="http://www.w3.org/2000/svg">
<path d="M69.3151 197.533C71.1069 198.083 71.101 197.103 71.4214 197.014L38.9327 182.765C36.1623 183.245 34.1834 183.838 34.1834 183.838L34.6325 186.956C34.6325 186.956 67.5232 196.984 69.3151 197.533Z" fill="#4A64AE"/>
<path d="M68.6337 175.106C70.392 174.457 70.4409 175.436 70.7658 175.506L39.1246 191.55C36.3318 191.225 34.3228 190.744 34.3228 190.744L34.5968 187.606C34.5968 187.606 66.8754 175.755 68.6337 175.106Z" fill="#4A64AE"/>
<path d="M8.50432 181.795C14.4854 181.76 35.0354 186.957 35.476 187.133C38.212 185.624 40.4304 182.674 40.4304 182.674C31.1377 179.468 24.3163 173.987 21.4004 171.299C20.7473 170.694 19.7498 169.427 19.0967 168.822C16.9772 166.917 10.791 161.68 4.44416 167.468C-1.098 172.494 3.11043 178.112 5.0819 180.315C5.62058 180.897 7.70377 181.785 8.50432 181.795ZM9.27924 180.433C5.28508 178.988 3.10979 174.961 4.37211 171.437C5.66303 167.917 9.91964 166.233 13.9138 167.678C17.908 169.122 20.0832 173.149 18.8209 176.674C17.53 180.193 13.2734 181.877 9.27924 180.433Z" fill="#EA2254"/>
<path d="M20.7039 204.909C21.2954 204.318 22.1867 203.093 22.7783 202.502C25.4199 199.876 31.628 194.489 40.2366 191.149C40.2366 191.149 38.0166 188.439 35.4279 187.14C35.0206 187.321 15.9161 192.929 10.3008 193.108C9.54969 193.146 7.61952 194.027 7.1409 194.619C5.34199 196.763 1.61794 202.18 6.99852 206.7C13.1615 211.908 18.7821 206.773 20.7039 204.909ZM7.61368 204.668C5.6285 201.762 6.7206 197.59 9.98871 195.35C13.2835 193.104 17.5548 193.665 19.5134 196.578C21.4985 199.484 20.4064 203.657 17.1383 205.897C13.8436 208.143 9.57221 207.581 7.61368 204.668Z" fill="#EA2254"/>
<path d="M43.6504 188.247C44.4788 188.247 45.1504 187.575 45.1504 186.747C45.1504 185.919 44.4788 185.247 43.6504 185.247C42.822 185.247 42.1504 185.919 42.1504 186.747C42.1504 187.575 42.822 188.247 43.6504 188.247Z" fill="#3850A2"/>
<path d="M456.566 24.9263C456.566 14.844 464.721 6.58386 474.946 6.58386C485.048 6.58386 493.325 14.844 493.325 24.9263V47.0839L456.566 47.0822V24.9263Z" fill="#F27500"/>
<path d="M459.697 23.9263C459.697 13.844 467.852 5.58386 478.076 5.58386C488.179 5.58386 496.456 13.844 496.456 23.9263V47.0839H459.697V23.9263Z" fill="#FDE01B"/>
<path d="M456.566 348.742C456.566 358.824 464.721 367.084 474.946 367.084C485.048 367.084 493.325 358.824 493.325 348.742V326.584L456.566 326.586V348.742Z" fill="#F27500"/>
<path d="M459.697 349.742C459.697 359.824 467.852 368.084 478.076 368.084C488.179 368.084 496.456 359.824 496.456 349.742V326.584H459.697V349.742Z" fill="#FDE01B"/>
<path d="M456.566 188.587V231.087H493.325V188.587H456.566Z" fill="#F27500"/>
<path d="M456.566 142.587V185.087H493.325V142.587H456.566Z" fill="#F27500"/>
<path d="M456.566 96.5835V139.083H493.325V96.5835H456.566Z" fill="#F27500"/>
<path d="M459.742 188.587V231.087H496.5V188.587H459.742Z" fill="#FDE01B"/>
<path d="M456.566 234.584V277.084H493.325V234.584H456.566Z" fill="#F27500"/>
<path d="M456.566 280.584V323.084H493.325V280.584H456.566Z" fill="#F27500"/>
<path d="M459.742 234.584V277.084H496.5V234.584H459.742Z" fill="#FDE01B"/>
<path d="M459.742 280.584V323.084H496.5V280.584H459.742Z" fill="#FDE01B"/>
<path d="M459.742 142.587V185.087H496.5V142.587H459.742Z" fill="#FDE01B"/>
<path d="M459.742 96.5833V139.083H496.5V96.5833H459.742Z" fill="#FDE01B"/>
<path d="M456.566 50.584V93.084H493.325V50.584H456.566Z" fill="#F27500"/>
<path d="M459.742 50.5839V93.0839H496.5V50.5839H459.742Z" fill="#FDE01B"/>
<path d="M429.733 198.87C431.525 199.42 431.519 198.44 431.839 198.351L399.351 184.102C396.58 184.582 394.601 185.175 394.601 185.175L395.05 188.293C395.05 188.293 427.941 198.321 429.733 198.87Z" fill="#4A64AE"/>
<path d="M429.052 176.443C430.81 175.794 430.859 176.773 431.184 176.843L399.543 192.887C396.75 192.562 394.741 192.081 394.741 192.081L395.015 188.943C395.015 188.943 427.293 177.092 429.052 176.443Z" fill="#4A64AE"/>
<path d="M368.922 183.132C374.903 183.097 395.453 188.293 395.894 188.47C398.63 186.96 400.848 184.011 400.848 184.011C391.556 180.805 384.734 175.324 381.818 172.636C381.165 172.031 380.168 170.764 379.515 170.159C377.395 168.254 371.209 163.017 364.862 168.805C359.32 173.831 363.528 179.449 365.5 181.652C366.039 182.234 368.122 183.122 368.922 183.132ZM369.697 181.77C365.703 180.325 363.528 176.298 364.79 172.773C366.081 169.254 370.338 167.57 374.332 169.015C378.326 170.459 380.501 174.486 379.239 178.011C377.948 181.53 373.691 183.214 369.697 181.77Z" fill="#EA2254"/>
<path d="M381.122 206.246C381.713 205.655 382.605 204.43 383.196 203.839C385.838 201.213 392.046 195.826 400.655 192.486C400.655 192.486 398.435 189.776 395.846 188.477C395.439 188.658 376.334 194.266 370.719 194.445C369.968 194.483 368.037 195.363 367.559 195.956C365.76 198.1 362.036 203.517 367.416 208.037C373.579 213.245 379.2 208.11 381.122 206.246ZM368.032 206.005C366.046 203.099 367.139 198.927 370.407 196.687C373.701 194.44 377.973 195.002 379.931 197.915C381.917 200.821 380.824 204.993 377.556 207.233C374.262 209.48 369.99 208.918 368.032 206.005Z" fill="#EA2254"/>
<path d="M404.068 189.584C404.897 189.584 405.568 188.912 405.568 188.084C405.568 187.256 404.897 186.584 404.068 186.584C403.24 186.584 402.568 187.256 402.568 188.084C402.568 188.912 403.24 189.584 404.068 189.584Z" fill="#3850A2"/>
<path d="M447.566 186.924L503.325 186.85" stroke="black" stroke-dasharray="5 5"/>
<path d="M448.566 140.924L504.325 140.85" stroke="black" stroke-dasharray="5 5"/>
<path d="M447.566 94.9237L503.325 94.8499" stroke="black" stroke-dasharray="5 5"/>
<path d="M448.566 48.9237L504.325 48.8499" stroke="black" stroke-dasharray="5 5"/>
<path d="M449.566 324.924L505.325 324.85" stroke="black" stroke-dasharray="5 5"/>
<path d="M448.566 278.924L504.325 278.85" stroke="black" stroke-dasharray="5 5"/>
<path d="M448.568 232.847L504.327 232.773" stroke="black" stroke-dasharray="5 5"/>
<path d="M115.23 26.1213L115.285 315.211L152.044 334.711V46.2357L115.23 26.1213Z" fill="#FDE01B"/>
<path d="M106.877 316.957L156.388 342.602" stroke="black" stroke-dasharray="5 5"/>
<path d="M130.982 357.698C142.582 358.098 147.816 347.532 148.982 342.198L112.482 323.198C112.482 323.198 111.81 335.017 112.948 342.198C114.086 349.379 119.382 357.298 130.982 357.698Z" fill="#F27500"/>
<path d="M133.67 358.964C145.27 359.364 150.503 348.797 151.67 343.464L114.32 324.124C114.32 324.124 114.032 336.283 115.17 343.464C116.308 350.645 122.07 358.564 133.67 358.964Z" fill="#FDE01B"/>
<path d="M133.631 358.854C145.231 359.254 150.464 348.688 151.631 343.354L114.33 324.147C114.33 324.147 113.992 336.173 115.131 343.354C116.269 350.535 122.031 358.454 133.631 358.854Z" fill="black" fill-opacity="0.2"/>
<path d="M157.613 42.9673L108.102 17.3225" stroke="black" stroke-dasharray="5 5"/>
<path d="M132.377 0.65625C120.777 0.256229 115.544 10.8229 114.377 16.1562L150.877 35.1562C150.877 35.1562 151.549 23.3372 150.411 16.1562C149.273 8.97534 143.977 1.05627 132.377 0.65625Z" fill="#F27500"/>
<path d="M134.022 1.52549C122.422 1.12547 117.188 11.6921 116.022 17.0255L153.372 36.365C153.372 36.365 153.66 24.2064 152.522 17.0255C151.383 9.84456 145.621 1.92551 134.022 1.52549Z" fill="#FDE01B"/>
<path d="M134.061 1.6352C122.461 1.23518 117.228 11.8019 116.061 17.1352L153.361 36.3422C153.361 36.3422 153.699 24.3161 152.561 17.1352C151.423 9.9543 145.661 2.03522 134.061 1.6352Z" fill="black" fill-opacity="0.2"/>
</svg>
