<svg width="504" height="221" viewBox="0 0 504 221" fill="none" xmlns="http://www.w3.org/2000/svg">
<path d="M502.158 86.6267L454.158 58.1267L455.158 174.127L502.158 206.127V86.6267Z" fill="#FDE01B"/>
<path d="M40.6445 209.377L37.5514 89.3881L0.144531 67.877L1.14453 183.877L40.6445 209.377Z" fill="#F27500"/>
<path d="M40.4629 208.888V89.3882L3.70461 69.8882V185.888L40.4629 208.888Z" fill="#FDE01B"/>
<path d="M106.645 214.377L103.551 94.3881L66.1445 72.877L67.1445 188.877L106.645 214.377Z" fill="#F27500"/>
<path d="M106.463 213.888V94.3882L69.7046 74.8882V190.888L106.463 213.888Z" fill="#FDE01B"/>
<path d="M466.158 181.627V65.1267L454.158 58.1267L455.158 174.127L466.158 181.627Z" fill="#F27500"/>
<path d="M462.158 179.127V62.6267L458.158 60.1267V176.127L462.158 179.127Z" fill="#FDE01B"/>
<path d="M470.158 184.127V67.6267L466.158 65.1267V181.127L470.158 184.127Z" fill="#FDE01B"/>
<path d="M503.658 115.127L453.158 90.1267V151.627L503.658 174.127V115.127Z" fill="#E6E6E6" fill-opacity="0.5"/>
<path d="M379.46 109.833C380.258 109.611 380.725 108.784 380.502 107.986L376.878 94.9812C376.656 94.1832 375.828 93.7166 375.03 93.939C374.232 94.1614 373.766 94.9886 373.988 95.7866L377.21 107.346L365.65 110.568C364.852 110.79 364.386 111.617 364.608 112.415C364.83 113.213 365.658 113.68 366.456 113.458L379.46 109.833ZM144.2 121.456C145.144 122.622 145.144 122.622 145.144 122.622C145.145 122.621 145.145 122.621 145.147 122.62C145.149 122.618 145.153 122.614 145.159 122.61C145.17 122.601 145.188 122.587 145.212 122.567C145.26 122.529 145.334 122.47 145.433 122.393C145.63 122.238 145.929 122.007 146.325 121.706C147.119 121.106 148.304 120.231 149.862 119.14C152.978 116.957 157.581 113.913 163.511 110.482C175.373 103.62 192.527 95.2209 213.683 89.0812C255.972 76.8087 314.256 73.5558 378.32 109.695L379.794 107.082C314.89 70.4695 255.745 73.7506 212.847 86.2001C191.41 92.4213 174.031 100.93 162.009 107.885C155.996 111.364 151.32 114.456 148.141 116.682C146.551 117.796 145.336 118.693 144.515 119.314C144.105 119.625 143.793 119.867 143.582 120.032C143.476 120.115 143.396 120.178 143.342 120.222C143.314 120.243 143.294 120.26 143.279 120.272C143.272 120.278 143.266 120.282 143.262 120.285C143.26 120.287 143.258 120.288 143.257 120.289C143.256 120.29 143.255 120.291 144.2 121.456Z" fill="#F27500"/>
</svg>
