<svg width="261" height="200" viewBox="0 0 261 200" fill="none" xmlns="http://www.w3.org/2000/svg">
<path d="M261 0H0V199.678H261V0Z" fill="white"/>
<path d="M54.7812 182.312H55.0074C54.9248 182.43 54.8493 182.553 54.7812 182.68V182.312Z" fill="white"/>
<path d="M63.299 0H0V200H63.299V0Z" fill="#002395"/>
<path d="M174 0H87V199.678H174V0Z" fill="white"/>
<path d="M260.998 0H134.363V199.678H260.998V0Z" fill="#ED2939"/>
<path d="M249.708 46.4316V44.4986C249.446 44.4986 249.195 44.3967 249.01 44.2155C248.825 44.0342 248.721 43.7884 248.721 43.532C248.721 43.2757 248.825 43.0299 249.01 42.8486C249.195 42.6674 249.446 42.5655 249.708 42.5655V40.6325C249.446 40.6325 249.195 40.5306 249.01 40.3494C248.825 40.1681 248.721 39.9223 248.721 39.6659C248.721 39.4096 248.825 39.1638 249.01 38.9825C249.195 38.8013 249.446 38.6994 249.708 38.6994V36.7664C249.446 36.7664 249.195 36.6645 249.01 36.4833C248.825 36.302 248.721 36.0562 248.721 35.7998C248.721 35.5435 248.825 35.2977 249.01 35.1164C249.195 34.9351 249.446 34.8333 249.708 34.8333V32.9003C249.446 32.9003 249.195 32.7984 249.01 32.6172C248.825 32.4359 248.721 32.1901 248.721 31.9337C248.721 31.6774 248.825 31.4316 249.01 31.2503C249.195 31.069 249.446 30.9672 249.708 30.9672V28.9955C249.446 28.9955 249.195 28.8937 249.01 28.7124C248.825 28.5312 248.721 28.2853 248.721 28.029C248.721 27.7726 248.825 27.5268 249.01 27.3455C249.195 27.1643 249.446 27.0624 249.708 27.0624V25.1294C249.446 25.1294 249.195 25.0276 249.01 24.8463C248.825 24.6651 248.721 24.4192 248.721 24.1629C248.721 23.9065 248.825 23.6607 249.01 23.4794C249.195 23.2982 249.446 23.1963 249.708 23.1963V21.2633C249.446 21.2633 249.195 21.1615 249.01 20.9802C248.825 20.7989 248.721 20.5531 248.721 20.2968C248.721 20.0404 248.825 19.7946 249.01 19.6133C249.195 19.4321 249.446 19.3302 249.708 19.3302V17.3972C249.446 17.3972 249.195 17.2954 249.01 17.1141C248.825 16.9328 248.721 16.687 248.721 16.4307H246.599C246.599 16.687 246.495 16.9328 246.31 17.1141C246.125 17.2954 245.874 17.3972 245.612 17.3972C245.35 17.3972 245.099 17.2954 244.914 17.1141C244.729 16.9328 244.625 16.687 244.625 16.4307H242.503C242.503 16.687 242.399 16.9328 242.214 17.1141C242.029 17.2954 241.778 17.3972 241.516 17.3972C241.254 17.3972 241.003 17.2954 240.818 17.1141C240.633 16.9328 240.529 16.687 240.529 16.4307H238.407C238.407 16.687 238.303 16.9328 238.118 17.1141C237.933 17.2954 237.682 17.3972 237.42 17.3972C237.158 17.3972 236.907 17.2954 236.722 17.1141C236.537 16.9328 236.433 16.687 236.433 16.4307H234.311C234.311 16.687 234.207 16.9328 234.022 17.1141C233.837 17.2954 233.586 17.3972 233.324 17.3972C233.062 17.3972 232.811 17.2954 232.626 17.1141C232.441 16.9328 232.337 16.687 232.337 16.4307H230.215C230.215 16.687 230.111 16.9328 229.926 17.1141C229.741 17.2954 229.49 17.3972 229.228 17.3972C228.966 17.3972 228.715 17.2954 228.53 17.1141C228.345 16.9328 228.241 16.687 228.241 16.4307H226.119C226.119 16.687 226.015 16.9328 225.83 17.1141C225.645 17.2954 225.394 17.3972 225.132 17.3972C224.87 17.3972 224.619 17.2954 224.434 17.1141C224.249 16.9328 224.145 16.687 224.145 16.4307H222.02C222.02 16.687 221.916 16.9328 221.73 17.1141C221.545 17.2954 221.294 17.3972 221.033 17.3972C220.771 17.3972 220.52 17.2954 220.335 17.1141C220.15 16.9328 220.046 16.687 220.046 16.4307H217.924C217.924 16.687 217.82 16.9328 217.634 17.1141C217.449 17.2954 217.198 17.3972 216.937 17.3972C216.675 17.3972 216.424 17.2954 216.239 17.1141C216.054 16.9328 215.95 16.687 215.95 16.4307H213.847C213.847 16.687 213.743 16.9328 213.558 17.1141C213.373 17.2954 213.122 17.3972 212.86 17.3972C212.599 17.3972 212.347 17.2954 212.162 17.1141C211.977 16.9328 211.873 16.687 211.873 16.4307H209.751C209.751 16.687 209.647 16.9328 209.462 17.1141C209.277 17.2954 209.026 17.3972 208.764 17.3972C208.503 17.3972 208.251 17.2954 208.066 17.1141C207.881 16.9328 207.777 16.687 207.777 16.4307H205.655C205.655 16.687 205.551 16.9328 205.366 17.1141C205.181 17.2954 204.93 17.3972 204.668 17.3972C204.406 17.3972 204.155 17.2954 203.97 17.1141C203.785 16.9328 203.681 16.687 203.681 16.4307H201.559C201.559 16.687 201.455 16.9328 201.27 17.1141C201.085 17.2954 200.834 17.3972 200.572 17.3972V19.3302C200.834 19.3302 201.085 19.4321 201.27 19.6133C201.455 19.7946 201.559 20.0404 201.559 20.2968C201.559 20.5531 201.455 20.7989 201.27 20.9802C201.085 21.1615 200.834 21.2633 200.572 21.2633V23.1963C200.834 23.1963 201.085 23.2982 201.27 23.4794C201.455 23.6607 201.559 23.9065 201.559 24.1629C201.559 24.4192 201.455 24.6651 201.27 24.8463C201.085 25.0276 200.834 25.1294 200.572 25.1294V27.0624C200.834 27.0624 201.085 27.1643 201.27 27.3455C201.455 27.5268 201.559 27.7726 201.559 28.029C201.559 28.2853 201.455 28.5312 201.27 28.7124C201.085 28.8937 200.834 28.9955 200.572 28.9955V30.9286C200.834 30.9286 201.085 31.0304 201.27 31.2116C201.455 31.3929 201.559 31.6387 201.559 31.8951C201.559 32.1514 201.455 32.3973 201.27 32.5785C201.085 32.7598 200.834 32.8616 200.572 32.8616V34.7947C200.834 34.7947 201.085 34.8965 201.27 35.0777C201.455 35.259 201.559 35.5048 201.559 35.7612C201.559 36.0175 201.455 36.2634 201.27 36.4446C201.085 36.6259 200.834 36.7277 200.572 36.7277V38.6608C200.834 38.6608 201.085 38.7626 201.27 38.9438C201.455 39.1251 201.559 39.3709 201.559 39.6273C201.559 39.8836 201.455 40.1295 201.27 40.3107C201.085 40.492 200.834 40.5938 200.572 40.5938V42.5269C200.834 42.5269 201.085 42.6287 201.27 42.81C201.455 42.9912 201.559 43.2371 201.559 43.4934C201.559 43.7497 201.455 43.9956 201.27 44.1768C201.085 44.3581 200.834 44.4599 200.572 44.4599V46.393C200.834 46.393 201.085 46.4948 201.27 46.6761C201.455 46.8573 201.559 47.1032 201.559 47.3595H203.681C203.681 47.1032 203.785 46.8573 203.97 46.6761C204.155 46.4948 204.406 46.393 204.668 46.393C204.93 46.393 205.181 46.4948 205.366 46.6761C205.551 46.8573 205.655 47.1032 205.655 47.3595H207.777C207.777 47.1032 207.881 46.8573 208.066 46.6761C208.251 46.4948 208.503 46.393 208.764 46.393C209.026 46.393 209.277 46.4948 209.462 46.6761C209.647 46.8573 209.751 47.1032 209.751 47.3595H211.873C211.873 47.1032 211.977 46.8573 212.162 46.6761C212.347 46.4948 212.599 46.393 212.86 46.393C213.122 46.393 213.373 46.4948 213.558 46.6761C213.743 46.8573 213.847 47.1032 213.847 47.3595H215.969C215.969 47.1032 216.073 46.8573 216.258 46.6761C216.443 46.4948 216.695 46.393 216.956 46.393C217.218 46.393 217.469 46.4948 217.654 46.6761C217.839 46.8573 217.943 47.1032 217.943 47.3595H220.065C220.065 47.1032 220.169 46.8573 220.354 46.6761C220.54 46.4948 220.791 46.393 221.052 46.393C221.314 46.393 221.565 46.4948 221.75 46.6761C221.935 46.8573 222.039 47.1032 222.039 47.3595H224.165C224.165 47.1032 224.269 46.8573 224.454 46.6761C224.639 46.4948 224.89 46.393 225.152 46.393C225.413 46.393 225.664 46.4948 225.85 46.6761C226.035 46.8573 226.139 47.1032 226.139 47.3595H228.261C228.261 47.1032 228.365 46.8573 228.55 46.6761C228.735 46.4948 228.986 46.393 229.248 46.393C229.509 46.393 229.76 46.4948 229.946 46.6761C230.131 46.8573 230.235 47.1032 230.235 47.3595H232.357C232.357 47.1032 232.461 46.8573 232.646 46.6761C232.831 46.4948 233.082 46.393 233.344 46.393C233.605 46.393 233.856 46.4948 234.042 46.6761C234.227 46.8573 234.331 47.1032 234.331 47.3595H236.453C236.453 47.1032 236.557 46.8573 236.742 46.6761C236.927 46.4948 237.178 46.393 237.44 46.393C237.701 46.393 237.952 46.4948 238.138 46.6761C238.323 46.8573 238.427 47.1032 238.427 47.3595H240.549C240.549 47.1032 240.653 46.8573 240.838 46.6761C241.023 46.4948 241.274 46.393 241.536 46.393C241.797 46.393 242.048 46.4948 242.234 46.6761C242.419 46.8573 242.523 47.1032 242.523 47.3595H244.645C244.645 47.1032 244.749 46.8573 244.934 46.6761C245.119 46.4948 245.37 46.393 245.632 46.393C245.893 46.393 246.145 46.4948 246.33 46.6761C246.515 46.8573 246.619 47.1032 246.619 47.3595H248.721C248.721 47.1032 248.825 46.8573 249.01 46.6761C249.195 46.4948 249.446 46.393 249.708 46.393V46.4316Z" fill="white"/>
<path d="M261 71.7061H108.428V186.336H261V71.7061Z" fill="white"/>
<rect x="0.5" y="0.5" width="260" height="199" rx="19.5" stroke="white"/>
</svg>
