<svg width="262" height="201" viewBox="0 0 262 201" fill="none" xmlns="http://www.w3.org/2000/svg">
<path d="M64.0666 0.179688H22.7676C10.6173 0.179688 0.767578 10.0294 0.767578 22.1797V178.18C0.767578 190.33 10.6173 200.18 22.7676 200.18H64.0666V0.179688Z" fill="#002395"/>
<path d="M151.066 0.501953H64.0664V200.18H151.066V0.501953Z" fill="white"/>
<path d="M239.765 0.179688H135.131V199.858H239.765C251.915 199.858 261.765 190.008 261.765 177.858V22.1797C261.765 10.0294 251.915 0.179688 239.765 0.179688Z" fill="#ED2939"/>
<path d="M250.476 46.6113V44.6783C250.214 44.6783 249.963 44.5764 249.778 44.3952C249.593 44.2139 249.489 43.9681 249.489 43.7117C249.489 43.4554 249.593 43.2096 249.778 43.0283C249.963 42.847 250.214 42.7452 250.476 42.7452V40.8122C250.214 40.8122 249.963 40.7103 249.778 40.5291C249.593 40.3478 249.489 40.102 249.489 39.8456C249.489 39.5893 249.593 39.3435 249.778 39.1622C249.963 38.9809 250.214 38.8791 250.476 38.8791V36.9461C250.214 36.9461 249.963 36.8442 249.778 36.663C249.593 36.4817 249.489 36.2359 249.489 35.9795C249.489 35.7232 249.593 35.4774 249.778 35.2961C249.963 35.1148 250.214 35.013 250.476 35.013V33.08C250.214 33.08 249.963 32.9781 249.778 32.7969C249.593 32.6156 249.489 32.3698 249.489 32.1134C249.489 31.8571 249.593 31.6112 249.778 31.43C249.963 31.2487 250.214 31.1469 250.476 31.1469V29.1752C250.214 29.1752 249.963 29.0734 249.778 28.8921C249.593 28.7108 249.489 28.465 249.489 28.2087C249.489 27.9523 249.593 27.7065 249.778 27.5252C249.963 27.344 250.214 27.2421 250.476 27.2421V25.3091C250.214 25.3091 249.963 25.2073 249.778 25.026C249.593 24.8447 249.489 24.5989 249.489 24.3426C249.489 24.0862 249.593 23.8404 249.778 23.6591C249.963 23.4779 250.214 23.376 250.476 23.376V21.443C250.214 21.443 249.963 21.3412 249.778 21.1599C249.593 20.9786 249.489 20.7328 249.489 20.4765C249.489 20.2201 249.593 19.9743 249.778 19.793C249.963 19.6118 250.214 19.5099 250.476 19.5099V17.5769C250.214 17.5769 249.963 17.475 249.778 17.2938C249.593 17.1125 249.489 16.8667 249.489 16.6104H247.367C247.367 16.8667 247.263 17.1125 247.077 17.2938C246.892 17.475 246.641 17.5769 246.38 17.5769C246.118 17.5769 245.867 17.475 245.682 17.2938C245.497 17.1125 245.393 16.8667 245.393 16.6104H243.27C243.27 16.8667 243.167 17.1125 242.981 17.2938C242.796 17.475 242.545 17.5769 242.284 17.5769C242.022 17.5769 241.771 17.475 241.586 17.2938C241.401 17.1125 241.297 16.8667 241.297 16.6104H239.175C239.175 16.8667 239.071 17.1125 238.885 17.2938C238.7 17.475 238.449 17.5769 238.188 17.5769C237.926 17.5769 237.675 17.475 237.49 17.2938C237.304 17.1125 237.201 16.8667 237.201 16.6104H235.078C235.078 16.8667 234.975 17.1125 234.789 17.2938C234.604 17.475 234.353 17.5769 234.091 17.5769C233.83 17.5769 233.579 17.475 233.394 17.2938C233.208 17.1125 233.105 16.8667 233.105 16.6104H230.982C230.982 16.8667 230.878 17.1125 230.693 17.2938C230.508 17.475 230.257 17.5769 229.995 17.5769C229.734 17.5769 229.483 17.475 229.298 17.2938C229.112 17.1125 229.008 16.8667 229.008 16.6104H226.886C226.886 16.8667 226.782 17.1125 226.597 17.2938C226.412 17.475 226.161 17.5769 225.899 17.5769C225.638 17.5769 225.387 17.475 225.202 17.2938C225.016 17.1125 224.912 16.8667 224.912 16.6104H222.787C222.787 16.8667 222.683 17.1125 222.498 17.2938C222.313 17.475 222.062 17.5769 221.8 17.5769C221.538 17.5769 221.287 17.475 221.102 17.2938C220.917 17.1125 220.813 16.8667 220.813 16.6104H218.691C218.691 16.8667 218.587 17.1125 218.402 17.2938C218.217 17.475 217.966 17.5769 217.704 17.5769C217.442 17.5769 217.191 17.475 217.006 17.2938C216.821 17.1125 216.717 16.8667 216.717 16.6104H214.615C214.615 16.8667 214.511 17.1125 214.326 17.2938C214.141 17.475 213.89 17.5769 213.628 17.5769C213.366 17.5769 213.115 17.475 212.93 17.2938C212.745 17.1125 212.641 16.8667 212.641 16.6104H210.519C210.519 16.8667 210.415 17.1125 210.23 17.2938C210.045 17.475 209.794 17.5769 209.532 17.5769C209.27 17.5769 209.019 17.475 208.834 17.2938C208.649 17.1125 208.545 16.8667 208.545 16.6104H206.423C206.423 16.8667 206.319 17.1125 206.134 17.2938C205.949 17.475 205.698 17.5769 205.436 17.5769C205.174 17.5769 204.923 17.475 204.738 17.2938C204.553 17.1125 204.449 16.8667 204.449 16.6104H202.327C202.327 16.8667 202.223 17.1125 202.038 17.2938C201.853 17.475 201.602 17.5769 201.34 17.5769V19.5099C201.602 19.5099 201.853 19.6118 202.038 19.793C202.223 19.9743 202.327 20.2201 202.327 20.4765C202.327 20.7328 202.223 20.9786 202.038 21.1599C201.853 21.3412 201.602 21.443 201.34 21.443V23.376C201.602 23.376 201.853 23.4779 202.038 23.6591C202.223 23.8404 202.327 24.0862 202.327 24.3426C202.327 24.5989 202.223 24.8447 202.038 25.026C201.853 25.2073 201.602 25.3091 201.34 25.3091V27.2421C201.602 27.2421 201.853 27.344 202.038 27.5252C202.223 27.7065 202.327 27.9523 202.327 28.2087C202.327 28.465 202.223 28.7108 202.038 28.8921C201.853 29.0734 201.602 29.1752 201.34 29.1752V31.1082C201.602 31.1082 201.853 31.2101 202.038 31.3913C202.223 31.5726 202.327 31.8184 202.327 32.0748C202.327 32.3311 202.223 32.5769 202.038 32.7582C201.853 32.9395 201.602 33.0413 201.34 33.0413V34.9743C201.602 34.9743 201.853 35.0762 202.038 35.2574C202.223 35.4387 202.327 35.6845 202.327 35.9409C202.327 36.1972 202.223 36.443 202.038 36.6243C201.853 36.8056 201.602 36.9074 201.34 36.9074V38.8404C201.602 38.8404 201.853 38.9423 202.038 39.1235C202.223 39.3048 202.327 39.5506 202.327 39.807C202.327 40.0633 202.223 40.3092 202.038 40.4904C201.853 40.6717 201.602 40.7735 201.34 40.7735V42.7066C201.602 42.7066 201.853 42.8084 202.038 42.9896C202.223 43.1709 202.327 43.4167 202.327 43.6731C202.327 43.9294 202.223 44.1753 202.038 44.3565C201.853 44.5378 201.602 44.6396 201.34 44.6396V46.5727C201.602 46.5727 201.853 46.6745 202.038 46.8557C202.223 47.037 202.327 47.2828 202.327 47.5392H204.449C204.449 47.2828 204.553 47.037 204.738 46.8557C204.923 46.6745 205.174 46.5727 205.436 46.5727C205.698 46.5727 205.949 46.6745 206.134 46.8557C206.319 47.037 206.423 47.2828 206.423 47.5392H208.545C208.545 47.2828 208.649 47.037 208.834 46.8557C209.019 46.6745 209.27 46.5727 209.532 46.5727C209.794 46.5727 210.045 46.6745 210.23 46.8557C210.415 47.037 210.519 47.2828 210.519 47.5392H212.641C212.641 47.2828 212.745 47.037 212.93 46.8557C213.115 46.6745 213.366 46.5727 213.628 46.5727C213.89 46.5727 214.141 46.6745 214.326 46.8557C214.511 47.037 214.615 47.2828 214.615 47.5392H216.737C216.737 47.2828 216.841 47.037 217.026 46.8557C217.211 46.6745 217.462 46.5727 217.724 46.5727C217.986 46.5727 218.237 46.6745 218.422 46.8557C218.607 47.037 218.711 47.2828 218.711 47.5392H220.833C220.833 47.2828 220.937 47.037 221.122 46.8557C221.307 46.6745 221.558 46.5727 221.82 46.5727C222.082 46.5727 222.333 46.6745 222.518 46.8557C222.703 47.037 222.807 47.2828 222.807 47.5392H224.932C224.932 47.2828 225.036 47.037 225.221 46.8557C225.406 46.6745 225.657 46.5727 225.919 46.5727C226.181 46.5727 226.432 46.6745 226.617 46.8557C226.802 47.037 226.906 47.2828 226.906 47.5392H229.028C229.028 47.2828 229.132 47.037 229.317 46.8557C229.502 46.6745 229.753 46.5727 230.015 46.5727C230.277 46.5727 230.528 46.6745 230.713 46.8557C230.898 47.037 231.002 47.2828 231.002 47.5392H233.124C233.124 47.2828 233.228 47.037 233.413 46.8557C233.598 46.6745 233.849 46.5727 234.111 46.5727C234.373 46.5727 234.624 46.6745 234.809 46.8557C234.994 47.037 235.098 47.2828 235.098 47.5392H237.22C237.22 47.2828 237.324 47.037 237.509 46.8557C237.694 46.6745 237.945 46.5727 238.207 46.5727C238.469 46.5727 238.72 46.6745 238.905 46.8557C239.09 47.037 239.194 47.2828 239.194 47.5392H241.316C241.316 47.2828 241.42 47.037 241.605 46.8557C241.79 46.6745 242.041 46.5727 242.303 46.5727C242.565 46.5727 242.816 46.6745 243.001 46.8557C243.186 47.037 243.29 47.2828 243.29 47.5392H245.412C245.412 47.2828 245.516 47.037 245.701 46.8557C245.886 46.6745 246.137 46.5727 246.399 46.5727C246.661 46.5727 246.912 46.6745 247.097 46.8557C247.282 47.037 247.386 47.2828 247.386 47.5392H249.489C249.489 47.2828 249.593 47.037 249.778 46.8557C249.963 46.6745 250.214 46.5727 250.476 46.5727V46.6113Z" fill="white"/>
<path d="M261.768 71.8857H109.195V186.516H261.768V71.8857Z" fill="white"/>
</svg>
