<svg width="262" height="201" viewBox="0 0 262 201" fill="none" xmlns="http://www.w3.org/2000/svg">
<g clip-path="url(#clip0)">
<rect x="0.308594" y="0.314453" width="261" height="200" rx="20" fill="#54FFC1"/>
<path d="M261.406 0.542969H0.40625V200.543H261.406V0.542969Z" fill="#335DFF"/>
<path d="M176.436 165.924C175.164 188.388 136.957 198.837 105.464 196.571C73.7587 194.333 41.0296 165.513 13.5843 161.166C-13.8611 156.818 -43.7599 163.076 -66.3495 153.041C-88.9683 142.792 -96.7533 130.145 -91.7134 106.731C-86.4609 83.2882 -60.8296 63.1883 -49.0124 32.295C-37.0118 1.15815 -39.0377 -40.7431 -24.9015 -45.0725C-10.7653 -49.4019 19.5624 -15.9449 43.5708 1.3271C67.3667 18.6281 85.0559 19.7151 94.3254 28.9422C103.624 38.3838 104.503 55.9654 123.031 82.2882C141.559 108.611 177.465 143.275 176.436 165.924Z" fill="#2885F2"/>
<path d="M254.255 36.7847V34.8239C253.695 34.8239 253.267 34.3991 253.267 33.8435C253.267 33.2879 253.695 32.8631 254.255 32.8631V30.9023C253.695 30.9023 253.267 30.4775 253.267 29.9219C253.267 29.3664 253.695 28.9415 254.255 28.9415V26.9807C253.695 26.9807 253.267 26.5559 253.267 26.0004C253.267 25.4448 253.695 25.02 254.255 25.02V23.0592C253.695 23.0592 253.267 22.6343 253.267 22.0788C253.267 21.5232 253.695 21.0984 254.255 21.0984V19.1376C253.695 19.1376 253.267 18.7128 253.267 18.1572C253.267 17.6017 253.695 17.1768 254.255 17.1768V15.1507C253.695 15.1507 253.267 14.7258 253.267 14.1703C253.267 13.6147 253.695 13.1899 254.255 13.1899V11.2291C253.695 11.2291 253.267 10.8043 253.267 10.2487C253.267 9.69316 253.695 9.26833 254.255 9.26833V7.30754C253.992 7.30754 253.728 7.2095 253.563 7.01342C253.366 6.81734 253.267 6.58859 253.267 6.32715H251.158C251.158 6.8827 250.729 7.30754 250.169 7.30754C249.609 7.30754 249.18 6.8827 249.18 6.32715H247.038C247.038 6.8827 246.61 7.30754 246.05 7.30754C245.489 7.30754 245.061 6.8827 245.061 6.32715H242.919C242.919 6.8827 242.491 7.30754 241.93 7.30754C241.37 7.30754 240.942 6.8827 240.942 6.32715H238.833C238.833 6.8827 238.404 7.30754 237.844 7.30754C237.284 7.30754 236.855 6.8827 236.855 6.32715H234.713C234.713 6.8827 234.285 7.30754 233.725 7.30754C233.164 7.30754 232.736 6.8827 232.736 6.32715H230.594C230.594 6.8827 230.166 7.30754 229.605 7.30754C229.045 7.30754 228.617 6.8827 228.617 6.32715H226.508C226.508 6.8827 226.079 7.30754 225.519 7.30754C224.959 7.30754 224.53 6.8827 224.53 6.32715H222.421C222.421 6.8827 221.993 7.30754 221.433 7.30754C220.872 7.30754 220.444 6.8827 220.444 6.32715H218.302C218.302 6.8827 217.874 7.30754 217.313 7.30754C216.753 7.30754 216.325 6.8827 216.325 6.32715H214.183C214.183 6.8827 213.754 7.30754 213.194 7.30754C212.634 7.30754 212.205 6.8827 212.205 6.32715H210.096C210.096 6.8827 209.668 7.30754 209.108 7.30754C208.547 7.30754 208.119 6.8827 208.119 6.32715H205.977C205.977 6.58859 205.878 6.85002 205.68 7.01342C205.483 7.2095 205.252 7.30754 204.988 7.30754V9.26833C205.549 9.26833 205.977 9.69316 205.977 10.2487C205.977 10.8043 205.549 11.2291 204.988 11.2291V13.1899C205.549 13.1899 205.977 13.6147 205.977 14.1703C205.977 14.7258 205.549 15.1507 204.988 15.1507V17.1115C205.549 17.1115 205.977 17.5363 205.977 18.0919C205.977 18.6474 205.549 19.0723 204.988 19.0723V21.033C205.549 21.033 205.977 21.4579 205.977 22.0134C205.977 22.569 205.549 22.9938 204.988 22.9938V24.9546C205.549 24.9546 205.977 25.3794 205.977 25.935C205.977 26.4906 205.549 26.9154 204.988 26.9154V28.8762C205.549 28.8762 205.977 29.301 205.977 29.8566C205.977 30.4121 205.549 30.837 204.988 30.837V32.7977C205.549 32.7977 205.977 33.2226 205.977 33.7781C205.977 34.3337 205.549 34.7585 204.988 34.7585V36.7193C205.252 36.7193 205.516 36.85 205.68 37.0461C205.878 37.2422 205.977 37.5036 205.977 37.7651H208.119C208.119 37.2095 208.547 36.7847 209.108 36.7847C209.668 36.7847 210.096 37.2095 210.096 37.7651H212.205C212.205 37.2095 212.634 36.7847 213.194 36.7847C213.754 36.7847 214.183 37.2095 214.183 37.7651H216.325C216.325 37.2095 216.753 36.7847 217.313 36.7847C217.874 36.7847 218.302 37.2095 218.302 37.7651H220.444C220.444 37.2095 220.872 36.7847 221.433 36.7847C221.993 36.7847 222.421 37.2095 222.421 37.7651H224.563C224.563 37.2095 224.992 36.7847 225.552 36.7847C226.112 36.7847 226.541 37.2095 226.541 37.7651H228.65C228.65 37.2095 229.078 36.7847 229.638 36.7847C230.199 36.7847 230.627 37.2095 230.627 37.7651H232.769C232.769 37.2095 233.197 36.7847 233.758 36.7847C234.318 36.7847 234.746 37.2095 234.746 37.7651H236.888C236.888 37.2095 237.317 36.7847 237.877 36.7847C238.437 36.7847 238.866 37.2095 238.866 37.7651H241.008C241.008 37.2095 241.436 36.7847 241.996 36.7847C242.556 36.7847 242.985 37.2095 242.985 37.7651H245.094C245.094 37.2095 245.522 36.7847 246.083 36.7847C246.643 36.7847 247.071 37.2095 247.071 37.7651H249.213C249.213 37.2095 249.642 36.7847 250.202 36.7847C250.762 36.7847 251.191 37.2095 251.191 37.7651H253.333C253.267 37.2095 253.728 36.7847 254.255 36.7847Z" fill="#3BDBA1"/>
<path d="M234.55 35.0858H208.352V9.00732H250.929V35.0858H239.856" fill="#FEDFC1"/>
<path d="M237.509 35.086L220.151 15.7973C219.444 15.0083 218.559 12.7871 220.416 11.1213C222.45 9.30934 224.542 10.7414 225.249 11.5305L242.755 31.0237C243.256 31.579 243.227 33.0694 242.844 34.1216C242.755 34.4138 242.49 34.7645 242.195 35.086" fill="#F8B352"/>
<path d="M239.635 35.0566C240.342 34.2676 241.374 32.7186 240.961 30.7021C240.401 28.0134 238.868 33.0693 238.927 35.0566" fill="#FCD7A0"/>
<path d="M235.569 31.8422C235.569 31.8422 238.133 29.9133 237.514 26.8739C236.865 23.8637 235.009 30.7316 235.569 31.8422Z" fill="#FCD7A0"/>
<path d="M232.149 28.0138C232.149 28.0138 234.713 26.085 234.095 23.0456C233.476 20.0061 231.59 26.9033 232.149 28.0138Z" fill="#FCD7A0"/>
<path d="M228.76 24.2145C228.76 24.2145 231.324 22.2856 230.705 19.2462C230.057 16.2652 228.2 23.1039 228.76 24.2145Z" fill="#FCD7A0"/>
<path d="M225.372 20.4447C225.372 20.4447 227.936 18.5159 227.317 15.4764C226.669 12.4662 224.783 19.3342 225.372 20.4447Z" fill="#FCD7A0"/>
<path d="M221.952 16.6447C221.952 16.6447 224.516 14.7158 223.897 11.6764C223.278 8.63699 221.392 15.5341 221.952 16.6447Z" fill="#FCD7A0"/>
<path d="M31.6151 182.864C22.1241 174.923 15.7969 160.773 15.7969 144.629C15.7969 119.76 30.7912 99.6289 49.3116 99.6289C67.7991 99.6289 82.8264 119.792 82.8264 144.629C82.8264 160.511 76.6969 174.466 67.4696 182.472" fill="#F07622"/>
<path d="M49.9699 122.504C68.062 122.504 82.6938 107.994 82.6938 90.0853C82.6938 72.1768 68.029 57.667 49.9699 57.667C31.8779 57.667 17.2461 72.1768 17.2461 90.0853C17.2461 107.961 31.8779 122.504 49.9699 122.504Z" fill="#F07622"/>
<path d="M63.2183 140.903C61.2081 142.766 56.4297 145.021 53.2331 139.236C53.5297 139.465 48.5536 147.472 43.8411 139.236C43.5445 139.236 38.9308 147.472 34.6797 139.236" stroke="#F69D4A" stroke-width="2" stroke-linecap="round" stroke-linejoin="round"/>
<path d="M57.9122 134.334C54.5178 134.334 53.0678 131.883 52.7712 130.674C53.0678 130.903 48.0917 138.909 43.3792 130.674C43.0826 131.883 41.5996 134.334 38.2383 134.334" stroke="#F69D4A" stroke-width="2" stroke-linecap="round" stroke-linejoin="round"/>
<path d="M73.0059 113.06L77.8172 108.91C77.8831 108.877 77.9161 108.812 77.9161 108.746C77.9161 108.681 77.9161 108.616 77.8831 108.55C77.8502 108.485 77.8172 108.452 77.7513 108.42C77.6854 108.387 77.6195 108.387 77.5536 108.387L76.8615 108.485L80.1899 105.446C80.2558 105.413 80.2888 105.348 80.2888 105.282C80.2888 105.217 80.2888 105.152 80.2558 105.086C80.2229 105.021 80.157 104.988 80.124 104.956C80.0581 104.923 79.9922 104.923 79.9263 104.923L78.9047 105.184" fill="#F07622"/>
<path d="M26.0796 112.308L21.4001 107.994C21.3671 107.962 21.3342 107.896 21.3012 107.831C21.3012 107.766 21.3012 107.7 21.3342 107.635C21.3671 107.569 21.4001 107.537 21.466 107.504C21.5319 107.471 21.5978 107.471 21.6637 107.471L22.3558 107.602L19.1262 104.465C19.0933 104.432 19.0603 104.367 19.0273 104.302C19.0273 104.236 19.0273 104.171 19.0603 104.105C19.0933 104.04 19.1592 104.007 19.2251 103.975C19.291 103.942 19.3569 103.942 19.4228 103.975L20.4444 104.236" fill="#F07622"/>
<path d="M50.7941 90.8372L53.8918 95.0855C53.9577 95.1509 54.0236 95.2162 54.0566 95.3143C54.0895 95.4123 54.1225 95.4777 54.0895 95.5757C54.0895 95.6738 54.0566 95.7718 54.0236 95.8372C53.9907 95.9352 53.9248 96.0006 53.8588 96.0659L50.5634 101.556C50.4316 101.687 50.2338 101.752 50.0691 101.752C49.8713 101.752 49.7066 101.654 49.5748 101.523L46.477 95.8698C46.3452 95.7391 46.2793 95.5757 46.2793 95.3796C46.2793 95.1836 46.3452 95.0202 46.477 94.8894L49.7725 90.8372C49.8384 90.7718 49.9043 90.7064 50.0032 90.6738C50.102 90.6411 50.2009 90.6084 50.2668 90.6084C50.3657 90.6084 50.4645 90.6411 50.5304 90.6738C50.6293 90.7064 50.7282 90.7718 50.7941 90.8372Z" fill="#FCE014"/>
<path d="M49.806 100.249C50.3333 101.295 50.4651 101.687 50.564 101.556C50.1685 101.949 49.7401 101.72 49.5754 101.556C48.6526 99.9224 46.7083 96.5237 46.4447 96.0008C46.181 95.4779 46.2469 95.1838 46.3129 95.1184C47.1038 93.8113 49.3776 91.1642 49.9379 90.7067C50.2345 90.4779 50.4651 90.6413 50.597 90.7067L50.7947 90.8701L47.3015 95.4452C47.9606 96.6544 49.2788 99.2034 49.806 100.249Z" fill="#DBC325"/>
<path d="M62.4282 92.8635C67.7009 92.8635 71.952 88.6478 71.952 83.4191C71.952 78.1903 67.7009 73.9746 62.4282 73.9746C57.1554 73.9746 52.9043 78.1903 52.9043 83.4191C52.9043 88.6151 57.1554 92.8635 62.4282 92.8635Z" fill="white"/>
<path d="M60.2524 87.6999C63.3502 87.6999 65.8877 85.1836 65.8877 82.1117C65.8877 79.0398 63.3502 76.5234 60.2524 76.5234C57.1547 76.5234 54.6172 79.0398 54.6172 82.1117C54.6501 85.1836 57.1547 87.6999 60.2524 87.6999Z" fill="black"/>
<path d="M64.8656 79.4977C64.8656 80.6741 63.91 81.6545 62.6906 81.6545C61.5043 81.6545 60.5156 80.7068 60.5156 79.4977C60.5156 78.3212 61.4713 77.3408 62.6906 77.3408C63.91 77.3408 64.8656 78.3212 64.8656 79.4977Z" fill="white"/>
<path d="M38.1723 92.8635C43.445 92.8635 47.6962 88.6478 47.6962 83.4191C47.6962 78.1903 43.445 73.9746 38.1723 73.9746C32.8996 73.9746 28.6484 78.1903 28.6484 83.3864C28.6484 88.6151 32.8996 92.8635 38.1723 92.8635Z" fill="white"/>
<path d="M36.4262 87.6999C39.524 87.6999 42.0615 85.1836 42.0615 82.1117C42.0615 79.0398 39.524 76.5234 36.4262 76.5234C33.3285 76.5234 30.791 79.0398 30.791 82.1117C30.791 85.1836 33.3285 87.6999 36.4262 87.6999Z" fill="black"/>
<path d="M64.9314 62.6671L77.9814 75.7717C78.0803 75.8697 78.2121 75.9351 78.3439 75.9678C78.4757 76.0005 78.6405 76.0005 78.7723 75.9351C78.9041 75.8697 79.036 75.8044 79.1019 75.6737C79.2007 75.5429 79.2337 75.4122 79.2666 75.2815V58.0593C79.2666 57.9286 79.2666 57.8305 79.2337 57.6998C79.2007 57.5691 79.1348 57.5037 79.036 57.4057C78.9371 57.3403 78.8382 57.275 78.7394 57.2423C78.6405 57.2096 78.5087 57.2096 78.3769 57.2423L65.3269 61.3599C65.1951 61.3926 65.0632 61.458 64.9644 61.5233C64.8655 61.6214 64.7667 61.7194 64.7337 61.8501C64.7007 61.9808 64.7007 62.1116 64.7337 62.275C64.7667 62.4384 64.8326 62.5691 64.9314 62.6671Z" fill="#F07622"/>
<path d="M68.9185 63.4516L76.2674 70.8372C76.3333 70.9026 76.3992 70.9353 76.4651 70.968C76.531 71.0006 76.6299 70.968 76.6958 70.968C76.7617 70.9353 76.8276 70.9026 76.8935 70.8372C76.9594 70.7719 76.9594 70.7065 76.9924 70.6085L76.8276 60.151C76.8276 60.0856 76.8276 60.0203 76.7946 59.9549C76.7617 59.8895 76.7287 59.8242 76.6958 59.7915C76.6299 59.7588 76.5969 59.7261 76.531 59.6935C76.4651 59.6608 76.3992 59.6608 76.3333 59.6935L69.1492 62.7654C69.0833 62.7654 68.9844 62.798 68.9515 62.8634C68.8855 62.9287 68.8526 62.9941 68.8196 63.0595C68.7867 63.1248 68.7867 63.2229 68.8196 63.2882C68.8196 63.3209 68.8526 63.3863 68.9185 63.4516Z" fill="black"/>
<path d="M34.4817 62.6676L21.4317 75.8049C21.3328 75.9029 21.201 75.9683 21.0692 76.001C20.9374 76.0337 20.7726 76.0337 20.6408 75.9683C20.509 75.9029 20.3772 75.8376 20.3113 75.7069C20.2124 75.5761 20.1794 75.4454 20.1465 75.3147V58.0925C20.1465 57.9618 20.1465 57.8637 20.1794 57.733C20.2124 57.635 20.2783 57.5369 20.3772 57.4389C20.476 57.3735 20.5749 57.3082 20.6738 57.2755C20.7726 57.2428 20.9044 57.2428 21.0363 57.2755L34.0863 61.3931C34.2181 61.4258 34.3499 61.4585 34.4817 61.5565C34.5806 61.6546 34.6794 61.7526 34.7124 61.916C34.7453 62.0467 34.7453 62.1774 34.7124 62.3408C34.6465 62.4716 34.5806 62.5696 34.4817 62.6676Z" fill="#F07622"/>
<path d="M30.527 63.4843L23.1781 70.8372C23.1122 70.9026 23.0463 70.9353 22.9804 70.968C22.9145 71.0006 22.8156 70.968 22.7497 70.968C22.6838 70.9353 22.6179 70.9026 22.552 70.8372C22.4861 70.7719 22.4861 70.7065 22.4531 70.6085L22.6179 60.151C22.6179 60.0856 22.6179 60.0203 22.6509 59.9549C22.6838 59.8895 22.7168 59.8242 22.7497 59.7915C22.8156 59.7588 22.8486 59.7261 22.9145 59.6935C22.9804 59.6608 23.0463 59.6608 23.1122 59.6935L30.2963 62.7327C30.3622 62.7327 30.4611 62.7654 30.527 62.8307C30.5929 62.8961 30.6259 62.9614 30.6588 63.0268C30.6918 63.0921 30.6918 63.1902 30.6588 63.2555C30.6259 63.3536 30.5599 63.4189 30.527 63.4843Z" fill="black"/>
<path d="M51.0254 57.6672L57.3856 57.4385C57.4515 57.4385 57.5174 57.4712 57.5834 57.5038C57.6493 57.5365 57.6822 57.6019 57.6822 57.6672C57.7152 57.7326 57.7152 57.798 57.6822 57.8633C57.6493 57.9287 57.6163 57.994 57.5834 58.0267L57.0231 58.4189L61.5379 58.3862C61.6038 58.3862 61.6697 58.4189 61.7356 58.4515C61.8015 58.4842 61.8345 58.5496 61.8345 58.6149C61.8675 58.6803 61.8345 58.7457 61.8345 58.811C61.8015 58.8764 61.7686 58.9417 61.7027 58.9744L60.78 59.4973" fill="#F07622"/>
<path d="M38.6016 59.6281L44.8629 56.9483C44.9288 56.9157 44.9947 56.9157 45.0607 56.9483C45.1266 56.981 45.1925 57.0137 45.2254 57.0464C45.2584 57.0791 45.2913 57.1771 45.2913 57.2425C45.2913 57.3078 45.2584 57.3732 45.2254 57.4385L44.7311 58.0595" fill="#F07622"/>
<path d="M38.6016 59.6281L44.8629 56.9483C44.9288 56.9157 44.9947 56.9157 45.0607 56.9483C45.1266 56.981 45.1925 57.0137 45.2254 57.0464C45.2584 57.1117 45.2913 57.1771 45.2913 57.2425C45.2913 57.3078 45.2584 57.3732 45.2254 57.4385L44.7311 58.0595" fill="#F07622"/>
<path d="M45.3574 57.9616L51.6188 56.7852C51.6847 56.7852 51.7506 56.7852 51.8165 56.8178C51.8824 56.8505 51.9154 56.8832 51.9483 56.9486C51.9813 57.0139 51.9813 57.0793 51.9813 57.1446C51.9813 57.21 51.9483 57.2753 51.8824 57.308L51.4211 57.7655" fill="#F07622"/>
<path d="M41.0395 79.0729C41.0395 80.2493 40.0838 81.2297 38.8645 81.2297C37.6781 81.2297 36.6895 80.282 36.6895 79.0729C36.6895 77.8964 37.6451 76.916 38.8645 76.916C40.0838 76.916 41.0395 77.8964 41.0395 79.0729Z" fill="white"/>
<path d="M38.3706 97.5694C42.5566 97.5694 45.9501 95.7405 45.9501 93.4844C45.9501 91.2283 42.5566 89.3994 38.3706 89.3994C34.1845 89.3994 30.791 91.2283 30.791 93.4844C30.791 95.7405 34.1845 97.5694 38.3706 97.5694Z" fill="#F07622"/>
<path d="M63.5156 97.5694C68.6663 97.5694 72.8417 95.7405 72.8417 93.4844C72.8417 91.2283 68.6663 89.3994 63.5156 89.3994C58.3649 89.3994 54.1895 91.2283 54.1895 93.4844C54.1895 95.7405 58.3649 97.5694 63.5156 97.5694Z" fill="#F07622"/>
<path d="M68.5247 192.57V188.975C68.5247 187.668 67.4702 186.622 66.152 186.622C64.8338 186.622 63.7793 187.668 63.7793 188.975V192.57C63.7793 193.877 64.8338 194.923 66.152 194.923C67.4702 194.923 68.5247 193.877 68.5247 192.57Z" fill="#FCE014"/>
<path d="M64.2396 192.57V188.975C64.2396 187.668 63.185 186.622 61.8669 186.622C60.5487 186.622 59.4941 187.668 59.4941 188.975V192.57C59.4941 193.877 60.5487 194.923 61.8669 194.923C63.185 194.923 64.2396 193.877 64.2396 192.57Z" fill="#FCE014"/>
<path d="M59.9564 192.733V189.138C59.9564 187.831 58.9019 186.785 57.5837 186.785C56.2655 186.785 55.2109 187.831 55.2109 189.138V192.733C55.2109 194.04 56.2655 195.086 57.5837 195.086C58.9019 195.086 59.9564 194.04 59.9564 192.733Z" fill="#FCE014"/>
<path d="M45.7201 192.177V188.582C45.7201 187.275 44.6655 186.229 43.3473 186.229C42.0292 186.229 40.9746 187.275 40.9746 188.582V192.177C40.9746 193.484 42.0292 194.53 43.3473 194.53C44.6655 194.563 45.7201 193.484 45.7201 192.177Z" fill="#FCE014"/>
<path d="M41.4349 192.177V188.582C41.4349 187.275 40.3804 186.229 39.0622 186.229C37.744 186.229 36.6895 187.275 36.6895 188.582V192.177C36.6895 193.484 37.744 194.53 39.0622 194.53C40.3804 194.53 41.4349 193.484 41.4349 192.177Z" fill="#FCE014"/>
<path d="M37.1517 192.373V188.779C37.1517 187.472 36.0972 186.426 34.779 186.426C33.4608 186.426 32.4062 187.472 32.4062 188.779V192.373C32.4062 193.681 33.4608 194.726 34.779 194.726C36.0972 194.726 37.1517 193.648 37.1517 192.373Z" fill="#FCE014"/>
<path d="M64.9 180.51C64.9 179.628 63.483 178.909 61.7694 178.909C60.0557 178.909 58.6387 179.628 58.6387 180.51V188.354C58.6387 189.236 60.0557 189.955 61.7694 189.955C63.483 189.955 64.9 189.236 64.9 188.354V180.51Z" fill="#FCE014"/>
<path d="M41.7985 180.51C41.7985 179.628 40.4474 178.909 38.7996 178.909C37.1519 178.909 35.8008 179.628 35.8008 180.51V188.354C35.8008 189.236 37.1519 189.955 38.7996 189.955C40.4474 189.955 41.7985 189.236 41.7985 188.354V180.51Z" fill="#FCE014"/>
<path d="M23.0801 125.052C23.0801 125.052 20.4107 124.104 22.1903 121.425C22.1903 121.425 23.113 120.019 21.2676 119.333C19.4221 118.647 18.6641 111.784 23.2448 110.804H23.3107C23.3107 110.804 46.9721 115.902 75.346 110.313C75.346 110.313 78.0153 111.261 76.2357 113.941C76.2357 113.941 75.313 115.346 77.1585 116.032C79.0039 116.719 79.7619 123.581 75.1812 124.562C46.8073 130.15 23.113 125.085 23.0801 125.052Z" fill="black"/>
<path d="M31.285 122.438C30.7906 122.372 19.1577 131.294 21.4645 146.882C21.794 147.209 36.8543 150.411 36.8543 150.411C36.8543 150.411 37.5463 132.405 46.7736 123.81C57.0884 114.235 31.285 122.438 31.285 122.438Z" fill="black"/>
<path d="M36.854 150.444C36.854 150.444 36.7222 152.895 35.5029 152.503C34.2506 152.111 34.8438 151.196 31.9109 151.228C29.0109 151.294 27.7586 150.15 27.7586 150.15C27.7586 150.15 27.0336 149.202 23.5404 149.137C21.8597 149.104 21.3984 148.385 21.4313 146.882C21.4972 144.889 36.854 150.444 36.854 150.444Z" fill="black"/>
<path d="M27.5285 125.804C27.5285 125.804 31.0876 127.176 44.0058 127.046C43.9399 127.144 42.5887 129.202 42.0615 130.248C41.9956 130.379 29.6376 130.052 26.1115 127.666C25.9797 127.797 27.5285 125.804 27.5285 125.804Z" fill="white"/>
<path d="M41.271 131.784C41.271 131.784 29.8028 131.653 25.1892 128.974C25.1233 129.104 24.1676 130.51 23.8381 131.392C23.8051 131.457 28.254 133.908 40.3154 134.039C40.3154 134.072 40.9415 132.503 41.271 131.784Z" fill="white"/>
<path d="M39.7886 135.477C39.7886 135.477 27.8591 135.412 23.2454 132.699C23.1795 132.83 22.4875 134.497 22.3556 135.052C22.3227 135.118 27.0352 137.536 39.0966 137.667C39.0636 137.667 39.4261 136.49 39.7886 135.477Z" fill="white"/>
<path d="M38.667 139.137C38.667 139.137 26.5398 139.17 21.9261 136.49C21.8602 136.621 21.5307 138.157 21.4318 138.81C21.3989 138.876 26.0455 141.229 38.1068 141.36C38.1398 141.36 38.4034 140.248 38.667 139.137Z" fill="white"/>
<path d="M37.8102 142.96C37.8102 142.96 25.8807 143.222 21.267 140.542C21.2011 140.673 21.1682 142.176 21.1682 142.862C21.1352 142.928 25.3863 145.052 37.4477 145.183C37.4147 145.183 37.5795 144.137 37.8102 142.96Z" fill="white"/>
<path d="M37.1841 146.817C37.1841 146.817 25.8148 147.111 21.2011 144.398C21.1352 144.529 21.3659 146.13 21.4647 146.882C21.4318 146.947 24.925 148.876 36.9534 149.039C36.9534 149.039 37.0193 148.059 37.1841 146.817Z" fill="white"/>
<path d="M78.4777 120.706C78.4777 120.706 78.5436 122.471 77.1925 123.484C77.1266 123.255 42.9527 128.418 21.6311 123.484C21.73 123.451 21.2686 122.83 22.1584 121.49C33.7255 125.249 77.8516 122.896 78.4777 120.706Z" fill="white"/>
<path d="M78.5422 118.777C78.5422 118.777 78.4433 116.849 77.2569 116.098C77.224 116.098 56.199 122.83 19.916 117.078C19.916 116.947 20.3115 119.104 21.2672 119.333C21.2672 119.333 22.0251 119.562 22.1569 119.921C22.1899 119.921 50.0365 124.072 78.5422 118.777Z" fill="white"/>
<path d="M76.7948 111.85C76.7948 111.85 76.9926 112.471 76.4983 113.484C76.4983 113.451 76.0039 114.17 75.971 114.66C75.938 114.627 41.138 120.02 20.0801 113.843C20.146 113.909 20.3437 112.405 21.6949 111.49C21.6949 111.523 41.3028 118.909 76.7948 111.85Z" fill="white"/>
<path d="M52.7714 121.426C56.9896 117.7 61.3067 120.674 62.7896 122.276L98.9737 162.537C99.9953 163.648 99.9623 166.753 99.1714 168.91C98.6771 170.282 96.4692 172.57 95.0192 172.962C92.5805 173.615 89.9771 173.06 88.9555 171.916L52.2112 131.066C50.7282 129.432 48.9157 124.825 52.7714 121.426Z" fill="#F8B352"/>
<path d="M91.0973 172.177C91.0973 172.177 96.4359 168.19 95.1178 161.916C93.7996 155.674 89.9439 169.857 91.0973 172.177Z" fill="#FCD7A0"/>
<path d="M83.9801 164.334C83.9801 164.334 89.3187 160.347 88.0006 154.073C86.6824 147.798 82.8267 162.014 83.9801 164.334Z" fill="#FCD7A0"/>
<path d="M76.9274 156.393C76.9274 156.393 82.266 152.406 80.9478 146.132C79.6296 139.923 75.774 154.106 76.9274 156.393Z" fill="#FCD7A0"/>
<path d="M69.9078 148.583C69.9078 148.583 75.2135 144.596 73.9283 138.354C72.6101 132.112 68.7544 146.262 69.9078 148.583Z" fill="#FCD7A0"/>
<path d="M62.8882 140.773C62.8882 140.773 68.2268 136.786 66.9087 130.511C65.5905 124.269 61.7018 138.452 62.8882 140.773Z" fill="#FCD7A0"/>
<path d="M55.8701 132.962C55.8701 132.962 61.1758 128.975 59.8906 122.733C58.5394 116.458 54.6838 130.641 55.8701 132.962Z" fill="#FCD7A0"/>
<path d="M89.7462 140.119C91.4269 151.622 87.3735 155.38 83.0894 163.746C82.8587 164.171 82.3644 164.367 81.936 164.138C81.6724 164.008 81.5406 163.812 81.3428 163.615C74.5542 157.112 71.9178 153.027 70.1383 140.903C68.4246 129.138 70.2701 117.962 74.6201 109.236C82.1996 116.426 87.8678 127.374 89.7462 140.119Z" fill="#F69D4A"/>
<path d="M24.3316 120.315C16.3896 129.203 11.743 139.53 10.5566 149.236C20.8714 147.341 31.6805 141.295 40.3146 131.622C48.2566 122.733 52.9032 112.406 54.0896 102.7C43.7419 104.596 32.9657 110.641 24.3316 120.315Z" fill="#F69D4A"/>
<path d="M81.0784 76.5887C81.1772 76.6867 89.7454 77.4057 89.7454 77.4057C89.7454 77.4057 92.8102 77.3076 94.8863 77.2096C96.9295 77.1116 96.7647 75.4449 96.3693 74.2357C96.0068 73.0266 85.4613 56.3926 67.8306 45.0201C67.9295 44.922 67.3693 44.007 68.5886 42.1442C69.8079 40.2815 71.192 37.5037 71.192 37.5037C71.192 37.5037 72.5761 36.1312 70.3681 35.8371C68.1602 35.5429 66.4465 37.2096 66.4465 37.2096C66.4465 37.2096 63.3818 41.3599 62.9863 42.4057C62.9863 42.5037 57.2193 39.5299 41.1704 41.0985C31.2841 42.0789 27.9556 42.3076 26.8352 42.3403C26.1431 42.373 25.55 42.7652 25.2534 43.3861C24.825 44.3338 24.3966 46.0658 24.1659 49.3338C24.3636 49.4318 23.0454 51.654 28.45 62.1769C28.6477 62.1769 29.0761 63.6802 28.1863 65.0201C27.2966 66.4253 41.467 60.0201 81.0784 76.5887Z" fill="#9E9D9D"/>
<path d="M24.9588 44.1378C24.9588 44.1378 23.5088 39.5299 34.3838 45.8044C44.1054 51.4254 89.9122 64.8567 96.6349 74.2685" stroke="#3D3D3D" stroke-width="2" stroke-miterlimit="10"/>
</g>
<defs>
<clipPath id="clip0">
<rect x="0.308594" y="0.314453" width="261" height="200" rx="20" fill="white"/>
</clipPath>
</defs>
</svg>
