<svg width="261" height="200" viewBox="0 0 261 200" fill="none" xmlns="http://www.w3.org/2000/svg">
<g clip-path="url(#clip0)">
<rect width="261" height="200" rx="20" fill="white"/>
<path d="M261 0H0V200H261V0Z" fill="#FDEC77"/>
<path d="M261 0H0V200H261V0Z" fill="#FDEC77"/>
<path d="M60.1453 247.564C38.0587 243.273 32.8619 204.005 39.358 173.106C45.854 141.993 78.8279 113.453 86.8397 86.8455C94.8515 60.238 92.6861 29.7681 105.678 8.73961C118.887 -12.2889 132.468 -18.2959 154.988 -10.142C177.507 -1.77352 193.964 26.336 222.98 42.2147C252.212 58.3079 294.003 61.9557 296.385 76.5469C298.767 91.1381 261.523 116.673 241.169 138.13C220.814 159.373 217.35 176.754 206.956 184.693C196.346 192.633 178.807 191.131 150.224 205.937C121.641 220.742 82.4485 251.641 60.1453 247.564Z" fill="#FDE01B"/>
<path d="M28.3042 182.463L10.2465 182.389C9.82739 183.011 9.40833 183.597 8.95117 184.182V189.999L29.9043 190.108C28.9138 187.621 28.3804 185.06 28.3042 182.463ZM61.4863 151.843C60.953 150.197 60.4577 148.551 60.0006 146.941C57.4481 137.905 55.429 128.723 53.9813 119.468C53.7527 117.968 53.5242 116.504 53.3337 115.041C53.1432 113.761 52.9908 112.553 52.8384 111.31C50.6288 94.0427 50.5907 81.3486 50.5907 81.3486L36.4569 81.2754C36.4569 81.2754 36.3045 93.9329 33.9425 111.2C33.7901 112.407 33.5997 113.651 33.4092 114.931C33.1806 116.358 32.952 117.821 32.7234 119.358C31.1996 128.613 29.1424 137.759 26.5137 146.795C26.0184 148.441 25.5232 150.087 24.9898 151.697C24.3422 153.709 23.6184 155.684 22.8945 157.623L63.5436 157.806C62.8197 155.831 62.134 153.855 61.4863 151.843ZM35.9997 143.539C38.2855 133.479 39.5046 122.723 39.5046 122.723L47.3906 122.76C47.8859 127.186 50.7812 143.649 50.7812 143.649L35.9997 143.539ZM76.0392 182.682L57.9815 182.609C57.8672 185.206 57.3338 187.767 56.3814 190.181L77.3345 190.291V184.475C76.8774 183.889 76.4583 183.304 76.0392 182.682Z" fill="white"/>
<path d="M50.4384 76.227V78.0561H36.6855V76.1904L50.4384 76.227Z" fill="white"/>
<path d="M57.943 182.61C57.943 182.281 57.9811 181.915 57.9811 181.586C58.0192 178.549 57.4477 175.549 56.3048 172.733C56.1525 172.403 56.0382 172.074 55.8858 171.745C54.8191 169.404 53.2571 167.282 51.2761 165.599C48.9522 163.916 46.095 163.002 43.1615 163.002H43.1234C40.2662 163.002 37.447 163.843 35.1232 165.453C33.0659 167.172 31.4278 169.33 30.3611 171.745C30.1706 172.147 29.9801 172.586 29.8277 172.989C28.7991 175.696 28.2658 178.549 28.2658 181.439C28.2658 181.768 28.2658 182.134 28.3039 182.464L10.2461 182.39C15.4272 175.037 19.5798 166.55 22.9323 157.624L63.5813 157.807C66.8576 166.77 70.9339 175.33 76.077 182.72L57.943 182.61Z" fill="white"/>
<path d="M80.9927 182.719L80.9546 190.511L54.7441 190.401L54.7822 182.975V182.609H55.0108H57.9823L76.0401 182.683L80.9927 182.719Z" fill="#9D9D9D"/>
<path d="M30.8189 182.498L30.7808 190.29L4.57031 190.181L4.60841 182.389L10.2086 182.425L28.2664 182.498H30.8189Z" fill="#9D9D9D"/>
<path d="M69.1052 151.88L63.5431 157.806L22.894 157.623L17.7129 151.66L24.9512 151.697L61.4859 151.843L69.1052 151.88Z" fill="#9D9D9D"/>
<path d="M69.1052 151.879L17.7129 151.66V146.758L69.1052 146.977V151.879Z" fill="#9D9D9D"/>
<path d="M53.9822 119.431L32.7243 119.321L30.1719 114.895L56.649 115.004L53.9822 119.431Z" fill="#9D9D9D"/>
<path d="M56.649 115.041L30.1719 114.895V111.163L56.649 111.273V115.041Z" fill="#9D9D9D"/>
<path d="M50.5913 81.3481L36.4575 81.2749L34.9336 79.4092L52.1914 79.4823L50.5913 81.3481Z" fill="#3950A3"/>
<path d="M50.5913 81.3481L36.4575 81.2749L34.9336 79.4092L52.1914 79.4823L50.5913 81.3481Z" fill="#3950A3"/>
<path d="M50.5913 81.3481L36.4575 81.2749L34.9336 79.4092L52.1914 79.4823L50.5913 81.3481Z" fill="#9D9D9D"/>
<path d="M52.1914 76.2275V79.5199L45.2959 79.4833L34.9336 79.4467V76.1543H36.686L50.4389 76.2275H52.1914Z" fill="#9D9D9D"/>
<path d="M50.4384 73.3005V76.1906L36.6855 76.1174V73.3005C36.6855 68.7643 39.3523 65.0695 42.7429 64.5573V60.204C42.7429 59.6187 43.0858 59.1797 43.5429 59.1797C43.6572 59.1797 43.7715 59.2163 43.8477 59.2529C43.962 59.2894 44.0382 59.3992 44.0763 59.4723C44.2287 59.6918 44.3049 59.9479 44.3049 60.204V64.5573C45.8668 64.7768 47.3145 65.6914 48.3812 67.0815C49.7908 68.9106 50.4765 71.069 50.4384 73.3005Z" fill="white"/>
<path d="M54.7812 182.608H55.0098C54.9336 182.718 54.8574 182.828 54.7812 182.974V182.608Z" fill="white"/>
<path d="M252.73 12.991V10.8219C252.435 10.8219 252.153 10.7076 251.944 10.5042C251.736 10.3008 251.619 10.0249 251.619 9.7373H249.23C249.23 10.0249 249.113 10.3008 248.904 10.5042C248.696 10.7076 248.413 10.8219 248.119 10.8219C247.824 10.8219 247.541 10.7076 247.333 10.5042C247.125 10.3008 247.007 10.0249 247.007 9.7373H244.618C244.618 10.0249 244.501 10.3008 244.293 10.5042C244.084 10.7076 243.802 10.8219 243.507 10.8219C243.212 10.8219 242.93 10.7076 242.721 10.5042C242.513 10.3008 242.396 10.0249 242.396 9.7373H240.003C240.003 10.0249 239.886 10.3008 239.678 10.5042C239.469 10.7076 239.187 10.8219 238.892 10.8219C238.597 10.8219 238.314 10.7076 238.106 10.5042C237.898 10.3008 237.781 10.0249 237.781 9.7373H235.391C235.391 10.0249 235.274 10.3008 235.066 10.5042C234.858 10.7076 234.575 10.8219 234.28 10.8219C233.986 10.8219 233.703 10.7076 233.494 10.5042C233.286 10.3008 233.169 10.0249 233.169 9.7373H230.78C230.782 9.75413 230.782 9.77109 230.78 9.78792C230.773 10.0756 230.649 10.3488 230.436 10.5474C230.223 10.7461 229.937 10.8539 229.643 10.8472C229.348 10.8405 229.068 10.7198 228.865 10.5116C228.661 10.3035 228.551 10.0249 228.557 9.7373H226.168C226.168 10.0249 226.051 10.3008 225.843 10.5042C225.634 10.7076 225.352 10.8219 225.057 10.8219C224.762 10.8219 224.48 10.7076 224.271 10.5042C224.063 10.3008 223.946 10.0249 223.946 9.7373H221.557C221.557 10.0249 221.44 10.3008 221.231 10.5042C221.023 10.7076 220.74 10.8219 220.446 10.8219C220.151 10.8219 219.868 10.7076 219.66 10.5042C219.451 10.3008 219.334 10.0249 219.334 9.7373H216.945C216.945 10.0249 216.828 10.3008 216.62 10.5042C216.411 10.7076 216.129 10.8219 215.834 10.8219C215.539 10.8219 215.257 10.7076 215.048 10.5042C214.84 10.3008 214.723 10.0249 214.723 9.7373H212.334C212.334 10.0249 212.217 10.3008 212.008 10.5042C211.8 10.7076 211.517 10.8219 211.222 10.8219C210.928 10.8219 210.645 10.7076 210.437 10.5042C210.228 10.3008 210.111 10.0249 210.111 9.7373H207.722C207.722 10.0249 207.605 10.3008 207.397 10.5042C207.188 10.7076 206.906 10.8219 206.611 10.8219C206.316 10.8219 206.034 10.7076 205.825 10.5042C205.617 10.3008 205.5 10.0249 205.5 9.7373H203.111C203.111 10.0249 202.993 10.3008 202.785 10.5042C202.577 10.7076 202.294 10.8219 201.999 10.8219H201.94C201.656 10.8071 201.388 10.6863 201.192 10.4845C200.997 10.2827 200.888 10.0152 200.888 9.7373H198.517C198.517 10.0249 198.4 10.3008 198.192 10.5042C197.984 10.7076 197.701 10.8219 197.406 10.8219V12.991C197.701 12.991 197.984 13.1053 198.192 13.3087C198.4 13.5121 198.517 13.7879 198.517 14.0756C198.517 14.3632 198.4 14.6391 198.192 14.8425C197.984 15.0459 197.701 15.1601 197.406 15.1601V17.3293C197.701 17.3293 197.984 17.4435 198.192 17.6469C198.4 17.8503 198.517 18.1262 198.517 18.4138C198.517 18.7015 198.4 18.9774 198.192 19.1807C197.984 19.3841 197.701 19.4984 197.406 19.4984V21.6675C197.701 21.6675 197.984 21.7818 198.192 21.9852C198.4 22.1886 198.517 22.4645 198.517 22.7521C198.517 23.0398 198.4 23.3156 198.192 23.519C197.984 23.7224 197.701 23.8367 197.406 23.8367V26.0058C197.701 26.0058 197.984 26.1201 198.192 26.3235C198.4 26.5269 198.517 26.8027 198.517 27.0904C198.517 27.378 198.4 27.6539 198.192 27.8573C197.984 28.0607 197.701 28.175 197.406 28.175V30.3441C197.701 30.3441 197.984 30.4584 198.192 30.6618C198.4 30.8651 198.517 31.141 198.517 31.4287C198.517 31.7163 198.4 31.9922 198.192 32.1956C197.984 32.399 197.701 32.5132 197.406 32.5132V34.6824C197.701 34.6824 197.984 34.7966 198.192 35C198.4 35.2034 198.517 35.4793 198.517 35.7669C198.517 36.0546 198.4 36.3304 198.192 36.5338C197.984 36.7372 197.701 36.8515 197.406 36.8515V39.0206C197.701 39.0206 197.984 39.1349 198.192 39.3383C198.4 39.5417 198.517 39.8176 198.517 40.1052C198.517 40.3928 198.4 40.6687 198.192 40.8721C197.984 41.0755 197.701 41.1898 197.406 41.1898V43.3589C197.701 43.3589 197.984 43.4732 198.192 43.6766C198.4 43.88 198.517 44.1558 198.517 44.4435H200.907C200.907 44.1558 201.024 43.88 201.232 43.6766C201.44 43.4732 201.723 43.3589 202.018 43.3589C202.313 43.3589 202.595 43.4732 202.804 43.6766C203.012 43.88 203.129 44.1558 203.129 44.4435H205.518C205.518 44.1558 205.635 43.88 205.844 43.6766C206.052 43.4732 206.335 43.3589 206.629 43.3589C206.924 43.3589 207.207 43.4732 207.415 43.6766C207.624 43.88 207.741 44.1558 207.741 44.4435H210.13C210.13 44.1558 210.247 43.88 210.455 43.6766C210.664 43.4732 210.946 43.3589 211.241 43.3589C211.536 43.3589 211.818 43.4732 212.027 43.6766C212.235 43.88 212.352 44.1558 212.352 44.4435H214.741C214.743 44.3352 214.761 44.2279 214.797 44.1253C214.855 43.9352 214.967 43.7649 215.119 43.6337C215.279 43.494 215.477 43.4025 215.689 43.3704C215.901 43.3382 216.118 43.3666 216.314 43.4523C216.51 43.5379 216.676 43.6771 216.793 43.853C216.91 44.0289 216.971 44.234 216.971 44.4435H219.36C219.36 44.1558 219.477 43.88 219.686 43.6766C219.894 43.4732 220.177 43.3589 220.471 43.3589C220.766 43.3589 221.049 43.4732 221.257 43.6766C221.466 43.88 221.583 44.1558 221.583 44.4435H223.976C223.976 44.1558 224.093 43.88 224.301 43.6766C224.509 43.4732 224.792 43.3589 225.087 43.3589C225.381 43.3589 225.664 43.4732 225.872 43.6766C226.081 43.88 226.198 44.1558 226.198 44.4435H228.587C228.587 44.1558 228.704 43.88 228.913 43.6766C229.121 43.4732 229.404 43.3589 229.698 43.3589C229.993 43.3589 230.276 43.4732 230.484 43.6766C230.692 43.88 230.81 44.1558 230.81 44.4435H233.199C233.199 44.1558 233.316 43.88 233.524 43.6766C233.733 43.4732 234.015 43.3589 234.31 43.3589C234.605 43.3589 234.887 43.4732 235.096 43.6766C235.304 43.88 235.421 44.1558 235.421 44.4435H237.781C237.781 44.1558 237.898 43.88 238.106 43.6766C238.314 43.4732 238.597 43.3589 238.892 43.3589C239.187 43.3589 239.469 43.4732 239.678 43.6766C239.886 43.88 240.003 44.1558 240.003 44.4435H242.392C242.378 44.1558 242.482 43.8746 242.681 43.6617C242.88 43.4489 243.157 43.3217 243.452 43.3083C243.746 43.2949 244.034 43.3963 244.252 43.5902C244.471 43.7841 244.601 44.0546 244.615 44.3422C244.617 44.376 244.617 44.4098 244.615 44.4435H247.004C247.004 44.1558 247.121 43.88 247.329 43.6766C247.538 43.4732 247.82 43.3589 248.115 43.3589C248.41 43.3589 248.692 43.4732 248.901 43.6766C249.109 43.88 249.226 44.1558 249.226 44.4435H251.615C251.615 44.1558 251.732 43.88 251.941 43.6766C252.149 43.4732 252.432 43.3589 252.726 43.3589V41.1898C252.432 41.1898 252.149 41.0755 251.941 40.8721C251.732 40.6687 251.615 40.3928 251.615 40.1052C251.615 39.8176 251.732 39.5417 251.941 39.3383C252.149 39.1349 252.432 39.0206 252.726 39.0206V36.8515C252.432 36.8515 252.149 36.7372 251.941 36.5338C251.732 36.3304 251.615 36.0546 251.615 35.7669C251.615 35.4793 251.732 35.2034 251.941 35C252.149 34.7966 252.432 34.6824 252.726 34.6824V32.5132C252.432 32.5132 252.149 32.399 251.941 32.1956C251.732 31.9922 251.615 31.7163 251.615 31.4287C251.615 31.141 251.732 30.8651 251.941 30.6618C252.149 30.4584 252.432 30.3441 252.726 30.3441V28.175C252.432 28.175 252.149 28.0607 251.941 27.8573C251.732 27.6539 251.615 27.378 251.615 27.0904C251.615 26.8027 251.732 26.5269 251.941 26.3235C252.149 26.1201 252.432 26.0058 252.726 26.0058V23.8367C252.432 23.8367 252.149 23.7224 251.941 23.519C251.732 23.3156 251.615 23.0398 251.615 22.7521C251.615 22.4645 251.732 22.1886 251.941 21.9852C252.149 21.7818 252.432 21.6675 252.726 21.6675V19.4984C252.432 19.4984 252.149 19.3841 251.941 19.1807C251.732 18.9774 251.615 18.7015 251.615 18.4138C251.615 18.1262 251.732 17.8503 251.941 17.6469C252.149 17.4435 252.432 17.3293 252.726 17.3293V15.1601C252.432 15.1601 252.149 15.0459 251.941 14.8425C251.732 14.6391 251.615 14.3632 251.615 14.0756C251.615 13.7879 251.732 13.5121 251.941 13.3087C252.149 13.1053 252.432 12.991 252.726 12.991H252.73ZM244.148 23.2149C243.674 23.6125 244.148 25.8721 243.448 25.8937C242.748 25.9154 241.703 27.5965 241.566 27.9074C241.429 28.2183 241.703 28.3738 241.937 28.2689C242.844 27.6254 242.888 29.1981 242.959 29.2631C242.911 29.4186 242.481 29.6644 242.64 29.7946C243.4 30.5176 242.959 31.7287 242.64 32.2529C242.657 32.4669 242.735 32.6719 242.866 32.8441C242.997 33.0163 243.176 33.1486 243.381 33.2254C244.037 33.4243 243.696 33.8906 243.674 34.0461C243.652 34.2015 242.474 35.0186 241.703 35.3512C241.088 35.6151 240.118 35.0475 239.71 34.7294C239.385 34.5388 239.013 34.4381 238.634 34.4381C238.255 34.4381 237.883 34.5388 237.558 34.7294C236.655 35.2608 236.788 36.2658 236.969 36.6997C236.695 36.6322 236.407 36.6322 236.132 36.6997C235.698 36.7408 235.26 36.704 234.84 36.5912C234.525 36.5695 234.206 36.2586 233.821 35.926C233.436 35.5934 233.143 35.7922 233.165 35.8139C232.554 36.2152 232.373 36.0381 232.124 35.9911C231.876 35.9441 231.443 35.7272 230.876 35.5283C230.621 35.4148 230.338 35.3759 230.061 35.4163L229.339 34.7764C230.028 34.9354 230.221 30.3043 230.221 30.3043C230.19 30.1357 230.19 29.9632 230.221 29.7946C230.193 29.3569 230.14 28.9211 230.061 28.4895C230.061 28.2039 229.565 28.5582 229.339 28.0701C229.113 27.5821 228.795 27.6724 228.795 27.3471C228.795 27.0217 227.865 25.1996 226.483 25.2213C225.102 25.243 224.631 23.6053 224.672 23.5836C225.042 22.7883 227.165 22.7232 227.324 22.7232C228.206 23.4065 228.772 23.3631 228.806 23.298C230.006 23.298 229.461 21.8158 229.506 21.7905C229.417 20.5288 230.121 20.9517 230.187 20.9083C230.732 22.0399 231.669 21.8808 232.065 21.6603C232.521 20.5071 233.221 20.3552 233.265 20.3552C234.747 20.3552 234.558 18.3849 234.536 18.2945C234.762 17.1449 235.758 17.5715 235.873 17.5715C236.029 18.2945 237.751 19.1875 237.91 19.2526C238.907 19.4767 238.34 20.0732 238.651 20.0515C238.962 20.0299 239.555 20.16 239.599 20.3625C239.644 20.5649 240.34 21.024 240.462 21.1578C241.005 21.1223 241.549 21.1823 242.07 21.3349C242.681 22.199 243.133 22.0218 244.152 22.2641C245.17 22.5063 244.626 22.8172 244.148 23.2149Z" fill="#ED1D54"/>
<path d="M233.208 41.9951C229.061 40.5063 219.172 32.5838 212.791 12.8047L230.656 14.7185L241.822 18.3872V33.3813L233.208 41.9951Z" fill="#ED1D54"/>
<path d="M247.488 13.1377H202.9V41.1769H247.488V13.1377Z" fill="#F69131"/>
<path d="M211.067 38.4373L204.847 38.4113C204.702 38.6325 204.558 38.8407 204.4 39.049V41.1183L211.619 41.1573C211.277 40.2723 211.094 39.3613 211.067 38.4373ZM222.498 27.5441C222.315 26.9585 222.144 26.3728 221.987 25.8002C221.107 22.5856 220.412 19.3189 219.913 16.0262C219.834 15.4926 219.755 14.9721 219.69 14.4515C219.624 13.996 219.517 13.5276 219.464 13.0851L213.01 13.085C212.957 13.5144 212.892 13.9569 212.826 14.4124C212.747 14.92 212.668 15.4406 212.59 15.9872C212.065 19.2799 211.356 22.5335 210.451 25.7481C210.28 26.3338 210.109 26.9194 209.926 27.4921C209.702 28.2079 209.453 28.9106 209.204 29.6004L223.207 29.6655C222.958 28.9627 222.721 28.2599 222.498 27.5441ZM213.718 24.5898C214.506 21.0108 214.926 17.1845 214.926 17.1845L217.642 17.1975C217.813 18.7723 218.811 24.6289 218.811 24.6289L213.718 24.5898ZM227.512 38.5154L221.291 38.4893C221.252 39.4134 221.068 40.3244 220.74 41.1833L227.958 41.2224V39.1531C227.8 38.9449 227.656 38.7366 227.512 38.5154Z" fill="#F27500"/>
<path d="M221.277 38.4886C221.277 38.3714 221.29 38.2413 221.29 38.1241C221.303 37.0439 221.106 35.9767 220.713 34.9746C220.66 34.8575 220.621 34.7404 220.568 34.6232C220.201 33.7903 219.663 33.0355 218.98 32.4368C218.18 31.8381 217.195 31.5128 216.185 31.5128H216.172C215.187 31.5128 214.216 31.8121 213.416 32.3847C212.707 32.9964 212.143 33.7643 211.775 34.6232C211.71 34.7664 211.644 34.9226 211.591 35.0657C211.237 36.0288 211.053 37.0439 211.053 38.0721C211.053 38.1892 211.053 38.3194 211.066 38.4365L204.846 38.4105C206.631 35.7945 208.061 32.7752 209.216 29.5996L223.219 29.6647C224.348 32.8532 225.752 35.8987 227.524 38.5276L221.277 38.4886Z" fill="#F27500"/>
<path d="M229.218 38.5283L229.205 41.3004L220.176 41.2614L220.189 38.6194V38.4893H220.268H221.291L227.512 38.5153L229.218 38.5283Z" fill="#D96600"/>
<path d="M211.933 38.4502L211.92 41.2223L202.891 41.1832L202.904 38.4111L204.833 38.4241L211.054 38.4502H211.933Z" fill="#D96600"/>
<path d="M225.122 27.5566L223.206 29.665L209.203 29.5999L207.418 27.4785L209.912 27.4915L222.498 27.5436L225.122 27.5566Z" fill="#D96600"/>
<path d="M225.122 27.5564L207.418 27.4783V25.7344L225.122 25.8125V27.5564Z" fill="#D96600"/>
<path d="M219.911 16.0122L212.588 15.9732L211.709 14.3984L220.83 14.4375L219.911 16.0122Z" fill="#D96600"/>
<path d="M220.83 14.4508L211.709 14.3988V13.0713L220.83 13.1103V14.4508Z" fill="#D96600"/>
<path d="M238.564 21.088C238.692 20.4924 239.262 19.4494 240.513 20.0415" stroke="#F27500" stroke-width="0.5" stroke-linecap="round" stroke-linejoin="round"/>
<path d="M243.212 22.6537C243.372 23.2417 243.346 24.4277 241.961 24.4679" stroke="#F27500" stroke-width="0.5" stroke-linecap="round" stroke-linejoin="round"/>
<g clip-path="url(#clip1)" filter="url(#filter0_i)">
<path d="M225.698 41.2379C223.866 39.7007 222.646 36.9631 222.646 33.8414C222.646 29.0338 225.54 25.1367 229.108 25.1367C232.676 25.1367 235.569 29.0338 235.569 33.8414C235.569 36.912 234.389 39.6104 232.607 41.1603" fill="#3BDBA1"/>
<path d="M229.236 29.56C232.724 29.56 235.551 26.752 235.551 23.2883C235.551 19.8245 232.724 17.0166 229.236 17.0166C225.749 17.0166 222.922 19.8245 222.922 23.2883C222.922 26.752 225.749 29.56 229.236 29.56Z" fill="#3BDBA1"/>
<path d="M231.791 33.1194C231.405 33.4782 230.48 33.9157 229.863 32.7949C229.922 32.8392 228.958 34.3876 228.053 32.7949C227.994 32.7949 227.104 34.3876 226.288 32.7949" stroke="#54FFC1" stroke-width="0.3" stroke-linecap="round" stroke-linejoin="round"/>
<path d="M230.768 31.8515C230.115 31.8515 229.833 31.3795 229.774 31.1436C229.833 31.1878 228.869 32.7363 227.964 31.1436C227.905 31.3795 227.623 31.8515 226.97 31.8515" stroke="#54FFC1" stroke-width="0.3" stroke-linecap="round" stroke-linejoin="round"/>
<g filter="url(#filter1_d)">
<path d="M226.372 34.1562C226.301 36.4514 225.578 38.5194 224.452 40.0411C223.254 38.4173 222.545 36.1458 222.621 33.6553C222.692 31.3592 223.414 29.2921 224.54 27.7695C225.738 29.3915 226.448 31.663 226.372 34.1562Z" fill="#54FFC1"/>
</g>
<path d="M233.682 27.7334L234.607 26.9334C234.617 26.925 234.624 26.9137 234.627 26.901C234.63 26.8884 234.629 26.8751 234.623 26.8633C234.618 26.8515 234.609 26.8418 234.597 26.8357C234.586 26.8295 234.573 26.8273 234.56 26.8294L234.427 26.8485L235.07 26.261C235.08 26.2521 235.086 26.2403 235.089 26.2274C235.091 26.2145 235.089 26.2012 235.083 26.1897C235.076 26.1781 235.066 26.1689 235.054 26.1635C235.042 26.1581 235.029 26.1568 235.016 26.1598L234.818 26.2072" fill="#3BDBA1"/>
<path d="M224.63 27.5912L223.729 26.7592C223.72 26.7505 223.714 26.739 223.712 26.7264C223.71 26.7139 223.712 26.701 223.717 26.6897C223.723 26.6784 223.732 26.6692 223.744 26.6635C223.755 26.6577 223.768 26.6558 223.781 26.658L223.912 26.6817L223.289 26.0723C223.28 26.0631 223.274 26.051 223.272 26.038C223.27 26.025 223.273 26.0117 223.279 26.0003C223.286 25.9889 223.296 25.9801 223.309 25.9751C223.321 25.9701 223.334 25.9693 223.347 25.9729L223.544 26.0258" fill="#3BDBA1"/>
<path d="M229.393 23.4386L229.993 24.2596C230.006 24.2723 230.015 24.2874 230.022 24.3039C230.029 24.3205 230.032 24.3381 230.031 24.3559C230.031 24.3737 230.027 24.3912 230.02 24.4074C230.012 24.4236 230.002 24.4382 229.989 24.4503L229.354 25.5121C229.328 25.5368 229.293 25.5502 229.256 25.5493C229.22 25.5485 229.186 25.5335 229.161 25.5076L228.561 24.4129C228.536 24.3874 228.521 24.353 228.521 24.3171C228.521 24.2812 228.536 24.2468 228.561 24.2213L229.197 23.4395C229.209 23.426 229.224 23.4152 229.241 23.4078C229.258 23.4004 229.276 23.3966 229.295 23.3965C229.313 23.3964 229.332 23.4001 229.349 23.4073C229.365 23.4146 229.381 23.4252 229.393 23.4386Z" fill="#FDE01B"/>
<path d="M229.207 25.2561C229.309 25.4584 229.334 25.5313 229.355 25.5102C229.279 25.5861 229.194 25.5412 229.162 25.5096C228.982 25.1936 228.607 24.536 228.556 24.4349C228.505 24.3338 228.519 24.2765 228.529 24.266C228.681 24.0132 229.123 23.4991 229.229 23.4128C229.284 23.3674 229.331 23.3971 229.356 23.4127L229.356 23.4128L229.396 23.4424L228.72 24.3292C228.847 24.5609 229.106 25.0539 229.207 25.2561Z" fill="#DCC31E"/>
<path d="M231.641 23.8268C232.657 23.8268 233.48 23.0084 233.48 21.9989C233.48 20.9893 232.657 20.1709 231.641 20.1709C230.626 20.1709 229.803 20.9893 229.803 21.9989C229.803 23.0084 230.626 23.8268 231.641 23.8268Z" fill="white"/>
<path d="M231.223 22.8302C231.823 22.8302 232.309 22.3466 232.309 21.7501C232.309 21.1535 231.823 20.6699 231.223 20.6699C230.623 20.6699 230.137 21.1535 230.137 21.7501C230.137 22.3466 230.623 22.8302 231.223 22.8302Z" fill="black"/>
<path d="M230.972 21.4174C230.972 21.6468 230.785 21.8328 230.555 21.8328C230.324 21.8328 230.137 21.6468 230.137 21.4174C230.137 21.188 230.324 21.002 230.555 21.002C230.785 21.002 230.972 21.188 230.972 21.4174Z" fill="white"/>
<path d="M226.962 23.8268C227.977 23.8268 228.8 23.0084 228.8 21.9989C228.8 20.9893 227.977 20.1709 226.962 20.1709C225.946 20.1709 225.123 20.9893 225.123 21.9989C225.123 23.0084 225.946 23.8268 226.962 23.8268Z" fill="white"/>
<path d="M226.627 22.8302C227.227 22.8302 227.714 22.3466 227.714 21.7501C227.714 21.1535 227.227 20.6699 226.627 20.6699C226.027 20.6699 225.541 21.1535 225.541 21.7501C225.541 22.3466 226.027 22.8302 226.627 22.8302Z" fill="black"/>
<path d="M232.124 17.9877L234.642 20.5247C234.662 20.5445 234.687 20.5582 234.714 20.5643C234.742 20.5704 234.77 20.5685 234.797 20.5589C234.823 20.5493 234.846 20.5323 234.863 20.5101C234.88 20.4879 234.89 20.4613 234.893 20.4335V17.101C234.895 17.0784 234.892 17.0556 234.883 17.0345C234.875 17.0133 234.862 16.9944 234.845 16.9792C234.828 16.9639 234.808 16.9528 234.786 16.9467C234.764 16.9407 234.741 16.9398 234.718 16.9441L232.202 17.7405C232.176 17.7449 232.151 17.7565 232.13 17.7741C232.11 17.7917 232.095 17.8146 232.087 17.8402C232.079 17.8659 232.078 17.8932 232.085 17.9193C232.091 17.9453 232.105 17.969 232.124 17.9877Z" fill="#3BDBA1"/>
<path d="M232.891 18.1401L234.307 19.5659C234.318 19.5772 234.332 19.5851 234.347 19.5888C234.363 19.5924 234.379 19.5916 234.394 19.5864C234.408 19.5812 234.421 19.5718 234.431 19.5595C234.441 19.5471 234.447 19.5322 234.448 19.5167L234.418 17.4942C234.419 17.4813 234.418 17.4681 234.413 17.4558C234.409 17.4435 234.402 17.4324 234.392 17.4235C234.382 17.4146 234.371 17.408 234.358 17.4045C234.346 17.4009 234.332 17.4004 234.319 17.403L232.933 17.9996C232.918 18.0023 232.904 18.009 232.893 18.0192C232.881 18.0293 232.873 18.0424 232.869 18.0569C232.864 18.0715 232.864 18.087 232.868 18.1016C232.872 18.1163 232.88 18.1296 232.891 18.1401Z" fill="black"/>
<path d="M226.25 17.9928L223.729 20.5288C223.709 20.5487 223.684 20.5626 223.657 20.5687C223.63 20.5748 223.601 20.5729 223.575 20.5633C223.548 20.5537 223.525 20.5367 223.508 20.5144C223.491 20.4921 223.481 20.4654 223.479 20.4376V17.1052C223.477 17.0825 223.48 17.0596 223.488 17.0384C223.496 17.0171 223.51 16.9981 223.527 16.9828C223.544 16.9676 223.564 16.9565 223.586 16.9505C223.608 16.9444 223.631 16.9437 223.654 16.9482L226.169 17.7446C226.197 17.7484 226.222 17.7597 226.243 17.7772C226.264 17.7947 226.279 17.8177 226.288 17.8436C226.296 17.8695 226.297 17.8972 226.291 17.9236C226.284 17.9499 226.27 17.9739 226.25 17.9928Z" fill="#3BDBA1"/>
<path d="M225.483 18.1477L224.066 19.5708C224.055 19.5821 224.042 19.59 224.026 19.5937C224.011 19.5973 223.995 19.5964 223.98 19.5912C223.965 19.586 223.952 19.5767 223.943 19.5643C223.933 19.552 223.927 19.5371 223.926 19.5215L223.955 17.4991C223.953 17.4861 223.955 17.473 223.959 17.4607C223.964 17.4484 223.971 17.4373 223.981 17.4284C223.99 17.4194 224.002 17.4129 224.015 17.4094C224.027 17.4058 224.041 17.4053 224.053 17.4079L225.44 18.0045C225.456 18.0064 225.471 18.0129 225.483 18.0231C225.496 18.0334 225.504 18.047 225.509 18.0623C225.513 18.0775 225.513 18.0937 225.509 18.1089C225.504 18.1241 225.495 18.1376 225.483 18.1477Z" fill="black"/>
<path d="M229.438 17.0205L230.664 16.9785C230.676 16.9783 230.689 16.9821 230.699 16.9894C230.71 16.9967 230.718 17.0072 230.722 17.0192C230.726 17.0313 230.726 17.0443 230.722 17.0563C230.718 17.0684 230.71 17.0788 230.699 17.0862L230.59 17.1619L231.464 17.1555C231.477 17.1551 231.49 17.1593 231.501 17.1672C231.512 17.1751 231.519 17.1864 231.523 17.1993C231.526 17.2121 231.525 17.2258 231.52 17.238C231.515 17.2503 231.506 17.2604 231.494 17.2668L231.317 17.3662" fill="#3BDBA1"/>
<path d="M227.047 17.4053L228.256 16.8853C228.269 16.8803 228.282 16.8795 228.295 16.8829C228.308 16.8864 228.319 16.8939 228.327 16.9043C228.335 16.9147 228.339 16.9274 228.339 16.9405C228.339 16.9535 228.334 16.9662 228.326 16.9765L228.231 17.0969" fill="#F27500"/>
<path d="M227.047 17.4053L228.256 16.8853C228.269 16.8803 228.282 16.8795 228.295 16.8829C228.308 16.8864 228.319 16.8939 228.327 16.9043C228.335 16.9147 228.339 16.9274 228.339 16.9405C228.339 16.9535 228.334 16.9662 228.326 16.9765L228.231 17.0969" fill="#3BDBA1"/>
<path d="M228.35 17.0794L229.555 16.8495C229.567 16.8474 229.58 16.8492 229.591 16.8548C229.603 16.8604 229.612 16.8695 229.618 16.8806C229.624 16.8918 229.626 16.9046 229.624 16.917C229.622 16.9294 229.616 16.9409 229.607 16.9498L229.515 17.0411" fill="#3BDBA1"/>
<path d="M226.377 21.3344C226.377 21.5638 226.19 21.7498 225.959 21.7498C225.728 21.7498 225.541 21.5638 225.541 21.3344C225.541 21.1049 225.728 20.9189 225.959 20.9189C226.19 20.9189 226.377 21.1049 226.377 21.3344Z" fill="white"/>
<ellipse cx="227.003" cy="23.9515" rx="1.46243" ry="0.789346" fill="#3BDBA1"/>
<ellipse cx="231.849" cy="23.9515" rx="1.79669" ry="0.789346" fill="#3BDBA1"/>
</g>
<g filter="url(#filter2_d)">
<path d="M239.11 27.3223C237.666 29.1182 235.838 30.3448 234.017 30.8946C234.038 28.8825 234.843 26.6426 236.409 24.6938C237.853 22.8972 239.681 21.6712 241.502 21.1208C241.481 23.1308 240.677 25.3713 239.11 27.3223Z" fill="#54FFC1"/>
</g>
</g>
<defs>
<filter id="filter0_i" x="222.615" y="1.84766" width="27.9529" height="43.2504" filterUnits="userSpaceOnUse" color-interpolation-filters="sRGB">
<feFlood flood-opacity="0" result="BackgroundImageFix"/>
<feBlend mode="normal" in="SourceGraphic" in2="BackgroundImageFix" result="shape"/>
<feColorMatrix in="SourceAlpha" type="matrix" values="0 0 0 0 0 0 0 0 0 0 0 0 0 0 0 0 0 0 127 0" result="hardAlpha"/>
<feOffset dx="21" dy="-21"/>
<feGaussianBlur stdDeviation="7.5"/>
<feComposite in2="hardAlpha" operator="arithmetic" k2="-1" k3="1"/>
<feColorMatrix type="matrix" values="0 0 0 0 0 0 0 0 0 0 0 0 0 0 0 0 0 0 0.12 0"/>
<feBlend mode="normal" in2="shape" result="effect1_innerShadow"/>
</filter>
<filter id="filter1_d" x="218.615" y="27.7695" width="11.7621" height="20.2715" filterUnits="userSpaceOnUse" color-interpolation-filters="sRGB">
<feFlood flood-opacity="0" result="BackgroundImageFix"/>
<feColorMatrix in="SourceAlpha" type="matrix" values="0 0 0 0 0 0 0 0 0 0 0 0 0 0 0 0 0 0 127 0"/>
<feOffset dy="4"/>
<feGaussianBlur stdDeviation="2"/>
<feColorMatrix type="matrix" values="0 0 0 0 0 0 0 0 0 0 0 0 0 0 0 0 0 0 0.25 0"/>
<feBlend mode="normal" in2="BackgroundImageFix" result="effect1_dropShadow"/>
<feBlend mode="normal" in="SourceGraphic" in2="effect1_dropShadow" result="shape"/>
</filter>
<filter id="filter2_d" x="230.018" y="21.1211" width="15.4856" height="17.7737" filterUnits="userSpaceOnUse" color-interpolation-filters="sRGB">
<feFlood flood-opacity="0" result="BackgroundImageFix"/>
<feColorMatrix in="SourceAlpha" type="matrix" values="0 0 0 0 0 0 0 0 0 0 0 0 0 0 0 0 0 0 127 0"/>
<feOffset dy="4"/>
<feGaussianBlur stdDeviation="2"/>
<feColorMatrix type="matrix" values="0 0 0 0 0 0 0 0 0 0 0 0 0 0 0 0 0 0 0.25 0"/>
<feBlend mode="normal" in2="BackgroundImageFix" result="effect1_dropShadow"/>
<feBlend mode="normal" in="SourceGraphic" in2="effect1_dropShadow" result="shape"/>
</filter>
<clipPath id="clip0">
<rect width="261" height="200" rx="20" fill="white"/>
</clipPath>
<clipPath id="clip1">
<rect width="12.9529" height="28.2504" fill="white" transform="translate(222.615 16.8477)"/>
</clipPath>
</defs>
</svg>
