<svg width="97" height="98" viewBox="0 0 97 98" fill="none" xmlns="http://www.w3.org/2000/svg">
<path d="M48.3385 96.9207C74.7342 96.9207 96.1321 75.5408 96.1321 49.1674C96.1321 22.7939 74.7342 1.41406 48.3385 1.41406C21.9428 1.41406 0.544922 22.7939 0.544922 49.1674C0.544922 75.5408 21.9428 96.9207 48.3385 96.9207Z" fill="#ED1D54" stroke="white" stroke-miterlimit="10"/>
<path d="M48.3381 87.5204C68.9852 87.5204 85.723 70.7967 85.723 50.1669C85.723 29.5372 68.9852 12.8135 48.3381 12.8135C27.6909 12.8135 10.9531 29.5372 10.9531 50.1669C10.9531 70.7967 27.6909 87.5204 48.3381 87.5204Z" stroke="#F2D405" stroke-width="2" stroke-miterlimit="10" stroke-linecap="round" stroke-linejoin="round" stroke-dasharray="10 10"/>
<path d="M31.6249 46.6357H37.2249V44.9137H33.5709V36.9897H31.6249V46.6357ZM44.7725 43.2617C44.7725 41.2597 43.2465 39.9437 41.3845 39.9437C39.5085 39.9437 37.9125 41.2597 37.9125 43.3737C37.9125 45.3897 39.3825 46.7617 41.3845 46.7617C42.5325 46.7617 43.6805 46.3137 44.2965 45.4877L43.2185 44.4097C42.8265 44.8717 42.1685 45.1377 41.5105 45.1377C40.6285 45.1377 40.0125 44.7177 39.8165 43.9617H44.7445C44.7585 43.6677 44.7725 43.4437 44.7725 43.2617ZM39.8165 42.7717C40.0125 41.8897 40.6705 41.5397 41.4125 41.5397C42.2385 41.5397 42.8825 42.0017 42.9385 42.7717H39.8165ZM50.6592 40.1117V43.4577C50.6592 44.6337 49.8472 44.9837 49.1892 44.9837C48.5592 44.9837 47.9432 44.5217 47.9432 43.4997V40.1117H46.1092V43.6957C46.0952 45.6557 46.9912 46.7897 48.6992 46.7897C49.3432 46.7897 50.3792 46.4257 50.6592 45.5717V46.6357H52.4932V40.1117H50.6592ZM60.7536 46.6357L57.6316 42.9817L60.1796 40.1117H57.8276L56.1756 42.0997V36.6257H54.3416V46.6357H56.1756V43.8077L58.4716 46.6357H60.7536ZM67.6045 43.2617C67.6045 41.2597 66.0785 39.9437 64.2165 39.9437C62.3405 39.9437 60.7445 41.2597 60.7445 43.3737C60.7445 45.3897 62.2145 46.7617 64.2165 46.7617C65.3645 46.7617 66.5125 46.3137 67.1285 45.4877L66.0505 44.4097C65.6585 44.8717 65.0005 45.1377 64.3425 45.1377C63.4605 45.1377 62.8445 44.7177 62.6485 43.9617H67.5765C67.5905 43.6677 67.6045 43.4437 67.6045 43.2617ZM62.6485 42.7717C62.8445 41.8897 63.5025 41.5397 64.2445 41.5397C65.0705 41.5397 65.7145 42.0017 65.7705 42.7717H62.6485ZM32.3366 60.6357L29.2146 56.9817L31.7626 54.1117H29.4106L27.7586 56.0997V50.6257H25.9246V60.6357H27.7586V57.8077L30.0546 60.6357H32.3366ZM33.116 60.6357H34.95V50.6257H33.116V60.6357ZM43.2618 57.2617C43.2618 55.2597 41.7358 53.9437 39.8738 53.9437C37.9978 53.9437 36.4018 55.2597 36.4018 57.3737C36.4018 59.3897 37.8718 60.7617 39.8738 60.7617C41.0218 60.7617 42.1698 60.3137 42.7858 59.4877L41.7078 58.4097C41.3158 58.8717 40.6578 59.1377 39.9998 59.1377C39.1178 59.1377 38.5018 58.7177 38.3058 57.9617H43.2338C43.2478 57.6677 43.2618 57.4437 43.2618 57.2617ZM38.3058 56.7717C38.5018 55.8897 39.1598 55.5397 39.9018 55.5397C40.7278 55.5397 41.3718 56.0017 41.4278 56.7717H38.3058ZM49.1484 54.1117V57.4577C49.1484 58.6337 48.3364 58.9837 47.6784 58.9837C47.0484 58.9837 46.4324 58.5217 46.4324 57.4997V54.1117H44.5984V57.6957C44.5844 59.6557 45.4804 60.7897 47.1884 60.7897C47.8324 60.7897 48.8684 60.4257 49.1484 59.5717V60.6357H50.9824V54.1117H49.1484ZM56.5689 53.9437C55.7569 53.9437 55.0149 54.4057 54.6509 55.4977V54.1117H52.8309V60.6357H54.6649V58.3957C54.6649 56.5337 55.3089 55.6657 56.2469 55.6657C56.4709 55.6657 56.7929 55.6937 57.1849 55.9037L57.6049 54.1537C57.3109 53.9997 56.9189 53.9437 56.5689 53.9437ZM64.9043 57.2617C64.9043 55.2597 63.3783 53.9437 61.5163 53.9437C59.6403 53.9437 58.0443 55.2597 58.0443 57.3737C58.0443 59.3897 59.5143 60.7617 61.5163 60.7617C62.6643 60.7617 63.8123 60.3137 64.4283 59.4877L63.3503 58.4097C62.9583 58.8717 62.3003 59.1377 61.6423 59.1377C60.7603 59.1377 60.1443 58.7177 59.9483 57.9617H64.8763C64.8903 57.6677 64.9043 57.4437 64.9043 57.2617ZM59.9483 56.7717C60.1443 55.8897 60.8023 55.5397 61.5443 55.5397C62.3703 55.5397 63.0143 56.0017 63.0703 56.7717H59.9483ZM70.119 53.9437C69.475 53.9437 68.439 54.3217 68.159 55.2037V54.1117H66.325V60.6357H68.159V57.2897C68.159 56.0997 68.971 55.7497 69.629 55.7497C70.259 55.7497 70.875 56.2117 70.875 57.2477V60.6357H72.709V57.0517C72.723 55.0917 71.827 53.9437 70.119 53.9437Z" fill="white"/>
</svg>
