<svg width="169" height="95" viewBox="0 0 169 95" fill="none" xmlns="http://www.w3.org/2000/svg">
<path d="M40.9609 27.3054C40.9609 27.3054 41.4016 17.0609 56.603 16.8406C71.8044 16.6203 86.8957 18.7133 85.0231 5.27431C84.6706 2.75175 84.0317 1.67222 83.3487 1.57308L83.1064 1.54004C82.4234 1.63918 81.7845 2.7187 81.432 5.24126C79.5594 18.6802 94.6507 16.5873 109.852 16.8076C125.054 17.0279 125.494 27.2723 125.494 27.2723" stroke="#1037D0" stroke-width="2" stroke-miterlimit="10" stroke-linecap="round"/>
<path d="M70.8627 39.2753V36.5033H75.4887V34.2533H70.8627V31.3013H76.1367V29.0873H68.3607V41.4893H76.2987V39.2753H70.8627ZM86.4777 37.1513C86.4777 34.5773 84.5157 32.8853 82.1217 32.8853C79.7097 32.8853 77.6577 34.5773 77.6577 37.2953C77.6577 39.8873 79.5477 41.6513 82.1217 41.6513C83.5977 41.6513 85.0737 41.0753 85.8657 40.0133L84.4797 38.6273C83.9757 39.2213 83.1297 39.5633 82.2837 39.5633C81.1497 39.5633 80.3577 39.0233 80.1057 38.0513H86.4417C86.4597 37.6733 86.4777 37.3853 86.4777 37.1513ZM80.1057 36.5213C80.3577 35.3873 81.2037 34.9373 82.1577 34.9373C83.2197 34.9373 84.0477 35.5313 84.1197 36.5213H80.1057ZM93.1823 32.8853C92.3543 32.8853 91.0223 33.3713 90.6623 34.5053V33.1013H88.3043V41.4893H90.6623V37.1873C90.6623 35.6573 91.7063 35.2073 92.5523 35.2073C93.3623 35.2073 94.1543 35.8013 94.1543 37.1333V41.4893H96.5123V36.8813C96.5303 34.3613 95.3783 32.8853 93.1823 32.8853ZM38.9652 50.8853C38.1012 50.8853 36.8052 51.2813 36.1572 52.5053C35.6712 51.4793 34.6992 50.8853 33.4572 50.8853C32.5212 50.8853 31.3332 51.4433 31.0812 52.5953V51.1013H28.7232V59.4893H31.0812V55.1153C31.0812 53.6033 31.9452 53.2073 32.7912 53.2073C33.5832 53.2073 34.2672 53.7293 34.2672 55.0433V59.4893H36.6252V55.0433C36.6792 53.7833 37.3452 53.1893 38.2812 53.2073C39.1092 53.2073 39.7932 53.7473 39.7932 55.0613V59.4893H42.1692V54.8813C42.1692 52.3613 41.0712 50.8853 38.9652 50.8853ZM52.7365 55.1513C52.7365 52.5773 50.7745 50.8853 48.3805 50.8853C45.9685 50.8853 43.9165 52.5773 43.9165 55.2953C43.9165 57.8873 45.8065 59.6513 48.3805 59.6513C49.8565 59.6513 51.3325 59.0753 52.1245 58.0133L50.7385 56.6273C50.2345 57.2213 49.3885 57.5633 48.5425 57.5633C47.4085 57.5633 46.6165 57.0233 46.3645 56.0513H52.7005C52.7185 55.6733 52.7365 55.3853 52.7365 55.1513ZM46.3645 54.5213C46.6165 53.3873 47.4625 52.9373 48.4165 52.9373C49.4785 52.9373 50.3065 53.5313 50.3785 54.5213H46.3645ZM62.8791 55.1513C62.8791 52.5773 60.9171 50.8853 58.5231 50.8853C56.1111 50.8853 54.0591 52.5773 54.0591 55.2953C54.0591 57.8873 55.9491 59.6513 58.5231 59.6513C59.9991 59.6513 61.4751 59.0753 62.2671 58.0133L60.8811 56.6273C60.3771 57.2213 59.5311 57.5633 58.6851 57.5633C57.5511 57.5633 56.7591 57.0233 56.5071 56.0513H62.8431C62.8611 55.6733 62.8791 55.3853 62.8791 55.1513ZM56.5071 54.5213C56.7591 53.3873 57.6051 52.9373 58.5591 52.9373C59.6211 52.9373 60.4491 53.5313 60.5211 54.5213H56.5071ZM67.6756 59.6513C69.4036 59.6513 71.2036 58.7873 71.2036 57.0233C71.2036 56.3393 70.9516 55.0793 68.9356 54.5393L67.5496 54.1793C67.0816 54.0533 66.7216 53.8553 66.7216 53.4593C66.7216 53.0273 67.1536 52.7573 67.6936 52.7573C68.2516 52.7573 68.7196 53.0633 68.7196 53.6213H70.9696C70.9876 51.6413 69.1876 50.8853 67.6576 50.8853C65.7136 50.8853 64.3636 52.0913 64.3636 53.3873C64.3636 54.2693 64.6516 55.4753 66.8116 56.0513L67.9276 56.3213C68.5576 56.4833 68.8456 56.6633 68.8456 57.0233C68.8456 57.5093 68.3236 57.7973 67.6396 57.7973C66.8116 57.7973 66.3976 57.2753 66.3976 56.7893H64.1836C64.2016 58.6433 65.9116 59.6513 67.6756 59.6513ZM77.9701 51.1013H76.1881V48.0233H73.8301V51.1013H72.3001V52.9193H73.8301V59.4893H76.1881V52.9193H77.9701V51.1013ZM87.6642 55.1513C87.6642 52.5773 85.7022 50.8853 83.3082 50.8853C80.8962 50.8853 78.8442 52.5773 78.8442 55.2953C78.8442 57.8873 80.7342 59.6513 83.3082 59.6513C84.7842 59.6513 86.2602 59.0753 87.0522 58.0133L85.6662 56.6273C85.1622 57.2213 84.3162 57.5633 83.4702 57.5633C82.3362 57.5633 81.5442 57.0233 81.2922 56.0513H87.6282C87.6462 55.6733 87.6642 55.3853 87.6642 55.1513ZM81.2922 54.5213C81.5442 53.3873 82.3902 52.9373 83.3442 52.9373C84.4062 52.9373 85.2342 53.5313 85.3062 54.5213H81.2922ZM94.2968 50.8853C93.2528 50.8853 92.2988 51.4793 91.8308 52.8833V51.1013H89.4908V59.4893H91.8488V56.6093C91.8488 54.2153 92.6768 53.0993 93.8828 53.0993C94.1708 53.0993 94.5848 53.1353 95.0888 53.4053L95.6288 51.1553C95.2508 50.9573 94.7468 50.8853 94.2968 50.8853ZM106.719 51.1013L105.135 56.2133L103.533 51.1013H101.553L99.9508 56.2133L98.3668 51.1013H95.8108L98.8708 59.4893H100.887L102.561 54.0353L104.289 59.4893H106.305L109.275 51.1013H106.719ZM118.778 55.1513C118.778 52.5773 116.816 50.8853 114.422 50.8853C112.01 50.8853 109.958 52.5773 109.958 55.2953C109.958 57.8873 111.848 59.6513 114.422 59.6513C115.898 59.6513 117.374 59.0753 118.166 58.0133L116.78 56.6273C116.276 57.2213 115.43 57.5633 114.584 57.5633C113.45 57.5633 112.658 57.0233 112.406 56.0513H118.742C118.76 55.6733 118.778 55.3853 118.778 55.1513ZM112.406 54.5213C112.658 53.3873 113.504 52.9373 114.458 52.9373C115.52 52.9373 116.348 53.5313 116.42 54.5213H112.406ZM125.41 50.8853C124.366 50.8853 123.412 51.4793 122.944 52.8833V51.1013H120.604V59.4893H122.962V56.6093C122.962 54.2153 123.79 53.0993 124.996 53.0993C125.284 53.0993 125.698 53.1353 126.202 53.4053L126.742 51.1553C126.364 50.9573 125.86 50.8853 125.41 50.8853ZM136.266 59.4893L132.252 54.7913L135.528 51.1013H132.504L130.38 53.6573V46.6193H128.022V59.4893H130.38V55.8533L133.332 59.4893H136.266ZM137.718 55.3313H139.554L139.878 47.0873H137.394L137.718 55.3313ZM138.618 59.6513C139.446 59.6513 140.13 59.0393 140.13 58.1933C140.13 57.3653 139.446 56.7533 138.618 56.7533C137.808 56.7533 137.124 57.3653 137.124 58.1933C137.124 59.0393 137.808 59.6513 138.618 59.6513Z" fill="#1037D0"/>
<path d="M40.9531 68.2021C40.9531 68.2021 41.3937 78.4466 56.5952 78.6669C71.7966 78.8872 86.8879 76.7943 85.0153 90.2332C84.6628 92.7558 84.0239 93.8353 83.3409 93.9345L83.0986 93.9675C82.4156 93.8684 81.7767 92.7888 81.4242 90.2663C79.5516 76.8273 94.6429 78.9203 109.844 78.7C125.046 78.4796 125.486 68.2352 125.486 68.2352" stroke="#1037D0" stroke-width="2" stroke-miterlimit="10" stroke-linecap="round"/>
</svg>
