<svg width="150" height="37" viewBox="0 0 150 37" fill="none" xmlns="http://www.w3.org/2000/svg">
<path d="M12.4422 15.6108L7.82471 3.43604L33.0927 9.58751L28.86 13.5603L22.4237 25.7556L0.513672 19.071L12.4422 15.6108Z" fill="#3BDBA1"/>
<path d="M120.828 10.6978C120.828 10.6978 78.2442 27.2299 29.8887 10.6978L18.9863 28.5114C18.9863 28.5114 72.4723 48.2474 128.395 25.8201C129.037 25.5638 120.828 10.6978 120.828 10.6978Z" fill="#43EDB0"/>
<path d="M137.246 12.7485L141.864 0.57373L116.596 6.72521L120.828 10.698L127.266 22.8933L149.175 16.2087L137.246 12.7485Z" fill="#3BDBA1"/>
<path d="M40.4397 21.2674L35.6591 25.9471L39.4642 26.637L39.2027 28.0755L33.3262 27.0098L33.5539 25.7577L38.2874 21.0708L34.6792 20.4131L34.9407 18.9746L40.6703 20.0124L40.4397 21.2674Z" fill="#1037D0"/>
<path d="M41.3453 22.7884L42.885 23.0291L42.024 28.5029L40.4844 28.2636L41.3453 22.7884ZM41.4305 20.8522C41.4514 20.6559 41.5307 20.4703 41.6582 20.3194C41.7857 20.1685 41.9555 20.0592 42.1458 20.0057C42.336 19.9522 42.5379 19.9569 42.7255 20.0192C42.9131 20.0814 43.0776 20.1984 43.198 20.3551C43.3183 20.5117 43.389 20.7008 43.4007 20.8979C43.4124 21.0951 43.3648 21.2912 43.2639 21.461C43.163 21.6308 43.0135 21.7665 42.8346 21.8505C42.6558 21.9346 42.4558 21.9632 42.2606 21.9326C42.1353 21.9162 42.0145 21.8751 41.9051 21.8119C41.7957 21.7486 41.7 21.6643 41.6234 21.5639C41.5468 21.4634 41.4908 21.3489 41.4587 21.2267C41.4266 21.1046 41.419 20.9773 41.4364 20.8522H41.4305Z" fill="#1037D0"/>
<path d="M49.2585 27.2026L45.1097 26.6565C45.1905 27.3156 45.6635 27.7369 46.4069 27.8308C46.6757 27.8709 46.95 27.8538 47.2118 27.7807C47.4735 27.7076 47.7169 27.5801 47.926 27.4066L48.7149 28.4341C48.1052 29.0609 47.0871 29.3149 46.1204 29.1842C44.4324 28.9611 43.3467 27.6429 43.57 25.946C43.8051 24.1655 45.2963 23.2349 46.877 23.4506C48.4578 23.6664 49.5861 24.9347 49.3628 26.6198C49.3393 26.7695 49.3026 26.9574 49.2585 27.2026ZM47.8672 26.0004C47.9069 25.3457 47.4147 24.8862 46.7184 24.7938C46.094 24.7115 45.5005 24.9405 45.2375 25.6539L47.8672 26.0004Z" fill="#1037D0"/>
<path d="M53.7565 25.5873L52.5812 25.464L52.1316 29.7811L50.5802 29.6182L51.0356 25.3026L50.0293 25.1969L50.1542 24.002L51.1605 24.1077L51.3736 22.0864L52.9235 22.2479L52.7105 24.2706L53.8858 24.394L53.7565 25.5873Z" fill="#1037D0"/>
<path d="M62.6592 28.3138L58.4781 28.051C58.6044 28.7028 59.1039 29.0918 59.8517 29.1402C60.1227 29.1624 60.3953 29.1272 60.6518 29.0369C60.9082 28.9466 61.1427 28.8032 61.3399 28.6162L62.1949 29.5894C61.6279 30.2543 60.6289 30.5714 59.6563 30.5097C57.958 30.3997 56.7856 29.1578 56.8958 27.4492C57.0119 25.6569 58.4369 24.6294 60.028 24.7321C61.619 24.8349 62.8296 26.0312 62.7209 27.7281C62.7106 27.8822 62.6871 28.0716 62.6592 28.3138ZM61.1901 27.207C61.1901 26.5508 60.6641 26.1252 59.9633 26.0797C59.3346 26.0386 58.7572 26.2998 58.5427 27.0367L61.1901 27.207Z" fill="#1037D0"/>
<path d="M67.9611 25.2707L67.5527 26.7386C67.3136 26.5948 67.0413 26.5154 66.7623 26.5081C65.966 26.4802 65.3916 27.1965 65.3358 28.7775L65.2682 30.6784L63.7109 30.6226L63.9151 25.0842L65.4607 25.14L65.4195 26.3143C65.7618 25.3984 66.4053 25.0285 67.0958 25.0534C67.3971 25.0588 67.6931 25.1331 67.9611 25.2707Z" fill="#1037D0"/>
<path d="M77.0422 25.2317L77.0877 30.0111C77.1112 32.436 75.8963 33.5781 73.9321 33.5957C73.3675 33.608 72.8113 33.4579 72.3297 33.1633C71.8481 32.8687 71.4614 32.442 71.2156 31.934L72.507 31.3616C72.6428 31.6176 72.8461 31.8317 73.095 31.9805C73.3439 32.1293 73.6288 32.2071 73.9188 32.2056C74.9193 32.1953 75.5437 31.6434 75.5349 30.1931V30.1094C75.1353 30.6482 74.3757 30.905 73.7572 30.9109C72.3292 30.9241 71.0217 29.8305 71.0041 28.0471C70.9865 26.2636 72.2749 25.1465 73.7029 25.1318C74.3331 25.1318 75.0853 25.3696 75.4952 25.901V25.2463L77.0422 25.2317ZM75.4629 28.006C75.4606 27.8178 75.4211 27.6319 75.3468 27.4589C75.2725 27.286 75.1648 27.1293 75.0299 26.998C74.8949 26.8667 74.7353 26.7633 74.5603 26.6937C74.3853 26.6241 74.1983 26.5897 74.0099 26.5924C73.821 26.5912 73.6338 26.6277 73.4592 26.6998C73.2846 26.772 73.1262 26.8782 72.9933 27.0124C72.8604 27.1465 72.7557 27.3059 72.6853 27.481C72.6149 27.6562 72.5803 27.8436 72.5834 28.0324C72.5869 28.4139 72.7419 28.7784 73.0144 29.0457C73.1494 29.1781 73.309 29.2826 73.4844 29.3533C73.6597 29.4239 73.8473 29.4594 74.0364 29.4577C74.2254 29.456 74.4123 29.417 74.5863 29.3431C74.7603 29.2692 74.9181 29.1618 75.0505 29.027C75.183 28.8922 75.2876 28.7327 75.3583 28.5575C75.4291 28.3823 75.4646 28.1949 75.4629 28.006Z" fill="#1037D0"/>
<path d="M78.3786 27.9602C78.2963 26.1987 79.645 24.9965 81.2258 24.9216C82.8066 24.8468 84.2639 25.9213 84.3462 27.6798C84.4285 29.4383 83.0798 30.6317 81.499 30.7066C79.9182 30.7815 78.4594 29.707 78.3786 27.9602ZM82.7654 27.7532C82.7243 26.8871 82.0676 26.3338 81.2963 26.3704C81.0084 26.3751 80.7285 26.4654 80.4923 26.6299C80.2561 26.7944 80.0744 27.0255 79.9704 27.2937C79.8663 27.5619 79.8448 27.8551 79.9084 28.1356C79.972 28.4161 80.1179 28.6713 80.3274 28.8686C80.537 29.0658 80.8007 29.1961 81.0848 29.2428C81.3689 29.2895 81.6604 29.2505 81.9222 29.1307C82.1839 29.011 82.404 28.8159 82.5542 28.5705C82.7044 28.3252 82.778 28.0406 82.7654 27.7532Z" fill="#1037D0"/>
<path d="M91.1483 27.6365L86.9804 27.9874C87.2008 28.6127 87.7532 28.9253 88.4995 28.8681C88.7707 28.8505 89.0351 28.7761 89.2756 28.6497C89.516 28.5232 89.7271 28.3476 89.8952 28.1342L90.8839 28.9694C90.4226 29.7121 89.4809 30.1731 88.5083 30.2553C86.8129 30.402 85.4701 29.3422 85.3262 27.6365C85.1793 25.8472 86.4324 24.6186 88.022 24.485C89.6116 24.3514 90.9853 25.3569 91.1292 27.0523C91.1351 27.1962 91.138 27.3855 91.1483 27.6365ZM89.5323 26.7558C89.4294 26.1085 88.8506 25.7635 88.1513 25.8222C87.5225 25.8751 86.9907 26.2186 86.8864 26.9789L89.5323 26.7558Z" fill="#1037D0"/>
<path d="M97.4001 20.6099L98.4476 29.0473L96.9006 29.2381L96.8154 28.5541C96.4936 29.1412 95.7561 29.4877 95.142 29.564C93.7258 29.7387 92.3022 28.8007 92.0818 27.0319C91.8615 25.2631 93.0133 24.0051 94.4324 23.8289C95.07 23.7497 95.8428 23.8935 96.3012 24.4L95.8604 20.8022L97.4001 20.6099ZM96.5113 26.4814C96.4763 26.1991 96.3583 25.9335 96.1723 25.7181C95.9863 25.5028 95.7406 25.3474 95.4662 25.2716C95.1917 25.1957 94.901 25.2029 94.6307 25.2922C94.3603 25.3814 94.1226 25.5487 93.9474 25.773C93.7722 25.9973 93.6675 26.2684 93.6466 26.5521C93.6256 26.8358 93.6893 27.1193 93.8296 27.3668C93.9698 27.6144 94.1804 27.8148 94.4347 27.9428C94.689 28.0708 94.9755 28.1205 95.2581 28.0858C95.446 28.0635 95.6276 28.0042 95.7925 27.9114C95.9574 27.8186 96.1023 27.6941 96.2188 27.5451C96.3353 27.3961 96.4211 27.2255 96.4713 27.0432C96.5215 26.8609 96.5351 26.6705 96.5113 26.4829V26.4814Z" fill="#1037D0"/>
<path d="M107.358 21.9204L108.354 27.3707L106.821 27.651L106.659 26.7615C106.555 27.5175 105.744 27.9799 105.206 28.0826C103.778 28.3439 102.856 27.5336 102.562 25.894L102.014 22.8995L103.547 22.6191L104.065 25.4492C104.222 26.3035 104.807 26.5956 105.334 26.4988C105.883 26.3989 106.509 25.9821 106.33 25L105.819 22.211L107.358 21.9204Z" fill="#1037D0"/>
<path d="M108.26 19.7539C108.209 19.5632 108.217 19.3616 108.282 19.1752C108.347 18.9887 108.466 18.8261 108.624 18.7081C108.783 18.5901 108.973 18.5222 109.17 18.5132C109.368 18.5042 109.563 18.5545 109.732 18.6576C109.9 18.7607 110.034 18.9119 110.116 19.0916C110.197 19.2713 110.223 19.4714 110.19 19.666C110.157 19.8606 110.066 20.0408 109.929 20.1834C109.793 20.3259 109.616 20.4243 109.423 20.4659C109.175 20.5243 108.913 20.4823 108.695 20.349C108.477 20.2157 108.321 20.0018 108.26 19.7539ZM108.872 21.5917L110.397 21.2673L111.555 26.6853L110.032 27.0097L108.872 21.5917Z" fill="#1037D0"/>
<path d="M115.383 21.3444L114.238 21.6159L115.238 25.8376L113.718 26.1972L112.716 21.9755L111.731 22.2075L111.455 21.0332L112.439 20.8012L111.969 18.8225L113.487 18.4629L113.956 20.4416L115.101 20.17L115.383 21.3444Z" fill="#1037D0"/>
<path d="M115.48 17.3358L117.07 16.9204L118.245 22.2444L117.07 22.5512L115.48 17.3358ZM117.166 24.4786C117.11 24.2885 117.112 24.0862 117.172 23.8974C117.232 23.7086 117.347 23.5421 117.502 23.4191C117.658 23.2962 117.846 23.2224 118.044 23.2074C118.242 23.1923 118.439 23.2366 118.612 23.3346C118.784 23.4326 118.923 23.5797 119.011 23.7572C119.099 23.9347 119.132 24.1344 119.105 24.3307C119.079 24.527 118.995 24.711 118.863 24.8589C118.731 25.0069 118.558 25.1121 118.366 25.1611C118.242 25.1964 118.113 25.2066 117.986 25.1913C117.858 25.1759 117.735 25.1352 117.623 25.0716C117.512 25.0081 117.414 24.9228 117.336 24.821C117.258 24.7191 117.201 24.6027 117.168 24.4786H117.166Z" fill="#1037D0"/>
</svg>
