<svg width="130" height="88" viewBox="0 0 130 88" fill="none" xmlns="http://www.w3.org/2000/svg">
<path d="M8.16251 59.1978C8.16251 59.1978 -3.51259 31.0005 26.0447 28.2099C55.6019 25.4194 58.2946 20.6829 58.2946 20.6829C58.2946 20.6829 65.5056 9.04504 82.6259 9.7512C99.7462 10.4574 94.8734 17.6606 106.748 16.2316C118.622 14.8026 128.861 34.567 120.791 46.2024C112.721 57.8378 105.509 44.4876 88.4684 60.3914C63.186 83.9888 54.9044 72.5999 48.618 69.6991C48.0295 69.4263 47.4633 69.1138 46.9037 68.7846C45.7372 68.0993 42.4842 73.3298 29.8766 75.9169C14.3596 79.1018 10.5719 63.7473 8.16251 59.1978Z" fill="#3BDBA1"/>
<path d="M29.1784 41.9067L17.3092 44.8347L18.0457 47.8202L25.5216 45.976L20.4785 59.0391L21.1192 61.6362L33.3039 58.6304L32.5674 55.6449L24.6789 57.5909L29.8191 44.5039L29.1784 41.9067ZM41.0355 56.9549C44.2637 56.1585 46.553 53.1218 45.6728 49.5538C44.7866 45.9615 41.3477 44.3379 38.1195 45.1342C34.8912 45.9306 32.6019 48.9673 33.4881 52.5596C34.3683 56.1276 37.8072 57.7512 41.0355 56.9549ZM40.305 53.9936C38.7273 54.3828 37.1474 53.5108 36.7163 51.7632C36.2792 49.9913 37.2722 48.4846 38.85 48.0954C40.4277 47.7062 42.0075 48.5782 42.4446 50.3501C42.8757 52.0977 41.8827 53.6044 40.305 53.9936ZM75.071 48.327L68.9066 32.1063L65.9939 32.8248L63.5789 45.0593L55.7024 35.3636L52.8383 36.0701L54.9006 53.3028L58.3473 52.4525L57.0042 41.7888L63.2202 49.242L65.8659 48.5893L67.8539 39.1123L71.6243 49.1772L75.071 48.327ZM83.1328 46.57C86.3611 45.7736 88.6504 42.7369 87.7702 39.1689C86.884 35.5766 83.4451 33.953 80.2168 34.7493C76.9886 35.5457 74.6993 38.5824 75.5855 42.1747C76.4657 45.7427 79.9046 47.3663 83.1328 46.57ZM82.4023 43.6087C80.8246 43.9979 79.2448 43.1259 78.8137 41.3783C78.3766 39.6065 79.3696 38.0998 80.9473 37.7106C82.525 37.3214 84.1049 38.1934 84.542 39.9652C84.9731 41.7129 83.98 43.2195 82.4023 43.6087ZM97.1179 43.12C100.346 42.3237 102.635 39.287 101.755 35.7189C100.869 32.1266 97.4301 30.503 94.2019 31.2994C90.9737 32.0958 88.6843 35.1325 89.5705 38.7248C90.4507 42.2928 93.8897 43.9164 97.1179 43.12ZM96.3874 40.1588C94.8097 40.548 93.2299 39.676 92.7987 37.9284C92.3616 36.1565 93.3547 34.6498 94.9324 34.2606C96.5101 33.8714 98.0899 34.7434 98.527 36.5153C98.9581 38.2629 97.9651 39.7696 96.3874 40.1588ZM103.951 27.0662C105.068 26.7908 105.756 25.7197 105.493 24.6517C105.229 23.5837 104.128 22.98 103.011 23.2554C101.919 23.5249 101.2 24.5777 101.463 25.6457C101.727 26.7136 102.859 27.3356 103.951 27.0662ZM105.661 40.7809L108.84 39.9965L106.05 28.6856L102.87 29.47L105.661 40.7809ZM111.26 33.4514L113.736 32.8406L111.431 21.6161L108.081 22.4424L111.26 33.4514ZM113.911 38.9774C115.028 38.7019 115.746 37.6491 115.465 36.5083C115.19 35.3918 114.064 34.7941 112.947 35.0695C111.855 35.339 111.136 36.3917 111.412 37.5083C111.693 38.6491 112.819 39.2468 113.911 38.9774Z" fill="white"/>
</svg>
